<svg version="1.1" xmlns="http://www.w3.org/2000/svg" xmlns:xlink="http://www.w3.org/1999/xlink" width="66.29034" height="56.87781" viewBox="0,0,66.29034,56.87781"><g transform="translate(-202.42147,-154.17801)"><g data-paper-data="{&quot;isPaintingLayer&quot;:true}" fill-rule="nonzero" stroke-linecap="butt" stroke-linejoin="miter" stroke-miterlimit="10" stroke-dasharray="" stroke-dashoffset="0" style="mix-blend-mode: normal"><path d="M251.15023,192.29004c0,10.23531 1.48365,18.76578 -14.18807,18.76578c-15.67172,0 -20.73641,-8.45276 -20.73641,-18.68807c0,-10.23531 5.06469,-18.37725 20.73641,-18.37725c15.67172,0 14.18807,8.06424 14.18807,18.29955z" fill="#fff6db" stroke="none" stroke-width="0"/><path d="M267.71181,170.99342c0,9.49968 -14.39188,17.2007 -32.14517,17.2007c-17.75329,0 -32.14517,-7.70101 -32.14517,-17.2007c0,-9.49968 14.049,-15.81541 31.80229,-15.81541c17.75329,0 32.48805,6.31572 32.48805,15.81541z" fill="#ff4949" stroke="#b73535" stroke-width="2"/><path d="M229.11383,180.61924c0,2.85408 -3.54908,5.16777 -7.9271,5.16777c-4.37801,0 -7.9271,-2.31369 -7.9271,-5.16777c0,-2.85408 3.54908,-5.16777 7.9271,-5.16777c4.37801,0 7.9271,2.31369 7.9271,5.16777z" fill="#fff7e6" stroke="#f5eddc" stroke-width="2"/><path d="M265.63511,168.52063c0,5.14008 -6.70779,9.30692 -14.98229,9.30692c-8.2745,0 -14.98228,-4.16685 -14.98228,-9.30692c0,-5.14008 6.70779,-9.30692 14.98228,-9.30692c8.2745,0 14.98229,4.16685 14.98229,9.30692z" fill="#fff7e6" stroke="#f5eddc" stroke-width="2"/><path d="M233.93625,166.81934c0,4.26999 -5.57234,7.7315 -12.44617,7.7315c-6.87383,0 -12.44616,-3.46151 -12.44616,-7.7315c0,-4.26999 5.57234,-7.7315 12.44616,-7.7315c6.87383,0 12.44617,3.46151 12.44617,7.7315z" fill="#fff7e6" stroke="#f5eddc" stroke-width="2"/><path d="M247.55529,182.40279c0,2.85408 -3.54908,5.16777 -7.9271,5.16777c-4.37801,0 -7.9271,-2.31369 -7.9271,-5.16777c0,-2.85408 3.54908,-5.16777 7.9271,-5.16777c4.37801,0 7.9271,2.31369 7.9271,5.16777z" fill="#fff7e6" stroke="#f5eddc" stroke-width="2"/></g></g></svg>