<svg version="1.1" xmlns="http://www.w3.org/2000/svg" xmlns:xlink="http://www.w3.org/1999/xlink" width="43.03811" height="41.96123" viewBox="0,0,43.03811,41.96123"><defs><linearGradient x1="225.50896" y1="183.08909" x2="225.50896" y2="186.63407" gradientUnits="userSpaceOnUse" id="color-1"><stop offset="0" stop-color="#ffbd00"/><stop offset="1" stop-color="#ffb700"/></linearGradient><linearGradient x1="254.49104" y1="183.85389" x2="254.49104" y2="187.39889" gradientUnits="userSpaceOnUse" id="color-2"><stop offset="0" stop-color="#ffbd00"/><stop offset="1" stop-color="#ffb700"/></linearGradient><linearGradient x1="240.58573" y1="162.76938" x2="240.58573" y2="191.04547" gradientUnits="userSpaceOnUse" id="color-3"><stop offset="0" stop-color="#ffee00"/><stop offset="1" stop-color="#ffad00"/></linearGradient><linearGradient x1="240.58573" y1="162.76938" x2="240.58573" y2="191.04547" gradientUnits="userSpaceOnUse" id="color-4"><stop offset="0" stop-color="#ffee00"/><stop offset="1" stop-color="#ffad00"/></linearGradient><linearGradient x1="221.35064" y1="176.71784" x2="259.40678" y2="176.71784" gradientUnits="userSpaceOnUse" id="color-5"><stop offset="0" stop-color="#3ef9ff"/><stop offset="1" stop-color="#5b74fa"/></linearGradient></defs><g transform="translate(-218.87341,-159.01939)"><g data-paper-data="{&quot;isPaintingLayer&quot;:true}" fill-rule="nonzero" stroke-linejoin="miter" stroke-miterlimit="10" stroke-dasharray="" stroke-dashoffset="0" style="mix-blend-mode: normal"><path d="M222.62341,183.09604c1.90678,-0.02294 3.81487,0.01146 5.71997,0.09478c0.05812,0.00096 0.11541,0.00526 0.17167,0.01272c0.26824,0.02916 0.44579,0.09782 0.57821,0.20586c0.42962,0.26471 0.71261,0.74276 0.70364,1.28391c-0.01321,0.79719 -0.65512,1.43653 -1.44549,1.45339c-0.01893,0.0004 -0.03793,0.00045 -0.05702,0.00013v0c-2.15405,0.02276 -4.95813,1.25648 -6.45591,-0.29178c-0.97353,-1.00633 -0.85673,-2.73928 0.78493,-2.75903z" data-paper-data="{&quot;index&quot;:null}" fill="url(#color-1)" stroke="#4fa9fc" stroke-width="7.5" stroke-linecap="butt"/><path d="M257.37659,183.86083c1.64165,0.01975 1.75845,1.75269 0.78493,2.75903c-1.49778,1.54826 -4.30186,0.31454 -6.45591,0.29178v0c-0.01909,0.00032 -0.03809,0.00027 -0.05702,-0.00013c-0.79036,-0.01686 -1.43228,-0.65619 -1.44549,-1.45339c-0.00896,-0.54115 0.27403,-1.0192 0.70364,-1.28392c0.13241,-0.10803 0.30996,-0.17669 0.57821,-0.20586c0.05626,-0.00746 0.11355,-0.01176 0.17167,-0.01272c1.9051,-0.08332 3.81319,-0.11771 5.71997,-0.09478z" data-paper-data="{&quot;index&quot;:null}" fill="url(#color-2)" stroke="#4fa9fc" stroke-width="7.5" stroke-linecap="butt"/><path d="M236.61237,195.7524c-0.04694,1.64109 -1.78158,1.72917 -2.77165,0.73911c-1.52323,-1.52323 -0.24323,-4.30648 -0.18478,-6.45986v0c0,-0.01909 0.00036,-0.03809 0.00108,-0.05701c0.02995,-0.78997 0.67983,-1.42121 1.47714,-1.42121c0.54123,0 1.01452,0.29087 1.27208,0.72482c0.10582,0.13418 0.17154,0.31285 0.19625,0.58154c0.00653,0.05638 0.00988,0.11373 0.00988,0.17186c0.05174,1.90622 0.05452,3.81462 0,5.72076z" fill="#ffae00" stroke="#4fa9fc" stroke-width="7.5" stroke-linecap="butt"/><path d="M246.2468,187.92639c0.0332,0.05902 0.06414,0.13467 0.09294,0.22504c0.03401,0.09168 0.05918,0.18766 0.07449,0.28689c0.35306,1.64096 0.30053,5.87749 0.18812,7.31409c-0.06091,0.77843 -0.44199,1.47821 -1.47821,1.47821c-2.11119,0 -1.69399,-7.45867 -1.64898,-8.56512c0,-0.02747 0.00075,-0.05477 0.00223,-0.08188c0.04249,-0.77831 0.68706,-1.39634 1.47598,-1.39634c0.48105,0 0.90844,0.22979 1.17838,0.58559c0.04406,0.04551 0.08284,0.09625 0.11506,0.15352z" fill="#ffae00" stroke="#4fa9fc" stroke-width="7.5" stroke-linecap="butt"/><path d="M231.22056,163.98315c11.33058,-3.92006 28.50285,1.88514 26.65836,14.09518c-1.84449,12.21004 -19.4693,17.07918 -30.14516,8.98651c-7.84,-5.943 -4.55706,-16.67542 1.95179,-22.02455z" fill="url(#color-3)" stroke="#4fa9fc" stroke-width="7.5" stroke-linecap="butt"/><path d="M222.62341,183.09604c1.90678,-0.02294 3.81487,0.01146 5.71997,0.09478c0.05812,0.00096 0.11541,0.00526 0.17167,0.01272c0.26824,0.02916 0.44579,0.09782 0.57821,0.20586c0.42962,0.26471 0.71261,0.74276 0.70364,1.28391c-0.01321,0.79719 -0.65512,1.43653 -1.44549,1.45339c-0.01893,0.0004 -0.03793,0.00045 -0.05702,0.00013v0c-2.15405,0.02276 -4.95813,1.25648 -6.45591,-0.29178c-0.97353,-1.00633 -0.85673,-2.73928 0.78493,-2.75903z" data-paper-data="{&quot;index&quot;:null}" fill="#3ff4ff" stroke="none" stroke-width="0.5" stroke-linecap="butt"/><path d="M257.37659,183.86083c1.64165,0.01975 1.75845,1.75269 0.78493,2.75903c-1.49778,1.54826 -4.30186,0.31454 -6.45591,0.29178v0c-0.01909,0.00032 -0.03809,0.00027 -0.05702,-0.00013c-0.79036,-0.01686 -1.43228,-0.65619 -1.44549,-1.45339c-0.00896,-0.54115 0.27403,-1.0192 0.70364,-1.28392c0.13241,-0.10803 0.30996,-0.17669 0.57821,-0.20586c0.05626,-0.00746 0.11355,-0.01176 0.17167,-0.01272c1.9051,-0.08332 3.81319,-0.11771 5.71997,-0.09478z" data-paper-data="{&quot;index&quot;:null}" fill="#5882fb" stroke="none" stroke-width="0.5" stroke-linecap="butt"/><path d="M236.61237,195.7524c-0.04694,1.64109 -1.78158,1.72917 -2.77165,0.73911c-1.52323,-1.52323 -0.24323,-4.30648 -0.18478,-6.45986v0c0,-0.01909 0.00036,-0.03809 0.00108,-0.05701c0.02995,-0.78997 0.67983,-1.42121 1.47714,-1.42121c0.54123,0 1.01452,0.29087 1.27208,0.72482c0.10582,0.13418 0.17154,0.31285 0.19625,0.58154c0.00653,0.05638 0.00988,0.11373 0.00988,0.17186c0.05174,1.90622 0.05452,3.81462 0,5.72076z" fill="#48cafd" stroke="none" stroke-width="0.5" stroke-linecap="butt"/><path d="M246.2468,187.92639c0.0332,0.05902 0.06414,0.13467 0.09294,0.22504c0.03401,0.09168 0.05918,0.18766 0.07449,0.28689c0.35306,1.64096 0.30053,5.87749 0.18812,7.31409c-0.06091,0.77843 -0.44199,1.47821 -1.47821,1.47821c-2.11119,0 -1.69399,-7.45867 -1.64898,-8.56512c0,-0.02747 0.00075,-0.05477 0.00223,-0.08188c0.04249,-0.77831 0.68706,-1.39634 1.47598,-1.39634c0.48105,0 0.90844,0.22979 1.17838,0.58559c0.04406,0.04551 0.08284,0.09625 0.11506,0.15352z" fill="#50a8fc" stroke="none" stroke-width="0.5" stroke-linecap="butt"/><path d="M229.68556,165.0403c0.30419,-0.44051 0.7314,-0.66078 0.7314,-0.66078l0.44543,-0.2197c0.05928,-0.03541 0.16503,-0.09365 0.30335,-0.14962l0.05482,-0.02704c11.33058,-3.92006 28.50285,1.88514 26.65836,14.09518c-1.84449,12.21004 -19.4693,17.07918 -30.14516,8.98651c-7.84,-5.943 -4.55706,-16.67542 1.95179,-22.02455z" fill="url(#color-4)" stroke="none" stroke-width="0.5" stroke-linecap="butt"/><g><path d="M221.35064,176.71784c0,-8.90538 8.51916,-16.12462 19.02807,-16.12462c10.50891,0 19.02807,7.21924 19.02807,16.12462c0,8.90538 -8.51916,16.12462 -19.02807,16.12462c-10.50891,0 -19.02807,-7.21924 -19.02807,-16.12462z" fill="url(#color-5)" stroke="none" stroke-width="0" stroke-linecap="butt"/><path d="M246.23306,182.97513l3.85289,-10.30664l8.76754,0.45101" fill="none" stroke="#000000" stroke-width="2.5" stroke-linecap="round"/><path d="M225.67588,182.83206c0,0 6.78836,2.09304 8.15447,-0.17625c0.0703,-3.24184 0.5129,-5.59442 1.16505,-6.00936c3.27424,-2.08326 11.06786,6.24417 11.06786,6.24417" fill="none" stroke="#000000" stroke-width="2.5" stroke-linecap="round"/><path d="M225.00325,183.97165v-6.87982h2.1678v6.87982z" fill="#a7131e" stroke="none" stroke-width="0" stroke-linecap="butt"/><path d="M228.29059,174.20941c0,0 0.49164,4.50222 -2.40158,4.52051c-2.93611,0.01856 -2.27406,-3.25981 -2.27406,-3.25981c0,0 0.86839,0.09005 2.35907,0.09005c1.40567,-0.57632 2.31657,-1.35075 2.31657,-1.35075z" fill="#00fd4b" stroke="none" stroke-width="0" stroke-linecap="butt"/></g><g fill="#000000" stroke="none" stroke-width="0.5" stroke-linecap="butt"><path d="M238.8213,170.99627c0,-0.57148 0.46327,-1.03475 1.03475,-1.03475c0.57148,0 1.03475,0.46327 1.03475,1.03475c0,0.57148 -0.46327,1.03475 -1.03475,1.03475c-0.57148,0 -1.03475,-0.46327 -1.03475,-1.03475z"/><path d="M241.34551,168.59227c0,-0.57148 0.46327,-1.03475 1.03475,-1.03475c0.57148,0 1.03475,0.46327 1.03475,1.03475c0,0.57148 -0.46327,1.03475 -1.03475,1.03475c-0.57148,0 -1.03475,-0.46327 -1.03475,-1.03475z"/><path d="M247.95266,165.7554c1.03385,0.04318 0.99067,1.07703 0.99067,1.07703l-0.03871,0.88537c-0.17293,1.65417 -0.50318,4.35603 -1.66003,5.70581c-2.52314,2.94394 -8.77791,1.79295 -11.66317,0.01272c0,0 -0.87747,-0.54842 -0.32905,-1.42588c0.54842,-0.87747 1.42588,-0.32905 1.42588,-0.32905c1.82445,1.15853 3.84227,1.23443 5.97139,1.27371c1.13681,0.02097 2.19217,0.22183 2.99094,-0.83917c0.84844,-1.12695 1.08091,-3.29692 1.20481,-4.60407l0.03024,-0.7658c0,0 0.04318,-1.03385 1.07703,-0.99067z"/></g></g></g></svg>