<svg version="1.1" xmlns="http://www.w3.org/2000/svg" xmlns:xlink="http://www.w3.org/1999/xlink" width="140.09524" height="39.52381" viewBox="0,0,140.09524,39.52381"><defs><linearGradient x1="249.31995" y1="172.36433" x2="249.31995" y2="205.88814" gradientUnits="userSpaceOnUse" id="color-1"><stop offset="0" stop-color="#ffee00"/><stop offset="1" stop-color="#ffad00"/></linearGradient></defs><g transform="translate(-179.27233,-169.36433)"><g data-paper-data="{&quot;isPaintingLayer&quot;:true}" fill-rule="nonzero" stroke-linecap="butt" stroke-linejoin="miter" stroke-miterlimit="10" stroke-dasharray="" stroke-dashoffset="0" style="mix-blend-mode: normal"><path d="M182.27233,197.50719c0,-6.46696 0,-14.87428 0,-18.33333c0,-3.01664 3.39234,-6.80952 7.33333,-6.80952c12.81319,0 83.10493,0 113.14286,0c8.37362,0 13.61905,4.13621 13.61905,7.33333c0,3.65285 -0.52381,11.41416 -0.52381,17.80952c0,4.18291 -4.50819,8.38095 -12.57143,8.38095c-29.01497,0 -97.28045,0 -111.57143,0c-5.17084,0 -9.42857,-3.67722 -9.42857,-8.38095z" fill="url(#color-1)" stroke="#bf8600" stroke-width="6"/><text transform="translate(224.17709,194.36433) scale(0.5,0.5)" font-size="40" xml:space="preserve" fill="#bf8600" fill-rule="nonzero" stroke="none" stroke-width="1" stroke-linecap="butt" stroke-linejoin="miter" stroke-miterlimit="10" stroke-dasharray="" stroke-dashoffset="0" font-family="Sans Serif" font-weight="normal" text-anchor="start" style="mix-blend-mode: normal"><tspan x="0" dy="0">play</tspan></text><text transform="translate(123.08185,158.22147) scale(0.5,0.5)" font-size="40" xml:space="preserve" fill="#bf8600" fill-rule="nonzero" stroke="none" stroke-width="1" stroke-linecap="butt" stroke-linejoin="miter" stroke-miterlimit="10" stroke-dasharray="" stroke-dashoffset="0" font-family="Sans Serif" font-weight="normal" text-anchor="start" style="mix-blend-mode: normal"><tspan x="0" dy="0"> </tspan></text></g></g></svg>