<svg version="1.1" xmlns="http://www.w3.org/2000/svg" xmlns:xlink="http://www.w3.org/1999/xlink" width="141.67519" height="94.84927"><g transform="translate(-132.24838,-88.36111)"><g data-paper-data="{&quot;isPaintingLayer&quot;:true}" fill="#000000" fill-rule="nonzero" stroke="none" stroke-width="1" stroke-linecap="butt" stroke-linejoin="miter" stroke-miterlimit="10" stroke-dasharray="" stroke-dashoffset="0" font-family="none" font-weight="none" font-size="none" text-anchor="none" style="mix-blend-mode: normal"><path d="M135.81567,116.58335c0.54939,0 1.03105,0.07902 1.44498,0.23707c0.42145,0.15052 0.63218,0.35748 0.63218,0.62089c0,0.26341 -0.1016,0.59079 -0.3048,0.98213c-0.19567,0.38382 -0.36124,0.57573 -0.49671,0.57573c-0.03763,0 -0.08279,-0.01881 -0.13547,-0.05644c-0.04516,-0.04516 -0.15804,-0.09031 -0.33867,-0.13547c-0.1731,-0.05268 -0.32361,-0.07902 -0.45156,-0.07902c-0.4365,0 -0.79022,0.15428 -1.06116,0.46284c-0.26341,0.30856 -0.39511,0.7827 -0.39511,1.4224c0,0.63218 0.13547,1.10255 0.4064,1.41111c0.27846,0.30856 0.62841,0.46284 1.04987,0.46284c0.1731,0 0.36501,-0.02258 0.57573,-0.06773c0.21825,-0.05268 0.37253,-0.12418 0.46284,-0.21449c0.01505,-0.01505 0.04516,-0.02258 0.09031,-0.02258c0.04516,0 0.12794,0.08655 0.24836,0.25964c0.12794,0.16557 0.24459,0.38759 0.34996,0.66604c0.10536,0.27093 0.15804,0.48166 0.15804,0.63218c0,0.29351 -0.22578,0.52681 -0.67733,0.69991c-0.45156,0.1731 -0.9859,0.25964 -1.60302,0.25964c-0.99342,0 -1.80999,-0.34996 -2.44969,-1.04987c-0.6397,-0.69991 -0.95956,-1.68581 -0.95956,-2.95769c0,-1.27941 0.32738,-2.28412 0.98213,-3.01413c0.66228,-0.73001 1.48637,-1.09502 2.47227,-1.09502z" data-paper-data="{&quot;origPos&quot;:null}" id="path3428"/><path d="M139.34397,123.92113c-0.46661,-0.51929 -0.69991,-1.23801 -0.69991,-2.15618c0,-0.91816 0.2333,-1.63689 0.69991,-2.15618c0.47413,-0.51929 1.11007,-0.77893 1.90782,-0.77893c0.79775,0 1.42993,0.25964 1.89653,0.77893c0.46661,0.51929 0.69991,1.23801 0.69991,2.15618c0,0.91816 -0.2333,1.63689 -0.69991,2.15618c-0.46661,0.51929 -1.09879,0.77893 -1.89653,0.77893c-0.79775,0 -1.43369,-0.25964 -1.90782,-0.77893zM141.2518,120.71509c-0.42145,0 -0.63218,0.34619 -0.63218,1.03858c0,0.69239 0.21073,1.03858 0.63218,1.03858c0.42898,0 0.64347,-0.34619 0.64347,-1.03858c0,-0.69239 -0.21449,-1.03858 -0.64347,-1.03858z" data-paper-data="{&quot;origPos&quot;:null}" id="path3430"/><path d="M146.71191,124.49687c0,0.06773 -0.38382,0.1016 -1.15147,0.1016c-0.60207,-0.00753 -0.90311,-0.03763 -0.90311,-0.09031v-7.68773c0,-0.11289 0.36501,-0.16933 1.09502,-0.16933c0.6397,0.02258 0.95956,0.06021 0.95956,0.11289z" data-paper-data="{&quot;origPos&quot;:null}" id="path3432"/><path d="M150.31854,124.51944c0,0.09031 -0.31609,0.13547 -0.94827,0.13547c-0.75259,-0.0301 -1.12889,-0.07902 -1.12889,-0.14676v-3.99627h-0.57573c-0.15052,0 -0.22578,-0.25964 -0.22578,-0.77893c0,-0.13547 0.01129,-0.30104 0.03387,-0.49671c0.0301,-0.19567 0.08655,-0.29351 0.16933,-0.29351h0.59831v-0.99342c0,-0.15052 0.31609,-0.22578 0.94827,-0.22578c0.6397,0 0.95956,0.06021 0.95956,0.18062v0.72249l0.01129,0.31609h0.95956c0.12794,0 0.19191,0.26341 0.19191,0.79022c0,0.52681 -0.06397,0.79022 -0.19191,0.79022h-0.80151z" data-paper-data="{&quot;origPos&quot;:null}" id="path3434"/><path d="M154.42417,120.44415h-0.55316c-0.11289,0 -0.16933,-0.24836 -0.16933,-0.74507c0,-0.50424 0.05644,-0.75636 0.16933,-0.75636h0.55316v-0.24836c0,-0.79775 0.16557,-1.34714 0.49671,-1.64818c0.33867,-0.30856 0.80904,-0.46284 1.41111,-0.46284c0.60207,0 1.13265,0.10913 1.59173,0.32738c0.06021,0.02258 0.09031,0.10536 0.09031,0.24836c0,0.13547 -0.06397,0.35748 -0.19191,0.66604c-0.12794,0.30856 -0.23707,0.48542 -0.32738,0.53058c-0.25588,-0.15804 -0.51929,-0.23707 -0.79022,-0.23707c-0.29351,0 -0.44027,0.19567 -0.44027,0.58702v0.23707h0.93698c0.13547,0 0.2032,0.24083 0.2032,0.72249c0,0.52681 -0.08655,0.79022 -0.25964,0.79022h-0.72249v3.99627c0,0.09031 -0.3349,0.13547 -1.00471,0.13547c-0.66228,0 -0.99342,-0.04516 -0.99342,-0.13547z" data-paper-data="{&quot;origPos&quot;:null}" id="path3436"/><path d="M160.2831,124.51944c0,0.06021 -0.34619,0.09031 -1.03858,0.09031c-0.68486,0 -1.02729,-0.02634 -1.02729,-0.07902v-5.54284c0,-0.05268 0.34243,-0.07902 1.02729,-0.07902c0.69239,0 1.03858,0.02258 1.03858,0.06773zM160.2831,118.31055c0,0.05268 -0.34619,0.07902 -1.03858,0.07902c-0.68486,0 -1.02729,-0.02258 -1.02729,-0.06773v-1.6256c0,-0.07526 0.34243,-0.11289 1.02729,-0.11289c0.69239,0 1.03858,0.02258 1.03858,0.06773z" data-paper-data="{&quot;origPos&quot;:null}" id="path3438"/><path d="M163.77631,124.57589c0,0.05268 -0.34243,0.07902 -1.02729,0.07902c-0.68486,-0.01505 -1.02729,-0.04516 -1.02729,-0.09031v-3.74791h-0.3048c-0.12041,0 -0.21825,-0.0715 -0.29351,-0.21449c-0.06773,-0.15052 -0.1016,-0.3349 -0.1016,-0.55316c0,-0.8128 0.24083,-1.2192 0.72249,-1.2192c0.33867,0 0.62089,0.10536 0.84667,0.31609c0.22578,0.2032 0.33867,0.4365 0.33867,0.69991c0.15804,-0.30856 0.36877,-0.55316 0.63218,-0.73378c0.27093,-0.18815 0.54563,-0.28222 0.82409,-0.28222c0.4365,0 0.69991,0.11289 0.79022,0.33867c0.02258,0.06021 0.03387,0.15052 0.03387,0.27093c0,0.11289 -0.03763,0.31985 -0.11289,0.62089c-0.06773,0.30104 -0.13923,0.51929 -0.21449,0.65476c-0.07526,0.13547 -0.12041,0.2032 -0.13547,0.2032c-0.01505,0 -0.08655,-0.02634 -0.21449,-0.07902c-0.12041,-0.06021 -0.22954,-0.09031 -0.32738,-0.09031c-0.28599,0 -0.42898,0.22578 -0.42898,0.67733z" data-paper-data="{&quot;origPos&quot;:null}" id="path3440"/><path d="M170.04711,124.28238c-0.47413,0.27846 -1.08373,0.41769 -1.8288,0.41769c-0.74507,0 -1.37348,-0.25212 -1.88524,-0.75636c-0.51176,-0.51176 -0.76764,-1.21544 -0.76764,-2.11102c0,-0.90311 0.24459,-1.62936 0.73378,-2.17876c0.49671,-0.54939 1.12136,-0.82409 1.87396,-0.82409c0.75259,0 1.33209,0.19191 1.73849,0.57573c0.41393,0.38382 0.62089,0.85043 0.62089,1.39982c0,1.2192 -0.69991,1.8288 -2.09973,1.8288h-0.77893c0,0.22578 0.06021,0.38382 0.18062,0.47413c0.12794,0.08279 0.31233,0.12418 0.55316,0.12418c0.52681,0 1.02729,-0.12041 1.50142,-0.36124c0.00753,-0.00753 0.04139,0.04516 0.1016,0.15804c0.18062,0.32361 0.27093,0.59831 0.27093,0.82409c0,0.21825 -0.0715,0.36124 -0.21449,0.42898zM168.63599,121.01989c0,-0.31609 -0.15428,-0.47413 -0.46284,-0.47413c-0.14299,0 -0.26717,0.04516 -0.37253,0.13547c-0.09784,0.08279 -0.14676,0.20696 -0.14676,0.37253v0.34996h0.6096c0.24836,0 0.37253,-0.12794 0.37253,-0.38382z" data-paper-data="{&quot;origPos&quot;:null}" id="path3442"/><path d="M171.50708,122.55518c0.6096,0.36877 1.09126,0.55316 1.44498,0.55316c0.22578,0 0.33867,-0.07902 0.33867,-0.23707c0,-0.11289 -0.19567,-0.25964 -0.58702,-0.44027c-0.94074,-0.38382 -1.41111,-1.01224 -1.41111,-1.88524c0,-0.55692 0.2032,-0.98213 0.6096,-1.27564c0.4064,-0.29351 0.89182,-0.44027 1.45627,-0.44027c0.57197,0 1.05363,0.06021 1.44498,0.18062c0.39887,0.12041 0.59831,0.27846 0.59831,0.47413c0,0.16557 -0.08279,0.38382 -0.24836,0.65476c-0.15804,0.27093 -0.26717,0.41769 -0.32738,0.44027c-0.32361,-0.18062 -0.67357,-0.27093 -1.04987,-0.27093c-0.2032,0 -0.3048,0.0715 -0.3048,0.21449c0,0.09031 0.03763,0.16933 0.11289,0.23707c0.08279,0.06021 0.22954,0.13923 0.44027,0.23707c0.21073,0.09031 0.38382,0.1731 0.51929,0.24836c0.14299,0.07526 0.30104,0.18062 0.47413,0.31609c0.36124,0.28599 0.54187,0.65852 0.54187,1.1176c0,0.60207 -0.19944,1.09126 -0.59831,1.46756c-0.39887,0.36877 -1.00095,0.55316 -1.80622,0.55316c-0.53434,0 -1.01976,-0.09031 -1.45627,-0.27093c-0.4365,-0.18062 -0.65476,-0.42898 -0.65476,-0.74507c0,-0.21073 0.04892,-0.43274 0.14676,-0.66604c0.10536,-0.2333 0.21073,-0.38759 0.31609,-0.46284z" data-paper-data="{&quot;origPos&quot;:null}" id="path3444"/><path d="M179.16906,120.48931c-0.21073,-0.3763 -0.31609,-0.6811 -0.31609,-0.9144c0,-0.24083 0.06397,-0.39511 0.19191,-0.46284c0.42898,-0.18815 1.016,-0.28222 1.76107,-0.28222c0.75259,0 1.28317,0.17686 1.59173,0.53058c0.30856,0.34619 0.46284,0.86172 0.46284,1.54658v1.78364h0.38382c0.12794,0 0.22578,0.07526 0.29351,0.22578c0.07526,0.15052 0.11289,0.35748 0.11289,0.62089c0,0.26341 -0.06773,0.52305 -0.2032,0.77893c-0.12794,0.25588 -0.3048,0.38382 -0.53058,0.38382c-0.4064,0 -0.73378,-0.10913 -0.98213,-0.32738c-0.11289,-0.09031 -0.19944,-0.19944 -0.25964,-0.32738c-0.34619,0.4365 -0.8843,0.65476 -1.61431,0.65476c-0.54939,0 -1.01224,-0.19567 -1.38853,-0.58702c-0.3763,-0.39135 -0.56444,-0.85419 -0.56444,-1.38853c0,-1.22673 0.73378,-1.84009 2.20133,-1.84009h0.62089v-0.11289c0,-0.19567 -0.03387,-0.31985 -0.1016,-0.37253c-0.06021,-0.06021 -0.20696,-0.09031 -0.44027,-0.09031c-0.28599,0 -0.69239,0.06021 -1.2192,0.18062zM180.07217,122.56647c0,0.16557 0.04516,0.29351 0.13547,0.38382c0.09031,0.08279 0.2032,0.12418 0.33867,0.12418c0.14299,0 0.27093,-0.05644 0.38382,-0.16933v-0.86924h-0.31609c-0.36124,0 -0.54187,0.17686 -0.54187,0.53058z" data-paper-data="{&quot;origPos&quot;:null}" id="path3446"/><path d="M186.66012,124.51944c0,0.05268 -0.27093,0.07902 -0.8128,0.07902c-0.75259,-0.02258 -1.12889,-0.06397 -1.12889,-0.12418v-3.6576h-0.29351c-0.19567,0 -0.32361,-0.16557 -0.38382,-0.49671c-0.01505,-0.09784 -0.02258,-0.19567 -0.02258,-0.29351c0,-0.2333 0.04516,-0.46661 0.13547,-0.69991c0.13547,-0.33114 0.34619,-0.49671 0.63218,-0.49671c0.28599,0 0.54187,0.06773 0.76764,0.2032c0.22578,0.13547 0.3763,0.27093 0.45156,0.4064c0.47413,-0.4064 1.03858,-0.6096 1.69333,-0.6096c0.65476,0 1.12889,0.17686 1.4224,0.53058c0.29351,0.35372 0.44027,0.93321 0.44027,1.73849v3.38667c0,0.09031 -0.32361,0.13547 -0.97084,0.13547c-0.6397,0 -0.95956,-0.04516 -0.95956,-0.13547v-3.26249c0,-0.3763 -0.1317,-0.56444 -0.39511,-0.56444c-0.07526,0 -0.18062,0.03387 -0.31609,0.1016c-0.13547,0.06021 -0.22201,0.10536 -0.25964,0.13547z" data-paper-data="{&quot;origPos&quot;:null}" id="path3448"/><path d="M193.34631,120.48931c-0.21073,-0.3763 -0.31609,-0.6811 -0.31609,-0.9144c0,-0.24083 0.06397,-0.39511 0.19191,-0.46284c0.42898,-0.18815 1.016,-0.28222 1.76107,-0.28222c0.75259,0 1.28317,0.17686 1.59173,0.53058c0.30856,0.34619 0.46284,0.86172 0.46284,1.54658v1.78364h0.38382c0.12794,0 0.22578,0.07526 0.29351,0.22578c0.07526,0.15052 0.11289,0.35748 0.11289,0.62089c0,0.26341 -0.06773,0.52305 -0.2032,0.77893c-0.12794,0.25588 -0.3048,0.38382 -0.53058,0.38382c-0.4064,0 -0.73378,-0.10913 -0.98213,-0.32738c-0.11289,-0.09031 -0.19944,-0.19944 -0.25964,-0.32738c-0.34619,0.4365 -0.8843,0.65476 -1.61431,0.65476c-0.54939,0 -1.01224,-0.19567 -1.38853,-0.58702c-0.3763,-0.39135 -0.56444,-0.85419 -0.56444,-1.38853c0,-1.22673 0.73378,-1.84009 2.20133,-1.84009h0.62089v-0.11289c0,-0.19567 -0.03387,-0.31985 -0.1016,-0.37253c-0.06021,-0.06021 -0.20696,-0.09031 -0.44027,-0.09031c-0.28599,0 -0.69239,0.06021 -1.2192,0.18062zM194.24942,122.56647c0,0.16557 0.04516,0.29351 0.13547,0.38382c0.09031,0.08279 0.2032,0.12418 0.33867,0.12418c0.14299,0 0.27093,-0.05644 0.38382,-0.16933v-0.86924h-0.31609c-0.36124,0 -0.54187,0.17686 -0.54187,0.53058z" data-paper-data="{&quot;origPos&quot;:null}" id="path3450"/><path d="M200.32937,121.78753c0,0.73754 0.27846,1.10631 0.83538,1.10631c0.36124,0 0.66228,-0.0715 0.90311,-0.21449c0.11289,0 0.2032,0.19567 0.27093,0.58702c0.07526,0.38382 0.11289,0.64723 0.11289,0.79022c0,0.13547 -0.01881,0.22578 -0.05644,0.27093c-0.39887,0.24836 -0.9445,0.37253 -1.63689,0.37253c-0.69239,0 -1.28317,-0.25588 -1.77236,-0.76764c-0.48166,-0.51929 -0.72249,-1.22296 -0.72249,-2.11102c0,-0.89559 0.23707,-1.61807 0.7112,-2.16747c0.48166,-0.54939 1.1176,-0.82409 1.90782,-0.82409c0.79775,0 1.3509,0.19191 1.65947,0.57573c0.06773,0.08279 0.1016,0.20696 0.1016,0.37253c0,0.15804 -0.0301,0.35372 -0.09031,0.58702c-0.13547,0.48166 -0.31233,0.76012 -0.53058,0.83538c-0.0301,0.00753 -0.07526,0.01129 -0.13547,0.01129c-0.05268,0 -0.12041,-0.04516 -0.2032,-0.13547c-0.29351,-0.29351 -0.53058,-0.44027 -0.7112,-0.44027c-0.1731,0 -0.32361,0.09031 -0.45156,0.27093c-0.12794,0.18062 -0.19191,0.47413 -0.19191,0.88053z" data-paper-data="{&quot;origPos&quot;:null}" id="path3452"/><path d="M205.11392,121.78753c0,0.73754 0.27846,1.10631 0.83538,1.10631c0.36124,0 0.66228,-0.0715 0.90311,-0.21449c0.11289,0 0.2032,0.19567 0.27093,0.58702c0.07526,0.38382 0.11289,0.64723 0.11289,0.79022c0,0.13547 -0.01881,0.22578 -0.05644,0.27093c-0.39887,0.24836 -0.9445,0.37253 -1.63689,0.37253c-0.69239,0 -1.28317,-0.25588 -1.77236,-0.76764c-0.48166,-0.51929 -0.72249,-1.22296 -0.72249,-2.11102c0,-0.89559 0.23707,-1.61807 0.7112,-2.16747c0.48166,-0.54939 1.1176,-0.82409 1.90782,-0.82409c0.79775,0 1.3509,0.19191 1.65947,0.57573c0.06773,0.08279 0.1016,0.20696 0.1016,0.37253c0,0.15804 -0.0301,0.35372 -0.09031,0.58702c-0.13547,0.48166 -0.31233,0.76012 -0.53058,0.83538c-0.0301,0.00753 -0.07526,0.01129 -0.13547,0.01129c-0.05268,0 -0.12041,-0.04516 -0.2032,-0.13547c-0.29351,-0.29351 -0.53058,-0.44027 -0.7112,-0.44027c-0.1731,0 -0.32361,0.09031 -0.45156,0.27093c-0.12794,0.18062 -0.19191,0.47413 -0.19191,0.88053z" data-paper-data="{&quot;origPos&quot;:null}" id="path3454"/><path d="M207.99065,119.01047c0,-0.08279 0.32361,-0.12418 0.97084,-0.12418c0.64723,0 0.97084,0.04139 0.97084,0.12418v3.29636c0,0.3763 0.12041,0.56444 0.36124,0.56444c0.18062,0 0.38382,-0.07902 0.6096,-0.23707v-3.62373c0,-0.07526 0.31985,-0.11289 0.95956,-0.11289c0.6397,0 0.95956,0.03763 0.95956,0.11289v3.70276h0.29351c0.25588,0 0.38382,0.24459 0.38382,0.73378c0,0.24836 -0.05268,0.50047 -0.15804,0.75636c-0.15052,0.33114 -0.35372,0.49671 -0.6096,0.49671c-0.50424,0 -0.87677,-0.20696 -1.1176,-0.62089l-0.01129,0.01129c-0.45908,0.4064 -0.95203,0.6096 -1.47884,0.6096c-0.73001,0 -1.26812,-0.18062 -1.61431,-0.54187c-0.34619,-0.36877 -0.51929,-0.97461 -0.51929,-1.81751z" data-paper-data="{&quot;origPos&quot;:null}" id="path3456"/><path d="M216.67092,124.57589c0,0.05268 -0.34243,0.07902 -1.02729,0.07902c-0.68486,-0.01505 -1.02729,-0.04516 -1.02729,-0.09031v-3.74791h-0.3048c-0.12041,0 -0.21825,-0.0715 -0.29351,-0.21449c-0.06773,-0.15052 -0.1016,-0.3349 -0.1016,-0.55316c0,-0.8128 0.24083,-1.2192 0.72249,-1.2192c0.33867,0 0.62089,0.10536 0.84667,0.31609c0.22578,0.2032 0.33867,0.4365 0.33867,0.69991c0.15804,-0.30856 0.36877,-0.55316 0.63218,-0.73378c0.27093,-0.18815 0.54563,-0.28222 0.82409,-0.28222c0.4365,0 0.69991,0.11289 0.79022,0.33867c0.02258,0.06021 0.03387,0.15052 0.03387,0.27093c0,0.11289 -0.03763,0.31985 -0.11289,0.62089c-0.06773,0.30104 -0.13923,0.51929 -0.21449,0.65476c-0.07526,0.13547 -0.12041,0.2032 -0.13547,0.2032c-0.01505,0 -0.08655,-0.02634 -0.21449,-0.07902c-0.12041,-0.06021 -0.22954,-0.09031 -0.32738,-0.09031c-0.28599,0 -0.42898,0.22578 -0.42898,0.67733z" data-paper-data="{&quot;origPos&quot;:null}" id="path3458"/><path d="M219.38572,120.48931c-0.21073,-0.3763 -0.31609,-0.6811 -0.31609,-0.9144c0,-0.24083 0.06397,-0.39511 0.19191,-0.46284c0.42898,-0.18815 1.016,-0.28222 1.76107,-0.28222c0.75259,0 1.28317,0.17686 1.59173,0.53058c0.30856,0.34619 0.46284,0.86172 0.46284,1.54658v1.78364h0.38382c0.12794,0 0.22578,0.07526 0.29351,0.22578c0.07526,0.15052 0.11289,0.35748 0.11289,0.62089c0,0.26341 -0.06773,0.52305 -0.2032,0.77893c-0.12794,0.25588 -0.3048,0.38382 -0.53058,0.38382c-0.4064,0 -0.73378,-0.10913 -0.98213,-0.32738c-0.11289,-0.09031 -0.19944,-0.19944 -0.25964,-0.32738c-0.34619,0.4365 -0.8843,0.65476 -1.61431,0.65476c-0.54939,0 -1.01224,-0.19567 -1.38853,-0.58702c-0.3763,-0.39135 -0.56444,-0.85419 -0.56444,-1.38853c0,-1.22673 0.73378,-1.84009 2.20133,-1.84009h0.62089v-0.11289c0,-0.19567 -0.03387,-0.31985 -0.1016,-0.37253c-0.06021,-0.06021 -0.20696,-0.09031 -0.44027,-0.09031c-0.28599,0 -0.69239,0.06021 -1.2192,0.18062zM220.28884,122.56647c0,0.16557 0.04516,0.29351 0.13547,0.38382c0.09031,0.08279 0.2032,0.12418 0.33867,0.12418c0.14299,0 0.27093,-0.05644 0.38382,-0.16933v-0.86924h-0.31609c-0.36124,0 -0.54187,0.17686 -0.54187,0.53058z" data-paper-data="{&quot;origPos&quot;:null}" id="path3460"/><path d="M227.11385,124.51944c0,0.09031 -0.31609,0.13547 -0.94827,0.13547c-0.75259,-0.0301 -1.12889,-0.07902 -1.12889,-0.14676v-3.99627h-0.57573c-0.15052,0 -0.22578,-0.25964 -0.22578,-0.77893c0,-0.13547 0.01129,-0.30104 0.03387,-0.49671c0.0301,-0.19567 0.08655,-0.29351 0.16933,-0.29351h0.59831v-0.99342c0,-0.15052 0.31609,-0.22578 0.94827,-0.22578c0.6397,0 0.95956,0.06021 0.95956,0.18062v0.72249l0.01129,0.31609h0.95956c0.12794,0 0.19191,0.26341 0.19191,0.79022c0,0.52681 -0.06397,0.79022 -0.19191,0.79022h-0.80151z" data-paper-data="{&quot;origPos&quot;:null}" id="path3462"/><path d="M232.92974,124.28238c-0.47413,0.27846 -1.08373,0.41769 -1.8288,0.41769c-0.74507,0 -1.37348,-0.25212 -1.88524,-0.75636c-0.51176,-0.51176 -0.76764,-1.21544 -0.76764,-2.11102c0,-0.90311 0.24459,-1.62936 0.73378,-2.17876c0.49671,-0.54939 1.12136,-0.82409 1.87396,-0.82409c0.75259,0 1.33209,0.19191 1.73849,0.57573c0.41393,0.38382 0.62089,0.85043 0.62089,1.39982c0,1.2192 -0.69991,1.8288 -2.09973,1.8288h-0.77893c0,0.22578 0.06021,0.38382 0.18062,0.47413c0.12794,0.08279 0.31233,0.12418 0.55316,0.12418c0.52681,0 1.02729,-0.12041 1.50142,-0.36124c0.00753,-0.00753 0.04139,0.04516 0.1016,0.15804c0.18062,0.32361 0.27093,0.59831 0.27093,0.82409c0,0.21825 -0.0715,0.36124 -0.21449,0.42898zM231.51863,121.01989c0,-0.31609 -0.15428,-0.47413 -0.46284,-0.47413c-0.14299,0 -0.26717,0.04516 -0.37253,0.13547c-0.09784,0.08279 -0.14676,0.20696 -0.14676,0.37253v0.34996h0.6096c0.24836,0 0.37253,-0.12794 0.37253,-0.38382z" data-paper-data="{&quot;origPos&quot;:null}" id="path3464"/><path d="M236.32576,116.71882c0,-0.09031 0.32361,-0.13547 0.97084,-0.13547c0.65476,0 0.98213,0.04892 0.98213,0.14676v2.19004c0.32361,-0.06021 0.55316,-0.09031 0.68862,-0.09031c1.58044,0 2.37067,0.90687 2.37067,2.72062c0,1.00847 -0.24459,1.78741 -0.73378,2.3368c-0.48166,0.54187 -1.17028,0.8128 -2.06587,0.8128c-0.88806,0 -1.6256,-0.19944 -2.21262,-0.59831zM238.65127,120.59091c-0.12794,0 -0.25212,0.04139 -0.37253,0.12418v2.15618c0.10536,0.04516 0.21449,0.06773 0.32738,0.06773c0.12041,0 0.24083,-0.04516 0.36124,-0.13547c0.21073,-0.15052 0.31609,-0.50047 0.31609,-1.04987c0,-0.77517 -0.21073,-1.16276 -0.63218,-1.16276z" data-paper-data="{&quot;origPos&quot;:null}" id="path3466"/><path d="M242.0778,119.01047c0,-0.08279 0.32361,-0.12418 0.97084,-0.12418c0.64723,0 0.97084,0.04139 0.97084,0.12418v3.29636c0,0.3763 0.12041,0.56444 0.36124,0.56444c0.18062,0 0.38382,-0.07902 0.6096,-0.23707v-3.62373c0,-0.07526 0.31985,-0.11289 0.95956,-0.11289c0.6397,0 0.95956,0.03763 0.95956,0.11289v3.70276h0.29351c0.25588,0 0.38382,0.24459 0.38382,0.73378c0,0.24836 -0.05268,0.50047 -0.15804,0.75636c-0.15052,0.33114 -0.35372,0.49671 -0.6096,0.49671c-0.50424,0 -0.87677,-0.20696 -1.1176,-0.62089l-0.01129,0.01129c-0.45908,0.4064 -0.95203,0.6096 -1.47884,0.6096c-0.73001,0 -1.26812,-0.18062 -1.61431,-0.54187c-0.34619,-0.36877 -0.51929,-0.97461 -0.51929,-1.81751z" data-paper-data="{&quot;origPos&quot;:null}" id="path3468"/><path d="M250.75807,124.57589c0,0.05268 -0.34243,0.07902 -1.02729,0.07902c-0.68486,-0.01505 -1.02729,-0.04516 -1.02729,-0.09031v-3.74791h-0.3048c-0.12041,0 -0.21825,-0.0715 -0.29351,-0.21449c-0.06773,-0.15052 -0.1016,-0.3349 -0.1016,-0.55316c0,-0.8128 0.24083,-1.2192 0.72249,-1.2192c0.33867,0 0.62089,0.10536 0.84667,0.31609c0.22578,0.2032 0.33867,0.4365 0.33867,0.69991c0.15804,-0.30856 0.36877,-0.55316 0.63218,-0.73378c0.27093,-0.18815 0.54563,-0.28222 0.82409,-0.28222c0.4365,0 0.69991,0.11289 0.79022,0.33867c0.02258,0.06021 0.03387,0.15052 0.03387,0.27093c0,0.11289 -0.03763,0.31985 -0.11289,0.62089c-0.06773,0.30104 -0.13923,0.51929 -0.21449,0.65476c-0.07526,0.13547 -0.12041,0.2032 -0.13547,0.2032c-0.01505,0 -0.08655,-0.02634 -0.21449,-0.07902c-0.12041,-0.06021 -0.22954,-0.09031 -0.32738,-0.09031c-0.28599,0 -0.42898,0.22578 -0.42898,0.67733z" data-paper-data="{&quot;origPos&quot;:null}" id="path3470"/><path d="M252.99874,122.55518c0.6096,0.36877 1.09126,0.55316 1.44498,0.55316c0.22578,0 0.33867,-0.07902 0.33867,-0.23707c0,-0.11289 -0.19567,-0.25964 -0.58702,-0.44027c-0.94074,-0.38382 -1.41111,-1.01224 -1.41111,-1.88524c0,-0.55692 0.2032,-0.98213 0.6096,-1.27564c0.4064,-0.29351 0.89182,-0.44027 1.45627,-0.44027c0.57197,0 1.05363,0.06021 1.44498,0.18062c0.39887,0.12041 0.59831,0.27846 0.59831,0.47413c0,0.16557 -0.08279,0.38382 -0.24836,0.65476c-0.15804,0.27093 -0.26717,0.41769 -0.32738,0.44027c-0.32361,-0.18062 -0.67357,-0.27093 -1.04987,-0.27093c-0.2032,0 -0.3048,0.0715 -0.3048,0.21449c0,0.09031 0.03763,0.16933 0.11289,0.23707c0.08279,0.06021 0.22954,0.13923 0.44027,0.23707c0.21073,0.09031 0.38382,0.1731 0.51929,0.24836c0.14299,0.07526 0.30104,0.18062 0.47413,0.31609c0.36124,0.28599 0.54187,0.65852 0.54187,1.1176c0,0.60207 -0.19944,1.09126 -0.59831,1.46756c-0.39887,0.36877 -1.00095,0.55316 -1.80622,0.55316c-0.53434,0 -1.01976,-0.09031 -1.45627,-0.27093c-0.4365,-0.18062 -0.65476,-0.42898 -0.65476,-0.74507c0,-0.21073 0.04892,-0.43274 0.14676,-0.66604c0.10536,-0.2333 0.21073,-0.38759 0.31609,-0.46284z" data-paper-data="{&quot;origPos&quot;:null}" id="path3472"/><path d="M260.4293,124.51944c0,0.09031 -0.31609,0.13547 -0.94827,0.13547c-0.75259,-0.0301 -1.12889,-0.07902 -1.12889,-0.14676v-3.99627h-0.57573c-0.15052,0 -0.22578,-0.25964 -0.22578,-0.77893c0,-0.13547 0.01129,-0.30104 0.03387,-0.49671c0.0301,-0.19567 0.08655,-0.29351 0.16933,-0.29351h0.59831v-0.99342c0,-0.15052 0.31609,-0.22578 0.94827,-0.22578c0.6397,0 0.95956,0.06021 0.95956,0.18062v0.72249l0.01129,0.31609h0.95956c0.12794,0 0.19191,0.26341 0.19191,0.79022c0,0.52681 -0.06397,0.79022 -0.19191,0.79022h-0.80151z" data-paper-data="{&quot;origPos&quot;:null}" id="path3474"/><path d="M264.58009,123.92113c-0.46661,-0.51929 -0.69991,-1.23801 -0.69991,-2.15618c0,-0.91816 0.2333,-1.63689 0.69991,-2.15618c0.47413,-0.51929 1.11007,-0.77893 1.90782,-0.77893c0.79775,0 1.42993,0.25964 1.89653,0.77893c0.46661,0.51929 0.69991,1.23801 0.69991,2.15618c0,0.91816 -0.2333,1.63689 -0.69991,2.15618c-0.46661,0.51929 -1.09879,0.77893 -1.89653,0.77893c-0.79775,0 -1.43369,-0.25964 -1.90782,-0.77893zM266.48791,120.71509c-0.42145,0 -0.63218,0.34619 -0.63218,1.03858c0,0.69239 0.21073,1.03858 0.63218,1.03858c0.42898,0 0.64347,-0.34619 0.64347,-1.03858c0,-0.69239 -0.21449,-1.03858 -0.64347,-1.03858z" data-paper-data="{&quot;origPos&quot;:null}" id="path3476"/><path d="M270.33371,120.44415h-0.55316c-0.11289,0 -0.16933,-0.24836 -0.16933,-0.74507c0,-0.50424 0.05644,-0.75636 0.16933,-0.75636h0.55316v-0.24836c0,-0.79775 0.16557,-1.34714 0.49671,-1.64818c0.33867,-0.30856 0.80904,-0.46284 1.41111,-0.46284c0.60207,0 1.13265,0.10913 1.59173,0.32738c0.06021,0.02258 0.09031,0.10536 0.09031,0.24836c0,0.13547 -0.06397,0.35748 -0.19191,0.66604c-0.12794,0.30856 -0.23707,0.48542 -0.32738,0.53058c-0.25588,-0.15804 -0.51929,-0.23707 -0.79022,-0.23707c-0.29351,0 -0.44027,0.19567 -0.44027,0.58702v0.23707h0.93698c0.13547,0 0.2032,0.24083 0.2032,0.72249c0,0.52681 -0.08655,0.79022 -0.25964,0.79022h-0.72249v3.99627c0,0.09031 -0.3349,0.13547 -1.00471,0.13547c-0.66228,0 -0.99342,-0.04516 -0.99342,-0.13547z" data-paper-data="{&quot;origPos&quot;:null}" id="path3478"/><path d="M132.58704,130.82993c0,-0.09031 0.32361,-0.13547 0.97084,-0.13547c0.65476,0 0.98213,0.04892 0.98213,0.14676v2.19004c0.32361,-0.06021 0.55316,-0.09031 0.68862,-0.09031c1.58044,0 2.37067,0.90687 2.37067,2.72062c0,1.00847 -0.24459,1.78741 -0.73378,2.3368c-0.48166,0.54187 -1.17028,0.8128 -2.06587,0.8128c-0.88806,0 -1.6256,-0.19944 -2.21262,-0.59831zM134.91256,134.70202c-0.12794,0 -0.25212,0.04139 -0.37253,0.12418v2.15618c0.10536,0.04516 0.21449,0.06773 0.32738,0.06773c0.12041,0 0.24083,-0.04516 0.36124,-0.13547c0.21073,-0.15052 0.31609,-0.50047 0.31609,-1.04987c0,-0.77517 -0.21073,-1.16276 -0.63218,-1.16276z" data-paper-data="{&quot;origPos&quot;:null}" id="path3480"/><path d="M138.33909,133.12158c0,-0.08279 0.32361,-0.12418 0.97084,-0.12418c0.64723,0 0.97084,0.04139 0.97084,0.12418v3.29636c0,0.3763 0.12041,0.56444 0.36124,0.56444c0.18062,0 0.38382,-0.07902 0.6096,-0.23707v-3.62373c0,-0.07526 0.31985,-0.11289 0.95956,-0.11289c0.6397,0 0.95956,0.03763 0.95956,0.11289v3.70276h0.29351c0.25588,0 0.38382,0.24459 0.38382,0.73378c0,0.24836 -0.05268,0.50047 -0.15804,0.75636c-0.15052,0.33114 -0.35372,0.49671 -0.6096,0.49671c-0.50424,0 -0.87677,-0.20696 -1.1176,-0.62089l-0.01129,0.01129c-0.45908,0.4064 -0.95203,0.6096 -1.47884,0.6096c-0.73001,0 -1.26812,-0.18062 -1.61431,-0.54187c-0.34619,-0.36877 -0.51929,-0.97461 -0.51929,-1.81751z" data-paper-data="{&quot;origPos&quot;:null}" id="path3482"/><path d="M146.60167,138.60798c0,0.06773 -0.38382,0.1016 -1.15147,0.1016c-0.60207,-0.00753 -0.90311,-0.03763 -0.90311,-0.09031v-7.68773c0,-0.11289 0.36501,-0.16933 1.09502,-0.16933c0.6397,0.02258 0.95956,0.06021 0.95956,0.11289z" data-paper-data="{&quot;origPos&quot;:null}" id="path3484"/><path d="M149.66643,138.60798c0,0.06773 -0.38382,0.1016 -1.15147,0.1016c-0.60207,-0.00753 -0.90311,-0.03763 -0.90311,-0.09031v-7.68773c0,-0.11289 0.36501,-0.16933 1.09502,-0.16933c0.6397,0.02258 0.95956,0.06021 0.95956,0.11289z" data-paper-data="{&quot;origPos&quot;:null}" id="path3486"/><path d="M154.94381,138.39349c-0.47413,0.27846 -1.08373,0.41769 -1.8288,0.41769c-0.74507,0 -1.37348,-0.25212 -1.88524,-0.75636c-0.51176,-0.51176 -0.76764,-1.21544 -0.76764,-2.11102c0,-0.90311 0.24459,-1.62936 0.73378,-2.17876c0.49671,-0.54939 1.12136,-0.82409 1.87396,-0.82409c0.75259,0 1.33209,0.19191 1.73849,0.57573c0.41393,0.38382 0.62089,0.85043 0.62089,1.39982c0,1.2192 -0.69991,1.8288 -2.09973,1.8288h-0.77893c0,0.22578 0.06021,0.38382 0.18062,0.47413c0.12794,0.08279 0.31233,0.12418 0.55316,0.12418c0.52681,0 1.02729,-0.12041 1.50142,-0.36124c0.00753,-0.00753 0.04139,0.04516 0.1016,0.15804c0.18062,0.32361 0.27093,0.59831 0.27093,0.82409c0,0.21825 -0.0715,0.36124 -0.21449,0.42898zM153.5327,135.131c0,-0.31609 -0.15428,-0.47413 -0.46284,-0.47413c-0.14299,0 -0.26717,0.04516 -0.37253,0.13547c-0.09784,0.08279 -0.14676,0.20696 -0.14676,0.37253v0.34996h0.6096c0.24836,0 0.37253,-0.12794 0.37253,-0.38382z" data-paper-data="{&quot;origPos&quot;:null}" id="path3488"/><path d="M158.76316,138.63055c0,0.09031 -0.31609,0.13547 -0.94827,0.13547c-0.75259,-0.0301 -1.12889,-0.07902 -1.12889,-0.14676v-3.99627h-0.57573c-0.15052,0 -0.22578,-0.25964 -0.22578,-0.77893c0,-0.13547 0.01129,-0.30104 0.03387,-0.49671c0.0301,-0.19567 0.08655,-0.29351 0.16933,-0.29351h0.59831v-0.99342c0,-0.15052 0.31609,-0.22578 0.94827,-0.22578c0.6397,0 0.95956,0.06021 0.95956,0.18062v0.72249l0.01129,0.31609h0.95956c0.12794,0 0.19191,0.26341 0.19191,0.79022c0,0.52681 -0.06397,0.79022 -0.19191,0.79022h-0.80151z" data-paper-data="{&quot;origPos&quot;:null}" id="path3490"/><path d="M160.54892,136.66629c0.6096,0.36877 1.09126,0.55316 1.44498,0.55316c0.22578,0 0.33867,-0.07902 0.33867,-0.23707c0,-0.11289 -0.19567,-0.25964 -0.58702,-0.44027c-0.94074,-0.38382 -1.41111,-1.01224 -1.41111,-1.88524c0,-0.55692 0.2032,-0.98213 0.6096,-1.27564c0.4064,-0.29351 0.89182,-0.44027 1.45627,-0.44027c0.57197,0 1.05363,0.06021 1.44498,0.18062c0.39887,0.12041 0.59831,0.27846 0.59831,0.47413c0,0.16557 -0.08279,0.38382 -0.24836,0.65476c-0.15804,0.27093 -0.26717,0.41769 -0.32738,0.44027c-0.32361,-0.18062 -0.67357,-0.27093 -1.04987,-0.27093c-0.2032,0 -0.3048,0.0715 -0.3048,0.21449c0,0.09031 0.03763,0.16933 0.11289,0.23707c0.08279,0.06021 0.22954,0.13923 0.44027,0.23707c0.21073,0.09031 0.38382,0.1731 0.51929,0.24836c0.14299,0.07526 0.30104,0.18062 0.47413,0.31609c0.36124,0.28599 0.54187,0.65852 0.54187,1.1176c0,0.60207 -0.19944,1.09126 -0.59831,1.46756c-0.39887,0.36877 -1.00095,0.55316 -1.80622,0.55316c-0.53434,0 -1.01976,-0.09031 -1.45627,-0.27093c-0.4365,-0.18062 -0.65476,-0.42898 -0.65476,-0.74507c0,-0.21073 0.04892,-0.43274 0.14676,-0.66604c0.10536,-0.2333 0.21073,-0.38759 0.31609,-0.46284z" data-paper-data="{&quot;origPos&quot;:null}" id="path3492"/><path d="M167.93996,134.55527h-0.55316c-0.11289,0 -0.16933,-0.24836 -0.16933,-0.74507c0,-0.50424 0.05644,-0.75636 0.16933,-0.75636h0.55316v-0.24836c0,-0.79775 0.16557,-1.34714 0.49671,-1.64818c0.33867,-0.30856 0.80904,-0.46284 1.41111,-0.46284c0.60207,0 1.13265,0.10913 1.59173,0.32738c0.06021,0.02258 0.09031,0.10536 0.09031,0.24836c0,0.13547 -0.06397,0.35748 -0.19191,0.66604c-0.12794,0.30856 -0.23707,0.48542 -0.32738,0.53058c-0.25588,-0.15804 -0.51929,-0.23707 -0.79022,-0.23707c-0.29351,0 -0.44027,0.19567 -0.44027,0.58702v0.23707h0.93698c0.13547,0 0.2032,0.24083 0.2032,0.72249c0,0.52681 -0.08655,0.79022 -0.25964,0.79022h-0.72249v3.99627c0,0.09031 -0.3349,0.13547 -1.00471,0.13547c-0.66228,0 -0.99342,-0.04516 -0.99342,-0.13547z" data-paper-data="{&quot;origPos&quot;:null}" id="path3494"/><path d="M174.2053,138.687c0,0.05268 -0.34243,0.07902 -1.02729,0.07902c-0.68486,-0.01505 -1.02729,-0.04516 -1.02729,-0.09031v-3.74791h-0.3048c-0.12041,0 -0.21825,-0.0715 -0.29351,-0.21449c-0.06773,-0.15052 -0.1016,-0.3349 -0.1016,-0.55316c0,-0.8128 0.24083,-1.2192 0.72249,-1.2192c0.33867,0 0.62089,0.10536 0.84667,0.31609c0.22578,0.2032 0.33867,0.4365 0.33867,0.69991c0.15804,-0.30856 0.36877,-0.55316 0.63218,-0.73378c0.27093,-0.18815 0.54563,-0.28222 0.82409,-0.28222c0.4365,0 0.69991,0.11289 0.79022,0.33867c0.02258,0.06021 0.03387,0.15052 0.03387,0.27093c0,0.11289 -0.03763,0.31985 -0.11289,0.62089c-0.06773,0.30104 -0.13923,0.51929 -0.21449,0.65476c-0.07526,0.13547 -0.12041,0.2032 -0.13547,0.2032c-0.01505,0 -0.08655,-0.02634 -0.21449,-0.07902c-0.12041,-0.06021 -0.22954,-0.09031 -0.32738,-0.09031c-0.28599,0 -0.42898,0.22578 -0.42898,0.67733z" data-paper-data="{&quot;origPos&quot;:null}" id="path3496"/><path d="M176.69432,138.03224c-0.46661,-0.51929 -0.69991,-1.23801 -0.69991,-2.15618c0,-0.91816 0.2333,-1.63689 0.69991,-2.15618c0.47413,-0.51929 1.11007,-0.77893 1.90782,-0.77893c0.79775,0 1.42993,0.25964 1.89653,0.77893c0.46661,0.51929 0.69991,1.23801 0.69991,2.15618c0,0.91816 -0.2333,1.63689 -0.69991,2.15618c-0.46661,0.51929 -1.09879,0.77893 -1.89653,0.77893c-0.79775,0 -1.43369,-0.25964 -1.90782,-0.77893zM178.60214,134.8262c-0.42145,0 -0.63218,0.34619 -0.63218,1.03858c0,0.69239 0.21073,1.03858 0.63218,1.03858c0.42898,0 0.64347,-0.34619 0.64347,-1.03858c0,-0.69239 -0.21449,-1.03858 -0.64347,-1.03858z" data-paper-data="{&quot;origPos&quot;:null}" id="path3498"/><path d="M187.12155,138.64184c0,0.05268 -0.32361,0.07902 -0.97084,0.07902c-0.6397,0 -0.95956,-0.03387 -0.95956,-0.1016v-3.28507c0,-0.3763 -0.12418,-0.56444 -0.37253,-0.56444c-0.12794,0 -0.29727,0.08279 -0.508,0.24836v3.61244c0,0.07526 -0.32361,0.11289 -0.97084,0.11289c-0.6397,0 -0.95956,-0.04139 -0.95956,-0.12418v-3.69147h-0.28222c-0.24836,0 -0.37253,-0.25964 -0.37253,-0.77893c0,-0.2333 0.04516,-0.47037 0.13547,-0.7112c0.12041,-0.33114 0.31609,-0.49671 0.58702,-0.49671c0.27093,0 0.53058,0.0715 0.77893,0.21449c0.25588,0.14299 0.41016,0.27846 0.46284,0.4064c0.46661,-0.41393 0.98213,-0.62089 1.54658,-0.62089c0.57197,0 1.03105,0.17686 1.37724,0.53058c0.4064,-0.35372 0.89559,-0.53058 1.46756,-0.53058c1.24178,0 1.86267,0.75636 1.86267,2.26907v3.43182c0,0.05268 -0.32361,0.07902 -0.97084,0.07902c-0.6397,0 -0.95956,-0.03387 -0.95956,-0.1016v-3.28507c0,-0.3763 -0.12418,-0.56444 -0.37253,-0.56444c-0.13547,0 -0.30856,0.08279 -0.51929,0.24836z" data-paper-data="{&quot;origPos&quot;:null}" id="path3500"/><path d="M194.89519,138.61927c0,0.06773 -0.31609,0.1016 -0.94827,0.1016c-0.62465,0 -0.93698,-0.05268 -0.93698,-0.15804v-7.73289c0,-0.05268 0.11665,-0.09031 0.34996,-0.11289c0.2333,-0.02258 0.42898,-0.03387 0.58702,-0.03387c0.63218,0 0.94827,0.06773 0.94827,0.2032v2.25778c0.42145,-0.12794 0.7413,-0.19191 0.95956,-0.19191c0.57197,0 1.02353,0.15428 1.35467,0.46284c0.33114,0.30104 0.49671,0.86548 0.49671,1.69333v3.49956c0,0.06773 -0.29351,0.1016 -0.88053,0.1016c-0.66228,-0.02258 -0.99342,-0.06021 -0.99342,-0.11289v-3.31893c0,-0.36877 -0.12041,-0.55316 -0.36124,-0.55316c-0.16557,0 -0.35748,0.07902 -0.57573,0.23707z" data-paper-data="{&quot;origPos&quot;:null}" id="path3502"/><path d="M200.7423,138.63055c0,0.06021 -0.34619,0.09031 -1.03858,0.09031c-0.68486,0 -1.02729,-0.02634 -1.02729,-0.07902v-5.54284c0,-0.05268 0.34243,-0.07902 1.02729,-0.07902c0.69239,0 1.03858,0.02258 1.03858,0.06773zM200.7423,132.42167c0,0.05268 -0.34619,0.07902 -1.03858,0.07902c-0.68486,0 -1.02729,-0.02258 -1.02729,-0.06773v-1.6256c0,-0.07526 0.34243,-0.11289 1.02729,-0.11289c0.69239,0 1.03858,0.02258 1.03858,0.06773z" data-paper-data="{&quot;origPos&quot;:null}" id="path3504"/><path d="M202.00031,136.66629c0.6096,0.36877 1.09126,0.55316 1.44498,0.55316c0.22578,0 0.33867,-0.07902 0.33867,-0.23707c0,-0.11289 -0.19567,-0.25964 -0.58702,-0.44027c-0.94074,-0.38382 -1.41111,-1.01224 -1.41111,-1.88524c0,-0.55692 0.2032,-0.98213 0.6096,-1.27564c0.4064,-0.29351 0.89182,-0.44027 1.45627,-0.44027c0.57197,0 1.05363,0.06021 1.44498,0.18062c0.39887,0.12041 0.59831,0.27846 0.59831,0.47413c0,0.16557 -0.08279,0.38382 -0.24836,0.65476c-0.15804,0.27093 -0.26717,0.41769 -0.32738,0.44027c-0.32361,-0.18062 -0.67357,-0.27093 -1.04987,-0.27093c-0.2032,0 -0.3048,0.0715 -0.3048,0.21449c0,0.09031 0.03763,0.16933 0.11289,0.23707c0.08279,0.06021 0.22954,0.13923 0.44027,0.23707c0.21073,0.09031 0.38382,0.1731 0.51929,0.24836c0.14299,0.07526 0.30104,0.18062 0.47413,0.31609c0.36124,0.28599 0.54187,0.65852 0.54187,1.1176c0,0.60207 -0.19944,1.09126 -0.59831,1.46756c-0.39887,0.36877 -1.00095,0.55316 -1.80622,0.55316c-0.53434,0 -1.01976,-0.09031 -1.45627,-0.27093c-0.4365,-0.18062 -0.65476,-0.42898 -0.65476,-0.74507c0,-0.21073 0.04892,-0.43274 0.14676,-0.66604c0.10536,-0.2333 0.21073,-0.38759 0.31609,-0.46284z" data-paper-data="{&quot;origPos&quot;:null}" id="path3506"/><path d="M211.80717,130.8638c0,-0.11289 0.29727,-0.16933 0.89182,-0.16933c0.2032,0 0.4365,0.01505 0.69991,0.04516c0.27093,0.02258 0.4064,0.05644 0.4064,0.1016v5.94924h0.39511c0.18815,0 0.31233,0.16933 0.37253,0.508c0.01505,0.09784 0.02258,0.2333 0.02258,0.4064c0,0.16557 -0.05268,0.36877 -0.15804,0.6096c-0.15052,0.33114 -0.39135,0.49671 -0.72249,0.49671c-0.24836,0 -0.47037,-0.04892 -0.66604,-0.14676c-0.18815,-0.09784 -0.31609,-0.19944 -0.38382,-0.3048l-0.1016,-0.14676c-0.41393,0.39887 -0.93321,0.59831 -1.55787,0.59831c-0.62465,0 -1.15899,-0.25964 -1.60302,-0.77893c-0.44403,-0.51929 -0.66604,-1.24178 -0.66604,-2.16747c0,-0.93321 0.2333,-1.65194 0.69991,-2.15618c0.46661,-0.51176 1.04987,-0.76764 1.74978,-0.76764c0.2032,0 0.41016,0.02258 0.62089,0.06773zM211.43464,134.74718c-0.42145,0 -0.63218,0.38006 -0.63218,1.14018c0,0.38382 0.06021,0.66228 0.18062,0.83538c0.12041,0.16557 0.25212,0.24836 0.39511,0.24836c0.15052,0 0.29351,-0.06397 0.42898,-0.19191v-1.91911c-0.12794,-0.07526 -0.25212,-0.11289 -0.37253,-0.11289z" data-paper-data="{&quot;origPos&quot;:null}" id="path3508"/><path d="M215.26669,133.12158c0,-0.08279 0.32361,-0.12418 0.97084,-0.12418c0.64723,0 0.97084,0.04139 0.97084,0.12418v3.29636c0,0.3763 0.12041,0.56444 0.36124,0.56444c0.18062,0 0.38382,-0.07902 0.6096,-0.23707v-3.62373c0,-0.07526 0.31985,-0.11289 0.95956,-0.11289c0.6397,0 0.95956,0.03763 0.95956,0.11289v3.70276h0.29351c0.25588,0 0.38382,0.24459 0.38382,0.73378c0,0.24836 -0.05268,0.50047 -0.15804,0.75636c-0.15052,0.33114 -0.35372,0.49671 -0.6096,0.49671c-0.50424,0 -0.87677,-0.20696 -1.1176,-0.62089l-0.01129,0.01129c-0.45908,0.4064 -0.95203,0.6096 -1.47884,0.6096c-0.73001,0 -1.26812,-0.18062 -1.61431,-0.54187c-0.34619,-0.36877 -0.51929,-0.97461 -0.51929,-1.81751z" data-paper-data="{&quot;origPos&quot;:null}" id="path3510"/><path d="M222.1859,134.60042c-0.21073,-0.3763 -0.31609,-0.6811 -0.31609,-0.9144c0,-0.24083 0.06397,-0.39511 0.19191,-0.46284c0.42898,-0.18815 1.016,-0.28222 1.76107,-0.28222c0.75259,0 1.28317,0.17686 1.59173,0.53058c0.30856,0.34619 0.46284,0.86172 0.46284,1.54658v1.78364h0.38382c0.12794,0 0.22578,0.07526 0.29351,0.22578c0.07526,0.15052 0.11289,0.35748 0.11289,0.62089c0,0.26341 -0.06773,0.52305 -0.2032,0.77893c-0.12794,0.25588 -0.3048,0.38382 -0.53058,0.38382c-0.4064,0 -0.73378,-0.10913 -0.98213,-0.32738c-0.11289,-0.09031 -0.19944,-0.19944 -0.25964,-0.32738c-0.34619,0.4365 -0.8843,0.65476 -1.61431,0.65476c-0.54939,0 -1.01224,-0.19567 -1.38853,-0.58702c-0.3763,-0.39135 -0.56444,-0.85419 -0.56444,-1.38853c0,-1.22673 0.73378,-1.84009 2.20133,-1.84009h0.62089v-0.11289c0,-0.19567 -0.03387,-0.31985 -0.1016,-0.37253c-0.06021,-0.06021 -0.20696,-0.09031 -0.44027,-0.09031c-0.28599,0 -0.69239,0.06021 -1.2192,0.18062zM223.08901,136.67758c0,0.16557 0.04516,0.29351 0.13547,0.38382c0.09031,0.08279 0.2032,0.12418 0.33867,0.12418c0.14299,0 0.27093,-0.05644 0.38382,-0.16933v-0.86924h-0.31609c-0.36124,0 -0.54187,0.17686 -0.54187,0.53058z" data-paper-data="{&quot;origPos&quot;:null}" id="path3512"/><path d="M229.37216,138.60798c0,0.06773 -0.38382,0.1016 -1.15147,0.1016c-0.60207,-0.00753 -0.90311,-0.03763 -0.90311,-0.09031v-7.68773c0,-0.11289 0.36501,-0.16933 1.09502,-0.16933c0.6397,0.02258 0.95956,0.06021 0.95956,0.11289z" data-paper-data="{&quot;origPos&quot;:null}" id="path3514"/><path d="M135.00287,152.79811c0,0.05268 -0.34243,0.07902 -1.02729,0.07902c-0.68486,-0.01505 -1.02729,-0.04516 -1.02729,-0.09031v-3.74791h-0.3048c-0.12041,0 -0.21825,-0.0715 -0.29351,-0.21449c-0.06773,-0.15052 -0.1016,-0.3349 -0.1016,-0.55316c0,-0.8128 0.24083,-1.2192 0.72249,-1.2192c0.33867,0 0.62089,0.10536 0.84667,0.31609c0.22578,0.2032 0.33867,0.4365 0.33867,0.69991c0.15804,-0.30856 0.36877,-0.55316 0.63218,-0.73378c0.27093,-0.18815 0.54563,-0.28222 0.82409,-0.28222c0.4365,0 0.69991,0.11289 0.79022,0.33867c0.02258,0.06021 0.03387,0.15052 0.03387,0.27093c0,0.11289 -0.03763,0.31985 -0.11289,0.62089c-0.06773,0.30104 -0.13923,0.51929 -0.21449,0.65476c-0.07526,0.13547 -0.12041,0.2032 -0.13547,0.2032c-0.01505,0 -0.08655,-0.02634 -0.21449,-0.07902c-0.12041,-0.06021 -0.22954,-0.09031 -0.32738,-0.09031c-0.28599,0 -0.42898,0.22578 -0.42898,0.67733z" data-paper-data="{&quot;origPos&quot;:null}" id="path3516"/><path d="M141.27367,152.5046c-0.47413,0.27846 -1.08373,0.41769 -1.8288,0.41769c-0.74507,0 -1.37348,-0.25212 -1.88524,-0.75636c-0.51176,-0.51176 -0.76764,-1.21544 -0.76764,-2.11102c0,-0.90311 0.24459,-1.62936 0.73378,-2.17876c0.49671,-0.54939 1.12136,-0.82409 1.87396,-0.82409c0.75259,0 1.33209,0.19191 1.73849,0.57573c0.41393,0.38382 0.62089,0.85043 0.62089,1.39982c0,1.2192 -0.69991,1.8288 -2.09973,1.8288h-0.77893c0,0.22578 0.06021,0.38382 0.18062,0.47413c0.12794,0.08279 0.31233,0.12418 0.55316,0.12418c0.52681,0 1.02729,-0.12041 1.50142,-0.36124c0.00753,-0.00753 0.04139,0.04516 0.1016,0.15804c0.18062,0.32361 0.27093,0.59831 0.27093,0.82409c0,0.21825 -0.0715,0.36124 -0.21449,0.42898zM139.86256,149.24211c0,-0.31609 -0.15428,-0.47413 -0.46284,-0.47413c-0.14299,0 -0.26717,0.04516 -0.37253,0.13547c-0.09784,0.08279 -0.14676,0.20696 -0.14676,0.37253v0.34996h0.6096c0.24836,0 0.37253,-0.12794 0.37253,-0.38382z" data-paper-data="{&quot;origPos&quot;:null}" id="path3518"/><path d="M142.05631,147.19882c-0.02258,-0.06021 0.32738,-0.09031 1.04987,-0.09031c0.73001,0 1.09502,0.01881 1.09502,0.05644l0.8128,3.83822l0.6096,-3.78178c0.02258,-0.06773 0.39511,-0.1016 1.1176,-0.1016c0.73001,0 1.08373,0.0301 1.06116,0.09031l-1.59173,5.52027c-0.05268,0.07526 -0.50047,0.11289 -1.34338,0.11289c-0.8429,0 -1.29446,-0.05644 -1.35467,-0.16933z" data-paper-data="{&quot;origPos&quot;:null}" id="path3520"/><path d="M148.86897,152.14335c-0.46661,-0.51929 -0.69991,-1.23801 -0.69991,-2.15618c0,-0.91816 0.2333,-1.63689 0.69991,-2.15618c0.47413,-0.51929 1.11007,-0.77893 1.90782,-0.77893c0.79775,0 1.42993,0.25964 1.89653,0.77893c0.46661,0.51929 0.69991,1.23801 0.69991,2.15618c0,0.91816 -0.2333,1.63689 -0.69991,2.15618c-0.46661,0.51929 -1.09879,0.77893 -1.89653,0.77893c-0.79775,0 -1.43369,-0.25964 -1.90782,-0.77893zM150.7768,148.93731c-0.42145,0 -0.63218,0.34619 -0.63218,1.03858c0,0.69239 0.21073,1.03858 0.63218,1.03858c0.42898,0 0.64347,-0.34619 0.64347,-1.03858c0,-0.69239 -0.21449,-1.03858 -0.64347,-1.03858z" data-paper-data="{&quot;origPos&quot;:null}" id="path3522"/><path d="M156.23691,152.71909c0,0.06773 -0.38382,0.1016 -1.15147,0.1016c-0.60207,-0.00753 -0.90311,-0.03763 -0.90311,-0.09031v-7.68773c0,-0.11289 0.36501,-0.16933 1.09502,-0.16933c0.6397,0.02258 0.95956,0.06021 0.95956,0.11289z" data-paper-data="{&quot;origPos&quot;:null}" id="path3524"/><path d="M156.80683,147.19882c-0.02258,-0.06021 0.32738,-0.09031 1.04987,-0.09031c0.73001,0 1.09502,0.01881 1.09502,0.05644l0.8128,3.83822l0.6096,-3.78178c0.02258,-0.06773 0.39511,-0.1016 1.1176,-0.1016c0.73001,0 1.08373,0.0301 1.06116,0.09031l-1.59173,5.52027c-0.05268,0.07526 -0.50047,0.11289 -1.34338,0.11289c-0.8429,0 -1.29446,-0.05644 -1.35467,-0.16933z" data-paper-data="{&quot;origPos&quot;:null}" id="path3526"/><path d="M167.40127,152.5046c-0.47413,0.27846 -1.08373,0.41769 -1.8288,0.41769c-0.74507,0 -1.37348,-0.25212 -1.88524,-0.75636c-0.51176,-0.51176 -0.76764,-1.21544 -0.76764,-2.11102c0,-0.90311 0.24459,-1.62936 0.73378,-2.17876c0.49671,-0.54939 1.12136,-0.82409 1.87396,-0.82409c0.75259,0 1.33209,0.19191 1.73849,0.57573c0.41393,0.38382 0.62089,0.85043 0.62089,1.39982c0,1.2192 -0.69991,1.8288 -2.09973,1.8288h-0.77893c0,0.22578 0.06021,0.38382 0.18062,0.47413c0.12794,0.08279 0.31233,0.12418 0.55316,0.12418c0.52681,0 1.02729,-0.12041 1.50142,-0.36124c0.00753,-0.00753 0.04139,0.04516 0.1016,0.15804c0.18062,0.32361 0.27093,0.59831 0.27093,0.82409c0,0.21825 -0.0715,0.36124 -0.21449,0.42898zM165.99016,149.24211c0,-0.31609 -0.15428,-0.47413 -0.46284,-0.47413c-0.14299,0 -0.26717,0.04516 -0.37253,0.13547c-0.09784,0.08279 -0.14676,0.20696 -0.14676,0.37253v0.34996h0.6096c0.24836,0 0.37253,-0.12794 0.37253,-0.38382z" data-paper-data="{&quot;origPos&quot;:null}" id="path3528"/><path d="M171.09644,152.79811c0,0.05268 -0.34243,0.07902 -1.02729,0.07902c-0.68486,-0.01505 -1.02729,-0.04516 -1.02729,-0.09031v-3.74791h-0.3048c-0.12041,0 -0.21825,-0.0715 -0.29351,-0.21449c-0.06773,-0.15052 -0.1016,-0.3349 -0.1016,-0.55316c0,-0.8128 0.24083,-1.2192 0.72249,-1.2192c0.33867,0 0.62089,0.10536 0.84667,0.31609c0.22578,0.2032 0.33867,0.4365 0.33867,0.69991c0.15804,-0.30856 0.36877,-0.55316 0.63218,-0.73378c0.27093,-0.18815 0.54563,-0.28222 0.82409,-0.28222c0.4365,0 0.69991,0.11289 0.79022,0.33867c0.02258,0.06021 0.03387,0.15052 0.03387,0.27093c0,0.11289 -0.03763,0.31985 -0.11289,0.62089c-0.06773,0.30104 -0.13923,0.51929 -0.21449,0.65476c-0.07526,0.13547 -0.12041,0.2032 -0.13547,0.2032c-0.01505,0 -0.08655,-0.02634 -0.21449,-0.07902c-0.12041,-0.06021 -0.22954,-0.09031 -0.32738,-0.09031c-0.28599,0 -0.42898,0.22578 -0.42898,0.67733z" data-paper-data="{&quot;origPos&quot;:null}" id="path3530"/><path d="M173.33711,150.7774c0.6096,0.36877 1.09126,0.55316 1.44498,0.55316c0.22578,0 0.33867,-0.07902 0.33867,-0.23707c0,-0.11289 -0.19567,-0.25964 -0.58702,-0.44027c-0.94074,-0.38382 -1.41111,-1.01224 -1.41111,-1.88524c0,-0.55692 0.2032,-0.98213 0.6096,-1.27564c0.4064,-0.29351 0.89182,-0.44027 1.45627,-0.44027c0.57197,0 1.05363,0.06021 1.44498,0.18062c0.39887,0.12041 0.59831,0.27846 0.59831,0.47413c0,0.16557 -0.08279,0.38382 -0.24836,0.65476c-0.15804,0.27093 -0.26717,0.41769 -0.32738,0.44027c-0.32361,-0.18062 -0.67357,-0.27093 -1.04987,-0.27093c-0.2032,0 -0.3048,0.0715 -0.3048,0.21449c0,0.09031 0.03763,0.16933 0.11289,0.23707c0.08279,0.06021 0.22954,0.13923 0.44027,0.23707c0.21073,0.09031 0.38382,0.1731 0.51929,0.24836c0.14299,0.07526 0.30104,0.18062 0.47413,0.31609c0.36124,0.28599 0.54187,0.65852 0.54187,1.1176c0,0.60207 -0.19944,1.09126 -0.59831,1.46756c-0.39887,0.36877 -1.00095,0.55316 -1.80622,0.55316c-0.53434,0 -1.01976,-0.09031 -1.45627,-0.27093c-0.4365,-0.18062 -0.65476,-0.42898 -0.65476,-0.74507c0,-0.21073 0.04892,-0.43274 0.14676,-0.66604c0.10536,-0.2333 0.21073,-0.38759 0.31609,-0.46284z" data-paper-data="{&quot;origPos&quot;:null}" id="path3532"/><path d="M180.0226,152.84327c0,0.05268 -0.35748,0.07902 -1.07244,0.07902c-0.70744,0 -1.06116,-0.02258 -1.06116,-0.06773v-2.032c0,-0.06773 0.35372,-0.1016 1.06116,-0.1016c0.71496,0 1.07244,0.01881 1.07244,0.05644z" data-paper-data="{&quot;origPos&quot;:null}" id="path3534"/><path d="M189.06518,152.61749c0,0.12794 -0.38006,0.19191 -1.14018,0.19191c-0.76012,0 -1.14018,-0.06397 -1.14018,-0.19191v-2.59644h-1.58044v2.59644c0,0.12794 -0.38006,0.19191 -1.14018,0.19191c-0.76012,0 -1.14018,-0.06397 -1.14018,-0.19191v-7.48453c0,-0.15804 0.38006,-0.23707 1.14018,-0.23707c0.76012,0 1.14018,0.07902 1.14018,0.23707v2.65289h1.58044v-2.63031c0,-0.10536 0.18815,-0.18062 0.56444,-0.22578c0.19567,-0.01505 0.38759,-0.02258 0.57573,-0.02258l0.57573,0.02258c0.3763,0.04516 0.56444,0.12041 0.56444,0.22578z" data-paper-data="{&quot;origPos&quot;:null}" id="path3536"/><path d="M192.20949,152.74167c0,0.06021 -0.34619,0.09031 -1.03858,0.09031c-0.68486,0 -1.02729,-0.02634 -1.02729,-0.07902v-5.54284c0,-0.05268 0.34243,-0.07902 1.02729,-0.07902c0.69239,0 1.03858,0.02258 1.03858,0.06773zM192.20949,146.53278c0,0.05268 -0.34619,0.07902 -1.03858,0.07902c-0.68486,0 -1.02729,-0.02258 -1.02729,-0.06773v-1.6256c0,-0.07526 0.34243,-0.11289 1.02729,-0.11289c0.69239,0 1.03858,0.02258 1.03858,0.06773z" data-paper-data="{&quot;origPos&quot;:null}" id="path3538"/><path d="M193.46749,150.7774c0.6096,0.36877 1.09126,0.55316 1.44498,0.55316c0.22578,0 0.33867,-0.07902 0.33867,-0.23707c0,-0.11289 -0.19567,-0.25964 -0.58702,-0.44027c-0.94074,-0.38382 -1.41111,-1.01224 -1.41111,-1.88524c0,-0.55692 0.2032,-0.98213 0.6096,-1.27564c0.4064,-0.29351 0.89182,-0.44027 1.45627,-0.44027c0.57197,0 1.05363,0.06021 1.44498,0.18062c0.39887,0.12041 0.59831,0.27846 0.59831,0.47413c0,0.16557 -0.08279,0.38382 -0.24836,0.65476c-0.15804,0.27093 -0.26717,0.41769 -0.32738,0.44027c-0.32361,-0.18062 -0.67357,-0.27093 -1.04987,-0.27093c-0.2032,0 -0.3048,0.0715 -0.3048,0.21449c0,0.09031 0.03763,0.16933 0.11289,0.23707c0.08279,0.06021 0.22954,0.13923 0.44027,0.23707c0.21073,0.09031 0.38382,0.1731 0.51929,0.24836c0.14299,0.07526 0.30104,0.18062 0.47413,0.31609c0.36124,0.28599 0.54187,0.65852 0.54187,1.1176c0,0.60207 -0.19944,1.09126 -0.59831,1.46756c-0.39887,0.36877 -1.00095,0.55316 -1.80622,0.55316c-0.53434,0 -1.01976,-0.09031 -1.45627,-0.27093c-0.4365,-0.18062 -0.65476,-0.42898 -0.65476,-0.74507c0,-0.21073 0.04892,-0.43274 0.14676,-0.66604c0.10536,-0.2333 0.21073,-0.38759 0.31609,-0.46284z" data-paper-data="{&quot;origPos&quot;:null}" id="path3540"/><path d="M200.76823,150.05491c0.14299,0.11289 0.38759,0.26717 0.73378,0.46284c0.35372,0.19567 0.68862,0.29351 1.00471,0.29351c0.32361,0 0.48542,-0.12418 0.48542,-0.37253c0,-0.11289 -0.04516,-0.21073 -0.13547,-0.29351c-0.09031,-0.09031 -0.25588,-0.19191 -0.49671,-0.3048c-0.24083,-0.11289 -0.42145,-0.19944 -0.54187,-0.25964c-0.12041,-0.06773 -0.28222,-0.1731 -0.48542,-0.31609c-0.19567,-0.15052 -0.34619,-0.3048 -0.45156,-0.46284c-0.30104,-0.42898 -0.45156,-0.97461 -0.45156,-1.63689c0,-0.66228 0.24459,-1.2192 0.73378,-1.67076c0.49671,-0.45908 1.14394,-0.68862 1.94169,-0.68862c0.54187,0 1.04234,0.06021 1.50142,0.18062c0.45908,0.11289 0.69615,0.26341 0.7112,0.45156c0,0.02258 0,0.04516 0,0.06773c0,0.26341 -0.08279,0.59831 -0.24836,1.00471c-0.16557,0.39887 -0.28222,0.62089 -0.34996,0.66604c-0.48166,-0.24836 -0.9144,-0.37253 -1.29822,-0.37253c-0.3763,0 -0.56444,0.13547 -0.56444,0.4064c0,0.16557 0.13923,0.31233 0.41769,0.44027c0.06021,0.0301 0.14676,0.0715 0.25964,0.12418c0.11289,0.05268 0.24083,0.11665 0.38382,0.19191c0.15052,0.06773 0.30856,0.15804 0.47413,0.27093c0.1731,0.10536 0.35748,0.24836 0.55316,0.42898c0.39887,0.3763 0.59831,0.87301 0.59831,1.49013c0,0.80527 -0.22201,1.46379 -0.66604,1.97556c-0.44403,0.51176 -1.12889,0.77517 -2.05458,0.79022c-0.45156,0 -0.86172,-0.03763 -1.23049,-0.11289c-0.36124,-0.07526 -0.67733,-0.22201 -0.94827,-0.44027c-0.27093,-0.21825 -0.4064,-0.48166 -0.4064,-0.79022c0,-0.30856 0.05644,-0.61336 0.16933,-0.9144c0.11289,-0.30856 0.2333,-0.51176 0.36124,-0.6096z" data-paper-data="{&quot;origPos&quot;:null}" id="path3542"/><path d="M206.35905,147.23269c0,-0.08279 0.32361,-0.12418 0.97084,-0.12418c0.64723,0 0.97084,0.04139 0.97084,0.12418v3.29636c0,0.3763 0.12041,0.56444 0.36124,0.56444c0.18062,0 0.38382,-0.07902 0.6096,-0.23707v-3.62373c0,-0.07526 0.31985,-0.11289 0.95956,-0.11289c0.6397,0 0.95956,0.03763 0.95956,0.11289v3.70276h0.29351c0.25588,0 0.38382,0.24459 0.38382,0.73378c0,0.24836 -0.05268,0.50047 -0.15804,0.75636c-0.15052,0.33114 -0.35372,0.49671 -0.6096,0.49671c-0.50424,0 -0.87677,-0.20696 -1.1176,-0.62089l-0.01129,0.01129c-0.45908,0.4064 -0.95203,0.6096 -1.47884,0.6096c-0.73001,0 -1.26812,-0.18062 -1.61431,-0.54187c-0.34619,-0.36877 -0.51929,-0.97461 -0.51929,-1.81751z" data-paper-data="{&quot;origPos&quot;:null}" id="path3544"/><path d="M214.99417,154.86398c0,0.05268 -0.32361,0.07902 -0.97084,0.07902c-0.6397,0 -0.95956,-0.02634 -0.95956,-0.07902v-5.81378h-0.38382c-0.18062,0 -0.3048,-0.16557 -0.37253,-0.49671c-0.02258,-0.10536 -0.03387,-0.24083 -0.03387,-0.4064c0,-0.16557 0.05268,-0.36124 0.15804,-0.58702c0.15052,-0.33114 0.39135,-0.49671 0.72249,-0.49671c0.21825,0 0.41769,0.05268 0.59831,0.15804c0.18815,0.09784 0.31609,0.19191 0.38382,0.28222c0.07526,0.08279 0.11289,0.1317 0.11289,0.14676c0.50424,-0.39135 1.04987,-0.58702 1.63689,-0.58702c0.58702,0 1.09126,0.22954 1.51271,0.68862c0.42145,0.45156 0.63218,1.15523 0.63218,2.11102c0,0.94827 -0.21073,1.68581 -0.63218,2.21262c-0.42145,0.51929 -0.95579,0.77893 -1.60302,0.77893c-0.29351,0 -0.56068,-0.01505 -0.80151,-0.04516zM215.45701,149.03891c-0.12794,0 -0.25212,0.04139 -0.37253,0.12418v1.99813c0.12794,0.01505 0.22954,0.02258 0.3048,0.02258c0.08279,0 0.14676,0 0.19191,0c0.30856,-0.0301 0.46284,-0.42521 0.46284,-1.18533c0,-0.6397 -0.19567,-0.95956 -0.58702,-0.95956z" data-paper-data="{&quot;origPos&quot;:null}" id="path3546"/><path d="M223.09606,152.5046c-0.47413,0.27846 -1.08373,0.41769 -1.8288,0.41769c-0.74507,0 -1.37348,-0.25212 -1.88524,-0.75636c-0.51176,-0.51176 -0.76764,-1.21544 -0.76764,-2.11102c0,-0.90311 0.24459,-1.62936 0.73378,-2.17876c0.49671,-0.54939 1.12136,-0.82409 1.87396,-0.82409c0.75259,0 1.33209,0.19191 1.73849,0.57573c0.41393,0.38382 0.62089,0.85043 0.62089,1.39982c0,1.2192 -0.69991,1.8288 -2.09973,1.8288h-0.77893c0,0.22578 0.06021,0.38382 0.18062,0.47413c0.12794,0.08279 0.31233,0.12418 0.55316,0.12418c0.52681,0 1.02729,-0.12041 1.50142,-0.36124c0.00753,-0.00753 0.04139,0.04516 0.1016,0.15804c0.18062,0.32361 0.27093,0.59831 0.27093,0.82409c0,0.21825 -0.0715,0.36124 -0.21449,0.42898zM221.68495,149.24211c0,-0.31609 -0.15428,-0.47413 -0.46284,-0.47413c-0.14299,0 -0.26717,0.04516 -0.37253,0.13547c-0.09784,0.08279 -0.14676,0.20696 -0.14676,0.37253v0.34996h0.6096c0.24836,0 0.37253,-0.12794 0.37253,-0.38382z" data-paper-data="{&quot;origPos&quot;:null}" id="path3548"/><path d="M226.79124,152.79811c0,0.05268 -0.34243,0.07902 -1.02729,0.07902c-0.68486,-0.01505 -1.02729,-0.04516 -1.02729,-0.09031v-3.74791h-0.3048c-0.12041,0 -0.21825,-0.0715 -0.29351,-0.21449c-0.06773,-0.15052 -0.1016,-0.3349 -0.1016,-0.55316c0,-0.8128 0.24083,-1.2192 0.72249,-1.2192c0.33867,0 0.62089,0.10536 0.84667,0.31609c0.22578,0.2032 0.33867,0.4365 0.33867,0.69991c0.15804,-0.30856 0.36877,-0.55316 0.63218,-0.73378c0.27093,-0.18815 0.54563,-0.28222 0.82409,-0.28222c0.4365,0 0.69991,0.11289 0.79022,0.33867c0.02258,0.06021 0.03387,0.15052 0.03387,0.27093c0,0.11289 -0.03763,0.31985 -0.11289,0.62089c-0.06773,0.30104 -0.13923,0.51929 -0.21449,0.65476c-0.07526,0.13547 -0.12041,0.2032 -0.13547,0.2032c-0.01505,0 -0.08655,-0.02634 -0.21449,-0.07902c-0.12041,-0.06021 -0.22954,-0.09031 -0.32738,-0.09031c-0.28599,0 -0.42898,0.22578 -0.42898,0.67733z" data-paper-data="{&quot;origPos&quot;:null}" id="path3550"/><path d="M231.14857,150.7774c0.6096,0.36877 1.09126,0.55316 1.44498,0.55316c0.22578,0 0.33867,-0.07902 0.33867,-0.23707c0,-0.11289 -0.19567,-0.25964 -0.58702,-0.44027c-0.94074,-0.38382 -1.41111,-1.01224 -1.41111,-1.88524c0,-0.55692 0.2032,-0.98213 0.6096,-1.27564c0.4064,-0.29351 0.89182,-0.44027 1.45627,-0.44027c0.57197,0 1.05363,0.06021 1.44498,0.18062c0.39887,0.12041 0.59831,0.27846 0.59831,0.47413c0,0.16557 -0.08279,0.38382 -0.24836,0.65476c-0.15804,0.27093 -0.26717,0.41769 -0.32738,0.44027c-0.32361,-0.18062 -0.67357,-0.27093 -1.04987,-0.27093c-0.2032,0 -0.3048,0.0715 -0.3048,0.21449c0,0.09031 0.03763,0.16933 0.11289,0.23707c0.08279,0.06021 0.22954,0.13923 0.44027,0.23707c0.21073,0.09031 0.38382,0.1731 0.51929,0.24836c0.14299,0.07526 0.30104,0.18062 0.47413,0.31609c0.36124,0.28599 0.54187,0.65852 0.54187,1.1176c0,0.60207 -0.19944,1.09126 -0.59831,1.46756c-0.39887,0.36877 -1.00095,0.55316 -1.80622,0.55316c-0.53434,0 -1.01976,-0.09031 -1.45627,-0.27093c-0.4365,-0.18062 -0.65476,-0.42898 -0.65476,-0.74507c0,-0.21073 0.04892,-0.43274 0.14676,-0.66604c0.10536,-0.2333 0.21073,-0.38759 0.31609,-0.46284z" data-paper-data="{&quot;origPos&quot;:null}" id="path3552"/><path d="M237.86793,152.73038c0,0.06773 -0.31609,0.1016 -0.94827,0.1016c-0.62465,0 -0.93698,-0.05268 -0.93698,-0.15804v-7.73289c0,-0.05268 0.11665,-0.09031 0.34996,-0.11289c0.2333,-0.02258 0.42898,-0.03387 0.58702,-0.03387c0.63218,0 0.94827,0.06773 0.94827,0.2032v2.25778c0.42145,-0.12794 0.7413,-0.19191 0.95956,-0.19191c0.57197,0 1.02353,0.15428 1.35467,0.46284c0.33114,0.30104 0.49671,0.86548 0.49671,1.69333v3.49956c0,0.06773 -0.29351,0.1016 -0.88053,0.1016c-0.66228,-0.02258 -0.99342,-0.06021 -0.99342,-0.11289v-3.31893c0,-0.36877 -0.12041,-0.55316 -0.36124,-0.55316c-0.16557,0 -0.35748,0.07902 -0.57573,0.23707z" data-paper-data="{&quot;origPos&quot;:null}" id="path3554"/><path d="M244.12144,152.79811c0,0.05268 -0.34243,0.07902 -1.02729,0.07902c-0.68486,-0.01505 -1.02729,-0.04516 -1.02729,-0.09031v-3.74791h-0.3048c-0.12041,0 -0.21825,-0.0715 -0.29351,-0.21449c-0.06773,-0.15052 -0.1016,-0.3349 -0.1016,-0.55316c0,-0.8128 0.24083,-1.2192 0.72249,-1.2192c0.33867,0 0.62089,0.10536 0.84667,0.31609c0.22578,0.2032 0.33867,0.4365 0.33867,0.69991c0.15804,-0.30856 0.36877,-0.55316 0.63218,-0.73378c0.27093,-0.18815 0.54563,-0.28222 0.82409,-0.28222c0.4365,0 0.69991,0.11289 0.79022,0.33867c0.02258,0.06021 0.03387,0.15052 0.03387,0.27093c0,0.11289 -0.03763,0.31985 -0.11289,0.62089c-0.06773,0.30104 -0.13923,0.51929 -0.21449,0.65476c-0.07526,0.13547 -0.12041,0.2032 -0.13547,0.2032c-0.01505,0 -0.08655,-0.02634 -0.21449,-0.07902c-0.12041,-0.06021 -0.22954,-0.09031 -0.32738,-0.09031c-0.28599,0 -0.42898,0.22578 -0.42898,0.67733z" data-paper-data="{&quot;origPos&quot;:null}" id="path3556"/><path d="M250.39224,152.5046c-0.47413,0.27846 -1.08373,0.41769 -1.8288,0.41769c-0.74507,0 -1.37348,-0.25212 -1.88524,-0.75636c-0.51176,-0.51176 -0.76764,-1.21544 -0.76764,-2.11102c0,-0.90311 0.24459,-1.62936 0.73378,-2.17876c0.49671,-0.54939 1.12136,-0.82409 1.87396,-0.82409c0.75259,0 1.33209,0.19191 1.73849,0.57573c0.41393,0.38382 0.62089,0.85043 0.62089,1.39982c0,1.2192 -0.69991,1.8288 -2.09973,1.8288h-0.77893c0,0.22578 0.06021,0.38382 0.18062,0.47413c0.12794,0.08279 0.31233,0.12418 0.55316,0.12418c0.52681,0 1.02729,-0.12041 1.50142,-0.36124c0.00753,-0.00753 0.04139,0.04516 0.1016,0.15804c0.18062,0.32361 0.27093,0.59831 0.27093,0.82409c0,0.21825 -0.0715,0.36124 -0.21449,0.42898zM248.98113,149.24211c0,-0.31609 -0.15428,-0.47413 -0.46284,-0.47413c-0.14299,0 -0.26717,0.04516 -0.37253,0.13547c-0.09784,0.08279 -0.14676,0.20696 -0.14676,0.37253v0.34996h0.6096c0.24836,0 0.37253,-0.12794 0.37253,-0.38382z" data-paper-data="{&quot;origPos&quot;:null}" id="path3558"/><path d="M254.47124,144.97491c0,-0.11289 0.29727,-0.16933 0.89182,-0.16933c0.2032,0 0.4365,0.01505 0.69991,0.04516c0.27093,0.02258 0.4064,0.05644 0.4064,0.1016v5.94924h0.39511c0.18815,0 0.31233,0.16933 0.37253,0.508c0.01505,0.09784 0.02258,0.2333 0.02258,0.4064c0,0.16557 -0.05268,0.36877 -0.15804,0.6096c-0.15052,0.33114 -0.39135,0.49671 -0.72249,0.49671c-0.24836,0 -0.47037,-0.04892 -0.66604,-0.14676c-0.18815,-0.09784 -0.31609,-0.19944 -0.38382,-0.3048l-0.1016,-0.14676c-0.41393,0.39887 -0.93321,0.59831 -1.55787,0.59831c-0.62465,0 -1.15899,-0.25964 -1.60302,-0.77893c-0.44403,-0.51929 -0.66604,-1.24178 -0.66604,-2.16747c0,-0.93321 0.2333,-1.65194 0.69991,-2.15618c0.46661,-0.51176 1.04987,-0.76764 1.74978,-0.76764c0.2032,0 0.41016,0.02258 0.62089,0.06773zM254.09871,148.85829c-0.42145,0 -0.63218,0.38006 -0.63218,1.14018c0,0.38382 0.06021,0.66228 0.18062,0.83538c0.12041,0.16557 0.25212,0.24836 0.39511,0.24836c0.15052,0 0.29351,-0.06397 0.42898,-0.19191v-1.91911c-0.12794,-0.07526 -0.25212,-0.11289 -0.37253,-0.11289z" data-paper-data="{&quot;origPos&quot;:null}" id="path3560"/><path d="M258.22426,150.7774c0.6096,0.36877 1.09126,0.55316 1.44498,0.55316c0.22578,0 0.33867,-0.07902 0.33867,-0.23707c0,-0.11289 -0.19567,-0.25964 -0.58702,-0.44027c-0.94074,-0.38382 -1.41111,-1.01224 -1.41111,-1.88524c0,-0.55692 0.2032,-0.98213 0.6096,-1.27564c0.4064,-0.29351 0.89182,-0.44027 1.45627,-0.44027c0.57197,0 1.05363,0.06021 1.44498,0.18062c0.39887,0.12041 0.59831,0.27846 0.59831,0.47413c0,0.16557 -0.08279,0.38382 -0.24836,0.65476c-0.15804,0.27093 -0.26717,0.41769 -0.32738,0.44027c-0.32361,-0.18062 -0.67357,-0.27093 -1.04987,-0.27093c-0.2032,0 -0.3048,0.0715 -0.3048,0.21449c0,0.09031 0.03763,0.16933 0.11289,0.23707c0.08279,0.06021 0.22954,0.13923 0.44027,0.23707c0.21073,0.09031 0.38382,0.1731 0.51929,0.24836c0.14299,0.07526 0.30104,0.18062 0.47413,0.31609c0.36124,0.28599 0.54187,0.65852 0.54187,1.1176c0,0.60207 -0.19944,1.09126 -0.59831,1.46756c-0.39887,0.36877 -1.00095,0.55316 -1.80622,0.55316c-0.53434,0 -1.01976,-0.09031 -1.45627,-0.27093c-0.4365,-0.18062 -0.65476,-0.42898 -0.65476,-0.74507c0,-0.21073 0.04892,-0.43274 0.14676,-0.66604c0.10536,-0.2333 0.21073,-0.38759 0.31609,-0.46284z" data-paper-data="{&quot;origPos&quot;:null}" id="path3562"/><path d="M134.38198,164.12087c0,0.73754 0.27846,1.10631 0.83538,1.10631c0.36124,0 0.66228,-0.0715 0.90311,-0.21449c0.11289,0 0.2032,0.19567 0.27093,0.58702c0.07526,0.38382 0.11289,0.64723 0.11289,0.79022c0,0.13547 -0.01881,0.22578 -0.05644,0.27093c-0.39887,0.24836 -0.9445,0.37253 -1.63689,0.37253c-0.69239,0 -1.28317,-0.25588 -1.77236,-0.76764c-0.48166,-0.51929 -0.72249,-1.22296 -0.72249,-2.11102c0,-0.89559 0.23707,-1.61807 0.7112,-2.16747c0.48166,-0.54939 1.1176,-0.82409 1.90782,-0.82409c0.79775,0 1.3509,0.19191 1.65947,0.57573c0.06773,0.08279 0.1016,0.20696 0.1016,0.37253c0,0.15804 -0.0301,0.35372 -0.09031,0.58702c-0.13547,0.48166 -0.31233,0.76012 -0.53058,0.83538c-0.0301,0.00753 -0.07526,0.01129 -0.13547,0.01129c-0.05268,0 -0.12041,-0.04516 -0.2032,-0.13547c-0.29351,-0.29351 -0.53058,-0.44027 -0.7112,-0.44027c-0.1731,0 -0.32361,0.09031 -0.45156,0.27093c-0.12794,0.18062 -0.19191,0.47413 -0.19191,0.88053z" data-paper-data="{&quot;origPos&quot;:null}" id="path3564"/><path d="M137.80057,166.25447c-0.46661,-0.51929 -0.69991,-1.23801 -0.69991,-2.15618c0,-0.91816 0.2333,-1.63689 0.69991,-2.15618c0.47413,-0.51929 1.11007,-0.77893 1.90782,-0.77893c0.79775,0 1.42993,0.25964 1.89653,0.77893c0.46661,0.51929 0.69991,1.23801 0.69991,2.15618c0,0.91816 -0.2333,1.63689 -0.69991,2.15618c-0.46661,0.51929 -1.09879,0.77893 -1.89653,0.77893c-0.79775,0 -1.43369,-0.25964 -1.90782,-0.77893zM139.70839,163.04842c-0.42145,0 -0.63218,0.34619 -0.63218,1.03858c0,0.69239 0.21073,1.03858 0.63218,1.03858c0.42898,0 0.64347,-0.34619 0.64347,-1.03858c0,-0.69239 -0.21449,-1.03858 -0.64347,-1.03858z" data-paper-data="{&quot;origPos&quot;:null}" id="path3566"/><path d="M142.67367,161.30993c-0.02258,-0.06021 0.32738,-0.09031 1.04987,-0.09031c0.73001,0 1.09502,0.01881 1.09502,0.05644l0.8128,3.83822l0.6096,-3.78178c0.02258,-0.06773 0.39511,-0.1016 1.1176,-0.1016c0.73001,0 1.08373,0.0301 1.06116,0.09031l-1.59173,5.52027c-0.05268,0.07526 -0.50047,0.11289 -1.34338,0.11289c-0.8429,0 -1.29446,-0.05644 -1.35467,-0.16933z" data-paper-data="{&quot;origPos&quot;:null}" id="path3568"/><path d="M153.26811,166.61571c-0.47413,0.27846 -1.08373,0.41769 -1.8288,0.41769c-0.74507,0 -1.37348,-0.25212 -1.88524,-0.75636c-0.51176,-0.51176 -0.76764,-1.21544 -0.76764,-2.11102c0,-0.90311 0.24459,-1.62936 0.73378,-2.17876c0.49671,-0.54939 1.12136,-0.82409 1.87396,-0.82409c0.75259,0 1.33209,0.19191 1.73849,0.57573c0.41393,0.38382 0.62089,0.85043 0.62089,1.39982c0,1.2192 -0.69991,1.8288 -2.09973,1.8288h-0.77893c0,0.22578 0.06021,0.38382 0.18062,0.47413c0.12794,0.08279 0.31233,0.12418 0.55316,0.12418c0.52681,0 1.02729,-0.12041 1.50142,-0.36124c0.00753,-0.00753 0.04139,0.04516 0.1016,0.15804c0.18062,0.32361 0.27093,0.59831 0.27093,0.82409c0,0.21825 -0.0715,0.36124 -0.21449,0.42898zM151.857,163.35322c0,-0.31609 -0.15428,-0.47413 -0.46284,-0.47413c-0.14299,0 -0.26717,0.04516 -0.37253,0.13547c-0.09784,0.08279 -0.14676,0.20696 -0.14676,0.37253v0.34996h0.6096c0.24836,0 0.37253,-0.12794 0.37253,-0.38382z" data-paper-data="{&quot;origPos&quot;:null}" id="path3570"/><path d="M156.96328,166.90922c0,0.05268 -0.34243,0.07902 -1.02729,0.07902c-0.68486,-0.01505 -1.02729,-0.04516 -1.02729,-0.09031v-3.74791h-0.3048c-0.12041,0 -0.21825,-0.0715 -0.29351,-0.21449c-0.06773,-0.15052 -0.1016,-0.3349 -0.1016,-0.55316c0,-0.8128 0.24083,-1.2192 0.72249,-1.2192c0.33867,0 0.62089,0.10536 0.84667,0.31609c0.22578,0.2032 0.33867,0.4365 0.33867,0.69991c0.15804,-0.30856 0.36877,-0.55316 0.63218,-0.73378c0.27093,-0.18815 0.54563,-0.28222 0.82409,-0.28222c0.4365,0 0.69991,0.11289 0.79022,0.33867c0.02258,0.06021 0.03387,0.15052 0.03387,0.27093c0,0.11289 -0.03763,0.31985 -0.11289,0.62089c-0.06773,0.30104 -0.13923,0.51929 -0.21449,0.65476c-0.07526,0.13547 -0.12041,0.2032 -0.13547,0.2032c-0.01505,0 -0.08655,-0.02634 -0.21449,-0.07902c-0.12041,-0.06021 -0.22954,-0.09031 -0.32738,-0.09031c-0.28599,0 -0.42898,0.22578 -0.42898,0.67733z" data-paper-data="{&quot;origPos&quot;:null}" id="path3572"/><path d="M161.79475,162.82264c-0.21073,-0.3763 -0.31609,-0.6811 -0.31609,-0.9144c0,-0.24083 0.06397,-0.39511 0.19191,-0.46284c0.42898,-0.18815 1.016,-0.28222 1.76107,-0.28222c0.75259,0 1.28317,0.17686 1.59173,0.53058c0.30856,0.34619 0.46284,0.86172 0.46284,1.54658v1.78364h0.38382c0.12794,0 0.22578,0.07526 0.29351,0.22578c0.07526,0.15052 0.11289,0.35748 0.11289,0.62089c0,0.26341 -0.06773,0.52305 -0.2032,0.77893c-0.12794,0.25588 -0.3048,0.38382 -0.53058,0.38382c-0.4064,0 -0.73378,-0.10913 -0.98213,-0.32738c-0.11289,-0.09031 -0.19944,-0.19944 -0.25964,-0.32738c-0.34619,0.4365 -0.8843,0.65476 -1.61431,0.65476c-0.54939,0 -1.01224,-0.19567 -1.38853,-0.58702c-0.3763,-0.39135 -0.56444,-0.85419 -0.56444,-1.38853c0,-1.22673 0.73378,-1.84009 2.20133,-1.84009h0.62089v-0.11289c0,-0.19567 -0.03387,-0.31985 -0.1016,-0.37253c-0.06021,-0.06021 -0.20696,-0.09031 -0.44027,-0.09031c-0.28599,0 -0.69239,0.06021 -1.2192,0.18062zM162.69786,164.8998c0,0.16557 0.04516,0.29351 0.13547,0.38382c0.09031,0.08279 0.2032,0.12418 0.33867,0.12418c0.14299,0 0.27093,-0.05644 0.38382,-0.16933v-0.86924h-0.31609c-0.36124,0 -0.54187,0.17686 -0.54187,0.53058z" data-paper-data="{&quot;origPos&quot;:null}" id="path3574"/><path d="M169.28581,166.85278c0,0.05268 -0.27093,0.07902 -0.8128,0.07902c-0.75259,-0.02258 -1.12889,-0.06397 -1.12889,-0.12418v-3.6576h-0.29351c-0.19567,0 -0.32361,-0.16557 -0.38382,-0.49671c-0.01505,-0.09784 -0.02258,-0.19567 -0.02258,-0.29351c0,-0.2333 0.04516,-0.46661 0.13547,-0.69991c0.13547,-0.33114 0.34619,-0.49671 0.63218,-0.49671c0.28599,0 0.54187,0.06773 0.76764,0.2032c0.22578,0.13547 0.3763,0.27093 0.45156,0.4064c0.47413,-0.4064 1.03858,-0.6096 1.69333,-0.6096c0.65476,0 1.12889,0.17686 1.4224,0.53058c0.29351,0.35372 0.44027,0.93321 0.44027,1.73849v3.38667c0,0.09031 -0.32361,0.13547 -0.97084,0.13547c-0.6397,0 -0.95956,-0.04516 -0.95956,-0.13547v-3.26249c0,-0.3763 -0.1317,-0.56444 -0.39511,-0.56444c-0.07526,0 -0.18062,0.03387 -0.31609,0.1016c-0.13547,0.06021 -0.22201,0.10536 -0.25964,0.13547z" data-paper-data="{&quot;origPos&quot;:null}" id="path3576"/><path d="M176.00023,159.08602c0,-0.11289 0.29727,-0.16933 0.89182,-0.16933c0.2032,0 0.4365,0.01505 0.69991,0.04516c0.27093,0.02258 0.4064,0.05644 0.4064,0.1016v5.94924h0.39511c0.18815,0 0.31233,0.16933 0.37253,0.508c0.01505,0.09784 0.02258,0.2333 0.02258,0.4064c0,0.16557 -0.05268,0.36877 -0.15804,0.6096c-0.15052,0.33114 -0.39135,0.49671 -0.72249,0.49671c-0.24836,0 -0.47037,-0.04892 -0.66604,-0.14676c-0.18815,-0.09784 -0.31609,-0.19944 -0.38382,-0.3048l-0.1016,-0.14676c-0.41393,0.39887 -0.93321,0.59831 -1.55787,0.59831c-0.62465,0 -1.15899,-0.25964 -1.60302,-0.77893c-0.44403,-0.51929 -0.66604,-1.24178 -0.66604,-2.16747c0,-0.93321 0.2333,-1.65194 0.69991,-2.15618c0.46661,-0.51176 1.04987,-0.76764 1.74978,-0.76764c0.2032,0 0.41016,0.02258 0.62089,0.06773zM175.6277,162.9694c-0.42145,0 -0.63218,0.38006 -0.63218,1.14018c0,0.38382 0.06021,0.66228 0.18062,0.83538c0.12041,0.16557 0.25212,0.24836 0.39511,0.24836c0.15052,0 0.29351,-0.06397 0.42898,-0.19191v-1.91911c-0.12794,-0.07526 -0.25212,-0.11289 -0.37253,-0.11289z" data-paper-data="{&quot;origPos&quot;:null}" id="path3578"/><path d="M185.90006,166.61571c-0.47413,0.27846 -1.08373,0.41769 -1.8288,0.41769c-0.74507,0 -1.37348,-0.25212 -1.88524,-0.75636c-0.51176,-0.51176 -0.76764,-1.21544 -0.76764,-2.11102c0,-0.90311 0.24459,-1.62936 0.73378,-2.17876c0.49671,-0.54939 1.12136,-0.82409 1.87396,-0.82409c0.75259,0 1.33209,0.19191 1.73849,0.57573c0.41393,0.38382 0.62089,0.85043 0.62089,1.39982c0,1.2192 -0.69991,1.8288 -2.09973,1.8288h-0.77893c0,0.22578 0.06021,0.38382 0.18062,0.47413c0.12794,0.08279 0.31233,0.12418 0.55316,0.12418c0.52681,0 1.02729,-0.12041 1.50142,-0.36124c0.00753,-0.00753 0.04139,0.04516 0.1016,0.15804c0.18062,0.32361 0.27093,0.59831 0.27093,0.82409c0,0.21825 -0.0715,0.36124 -0.21449,0.42898zM184.48895,163.35322c0,-0.31609 -0.15428,-0.47413 -0.46284,-0.47413c-0.14299,0 -0.26717,0.04516 -0.37253,0.13547c-0.09784,0.08279 -0.14676,0.20696 -0.14676,0.37253v0.34996h0.6096c0.24836,0 0.37253,-0.12794 0.37253,-0.38382z" data-paper-data="{&quot;origPos&quot;:null}" id="path3580"/><path d="M190.50963,161.30993c0.0301,-0.06021 0.21825,-0.09031 0.56444,-0.09031c1.12889,0 1.67828,0.04139 1.64818,0.12418l-1.37724,2.85609c0.92569,1.73096 1.38853,2.59644 1.38853,2.59644c0,0.04516 -0.22578,0.08279 -0.67733,0.11289c-0.45156,0.0301 -0.77141,0.04516 -0.95956,0.04516c-0.47413,0 -0.72625,-0.04892 -0.75636,-0.14676l-0.6096,-1.88524l-0.69991,1.96427c-0.01505,0.05268 -0.22954,0.07902 -0.64347,0.07902c-0.41393,0 -0.7827,-0.01505 -1.10631,-0.04516c-0.32361,-0.0301 -0.47037,-0.06773 -0.44027,-0.11289l1.27564,-2.59644c-0.88806,-1.8589 -1.33209,-2.79212 -1.33209,-2.79964c0,-0.04516 0.11289,-0.08655 0.33867,-0.12418c0.2333,-0.03763 0.49295,-0.05644 0.77893,-0.05644c0.29351,0 0.57197,0.01505 0.83538,0.04516c0.26341,0.02258 0.41016,0.05644 0.44027,0.1016l0.59831,1.8288z" data-paper-data="{&quot;origPos&quot;:null}" id="path3582"/><path d="M196.00326,166.85278c0,0.09031 -0.31609,0.13547 -0.94827,0.13547c-0.75259,-0.0301 -1.12889,-0.07902 -1.12889,-0.14676v-3.99627h-0.57573c-0.15052,0 -0.22578,-0.25964 -0.22578,-0.77893c0,-0.13547 0.01129,-0.30104 0.03387,-0.49671c0.0301,-0.19567 0.08655,-0.29351 0.16933,-0.29351h0.59831v-0.99342c0,-0.15052 0.31609,-0.22578 0.94827,-0.22578c0.6397,0 0.95956,0.06021 0.95956,0.18062v0.72249l0.01129,0.31609h0.95956c0.12794,0 0.19191,0.26341 0.19191,0.79022c0,0.52681 -0.06397,0.79022 -0.19191,0.79022h-0.80151z" data-paper-data="{&quot;origPos&quot;:null}" id="path3584"/><path d="M201.81916,166.61571c-0.47413,0.27846 -1.08373,0.41769 -1.8288,0.41769c-0.74507,0 -1.37348,-0.25212 -1.88524,-0.75636c-0.51176,-0.51176 -0.76764,-1.21544 -0.76764,-2.11102c0,-0.90311 0.24459,-1.62936 0.73378,-2.17876c0.49671,-0.54939 1.12136,-0.82409 1.87396,-0.82409c0.75259,0 1.33209,0.19191 1.73849,0.57573c0.41393,0.38382 0.62089,0.85043 0.62089,1.39982c0,1.2192 -0.69991,1.8288 -2.09973,1.8288h-0.77893c0,0.22578 0.06021,0.38382 0.18062,0.47413c0.12794,0.08279 0.31233,0.12418 0.55316,0.12418c0.52681,0 1.02729,-0.12041 1.50142,-0.36124c0.00753,-0.00753 0.04139,0.04516 0.1016,0.15804c0.18062,0.32361 0.27093,0.59831 0.27093,0.82409c0,0.21825 -0.0715,0.36124 -0.21449,0.42898zM200.40804,163.35322c0,-0.31609 -0.15428,-0.47413 -0.46284,-0.47413c-0.14299,0 -0.26717,0.04516 -0.37253,0.13547c-0.09784,0.08279 -0.14676,0.20696 -0.14676,0.37253v0.34996h0.6096c0.24836,0 0.37253,-0.12794 0.37253,-0.38382z" data-paper-data="{&quot;origPos&quot;:null}" id="path3586"/><path d="M205.40144,166.85278c0,0.05268 -0.27093,0.07902 -0.8128,0.07902c-0.75259,-0.02258 -1.12889,-0.06397 -1.12889,-0.12418v-3.6576h-0.29351c-0.19567,0 -0.32361,-0.16557 -0.38382,-0.49671c-0.01505,-0.09784 -0.02258,-0.19567 -0.02258,-0.29351c0,-0.2333 0.04516,-0.46661 0.13547,-0.69991c0.13547,-0.33114 0.34619,-0.49671 0.63218,-0.49671c0.28599,0 0.54187,0.06773 0.76764,0.2032c0.22578,0.13547 0.3763,0.27093 0.45156,0.4064c0.47413,-0.4064 1.03858,-0.6096 1.69333,-0.6096c0.65476,0 1.12889,0.17686 1.4224,0.53058c0.29351,0.35372 0.44027,0.93321 0.44027,1.73849v3.38667c0,0.09031 -0.32361,0.13547 -0.97084,0.13547c-0.6397,0 -0.95956,-0.04516 -0.95956,-0.13547v-3.26249c0,-0.3763 -0.1317,-0.56444 -0.39511,-0.56444c-0.07526,0 -0.18062,0.03387 -0.31609,0.1016c-0.13547,0.06021 -0.22201,0.10536 -0.25964,0.13547z" data-paper-data="{&quot;origPos&quot;:null}" id="path3588"/><path d="M212.11586,159.08602c0,-0.11289 0.29727,-0.16933 0.89182,-0.16933c0.2032,0 0.4365,0.01505 0.69991,0.04516c0.27093,0.02258 0.4064,0.05644 0.4064,0.1016v5.94924h0.39511c0.18815,0 0.31233,0.16933 0.37253,0.508c0.01505,0.09784 0.02258,0.2333 0.02258,0.4064c0,0.16557 -0.05268,0.36877 -0.15804,0.6096c-0.15052,0.33114 -0.39135,0.49671 -0.72249,0.49671c-0.24836,0 -0.47037,-0.04892 -0.66604,-0.14676c-0.18815,-0.09784 -0.31609,-0.19944 -0.38382,-0.3048l-0.1016,-0.14676c-0.41393,0.39887 -0.93321,0.59831 -1.55787,0.59831c-0.62465,0 -1.15899,-0.25964 -1.60302,-0.77893c-0.44403,-0.51929 -0.66604,-1.24178 -0.66604,-2.16747c0,-0.93321 0.2333,-1.65194 0.69991,-2.15618c0.46661,-0.51176 1.04987,-0.76764 1.74978,-0.76764c0.2032,0 0.41016,0.02258 0.62089,0.06773zM211.74332,162.9694c-0.42145,0 -0.63218,0.38006 -0.63218,1.14018c0,0.38382 0.06021,0.66228 0.18062,0.83538c0.12041,0.16557 0.25212,0.24836 0.39511,0.24836c0.15052,0 0.29351,-0.06397 0.42898,-0.19191v-1.91911c-0.12794,-0.07526 -0.25212,-0.11289 -0.37253,-0.11289z" data-paper-data="{&quot;origPos&quot;:null}" id="path3590"/><path d="M215.86888,164.88851c0.6096,0.36877 1.09126,0.55316 1.44498,0.55316c0.22578,0 0.33867,-0.07902 0.33867,-0.23707c0,-0.11289 -0.19567,-0.25964 -0.58702,-0.44027c-0.94074,-0.38382 -1.41111,-1.01224 -1.41111,-1.88524c0,-0.55692 0.2032,-0.98213 0.6096,-1.27564c0.4064,-0.29351 0.89182,-0.44027 1.45627,-0.44027c0.57197,0 1.05363,0.06021 1.44498,0.18062c0.39887,0.12041 0.59831,0.27846 0.59831,0.47413c0,0.16557 -0.08279,0.38382 -0.24836,0.65476c-0.15804,0.27093 -0.26717,0.41769 -0.32738,0.44027c-0.32361,-0.18062 -0.67357,-0.27093 -1.04987,-0.27093c-0.2032,0 -0.3048,0.0715 -0.3048,0.21449c0,0.09031 0.03763,0.16933 0.11289,0.23707c0.08279,0.06021 0.22954,0.13923 0.44027,0.23707c0.21073,0.09031 0.38382,0.1731 0.51929,0.24836c0.14299,0.07526 0.30104,0.18062 0.47413,0.31609c0.36124,0.28599 0.54187,0.65852 0.54187,1.1176c0,0.60207 -0.19944,1.09126 -0.59831,1.46756c-0.39887,0.36877 -1.00095,0.55316 -1.80622,0.55316c-0.53434,0 -1.01976,-0.09031 -1.45627,-0.27093c-0.4365,-0.18062 -0.65476,-0.42898 -0.65476,-0.74507c0,-0.21073 0.04892,-0.43274 0.14676,-0.66604c0.10536,-0.2333 0.21073,-0.38759 0.31609,-0.46284z" data-paper-data="{&quot;origPos&quot;:null}" id="path3592"/><path d="M225.41611,166.85278c0,0.09031 -0.31609,0.13547 -0.94827,0.13547c-0.75259,-0.0301 -1.12889,-0.07902 -1.12889,-0.14676v-3.99627h-0.57573c-0.15052,0 -0.22578,-0.25964 -0.22578,-0.77893c0,-0.13547 0.01129,-0.30104 0.03387,-0.49671c0.0301,-0.19567 0.08655,-0.29351 0.16933,-0.29351h0.59831v-0.99342c0,-0.15052 0.31609,-0.22578 0.94827,-0.22578c0.6397,0 0.95956,0.06021 0.95956,0.18062v0.72249l0.01129,0.31609h0.95956c0.12794,0 0.19191,0.26341 0.19191,0.79022c0,0.52681 -0.06397,0.79022 -0.19191,0.79022h-0.80151z" data-paper-data="{&quot;origPos&quot;:null}" id="path3594"/><path d="M228.85005,166.84149c0,0.06773 -0.31609,0.1016 -0.94827,0.1016c-0.62465,0 -0.93698,-0.05268 -0.93698,-0.15804v-7.73289c0,-0.05268 0.11665,-0.09031 0.34996,-0.11289c0.2333,-0.02258 0.42898,-0.03387 0.58702,-0.03387c0.63218,0 0.94827,0.06773 0.94827,0.2032v2.25778c0.42145,-0.12794 0.7413,-0.19191 0.95956,-0.19191c0.57197,0 1.02353,0.15428 1.35467,0.46284c0.33114,0.30104 0.49671,0.86548 0.49671,1.69333v3.49956c0,0.06773 -0.29351,0.1016 -0.88053,0.1016c-0.66228,-0.02258 -0.99342,-0.06021 -0.99342,-0.11289v-3.31893c0,-0.36877 -0.12041,-0.55316 -0.36124,-0.55316c-0.16557,0 -0.35748,0.07902 -0.57573,0.23707z" data-paper-data="{&quot;origPos&quot;:null}" id="path3596"/><path d="M236.89849,166.61571c-0.47413,0.27846 -1.08373,0.41769 -1.8288,0.41769c-0.74507,0 -1.37348,-0.25212 -1.88524,-0.75636c-0.51176,-0.51176 -0.76764,-1.21544 -0.76764,-2.11102c0,-0.90311 0.24459,-1.62936 0.73378,-2.17876c0.49671,-0.54939 1.12136,-0.82409 1.87396,-0.82409c0.75259,0 1.33209,0.19191 1.73849,0.57573c0.41393,0.38382 0.62089,0.85043 0.62089,1.39982c0,1.2192 -0.69991,1.8288 -2.09973,1.8288h-0.77893c0,0.22578 0.06021,0.38382 0.18062,0.47413c0.12794,0.08279 0.31233,0.12418 0.55316,0.12418c0.52681,0 1.02729,-0.12041 1.50142,-0.36124c0.00753,-0.00753 0.04139,0.04516 0.1016,0.15804c0.18062,0.32361 0.27093,0.59831 0.27093,0.82409c0,0.21825 -0.0715,0.36124 -0.21449,0.42898zM235.48738,163.35322c0,-0.31609 -0.15428,-0.47413 -0.46284,-0.47413c-0.14299,0 -0.26717,0.04516 -0.37253,0.13547c-0.09784,0.08279 -0.14676,0.20696 -0.14676,0.37253v0.34996h0.6096c0.24836,0 0.37253,-0.12794 0.37253,-0.38382z" data-paper-data="{&quot;origPos&quot;:null}" id="path3598"/><path d="M240.29451,159.05215c0,-0.09031 0.32361,-0.13547 0.97084,-0.13547c0.65476,0 0.98213,0.04892 0.98213,0.14676v2.19004c0.32361,-0.06021 0.55316,-0.09031 0.68862,-0.09031c1.58044,0 2.37067,0.90687 2.37067,2.72062c0,1.00847 -0.24459,1.78741 -0.73378,2.3368c-0.48166,0.54187 -1.17028,0.8128 -2.06587,0.8128c-0.88806,0 -1.6256,-0.19944 -2.21262,-0.59831zM242.62002,162.92424c-0.12794,0 -0.25212,0.04139 -0.37253,0.12418v2.15618c0.10536,0.04516 0.21449,0.06773 0.32738,0.06773c0.12041,0 0.24083,-0.04516 0.36124,-0.13547c0.21073,-0.15052 0.31609,-0.50047 0.31609,-1.04987c0,-0.77517 -0.21073,-1.16276 -0.63218,-1.16276z" data-paper-data="{&quot;origPos&quot;:null}" id="path3600"/><path d="M246.04655,161.3438c0,-0.08279 0.32361,-0.12418 0.97084,-0.12418c0.64723,0 0.97084,0.04139 0.97084,0.12418v3.29636c0,0.3763 0.12041,0.56444 0.36124,0.56444c0.18062,0 0.38382,-0.07902 0.6096,-0.23707v-3.62373c0,-0.07526 0.31985,-0.11289 0.95956,-0.11289c0.6397,0 0.95956,0.03763 0.95956,0.11289v3.70276h0.29351c0.25588,0 0.38382,0.24459 0.38382,0.73378c0,0.24836 -0.05268,0.50047 -0.15804,0.75636c-0.15052,0.33114 -0.35372,0.49671 -0.6096,0.49671c-0.50424,0 -0.87677,-0.20696 -1.1176,-0.62089l-0.01129,0.01129c-0.45908,0.4064 -0.95203,0.6096 -1.47884,0.6096c-0.73001,0 -1.26812,-0.18062 -1.61431,-0.54187c-0.34619,-0.36877 -0.51929,-0.97461 -0.51929,-1.81751z" data-paper-data="{&quot;origPos&quot;:null}" id="path3602"/><path d="M254.30914,166.8302c0,0.06773 -0.38382,0.1016 -1.15147,0.1016c-0.60207,-0.00753 -0.90311,-0.03763 -0.90311,-0.09031v-7.68773c0,-0.11289 0.36501,-0.16933 1.09502,-0.16933c0.6397,0.02258 0.95956,0.06021 0.95956,0.11289z" data-paper-data="{&quot;origPos&quot;:null}" id="path3604"/><path d="M257.37389,166.8302c0,0.06773 -0.38382,0.1016 -1.15147,0.1016c-0.60207,-0.00753 -0.90311,-0.03763 -0.90311,-0.09031v-7.68773c0,-0.11289 0.36501,-0.16933 1.09502,-0.16933c0.6397,0.02258 0.95956,0.06021 0.95956,0.11289z" data-paper-data="{&quot;origPos&quot;:null}" id="path3606"/><path d="M262.65127,166.61571c-0.47413,0.27846 -1.08373,0.41769 -1.8288,0.41769c-0.74507,0 -1.37348,-0.25212 -1.88524,-0.75636c-0.51176,-0.51176 -0.76764,-1.21544 -0.76764,-2.11102c0,-0.90311 0.24459,-1.62936 0.73378,-2.17876c0.49671,-0.54939 1.12136,-0.82409 1.87396,-0.82409c0.75259,0 1.33209,0.19191 1.73849,0.57573c0.41393,0.38382 0.62089,0.85043 0.62089,1.39982c0,1.2192 -0.69991,1.8288 -2.09973,1.8288h-0.77893c0,0.22578 0.06021,0.38382 0.18062,0.47413c0.12794,0.08279 0.31233,0.12418 0.55316,0.12418c0.52681,0 1.02729,-0.12041 1.50142,-0.36124c0.00753,-0.00753 0.04139,0.04516 0.1016,0.15804c0.18062,0.32361 0.27093,0.59831 0.27093,0.82409c0,0.21825 -0.0715,0.36124 -0.21449,0.42898zM261.24016,163.35322c0,-0.31609 -0.15428,-0.47413 -0.46284,-0.47413c-0.14299,0 -0.26717,0.04516 -0.37253,0.13547c-0.09784,0.08279 -0.14676,0.20696 -0.14676,0.37253v0.34996h0.6096c0.24836,0 0.37253,-0.12794 0.37253,-0.38382z" data-paper-data="{&quot;origPos&quot;:null}" id="path3608"/><path d="M266.47062,166.85278c0,0.09031 -0.31609,0.13547 -0.94827,0.13547c-0.75259,-0.0301 -1.12889,-0.07902 -1.12889,-0.14676v-3.99627h-0.57573c-0.15052,0 -0.22578,-0.25964 -0.22578,-0.77893c0,-0.13547 0.01129,-0.30104 0.03387,-0.49671c0.0301,-0.19567 0.08655,-0.29351 0.16933,-0.29351h0.59831v-0.99342c0,-0.15052 0.31609,-0.22578 0.94827,-0.22578c0.6397,0 0.95956,0.06021 0.95956,0.18062v0.72249l0.01129,0.31609h0.95956c0.12794,0 0.19191,0.26341 0.19191,0.79022c0,0.52681 -0.06397,0.79022 -0.19191,0.79022h-0.80151z" data-paper-data="{&quot;origPos&quot;:null}" id="path3610"/><path d="M132.58704,173.16327c0,-0.09031 0.32361,-0.13547 0.97084,-0.13547c0.65476,0 0.98213,0.04892 0.98213,0.14676v2.19004c0.32361,-0.06021 0.55316,-0.09031 0.68862,-0.09031c1.58044,0 2.37067,0.90687 2.37067,2.72062c0,1.00847 -0.24459,1.78741 -0.73378,2.3368c-0.48166,0.54187 -1.17028,0.8128 -2.06587,0.8128c-0.88806,0 -1.6256,-0.19944 -2.21262,-0.59831zM134.91256,177.03535c-0.12794,0 -0.25212,0.04139 -0.37253,0.12418v2.15618c0.10536,0.04516 0.21449,0.06773 0.32738,0.06773c0.12041,0 0.24083,-0.04516 0.36124,-0.13547c0.21073,-0.15052 0.31609,-0.50047 0.31609,-1.04987c0,-0.77517 -0.21073,-1.16276 -0.63218,-1.16276z" data-paper-data="{&quot;origPos&quot;:null}" id="path3612"/><path d="M139.10673,176.93375c-0.21073,-0.3763 -0.31609,-0.6811 -0.31609,-0.9144c0,-0.24083 0.06397,-0.39511 0.19191,-0.46284c0.42898,-0.18815 1.016,-0.28222 1.76107,-0.28222c0.75259,0 1.28317,0.17686 1.59173,0.53058c0.30856,0.34619 0.46284,0.86172 0.46284,1.54658v1.78364h0.38382c0.12794,0 0.22578,0.07526 0.29351,0.22578c0.07526,0.15052 0.11289,0.35748 0.11289,0.62089c0,0.26341 -0.06773,0.52305 -0.2032,0.77893c-0.12794,0.25588 -0.3048,0.38382 -0.53058,0.38382c-0.4064,0 -0.73378,-0.10913 -0.98213,-0.32738c-0.11289,-0.09031 -0.19944,-0.19944 -0.25964,-0.32738c-0.34619,0.4365 -0.8843,0.65476 -1.61431,0.65476c-0.54939,0 -1.01224,-0.19567 -1.38853,-0.58702c-0.3763,-0.39135 -0.56444,-0.85419 -0.56444,-1.38853c0,-1.22673 0.73378,-1.84009 2.20133,-1.84009h0.62089v-0.11289c0,-0.19567 -0.03387,-0.31985 -0.1016,-0.37253c-0.06021,-0.06021 -0.20696,-0.09031 -0.44027,-0.09031c-0.28599,0 -0.69239,0.06021 -1.2192,0.18062zM140.00984,179.01091c0,0.16557 0.04516,0.29351 0.13547,0.38382c0.09031,0.08279 0.2032,0.12418 0.33867,0.12418c0.14299,0 0.27093,-0.05644 0.38382,-0.16933v-0.86924h-0.31609c-0.36124,0 -0.54187,0.17686 -0.54187,0.53058z" data-paper-data="{&quot;origPos&quot;:null}" id="path3614"/><path d="M146.71068,181.02033c0,0.05268 -0.34243,0.07902 -1.02729,0.07902c-0.68486,-0.01505 -1.02729,-0.04516 -1.02729,-0.09031v-3.74791h-0.3048c-0.12041,0 -0.21825,-0.0715 -0.29351,-0.21449c-0.06773,-0.15052 -0.1016,-0.3349 -0.1016,-0.55316c0,-0.8128 0.24083,-1.2192 0.72249,-1.2192c0.33867,0 0.62089,0.10536 0.84667,0.31609c0.22578,0.2032 0.33867,0.4365 0.33867,0.69991c0.15804,-0.30856 0.36877,-0.55316 0.63218,-0.73378c0.27093,-0.18815 0.54563,-0.28222 0.82409,-0.28222c0.4365,0 0.69991,0.11289 0.79022,0.33867c0.02258,0.06021 0.03387,0.15052 0.03387,0.27093c0,0.11289 -0.03763,0.31985 -0.11289,0.62089c-0.06773,0.30104 -0.13923,0.51929 -0.21449,0.65476c-0.07526,0.13547 -0.12041,0.2032 -0.13547,0.2032c-0.01505,0 -0.08655,-0.02634 -0.21449,-0.07902c-0.12041,-0.06021 -0.22954,-0.09031 -0.32738,-0.09031c-0.28599,0 -0.42898,0.22578 -0.42898,0.67733z" data-paper-data="{&quot;origPos&quot;:null}" id="path3616"/><path d="M151.18655,181.02033c0,0.05268 -0.34243,0.07902 -1.02729,0.07902c-0.68486,-0.01505 -1.02729,-0.04516 -1.02729,-0.09031v-3.74791h-0.3048c-0.12041,0 -0.21825,-0.0715 -0.29351,-0.21449c-0.06773,-0.15052 -0.1016,-0.3349 -0.1016,-0.55316c0,-0.8128 0.24083,-1.2192 0.72249,-1.2192c0.33867,0 0.62089,0.10536 0.84667,0.31609c0.22578,0.2032 0.33867,0.4365 0.33867,0.69991c0.15804,-0.30856 0.36877,-0.55316 0.63218,-0.73378c0.27093,-0.18815 0.54563,-0.28222 0.82409,-0.28222c0.4365,0 0.69991,0.11289 0.79022,0.33867c0.02258,0.06021 0.03387,0.15052 0.03387,0.27093c0,0.11289 -0.03763,0.31985 -0.11289,0.62089c-0.06773,0.30104 -0.13923,0.51929 -0.21449,0.65476c-0.07526,0.13547 -0.12041,0.2032 -0.13547,0.2032c-0.01505,0 -0.08655,-0.02634 -0.21449,-0.07902c-0.12041,-0.06021 -0.22954,-0.09031 -0.32738,-0.09031c-0.28599,0 -0.42898,0.22578 -0.42898,0.67733z" data-paper-data="{&quot;origPos&quot;:null}" id="path3618"/><path d="M153.90135,176.93375c-0.21073,-0.3763 -0.31609,-0.6811 -0.31609,-0.9144c0,-0.24083 0.06397,-0.39511 0.19191,-0.46284c0.42898,-0.18815 1.016,-0.28222 1.76107,-0.28222c0.75259,0 1.28317,0.17686 1.59173,0.53058c0.30856,0.34619 0.46284,0.86172 0.46284,1.54658v1.78364h0.38382c0.12794,0 0.22578,0.07526 0.29351,0.22578c0.07526,0.15052 0.11289,0.35748 0.11289,0.62089c0,0.26341 -0.06773,0.52305 -0.2032,0.77893c-0.12794,0.25588 -0.3048,0.38382 -0.53058,0.38382c-0.4064,0 -0.73378,-0.10913 -0.98213,-0.32738c-0.11289,-0.09031 -0.19944,-0.19944 -0.25964,-0.32738c-0.34619,0.4365 -0.8843,0.65476 -1.61431,0.65476c-0.54939,0 -1.01224,-0.19567 -1.38853,-0.58702c-0.3763,-0.39135 -0.56444,-0.85419 -0.56444,-1.38853c0,-1.22673 0.73378,-1.84009 2.20133,-1.84009h0.62089v-0.11289c0,-0.19567 -0.03387,-0.31985 -0.1016,-0.37253c-0.06021,-0.06021 -0.20696,-0.09031 -0.44027,-0.09031c-0.28599,0 -0.69239,0.06021 -1.2192,0.18062zM154.80446,179.01091c0,0.16557 0.04516,0.29351 0.13547,0.38382c0.09031,0.08279 0.2032,0.12418 0.33867,0.12418c0.14299,0 0.27093,-0.05644 0.38382,-0.16933v-0.86924h-0.31609c-0.36124,0 -0.54187,0.17686 -0.54187,0.53058z" data-paper-data="{&quot;origPos&quot;:null}" id="path3620"/><path d="M161.11019,181.03162c-0.73001,0 -1.29446,-0.2333 -1.69333,-0.69991c-0.39887,-0.47413 -0.59831,-1.17028 -0.59831,-2.08844c0,-0.92569 0.25964,-1.64818 0.77893,-2.16747c0.52681,-0.52681 1.22296,-0.79022 2.08844,-0.79022c0.87301,0 1.59173,0.19191 2.15618,0.57573v5.62187c0,0.55692 -0.22578,0.98213 -0.67733,1.27564c-0.45156,0.30104 -1.03105,0.45156 -1.73849,0.45156c-0.70744,0 -1.33961,-0.09031 -1.89653,-0.27093c-0.07526,-0.18062 -0.11289,-0.34243 -0.11289,-0.48542c0,-0.48166 0.07902,-0.83538 0.23707,-1.06116c0.50424,0.21825 1.04234,0.32738 1.61431,0.32738c0.41393,0 0.62089,-0.14676 0.62089,-0.44027v-0.33867c-0.32361,0.06021 -0.58326,0.09031 -0.77893,0.09031zM161.62947,177.12567c-0.50424,0 -0.75636,0.38006 -0.75636,1.14018c0,0.47413 0.09784,0.7827 0.29351,0.92569c0.12794,0.09784 0.25588,0.14676 0.38382,0.14676c0.12794,0 0.24083,-0.01129 0.33867,-0.03387v-2.14489c-0.09031,-0.02258 -0.17686,-0.03387 -0.25964,-0.03387z" data-paper-data="{&quot;origPos&quot;:null}" id="path3622"/><path d="M169.12106,180.72682c-0.47413,0.27846 -1.08373,0.41769 -1.8288,0.41769c-0.74507,0 -1.37348,-0.25212 -1.88524,-0.75636c-0.51176,-0.51176 -0.76764,-1.21544 -0.76764,-2.11102c0,-0.90311 0.24459,-1.62936 0.73378,-2.17876c0.49671,-0.54939 1.12136,-0.82409 1.87396,-0.82409c0.75259,0 1.33209,0.19191 1.73849,0.57573c0.41393,0.38382 0.62089,0.85043 0.62089,1.39982c0,1.2192 -0.69991,1.8288 -2.09973,1.8288h-0.77893c0,0.22578 0.06021,0.38382 0.18062,0.47413c0.12794,0.08279 0.31233,0.12418 0.55316,0.12418c0.52681,0 1.02729,-0.12041 1.50142,-0.36124c0.00753,-0.00753 0.04139,0.04516 0.1016,0.15804c0.18062,0.32361 0.27093,0.59831 0.27093,0.82409c0,0.21825 -0.0715,0.36124 -0.21449,0.42898zM167.70995,177.46433c0,-0.31609 -0.15428,-0.47413 -0.46284,-0.47413c-0.14299,0 -0.26717,0.04516 -0.37253,0.13547c-0.09784,0.08279 -0.14676,0.20696 -0.14676,0.37253v0.34996h0.6096c0.24836,0 0.37253,-0.12794 0.37253,-0.38382z" data-paper-data="{&quot;origPos&quot;:null}" id="path3624"/><path d="M172.20664,178.66095c0,0.04516 -0.27093,0.06773 -0.8128,0.06773c-0.53434,0 -0.80151,-0.01881 -0.80151,-0.05644l-0.22578,-5.56542c0,-0.06021 0.34243,-0.09031 1.02729,-0.09031c0.69239,0 1.03858,0.02634 1.03858,0.07902zM170.34397,179.33829c0,-0.05268 0.34619,-0.07902 1.03858,-0.07902c0.69991,0 1.04987,0.02258 1.04987,0.06773v1.6256c0,0.07526 -0.34996,0.11289 -1.04987,0.11289c-0.69239,0 -1.03858,-0.02258 -1.03858,-0.06773z" data-paper-data="{&quot;origPos&quot;:null}" id="path3626"/><g><path d="M138.77336,96.1166c0,0.15804 -0.35372,0.23707 -1.06116,0.23707c-0.70744,0 -1.09126,-0.05644 -1.15147,-0.16933l-1.88524,-3.52213v3.51084c0,0.13547 -0.34996,0.2032 -1.04987,0.2032c-0.69239,0 -1.03858,-0.06773 -1.03858,-0.2032v-7.55227c0,-0.11289 0.29727,-0.16933 0.89182,-0.16933c0.2333,0 0.50424,0.02258 0.8128,0.06773c0.31609,0.03763 0.508,0.11289 0.57573,0.22578l1.80622,3.47698v-3.54471c0,-0.14299 0.34996,-0.21449 1.04987,-0.21449c0.69991,0 1.04987,0.0715 1.04987,0.21449z" data-paper-data="{&quot;origPos&quot;:null}" id="path3406"/><path d="M140.65225,94.42327v-4.01884h-0.80151c-0.12794,0 -0.21825,-0.16181 -0.27093,-0.48542c-0.02258,-0.15804 -0.03387,-0.31985 -0.03387,-0.48542c0,-0.16557 0.01129,-0.32738 0.03387,-0.48542c0.05268,-0.32361 0.14299,-0.48542 0.27093,-0.48542h3.79307c0.12794,0 0.21449,0.16181 0.25964,0.48542c0.0301,0.15804 0.04516,0.31985 0.04516,0.48542c0,0.16557 -0.01505,0.32738 -0.04516,0.48542c-0.04516,0.32361 -0.1317,0.48542 -0.25964,0.48542h-0.75636v4.01884h0.79022c0.12794,0 0.21825,0.16181 0.27093,0.48542c0.0301,0.15804 0.04516,0.31985 0.04516,0.48542c0,0.16557 -0.01505,0.32738 -0.04516,0.48542c-0.05268,0.32361 -0.14299,0.48542 -0.27093,0.48542h-3.80436c-0.12794,0 -0.21449,-0.16181 -0.25964,-0.48542c-0.0301,-0.15804 -0.04516,-0.31985 -0.04516,-0.48542c0,-0.16557 0.01505,-0.32738 0.04516,-0.48542c0.04516,-0.32361 0.1317,-0.48542 0.25964,-0.48542z" data-paper-data="{&quot;origPos&quot;:null}" id="path3408"/><path d="M148.15583,96.18433c0,0.15052 -0.37253,0.22578 -1.1176,0.22578c-0.74507,0 -1.1176,-0.07526 -1.1176,-0.22578v-5.66702h-1.35467c-0.12794,0 -0.21825,-0.1731 -0.27093,-0.51929c-0.02258,-0.16557 -0.03387,-0.3349 -0.03387,-0.508c0,-0.1731 0.01129,-0.34243 0.03387,-0.508c0.05268,-0.34619 0.14299,-0.51929 0.27093,-0.51929h4.91067c0.12794,0 0.21825,0.1731 0.27093,0.51929c0.02258,0.16557 0.03387,0.3349 0.03387,0.508c0,0.1731 -0.01129,0.34243 -0.03387,0.508c-0.05268,0.34619 -0.14299,0.51929 -0.27093,0.51929h-1.3208z" data-paper-data="{&quot;origPos&quot;:null}" id="path3410"/><path d="M155.44352,96.38753c-0.65476,0 -1.00847,-0.10536 -1.06116,-0.31609l-0.37253,-1.45627h-1.79493l-0.32738,1.39982c-0.04516,0.2333 -0.4064,0.34996 -1.08373,0.34996c-0.36124,0 -0.62841,-0.01881 -0.80151,-0.05644c-0.1731,-0.04516 -0.25964,-0.07902 -0.25964,-0.1016l1.99813,-7.64258c0,-0.06021 0.51553,-0.09031 1.54658,-0.09031c1.03105,0 1.54658,0.0301 1.54658,0.09031l1.95298,7.65387c0,0.05268 -0.1731,0.09407 -0.51929,0.12418c-0.34619,0.0301 -0.62089,0.04516 -0.82409,0.04516zM152.49712,93.18149h1.18533l-0.508,-2.3368h-0.06773z" data-paper-data="{&quot;origPos&quot;:null}" id="path3412"/></g><g><path d="M162.86931,88.36113c0.54939,0 1.03105,0.07902 1.44498,0.23707c0.42145,0.15052 0.63218,0.35748 0.63218,0.62089c0,0.26341 -0.1016,0.59079 -0.3048,0.98213c-0.19567,0.38382 -0.36124,0.57573 -0.49671,0.57573c-0.03763,0 -0.08279,-0.01881 -0.13547,-0.05644c-0.04516,-0.04516 -0.15804,-0.09031 -0.33867,-0.13547c-0.1731,-0.05268 -0.32361,-0.07902 -0.45156,-0.07902c-0.4365,0 -0.79022,0.15428 -1.06116,0.46284c-0.26341,0.30856 -0.39511,0.7827 -0.39511,1.4224c0,0.63218 0.13547,1.10255 0.4064,1.41111c0.27846,0.30856 0.62841,0.46284 1.04987,0.46284c0.1731,0 0.36501,-0.02258 0.57573,-0.06773c0.21825,-0.05268 0.37253,-0.12418 0.46284,-0.21449c0.01505,-0.01505 0.04516,-0.02258 0.09031,-0.02258c0.04516,0 0.12794,0.08655 0.24836,0.25964c0.12794,0.16557 0.24459,0.38759 0.34996,0.66604c0.10536,0.27093 0.15804,0.48166 0.15804,0.63218c0,0.29351 -0.22578,0.52681 -0.67733,0.69991c-0.45156,0.1731 -0.9859,0.25964 -1.60302,0.25964c-0.99342,0 -1.80999,-0.34996 -2.44969,-1.04987c-0.6397,-0.69991 -0.95956,-1.68581 -0.95956,-2.95769c0,-1.27941 0.32738,-2.28412 0.98213,-3.01413c0.66228,-0.73001 1.48637,-1.09502 2.47227,-1.09502z" data-paper-data="{&quot;origPos&quot;:null}" id="path3414"/><path d="M169.32144,96.47784c-1.05363,0 -1.91535,-0.34619 -2.58516,-1.03858c-0.66228,-0.69239 -0.99342,-1.70086 -0.99342,-3.02542c0,-1.33209 0.3349,-2.34056 1.00471,-3.02542c0.67733,-0.68486 1.54658,-1.02729 2.60773,-1.02729c1.06868,0 1.9304,0.33867 2.58516,1.016c0.65476,0.66981 0.98213,1.68957 0.98213,3.05929c0,1.36219 -0.3349,2.37819 -1.00471,3.048c-0.66981,0.66228 -1.53529,0.99342 -2.59644,0.99342zM169.33273,90.5286c-0.36124,0 -0.66604,0.16557 -0.9144,0.49671c-0.24083,0.33114 -0.36124,0.79775 -0.36124,1.39982c0,0.59455 0.11665,1.05363 0.34996,1.37724c0.2333,0.31609 0.5381,0.47413 0.9144,0.47413c0.38382,0 0.69239,-0.16181 0.92569,-0.48542c0.24083,-0.32361 0.36124,-0.78646 0.36124,-1.38853c0,-0.60207 -0.12418,-1.06492 -0.37253,-1.38853c-0.24083,-0.32361 -0.54187,-0.48542 -0.90311,-0.48542z" data-paper-data="{&quot;origPos&quot;:null}" id="path3416"/><path d="M173.70506,95.69891v-7.02169c0,-0.15804 0.38006,-0.23707 1.14018,-0.23707c0.76764,0 1.15147,0.07902 1.15147,0.23707v5.53156h1.73849c0.13547,0 0.22954,0.17686 0.28222,0.53058c0.02258,0.1731 0.03387,0.34996 0.03387,0.53058c0,0.18062 -0.01129,0.36501 -0.03387,0.55316c-0.06021,0.36124 -0.15804,0.54187 -0.29351,0.54187h-3.47698c-0.16557,0 -0.29727,-0.06773 -0.39511,-0.2032c-0.09784,-0.13547 -0.14676,-0.28975 -0.14676,-0.46284z" data-paper-data="{&quot;origPos&quot;:null}" id="path3418"/><path d="M181.73587,96.18433c0,0.15052 -0.37253,0.22578 -1.1176,0.22578c-0.74507,0 -1.1176,-0.07526 -1.1176,-0.22578v-5.66702h-1.35467c-0.12794,0 -0.21825,-0.1731 -0.27093,-0.51929c-0.02258,-0.16557 -0.03387,-0.3349 -0.03387,-0.508c0,-0.1731 0.01129,-0.34243 0.03387,-0.508c0.05268,-0.34619 0.14299,-0.51929 0.27093,-0.51929h4.91067c0.12794,0 0.21825,0.1731 0.27093,0.51929c0.02258,0.16557 0.03387,0.3349 0.03387,0.508c0,0.1731 -0.01129,0.34243 -0.03387,0.508c-0.05268,0.34619 -0.14299,0.51929 -0.27093,0.51929h-1.3208z" data-paper-data="{&quot;origPos&quot;:null}" id="path3420"/></g><g><path d="M189.78996,91.60104c0.14299,0 0.21449,0.26341 0.21449,0.79022c0,0.15804 -0.01881,0.34619 -0.05644,0.56444c-0.0301,0.21073 -0.09031,0.31609 -0.18062,0.31609h-1.43369v1.12889h2.07716c0.12794,0 0.21449,0.16557 0.25964,0.49671c0.02258,0.14299 0.03387,0.29727 0.03387,0.46284c0,0.15804 -0.02258,0.36501 -0.06773,0.62089c-0.04516,0.25588 -0.12041,0.38382 -0.22578,0.38382h-3.8608c-0.28599,0 -0.42898,-0.11665 -0.42898,-0.34996v-7.25876c0,-0.19567 0.08655,-0.29351 0.25964,-0.29351h4.04142c0.15804,0 0.23707,0.3349 0.23707,1.00471c0,0.66228 -0.07902,0.99342 -0.23707,0.99342h-2.08844v1.14018z" data-paper-data="{&quot;origPos&quot;:null}" id="path3422"/><path d="M199.57954,96.37624c-0.66981,0 -1.00471,-0.07526 -1.00471,-0.22578l-0.23707,-4.52684l-1.37724,4.58329c-0.0301,0.09031 -0.28599,0.13547 -0.76764,0.13547c-0.48166,0 -0.73001,-0.04139 -0.74507,-0.12418l-1.4224,-4.63973l-0.15804,4.50427c-0.00753,0.11289 -0.15052,0.19191 -0.42898,0.23707c-0.27846,0.03763 -0.51176,0.05644 -0.69991,0.05644c-0.18062,0 -0.35748,-0.01129 -0.53058,-0.03387c-0.36124,-0.05268 -0.5381,-0.14676 -0.53058,-0.28222l0.25964,-7.33778c0,-0.18062 0.45908,-0.27093 1.37724,-0.27093c0.27093,0 0.60207,0.02258 0.99342,0.06773c0.39135,0.03763 0.6096,0.11665 0.65476,0.23707l1.26436,3.556l1.10631,-3.56729c0.06773,-0.19567 0.58702,-0.29351 1.55787,-0.29351c0.27846,0 0.6096,0.02258 0.99342,0.06773c0.39135,0.03763 0.58702,0.10913 0.58702,0.21449l0.32738,7.40551c0,0.08279 -0.14676,0.14299 -0.44027,0.18062c-0.29351,0.03763 -0.55316,0.05644 -0.77893,0.05644z" data-paper-data="{&quot;origPos&quot;:null}" id="path3424"/><path d="M202.20139,90.51731c-0.12794,0 -0.21825,-0.1731 -0.27093,-0.51929c-0.02258,-0.14299 -0.03387,-0.30104 -0.03387,-0.47413c0,-0.1731 0.01881,-0.35372 0.05644,-0.54187c0.06773,-0.34619 0.18062,-0.51929 0.33867,-0.51929h4.17689c0.45908,0 0.75636,0.41769 0.89182,1.25307c0.0301,0.18062 0.04516,0.31233 0.04516,0.39511l-2.6416,4.00756h2.06587c0.00753,0 0.01505,0 0.02258,0c0.16557,0 0.28222,0.18062 0.34996,0.54187c0.0301,0.1731 0.04516,0.35372 0.04516,0.54187c0,0.18815 -0.02258,0.38759 -0.06773,0.59831c-0.08279,0.3763 -0.21073,0.56444 -0.38382,0.56444h-4.39138c-0.06773,0 -0.19191,-0.22578 -0.37253,-0.67733c-0.1731,-0.45908 -0.25964,-0.74507 -0.25964,-0.85796c0,-0.11289 0.01129,-0.18439 0.03387,-0.21449l2.6416,-4.09787z" data-paper-data="{&quot;origPos&quot;:null}" id="path3426"/></g></g></g></svg>