<svg version="1.1" xmlns="http://www.w3.org/2000/svg" xmlns:xlink="http://www.w3.org/1999/xlink" width="553.18551" height="352.8185" viewBox="0,0,553.18551,352.8185"><g transform="translate(54.09249,-16.54389)"><g data-paper-data="{&quot;isPaintingLayer&quot;:true}" fill="#66ff85" fill-rule="nonzero" stroke="#3c964e" stroke-width="2" stroke-linecap="butt" stroke-linejoin="miter" stroke-miterlimit="10" stroke-dasharray="" stroke-dashoffset="0" style="mix-blend-mode: normal"><path d="M490.00182,367.58645l-503.16863,0.77438l1.10944,-110.18551c0,0 330.59673,-0.01763 331.72155,-0.05264c55.40594,-1.72439 99.46283,-45.61182 99.46283,-101.46508c0,-12.42551 -9.18542,-67.0534 -50.34134,-87.63415c-16.7723,-8.38729 -56.20896,-14.89542 -90.51605,-3.05382c-53.92662,18.61358 -110.55014,65.48682 -164.00353,91.16685c-24.25066,11.65048 -82.43261,32.22808 -116.66083,33.62578c-37.58966,1.53495 -50.23321,-16.72538 -50.23321,-16.72538c0,0 265.09282,-139.72148 335.78008,-152.75454c69.93567,-12.89448 215.02187,11.43972 214.94086,14.75909c-0.62177,25.47763 -8.09118,331.54502 -8.09118,331.54502z" data-paper-data="{&quot;index&quot;:null}"/></g></g></svg>