<svg version="1.1" xmlns="http://www.w3.org/2000/svg" xmlns:xlink="http://www.w3.org/1999/xlink" width="48.91444" height="47.90454" viewBox="0,0,48.91444,47.90454"><defs><linearGradient x1="222.35987" y1="153.83492" x2="222.35987" y2="157.96609" gradientUnits="userSpaceOnUse" id="color-1"><stop offset="0" stop-color="#ffbd00"/><stop offset="1" stop-color="#ffb700"/></linearGradient><linearGradient x1="256.13422" y1="154.72618" x2="256.13422" y2="158.85735" gradientUnits="userSpaceOnUse" id="color-2"><stop offset="0" stop-color="#ffbd00"/><stop offset="1" stop-color="#ffb700"/></linearGradient><linearGradient x1="239.92964" y1="131.06405" x2="239.92964" y2="162.47485" gradientUnits="userSpaceOnUse" id="color-3"><stop offset="0" stop-color="#ffee00"/><stop offset="1" stop-color="#ffad00"/></linearGradient></defs><g transform="translate(-215.24719,-123.287)"><g data-paper-data="{&quot;isPaintingLayer&quot;:true}" fill-rule="nonzero" stroke-linecap="butt" stroke-linejoin="miter" stroke-miterlimit="10" stroke-dasharray="" stroke-dashoffset="0" style="mix-blend-mode: normal"><path d="M246.95392,136.28344c-3.11605,0 -5.64209,-2.75356 -5.64209,-6.15024c0,-3.39668 2.52605,-6.15024 5.64209,-6.15024c3.11605,0 5.6421,2.75356 5.6421,6.15024c0,3.39668 -2.52605,6.15024 -5.6421,6.15024z" data-paper-data="{&quot;index&quot;:null}" fill="#73412e" stroke="none" stroke-width="0"/><path d="M232.16765,135.58749c-3.11605,0 -5.64209,-2.75356 -5.64209,-6.15024c0,-3.39668 2.52605,-6.15025 5.64209,-6.15025c3.11605,0 5.6421,2.75356 5.6421,6.15025c0,3.39668 -2.52605,6.15024 -5.6421,6.15024z" data-paper-data="{&quot;index&quot;:null}" fill="#73412e" stroke="none" stroke-width="0"/><g stroke="#73412e" stroke-width="7.5"><g><path d="M218.99719,153.84303c2.22208,-0.02673 4.44567,0.01335 6.66578,0.11045c0.06773,0.00112 0.13449,0.00613 0.20005,0.01483c0.31259,0.03398 0.51951,0.114 0.67381,0.23989c0.50066,0.30848 0.83044,0.86558 0.81999,1.49622c-0.01539,0.92901 -0.76345,1.67406 -1.6845,1.69371c-0.02205,0.00047 -0.0442,0.00052 -0.06645,0.00015v0c-2.51023,0.02653 -5.77798,1.46424 -7.52342,-0.34002c-1.1345,-1.17273 -0.99838,-3.19222 0.91472,-3.21523z" data-paper-data="{&quot;index&quot;:null}" fill="url(#color-1)"/><path d="M259.49691,154.73427c1.9131,0.02301 2.04922,2.0425 0.91472,3.21524c-1.74545,1.80427 -5.01319,0.36655 -7.52342,0.34002v0c-0.02224,0.00037 -0.04439,0.00032 -0.06645,-0.00015c-0.92105,-0.01965 -1.66911,-0.76469 -1.6845,-1.69371c-0.01045,-0.63063 0.31934,-1.18773 0.81999,-1.49621c0.1543,-0.12589 0.36122,-0.20591 0.67381,-0.23989c0.06556,-0.0087 0.13233,-0.01371 0.20005,-0.01483c2.22011,-0.09709 4.44371,-0.13718 6.66578,-0.11045z" data-paper-data="{&quot;index&quot;:null}" fill="url(#color-2)"/></g><path d="M235.29927,165.71889c-0.0547,1.91245 -2.07617,2.0151 -3.22995,0.86132c-1.7751,-1.7751 -0.28344,-5.01857 -0.21533,-7.52802v0c0,-0.02224 0.00042,-0.04439 0.00125,-0.06643c0.03491,-0.9206 0.79224,-1.65621 1.72139,-1.65621c0.63072,0 1.18228,0.33897 1.48242,0.84467c0.12332,0.15637 0.1999,0.36458 0.2287,0.67769c0.00761,0.0657 0.01151,0.13253 0.01151,0.20027c0.0603,2.22141 0.06354,4.44538 0,6.6667z" fill="#ffae00"/><path d="M246.52678,156.59883c0.03869,0.06877 0.07474,0.15693 0.10831,0.26225c0.03963,0.10685 0.06897,0.21869 0.08681,0.33433c0.41144,1.9123 0.35022,6.84936 0.21922,8.52349c-0.07098,0.90715 -0.51508,1.72264 -1.72264,1.72264c-2.46028,0 -1.97409,-8.69199 -1.92165,-9.98138c0,-0.03201 0.00088,-0.06383 0.0026,-0.09541c0.04952,-0.90701 0.80067,-1.62723 1.72004,-1.62723c0.5606,0 1.05865,0.26778 1.37323,0.68241c0.05134,0.05304 0.09654,0.11216 0.13408,0.17891z" fill="#ffae00"/><path d="M229.01591,132.41238c13.20413,-4.35464 33.21589,2.09412 31.0664,15.65777c-2.14948,13.56365 -22.68861,18.97259 -35.12975,9.98276c-9.13637,-6.60184 -5.31058,-18.52406 2.27452,-24.46621z" fill="url(#color-3)"/></g><g fill="#9e5a3f" stroke="none" stroke-width="0.5"><path d="M218.9972,153.84304c2.22208,-0.02673 4.44567,0.01335 6.66578,0.11045c0.06773,0.00112 0.13449,0.00613 0.20005,0.01483c0.31259,0.03398 0.51951,0.114 0.67381,0.23989c0.50066,0.30848 0.83044,0.86558 0.81999,1.49622c-0.01539,0.92901 -0.76345,1.67406 -1.6845,1.69371c-0.02205,0.00047 -0.0442,0.00052 -0.06645,0.00015v0c-2.51023,0.02653 -5.77798,1.46424 -7.52342,-0.34002c-1.1345,-1.17273 -0.99838,-3.19222 0.91472,-3.21523z" data-paper-data="{&quot;index&quot;:null}"/><path d="M259.49692,154.73429c1.9131,0.02301 2.04922,2.0425 0.91472,3.21524c-1.74545,1.80427 -5.01319,0.36655 -7.52342,0.34002v0c-0.02224,0.00037 -0.04439,0.00032 -0.06645,-0.00015c-0.92105,-0.01965 -1.66911,-0.76469 -1.6845,-1.69371c-0.01045,-0.63063 0.31934,-1.18773 0.81999,-1.49621c0.1543,-0.12589 0.36122,-0.20591 0.67381,-0.23989c0.06556,-0.0087 0.13233,-0.01371 0.20005,-0.01483c2.22011,-0.09709 4.44371,-0.13718 6.66578,-0.11045z" data-paper-data="{&quot;index&quot;:null}"/></g><path d="M235.29927,165.7189c-0.0547,1.91245 -2.07617,2.0151 -3.22995,0.86132c-1.7751,-1.7751 -0.28344,-5.01857 -0.21533,-7.52802v0c0,-0.02224 0.00042,-0.04439 0.00125,-0.06643c0.03491,-0.9206 0.79224,-1.65621 1.72139,-1.65621c0.63072,0 1.18228,0.33897 1.48242,0.84467c0.12332,0.15637 0.1999,0.36458 0.2287,0.67769c0.00761,0.0657 0.01151,0.13253 0.01151,0.20027c0.0603,2.22141 0.06354,4.44538 0,6.6667z" fill="#9e5a3f" stroke="none" stroke-width="0.5"/><path d="M246.52678,156.59884c0.03869,0.06877 0.07474,0.15693 0.10831,0.26225c0.03963,0.10685 0.06897,0.21869 0.08681,0.33433c0.41144,1.9123 0.35022,6.84936 0.21922,8.52349c-0.07098,0.90715 -0.51508,1.72264 -1.72264,1.72264c-2.46028,0 -1.97409,-8.69199 -1.92165,-9.98138c0,-0.03201 0.00088,-0.06383 0.0026,-0.09541c0.04952,-0.90701 0.80067,-1.62723 1.72004,-1.62723c0.5606,0 1.05865,0.26778 1.37323,0.68241c0.05134,0.05304 0.09654,0.11216 0.13408,0.17891z" fill="#9e5a3f" stroke="none" stroke-width="0.5"/><path d="M227.22709,134.27406c0.35449,-0.48935 0.85233,-0.73403 0.85233,-0.73403l0.51909,-0.24406c0.06908,-0.03934 0.19232,-0.10403 0.35351,-0.16621l0.06389,-0.03004c13.20413,-4.35464 33.21589,2.09412 31.0664,15.65777c-2.14948,13.56365 -22.68861,18.97259 -35.12975,9.98276c-9.13637,-6.60184 -5.31058,-18.52406 2.27452,-24.46621z" fill="#9e5a3f" stroke="none" stroke-width="0.5"/><path d="M237.033,141.4783c0,-0.66597 0.53988,-1.20585 1.20585,-1.20585c0.66597,0 1.20585,0.53988 1.20585,1.20585c0,0.66597 -0.53988,1.20585 -1.20585,1.20585c-0.66597,0 -1.20585,-0.53988 -1.20585,-1.20585z" fill="#000000" stroke="none" stroke-width="0.5"/><path d="M241.09521,139.23708c0,-0.66597 0.53988,-1.20585 1.20585,-1.20585c0.66597,0 1.20585,0.53988 1.20585,1.20585c0,0.66597 -0.53988,1.20585 -1.20585,1.20585c-0.66597,0 -1.20585,-0.53988 -1.20585,-1.20585z" fill="#000000" stroke="none" stroke-width="0.5"/><path d="M236.08279,130.59571c0,2.56232 -1.76945,4.6395 -3.95216,4.6395c-2.18272,0 -3.95216,-2.07717 -3.95216,-4.6395c0,-2.56232 1.76944,-4.63949 3.95216,-4.63949c2.18272,0 3.95216,2.07717 3.95216,4.63949z" fill="#cb927c" stroke="none" stroke-width="0"/><path d="M251.21273,130.60433c0,2.56232 -1.84637,4.63949 -4.12399,4.63949c-2.27762,0 -4.12399,-2.07717 -4.12399,-4.63949c0,-2.56232 1.84638,-4.6395 4.12399,-4.6395c2.27762,0 4.12399,2.07717 4.12399,4.6395z" fill="#cb927c" stroke="none" stroke-width="0"/><path d="M247.1276,136.34757c1.06146,0.01095 1.05052,1.07241 1.05052,1.07241l-0.01115,0.90907c-0.12399,1.70169 -0.37551,4.48273 -1.51818,5.90404c-2.49222,3.09996 -8.94272,2.12141 -11.95855,0.38906c0,0 -0.9174,-0.53404 -0.38336,-1.45144c0.53404,-0.9174 1.45144,-0.38336 1.45144,-0.38336c1.90808,1.1291 3.97952,1.14186 6.16391,1.11349c1.16632,-0.01515 2.25492,0.15677 3.03974,-0.95689c0.83362,-1.18289 1.00203,-3.41538 1.08693,-4.75968l0.00631,-0.78619c0,0 0.01095,-1.06146 1.07241,-1.05052z" fill="#000000" stroke="none" stroke-width="0.5"/></g></g></svg>