<svg version="1.1" xmlns="http://www.w3.org/2000/svg" xmlns:xlink="http://www.w3.org/1999/xlink" width="274.537" height="5.317"><g transform="translate(-93.25833,-132.91583)"><g data-paper-data="{&quot;isPaintingLayer&quot;:true}" fill="#000000" fill-rule="nonzero" stroke="none" stroke-width="1" stroke-linecap="butt" stroke-linejoin="miter" stroke-miterlimit="10" stroke-dasharray="" stroke-dashoffset="0" font-family="none" font-weight="none" font-size="none" text-anchor="none" style="mix-blend-mode: normal"><path d="M96.48504,136.96688c0,0.08243 -0.1845,0.12365 -0.55349,0.12365c-0.36899,0 -0.56919,-0.02944 -0.60059,-0.08832l-0.98332,-1.8371v1.83122c0,0.07066 -0.18253,0.10599 -0.5476,0.10599c-0.36114,0 -0.54171,-0.03533 -0.54171,-0.10599v-3.93917c0,-0.05888 0.15505,-0.08832 0.46516,-0.08832c0.12169,0 0.263,0.01178 0.42395,0.03533c0.16487,0.01963 0.26497,0.05888 0.3003,0.11776l0.9421,1.81355v-1.84888c0,-0.07458 0.18253,-0.11187 0.5476,-0.11187c0.36507,0 0.5476,0.03729 0.5476,0.11187z" data-paper-data="{&quot;origPos&quot;:null}" id="path3647"/><path d="M98.12453,137.0611c0,0.0314 -0.18057,0.04711 -0.54171,0.04711c-0.35721,0 -0.53582,-0.01374 -0.53582,-0.04122v-2.89108c0,-0.02748 0.17861,-0.04122 0.53582,-0.04122c0.36114,0 0.54171,0.01178 0.54171,0.03533zM98.12453,133.82261c0,0.02748 -0.18057,0.04122 -0.54171,0.04122c-0.35721,0 -0.53582,-0.01178 -0.53582,-0.03533v-0.84789c0,-0.03925 0.17861,-0.05888 0.53582,-0.05888c0.36114,0 0.54171,0.01178 0.54171,0.03533z" data-paper-data="{&quot;origPos&quot;:null}" id="path3649"/><path d="M100.01131,137.0611c0,0.04711 -0.16487,0.07066 -0.4946,0.07066c-0.39254,-0.0157 -0.58882,-0.04122 -0.58882,-0.07655v-2.08441h-0.3003c-0.07851,0 -0.11776,-0.13543 -0.11776,-0.40628c0,-0.07066 0.00589,-0.15702 0.01766,-0.25908c0.0157,-0.10206 0.04514,-0.15309 0.08832,-0.15309h0.31207v-0.51816c0,-0.07851 0.16487,-0.11776 0.4946,-0.11776c0.33366,0 0.50049,0.0314 0.50049,0.09421v0.37684l0.00589,0.16487h0.50049c0.06673,0 0.1001,0.13739 0.1001,0.41217c0,0.27478 -0.03337,0.41217 -0.1001,0.41217h-0.41806z" data-paper-data="{&quot;origPos&quot;:null}" id="path3651"/><path d="M101.19005,134.95902c-0.10991,-0.19627 -0.16487,-0.35525 -0.16487,-0.47694c0,-0.12561 0.03337,-0.20609 0.1001,-0.24141c0.22375,-0.09814 0.52993,-0.1472 0.91855,-0.1472c0.39254,0 0.66929,0.09225 0.83023,0.27674c0.16094,0.18057 0.24141,0.44946 0.24141,0.80668v0.93033h0.2002c0.06673,0 0.11776,0.03925 0.15309,0.11776c0.03925,0.07851 0.05888,0.18646 0.05888,0.32385c0,0.13739 -0.03533,0.27282 -0.10599,0.40628c-0.06673,0.13346 -0.15898,0.2002 -0.27674,0.2002c-0.21197,0 -0.38273,-0.05692 -0.51227,-0.17076c-0.05888,-0.04711 -0.10402,-0.10402 -0.13543,-0.17076c-0.18057,0.22768 -0.46124,0.34151 -0.84201,0.34151c-0.28656,0 -0.52797,-0.10206 -0.72424,-0.30618c-0.19627,-0.20412 -0.29441,-0.44554 -0.29441,-0.72424c0,-0.63985 0.38273,-0.95977 1.14819,-0.95977h0.32385v-0.05888c0,-0.10206 -0.01766,-0.16683 -0.05299,-0.19431c-0.0314,-0.0314 -0.10795,-0.04711 -0.22964,-0.04711c-0.14917,0 -0.36114,0.0314 -0.63592,0.09421zM101.6611,136.04244c0,0.08636 0.02355,0.15309 0.07066,0.2002c0.04711,0.04318 0.10599,0.06477 0.17664,0.06477c0.07458,0 0.14132,-0.02944 0.2002,-0.08832v-0.45339h-0.16487c-0.18842,0 -0.28263,0.09225 -0.28263,0.27674z" data-paper-data="{&quot;origPos&quot;:null}" id="path3653"/><path d="M105.09435,136.03656c0.31796,0.19235 0.56919,0.28852 0.75368,0.28852c0.11776,0 0.17664,-0.04122 0.17664,-0.12365c0,-0.05888 -0.10206,-0.13543 -0.30618,-0.22964c-0.49068,-0.2002 -0.73602,-0.52797 -0.73602,-0.98332c0,-0.29048 0.10599,-0.51227 0.31796,-0.66536c0.21197,-0.15309 0.46516,-0.22964 0.75957,-0.22964c0.29833,0 0.54956,0.0314 0.75368,0.09421c0.20805,0.06281 0.31207,0.14524 0.31207,0.2473c0,0.08636 -0.04318,0.2002 -0.12954,0.34151c-0.08243,0.14132 -0.13935,0.21786 -0.17076,0.22964c-0.16879,-0.09421 -0.35133,-0.14132 -0.5476,-0.14132c-0.10599,0 -0.15898,0.03729 -0.15898,0.11187c0,0.04711 0.01963,0.08832 0.05888,0.12365c0.04318,0.0314 0.11973,0.07262 0.22964,0.12365c0.10991,0.04711 0.2002,0.09029 0.27086,0.12954c0.07458,0.03925 0.15702,0.09421 0.2473,0.16487c0.18842,0.14917 0.28263,0.34348 0.28263,0.58293c0,0.31403 -0.10402,0.56919 -0.31207,0.76546c-0.20805,0.19235 -0.52208,0.28852 -0.9421,0.28852c-0.27871,0 -0.5319,-0.04711 -0.75957,-0.14132c-0.22768,-0.09421 -0.34151,-0.22375 -0.34151,-0.38862c0,-0.10991 0.02552,-0.22571 0.07655,-0.3474c0.05496,-0.12169 0.10991,-0.20216 0.16487,-0.24141z" data-paper-data="{&quot;origPos&quot;:null}" id="path3655"/><path d="M108.97005,137.0611c0,0.04711 -0.16487,0.07066 -0.4946,0.07066c-0.39254,-0.0157 -0.58882,-0.04122 -0.58882,-0.07655v-2.08441h-0.3003c-0.07851,0 -0.11776,-0.13543 -0.11776,-0.40628c0,-0.07066 0.00589,-0.15702 0.01766,-0.25908c0.0157,-0.10206 0.04514,-0.15309 0.08832,-0.15309h0.31207v-0.51816c0,-0.07851 0.16487,-0.11776 0.4946,-0.11776c0.33366,0 0.50049,0.0314 0.50049,0.09421v0.37684l0.00589,0.16487h0.50049c0.06673,0 0.1001,0.13739 0.1001,0.41217c0,0.27478 -0.03337,0.41217 -0.1001,0.41217h-0.41806z" data-paper-data="{&quot;origPos&quot;:null}" id="path3657"/><path d="M111.06733,137.09054c0,0.02748 -0.17861,0.04122 -0.53582,0.04122c-0.35721,-0.00785 -0.53582,-0.02355 -0.53582,-0.04711v-1.95487h-0.15898c-0.06281,0 -0.11384,-0.03729 -0.15309,-0.11187c-0.03533,-0.07851 -0.05299,-0.17468 -0.05299,-0.28852c0,-0.42395 0.12561,-0.63592 0.37684,-0.63592c0.17664,0 0.32385,0.05496 0.44161,0.16487c0.11776,0.10599 0.17664,0.22768 0.17664,0.36507c0.08243,-0.16094 0.19235,-0.28852 0.32974,-0.38273c0.14132,-0.09814 0.28459,-0.1472 0.42984,-0.1472c0.22768,0 0.36507,0.05888 0.41217,0.17664c0.01178,0.0314 0.01766,0.07851 0.01766,0.14132c0,0.05888 -0.01963,0.16683 -0.05888,0.32385c-0.03533,0.15702 -0.07262,0.27086 -0.11187,0.34151c-0.03925,0.07066 -0.06281,0.10599 -0.07066,0.10599c-0.00785,0 -0.04514,-0.01374 -0.11187,-0.04122c-0.06281,-0.0314 -0.11973,-0.04711 -0.17076,-0.04711c-0.14917,0 -0.22375,0.11776 -0.22375,0.35329z" data-paper-data="{&quot;origPos&quot;:null}" id="path3659"/><path d="M113.18992,137.0611c0,0.0314 -0.18057,0.04711 -0.54171,0.04711c-0.35721,0 -0.53582,-0.01374 -0.53582,-0.04122v-2.89108c0,-0.02748 0.17861,-0.04122 0.53582,-0.04122c0.36114,0 0.54171,0.01178 0.54171,0.03533zM113.18992,133.82261c0,0.02748 -0.18057,0.04122 -0.54171,0.04122c-0.35721,0 -0.53582,-0.01178 -0.53582,-0.03533v-0.84789c0,-0.03925 0.17861,-0.05888 0.53582,-0.05888c0.36114,0 0.54171,0.01178 0.54171,0.03533z" data-paper-data="{&quot;origPos&quot;:null}" id="path3661"/><path d="M113.72243,133.02182c0,-0.06281 0.17861,-0.09421 0.53582,-0.09421c0.33366,0.01178 0.50049,0.03729 0.50049,0.07655v2.26105l0.58293,-1.07753c0.02748,-0.05888 0.19431,-0.08832 0.50049,-0.08832c0.30618,0 0.50246,0.01963 0.58882,0.05888l-0.76546,1.24829l0.88322,1.65457c0.00785,0.0157 -0.06673,0.02748 -0.22375,0.03533c-0.15309,0.01178 -0.28067,0.01766 -0.38273,0.01766c-0.37684,0 -0.579,-0.01766 -0.60648,-0.05299l-0.58293,-1.30717v1.30128c0,0.05103 -0.17272,0.07655 -0.51816,0.07655c-0.34151,0 -0.51227,-0.02355 -0.51227,-0.07066z" data-paper-data="{&quot;origPos&quot;:null}" id="path3663"/><path d="M118.92673,136.93744c-0.2473,0.14524 -0.56526,0.21786 -0.95388,0.21786c-0.38862,0 -0.71639,-0.1315 -0.98332,-0.39451c-0.26693,-0.26693 -0.40039,-0.63396 -0.40039,-1.10108c0,-0.47105 0.12758,-0.84986 0.38273,-1.13641c0.25908,-0.28656 0.58489,-0.42984 0.97743,-0.42984c0.39254,0 0.6948,0.1001 0.90678,0.3003c0.2159,0.2002 0.32385,0.44357 0.32385,0.73013c0,0.63592 -0.36507,0.95388 -1.0952,0.95388h-0.40628c0,0.11776 0.0314,0.2002 0.09421,0.2473c0.06673,0.04318 0.16291,0.06477 0.28852,0.06477c0.27478,0 0.53582,-0.06281 0.78312,-0.18842c0.00393,-0.00393 0.02159,0.02355 0.05299,0.08243c0.09421,0.16879 0.14132,0.31207 0.14132,0.42984c0,0.11384 -0.03729,0.18842 -0.11187,0.22375zM118.19071,135.23577c0,-0.16487 -0.08047,-0.2473 -0.24141,-0.2473c-0.07458,0 -0.13935,0.02355 -0.19431,0.07066c-0.05103,0.04318 -0.07655,0.10795 -0.07655,0.19431v0.18253h0.31796c0.12954,0 0.19431,-0.06673 0.19431,-0.2002z" data-paper-data="{&quot;origPos&quot;:null}" id="path3665"/><path d="M119.68823,136.03656c0.31796,0.19235 0.56919,0.28852 0.75368,0.28852c0.11776,0 0.17664,-0.04122 0.17664,-0.12365c0,-0.05888 -0.10206,-0.13543 -0.30618,-0.22964c-0.49068,-0.2002 -0.73602,-0.52797 -0.73602,-0.98332c0,-0.29048 0.10599,-0.51227 0.31796,-0.66536c0.21197,-0.15309 0.46516,-0.22964 0.75957,-0.22964c0.29833,0 0.54956,0.0314 0.75368,0.09421c0.20805,0.06281 0.31207,0.14524 0.31207,0.2473c0,0.08636 -0.04318,0.2002 -0.12954,0.34151c-0.08243,0.14132 -0.13935,0.21786 -0.17076,0.22964c-0.16879,-0.09421 -0.35133,-0.14132 -0.5476,-0.14132c-0.10599,0 -0.15898,0.03729 -0.15898,0.11187c0,0.04711 0.01963,0.08832 0.05888,0.12365c0.04318,0.0314 0.11973,0.07262 0.22964,0.12365c0.10991,0.04711 0.2002,0.09029 0.27086,0.12954c0.07458,0.03925 0.15702,0.09421 0.2473,0.16487c0.18842,0.14917 0.28263,0.34348 0.28263,0.58293c0,0.31403 -0.10402,0.56919 -0.31207,0.76546c-0.20805,0.19235 -0.52208,0.28852 -0.9421,0.28852c-0.27871,0 -0.5319,-0.04711 -0.75957,-0.14132c-0.22768,-0.09421 -0.34151,-0.22375 -0.34151,-0.38862c0,-0.10991 0.02552,-0.22571 0.07655,-0.3474c0.05496,-0.12169 0.10991,-0.20216 0.16487,-0.24141z" data-paper-data="{&quot;origPos&quot;:null}" id="path3667"/><path d="M124.297,137.05521c0,0.03533 -0.16487,0.05299 -0.4946,0.05299c-0.32581,0 -0.48872,-0.02748 -0.48872,-0.08243v-4.03339c0,-0.02748 0.06084,-0.04711 0.18253,-0.05888c0.12169,-0.01178 0.22375,-0.01766 0.30618,-0.01766c0.32974,0 0.4946,0.03533 0.4946,0.10599v1.17763c0.21982,-0.06673 0.38666,-0.1001 0.50049,-0.1001c0.29833,0 0.53386,0.08047 0.70658,0.24141c0.17272,0.15702 0.25908,0.45143 0.25908,0.88322v1.82533c0,0.03533 -0.15309,0.05299 -0.45928,0.05299c-0.34544,-0.01178 -0.51816,-0.0314 -0.51816,-0.05888v-1.73112c0,-0.19235 -0.06281,-0.28852 -0.18842,-0.28852c-0.08636,0 -0.18646,0.04122 -0.3003,0.12365z" data-paper-data="{&quot;origPos&quot;:null}" id="path3669"/><path d="M128.49498,136.93744c-0.2473,0.14524 -0.56526,0.21786 -0.95388,0.21786c-0.38862,0 -0.71639,-0.1315 -0.98332,-0.39451c-0.26693,-0.26693 -0.40039,-0.63396 -0.40039,-1.10108c0,-0.47105 0.12758,-0.84986 0.38273,-1.13641c0.25908,-0.28656 0.58489,-0.42984 0.97743,-0.42984c0.39254,0 0.6948,0.1001 0.90678,0.3003c0.2159,0.2002 0.32385,0.44357 0.32385,0.73013c0,0.63592 -0.36507,0.95388 -1.0952,0.95388h-0.40628c0,0.11776 0.0314,0.2002 0.09421,0.2473c0.06673,0.04318 0.16291,0.06477 0.28852,0.06477c0.27478,0 0.53582,-0.06281 0.78312,-0.18842c0.00393,-0.00393 0.02159,0.02355 0.05299,0.08243c0.09421,0.16879 0.14132,0.31207 0.14132,0.42984c0,0.11384 -0.03729,0.18842 -0.11187,0.22375zM127.75896,135.23577c0,-0.16487 -0.08047,-0.2473 -0.24141,-0.2473c-0.07458,0 -0.13935,0.02355 -0.19431,0.07066c-0.05103,0.04318 -0.07655,0.10795 -0.07655,0.19431v0.18253h0.31796c0.12954,0 0.19431,-0.06673 0.19431,-0.2002z" data-paper-data="{&quot;origPos&quot;:null}" id="path3671"/><path d="M130.42234,137.09054c0,0.02748 -0.17861,0.04122 -0.53582,0.04122c-0.35721,-0.00785 -0.53582,-0.02355 -0.53582,-0.04711v-1.95487h-0.15898c-0.06281,0 -0.11384,-0.03729 -0.15309,-0.11187c-0.03533,-0.07851 -0.05299,-0.17468 -0.05299,-0.28852c0,-0.42395 0.12561,-0.63592 0.37684,-0.63592c0.17664,0 0.32385,0.05496 0.44161,0.16487c0.11776,0.10599 0.17664,0.22768 0.17664,0.36507c0.08243,-0.16094 0.19235,-0.28852 0.32974,-0.38273c0.14132,-0.09814 0.28459,-0.1472 0.42984,-0.1472c0.22768,0 0.36507,0.05888 0.41217,0.17664c0.01178,0.0314 0.01766,0.07851 0.01766,0.14132c0,0.05888 -0.01963,0.16683 -0.05888,0.32385c-0.03533,0.15702 -0.07262,0.27086 -0.11187,0.34151c-0.03925,0.07066 -0.06281,0.10599 -0.07066,0.10599c-0.00785,0 -0.04514,-0.01374 -0.11187,-0.04122c-0.06281,-0.0314 -0.11973,-0.04711 -0.17076,-0.04711c-0.14917,0 -0.22375,0.11776 -0.22375,0.35329z" data-paper-data="{&quot;origPos&quot;:null}" id="path3673"/><path d="M134.79714,136.93744c-0.2473,0.14524 -0.56526,0.21786 -0.95388,0.21786c-0.38862,0 -0.71639,-0.1315 -0.98332,-0.39451c-0.26693,-0.26693 -0.40039,-0.63396 -0.40039,-1.10108c0,-0.47105 0.12758,-0.84986 0.38273,-1.13641c0.25908,-0.28656 0.58489,-0.42984 0.97743,-0.42984c0.39254,0 0.6948,0.1001 0.90678,0.3003c0.2159,0.2002 0.32385,0.44357 0.32385,0.73013c0,0.63592 -0.36507,0.95388 -1.0952,0.95388h-0.40628c0,0.11776 0.0314,0.2002 0.09421,0.2473c0.06673,0.04318 0.16291,0.06477 0.28852,0.06477c0.27478,0 0.53582,-0.06281 0.78312,-0.18842c0.00393,-0.00393 0.02159,0.02355 0.05299,0.08243c0.09421,0.16879 0.14132,0.31207 0.14132,0.42984c0,0.11384 -0.03729,0.18842 -0.11187,0.22375zM134.06112,135.23577c0,-0.16487 -0.08047,-0.2473 -0.24141,-0.2473c-0.07458,0 -0.13935,0.02355 -0.19431,0.07066c-0.05103,0.04318 -0.07655,0.10795 -0.07655,0.19431v0.18253h0.31796c0.12954,0 0.19431,-0.06673 0.19431,-0.2002z" data-paper-data="{&quot;origPos&quot;:null}" id="path3675"/><path d="M136.66562,137.0611c0,0.02748 -0.14132,0.04122 -0.42395,0.04122c-0.39254,-0.01178 -0.58882,-0.03337 -0.58882,-0.06477v-1.90776h-0.15309c-0.10206,0 -0.16879,-0.08636 -0.2002,-0.25908c-0.00785,-0.05103 -0.01178,-0.10206 -0.01178,-0.15309c0,-0.12169 0.02355,-0.24338 0.07066,-0.36507c0.07066,-0.17272 0.18057,-0.25908 0.32974,-0.25908c0.14917,0 0.28263,0.03533 0.40039,0.10599c0.11776,0.07066 0.19627,0.14132 0.23553,0.21197c0.2473,-0.21197 0.54171,-0.31796 0.88322,-0.31796c0.34151,0 0.58882,0.09225 0.74191,0.27674c0.15309,0.1845 0.22964,0.48675 0.22964,0.90678v1.76645c0,0.04711 -0.16879,0.07066 -0.50638,0.07066c-0.33366,0 -0.50049,-0.02355 -0.50049,-0.07066v-1.70168c0,-0.19627 -0.0687,-0.29441 -0.20609,-0.29441c-0.03925,0 -0.09421,0.01766 -0.16487,0.05299c-0.07066,0.0314 -0.1158,0.05496 -0.13543,0.07066z" data-paper-data="{&quot;origPos&quot;:null}" id="path3677"/><path d="M140.9038,136.93744c-0.2473,0.14524 -0.56526,0.21786 -0.95388,0.21786c-0.38862,0 -0.71639,-0.1315 -0.98332,-0.39451c-0.26693,-0.26693 -0.40039,-0.63396 -0.40039,-1.10108c0,-0.47105 0.12758,-0.84986 0.38273,-1.13641c0.25908,-0.28656 0.58489,-0.42984 0.97743,-0.42984c0.39254,0 0.6948,0.1001 0.90678,0.3003c0.2159,0.2002 0.32385,0.44357 0.32385,0.73013c0,0.63592 -0.36507,0.95388 -1.0952,0.95388h-0.40628c0,0.11776 0.0314,0.2002 0.09421,0.2473c0.06673,0.04318 0.16291,0.06477 0.28852,0.06477c0.27478,0 0.53582,-0.06281 0.78312,-0.18842c0.00393,-0.00393 0.02159,0.02355 0.05299,0.08243c0.09421,0.16879 0.14132,0.31207 0.14132,0.42984c0,0.11384 -0.03729,0.18842 -0.11187,0.22375zM140.16778,135.23577c0,-0.16487 -0.08047,-0.2473 -0.24141,-0.2473c-0.07458,0 -0.13935,0.02355 -0.19431,0.07066c-0.05103,0.04318 -0.07655,0.10795 -0.07655,0.19431v0.18253h0.31796c0.12954,0 0.19431,-0.06673 0.19431,-0.2002z" data-paper-data="{&quot;origPos&quot;:null}" id="path3679"/><path d="M144.20899,137.06698c0,0.02748 -0.16879,0.04122 -0.50638,0.04122c-0.33366,0 -0.50049,-0.01766 -0.50049,-0.05299v-1.71345c0,-0.19627 -0.06477,-0.29441 -0.19431,-0.29441c-0.06673,0 -0.15505,0.04318 -0.26497,0.12954v1.88421c0,0.03925 -0.16879,0.05888 -0.50638,0.05888c-0.33366,0 -0.50049,-0.02159 -0.50049,-0.06477v-1.92543h-0.1472c-0.12954,0 -0.19431,-0.13543 -0.19431,-0.40628c0,-0.12169 0.02355,-0.24534 0.07066,-0.37095c0.06281,-0.17272 0.16487,-0.25908 0.30618,-0.25908c0.14132,0 0.27674,0.03729 0.40628,0.11187c0.13346,0.07458 0.21394,0.14524 0.24141,0.21197c0.24338,-0.2159 0.51227,-0.32385 0.80668,-0.32385c0.29833,0 0.53778,0.09225 0.71835,0.27674c0.21197,-0.1845 0.46713,-0.27674 0.76546,-0.27674c0.6477,0 0.97155,0.39451 0.97155,1.18352v1.79c0,0.02748 -0.16879,0.04122 -0.50638,0.04122c-0.33366,0 -0.50049,-0.01766 -0.50049,-0.05299v-1.71345c0,-0.19627 -0.06477,-0.29441 -0.19431,-0.29441c-0.07066,0 -0.16094,0.04318 -0.27086,0.12954z" data-paper-data="{&quot;origPos&quot;:null}" id="path3681"/><path d="M147.25381,137.0611c0,0.0314 -0.18057,0.04711 -0.54171,0.04711c-0.35721,0 -0.53582,-0.01374 -0.53582,-0.04122v-2.89108c0,-0.02748 0.17861,-0.04122 0.53582,-0.04122c0.36114,0 0.54171,0.01178 0.54171,0.03533zM147.25381,133.82261c0,0.02748 -0.18057,0.04122 -0.54171,0.04122c-0.35721,0 -0.53582,-0.01178 -0.53582,-0.03533v-0.84789c0,-0.03925 0.17861,-0.05888 0.53582,-0.05888c0.36114,0 0.54171,0.01178 0.54171,0.03533z" data-paper-data="{&quot;origPos&quot;:null}" id="path3683"/><path d="M150.01204,136.93744c-0.2473,0.14524 -0.56526,0.21786 -0.95388,0.21786c-0.38862,0 -0.71639,-0.1315 -0.98332,-0.39451c-0.26693,-0.26693 -0.40039,-0.63396 -0.40039,-1.10108c0,-0.47105 0.12758,-0.84986 0.38273,-1.13641c0.25908,-0.28656 0.58489,-0.42984 0.97743,-0.42984c0.39254,0 0.6948,0.1001 0.90678,0.3003c0.2159,0.2002 0.32385,0.44357 0.32385,0.73013c0,0.63592 -0.36507,0.95388 -1.0952,0.95388h-0.40628c0,0.11776 0.0314,0.2002 0.09421,0.2473c0.06673,0.04318 0.16291,0.06477 0.28852,0.06477c0.27478,0 0.53582,-0.06281 0.78312,-0.18842c0.00393,-0.00393 0.02159,0.02355 0.05299,0.08243c0.09421,0.16879 0.14132,0.31207 0.14132,0.42984c0,0.11384 -0.03729,0.18842 -0.11187,0.22375zM149.27602,135.23577c0,-0.16487 -0.08047,-0.2473 -0.24141,-0.2473c-0.07458,0 -0.13935,0.02355 -0.19431,0.07066c-0.05103,0.04318 -0.07655,0.10795 -0.07655,0.19431v0.18253h0.31796c0.12954,0 0.19431,-0.06673 0.19431,-0.2002z" data-paper-data="{&quot;origPos&quot;:null}" id="path3685"/><path d="M150.77354,136.03656c0.31796,0.19235 0.56919,0.28852 0.75368,0.28852c0.11776,0 0.17664,-0.04122 0.17664,-0.12365c0,-0.05888 -0.10206,-0.13543 -0.30618,-0.22964c-0.49068,-0.2002 -0.73602,-0.52797 -0.73602,-0.98332c0,-0.29048 0.10599,-0.51227 0.31796,-0.66536c0.21197,-0.15309 0.46516,-0.22964 0.75957,-0.22964c0.29833,0 0.54956,0.0314 0.75368,0.09421c0.20805,0.06281 0.31207,0.14524 0.31207,0.2473c0,0.08636 -0.04318,0.2002 -0.12954,0.34151c-0.08243,0.14132 -0.13935,0.21786 -0.17076,0.22964c-0.16879,-0.09421 -0.35133,-0.14132 -0.5476,-0.14132c-0.10599,0 -0.15898,0.03729 -0.15898,0.11187c0,0.04711 0.01963,0.08832 0.05888,0.12365c0.04318,0.0314 0.11973,0.07262 0.22964,0.12365c0.10991,0.04711 0.2002,0.09029 0.27086,0.12954c0.07458,0.03925 0.15702,0.09421 0.2473,0.16487c0.18842,0.14917 0.28263,0.34348 0.28263,0.58293c0,0.31403 -0.10402,0.56919 -0.31207,0.76546c-0.20805,0.19235 -0.52208,0.28852 -0.9421,0.28852c-0.27871,0 -0.5319,-0.04711 -0.75957,-0.14132c-0.22768,-0.09421 -0.34151,-0.22375 -0.34151,-0.38862c0,-0.10991 0.02552,-0.22571 0.07655,-0.3474c0.05496,-0.12169 0.10991,-0.20216 0.16487,-0.24141z" data-paper-data="{&quot;origPos&quot;:null}" id="path3687"/><path d="M157.45494,134.18179c0,-0.03533 0.10795,-0.05299 0.32385,-0.05299c0.48675,0 0.72621,0.0157 0.71835,0.04711l-0.57704,2.86164c-0.01178,0.06281 -0.22964,0.09421 -0.65359,0.09421c-0.42395,0 -0.64181,-0.0314 -0.65359,-0.09421l-0.24141,-1.31895l-0.3003,1.31895c-0.01178,0.05888 -0.23749,0.08832 -0.67714,0.08832c-0.43572,0 -0.65947,-0.03533 -0.67125,-0.10599l-0.52405,-2.86753c-0.01178,-0.02355 0.15702,-0.03533 0.50638,-0.03533c0.34544,0.00393 0.51816,0.01178 0.51816,0.02355l0.27086,1.9902l0.48872,-1.96664c0.00785,-0.02355 0.13739,-0.03533 0.38862,-0.03533c0.25123,0 0.38077,0.01178 0.38862,0.03533l0.48283,1.94309z" data-paper-data="{&quot;origPos&quot;:null}" id="path3689"/><path d="M159.90414,137.0611c0,0.0314 -0.18057,0.04711 -0.54171,0.04711c-0.35721,0 -0.53582,-0.01374 -0.53582,-0.04122v-2.89108c0,-0.02748 0.17861,-0.04122 0.53582,-0.04122c0.36114,0 0.54171,0.01178 0.54171,0.03533zM159.90414,133.82261c0,0.02748 -0.18057,0.04122 -0.54171,0.04122c-0.35721,0 -0.53582,-0.01178 -0.53582,-0.03533v-0.84789c0,-0.03925 0.17861,-0.05888 0.53582,-0.05888c0.36114,0 0.54171,0.01178 0.54171,0.03533z" data-paper-data="{&quot;origPos&quot;:null}" id="path3691"/><path d="M161.79092,137.0611c0,0.04711 -0.16487,0.07066 -0.4946,0.07066c-0.39254,-0.0157 -0.58882,-0.04122 -0.58882,-0.07655v-2.08441h-0.3003c-0.07851,0 -0.11776,-0.13543 -0.11776,-0.40628c0,-0.07066 0.00589,-0.15702 0.01766,-0.25908c0.0157,-0.10206 0.04514,-0.15309 0.08832,-0.15309h0.31207v-0.51816c0,-0.07851 0.16487,-0.11776 0.4946,-0.11776c0.33366,0 0.50049,0.0314 0.50049,0.09421v0.37684l0.00589,0.16487h0.50049c0.06673,0 0.1001,0.13739 0.1001,0.41217c0,0.27478 -0.03337,0.41217 -0.1001,0.41217h-0.41806z" data-paper-data="{&quot;origPos&quot;:null}" id="path3693"/><path d="M163.58203,137.05521c0,0.03533 -0.16487,0.05299 -0.4946,0.05299c-0.32581,0 -0.48872,-0.02748 -0.48872,-0.08243v-4.03339c0,-0.02748 0.06084,-0.04711 0.18253,-0.05888c0.12169,-0.01178 0.22375,-0.01766 0.30618,-0.01766c0.32974,0 0.4946,0.03533 0.4946,0.10599v1.17763c0.21982,-0.06673 0.38666,-0.1001 0.50049,-0.1001c0.29833,0 0.53386,0.08047 0.70658,0.24141c0.17272,0.15702 0.25908,0.45143 0.25908,0.88322v1.82533c0,0.03533 -0.15309,0.05299 -0.45928,0.05299c-0.34544,-0.01178 -0.51816,-0.0314 -0.51816,-0.05888v-1.73112c0,-0.19235 -0.06281,-0.28852 -0.18842,-0.28852c-0.08636,0 -0.18646,0.04122 -0.3003,0.12365z" data-paper-data="{&quot;origPos&quot;:null}" id="path3695"/><path d="M167.02926,134.95902c-0.10991,-0.19627 -0.16487,-0.35525 -0.16487,-0.47694c0,-0.12561 0.03337,-0.20609 0.1001,-0.24141c0.22375,-0.09814 0.52993,-0.1472 0.91855,-0.1472c0.39254,0 0.66929,0.09225 0.83023,0.27674c0.16094,0.18057 0.24141,0.44946 0.24141,0.80668v0.93033h0.2002c0.06673,0 0.11776,0.03925 0.15309,0.11776c0.03925,0.07851 0.05888,0.18646 0.05888,0.32385c0,0.13739 -0.03533,0.27282 -0.10599,0.40628c-0.06673,0.13346 -0.15898,0.2002 -0.27674,0.2002c-0.21197,0 -0.38273,-0.05692 -0.51227,-0.17076c-0.05888,-0.04711 -0.10402,-0.10402 -0.13543,-0.17076c-0.18057,0.22768 -0.46124,0.34151 -0.84201,0.34151c-0.28656,0 -0.52797,-0.10206 -0.72424,-0.30618c-0.19627,-0.20412 -0.29441,-0.44554 -0.29441,-0.72424c0,-0.63985 0.38273,-0.95977 1.14819,-0.95977h0.32385v-0.05888c0,-0.10206 -0.01766,-0.16683 -0.05299,-0.19431c-0.0314,-0.0314 -0.10795,-0.04711 -0.22964,-0.04711c-0.14917,0 -0.36114,0.0314 -0.63592,0.09421zM167.50031,136.04244c0,0.08636 0.02355,0.15309 0.07066,0.2002c0.04711,0.04318 0.10599,0.06477 0.17664,0.06477c0.07458,0 0.14132,-0.02944 0.2002,-0.08832v-0.45339h-0.16487c-0.18842,0 -0.28263,0.09225 -0.28263,0.27674z" data-paper-data="{&quot;origPos&quot;:null}" id="path3697"/><path d="M172.16419,137.0611c0,0.04711 -0.16487,0.07066 -0.4946,0.07066c-0.39254,-0.0157 -0.58882,-0.04122 -0.58882,-0.07655v-2.08441h-0.3003c-0.07851,0 -0.11776,-0.13543 -0.11776,-0.40628c0,-0.07066 0.00589,-0.15702 0.01766,-0.25908c0.0157,-0.10206 0.04514,-0.15309 0.08832,-0.15309h0.31207v-0.51816c0,-0.07851 0.16487,-0.11776 0.4946,-0.11776c0.33366,0 0.50049,0.0314 0.50049,0.09421v0.37684l0.00589,0.16487h0.50049c0.06673,0 0.1001,0.13739 0.1001,0.41217c0,0.27478 -0.03337,0.41217 -0.1001,0.41217h-0.41806z" data-paper-data="{&quot;origPos&quot;:null}" id="path3699"/><path d="M173.9553,137.05521c0,0.03533 -0.16487,0.05299 -0.4946,0.05299c-0.32581,0 -0.48872,-0.02748 -0.48872,-0.08243v-4.03339c0,-0.02748 0.06084,-0.04711 0.18253,-0.05888c0.12169,-0.01178 0.22375,-0.01766 0.30618,-0.01766c0.32974,0 0.4946,0.03533 0.4946,0.10599v1.17763c0.21982,-0.06673 0.38666,-0.1001 0.50049,-0.1001c0.29833,0 0.53386,0.08047 0.70658,0.24141c0.17272,0.15702 0.25908,0.45143 0.25908,0.88322v1.82533c0,0.03533 -0.15309,0.05299 -0.45928,0.05299c-0.34544,-0.01178 -0.51816,-0.0314 -0.51816,-0.05888v-1.73112c0,-0.19235 -0.06281,-0.28852 -0.18842,-0.28852c-0.08636,0 -0.18646,0.04122 -0.3003,0.12365z" data-paper-data="{&quot;origPos&quot;:null}" id="path3701"/><path d="M175.89811,134.18768c0,-0.04318 0.16879,-0.06477 0.50638,-0.06477c0.33759,0 0.50638,0.02159 0.50638,0.06477v1.71934c0,0.19627 0.06281,0.29441 0.18842,0.29441c0.09421,0 0.2002,-0.04122 0.31796,-0.12365v-1.8901c0,-0.03925 0.16683,-0.05888 0.50049,-0.05888c0.33366,0 0.50049,0.01963 0.50049,0.05888v1.93131h0.15309c0.13346,0 0.2002,0.12758 0.2002,0.38273c0,0.12954 -0.02748,0.26104 -0.08243,0.39451c-0.07851,0.17272 -0.1845,0.25908 -0.31796,0.25908c-0.263,0 -0.45731,-0.10795 -0.58293,-0.32385l-0.00589,0.00589c-0.23945,0.21197 -0.49657,0.31796 -0.77135,0.31796c-0.38077,0 -0.66144,-0.09421 -0.84201,-0.28263c-0.18057,-0.19235 -0.27086,-0.50834 -0.27086,-0.94799z" data-paper-data="{&quot;origPos&quot;:null}" id="path3703"/><path d="M180.36676,137.0611c0,0.02748 -0.14132,0.04122 -0.42395,0.04122c-0.39254,-0.01178 -0.58882,-0.03337 -0.58882,-0.06477v-1.90776h-0.15309c-0.10206,0 -0.16879,-0.08636 -0.2002,-0.25908c-0.00785,-0.05103 -0.01178,-0.10206 -0.01178,-0.15309c0,-0.12169 0.02355,-0.24338 0.07066,-0.36507c0.07066,-0.17272 0.18057,-0.25908 0.32974,-0.25908c0.14917,0 0.28263,0.03533 0.40039,0.10599c0.11776,0.07066 0.19627,0.14132 0.23553,0.21197c0.2473,-0.21197 0.54171,-0.31796 0.88322,-0.31796c0.34151,0 0.58882,0.09225 0.74191,0.27674c0.15309,0.1845 0.22964,0.48675 0.22964,0.90678v1.76645c0,0.04711 -0.16879,0.07066 -0.50638,0.07066c-0.33366,0 -0.50049,-0.02355 -0.50049,-0.07066v-1.70168c0,-0.19627 -0.0687,-0.29441 -0.20609,-0.29441c-0.03925,0 -0.09421,0.01766 -0.16487,0.05299c-0.07066,0.0314 -0.1158,0.05496 -0.13543,0.07066z" data-paper-data="{&quot;origPos&quot;:null}" id="path3705"/><path d="M183.86892,133.01005c0,-0.05888 0.15505,-0.08832 0.46516,-0.08832c0.10599,0 0.22768,0.00785 0.36507,0.02355c0.14132,0.01178 0.21197,0.02944 0.21197,0.05299v3.10306h0.20609c0.09814,0 0.16291,0.08832 0.19431,0.26497c0.00785,0.05103 0.01178,0.12169 0.01178,0.21197c0,0.08636 -0.02748,0.19235 -0.08243,0.31796c-0.07851,0.17272 -0.20412,0.25908 -0.37684,0.25908c-0.12954,0 -0.24534,-0.02552 -0.3474,-0.07655c-0.09814,-0.05103 -0.16487,-0.10402 -0.2002,-0.15898l-0.05299,-0.07655c-0.2159,0.20805 -0.48675,0.31207 -0.81257,0.31207c-0.32581,0 -0.60452,-0.13543 -0.83612,-0.40628c-0.2316,-0.27086 -0.3474,-0.6477 -0.3474,-1.13053c0,-0.48675 0.12169,-0.86163 0.36507,-1.12464c0.24338,-0.26693 0.5476,-0.40039 0.91266,-0.40039c0.10599,0 0.21394,0.01178 0.32385,0.03533zM183.67461,135.03557c-0.21982,0 -0.32974,0.19823 -0.32974,0.5947c0,0.2002 0.0314,0.34544 0.09421,0.43572c0.06281,0.08636 0.1315,0.12954 0.20609,0.12954c0.07851,0 0.15309,-0.03337 0.22375,-0.1001v-1.00099c-0.06673,-0.03925 -0.1315,-0.05888 -0.19431,-0.05888z" data-paper-data="{&quot;origPos&quot;:null}" id="path3707"/><path d="M187.92853,136.93744c-0.2473,0.14524 -0.56526,0.21786 -0.95388,0.21786c-0.38862,0 -0.71639,-0.1315 -0.98332,-0.39451c-0.26693,-0.26693 -0.40039,-0.63396 -0.40039,-1.10108c0,-0.47105 0.12758,-0.84986 0.38273,-1.13641c0.25908,-0.28656 0.58489,-0.42984 0.97743,-0.42984c0.39254,0 0.6948,0.1001 0.90678,0.3003c0.2159,0.2002 0.32385,0.44357 0.32385,0.73013c0,0.63592 -0.36507,0.95388 -1.0952,0.95388h-0.40628c0,0.11776 0.0314,0.2002 0.09421,0.2473c0.06673,0.04318 0.16291,0.06477 0.28852,0.06477c0.27478,0 0.53582,-0.06281 0.78312,-0.18842c0.00393,-0.00393 0.02159,0.02355 0.05299,0.08243c0.09421,0.16879 0.14132,0.31207 0.14132,0.42984c0,0.11384 -0.03729,0.18842 -0.11187,0.22375zM187.19251,135.23577c0,-0.16487 -0.08047,-0.2473 -0.24141,-0.2473c-0.07458,0 -0.13935,0.02355 -0.19431,0.07066c-0.05103,0.04318 -0.07655,0.10795 -0.07655,0.19431v0.18253h0.31796c0.12954,0 0.19431,-0.06673 0.19431,-0.2002z" data-paper-data="{&quot;origPos&quot;:null}" id="path3709"/><path d="M189.85589,137.09054c0,0.02748 -0.17861,0.04122 -0.53582,0.04122c-0.35721,-0.00785 -0.53582,-0.02355 -0.53582,-0.04711v-1.95487h-0.15898c-0.06281,0 -0.11384,-0.03729 -0.15309,-0.11187c-0.03533,-0.07851 -0.05299,-0.17468 -0.05299,-0.28852c0,-0.42395 0.12561,-0.63592 0.37684,-0.63592c0.17664,0 0.32385,0.05496 0.44161,0.16487c0.11776,0.10599 0.17664,0.22768 0.17664,0.36507c0.08243,-0.16094 0.19235,-0.28852 0.32974,-0.38273c0.14132,-0.09814 0.28459,-0.1472 0.42984,-0.1472c0.22768,0 0.36507,0.05888 0.41217,0.17664c0.01178,0.0314 0.01766,0.07851 0.01766,0.14132c0,0.05888 -0.01963,0.16683 -0.05888,0.32385c-0.03533,0.15702 -0.07262,0.27086 -0.11187,0.34151c-0.03925,0.07066 -0.06281,0.10599 -0.07066,0.10599c-0.00785,0 -0.04514,-0.01374 -0.11187,-0.04122c-0.06281,-0.0314 -0.11973,-0.04711 -0.17076,-0.04711c-0.14917,0 -0.22375,0.11776 -0.22375,0.35329z" data-paper-data="{&quot;origPos&quot;:null}" id="path3711"/><path d="M191.15413,136.74902c-0.24338,-0.27086 -0.36507,-0.64573 -0.36507,-1.12464c0,-0.4789 0.12169,-0.85378 0.36507,-1.12464c0.2473,-0.27086 0.579,-0.40628 0.9951,-0.40628c0.4161,0 0.74583,0.13543 0.98921,0.40628c0.24338,0.27086 0.36507,0.64573 0.36507,1.12464c0,0.4789 -0.12169,0.85378 -0.36507,1.12464c-0.24338,0.27086 -0.57311,0.40628 -0.98921,0.40628c-0.4161,0 -0.7478,-0.13543 -0.9951,-0.40628zM192.14923,135.07679c-0.21982,0 -0.32974,0.18057 -0.32974,0.54171c0,0.36114 0.10991,0.54171 0.32974,0.54171c0.22375,0 0.33562,-0.18057 0.33562,-0.54171c0,-0.36114 -0.11187,-0.54171 -0.33562,-0.54171z" data-paper-data="{&quot;origPos&quot;:null}" id="path3713"/><path d="M193.89608,134.18768c0,-0.04318 0.16879,-0.06477 0.50638,-0.06477c0.33759,0 0.50638,0.02159 0.50638,0.06477v1.71934c0,0.19627 0.06281,0.29441 0.18842,0.29441c0.09421,0 0.2002,-0.04122 0.31796,-0.12365v-1.8901c0,-0.03925 0.16683,-0.05888 0.50049,-0.05888c0.33366,0 0.50049,0.01963 0.50049,0.05888v1.93131h0.15309c0.13346,0 0.2002,0.12758 0.2002,0.38273c0,0.12954 -0.02748,0.26104 -0.08243,0.39451c-0.07851,0.17272 -0.1845,0.25908 -0.31796,0.25908c-0.263,0 -0.45731,-0.10795 -0.58293,-0.32385l-0.00589,0.00589c-0.23945,0.21197 -0.49657,0.31796 -0.77135,0.31796c-0.38077,0 -0.66144,-0.09421 -0.84201,-0.28263c-0.18057,-0.19235 -0.27086,-0.50834 -0.27086,-0.94799z" data-paper-data="{&quot;origPos&quot;:null}" id="path3715"/><path d="M197.25775,136.03656c0.31796,0.19235 0.56919,0.28852 0.75368,0.28852c0.11776,0 0.17664,-0.04122 0.17664,-0.12365c0,-0.05888 -0.10206,-0.13543 -0.30618,-0.22964c-0.49068,-0.2002 -0.73602,-0.52797 -0.73602,-0.98332c0,-0.29048 0.10599,-0.51227 0.31796,-0.66536c0.21197,-0.15309 0.46516,-0.22964 0.75957,-0.22964c0.29833,0 0.54956,0.0314 0.75368,0.09421c0.20805,0.06281 0.31207,0.14524 0.31207,0.2473c0,0.08636 -0.04318,0.2002 -0.12954,0.34151c-0.08243,0.14132 -0.13935,0.21786 -0.17076,0.22964c-0.16879,-0.09421 -0.35133,-0.14132 -0.5476,-0.14132c-0.10599,0 -0.15898,0.03729 -0.15898,0.11187c0,0.04711 0.01963,0.08832 0.05888,0.12365c0.04318,0.0314 0.11973,0.07262 0.22964,0.12365c0.10991,0.04711 0.2002,0.09029 0.27086,0.12954c0.07458,0.03925 0.15702,0.09421 0.2473,0.16487c0.18842,0.14917 0.28263,0.34348 0.28263,0.58293c0,0.31403 -0.10402,0.56919 -0.31207,0.76546c-0.20805,0.19235 -0.52208,0.28852 -0.9421,0.28852c-0.27871,0 -0.5319,-0.04711 -0.75957,-0.14132c-0.22768,-0.09421 -0.34151,-0.22375 -0.34151,-0.38862c0,-0.10991 0.02552,-0.22571 0.07655,-0.3474c0.05496,-0.12169 0.10991,-0.20216 0.16487,-0.24141z" data-paper-data="{&quot;origPos&quot;:null}" id="path3717"/><path d="M201.00685,136.03656c0.31796,0.19235 0.56919,0.28852 0.75368,0.28852c0.11776,0 0.17664,-0.04122 0.17664,-0.12365c0,-0.05888 -0.10206,-0.13543 -0.30618,-0.22964c-0.49068,-0.2002 -0.73602,-0.52797 -0.73602,-0.98332c0,-0.29048 0.10599,-0.51227 0.31796,-0.66536c0.21197,-0.15309 0.46516,-0.22964 0.75957,-0.22964c0.29833,0 0.54956,0.0314 0.75368,0.09421c0.20805,0.06281 0.31207,0.14524 0.31207,0.2473c0,0.08636 -0.04318,0.2002 -0.12954,0.34151c-0.08243,0.14132 -0.13935,0.21786 -0.17076,0.22964c-0.16879,-0.09421 -0.35133,-0.14132 -0.5476,-0.14132c-0.10599,0 -0.15898,0.03729 -0.15898,0.11187c0,0.04711 0.01963,0.08832 0.05888,0.12365c0.04318,0.0314 0.11973,0.07262 0.22964,0.12365c0.10991,0.04711 0.2002,0.09029 0.27086,0.12954c0.07458,0.03925 0.15702,0.09421 0.2473,0.16487c0.18842,0.14917 0.28263,0.34348 0.28263,0.58293c0,0.31403 -0.10402,0.56919 -0.31207,0.76546c-0.20805,0.19235 -0.52208,0.28852 -0.9421,0.28852c-0.27871,0 -0.5319,-0.04711 -0.75957,-0.14132c-0.22768,-0.09421 -0.34151,-0.22375 -0.34151,-0.38862c0,-0.10991 0.02552,-0.22571 0.07655,-0.3474c0.05496,-0.12169 0.10991,-0.20216 0.16487,-0.24141z" data-paper-data="{&quot;origPos&quot;:null}" id="path3719"/><path d="M204.51159,137.05521c0,0.03533 -0.16487,0.05299 -0.4946,0.05299c-0.32581,0 -0.48872,-0.02748 -0.48872,-0.08243v-4.03339c0,-0.02748 0.06084,-0.04711 0.18253,-0.05888c0.12169,-0.01178 0.22375,-0.01766 0.30618,-0.01766c0.32974,0 0.4946,0.03533 0.4946,0.10599v1.17763c0.21982,-0.06673 0.38666,-0.1001 0.50049,-0.1001c0.29833,0 0.53386,0.08047 0.70658,0.24141c0.17272,0.15702 0.25908,0.45143 0.25908,0.88322v1.82533c0,0.03533 -0.15309,0.05299 -0.45928,0.05299c-0.34544,-0.01178 -0.51816,-0.0314 -0.51816,-0.05888v-1.73112c0,-0.19235 -0.06281,-0.28852 -0.18842,-0.28852c-0.08636,0 -0.18646,0.04122 -0.3003,0.12365z" data-paper-data="{&quot;origPos&quot;:null}" id="path3721"/><path d="M206.73704,136.74902c-0.24338,-0.27086 -0.36507,-0.64573 -0.36507,-1.12464c0,-0.4789 0.12169,-0.85378 0.36507,-1.12464c0.2473,-0.27086 0.579,-0.40628 0.9951,-0.40628c0.4161,0 0.74583,0.13543 0.98921,0.40628c0.24338,0.27086 0.36507,0.64573 0.36507,1.12464c0,0.4789 -0.12169,0.85378 -0.36507,1.12464c-0.24338,0.27086 -0.57311,0.40628 -0.98921,0.40628c-0.4161,0 -0.7478,-0.13543 -0.9951,-0.40628zM207.73214,135.07679c-0.21982,0 -0.32974,0.18057 -0.32974,0.54171c0,0.36114 0.10991,0.54171 0.32974,0.54171c0.22375,0 0.33562,-0.18057 0.33562,-0.54171c0,-0.36114 -0.11187,-0.54171 -0.33562,-0.54171z" data-paper-data="{&quot;origPos&quot;:null}" id="path3723"/><path d="M210.47408,135.63616c0,0.38469 0.14524,0.57704 0.43572,0.57704c0.18842,0 0.34544,-0.03729 0.47105,-0.11187c0.05888,0 0.10599,0.10206 0.14132,0.30618c0.03925,0.2002 0.05888,0.33759 0.05888,0.41217c0,0.07066 -0.00981,0.11776 -0.02944,0.14132c-0.20805,0.12954 -0.49264,0.19431 -0.85378,0.19431c-0.36114,0 -0.66929,-0.13346 -0.92444,-0.40039c-0.25123,-0.27086 -0.37684,-0.63788 -0.37684,-1.10108c0,-0.46713 0.12365,-0.84397 0.37095,-1.13053c0.25123,-0.28656 0.58293,-0.42984 0.9951,-0.42984c0.4161,0 0.70462,0.1001 0.86556,0.3003c0.03533,0.04318 0.05299,0.10795 0.05299,0.19431c0,0.08243 -0.0157,0.1845 -0.04711,0.30618c-0.07066,0.25123 -0.16291,0.39647 -0.27674,0.43572c-0.0157,0.00393 -0.03925,0.00589 -0.07066,0.00589c-0.02748,0 -0.06281,-0.02355 -0.10599,-0.07066c-0.15309,-0.15309 -0.27674,-0.22964 -0.37095,-0.22964c-0.09029,0 -0.16879,0.04711 -0.23553,0.14132c-0.06673,0.09421 -0.1001,0.2473 -0.1001,0.45928z" data-paper-data="{&quot;origPos&quot;:null}" id="path3725"/><path d="M212.00399,133.02182c0,-0.06281 0.17861,-0.09421 0.53582,-0.09421c0.33366,0.01178 0.50049,0.03729 0.50049,0.07655v2.26105l0.58293,-1.07753c0.02748,-0.05888 0.19431,-0.08832 0.50049,-0.08832c0.30618,0 0.50246,0.01963 0.58882,0.05888l-0.76546,1.24829l0.88322,1.65457c0.00785,0.0157 -0.06673,0.02748 -0.22375,0.03533c-0.15309,0.01178 -0.28067,0.01766 -0.38273,0.01766c-0.37684,0 -0.579,-0.01766 -0.60648,-0.05299l-0.58293,-1.30717v1.30128c0,0.05103 -0.17272,0.07655 -0.51816,0.07655c-0.34151,0 -0.51227,-0.02355 -0.51227,-0.07066z" data-paper-data="{&quot;origPos&quot;:null}" id="path3727"/><path d="M218.18802,134.18179c0,-0.03533 0.10795,-0.05299 0.32384,-0.05299c0.48675,0 0.72621,0.0157 0.71835,0.04711l-0.57704,2.86164c-0.01178,0.06281 -0.22964,0.09421 -0.65358,0.09421c-0.42395,0 -0.64181,-0.0314 -0.65359,-0.09421l-0.24141,-1.31895l-0.3003,1.31895c-0.01178,0.05888 -0.23749,0.08832 -0.67714,0.08832c-0.43572,0 -0.65947,-0.03533 -0.67125,-0.10599l-0.52405,-2.86753c-0.01178,-0.02355 0.15702,-0.03533 0.50638,-0.03533c0.34544,0.00393 0.51816,0.01178 0.51816,0.02355l0.27086,1.9902l0.48872,-1.96664c0.00785,-0.02355 0.13739,-0.03533 0.38862,-0.03533c0.25123,0 0.38077,0.01178 0.38862,0.03533l0.48283,1.94309z" data-paper-data="{&quot;origPos&quot;:null}" id="path3729"/><path d="M219.93065,134.95902c-0.10991,-0.19627 -0.16487,-0.35525 -0.16487,-0.47694c0,-0.12561 0.03337,-0.20609 0.1001,-0.24141c0.22375,-0.09814 0.52993,-0.1472 0.91855,-0.1472c0.39254,0 0.66929,0.09225 0.83023,0.27674c0.16094,0.18057 0.24141,0.44946 0.24141,0.80668v0.93033h0.2002c0.06673,0 0.11776,0.03925 0.15309,0.11776c0.03925,0.07851 0.05888,0.18646 0.05888,0.32385c0,0.13739 -0.03533,0.27282 -0.10599,0.40628c-0.06673,0.13346 -0.15898,0.2002 -0.27674,0.2002c-0.21197,0 -0.38273,-0.05692 -0.51227,-0.17076c-0.05888,-0.04711 -0.10402,-0.10402 -0.13543,-0.17076c-0.18057,0.22768 -0.46124,0.34151 -0.84201,0.34151c-0.28656,0 -0.52797,-0.10206 -0.72424,-0.30618c-0.19627,-0.20412 -0.29441,-0.44554 -0.29441,-0.72424c0,-0.63985 0.38273,-0.95977 1.14819,-0.95977h0.32385v-0.05888c0,-0.10206 -0.01766,-0.16683 -0.05299,-0.19431c-0.0314,-0.0314 -0.10795,-0.04711 -0.22964,-0.04711c-0.14917,0 -0.36114,0.0314 -0.63592,0.09421zM220.4017,136.04244c0,0.08636 0.02355,0.15309 0.07066,0.2002c0.04711,0.04318 0.10599,0.06477 0.17664,0.06477c0.07458,0 0.14132,-0.02944 0.2002,-0.08832v-0.45339h-0.16487c-0.18842,0 -0.28263,0.09225 -0.28263,0.27674z" data-paper-data="{&quot;origPos&quot;:null}" id="path3731"/><path d="M222.37763,134.17001c-0.01178,-0.0314 0.17076,-0.04711 0.5476,-0.04711c0.38077,0 0.57115,0.00981 0.57115,0.02944l0.42395,2.00197l0.31796,-1.97253c0.01178,-0.03533 0.20609,-0.05299 0.58293,-0.05299c0.38077,0 0.56526,0.0157 0.55349,0.04711l-0.83023,2.87931c-0.02748,0.03925 -0.26104,0.05888 -0.70069,0.05888c-0.43965,0 -0.67517,-0.02944 -0.70658,-0.08832z" data-paper-data="{&quot;origPos&quot;:null}" id="path3733"/><path d="M227.90358,136.93744c-0.2473,0.14524 -0.56526,0.21786 -0.95388,0.21786c-0.38862,0 -0.71639,-0.1315 -0.98332,-0.39451c-0.26693,-0.26693 -0.40039,-0.63396 -0.40039,-1.10108c0,-0.47105 0.12758,-0.84986 0.38273,-1.13641c0.25908,-0.28656 0.58489,-0.42984 0.97743,-0.42984c0.39254,0 0.6948,0.1001 0.90678,0.3003c0.2159,0.2002 0.32385,0.44357 0.32385,0.73013c0,0.63592 -0.36507,0.95388 -1.0952,0.95388h-0.40628c0,0.11776 0.0314,0.2002 0.09421,0.2473c0.06673,0.04318 0.16291,0.06477 0.28852,0.06477c0.27478,0 0.53582,-0.06281 0.78312,-0.18842c0.00393,-0.00393 0.02159,0.02355 0.05299,0.08243c0.09421,0.16879 0.14132,0.31207 0.14132,0.42984c0,0.11384 -0.03729,0.18842 -0.11187,0.22375zM227.16756,135.23577c0,-0.16487 -0.08047,-0.2473 -0.24141,-0.2473c-0.07458,0 -0.13935,0.02355 -0.19431,0.07066c-0.05103,0.04318 -0.07655,0.10795 -0.07655,0.19431v0.18253h0.31796c0.12954,0 0.19431,-0.06673 0.19431,-0.2002z" data-paper-data="{&quot;origPos&quot;:null}" id="path3735"/><path d="M229.50708,137.11409c0,0.02748 -0.18646,0.04122 -0.55937,0.04122c-0.36899,0 -0.55349,-0.01178 -0.55349,-0.03533v-1.05987c0,-0.03533 0.1845,-0.05299 0.55349,-0.05299c0.37292,0 0.55937,0.00981 0.55937,0.02944z" data-paper-data="{&quot;origPos&quot;:null}" id="path3737"/><path d="M234.22358,136.99633c0,0.06673 -0.19823,0.1001 -0.5947,0.1001c-0.39647,0 -0.5947,-0.03337 -0.5947,-0.1001v-1.35428h-0.82434v1.35428c0,0.06673 -0.19823,0.1001 -0.5947,0.1001c-0.39647,0 -0.5947,-0.03337 -0.5947,-0.1001v-3.90385c0,-0.08243 0.19823,-0.12365 0.5947,-0.12365c0.39647,0 0.5947,0.04122 0.5947,0.12365v1.38372h0.82434v-1.37194c0,-0.05496 0.09814,-0.09421 0.29441,-0.11776c0.10206,-0.00785 0.20216,-0.01178 0.3003,-0.01178l0.3003,0.01178c0.19627,0.02355 0.29441,0.06281 0.29441,0.11776z" data-paper-data="{&quot;origPos&quot;:null}" id="path3739"/><path d="M237.01181,136.93744c-0.2473,0.14524 -0.56526,0.21786 -0.95388,0.21786c-0.38862,0 -0.71639,-0.1315 -0.98332,-0.39451c-0.26693,-0.26693 -0.40039,-0.63396 -0.40039,-1.10108c0,-0.47105 0.12758,-0.84986 0.38273,-1.13641c0.25908,-0.28656 0.58489,-0.42984 0.97743,-0.42984c0.39254,0 0.6948,0.1001 0.90678,0.3003c0.2159,0.2002 0.32385,0.44357 0.32385,0.73013c0,0.63592 -0.36507,0.95388 -1.0952,0.95388h-0.40628c0,0.11776 0.0314,0.2002 0.09421,0.2473c0.06673,0.04318 0.16291,0.06477 0.28852,0.06477c0.27478,0 0.53582,-0.06281 0.78312,-0.18842c0.00393,-0.00393 0.02159,0.02355 0.05299,0.08243c0.09421,0.16879 0.14132,0.31207 0.14132,0.42984c0,0.11384 -0.03729,0.18842 -0.11187,0.22375zM236.27579,135.23577c0,-0.16487 -0.08047,-0.2473 -0.24141,-0.2473c-0.07458,0 -0.13935,0.02355 -0.19431,0.07066c-0.05103,0.04318 -0.07655,0.10795 -0.07655,0.19431v0.18253h0.31796c0.12954,0 0.19431,-0.06673 0.19431,-0.2002z" data-paper-data="{&quot;origPos&quot;:null}" id="path3741"/><path d="M238.93917,137.09054c0,0.02748 -0.17861,0.04122 -0.53582,0.04122c-0.35721,-0.00785 -0.53582,-0.02355 -0.53582,-0.04711v-1.95487h-0.15898c-0.06281,0 -0.11384,-0.03729 -0.15309,-0.11187c-0.03533,-0.07851 -0.05299,-0.17468 -0.05299,-0.28852c0,-0.42395 0.12561,-0.63592 0.37684,-0.63592c0.17664,0 0.32385,0.05496 0.44161,0.16487c0.11776,0.10599 0.17664,0.22768 0.17664,0.36507c0.08243,-0.16094 0.19235,-0.28852 0.32974,-0.38273c0.14132,-0.09814 0.28459,-0.1472 0.42984,-0.1472c0.22768,0 0.36507,0.05888 0.41217,0.17664c0.01178,0.0314 0.01766,0.07851 0.01766,0.14132c0,0.05888 -0.01963,0.16683 -0.05888,0.32385c-0.03533,0.15702 -0.07262,0.27086 -0.11187,0.34151c-0.03925,0.07066 -0.06281,0.10599 -0.07066,0.10599c-0.00785,0 -0.04514,-0.01374 -0.11187,-0.04122c-0.06281,-0.0314 -0.11973,-0.04711 -0.17076,-0.04711c-0.14917,0 -0.22375,0.11776 -0.22375,0.35329z" data-paper-data="{&quot;origPos&quot;:null}" id="path3743"/><path d="M241.27079,135.65971c0.07458,0.05888 0.20216,0.13935 0.38273,0.24141c0.1845,0.10206 0.35918,0.15309 0.52405,0.15309c0.16879,0 0.25319,-0.06477 0.25319,-0.19431c0,-0.05888 -0.02355,-0.10991 -0.07066,-0.15309c-0.04711,-0.04711 -0.13346,-0.1001 -0.25908,-0.15898c-0.12561,-0.05888 -0.21982,-0.10402 -0.28263,-0.13543c-0.06281,-0.03533 -0.1472,-0.09029 -0.25319,-0.16487c-0.10206,-0.07851 -0.18057,-0.15898 -0.23553,-0.24141c-0.15702,-0.22375 -0.23553,-0.50834 -0.23553,-0.85378c0,-0.34544 0.12758,-0.63592 0.38273,-0.87145c0.25908,-0.23945 0.59667,-0.35918 1.01276,-0.35918c0.28263,0 0.54367,0.0314 0.78312,0.09421c0.23945,0.05888 0.3631,0.13739 0.37095,0.23553c0,0.01178 0,0.02355 0,0.03533c0,0.13739 -0.04318,0.31207 -0.12954,0.52405c-0.08636,0.20805 -0.1472,0.32385 -0.18253,0.3474c-0.25123,-0.12954 -0.47694,-0.19431 -0.67714,-0.19431c-0.19627,0 -0.29441,0.07066 -0.29441,0.21197c0,0.08636 0.07262,0.16291 0.21786,0.22964c0.0314,0.0157 0.07655,0.03729 0.13543,0.06477c0.05888,0.02748 0.12561,0.06084 0.2002,0.1001c0.07851,0.03533 0.16094,0.08243 0.2473,0.14132c0.09029,0.05496 0.18646,0.12954 0.28852,0.22375c0.20805,0.19627 0.31207,0.45535 0.31207,0.77724c0,0.42002 -0.1158,0.7635 -0.3474,1.03043c-0.2316,0.26693 -0.58882,0.40432 -1.07164,0.41217c-0.23553,0 -0.44946,-0.01963 -0.64181,-0.05888c-0.18842,-0.03925 -0.35329,-0.1158 -0.4946,-0.22964c-0.14132,-0.11384 -0.21197,-0.25123 -0.21197,-0.41217c0,-0.16094 0.02944,-0.31992 0.08832,-0.47694c0.05888,-0.16094 0.12169,-0.26693 0.18842,-0.31796z" data-paper-data="{&quot;origPos&quot;:null}" id="path3745"/><path d="M244.1869,134.18768c0,-0.04318 0.16879,-0.06477 0.50638,-0.06477c0.33759,0 0.50638,0.02159 0.50638,0.06477v1.71934c0,0.19627 0.06281,0.29441 0.18842,0.29441c0.09421,0 0.2002,-0.04122 0.31796,-0.12365v-1.8901c0,-0.03925 0.16683,-0.05888 0.50049,-0.05888c0.33366,0 0.50049,0.01963 0.50049,0.05888v1.93131h0.15309c0.13346,0 0.2002,0.12758 0.2002,0.38273c0,0.12954 -0.02748,0.26104 -0.08243,0.39451c-0.07851,0.17272 -0.1845,0.25908 -0.31796,0.25908c-0.263,0 -0.45731,-0.10795 -0.58293,-0.32385l-0.00589,0.00589c-0.23945,0.21197 -0.49657,0.31796 -0.77135,0.31796c-0.38077,0 -0.66144,-0.09421 -0.84201,-0.28263c-0.18057,-0.19235 -0.27086,-0.50834 -0.27086,-0.94799z" data-paper-data="{&quot;origPos&quot;:null}" id="path3747"/><path d="M248.69086,138.16807c0,0.02748 -0.16879,0.04122 -0.50638,0.04122c-0.33366,0 -0.50049,-0.01374 -0.50049,-0.04122v-3.0324h-0.2002c-0.09421,0 -0.15898,-0.08636 -0.19431,-0.25908c-0.01178,-0.05496 -0.01766,-0.12561 -0.01766,-0.21197c0,-0.08636 0.02748,-0.18842 0.08243,-0.30618c0.07851,-0.17272 0.20412,-0.25908 0.37684,-0.25908c0.11384,0 0.21786,0.02748 0.31207,0.08243c0.09814,0.05103 0.16487,0.1001 0.2002,0.1472c0.03925,0.04318 0.05888,0.0687 0.05888,0.07655c0.263,-0.20412 0.5476,-0.30618 0.85378,-0.30618c0.30618,0 0.56919,0.11973 0.78901,0.35918c0.21982,0.23553 0.32974,0.60255 0.32974,1.10108c0,0.4946 -0.10991,0.8793 -0.32974,1.15408c-0.21982,0.27086 -0.49853,0.40628 -0.83612,0.40628c-0.15309,0 -0.29244,-0.00785 -0.41806,-0.02355zM248.93228,135.12978c-0.06673,0 -0.1315,0.02159 -0.19431,0.06477v1.0422c0.06673,0.00785 0.11973,0.01178 0.15898,0.01178c0.04318,0 0.07655,0 0.1001,0c0.16094,-0.0157 0.24141,-0.22179 0.24141,-0.61826c0,-0.33366 -0.10206,-0.50049 -0.30618,-0.50049z" data-paper-data="{&quot;origPos&quot;:null}" id="path3749"/><path d="M252.91672,136.93744c-0.2473,0.14524 -0.56526,0.21786 -0.95388,0.21786c-0.38862,0 -0.71639,-0.1315 -0.98332,-0.39451c-0.26693,-0.26693 -0.40039,-0.63396 -0.40039,-1.10108c0,-0.47105 0.12758,-0.84986 0.38273,-1.13641c0.25908,-0.28656 0.58489,-0.42984 0.97743,-0.42984c0.39254,0 0.6948,0.1001 0.90678,0.3003c0.2159,0.2002 0.32385,0.44357 0.32385,0.73013c0,0.63592 -0.36507,0.95388 -1.0952,0.95388h-0.40628c0,0.11776 0.0314,0.2002 0.09421,0.2473c0.06673,0.04318 0.16291,0.06477 0.28852,0.06477c0.27478,0 0.53582,-0.06281 0.78312,-0.18842c0.00393,-0.00393 0.02159,0.02355 0.05299,0.08243c0.09421,0.16879 0.14132,0.31207 0.14132,0.42984c0,0.11384 -0.03729,0.18842 -0.11187,0.22375zM252.1807,135.23577c0,-0.16487 -0.08047,-0.2473 -0.24141,-0.2473c-0.07458,0 -0.13935,0.02355 -0.19431,0.07066c-0.05103,0.04318 -0.07655,0.10795 -0.07655,0.19431v0.18253h0.31796c0.12954,0 0.19431,-0.06673 0.19431,-0.2002z" data-paper-data="{&quot;origPos&quot;:null}" id="path3751"/><path d="M254.84409,137.09054c0,0.02748 -0.17861,0.04122 -0.53582,0.04122c-0.35721,-0.00785 -0.53582,-0.02355 -0.53582,-0.04711v-1.95487h-0.15898c-0.06281,0 -0.11384,-0.03729 -0.15309,-0.11187c-0.03533,-0.07851 -0.05299,-0.17468 -0.05299,-0.28852c0,-0.42395 0.12561,-0.63592 0.37684,-0.63592c0.17664,0 0.32385,0.05496 0.44161,0.16487c0.11776,0.10599 0.17664,0.22768 0.17664,0.36507c0.08243,-0.16094 0.19235,-0.28852 0.32974,-0.38273c0.14132,-0.09814 0.28459,-0.1472 0.42984,-0.1472c0.22768,0 0.36507,0.05888 0.41217,0.17664c0.01178,0.0314 0.01766,0.07851 0.01766,0.14132c0,0.05888 -0.01963,0.16683 -0.05888,0.32385c-0.03533,0.15702 -0.07262,0.27086 -0.11187,0.34151c-0.03925,0.07066 -0.06281,0.10599 -0.07066,0.10599c-0.00785,0 -0.04514,-0.01374 -0.11187,-0.04122c-0.06281,-0.0314 -0.11973,-0.04711 -0.17076,-0.04711c-0.14917,0 -0.22375,0.11776 -0.22375,0.35329z" data-paper-data="{&quot;origPos&quot;:null}" id="path3753"/><path d="M257.11681,136.03656c0.31796,0.19235 0.56919,0.28852 0.75368,0.28852c0.11776,0 0.17664,-0.04122 0.17664,-0.12365c0,-0.05888 -0.10206,-0.13543 -0.30618,-0.22964c-0.49068,-0.2002 -0.73602,-0.52797 -0.73602,-0.98332c0,-0.29048 0.10599,-0.51227 0.31796,-0.66536c0.21197,-0.15309 0.46516,-0.22964 0.75957,-0.22964c0.29833,0 0.54956,0.0314 0.75368,0.09421c0.20805,0.06281 0.31207,0.14524 0.31207,0.2473c0,0.08636 -0.04318,0.2002 -0.12954,0.34151c-0.08243,0.14132 -0.13935,0.21786 -0.17076,0.22964c-0.16879,-0.09421 -0.35133,-0.14132 -0.5476,-0.14132c-0.10599,0 -0.15898,0.03729 -0.15898,0.11187c0,0.04711 0.01963,0.08832 0.05888,0.12365c0.04318,0.0314 0.11973,0.07262 0.22964,0.12365c0.10991,0.04711 0.2002,0.09029 0.27086,0.12954c0.07458,0.03925 0.15702,0.09421 0.2473,0.16487c0.18842,0.14917 0.28263,0.34348 0.28263,0.58293c0,0.31403 -0.10402,0.56919 -0.31207,0.76546c-0.20805,0.19235 -0.52208,0.28852 -0.9421,0.28852c-0.27871,0 -0.5319,-0.04711 -0.75957,-0.14132c-0.22768,-0.09421 -0.34151,-0.22375 -0.34151,-0.38862c0,-0.10991 0.02552,-0.22571 0.07655,-0.3474c0.05496,-0.12169 0.10991,-0.20216 0.16487,-0.24141z" data-paper-data="{&quot;origPos&quot;:null}" id="path3755"/><path d="M259.60879,134.18768c0,-0.04318 0.16879,-0.06477 0.50638,-0.06477c0.33759,0 0.50638,0.02159 0.50638,0.06477v1.71934c0,0.19627 0.06281,0.29441 0.18842,0.29441c0.09421,0 0.2002,-0.04122 0.31796,-0.12365v-1.8901c0,-0.03925 0.16683,-0.05888 0.50049,-0.05888c0.33366,0 0.50049,0.01963 0.50049,0.05888v1.93131h0.15309c0.13346,0 0.2002,0.12758 0.2002,0.38273c0,0.12954 -0.02748,0.26104 -0.08243,0.39451c-0.07851,0.17272 -0.1845,0.25908 -0.31796,0.25908c-0.263,0 -0.45731,-0.10795 -0.58293,-0.32385l-0.00589,0.00589c-0.23945,0.21197 -0.49657,0.31796 -0.77135,0.31796c-0.38077,0 -0.66144,-0.09421 -0.84201,-0.28263c-0.18057,-0.19235 -0.27086,-0.50834 -0.27086,-0.94799z" data-paper-data="{&quot;origPos&quot;:null}" id="path3757"/><path d="M265.51416,137.06698c0,0.02748 -0.16879,0.04122 -0.50638,0.04122c-0.33366,0 -0.50049,-0.01766 -0.50049,-0.05299v-1.71345c0,-0.19627 -0.06477,-0.29441 -0.19431,-0.29441c-0.06673,0 -0.15505,0.04318 -0.26497,0.12954v1.88421c0,0.03925 -0.16879,0.05888 -0.50638,0.05888c-0.33366,0 -0.50049,-0.02159 -0.50049,-0.06477v-1.92543h-0.1472c-0.12954,0 -0.19431,-0.13543 -0.19431,-0.40628c0,-0.12169 0.02355,-0.24534 0.07066,-0.37095c0.06281,-0.17272 0.16487,-0.25908 0.30618,-0.25908c0.14132,0 0.27674,0.03729 0.40628,0.11187c0.13346,0.07458 0.21394,0.14524 0.24141,0.21197c0.24338,-0.2159 0.51227,-0.32385 0.80668,-0.32385c0.29833,0 0.53778,0.09225 0.71835,0.27674c0.21197,-0.1845 0.46713,-0.27674 0.76546,-0.27674c0.6477,0 0.97155,0.39451 0.97155,1.18352v1.79c0,0.02748 -0.16879,0.04122 -0.50638,0.04122c-0.33366,0 -0.50049,-0.01766 -0.50049,-0.05299v-1.71345c0,-0.19627 -0.06477,-0.29441 -0.19431,-0.29441c-0.07066,0 -0.16094,0.04318 -0.27086,0.12954z" data-paper-data="{&quot;origPos&quot;:null}" id="path3759"/><path d="M270.14877,137.06698c0,0.02748 -0.16879,0.04122 -0.50638,0.04122c-0.33366,0 -0.50049,-0.01766 -0.50049,-0.05299v-1.71345c0,-0.19627 -0.06477,-0.29441 -0.19431,-0.29441c-0.06673,0 -0.15505,0.04318 -0.26497,0.12954v1.88421c0,0.03925 -0.16879,0.05888 -0.50638,0.05888c-0.33366,0 -0.50049,-0.02159 -0.50049,-0.06477v-1.92543h-0.1472c-0.12954,0 -0.19431,-0.13543 -0.19431,-0.40628c0,-0.12169 0.02355,-0.24534 0.07066,-0.37095c0.06281,-0.17272 0.16487,-0.25908 0.30618,-0.25908c0.14132,0 0.27674,0.03729 0.40628,0.11187c0.13346,0.07458 0.21394,0.14524 0.24141,0.21197c0.24338,-0.2159 0.51227,-0.32385 0.80668,-0.32385c0.29833,0 0.53778,0.09225 0.71835,0.27674c0.21197,-0.1845 0.46713,-0.27674 0.76546,-0.27674c0.6477,0 0.97155,0.39451 0.97155,1.18352v1.79c0,0.02748 -0.16879,0.04122 -0.50638,0.04122c-0.33366,0 -0.50049,-0.01766 -0.50049,-0.05299v-1.71345c0,-0.19627 -0.06477,-0.29441 -0.19431,-0.29441c-0.07066,0 -0.16094,0.04318 -0.27086,0.12954z" data-paper-data="{&quot;origPos&quot;:null}" id="path3761"/><path d="M272.36925,136.74902c-0.24338,-0.27086 -0.36507,-0.64573 -0.36507,-1.12464c0,-0.4789 0.12169,-0.85378 0.36507,-1.12464c0.2473,-0.27086 0.579,-0.40628 0.9951,-0.40628c0.4161,0 0.74583,0.13543 0.98921,0.40628c0.24338,0.27086 0.36507,0.64573 0.36507,1.12464c0,0.4789 -0.12169,0.85378 -0.36507,1.12464c-0.24338,0.27086 -0.57311,0.40628 -0.98921,0.40628c-0.4161,0 -0.7478,-0.13543 -0.9951,-0.40628zM273.36435,135.07679c-0.21982,0 -0.32974,0.18057 -0.32974,0.54171c0,0.36114 0.10991,0.54171 0.32974,0.54171c0.22375,0 0.33562,-0.18057 0.33562,-0.54171c0,-0.36114 -0.11187,-0.54171 -0.33562,-0.54171z" data-paper-data="{&quot;origPos&quot;:null}" id="path3763"/><path d="M276.37126,137.0611c0,0.02748 -0.14132,0.04122 -0.42395,0.04122c-0.39254,-0.01178 -0.58882,-0.03337 -0.58882,-0.06477v-1.90776h-0.15309c-0.10206,0 -0.16879,-0.08636 -0.2002,-0.25908c-0.00785,-0.05103 -0.01178,-0.10206 -0.01178,-0.15309c0,-0.12169 0.02355,-0.24338 0.07066,-0.36507c0.07066,-0.17272 0.18057,-0.25908 0.32974,-0.25908c0.14917,0 0.28263,0.03533 0.40039,0.10599c0.11776,0.07066 0.19627,0.14132 0.23553,0.21197c0.2473,-0.21197 0.54171,-0.31796 0.88322,-0.31796c0.34151,0 0.58882,0.09225 0.74191,0.27674c0.15309,0.1845 0.22964,0.48675 0.22964,0.90678v1.76645c0,0.04711 -0.16879,0.07066 -0.50638,0.07066c-0.33366,0 -0.50049,-0.02355 -0.50049,-0.07066v-1.70168c0,-0.19627 -0.0687,-0.29441 -0.20609,-0.29441c-0.03925,0 -0.09421,0.01766 -0.16487,0.05299c-0.07066,0.0314 -0.1158,0.05496 -0.13543,0.07066z" data-paper-data="{&quot;origPos&quot;:null}" id="path3765"/><path d="M278.50737,136.03656c0.31796,0.19235 0.56919,0.28852 0.75368,0.28852c0.11776,0 0.17664,-0.04122 0.17664,-0.12365c0,-0.05888 -0.10206,-0.13543 -0.30618,-0.22964c-0.49068,-0.2002 -0.73602,-0.52797 -0.73602,-0.98332c0,-0.29048 0.10599,-0.51227 0.31796,-0.66536c0.21197,-0.15309 0.46516,-0.22964 0.75957,-0.22964c0.29833,0 0.54956,0.0314 0.75368,0.09421c0.20805,0.06281 0.31207,0.14524 0.31207,0.2473c0,0.08636 -0.04318,0.2002 -0.12954,0.34151c-0.08243,0.14132 -0.13935,0.21786 -0.17076,0.22964c-0.16879,-0.09421 -0.35133,-0.14132 -0.5476,-0.14132c-0.10599,0 -0.15898,0.03729 -0.15898,0.11187c0,0.04711 0.01963,0.08832 0.05888,0.12365c0.04318,0.0314 0.11973,0.07262 0.22964,0.12365c0.10991,0.04711 0.2002,0.09029 0.27086,0.12954c0.07458,0.03925 0.15702,0.09421 0.2473,0.16487c0.18842,0.14917 0.28263,0.34348 0.28263,0.58293c0,0.31403 -0.10402,0.56919 -0.31207,0.76546c-0.20805,0.19235 -0.52208,0.28852 -0.9421,0.28852c-0.27871,0 -0.5319,-0.04711 -0.75957,-0.14132c-0.22768,-0.09421 -0.34151,-0.22375 -0.34151,-0.38862c0,-0.10991 0.02552,-0.22571 0.07655,-0.3474c0.05496,-0.12169 0.10991,-0.20216 0.16487,-0.24141z" data-paper-data="{&quot;origPos&quot;:null}" id="path3767"/><path d="M282.50377,134.95902c-0.10991,-0.19627 -0.16487,-0.35525 -0.16487,-0.47694c0,-0.12561 0.03337,-0.20609 0.1001,-0.24141c0.22375,-0.09814 0.52993,-0.1472 0.91855,-0.1472c0.39254,0 0.66929,0.09225 0.83023,0.27674c0.16094,0.18057 0.24141,0.44946 0.24141,0.80668v0.93033h0.2002c0.06673,0 0.11776,0.03925 0.15309,0.11776c0.03925,0.07851 0.05888,0.18646 0.05888,0.32385c0,0.13739 -0.03533,0.27282 -0.10599,0.40628c-0.06673,0.13346 -0.15898,0.2002 -0.27674,0.2002c-0.21197,0 -0.38273,-0.05692 -0.51227,-0.17076c-0.05888,-0.04711 -0.10402,-0.10402 -0.13543,-0.17076c-0.18057,0.22768 -0.46124,0.34151 -0.84201,0.34151c-0.28656,0 -0.52797,-0.10206 -0.72424,-0.30618c-0.19627,-0.20412 -0.29441,-0.44554 -0.29441,-0.72424c0,-0.63985 0.38273,-0.95977 1.14819,-0.95977h0.32385v-0.05888c0,-0.10206 -0.01766,-0.16683 -0.05299,-0.19431c-0.0314,-0.0314 -0.10795,-0.04711 -0.22964,-0.04711c-0.14917,0 -0.36114,0.0314 -0.63592,0.09421zM282.97483,136.04244c0,0.08636 0.02355,0.15309 0.07066,0.2002c0.04711,0.04318 0.10599,0.06477 0.17664,0.06477c0.07458,0 0.14132,-0.02944 0.2002,-0.08832v-0.45339h-0.16487c-0.18842,0 -0.28263,0.09225 -0.28263,0.27674z" data-paper-data="{&quot;origPos&quot;:null}" id="path3769"/><path d="M288.95176,137.06698c0,0.02748 -0.16879,0.04122 -0.50638,0.04122c-0.33366,0 -0.50049,-0.01766 -0.50049,-0.05299v-1.71345c0,-0.19627 -0.06477,-0.29441 -0.19431,-0.29441c-0.06673,0 -0.15505,0.04318 -0.26497,0.12954v1.88421c0,0.03925 -0.16879,0.05888 -0.50638,0.05888c-0.33366,0 -0.50049,-0.02159 -0.50049,-0.06477v-1.92543h-0.1472c-0.12954,0 -0.19431,-0.13543 -0.19431,-0.40628c0,-0.12169 0.02355,-0.24534 0.07066,-0.37095c0.06281,-0.17272 0.16487,-0.25908 0.30618,-0.25908c0.14132,0 0.27674,0.03729 0.40628,0.11187c0.13346,0.07458 0.21394,0.14524 0.24141,0.21197c0.24338,-0.2159 0.51227,-0.32385 0.80668,-0.32385c0.29833,0 0.53778,0.09225 0.71835,0.27674c0.21197,-0.1845 0.46713,-0.27674 0.76546,-0.27674c0.6477,0 0.97155,0.39451 0.97155,1.18352v1.79c0,0.02748 -0.16879,0.04122 -0.50638,0.04122c-0.33366,0 -0.50049,-0.01766 -0.50049,-0.05299v-1.71345c0,-0.19627 -0.06477,-0.29441 -0.19431,-0.29441c-0.07066,0 -0.16094,0.04318 -0.27086,0.12954z" data-paper-data="{&quot;origPos&quot;:null}" id="path3771"/><path d="M291.29,134.95902c-0.10991,-0.19627 -0.16487,-0.35525 -0.16487,-0.47694c0,-0.12561 0.03337,-0.20609 0.1001,-0.24141c0.22375,-0.09814 0.52993,-0.1472 0.91855,-0.1472c0.39254,0 0.66929,0.09225 0.83023,0.27674c0.16094,0.18057 0.24141,0.44946 0.24141,0.80668v0.93033h0.2002c0.06673,0 0.11776,0.03925 0.15309,0.11776c0.03925,0.07851 0.05888,0.18646 0.05888,0.32385c0,0.13739 -0.03533,0.27282 -0.10599,0.40628c-0.06673,0.13346 -0.15898,0.2002 -0.27674,0.2002c-0.21197,0 -0.38273,-0.05692 -0.51227,-0.17076c-0.05888,-0.04711 -0.10402,-0.10402 -0.13543,-0.17076c-0.18057,0.22768 -0.46124,0.34151 -0.84201,0.34151c-0.28656,0 -0.52797,-0.10206 -0.72424,-0.30618c-0.19627,-0.20412 -0.29441,-0.44554 -0.29441,-0.72424c0,-0.63985 0.38273,-0.95977 1.14819,-0.95977h0.32385v-0.05888c0,-0.10206 -0.01766,-0.16683 -0.05299,-0.19431c-0.0314,-0.0314 -0.10795,-0.04711 -0.22964,-0.04711c-0.14917,0 -0.36114,0.0314 -0.63592,0.09421zM291.76106,136.04244c0,0.08636 0.02355,0.15309 0.07066,0.2002c0.04711,0.04318 0.10599,0.06477 0.17664,0.06477c0.07458,0 0.14132,-0.02944 0.2002,-0.08832v-0.45339h-0.16487c-0.18842,0 -0.28263,0.09225 -0.28263,0.27674z" data-paper-data="{&quot;origPos&quot;:null}" id="path3773"/><path d="M294.09028,136.03656c0.31796,0.19235 0.56919,0.28852 0.75368,0.28852c0.11776,0 0.17664,-0.04122 0.17664,-0.12365c0,-0.05888 -0.10206,-0.13543 -0.30618,-0.22964c-0.49068,-0.2002 -0.73602,-0.52797 -0.73602,-0.98332c0,-0.29048 0.10599,-0.51227 0.31796,-0.66536c0.21197,-0.15309 0.46516,-0.22964 0.75957,-0.22964c0.29833,0 0.54956,0.0314 0.75368,0.09421c0.20805,0.06281 0.31207,0.14524 0.31207,0.2473c0,0.08636 -0.04318,0.2002 -0.12954,0.34151c-0.08243,0.14132 -0.13935,0.21786 -0.17076,0.22964c-0.16879,-0.09421 -0.35133,-0.14132 -0.5476,-0.14132c-0.10599,0 -0.15898,0.03729 -0.15898,0.11187c0,0.04711 0.01963,0.08832 0.05888,0.12365c0.04318,0.0314 0.11973,0.07262 0.22964,0.12365c0.10991,0.04711 0.2002,0.09029 0.27086,0.12954c0.07458,0.03925 0.15702,0.09421 0.2473,0.16487c0.18842,0.14917 0.28263,0.34348 0.28263,0.58293c0,0.31403 -0.10402,0.56919 -0.31207,0.76546c-0.20805,0.19235 -0.52208,0.28852 -0.9421,0.28852c-0.27871,0 -0.5319,-0.04711 -0.75957,-0.14132c-0.22768,-0.09421 -0.34151,-0.22375 -0.34151,-0.38862c0,-0.10991 0.02552,-0.22571 0.07655,-0.3474c0.05496,-0.12169 0.10991,-0.20216 0.16487,-0.24141z" data-paper-data="{&quot;origPos&quot;:null}" id="path3775"/><path d="M296.73535,136.03656c0.31796,0.19235 0.56919,0.28852 0.75368,0.28852c0.11776,0 0.17664,-0.04122 0.17664,-0.12365c0,-0.05888 -0.10206,-0.13543 -0.30618,-0.22964c-0.49068,-0.2002 -0.73602,-0.52797 -0.73602,-0.98332c0,-0.29048 0.10599,-0.51227 0.31796,-0.66536c0.21197,-0.15309 0.46516,-0.22964 0.75957,-0.22964c0.29833,0 0.54956,0.0314 0.75368,0.09421c0.20805,0.06281 0.31207,0.14524 0.31207,0.2473c0,0.08636 -0.04318,0.2002 -0.12954,0.34151c-0.08243,0.14132 -0.13935,0.21786 -0.17076,0.22964c-0.16879,-0.09421 -0.35133,-0.14132 -0.5476,-0.14132c-0.10599,0 -0.15898,0.03729 -0.15898,0.11187c0,0.04711 0.01963,0.08832 0.05888,0.12365c0.04318,0.0314 0.11973,0.07262 0.22964,0.12365c0.10991,0.04711 0.2002,0.09029 0.27086,0.12954c0.07458,0.03925 0.15702,0.09421 0.2473,0.16487c0.18842,0.14917 0.28263,0.34348 0.28263,0.58293c0,0.31403 -0.10402,0.56919 -0.31207,0.76546c-0.20805,0.19235 -0.52208,0.28852 -0.9421,0.28852c-0.27871,0 -0.5319,-0.04711 -0.75957,-0.14132c-0.22768,-0.09421 -0.34151,-0.22375 -0.34151,-0.38862c0,-0.10991 0.02552,-0.22571 0.07655,-0.3474c0.05496,-0.12169 0.10991,-0.20216 0.16487,-0.24141z" data-paper-data="{&quot;origPos&quot;:null}" id="path3777"/><path d="M300.3343,137.0611c0,0.0314 -0.18057,0.04711 -0.54171,0.04711c-0.35721,0 -0.53582,-0.01374 -0.53582,-0.04122v-2.89108c0,-0.02748 0.17861,-0.04122 0.53582,-0.04122c0.36114,0 0.54171,0.01178 0.54171,0.03533zM300.3343,133.82261c0,0.02748 -0.18057,0.04122 -0.54171,0.04122c-0.35721,0 -0.53582,-0.01178 -0.53582,-0.03533v-0.84789c0,-0.03925 0.17861,-0.05888 0.53582,-0.05888c0.36114,0 0.54171,0.01178 0.54171,0.03533z" data-paper-data="{&quot;origPos&quot;:null}" id="path3779"/><path d="M300.63717,134.17001c-0.01178,-0.0314 0.17076,-0.04711 0.5476,-0.04711c0.38077,0 0.57115,0.00981 0.57115,0.02944l0.42395,2.00197l0.31796,-1.97253c0.01178,-0.03533 0.20609,-0.05299 0.58293,-0.05299c0.38077,0 0.56526,0.0157 0.55349,0.04711l-0.83023,2.87931c-0.02748,0.03925 -0.26104,0.05888 -0.70069,0.05888c-0.43965,0 -0.67517,-0.02944 -0.70658,-0.08832z" data-paper-data="{&quot;origPos&quot;:null}" id="path3781"/><path d="M306.16311,136.93744c-0.2473,0.14524 -0.56526,0.21786 -0.95388,0.21786c-0.38862,0 -0.71639,-0.1315 -0.98332,-0.39451c-0.26693,-0.26693 -0.40039,-0.63396 -0.40039,-1.10108c0,-0.47105 0.12758,-0.84986 0.38273,-1.13641c0.25908,-0.28656 0.58489,-0.42984 0.97743,-0.42984c0.39254,0 0.6948,0.1001 0.90678,0.3003c0.2159,0.2002 0.32385,0.44357 0.32385,0.73013c0,0.63592 -0.36507,0.95388 -1.0952,0.95388h-0.40628c0,0.11776 0.0314,0.2002 0.09421,0.2473c0.06673,0.04318 0.16291,0.06477 0.28852,0.06477c0.27478,0 0.53582,-0.06281 0.78312,-0.18842c0.00393,-0.00393 0.02159,0.02355 0.05299,0.08243c0.09421,0.16879 0.14132,0.31207 0.14132,0.42984c0,0.11384 -0.03729,0.18842 -0.11187,0.22375zM305.42709,135.23577c0,-0.16487 -0.08047,-0.2473 -0.24141,-0.2473c-0.07458,0 -0.13935,0.02355 -0.19431,0.07066c-0.05103,0.04318 -0.07655,0.10795 -0.07655,0.19431v0.18253h0.31796c0.12954,0 0.19431,-0.06673 0.19431,-0.2002z" data-paper-data="{&quot;origPos&quot;:null}" id="path3783"/><path d="M307.93443,132.99238c0,-0.04711 0.16879,-0.07066 0.50638,-0.07066c0.34151,0 0.51227,0.02552 0.51227,0.07655v1.1423c0.16879,-0.0314 0.28852,-0.04711 0.35918,-0.04711c0.82434,0 1.23651,0.47301 1.23651,1.41904c0,0.52601 -0.12758,0.93229 -0.38273,1.21885c-0.25123,0.28263 -0.61041,0.42395 -1.07753,0.42395c-0.4632,0 -0.84789,-0.10402 -1.15408,-0.31207zM309.14739,135.01202c-0.06673,0 -0.1315,0.02159 -0.19431,0.06477v1.12464c0.05496,0.02355 0.11187,0.03533 0.17076,0.03533c0.06281,0 0.12561,-0.02355 0.18842,-0.07066c0.10991,-0.07851 0.16487,-0.26104 0.16487,-0.5476c0,-0.40432 -0.10991,-0.60648 -0.32974,-0.60648z" data-paper-data="{&quot;origPos&quot;:null}" id="path3785"/><path d="M313.1898,136.93744c-0.2473,0.14524 -0.56526,0.21786 -0.95388,0.21786c-0.38862,0 -0.71639,-0.1315 -0.98332,-0.39451c-0.26693,-0.26693 -0.40039,-0.63396 -0.40039,-1.10108c0,-0.47105 0.12758,-0.84986 0.38273,-1.13641c0.25908,-0.28656 0.58489,-0.42984 0.97743,-0.42984c0.39254,0 0.6948,0.1001 0.90678,0.3003c0.2159,0.2002 0.32385,0.44357 0.32385,0.73013c0,0.63592 -0.36507,0.95388 -1.0952,0.95388h-0.40628c0,0.11776 0.0314,0.2002 0.09421,0.2473c0.06673,0.04318 0.16291,0.06477 0.28852,0.06477c0.27478,0 0.53582,-0.06281 0.78312,-0.18842c0.00393,-0.00393 0.02159,0.02355 0.05299,0.08243c0.09421,0.16879 0.14132,0.31207 0.14132,0.42984c0,0.11384 -0.03729,0.18842 -0.11187,0.22375zM312.45378,135.23577c0,-0.16487 -0.08047,-0.2473 -0.24141,-0.2473c-0.07458,0 -0.13935,0.02355 -0.19431,0.07066c-0.05103,0.04318 -0.07655,0.10795 -0.07655,0.19431v0.18253h0.31796c0.12954,0 0.19431,-0.06673 0.19431,-0.2002z" data-paper-data="{&quot;origPos&quot;:null}" id="path3787"/><path d="M314.1986,134.95902c-0.10991,-0.19627 -0.16487,-0.35525 -0.16487,-0.47694c0,-0.12561 0.03337,-0.20609 0.1001,-0.24141c0.22375,-0.09814 0.52993,-0.1472 0.91855,-0.1472c0.39254,0 0.66929,0.09225 0.83023,0.27674c0.16094,0.18057 0.24141,0.44946 0.24141,0.80668v0.93033h0.2002c0.06673,0 0.11776,0.03925 0.15309,0.11776c0.03925,0.07851 0.05888,0.18646 0.05888,0.32385c0,0.13739 -0.03533,0.27282 -0.10599,0.40628c-0.06673,0.13346 -0.15898,0.2002 -0.27674,0.2002c-0.21197,0 -0.38273,-0.05692 -0.51227,-0.17076c-0.05888,-0.04711 -0.10402,-0.10402 -0.13543,-0.17076c-0.18057,0.22768 -0.46124,0.34151 -0.84201,0.34151c-0.28656,0 -0.52797,-0.10206 -0.72424,-0.30618c-0.19627,-0.20412 -0.29441,-0.44554 -0.29441,-0.72424c0,-0.63985 0.38273,-0.95977 1.14819,-0.95977h0.32385v-0.05888c0,-0.10206 -0.01766,-0.16683 -0.05299,-0.19431c-0.0314,-0.0314 -0.10795,-0.04711 -0.22964,-0.04711c-0.14917,0 -0.36114,0.0314 -0.63592,0.09421zM314.66965,136.04244c0,0.08636 0.02355,0.15309 0.07066,0.2002c0.04711,0.04318 0.10599,0.06477 0.17664,0.06477c0.07458,0 0.14132,-0.02944 0.2002,-0.08832v-0.45339h-0.16487c-0.18842,0 -0.28263,0.09225 -0.28263,0.27674z" data-paper-data="{&quot;origPos&quot;:null}" id="path3789"/><path d="M318.16473,137.09054c0,0.02748 -0.17861,0.04122 -0.53582,0.04122c-0.35721,-0.00785 -0.53582,-0.02355 -0.53582,-0.04711v-1.95487h-0.15898c-0.06281,0 -0.11384,-0.03729 -0.15309,-0.11187c-0.03533,-0.07851 -0.05299,-0.17468 -0.05299,-0.28852c0,-0.42395 0.12561,-0.63592 0.37684,-0.63592c0.17664,0 0.32385,0.05496 0.44161,0.16487c0.11776,0.10599 0.17664,0.22768 0.17664,0.36507c0.08243,-0.16094 0.19235,-0.28852 0.32974,-0.38273c0.14132,-0.09814 0.28459,-0.1472 0.42984,-0.1472c0.22768,0 0.36507,0.05888 0.41217,0.17664c0.01178,0.0314 0.01766,0.07851 0.01766,0.14132c0,0.05888 -0.01963,0.16683 -0.05888,0.32385c-0.03533,0.15702 -0.07262,0.27086 -0.11187,0.34151c-0.03925,0.07066 -0.06281,0.10599 -0.07066,0.10599c-0.00785,0 -0.04514,-0.01374 -0.11187,-0.04122c-0.06281,-0.0314 -0.11973,-0.04711 -0.17076,-0.04711c-0.14917,0 -0.22375,0.11776 -0.22375,0.35329z" data-paper-data="{&quot;origPos&quot;:null}" id="path3791"/><path d="M321.66809,137.0611c0,0.04711 -0.16487,0.07066 -0.4946,0.07066c-0.39254,-0.0157 -0.58882,-0.04122 -0.58882,-0.07655v-2.08441h-0.3003c-0.07851,0 -0.11776,-0.13543 -0.11776,-0.40628c0,-0.07066 0.00589,-0.15702 0.01766,-0.25908c0.0157,-0.10206 0.04514,-0.15309 0.08832,-0.15309h0.31207v-0.51816c0,-0.07851 0.16487,-0.11776 0.4946,-0.11776c0.33366,0 0.50049,0.0314 0.50049,0.09421v0.37684l0.00589,0.16487h0.50049c0.06673,0 0.1001,0.13739 0.1001,0.41217c0,0.27478 -0.03337,0.41217 -0.1001,0.41217h-0.41806z" data-paper-data="{&quot;origPos&quot;:null}" id="path3793"/><path d="M322.72906,136.74902c-0.24338,-0.27086 -0.36507,-0.64573 -0.36507,-1.12464c0,-0.4789 0.12169,-0.85378 0.36507,-1.12464c0.2473,-0.27086 0.579,-0.40628 0.9951,-0.40628c0.4161,0 0.74583,0.13543 0.98921,0.40628c0.24338,0.27086 0.36507,0.64573 0.36507,1.12464c0,0.4789 -0.12169,0.85378 -0.36507,1.12464c-0.24338,0.27086 -0.57311,0.40628 -0.98921,0.40628c-0.4161,0 -0.7478,-0.13543 -0.9951,-0.40628zM323.72416,135.07679c-0.21982,0 -0.32974,0.18057 -0.32974,0.54171c0,0.36114 0.10991,0.54171 0.32974,0.54171c0.22375,0 0.33562,-0.18057 0.33562,-0.54171c0,-0.36114 -0.11187,-0.54171 -0.33562,-0.54171z" data-paper-data="{&quot;origPos&quot;:null}" id="path3795"/><path d="M326.83412,134.93547h-0.28852c-0.05888,0 -0.08832,-0.12954 -0.08832,-0.38862c0,-0.263 0.02944,-0.39451 0.08832,-0.39451h0.28852v-0.12954c0,-0.4161 0.08636,-0.70265 0.25908,-0.85967c0.17664,-0.16094 0.42198,-0.24141 0.73602,-0.24141c0.31403,0 0.59078,0.05692 0.83023,0.17076c0.0314,0.01178 0.04711,0.05496 0.04711,0.12954c0,0.07066 -0.03337,0.18646 -0.1001,0.3474c-0.06673,0.16094 -0.12365,0.25319 -0.17076,0.27674c-0.13346,-0.08243 -0.27086,-0.12365 -0.41217,-0.12365c-0.15309,0 -0.22964,0.10206 -0.22964,0.30618v0.12365h0.48872c0.07066,0 0.10599,0.12561 0.10599,0.37684c0,0.27478 -0.04514,0.41217 -0.13543,0.41217h-0.37684v2.08441c0,0.04711 -0.17468,0.07066 -0.52405,0.07066c-0.34544,0 -0.51816,-0.02355 -0.51816,-0.07066z" data-paper-data="{&quot;origPos&quot;:null}" id="path3797"/><path d="M329.89007,137.0611c0,0.0314 -0.18057,0.04711 -0.54171,0.04711c-0.35721,0 -0.53582,-0.01374 -0.53582,-0.04122v-2.89108c0,-0.02748 0.17861,-0.04122 0.53582,-0.04122c0.36114,0 0.54171,0.01178 0.54171,0.03533zM329.89007,133.82261c0,0.02748 -0.18057,0.04122 -0.54171,0.04122c-0.35721,0 -0.53582,-0.01178 -0.53582,-0.03533v-0.84789c0,-0.03925 0.17861,-0.05888 0.53582,-0.05888c0.36114,0 0.54171,0.01178 0.54171,0.03533z" data-paper-data="{&quot;origPos&quot;:null}" id="path3799"/><path d="M331.506,137.09642c-0.38077,0 -0.67517,-0.12169 -0.88322,-0.36507c-0.20805,-0.2473 -0.31207,-0.61041 -0.31207,-1.08931c0,-0.48283 0.13543,-0.85967 0.40628,-1.13053c0.27478,-0.27478 0.63788,-0.41217 1.08931,-0.41217c0.45535,0 0.83023,0.1001 1.12464,0.3003v2.9323c0,0.29048 -0.11776,0.51227 -0.35329,0.66536c-0.23553,0.15702 -0.53778,0.23553 -0.90678,0.23553c-0.36899,0 -0.69873,-0.04711 -0.98921,-0.14132c-0.03925,-0.09421 -0.05888,-0.17861 -0.05888,-0.25319c0,-0.25123 0.04122,-0.43572 0.12365,-0.55349c0.263,0.11384 0.54367,0.17076 0.84201,0.17076c0.2159,0 0.32385,-0.07655 0.32385,-0.22964v-0.17664c-0.16879,0.0314 -0.30422,0.04711 -0.40628,0.04711zM331.77686,135.05912c-0.263,0 -0.39451,0.19823 -0.39451,0.5947c0,0.2473 0.05103,0.40825 0.15309,0.48283c0.06673,0.05103 0.13346,0.07655 0.2002,0.07655c0.06673,0 0.12561,-0.00589 0.17664,-0.01766v-1.11875c-0.04711,-0.01178 -0.09225,-0.01766 -0.13543,-0.01766z" data-paper-data="{&quot;origPos&quot;:null}" id="path3801"/><path d="M334.44198,137.05521c0,0.03533 -0.16487,0.05299 -0.4946,0.05299c-0.32581,0 -0.48872,-0.02748 -0.48872,-0.08243v-4.03339c0,-0.02748 0.06084,-0.04711 0.18253,-0.05888c0.12169,-0.01178 0.22375,-0.01766 0.30618,-0.01766c0.32974,0 0.4946,0.03533 0.4946,0.10599v1.17763c0.21982,-0.06673 0.38666,-0.1001 0.50049,-0.1001c0.29833,0 0.53386,0.08047 0.70658,0.24141c0.17272,0.15702 0.25908,0.45143 0.25908,0.88322v1.82533c0,0.03533 -0.15309,0.05299 -0.45928,0.05299c-0.34544,-0.01178 -0.51816,-0.0314 -0.51816,-0.05888v-1.73112c0,-0.19235 -0.06281,-0.28852 -0.18842,-0.28852c-0.08636,0 -0.18646,0.04122 -0.3003,0.12365z" data-paper-data="{&quot;origPos&quot;:null}" id="path3803"/><path d="M337.76851,137.0611c0,0.04711 -0.16487,0.07066 -0.4946,0.07066c-0.39254,-0.0157 -0.58882,-0.04122 -0.58882,-0.07655v-2.08441h-0.3003c-0.07851,0 -0.11776,-0.13543 -0.11776,-0.40628c0,-0.07066 0.00589,-0.15702 0.01766,-0.25908c0.0157,-0.10206 0.04514,-0.15309 0.08832,-0.15309h0.31207v-0.51816c0,-0.07851 0.16487,-0.11776 0.4946,-0.11776c0.33366,0 0.50049,0.0314 0.50049,0.09421v0.37684l0.00589,0.16487h0.50049c0.06673,0 0.1001,0.13739 0.1001,0.41217c0,0.27478 -0.03337,0.41217 -0.1001,0.41217h-0.41806z" data-paper-data="{&quot;origPos&quot;:null}" id="path3805"/><path d="M339.70976,132.99238c0,-0.04711 0.16879,-0.07066 0.50638,-0.07066c0.34151,0 0.51227,0.02552 0.51227,0.07655v1.1423c0.16879,-0.0314 0.28852,-0.04711 0.35918,-0.04711c0.82434,0 1.23651,0.47301 1.23651,1.41904c0,0.52601 -0.12758,0.93229 -0.38273,1.21885c-0.25123,0.28263 -0.61041,0.42395 -1.07753,0.42395c-0.4632,0 -0.84789,-0.10402 -1.15408,-0.31207zM340.92272,135.01202c-0.06673,0 -0.1315,0.02159 -0.19431,0.06477v1.12464c0.05496,0.02355 0.11187,0.03533 0.17076,0.03533c0.06281,0 0.12561,-0.02355 0.18842,-0.07066c0.10991,-0.07851 0.16487,-0.26104 0.16487,-0.5476c0,-0.40432 -0.10991,-0.60648 -0.32974,-0.60648z" data-paper-data="{&quot;origPos&quot;:null}" id="path3807"/><path d="M342.53331,134.18179c0,-0.04318 0.17861,-0.06477 0.53582,-0.06477c0.36114,0 0.5476,0.01963 0.55937,0.05888l0.42395,1.3896l0.40628,-1.40138c0.0157,-0.0314 0.13739,-0.04711 0.36507,-0.04711c0.52208,0 0.77135,0.02552 0.7478,0.07655l-1.38372,3.93917c-0.00393,0.02355 -0.11187,0.03533 -0.32385,0.03533c-0.20805,0 -0.40236,-0.00785 -0.58293,-0.02355c-0.18057,-0.01178 -0.26693,-0.02748 -0.25908,-0.04711l0.51227,-1.23651z" data-paper-data="{&quot;origPos&quot;:null}" id="path3809"/><path d="M347.98933,137.05521c0,0.03533 -0.16487,0.05299 -0.4946,0.05299c-0.32581,0 -0.48872,-0.02748 -0.48872,-0.08243v-4.03339c0,-0.02748 0.06084,-0.04711 0.18253,-0.05888c0.12169,-0.01178 0.22375,-0.01766 0.30618,-0.01766c0.32974,0 0.4946,0.03533 0.4946,0.10599v1.17763c0.21982,-0.06673 0.38666,-0.1001 0.50049,-0.1001c0.29833,0 0.53386,0.08047 0.70658,0.24141c0.17272,0.15702 0.25908,0.45143 0.25908,0.88322v1.82533c0,0.03533 -0.15309,0.05299 -0.45928,0.05299c-0.34544,-0.01178 -0.51816,-0.0314 -0.51816,-0.05888v-1.73112c0,-0.19235 -0.06281,-0.28852 -0.18842,-0.28852c-0.08636,0 -0.18646,0.04122 -0.3003,0.12365z" data-paper-data="{&quot;origPos&quot;:null}" id="path3811"/><path d="M352.1873,136.93744c-0.2473,0.14524 -0.56526,0.21786 -0.95388,0.21786c-0.38862,0 -0.71639,-0.1315 -0.98332,-0.39451c-0.26693,-0.26693 -0.40039,-0.63396 -0.40039,-1.10108c0,-0.47105 0.12758,-0.84986 0.38273,-1.13641c0.25908,-0.28656 0.58489,-0.42984 0.97743,-0.42984c0.39254,0 0.6948,0.1001 0.90678,0.3003c0.2159,0.2002 0.32385,0.44357 0.32385,0.73013c0,0.63592 -0.36507,0.95388 -1.0952,0.95388h-0.40628c0,0.11776 0.0314,0.2002 0.09421,0.2473c0.06673,0.04318 0.16291,0.06477 0.28852,0.06477c0.27478,0 0.53582,-0.06281 0.78312,-0.18842c0.00393,-0.00393 0.02159,0.02355 0.05299,0.08243c0.09421,0.16879 0.14132,0.31207 0.14132,0.42984c0,0.11384 -0.03729,0.18842 -0.11187,0.22375zM351.45128,135.23577c0,-0.16487 -0.08047,-0.2473 -0.24141,-0.2473c-0.07458,0 -0.13935,0.02355 -0.19431,0.07066c-0.05103,0.04318 -0.07655,0.10795 -0.07655,0.19431v0.18253h0.31796c0.12954,0 0.19431,-0.06673 0.19431,-0.2002z" data-paper-data="{&quot;origPos&quot;:null}" id="path3813"/><path d="M354.11467,137.09054c0,0.02748 -0.17861,0.04122 -0.53582,0.04122c-0.35721,-0.00785 -0.53582,-0.02355 -0.53582,-0.04711v-1.95487h-0.15898c-0.06281,0 -0.11384,-0.03729 -0.15309,-0.11187c-0.03533,-0.07851 -0.05299,-0.17468 -0.05299,-0.28852c0,-0.42395 0.12561,-0.63592 0.37684,-0.63592c0.17664,0 0.32385,0.05496 0.44161,0.16487c0.11776,0.10599 0.17664,0.22768 0.17664,0.36507c0.08243,-0.16094 0.19235,-0.28852 0.32974,-0.38273c0.14132,-0.09814 0.28459,-0.1472 0.42984,-0.1472c0.22768,0 0.36507,0.05888 0.41217,0.17664c0.01178,0.0314 0.01766,0.07851 0.01766,0.14132c0,0.05888 -0.01963,0.16683 -0.05888,0.32385c-0.03533,0.15702 -0.07262,0.27086 -0.11187,0.34151c-0.03925,0.07066 -0.06281,0.10599 -0.07066,0.10599c-0.00785,0 -0.04514,-0.01374 -0.11187,-0.04122c-0.06281,-0.0314 -0.11973,-0.04711 -0.17076,-0.04711c-0.14917,0 -0.22375,0.11776 -0.22375,0.35329z" data-paper-data="{&quot;origPos&quot;:null}" id="path3815"/><path d="M356.3874,136.03656c0.31796,0.19235 0.56919,0.28852 0.75368,0.28852c0.11776,0 0.17664,-0.04122 0.17664,-0.12365c0,-0.05888 -0.10206,-0.13543 -0.30618,-0.22964c-0.49068,-0.2002 -0.73602,-0.52797 -0.73602,-0.98332c0,-0.29048 0.10599,-0.51227 0.31796,-0.66536c0.21197,-0.15309 0.46516,-0.22964 0.75957,-0.22964c0.29833,0 0.54956,0.0314 0.75368,0.09421c0.20805,0.06281 0.31207,0.14524 0.31207,0.2473c0,0.08636 -0.04318,0.2002 -0.12954,0.34151c-0.08243,0.14132 -0.13935,0.21786 -0.17076,0.22964c-0.16879,-0.09421 -0.35133,-0.14132 -0.5476,-0.14132c-0.10599,0 -0.15898,0.03729 -0.15898,0.11187c0,0.04711 0.01963,0.08832 0.05888,0.12365c0.04318,0.0314 0.11973,0.07262 0.22964,0.12365c0.10991,0.04711 0.2002,0.09029 0.27086,0.12954c0.07458,0.03925 0.15702,0.09421 0.2473,0.16487c0.18842,0.14917 0.28263,0.34348 0.28263,0.58293c0,0.31403 -0.10402,0.56919 -0.31207,0.76546c-0.20805,0.19235 -0.52208,0.28852 -0.9421,0.28852c-0.27871,0 -0.5319,-0.04711 -0.75957,-0.14132c-0.22768,-0.09421 -0.34151,-0.22375 -0.34151,-0.38862c0,-0.10991 0.02552,-0.22571 0.07655,-0.3474c0.05496,-0.12169 0.10991,-0.20216 0.16487,-0.24141z" data-paper-data="{&quot;origPos&quot;:null}" id="path3817"/><path d="M359.98635,137.0611c0,0.0314 -0.18057,0.04711 -0.54171,0.04711c-0.35721,0 -0.53582,-0.01374 -0.53582,-0.04122v-2.89108c0,-0.02748 0.17861,-0.04122 0.53582,-0.04122c0.36114,0 0.54171,0.01178 0.54171,0.03533zM359.98635,133.82261c0,0.02748 -0.18057,0.04122 -0.54171,0.04122c-0.35721,0 -0.53582,-0.01178 -0.53582,-0.03533v-0.84789c0,-0.03925 0.17861,-0.05888 0.53582,-0.05888c0.36114,0 0.54171,0.01178 0.54171,0.03533z" data-paper-data="{&quot;origPos&quot;:null}" id="path3819"/><path d="M362.00857,133.01005c0,-0.05888 0.15505,-0.08832 0.46516,-0.08832c0.10599,0 0.22768,0.00785 0.36507,0.02355c0.14132,0.01178 0.21197,0.02944 0.21197,0.05299v3.10306h0.20609c0.09814,0 0.16291,0.08832 0.19431,0.26497c0.00785,0.05103 0.01178,0.12169 0.01178,0.21197c0,0.08636 -0.02748,0.19235 -0.08243,0.31796c-0.07851,0.17272 -0.20412,0.25908 -0.37684,0.25908c-0.12954,0 -0.24534,-0.02552 -0.3474,-0.07655c-0.09814,-0.05103 -0.16487,-0.10402 -0.2002,-0.15898l-0.05299,-0.07655c-0.2159,0.20805 -0.48675,0.31207 -0.81257,0.31207c-0.32581,0 -0.60452,-0.13543 -0.83612,-0.40628c-0.2316,-0.27086 -0.3474,-0.6477 -0.3474,-1.13053c0,-0.48675 0.12169,-0.86163 0.36507,-1.12464c0.24338,-0.26693 0.5476,-0.40039 0.91266,-0.40039c0.10599,0 0.21394,0.01178 0.32385,0.03533zM361.81426,135.03557c-0.21982,0 -0.32974,0.19823 -0.32974,0.5947c0,0.2002 0.0314,0.34544 0.09421,0.43572c0.06281,0.08636 0.1315,0.12954 0.20609,0.12954c0.07851,0 0.15309,-0.03337 0.22375,-0.1001v-1.00099c-0.06673,-0.03925 -0.1315,-0.05888 -0.19431,-0.05888z" data-paper-data="{&quot;origPos&quot;:null}" id="path3821"/><path d="M366.06817,136.93744c-0.2473,0.14524 -0.56526,0.21786 -0.95388,0.21786c-0.38862,0 -0.71639,-0.1315 -0.98332,-0.39451c-0.26693,-0.26693 -0.40039,-0.63396 -0.40039,-1.10108c0,-0.47105 0.12758,-0.84986 0.38273,-1.13641c0.25908,-0.28656 0.58489,-0.42984 0.97743,-0.42984c0.39254,0 0.6948,0.1001 0.90678,0.3003c0.2159,0.2002 0.32385,0.44357 0.32385,0.73013c0,0.63592 -0.36507,0.95388 -1.0952,0.95388h-0.40628c0,0.11776 0.0314,0.2002 0.09421,0.2473c0.06673,0.04318 0.16291,0.06477 0.28852,0.06477c0.27478,0 0.53582,-0.06281 0.78312,-0.18842c0.00393,-0.00393 0.02159,0.02355 0.05299,0.08243c0.09421,0.16879 0.14132,0.31207 0.14132,0.42984c0,0.11384 -0.03729,0.18842 -0.11187,0.22375zM365.33215,135.23577c0,-0.16487 -0.08047,-0.2473 -0.24141,-0.2473c-0.07458,0 -0.13935,0.02355 -0.19431,0.07066c-0.05103,0.04318 -0.07655,0.10795 -0.07655,0.19431v0.18253h0.31796c0.12954,0 0.19431,-0.06673 0.19431,-0.2002z" data-paper-data="{&quot;origPos&quot;:null}" id="path3823"/><path d="M367.67756,135.85991c0,0.02355 -0.14132,0.03533 -0.42395,0.03533c-0.27871,0 -0.41806,-0.00981 -0.41806,-0.02944l-0.11776,-2.90286c0,-0.0314 0.17861,-0.04711 0.53582,-0.04711c0.36114,0 0.54171,0.01374 0.54171,0.04122zM366.70602,136.2132c0,-0.02748 0.18057,-0.04122 0.54171,-0.04122c0.36507,0 0.5476,0.01178 0.5476,0.03533v0.84789c0,0.03925 -0.18253,0.05888 -0.5476,0.05888c-0.36114,0 -0.54171,-0.01178 -0.54171,-0.03533z" data-paper-data="{&quot;origPos&quot;:null}" id="path3825"/></g></g></svg>