<svg version="1.1" xmlns="http://www.w3.org/2000/svg" xmlns:xlink="http://www.w3.org/1999/xlink" width="49.00674" height="56.55686" viewBox="0,0,49.00674,56.55686"><defs><linearGradient x1="241.39865" y1="172.05625" x2="241.39865" y2="205.58006" gradientUnits="userSpaceOnUse" id="color-1"><stop offset="0" stop-color="#ffee00"/><stop offset="1" stop-color="#ffad00"/></linearGradient><linearGradient x1="239.94796" y1="185.93598" x2="239.94796" y2="193.42456" gradientUnits="userSpaceOnUse" id="color-2"><stop offset="0" stop-color="#ffee00"/><stop offset="1" stop-color="#ffad00"/></linearGradient><linearGradient x1="248.24582" y1="189.9419" x2="248.24582" y2="190.88075" gradientUnits="userSpaceOnUse" id="color-3"><stop offset="0" stop-color="#ffbd00"/><stop offset="1" stop-color="#ffb700"/></linearGradient><linearGradient x1="248.24582" y1="189.8417" x2="248.24582" y2="190.78055" gradientUnits="userSpaceOnUse" id="color-4"><stop offset="0" stop-color="#ffbd00"/><stop offset="1" stop-color="#ffb700"/></linearGradient><linearGradient x1="232.32476" y1="189.84171" x2="232.32476" y2="190.78056" gradientUnits="userSpaceOnUse" id="color-5"><stop offset="0" stop-color="#ffbd00"/><stop offset="1" stop-color="#ffb700"/></linearGradient><linearGradient x1="239.94796" y1="185.93598" x2="239.94796" y2="193.42456" gradientUnits="userSpaceOnUse" id="color-6"><stop offset="0" stop-color="#ffee00"/><stop offset="1" stop-color="#ffad00"/></linearGradient><linearGradient x1="248.24582" y1="189.9419" x2="248.24582" y2="190.88075" gradientUnits="userSpaceOnUse" id="color-7"><stop offset="0" stop-color="#ffbd00"/><stop offset="1" stop-color="#ffb700"/></linearGradient><linearGradient x1="248.24582" y1="189.8417" x2="248.24582" y2="190.78055" gradientUnits="userSpaceOnUse" id="color-8"><stop offset="0" stop-color="#ffbd00"/><stop offset="1" stop-color="#ffb700"/></linearGradient><linearGradient x1="232.32476" y1="189.84171" x2="232.32476" y2="190.78056" gradientUnits="userSpaceOnUse" id="color-9"><stop offset="0" stop-color="#ffbd00"/><stop offset="1" stop-color="#ffb700"/></linearGradient><linearGradient x1="241.39865" y1="172.05625" x2="241.39865" y2="205.58006" gradientUnits="userSpaceOnUse" id="color-10"><stop offset="0" stop-color="#ffee00"/><stop offset="1" stop-color="#ffad00"/></linearGradient><linearGradient x1="235.48268" y1="193.67824" x2="235.48268" y2="195.05349" gradientUnits="userSpaceOnUse" id="color-11"><stop offset="0" stop-color="#ffbd00"/><stop offset="1" stop-color="#ffb700"/></linearGradient><linearGradient x1="246.72609" y1="193.97494" x2="246.72609" y2="195.3502" gradientUnits="userSpaceOnUse" id="color-12"><stop offset="0" stop-color="#ffbd00"/><stop offset="1" stop-color="#ffb700"/></linearGradient><linearGradient x1="241.33162" y1="185.79534" x2="241.33162" y2="196.76487" gradientUnits="userSpaceOnUse" id="color-13"><stop offset="0" stop-color="#ffee00"/><stop offset="1" stop-color="#ffad00"/></linearGradient><radialGradient cx="241.79499" cy="188.97421" r="20.10964" gradientUnits="userSpaceOnUse" id="color-14"><stop offset="0" stop-color="#bf8600" stop-opacity="0"/><stop offset="1" stop-color="#bf8600"/></radialGradient></defs><g transform="translate(-216.89527,-152.0232)"><g data-paper-data="{&quot;isPaintingLayer&quot;:true}" fill-rule="nonzero" stroke-linejoin="miter" stroke-miterlimit="10" stroke-dasharray="" stroke-dashoffset="0" style="mix-blend-mode: normal"><path d="M219.89528,197.19911c0,-6.46696 0,-14.87428 0,-18.33333c0,-3.01664 1.08798,-6.80952 2.35193,-6.80952c4.10942,0 26.65323,0 36.28693,0c2.68557,0 4.36787,4.13621 4.36787,7.33333c0,3.65285 -0.168,11.41416 -0.168,17.80952c0,4.18291 -1.44586,8.38095 -4.03188,8.38095c-9.30562,0 -31.19958,0 -35.78295,0c-1.65838,0 -3.02391,-3.67722 -3.02391,-8.38095z" fill="url(#color-1)" stroke="#bf8600" stroke-width="6" stroke-linecap="butt"/><text transform="translate(219.04737,173.7732) scale(0.5,0.5)" font-size="40" xml:space="preserve" fill="#bf8600" fill-rule="nonzero" stroke="none" stroke-width="1" stroke-linecap="butt" stroke-linejoin="miter" stroke-miterlimit="10" stroke-dasharray="" stroke-dashoffset="0" font-family="Sans Serif" font-weight="normal" text-anchor="start" style="mix-blend-mode: normal"><tspan x="0" dy="0"> </tspan></text><path d="M234.0109,190.56644c0,-3.84274 3.11516,-6.9579 6.9579,-6.9579c3.84274,0 6.9579,3.11516 6.9579,6.9579c0,3.84274 -3.11516,6.9579 -6.9579,6.9579c-3.84274,0 -6.9579,-3.11516 -6.9579,-6.9579z" fill="none" stroke="none" stroke-width="0" stroke-linecap="butt"/><path d="M238.54601,195.89039c-0.01243,0.43462 -0.47183,0.45795 -0.73404,0.19574c-0.40341,-0.40341 -0.06442,-1.14052 -0.04894,-1.71082v0c0,-0.00506 0.0001,-0.01009 0.00029,-0.0151c0.00793,-0.20921 0.18004,-0.37639 0.3912,-0.37639c0.14334,0 0.26868,0.07703 0.3369,0.19196c0.02803,0.03554 0.04543,0.08285 0.05197,0.15401c0.00173,0.01493 0.00262,0.03012 0.00262,0.04552c0.0137,0.50484 0.01444,1.01026 0,1.51507z" fill="#ffae00" stroke="#bf8600" stroke-width="2.5" stroke-linecap="butt"/><path d="M241.99934,194.21855c0.00879,0.01563 0.01699,0.03567 0.02461,0.0596c0.00901,0.02428 0.01567,0.0497 0.01973,0.07598c0.0935,0.43459 0.07959,1.55658 0.04982,1.93705c-0.01613,0.20616 -0.11706,0.39149 -0.39149,0.39149c-0.55912,0 -0.44863,-1.97534 -0.43671,-2.26837c0,-0.00728 0.0002,-0.01451 0.00059,-0.02168c0.01125,-0.20613 0.18196,-0.3698 0.3909,-0.3698c0.1274,0 0.24059,0.06086 0.31208,0.15509c0.01167,0.01205 0.02194,0.02549 0.03047,0.04066z" fill="#ffae00" stroke="#bf8600" stroke-width="2.5" stroke-linecap="butt"/><path d="M245.34922,185.69277l-0.17008,7.85456l-9.83721,-0.42552l-0.13437,-7.43608z" fill="url(#color-2)" stroke="#bf8600" stroke-width="2.5" stroke-linecap="butt"/><g fill="#ffae00" stroke="none" stroke-width="0.5" stroke-linecap="butt"><path d="M238.77579,196.10596c-0.01416,0.49512 -0.53751,0.5217 -0.83622,0.22299c-0.45957,-0.45956 -0.07338,-1.29928 -0.05575,-1.94896v0c0,-0.00576 0.00011,-0.01149 0.00033,-0.0172c0.00904,-0.23834 0.20511,-0.42878 0.44566,-0.42878c0.16329,0 0.30608,0.08776 0.38379,0.21868c0.03193,0.04048 0.05175,0.09439 0.05921,0.17545c0.00197,0.01701 0.00298,0.03432 0.00298,0.05185c0.01561,0.57511 0.01645,1.15089 0,1.72597z"/><path d="M241.68254,193.74482c0.01002,0.01781 0.01935,0.04063 0.02804,0.0679c0.01026,0.02766 0.01786,0.05662 0.02247,0.08655c0.10652,0.49508 0.09067,1.77326 0.05676,2.20669c-0.01838,0.23486 -0.13335,0.44598 -0.44598,0.44598c-0.63695,0 -0.51108,-2.25031 -0.4975,-2.58413c0,-0.00829 0.00023,-0.01653 0.00067,-0.0247c0.01282,-0.23482 0.20729,-0.42128 0.44531,-0.42128c0.14514,0 0.27408,0.06933 0.35552,0.17668c0.01329,0.01373 0.02499,0.02904 0.03471,0.04632z"/></g><path d="M239.63097,189.41793c0,-0.15135 0.12269,-0.27404 0.27404,-0.27404c0.15135,0 0.27404,0.12269 0.27404,0.27404c0,0.15135 -0.12269,0.27404 -0.27404,0.27404c-0.15135,0 -0.27404,-0.12269 -0.27404,-0.27404z" fill="#000000" stroke="none" stroke-width="0.5" stroke-linecap="butt"/><path d="M240.29948,188.78126c0,-0.15135 0.12269,-0.27404 0.27404,-0.27404c0.15135,0 0.27404,0.12269 0.27404,0.27404c0,0.15135 -0.12269,0.27404 -0.27404,0.27404c-0.15135,0 -0.27404,-0.12269 -0.27404,-0.27404z" fill="#000000" stroke="none" stroke-width="0.5" stroke-linecap="butt"/><path d="M242.0493,188.02994c0.2738,0.01144 0.26237,0.28524 0.26237,0.28524l-0.01025,0.23448c-0.0458,0.43809 -0.13326,1.15364 -0.43964,1.51112c-0.66822,0.77967 -2.32472,0.47484 -3.08885,0.00337c0,0 -0.23239,-0.14524 -0.08714,-0.37763c0.14524,-0.23239 0.37763,-0.08714 0.37763,-0.08714c0.48318,0.30682 1.01758,0.32692 1.58145,0.33733c0.30107,0.00555 0.58057,0.05875 0.79211,-0.22224c0.2247,-0.29846 0.28627,-0.87315 0.31908,-1.21933l0.00801,-0.20281c0,0 0.01144,-0.2738 0.28524,-0.26237z" fill="#000000" stroke="none" stroke-width="0.5" stroke-linecap="butt"/><path d="M249.25635,189.94374c0.57492,0.00523 0.61582,0.46418 0.27489,0.7307c-0.52453,0.41004 -1.50654,0.0833 -2.2609,0.07727v0c-0.00668,0.00008 -0.01334,0.00007 -0.01997,-0.00003c-0.27679,-0.00447 -0.50159,-0.17378 -0.50622,-0.38491c-0.00314,-0.14332 0.09597,-0.26992 0.24642,-0.34003c0.04637,-0.02861 0.10855,-0.04679 0.20249,-0.05452c0.0197,-0.00198 0.03977,-0.00311 0.06012,-0.00337c0.66718,-0.02207 1.3354,-0.03117 2.00317,-0.0251z" data-paper-data="{&quot;index&quot;:null}" fill="url(#color-3)" stroke="#bf8600" stroke-width="2.5" stroke-linecap="butt"/><path d="M249.25635,189.84354c0.57492,0.00523 0.61582,0.46418 0.27489,0.7307c-0.52453,0.41004 -1.50654,0.0833 -2.2609,0.07727v0c-0.00668,0.00008 -0.01334,0.00007 -0.01997,-0.00003c-0.27679,-0.00447 -0.50159,-0.17378 -0.50622,-0.38491c-0.00314,-0.14332 0.09597,-0.26992 0.24642,-0.34003c0.04637,-0.02861 0.10855,-0.04679 0.20249,-0.05452c0.0197,-0.00198 0.03977,-0.00311 0.06012,-0.00337c0.66718,-0.02207 1.3354,-0.03117 2.00317,-0.0251z" data-paper-data="{&quot;index&quot;:null}" fill="url(#color-4)" stroke="none" stroke-width="0.5" stroke-linecap="butt"/><path d="M233.3353,189.84354c0.57492,0.00523 0.61582,0.46419 0.27489,0.7307c-0.52453,0.41004 -1.50654,0.0833 -2.2609,0.07727v0c-0.00669,0.00009 -0.01333,0.00007 -0.01996,-0.00003c-0.27678,-0.00447 -0.5016,-0.17378 -0.50622,-0.38491c-0.00314,-0.14332 0.09597,-0.26992 0.24642,-0.34003c0.04637,-0.02861 0.10855,-0.0468 0.20249,-0.05452c0.0197,-0.00197 0.03976,-0.00312 0.06012,-0.00337c0.66717,-0.02206 1.3354,-0.03117 2.00317,-0.0251z" data-paper-data="{&quot;index&quot;:null}" fill="url(#color-5)" stroke="#bf8600" stroke-width="2" stroke-linecap="butt"/><path d="M234.0109,190.56644c0,-3.84274 3.11516,-6.9579 6.9579,-6.9579c3.84274,0 6.9579,3.11516 6.9579,6.9579c0,3.84274 -3.11516,6.9579 -6.9579,6.9579c-3.84274,0 -6.9579,-3.11516 -6.9579,-6.9579z" fill="none" stroke="none" stroke-width="0" stroke-linecap="butt"/><path d="M238.54601,195.89039c-0.01243,0.43462 -0.47183,0.45795 -0.73404,0.19574c-0.40341,-0.40341 -0.06442,-1.14052 -0.04894,-1.71082v0c0,-0.00506 0.0001,-0.01009 0.00029,-0.0151c0.00793,-0.20921 0.18004,-0.37639 0.3912,-0.37639c0.14334,0 0.26868,0.07703 0.3369,0.19196c0.02803,0.03554 0.04543,0.08285 0.05197,0.15401c0.00173,0.01493 0.00262,0.03012 0.00262,0.04552c0.0137,0.50484 0.01444,1.01026 0,1.51507z" fill="#ffae00" stroke="#bf8600" stroke-width="2.5" stroke-linecap="butt"/><path d="M241.99934,194.21855c0.00879,0.01563 0.01699,0.03567 0.02461,0.0596c0.00901,0.02428 0.01567,0.0497 0.01973,0.07598c0.0935,0.43459 0.07959,1.55658 0.04982,1.93705c-0.01613,0.20616 -0.11706,0.39149 -0.39149,0.39149c-0.55912,0 -0.44863,-1.97534 -0.43671,-2.26837c0,-0.00728 0.0002,-0.01451 0.00059,-0.02168c0.01125,-0.20613 0.18196,-0.3698 0.3909,-0.3698c0.1274,0 0.24059,0.06086 0.31208,0.15509c0.01167,0.01205 0.02194,0.02549 0.03047,0.04066z" fill="#ffae00" stroke="#bf8600" stroke-width="2.5" stroke-linecap="butt"/><path d="M245.34922,185.69277l-0.17008,7.85456l-9.83721,-0.42552l-0.13437,-7.43608z" fill="url(#color-6)" stroke="#bf8600" stroke-width="2.5" stroke-linecap="butt"/><g fill="#ffae00" stroke="none" stroke-width="0.5" stroke-linecap="butt"><path d="M238.77579,196.10596c-0.01416,0.49512 -0.53751,0.5217 -0.83622,0.22299c-0.45957,-0.45956 -0.07338,-1.29928 -0.05575,-1.94896v0c0,-0.00576 0.00011,-0.01149 0.00033,-0.0172c0.00904,-0.23834 0.20511,-0.42878 0.44566,-0.42878c0.16329,0 0.30608,0.08776 0.38379,0.21868c0.03193,0.04048 0.05175,0.09439 0.05921,0.17545c0.00197,0.01701 0.00298,0.03432 0.00298,0.05185c0.01561,0.57511 0.01645,1.15089 0,1.72597z"/><path d="M241.68254,193.74482c0.01002,0.01781 0.01935,0.04063 0.02804,0.0679c0.01026,0.02766 0.01786,0.05662 0.02247,0.08655c0.10652,0.49508 0.09067,1.77326 0.05676,2.20669c-0.01838,0.23486 -0.13335,0.44598 -0.44598,0.44598c-0.63695,0 -0.51108,-2.25031 -0.4975,-2.58413c0,-0.00829 0.00023,-0.01653 0.00067,-0.0247c0.01282,-0.23482 0.20729,-0.42128 0.44531,-0.42128c0.14514,0 0.27408,0.06933 0.35552,0.17668c0.01329,0.01373 0.02499,0.02904 0.03471,0.04632z"/></g><path d="M239.63097,189.41793c0,-0.15135 0.12269,-0.27404 0.27404,-0.27404c0.15135,0 0.27404,0.12269 0.27404,0.27404c0,0.15135 -0.12269,0.27404 -0.27404,0.27404c-0.15135,0 -0.27404,-0.12269 -0.27404,-0.27404z" fill="#000000" stroke="none" stroke-width="0.5" stroke-linecap="butt"/><path d="M240.29948,188.78126c0,-0.15135 0.12269,-0.27404 0.27404,-0.27404c0.15135,0 0.27404,0.12269 0.27404,0.27404c0,0.15135 -0.12269,0.27404 -0.27404,0.27404c-0.15135,0 -0.27404,-0.12269 -0.27404,-0.27404z" fill="#000000" stroke="none" stroke-width="0.5" stroke-linecap="butt"/><path d="M242.0493,188.02994c0.2738,0.01144 0.26237,0.28524 0.26237,0.28524l-0.01025,0.23448c-0.0458,0.43809 -0.13326,1.15364 -0.43964,1.51112c-0.66822,0.77967 -2.32472,0.47484 -3.08885,0.00337c0,0 -0.23239,-0.14524 -0.08714,-0.37763c0.14524,-0.23239 0.37763,-0.08714 0.37763,-0.08714c0.48318,0.30682 1.01758,0.32692 1.58145,0.33733c0.30107,0.00555 0.58057,0.05875 0.79211,-0.22224c0.2247,-0.29846 0.28627,-0.87315 0.31908,-1.21933l0.00801,-0.20281c0,0 0.01144,-0.2738 0.28524,-0.26237z" fill="#000000" stroke="none" stroke-width="0.5" stroke-linecap="butt"/><path d="M249.25635,189.94374c0.57492,0.00523 0.61582,0.46418 0.27489,0.7307c-0.52453,0.41004 -1.50654,0.0833 -2.2609,0.07727v0c-0.00668,0.00008 -0.01334,0.00007 -0.01997,-0.00003c-0.27679,-0.00447 -0.50159,-0.17378 -0.50622,-0.38491c-0.00314,-0.14332 0.09597,-0.26992 0.24642,-0.34003c0.04637,-0.02861 0.10855,-0.04679 0.20249,-0.05452c0.0197,-0.00198 0.03977,-0.00311 0.06012,-0.00337c0.66718,-0.02207 1.3354,-0.03117 2.00317,-0.0251z" data-paper-data="{&quot;index&quot;:null}" fill="url(#color-7)" stroke="#bf8600" stroke-width="2.5" stroke-linecap="butt"/><path d="M249.25635,189.84354c0.57492,0.00523 0.61582,0.46418 0.27489,0.7307c-0.52453,0.41004 -1.50654,0.0833 -2.2609,0.07727v0c-0.00668,0.00008 -0.01334,0.00007 -0.01997,-0.00003c-0.27679,-0.00447 -0.50159,-0.17378 -0.50622,-0.38491c-0.00314,-0.14332 0.09597,-0.26992 0.24642,-0.34003c0.04637,-0.02861 0.10855,-0.04679 0.20249,-0.05452c0.0197,-0.00198 0.03977,-0.00311 0.06012,-0.00337c0.66718,-0.02207 1.3354,-0.03117 2.00317,-0.0251z" data-paper-data="{&quot;index&quot;:null}" fill="url(#color-8)" stroke="none" stroke-width="0.5" stroke-linecap="butt"/><path d="M233.3353,189.84354c0.57492,0.00523 0.61582,0.46419 0.27489,0.7307c-0.52453,0.41004 -1.50654,0.0833 -2.2609,0.07727v0c-0.00669,0.00009 -0.01333,0.00007 -0.01996,-0.00003c-0.27678,-0.00447 -0.5016,-0.17378 -0.50622,-0.38491c-0.00314,-0.14332 0.09597,-0.26992 0.24642,-0.34003c0.04637,-0.02861 0.10855,-0.0468 0.20249,-0.05452c0.0197,-0.00197 0.03976,-0.00312 0.06012,-0.00337c0.66717,-0.02206 1.3354,-0.03117 2.00317,-0.0251z" data-paper-data="{&quot;index&quot;:null}" fill="url(#color-9)" stroke="#bf8600" stroke-width="2" stroke-linecap="butt"/><path d="M219.89528,197.19911c0,-6.46696 0,-14.87428 0,-18.33333c0,-3.01664 1.08798,-6.80952 2.35193,-6.80952c4.10942,0 26.65323,0 36.28693,0c2.68557,0 4.36787,4.13621 4.36787,7.33333c0,3.65285 -0.168,11.41416 -0.168,17.80952c0,4.18291 -1.44586,8.38095 -4.03188,8.38095c-9.30562,0 -31.19958,0 -35.78295,0c-1.65838,0 -3.02391,-3.67722 -3.02391,-8.38095z" fill="url(#color-10)" stroke="#bf8600" stroke-width="6" stroke-linecap="butt"/><path d="M234.36324,193.68094c0.73972,-0.0089 1.47995,0.00445 2.21903,0.03677c0.02255,0.00037 0.04477,0.00204 0.0666,0.00494c0.10406,0.01131 0.17294,0.03795 0.22431,0.07986c0.16667,0.1027 0.27645,0.28815 0.27298,0.49809c-0.00512,0.30927 -0.25415,0.55729 -0.56077,0.56384c-0.00734,0.00016 -0.01471,0.00017 -0.02212,0.00005v0c-0.83565,0.00884 -1.92347,0.48745 -2.50453,-0.11319c-0.37768,-0.3904 -0.33237,-1.06269 0.3045,-1.07035z" data-paper-data="{&quot;index&quot;:null}" fill="url(#color-11)" stroke="#bfbfbf" stroke-width="2.5" stroke-linecap="butt"/><path d="M247.84552,193.97764c0.63687,0.00766 0.68219,0.67995 0.30451,1.07035c-0.58105,0.60064 -1.66888,0.12202 -2.50453,0.11319v0c-0.00741,0.00012 -0.01478,0.00011 -0.02212,-0.00005c-0.30661,-0.00654 -0.55565,-0.25456 -0.56077,-0.56383c-0.00348,-0.20994 0.1063,-0.39539 0.27298,-0.49809c0.05137,-0.04191 0.12025,-0.06855 0.22431,-0.07986c0.02183,-0.00289 0.04406,-0.00457 0.06661,-0.00494c0.73907,-0.03232 1.4793,-0.04567 2.21902,-0.03677z" data-paper-data="{&quot;index&quot;:null}" fill="url(#color-12)" stroke="#bfbfbf" stroke-width="2.5" stroke-linecap="butt"/><path d="M239.79017,198.59089c-0.01821,0.63665 -0.69116,0.67082 -1.07524,0.28673c-0.59093,-0.59093 -0.09435,-1.67068 -0.07168,-2.50607v0c0,-0.00741 0.00014,-0.01477 0.00042,-0.02211c0.01162,-0.30647 0.26373,-0.55135 0.57304,-0.55135c0.20997,0 0.39357,0.11284 0.49349,0.28119c0.04106,0.05205 0.06655,0.12137 0.07613,0.22561c0.00253,0.02187 0.00384,0.04412 0.00384,0.06667c0.02007,0.73951 0.02115,1.47986 0,2.21933z" fill="#ffae00" stroke="#bfbfbf" stroke-width="2.5" stroke-linecap="butt"/><path d="M243.52779,195.55484c0.01288,0.0229 0.02488,0.05224 0.03606,0.0873c0.01319,0.03557 0.02296,0.0728 0.0289,0.1113c0.13697,0.6366 0.11659,2.28013 0.07298,2.83745c-0.02363,0.30199 -0.17147,0.57346 -0.57346,0.57346c-0.81903,0 -0.65717,-2.89354 -0.63971,-3.32278c0,-0.01066 0.00029,-0.02125 0.00087,-0.03177c0.01648,-0.30194 0.26654,-0.5417 0.5726,-0.5417c0.18662,0 0.35243,0.08915 0.45714,0.22718c0.0171,0.01765 0.03214,0.03733 0.04463,0.05955z" fill="#ffae00" stroke="#bfbfbf" stroke-width="2.5" stroke-linecap="butt"/><path d="M237.69846,186.26622c4.39562,-1.52076 11.05749,0.73133 10.34194,5.46814c-0.71555,4.73681 -7.55299,6.62576 -11.69462,3.48626c-3.04147,-2.30554 -1.76789,-6.46912 0.75718,-8.54429z" fill="url(#color-13)" stroke="#bfbfbf" stroke-width="2.5" stroke-linecap="butt"/><path d="M234.36324,193.68094c0.73972,-0.0089 1.47995,0.00445 2.21903,0.03677c0.02255,0.00037 0.04477,0.00204 0.0666,0.00494c0.10406,0.01131 0.17294,0.03795 0.22431,0.07986c0.16667,0.1027 0.27645,0.28815 0.27298,0.49809c-0.00512,0.30927 -0.25415,0.55729 -0.56077,0.56384c-0.00734,0.00016 -0.01471,0.00017 -0.02212,0.00005v0c-0.83565,0.00884 -1.92347,0.48745 -2.50453,-0.11319c-0.37768,-0.3904 -0.33237,-1.06269 0.3045,-1.07035z" data-paper-data="{&quot;index&quot;:null}" fill="#ffffff" stroke="none" stroke-width="0.5" stroke-linecap="butt"/><path d="M247.84552,193.97764c0.63687,0.00766 0.68219,0.67995 0.30451,1.07035c-0.58105,0.60064 -1.66888,0.12202 -2.50453,0.11319v0c-0.00741,0.00012 -0.01478,0.00011 -0.02212,-0.00005c-0.30661,-0.00654 -0.55565,-0.25456 -0.56077,-0.56383c-0.00348,-0.20994 0.1063,-0.39539 0.27298,-0.49809c0.05137,-0.04191 0.12025,-0.06855 0.22431,-0.07986c0.02183,-0.00289 0.04406,-0.00457 0.06661,-0.00494c0.73907,-0.03232 1.4793,-0.04567 2.21902,-0.03677z" data-paper-data="{&quot;index&quot;:null}" fill="#ffffff" stroke="none" stroke-width="0.5" stroke-linecap="butt"/><path d="M239.79017,198.59089c-0.01821,0.63665 -0.69116,0.67082 -1.07524,0.28673c-0.59093,-0.59093 -0.09435,-1.67068 -0.07168,-2.50607v0c0,-0.00741 0.00014,-0.01477 0.00042,-0.02211c0.01162,-0.30647 0.26373,-0.55135 0.57304,-0.55135c0.20997,0 0.39357,0.11284 0.49349,0.28119c0.04106,0.05205 0.06655,0.12137 0.07613,0.22561c0.00253,0.02187 0.00384,0.04412 0.00384,0.06667c0.02007,0.73951 0.02115,1.47986 0,2.21933z" fill="#ffffff" stroke="none" stroke-width="0.5" stroke-linecap="butt"/><path d="M243.52779,195.55484c0.01288,0.0229 0.02488,0.05224 0.03606,0.0873c0.01319,0.03557 0.02296,0.0728 0.0289,0.1113c0.13697,0.6366 0.11659,2.28013 0.07298,2.83745c-0.02363,0.30199 -0.17147,0.57346 -0.57346,0.57346c-0.81903,0 -0.65717,-2.89354 -0.63971,-3.32278c0,-0.01066 0.00029,-0.02125 0.00087,-0.03177c0.01648,-0.30194 0.26654,-0.5417 0.5726,-0.5417c0.18662,0 0.35243,0.08915 0.45714,0.22718c0.0171,0.01765 0.03214,0.03733 0.04463,0.05955z" fill="#ffffff" stroke="none" stroke-width="0.5" stroke-linecap="butt"/><path d="M237.10296,186.67633c0.11801,-0.1709 0.28374,-0.25634 0.28374,-0.25634l0.17281,-0.08523c0.023,-0.01374 0.06402,-0.03633 0.11768,-0.05805l0.02127,-0.01049c4.39562,-1.52076 11.05749,0.73132 10.34194,5.46813c-0.71555,4.73681 -7.55299,6.62576 -11.69462,3.48626c-3.04147,-2.30554 -1.76789,-6.46911 0.75718,-8.54428z" fill="#ffffff" stroke="none" stroke-width="0.5" stroke-linecap="butt"/><path d="M240.64711,189.86842c0,-0.2217 0.17973,-0.40142 0.40143,-0.40142c0.2217,0 0.40142,0.17972 0.40142,0.40142c0,0.2217 -0.17972,0.40142 -0.40142,0.40142c-0.2217,0 -0.40143,-0.17972 -0.40143,-0.40142z" fill="#000000" stroke="none" stroke-width="0.5" stroke-linecap="butt"/><path d="M241.62636,188.9358c0,-0.2217 0.17972,-0.40142 0.40142,-0.40142c0.2217,0 0.40143,0.17972 0.40143,0.40142c0,0.2217 -0.17972,0.40142 -0.40143,0.40142c-0.2217,0 -0.40142,-0.17972 -0.40142,-0.40142z" fill="#000000" stroke="none" stroke-width="0.5" stroke-linecap="butt"/><path d="M244.18957,187.83526c0.40107,0.01675 0.38433,0.41783 0.38433,0.41783l-0.01502,0.34347c-0.06709,0.64173 -0.19521,1.68989 -0.644,2.21353c-0.97884,1.14208 -3.40533,0.69557 -4.52465,0.00494c0,0 -0.34041,-0.21275 -0.12765,-0.55316c0.21275,-0.34041 0.55316,-0.12766 0.55316,-0.12766c0.70778,0.44944 1.49059,0.47889 2.31656,0.49412c0.44102,0.00814 0.85044,0.08606 1.16031,-0.32555c0.32915,-0.4372 0.41933,-1.27902 0.4674,-1.78612l0.01173,-0.29709c0,0 0.01675,-0.40107 0.41783,-0.38432z" fill="#000000" stroke="none" stroke-width="0.5" stroke-linecap="butt"/><path d="M237.76284,186.12077c0,0 -0.88184,-1.83737 -2.73854,-3.07897c-0.94576,-0.63244 -5.10919,-0.53674 -7.07458,-1.41367c-0.76157,-0.3398 -0.93506,-1.16889 -0.91954,-1.90864c0.00771,-0.36766 0.24828,-1.23973 0.74457,-1.75542c0.20959,-0.21778 3.52659,-2.06116 6.42477,-1.08032c0.77177,0.26119 3.07959,1.78035 4.52938,3.74257c1.79494,2.42935 2.69237,5.36379 2.69237,5.36379" fill="#ffffff" stroke="#bfbfbf" stroke-width="1" stroke-linecap="round"/><path d="M241.53597,186.05959c0,0 1.28687,-2.78573 3.3945,-4.9494c1.70236,-1.74762 4.19477,-2.93998 4.99482,-3.09416c3.00438,-0.57898 6.04094,1.69694 6.21908,1.94112c0.42181,0.5782 0.54197,1.47483 0.49979,1.84014c-0.08488,0.73502 -0.36915,1.53295 -1.16974,1.7664c-2.0661,0.60246 -6.17815,-0.05662 -7.2009,0.4418c-2.00785,0.9785 -3.13057,2.67939 -3.13057,2.67939" data-paper-data="{&quot;index&quot;:null}" fill="#ffffff" stroke="#bfbfbf" stroke-width="1" stroke-linecap="round"/><path d="M235.60698,180.9271c0,1.13653 -1.97727,0.68596 -3.69109,0.68596c-1.71382,0 -2.64583,-0.59469 -2.64583,-1.73122c0,-1.13653 1.38931,-2.05787 3.10313,-2.05787c1.71382,0 3.23379,1.9666 3.23379,3.10313z" fill="#ffb7f9" stroke="#ffb7f9" stroke-width="0.5" stroke-linecap="butt"/><path d="M251.42619,179.23811c1.71381,0 3.10314,0.92134 3.10314,2.05786c0,1.13653 -0.93202,1.73122 -2.64583,1.73122c-1.71381,0 -3.69109,0.45057 -3.69109,-0.68595c0,-1.13653 1.51997,-3.10313 3.23379,-3.10313z" data-paper-data="{&quot;index&quot;:null}" fill="#ffb7f9" stroke="#ffb7f9" stroke-width="0.5" stroke-linecap="butt"/><path d="M221.68536,196.81195c0,-6.04781 0,-13.91021 0,-17.14506c0,-2.82112 1.01746,-6.36816 2.19949,-6.36816c3.84307,0 24.92571,0 33.93501,0c2.51151,0 4.08477,3.86812 4.08477,6.85802c0,3.41609 -0.15711,10.67436 -0.15711,16.6552c0,3.9118 -1.35215,7.83774 -3.77056,7.83774c-8.70248,0 -29.17739,0 -33.46369,0c-1.55089,0 -2.82792,-3.43888 -2.82792,-7.83774z" fill="url(#color-14)" stroke="none" stroke-width="0" stroke-linecap="butt"/></g></g></svg>