<svg version="1.1" xmlns="http://www.w3.org/2000/svg" xmlns:xlink="http://www.w3.org/1999/xlink" width="131.47372" height="137.40662" viewBox="0,0,131.47372,137.40662"><defs><linearGradient x1="223.86845" y1="160.32294" x2="223.86845" y2="164.37531" gradientUnits="userSpaceOnUse" id="color-1"><stop offset="0" stop-color="#ffbd00"/><stop offset="1" stop-color="#ffb700"/></linearGradient><linearGradient x1="256.9987" y1="161.1972" x2="256.9987" y2="165.24959" gradientUnits="userSpaceOnUse" id="color-2"><stop offset="0" stop-color="#ffbd00"/><stop offset="1" stop-color="#ffb700"/></linearGradient><linearGradient x1="241.10314" y1="137.09491" x2="241.10314" y2="169.4181" gradientUnits="userSpaceOnUse" id="color-3"><stop offset="0" stop-color="#ffee00"/><stop offset="1" stop-color="#ffad00"/></linearGradient><linearGradient x1="223.86845" y1="160.32294" x2="223.86845" y2="164.37531" gradientUnits="userSpaceOnUse" id="color-4"><stop offset="0" stop-color="#ffbd00"/><stop offset="1" stop-color="#ffb700"/></linearGradient><linearGradient x1="256.9987" y1="161.1972" x2="256.9987" y2="165.24959" gradientUnits="userSpaceOnUse" id="color-5"><stop offset="0" stop-color="#ffbd00"/><stop offset="1" stop-color="#ffb700"/></linearGradient><linearGradient x1="241.10314" y1="137.09491" x2="241.10314" y2="169.4181" gradientUnits="userSpaceOnUse" id="color-6"><stop offset="0" stop-color="#ffee00"/><stop offset="1" stop-color="#ffad00"/></linearGradient></defs><g transform="translate(-175.28789,-106.71967)"><g data-paper-data="{&quot;isPaintingLayer&quot;:true}" fill-rule="nonzero" stroke-linejoin="miter" stroke-miterlimit="10" stroke-dasharray="" stroke-dashoffset="0" style="mix-blend-mode: normal"><path d="M175.28789,244.12629v-131.47372h131.47372v131.47372z" fill="none" stroke="#000000" stroke-width="0" stroke-linecap="butt"/><g stroke-linecap="butt"><g stroke="#bf8600" stroke-width="7.5"><g><path d="M220.56989,160.33088c2.1797,-0.02622 4.36089,0.0131 6.53866,0.10834c0.06644,0.0011 0.13193,0.00602 0.19624,0.01455c0.30664,0.03333 0.5096,0.11182 0.66096,0.23532c0.49111,0.3026 0.8146,0.84907 0.80435,1.46768c-0.0151,0.9113 -0.74889,1.64214 -1.65238,1.66141c-0.02164,0.00046 -0.04336,0.00051 -0.06518,0.00015v0c-2.46236,0.02602 -5.66778,1.43632 -7.37994,-0.33354c-1.11287,-1.15037 -0.97935,-3.13135 0.89727,-3.15392z" data-paper-data="{&quot;index&quot;:null}" fill="url(#color-1)"/><path d="M260.29725,161.20514c1.87662,0.02258 2.01014,2.00355 0.89727,3.15392c-1.71216,1.76986 -4.91758,0.35956 -7.37994,0.33354v0c-0.02182,0.00036 -0.04354,0.00031 -0.06518,-0.00015c-0.90348,-0.01928 -1.63728,-0.75011 -1.65238,-1.66141c-0.01025,-0.6186 0.31325,-1.16508 0.80435,-1.46768c0.15136,-0.12349 0.35433,-0.20198 0.66096,-0.23532c0.06431,-0.00853 0.1298,-0.01344 0.19625,-0.01455c2.17777,-0.09524 4.35896,-0.13456 6.53866,-0.10834z" data-paper-data="{&quot;index&quot;:null}" fill="url(#color-2)"/></g><g fill="#ffae00"><path d="M236.56108,174.79873c-0.05366,1.87598 -2.03658,1.97667 -3.16835,0.84489c-1.74124,-1.74124 -0.27804,-4.92286 -0.21122,-7.38445v0c0,-0.02182 0.00041,-0.04354 0.00123,-0.06516c0.03424,-0.90304 0.77713,-1.62462 1.68856,-1.62462c0.61869,0 1.15973,0.3325 1.45415,0.82856c0.12097,0.15339 0.19609,0.35763 0.22434,0.66477c0.00746,0.06445 0.01129,0.13001 0.01129,0.19645c0.05915,2.17905 0.06233,4.3606 0,6.53956z"/><path d="M247.57447,165.8526c0.03795,0.06746 0.07332,0.15394 0.10624,0.25725c0.03888,0.10481 0.06765,0.21452 0.08515,0.32795c0.40359,1.87583 0.34354,6.71873 0.21504,8.36094c-0.06963,0.88985 -0.50525,1.68979 -1.68979,1.68979c-2.41336,0 -1.93644,-8.52622 -1.885,-9.79103c0,-0.0314 0.00086,-0.06261 0.00255,-0.09359c0.04857,-0.88971 0.7854,-1.59619 1.68724,-1.59619c0.5499,0 1.03846,0.26267 1.34704,0.6694c0.05036,0.05203 0.0947,0.11003 0.13153,0.17549z"/></g><path d="M230.39755,138.4824c12.95231,-4.48113 32.58242,2.15495 30.47393,16.1126c-2.10849,13.95765 -22.25591,19.5237 -34.45978,10.27273c-8.96213,-6.79361 -5.2093,-19.06214 2.23114,-25.17689z" fill="url(#color-3)"/></g><g stroke="none" stroke-width="0.5"><path d="M220.56989,160.33088c2.1797,-0.02622 4.36089,0.0131 6.53866,0.10834c0.06644,0.0011 0.13193,0.00602 0.19624,0.01455c0.30664,0.03333 0.5096,0.11182 0.66096,0.23532c0.49111,0.3026 0.8146,0.84907 0.80435,1.46768c-0.0151,0.9113 -0.74889,1.64214 -1.65238,1.66141c-0.02164,0.00046 -0.04336,0.00051 -0.06518,0.00015v0c-2.46236,0.02602 -5.66778,1.43632 -7.37994,-0.33354c-1.11287,-1.15037 -0.97935,-3.13135 0.89727,-3.15392z" data-paper-data="{&quot;index&quot;:null}" fill="url(#color-4)"/><path d="M260.29725,161.20514c1.87662,0.02258 2.01014,2.00355 0.89727,3.15392c-1.71216,1.76986 -4.91758,0.35956 -7.37994,0.33354v0c-0.02182,0.00036 -0.04354,0.00031 -0.06518,-0.00015c-0.90348,-0.01928 -1.63728,-0.75011 -1.65238,-1.66141c-0.01025,-0.6186 0.31325,-1.16508 0.80435,-1.46768c0.15136,-0.12349 0.35433,-0.20198 0.66096,-0.23532c0.06431,-0.00853 0.1298,-0.01344 0.19625,-0.01455c2.17777,-0.09524 4.35896,-0.13456 6.53866,-0.10834z" data-paper-data="{&quot;index&quot;:null}" fill="url(#color-5)"/></g><g fill="#ffae00" stroke="none" stroke-width="0.5"><path d="M236.56108,174.79873c-0.05366,1.87598 -2.03658,1.97667 -3.16835,0.84489c-1.74124,-1.74124 -0.27804,-4.92286 -0.21122,-7.38445v0c0,-0.02182 0.00041,-0.04354 0.00123,-0.06516c0.03424,-0.90304 0.77713,-1.62462 1.68856,-1.62462c0.61869,0 1.15973,0.3325 1.45415,0.82856c0.12097,0.15339 0.19609,0.35763 0.22434,0.66477c0.00746,0.06445 0.01129,0.13001 0.01129,0.19645c0.05915,2.17905 0.06233,4.3606 0,6.53956z"/><path d="M247.57447,165.8526c0.03795,0.06746 0.07332,0.15394 0.10624,0.25725c0.03888,0.10481 0.06765,0.21452 0.08515,0.32795c0.40359,1.87583 0.34354,6.71873 0.21504,8.36094c-0.06963,0.88985 -0.50525,1.68979 -1.68979,1.68979c-2.41336,0 -1.93644,-8.52622 -1.885,-9.79103c0,-0.0314 0.00086,-0.06261 0.00255,-0.09359c0.04857,-0.88971 0.7854,-1.59619 1.68724,-1.59619c0.5499,0 1.03846,0.26267 1.34704,0.6694c0.05036,0.05203 0.0947,0.11003 0.13153,0.17549z"/></g><path d="M228.64284,139.69085c0.34773,-0.50356 0.83608,-0.75536 0.83608,-0.75536l0.50919,-0.25115c0.06777,-0.04048 0.18865,-0.10706 0.34677,-0.17104l0.06267,-0.03091c12.95231,-4.48113 32.58242,2.15495 30.47393,16.1126c-2.10849,13.95765 -22.25591,19.5237 -34.45978,10.27273c-8.96213,-6.79361 -5.2093,-19.06214 2.23114,-25.17689z" fill="url(#color-6)" stroke="none" stroke-width="0.5"/><path d="M239.08617,149.09678c0,-0.65327 0.52958,-1.18285 1.18285,-1.18285c0.65327,0 1.18285,0.52958 1.18285,1.18285c0,0.65327 -0.52958,1.18285 -1.18285,1.18285c-0.65327,0 -1.18285,-0.52958 -1.18285,-1.18285z" fill="#000000" stroke="none" stroke-width="0.5"/><path d="M241.97166,146.3487c0,-0.65327 0.52958,-1.18285 1.18285,-1.18285c0.65327,0 1.18285,0.52958 1.18285,1.18285c0,0.65327 -0.52958,1.18285 -1.18285,1.18285c-0.65327,0 -1.18285,-0.52958 -1.18285,-1.18285z" fill="#000000" stroke="none" stroke-width="0.5"/><path d="M249.52449,143.10579c1.18182,0.04936 1.13247,1.23118 1.13247,1.23118l-0.04425,1.01209c-0.19768,1.89093 -0.5752,4.9795 -1.89763,6.52248c-2.88427,3.3653 -10.03428,2.04957 -13.3325,0.01455c0,0 -1.00306,-0.62691 -0.37615,-1.62997c0.62691,-1.00306 1.62997,-0.37615 1.62997,-0.37615c2.08558,1.32435 4.39221,1.41111 6.82607,1.45601c1.29952,0.02397 2.50593,0.25358 3.41903,-0.95928c0.96987,-1.28825 1.23562,-3.7688 1.37725,-5.26305l0.03457,-0.8754c0,0 0.04936,-1.18182 1.23118,-1.13247z" fill="#000000" stroke="none" stroke-width="0.5"/></g><path d="M271.70475,110.73894c0,1.66051 -9.42413,4.8401 -12.09969,11.05648c-2.78711,6.47556 1.14409,15.98723 -0.19446,17.27809c-3.88267,3.74434 -12.14306,3.12694 -19.16736,3.12694c-6.74566,0 -14.78912,1.82104 -18.69432,-1.67274c-2.90906,-2.60259 -2.61833,-9.9613 -2.61833,-13.55057c0,-5.13608 -12.67732,-13.73763 -7.22278,-16.49471c3.47438,-1.75618 21.9255,-0.75837 26.50564,-0.75837c11.77064,0 33.49128,-7.39271 33.49128,1.01489z" fill="#f9f6ff" stroke="none" stroke-width="0" stroke-linecap="butt"/><path d="M223.64335,136.44241v-17.81257h10.43308v17.81257z" fill="#00ff65" stroke="none" stroke-width="0" stroke-linecap="butt"/><path d="M244.25504,136.44241v-17.81257h11.45094v17.81257z" fill="#ff0000" stroke="none" stroke-width="0" stroke-linecap="butt"/><path d="M225.20512,165.14202v-19.32729h27.93398v19.32729z" fill="#ffb300" stroke="none" stroke-width="0" stroke-linecap="butt"/><path d="M225.20512,146.11672c0,0 8.92838,-13.63441 13.29045,-13.65838c4.76297,-0.02617 14.19054,13.50738 14.19054,13.50738" fill="none" stroke="#a77500" stroke-width="2" stroke-linecap="round"/><text transform="translate(235.64585,158.68701) scale(0.16955,0.16955)" font-size="40" xml:space="preserve" fill="#a77500" fill-rule="nonzero" stroke="none" stroke-width="1" stroke-linecap="butt" stroke-linejoin="miter" stroke-miterlimit="10" stroke-dasharray="" stroke-dashoffset="0" font-family="Sans Serif" font-weight="normal" text-anchor="start" style="mix-blend-mode: normal"><tspan x="0" dy="0">110</tspan></text><g stroke-linecap="butt"><path d="M229.69205,155.91638c0,-1.56503 1.2687,-2.83373 2.83373,-2.83373c1.56503,0 2.83373,1.2687 2.83373,2.83373c0,1.56503 -1.2687,2.83373 -2.83373,2.83373c-1.56503,0 -2.83373,-1.2687 -2.83373,-2.83373z" fill="#ffbe4f" stroke="#ffbe4f" stroke-width="2"/><path d="M234.51095,155.9978c0,1.15209 -0.90622,2.08605 -2.02409,2.08605c-1.11788,0 -2.02409,-0.93396 -2.02409,-2.08605c0,-1.15209 0.90622,-2.08605 2.02409,-2.08605c1.11788,0 2.02409,0.93396 2.02409,2.08605z" fill="#ff4f4f" stroke="#ff4f4f" stroke-width="2"/><g stroke-width="0.25"><path d="M230.03155,155.91638c0,-1.37753 1.1167,-2.49423 2.49423,-2.49423c1.37752,0 2.49423,1.1167 2.49423,2.49423c0,1.37753 -1.1167,2.49423 -2.49423,2.49423c-1.37753,0 -2.49423,-1.1167 -2.49423,-2.49423z" fill="#fcc561" stroke="#8a4f51"/><path d="M230.24422,155.91638c0,-1.27041 1.02987,-2.30029 2.30029,-2.30029c1.27041,0 2.30029,1.02988 2.30029,2.30029c0,1.27041 -1.02988,2.30029 -2.30029,2.30029c-1.27041,0 -2.30029,-1.02987 -2.30029,-2.30029z" fill="#fbc21b" stroke="#ed803b"/></g><g fill="#d3692d" stroke="#aa5524" stroke-width="0.15"><path d="M231.34441,157.43816c0.04256,0.02832 0.08174,-0.00717 0.08571,-0.01095c0.03181,-0.0124 0.06682,-0.01806 0.10081,-0.01726c0,0 0.03906,0 0.05901,-0.02908c0.03028,0.01063 0.05773,0.02729 0.0809,0.04854c-0.02907,0.04433 -0.04597,0.09735 -0.04597,0.15432c0,0.01622 0.00137,0.03211 0.004,0.04758c-0.00198,0.00376 -0.00387,0.00757 -0.00568,0.01143c-0.03913,0.01685 -0.07382,0.04399 -0.09982,0.08264c-0.00681,-0.00049 -0.01368,-0.00074 -0.02062,-0.00074c-0.05704,0 -0.11012,0.01695 -0.15449,0.04608c-0.03246,-0.03163 -0.05579,-0.07258 -0.06569,-0.11852c0.03569,-0.03968 0.06882,-0.08168 0.07315,-0.11072c0.00477,-0.032 -0.00826,-0.06328 -0.0194,-0.09465c0.00262,-0.00296 0.00532,-0.00586 0.0081,-0.00868z"/><path d="M231.85985,156.18671c0.04989,0.07708 0.08932,0.15942 0.13069,0.24177c-0.03913,0.02954 -0.06954,0.05297 -0.10495,0.0963c-0.0125,0.01531 -0.01397,0.04101 -0.03143,0.05027c-0.01442,0.00764 -0.032,-0.00863 -0.04831,-0.00802c-0.02862,0.00106 -0.05805,0.00312 -0.08495,0.01298c-0.01038,0.00381 -0.013,0.03362 -0.02082,0.02581c-0.02056,-0.02056 -0.00693,-0.06924 -0.03377,-0.08041c-0.01616,-0.00673 -0.02932,0.01155 -0.04397,0.02567c-0.00146,-0.00211 -0.00289,-0.00423 -0.00427,-0.00637c0.00159,-0.00227 0.00269,-0.00447 0.00292,-0.00641c0.00179,-0.01534 -0.01446,-0.02997 -0.01097,-0.04502c0.0203,-0.08759 0.13132,-0.16163 0.17863,-0.23274c0.01767,-0.02657 0.02938,-0.05191 0.03868,-0.0778c0.01092,0.00056 0.02178,0.00188 0.03252,0.00395z"/><path d="M232.63935,157.50625c-0.009,0.09138 -0.02946,0.18034 -0.0484,0.27054c-0.04901,-0.00127 -0.0874,-0.0019 -0.14209,0.00994c-0.01932,0.00418 -0.03648,0.02338 -0.05591,0.01974c-0.01604,-0.00301 -0.01965,-0.02668 -0.03279,-0.03637c-0.02305,-0.017 -0.04735,-0.03373 -0.07453,-0.04277c-0.01049,-0.00349 -0.03112,0.0182 -0.03237,0.00722c-0.00327,-0.02889 0.03772,-0.05848 0.02368,-0.08393c-0.00846,-0.01533 -0.03013,-0.00924 -0.05038,-0.00731c0.00017,-0.00256 0.00038,-0.00511 0.00063,-0.00764c0.00266,-0.00079 0.00489,-0.00182 0.00628,-0.0032c0.01096,-0.01089 0.00736,-0.03245 0.01947,-0.04205c0.07045,-0.05587 0.20342,-0.0446 0.28473,-0.07076c0.03038,-0.00977 0.05532,-0.0223 0.07872,-0.03676c0.00819,0.00724 0.01587,0.01504 0.02298,0.02335z"/><path d="M233.52284,155.87671c0.009,-0.09138 0.02946,-0.18034 0.0484,-0.27054c0.04901,0.00127 0.0874,0.0019 0.14209,-0.00994c0.01931,-0.00418 0.03648,-0.02339 0.0559,-0.01974c0.01604,0.00301 0.01965,0.02669 0.03279,0.03637c0.02305,0.017 0.04735,0.03373 0.07453,0.04277c0.01049,0.00349 0.03112,-0.0182 0.03237,-0.00722c0.00327,0.02889 -0.03771,0.05847 -0.02367,0.08393c0.00846,0.01533 0.03012,0.00924 0.05038,0.00731c-0.00017,0.00256 -0.00037,0.00511 -0.00063,0.00764c-0.00266,0.00079 -0.00489,0.00182 -0.00628,0.0032c-0.01096,0.01089 -0.00736,0.03245 -0.01947,0.04205c-0.07045,0.05587 -0.20342,0.0446 -0.28473,0.07076c-0.03038,0.00977 -0.05532,0.0223 -0.07872,0.03676c-0.00819,-0.00724 -0.01587,-0.01504 -0.02298,-0.02335z" data-paper-data="{&quot;index&quot;:null}"/><path d="M231.31649,155.52119c-0.01115,0.03136 -0.02417,0.06265 -0.0194,0.09465c0.00433,0.02903 0.03746,0.07104 0.07315,0.11072c-0.0099,0.04594 -0.03323,0.08689 -0.06569,0.11852c-0.04436,-0.02913 -0.09745,-0.04608 -0.15449,-0.04608c-0.00693,0 -0.01381,0.00025 -0.02061,0.00074c-0.026,-0.03864 -0.06069,-0.06578 -0.09982,-0.08264c-0.00181,-0.00386 -0.0037,-0.00767 -0.00568,-0.01143c0.00263,-0.01547 0.004,-0.03136 0.004,-0.04758c0,-0.05697 -0.01691,-0.10999 -0.04597,-0.15432c0.02317,-0.02125 0.05061,-0.03791 0.0809,-0.04854c0.01995,0.02908 0.05901,0.02908 0.05901,0.02908c0.03399,-0.0008 0.069,0.00486 0.10081,0.01726c0.00396,0.00377 0.04315,0.03926 0.0857,0.01094c0.00277,0.00282 0.00547,0.00572 0.0081,0.00868z" data-paper-data="{&quot;index&quot;:null}"/><path d="M233.45949,154.71694c-0.04256,-0.02832 -0.08174,0.00717 -0.0857,0.01094c-0.03181,0.0124 -0.06682,0.01806 -0.10081,0.01726c0,0 -0.03906,0 -0.05901,0.02908c-0.03028,-0.01063 -0.05773,-0.02729 -0.0809,-0.04854c0.02907,-0.04433 0.04597,-0.09735 0.04597,-0.15432c0,-0.01622 -0.00137,-0.03211 -0.004,-0.04758c0.00198,-0.00376 0.00387,-0.00757 0.00568,-0.01143c0.03913,-0.01685 0.07382,-0.04399 0.09982,-0.08264c0.00681,0.00049 0.01368,0.00074 0.02061,0.00074c0.05704,0 0.11013,-0.01695 0.15449,-0.04608c0.03246,0.03163 0.05579,0.07258 0.06569,0.11852c-0.03569,0.03968 -0.06882,0.08168 -0.07315,0.11072c-0.00477,0.032 0.00825,0.06328 0.0194,0.09465c-0.00262,0.00296 -0.00532,0.00586 -0.0081,0.00868z" data-paper-data="{&quot;index&quot;:null}"/><path d="M232.22134,155.96117c0.0234,0.01446 0.04834,0.02699 0.07872,0.03676c0.08132,0.02615 0.21428,0.01489 0.28473,0.07076c0.0121,0.0096 0.00851,0.03116 0.01947,0.04205c0.00139,0.00138 0.00361,0.00241 0.00628,0.0032c0.00025,0.00254 0.00046,0.00509 0.00063,0.00764c-0.02026,-0.00193 -0.04193,-0.00803 -0.05038,0.00731c-0.01404,0.02546 0.02695,0.05505 0.02368,0.08393c-0.00124,0.01098 -0.02188,-0.01071 -0.03237,-0.00722c-0.02718,0.00904 -0.05148,0.02577 -0.07453,0.04277c-0.01314,0.00968 -0.01674,0.03336 -0.03279,0.03637c-0.01943,0.00364 -0.03659,-0.01556 -0.0559,-0.01974c-0.05469,-0.01184 -0.09308,-0.01122 -0.14209,-0.00994c-0.01894,-0.09019 -0.0394,-0.17916 -0.0484,-0.27054c0.00711,-0.00831 0.01479,-0.01611 0.02298,-0.02335z" data-paper-data="{&quot;index&quot;:null}"/><path d="M232.13745,155.38938c-0.01218,0 -0.02414,-0.00092 -0.03581,-0.00271c-0.02265,-0.04007 -0.04189,-0.08221 -0.05791,-0.12535l-0.05507,-0.05267c0,0 -0.0123,-0.0082 -0.0294,-0.01146c-0.00421,-0.00568 -0.00925,-0.0107 -0.01494,-0.01489c0.00037,-0.00294 0.00057,-0.00593 0.00057,-0.00897c0,-0.00028 0,-0.00056 0,-0.00084c0.03996,-0.04626 0.09441,-0.07879 0.13532,-0.12434l0.07754,-0.05103c0,0 0.04173,-0.02782 0.0313,-0.07172c0.10298,0.02309 0.18039,0.1138 0.18317,0.22307c-0.07608,0.02998 -0.15373,0.05553 -0.18828,0.14178c-0.00291,0.00727 -0.00389,0.05237 -0.00418,0.09533c-0.01372,0.00249 -0.02785,0.0038 -0.04229,0.0038z" data-paper-data="{&quot;index&quot;:null}"/><path d="M230.63799,156.59152c0.0212,0.03737 0.04404,0.07627 0.05012,0.0812c0.07221,0.05847 0.15246,0.04294 0.23351,0.03203c0.05084,0.09676 0.02746,0.21371 -0.0512,0.28406c-0.01229,-0.04342 -0.06229,-0.04737 -0.06229,-0.04737l-0.09258,-0.00676c-0.05793,-0.01984 -0.12134,-0.0217 -0.17877,-0.04261c-0.00013,-0.00025 -0.00027,-0.00049 -0.0004,-0.00074c-0.00148,-0.00265 -0.00311,-0.00517 -0.00487,-0.00755c0.00293,-0.00643 0.00488,-0.01327 0.00579,-0.02028c0.01334,-0.01117 0.02009,-0.02434 0.02009,-0.02434l0.02241,-0.07283c-0.00703,-0.04548 -0.01078,-0.09165 -0.01053,-0.13768c0.00933,-0.00725 0.01931,-0.01389 0.02995,-0.01982c0.01261,-0.00704 0.02559,-0.01279 0.03878,-0.0173z" data-paper-data="{&quot;index&quot;:null}"/><path d="M232.45185,153.73424c0.0015,0.0511 0.05312,0.06255 0.05848,0.0636c0.02851,0.01879 0.05337,0.04408 0.07237,0.07227c0,0 0.02258,0.03186 0.05785,0.03133c0.00884,0.03085 0.01112,0.06288 0.00717,0.09407c-0.05298,0.00192 -0.10601,0.01878 -0.15249,0.05172c-0.01323,0.00938 -0.02541,0.01969 -0.03651,0.03078c-0.00421,0.00056 -0.00841,0.00122 -0.01261,0.00197c-0.03637,-0.02218 -0.07857,-0.03479 -0.12514,-0.03367c-0.00354,-0.00584 -0.00731,-0.01159 -0.01131,-0.01725c-0.03298,-0.04654 -0.0775,-0.08005 -0.12693,-0.0994c0.00704,-0.04477 0.02695,-0.08749 0.05871,-0.12212c0.05301,0.00618 0.10644,0.00892 0.13263,-0.00433c0.02886,-0.01461 0.04686,-0.04333 0.066,-0.07055c0.00394,0.00043 0.00786,0.00096 0.01177,0.00158z" data-paper-data="{&quot;index&quot;:null}"/><path d="M231.29777,154.77998c-0.08885,-0.02315 -0.17354,-0.05724 -0.25967,-0.09003c0.0089,-0.04821 0.01551,-0.08603 0.01235,-0.1419c-0.00112,-0.01973 -0.0174,-0.03968 -0.01077,-0.0583c0.00548,-0.01538 0.02942,-0.01525 0.04104,-0.02671c0.02039,-0.02012 0.04071,-0.04151 0.05388,-0.06694c0.00509,-0.00982 -0.01312,-0.03358 -0.00208,-0.0331c0.02904,0.00127 0.05188,0.04638 0.07921,0.03648c0.01646,-0.00596 0.01383,-0.02832 0.01508,-0.04863c0.0025,0.00057 0.00499,0.00117 0.00745,0.00181c0.00036,0.00275 0.00103,0.00511 0.00218,0.0067c0.00905,0.01252 0.03091,0.01234 0.0385,0.02579c0.04419,0.0783 0.01232,0.20789 0.02546,0.29229c0.00491,0.03153 0.01339,0.05813 0.02402,0.08349c-0.00843,0.00696 -0.01734,0.01332 -0.02665,0.01905z" data-paper-data="{&quot;index&quot;:null}"/><path d="M233.94834,154.84329c0.01655,-0.02196 0.03133,-0.04565 0.04385,-0.075c0.03354,-0.07856 0.03458,-0.212 0.0967,-0.277c0.01067,-0.01117 0.03182,-0.0056 0.04366,-0.01551c0.0015,-0.00125 0.00273,-0.00338 0.00376,-0.00596c0.00255,-0.00002 0.00511,0.00002 0.00767,0.00008c-0.00379,0.02 -0.01185,0.04101 0.00263,0.05084c0.02405,0.01633 0.0573,-0.02176 0.08576,-0.01584c0.01082,0.00225 -0.01268,0.0208 -0.01017,0.03157c0.0065,0.0279 0.02092,0.05363 0.03572,0.07815c0.00843,0.01398 0.03168,0.01975 0.03319,0.03601c0.00184,0.01968 -0.01886,0.035 -0.02481,0.05385c-0.01683,0.05337 -0.01975,0.09165 -0.023,0.14057c-0.09156,0.01055 -0.18203,0.02272 -0.27385,0.02326c-0.00761,-0.00784 -0.01468,-0.01621 -0.02113,-0.02503z" data-paper-data="{&quot;index&quot;:null}"/><path d="M234.50931,155.83096c0.00029,0.04297 0.00127,0.08806 0.00418,0.09533c0.03455,0.08625 0.1122,0.11181 0.18828,0.14178c-0.00277,0.10927 -0.08019,0.19999 -0.18317,0.22307c0.01043,-0.0439 -0.0313,-0.07172 -0.0313,-0.07172l-0.07754,-0.05103c-0.04091,-0.04556 -0.09537,-0.07809 -0.13532,-0.12434c0,-0.00028 0,-0.00056 0,-0.00084c0,-0.00304 -0.00019,-0.00603 -0.00056,-0.00897c0.00569,-0.00419 0.01073,-0.00921 0.01494,-0.01489c0.01709,-0.00325 0.0294,-0.01146 0.0294,-0.01146l0.05506,-0.05266c0.01603,-0.04314 0.03526,-0.08528 0.05791,-0.12535c0.01167,-0.00179 0.02364,-0.00271 0.03581,-0.00271c0.01444,0 0.02857,0.0013 0.0423,0.0038z" data-paper-data="{&quot;index&quot;:null}"/><path d="M233.47536,156.67258c0.01218,0 0.02413,0.00093 0.03581,0.00272c0.02265,0.04007 0.04189,0.08221 0.05792,0.12535l0.05507,0.05267c0,0 0.0123,0.0082 0.0294,0.01146c0.00421,0.00568 0.00925,0.0107 0.01494,0.01489c-0.00037,0.00294 -0.00057,0.00593 -0.00057,0.00897c0,0.00028 0,0.00056 0,0.00084c-0.03996,0.04626 -0.09441,0.07879 -0.13532,0.12434l-0.07754,0.05103c0,0 -0.04173,0.02782 -0.0313,0.07172c-0.10298,-0.02309 -0.18039,-0.1138 -0.18317,-0.22307c0.07608,-0.02998 0.15373,-0.05553 0.18828,-0.14178c0.00291,-0.00727 0.00389,-0.05237 0.00419,-0.09533c0.01372,-0.00249 0.02785,-0.0038 0.04229,-0.0038z"/></g><g fill="#fae7ac" stroke="#d3c291" stroke-width="0.15"><path d="M234.03856,155.65404c0.00327,-0.00103 0.00649,-0.00237 0.00963,-0.00406c0.00797,-0.00427 0.0144,-0.0101 0.01978,-0.01699c0.14201,0.00335 0.29611,-0.0975 0.40921,-0.15056c0.02085,-0.00978 0.04989,-0.02342 0.07858,-0.03931c0.01053,0.00466 0.02337,0.01027 0.03694,0.01616c-0.02015,0.06882 -0.06022,0.12914 -0.11354,0.17429c-0.01235,-0.0037 -0.02223,-0.00369 -0.02223,-0.00369c-0.03537,0.00239 -0.07528,-0.01036 -0.1061,0.00716c-0.03137,0.01784 -0.05057,0.05049 -0.0719,0.08056c-0.01098,0.00101 -0.02211,0.00152 -0.03335,0.00152c-0.077,0 -0.14837,-0.02406 -0.20702,-0.06508z" data-paper-data="{&quot;index&quot;:null}"/><g><path d="M234.37629,156.71525c0,0.08795 -0.0713,0.15926 -0.15926,0.15926c-0.00915,0 -0.01812,-0.00077 -0.02685,-0.00225c-0.04082,-0.04317 0.04155,-0.08125 0.04706,-0.12058c0.00527,-0.03764 -0.02343,-0.06858 -0.05156,-0.08563c-0.00556,-0.00337 -0.01481,0.00169 -0.01927,-0.00304c-0.00301,-0.00319 0.00363,-0.00802 0.00489,-0.01222c0.00176,-0.00586 0.00874,-0.03894 0.01406,-0.04639c0.03392,-0.04747 0.08109,0.03662 0.10432,0.04632c0.01696,0.00708 0.05144,0.00693 0.07574,0.00658c0.00702,0.01796 0.01087,0.03751 0.01087,0.05796z"/><path d="M230.75043,156.49071c0,-0.07267 0.03677,-0.13676 0.09273,-0.17466c-0.02876,0.04741 -0.04135,0.10923 -0.01749,0.15073c0.00975,0.01697 0.03455,0.01846 0.05116,0.02884c0.01186,0.00741 0.03603,0.01626 0.0303,0.02902c-0.01129,0.02514 -0.04499,0.03525 -0.05665,0.06022c-0.01216,0.02605 -0.01849,0.04956 -0.01921,0.07184c-0.04921,-0.03859 -0.08082,-0.09859 -0.08082,-0.16598z"/><path d="M232.81416,156.59752c-0.03262,-0.00436 -0.06446,-0.01175 -0.09784,-0.00967c-0.02445,0.00152 -0.04732,0.01297 -0.07142,0.01738c-0.01716,0.00314 -0.03478,0.00101 -0.05231,-0.00003c-0.00471,-0.00408 -0.00917,-0.00841 -0.01339,-0.013c-0.00543,-0.02463 -0.0075,-0.05013 -0.01122,-0.08062c0.00887,-0.01551 0.01927,-0.03358 0.01991,-0.03424c0.00531,-0.00544 0.04834,-0.02252 0.05141,-0.0241c0.03161,-0.01625 0.04906,-0.02617 0.06821,-0.05884c0.01532,-0.02614 0.01629,-0.04916 0.01501,-0.07376c0.06527,0.00934 0.11805,0.05735 0.13442,0.12007c-0.0205,0.01222 -0.03671,0.02887 -0.04261,0.05322c-0.00586,0.02416 0.00863,0.05575 0.01616,0.08466c-0.00496,0.00672 -0.01042,0.01305 -0.01633,0.01893z"/><path d="M231.82637,156.82458c-0.05627,0.08976 -0.16879,0.08336 -0.24077,0.15313c0.03869,-0.11791 0.13636,-0.20908 0.25813,-0.23862c0.00118,0.03088 -0.00187,0.06079 -0.01736,0.08549z"/><path d="M233.6389,157.70582c-0.01125,0 -0.02237,-0.00051 -0.03335,-0.00152c-0.02132,-0.03007 -0.04053,-0.06272 -0.07189,-0.08056c-0.03081,-0.01752 -0.07073,-0.00477 -0.1061,-0.00716c0,0 -0.00987,0 -0.02223,0.00369c-0.05332,-0.04515 -0.09339,-0.10546 -0.11354,-0.17429c0.01357,-0.00589 0.02641,-0.01149 0.03694,-0.01616c0.02868,0.01589 0.05773,0.02953 0.07858,0.03931c0.11311,0.05306 0.26719,0.15391 0.40921,0.15056c0.00538,0.00689 0.01181,0.01271 0.01978,0.01699c0.00315,0.00169 0.00636,0.00302 0.00963,0.00406c-0.05865,0.04101 -0.13002,0.06508 -0.20702,0.06508z"/><path d="M233.7845,156.01501c0,0.01828 0.00696,0.03493 0.01838,0.04745c-0.00504,0.01429 -0.00996,0.02863 -0.01476,0.04299l-0.00468,0.0297c-0.02176,0.00773 -0.04448,0.01343 -0.06793,0.01688c-0.00528,-0.00507 -0.00935,-0.00778 -0.00935,-0.00778l-0.05852,-0.03008c-0.01463,-0.00077 -0.06705,0.00763 -0.07516,-0.02281c-0.00471,-0.01771 -0.00299,-0.09997 0.02465,-0.10406c0.04451,-0.00658 0.09027,0.00923 0.13492,0.00368c0.02066,-0.00257 0.0411,-0.00624 0.06143,-0.01043c-0.00572,0.01019 -0.00898,0.02193 -0.00898,0.03445z"/><path d="M231.19351,155.08901c0,-0.01828 -0.00696,-0.03493 -0.01838,-0.04745c0.00504,-0.01429 0.00996,-0.02863 0.01476,-0.04299l0.00468,-0.0297c0.02176,-0.00773 0.04448,-0.01343 0.06793,-0.01688c0.00528,0.00507 0.00935,0.00778 0.00935,0.00778l0.05852,0.03007c0.01463,0.00077 0.06705,-0.00763 0.07516,0.02281c0.00471,0.01771 0.00299,0.09997 -0.02465,0.10406c-0.04451,0.00658 -0.09027,-0.00922 -0.13492,-0.00368c-0.02066,0.00257 -0.0411,0.00624 -0.06143,0.01043c0.00572,-0.01019 0.00898,-0.02193 0.00898,-0.03445z" data-paper-data="{&quot;index&quot;:null}"/><path d="M232.64826,154.67689c-0.00328,0.00103 -0.00649,0.00237 -0.00963,0.00406c-0.00797,0.00427 -0.0144,0.0101 -0.01978,0.01699c-0.14202,-0.00335 -0.29611,0.0975 -0.40921,0.15056c-0.02085,0.00978 -0.04989,0.02342 -0.07858,0.03931c-0.01053,-0.00466 -0.02337,-0.01027 -0.03694,-0.01616c0.02015,-0.06882 0.06022,-0.12914 0.11354,-0.17429c0.01235,0.0037 0.02223,0.0037 0.02223,0.0037c0.03537,-0.00239 0.07528,0.01036 0.1061,-0.00716c0.03137,-0.01784 0.05057,-0.05049 0.0719,-0.08056c0.01098,-0.00101 0.02211,-0.00152 0.03336,-0.00152c0.077,0 0.14837,0.02406 0.20702,0.06508z" data-paper-data="{&quot;index&quot;:null}"/><path d="M233.09195,155.00256c0,0.07267 -0.03677,0.13676 -0.09273,0.17467c0.02876,-0.04741 0.04135,-0.10923 0.01749,-0.15073c-0.00975,-0.01697 -0.03455,-0.01846 -0.05116,-0.02884c-0.01186,-0.00741 -0.03603,-0.01626 -0.0303,-0.02902c0.01129,-0.02514 0.045,-0.03524 0.05665,-0.06022c0.01216,-0.02605 0.01849,-0.04956 0.01921,-0.07184c0.04921,0.03859 0.08082,0.0986 0.08082,0.16598z" data-paper-data="{&quot;index&quot;:null}"/><path d="M231.96846,154.07057c0,-0.01252 -0.00326,-0.02426 -0.00898,-0.03445c0.02033,0.0042 0.04077,0.00787 0.06143,0.01043c0.04465,0.00554 0.09041,-0.01026 0.13492,-0.00368c0.02764,0.00409 0.02936,0.08635 0.02465,0.10406c-0.00811,0.03043 -0.06053,0.02204 -0.07516,0.02281l-0.05852,0.03007c0,0 -0.00407,0.00271 -0.00935,0.00778c-0.02345,-0.00345 -0.04617,-0.00915 -0.06793,-0.01688l-0.00468,-0.0297c-0.0048,-0.01437 -0.00971,-0.0287 -0.01476,-0.04299c0.01142,-0.01252 0.01838,-0.02917 0.01838,-0.04745z" data-paper-data="{&quot;index&quot;:null}"/><path d="M231.89711,157.25648c0,-0.08795 0.0713,-0.15926 0.15926,-0.15926c0.00915,0 0.01812,0.00077 0.02685,0.00225c0.04082,0.04317 -0.04155,0.08125 -0.04706,0.12058c-0.00527,0.03764 0.02343,0.06858 0.05157,0.08563c0.00556,0.00337 0.01481,-0.00169 0.01927,0.00304c0.00301,0.00319 -0.00363,0.00802 -0.00489,0.01222c-0.00176,0.00586 -0.00874,0.03894 -0.01406,0.04639c-0.03392,0.04747 -0.08109,-0.03662 -0.10432,-0.04632c-0.01696,-0.00708 -0.05144,-0.00693 -0.07574,-0.00657c-0.00702,-0.01796 -0.01087,-0.03751 -0.01087,-0.05795z" data-paper-data="{&quot;index&quot;:null}"/><path d="M232.50016,154.10948c0,0.06739 -0.03161,0.12738 -0.08082,0.16598c-0.00072,-0.02228 -0.00706,-0.04579 -0.01921,-0.07184c-0.01166,-0.02497 -0.04536,-0.03508 -0.05665,-0.06022c-0.00573,-0.01275 0.01844,-0.02161 0.0303,-0.02902c0.0166,-0.01037 0.0414,-0.01186 0.05116,-0.02884c0.02385,-0.0415 0.01126,-0.10331 -0.01749,-0.15073c0.05595,0.03791 0.09273,0.10199 0.09273,0.17466z" data-paper-data="{&quot;index&quot;:null}"/><path d="M231.4894,156.44166c0,-0.01828 -0.00696,-0.03493 -0.01838,-0.04745c0.00504,-0.01429 0.00996,-0.02863 0.01476,-0.04299l0.00468,-0.0297c0.02176,-0.00773 0.04448,-0.01343 0.06793,-0.01688c0.00528,0.00507 0.00935,0.00778 0.00935,0.00778l0.05852,0.03007c0.01463,0.00077 0.06705,-0.00763 0.07516,0.02281c0.00471,0.01771 0.00299,0.09997 -0.02465,0.10406c-0.04451,0.00658 -0.09027,-0.00922 -0.13492,-0.00368c-0.02066,0.00257 -0.0411,0.00623 -0.06143,0.01043c0.00572,-0.01019 0.00898,-0.02193 0.00898,-0.03445z" data-paper-data="{&quot;index&quot;:null}"/></g></g><g fill="#81ff35" stroke="#68cc2b" stroke-width="0.15"><path d="M232.94567,157.12249c0,0.01157 0.00062,0.02277 0.00182,0.03362c-0.02832,0.00924 -0.05846,0.02427 -0.08851,0.0429c-0.01399,-0.00214 -0.02832,-0.00325 -0.04292,-0.00325c-0.00786,-0.00197 -0.01541,-0.00385 -0.02257,-0.00564h-0.05448c-0.02776,-0.02082 -0.05388,-0.03554 -0.07935,-0.04514c0.03011,-0.08882 0.10558,-0.15671 0.19882,-0.1761c0.01694,0.0511 0.04811,0.09571 0.08881,0.12914c-0.00106,0.00808 -0.00162,0.01624 -0.00162,0.02447z"/><path d="M230.68092,155.68254c-0.01319,-0.00189 -0.02669,-0.00287 -0.04041,-0.00287c-0.09879,0 -0.18571,0.05084 -0.23602,0.12778c-0.0128,-0.01274 -0.0218,-0.02977 -0.02324,-0.05495c-0.00296,-0.0519 -0.0193,-0.10699 -0.01691,-0.15959c0.00106,-0.02332 0.0067,-0.04734 0.01423,-0.07177c0.15351,0.00664 0.30111,0.00289 0.30235,0.1614z"/><path d="M233.79732,155.04424c0.00197,0.00831 0.02887,0.04764 0.02288,0.05553c-0.02216,0.02917 -0.04161,0.05331 -0.05802,0.07544c-0.00028,-0.00046 -0.00056,-0.00092 -0.00085,-0.00139c-0.04026,-0.06612 -0.33238,0.01227 -0.28744,-0.18267c0.03697,-0.01616 0.06981,-0.04001 0.09648,-0.06954c0.06794,-0.01064 0.15519,0.0034 0.20859,0.0157c0.00474,0.04403 0.01305,0.08449 0.01837,0.10693z"/><path d="M230.87203,154.71308c0,-0.00823 -0.00056,-0.01639 -0.00162,-0.02447c0.04071,-0.03343 0.07188,-0.07804 0.08882,-0.12914c0.09324,0.01939 0.1687,0.08728 0.19882,0.1761c-0.02547,0.0096 -0.05159,0.02432 -0.07935,0.04514h-0.05448c-0.00716,0.00179 -0.01471,0.00366 -0.02257,0.00564c-0.01459,0 -0.02893,0.00111 -0.04292,0.00325c-0.03005,-0.01863 -0.06019,-0.03366 -0.08851,-0.04289c0.0012,-0.01086 0.00182,-0.02207 0.00182,-0.03362z" data-paper-data="{&quot;index&quot;:null}"/><path d="M232.674,155.50213c0,-0.00823 -0.00056,-0.01639 -0.00163,-0.02447c0.04071,-0.03343 0.07188,-0.07804 0.08882,-0.12914c0.09324,0.01939 0.1687,0.08728 0.19881,0.1761c-0.02547,0.0096 -0.05159,0.02432 -0.07935,0.04514h-0.05448c-0.00716,0.00179 -0.01471,0.00366 -0.02257,0.00564c-0.01459,0 -0.02893,0.00111 -0.04292,0.00325c-0.03005,-0.01863 -0.06019,-0.03366 -0.08851,-0.0429c0.0012,-0.01086 0.00182,-0.02206 0.00182,-0.03362z" data-paper-data="{&quot;index&quot;:null}"/><path d="M233.04471,154.57492c-0.05339,0.0123 -0.14065,0.02634 -0.20859,0.0157c-0.02667,-0.02953 -0.05951,-0.05339 -0.09648,-0.06954c-0.04494,-0.19494 0.24718,-0.11655 0.28744,-0.18267c0.00028,-0.00046 0.00056,-0.00092 0.00085,-0.00139c0.01641,0.02212 0.03586,0.04626 0.05802,0.07543c0.00599,0.0079 -0.0209,0.04722 -0.02288,0.05553c-0.00532,0.02245 -0.01363,0.06291 -0.01836,0.10693z" data-paper-data="{&quot;index&quot;:null}"/></g><g stroke-width="0.25"><g><path d="M232.72304,153.78877c0.19454,0 0.35225,0.15771 0.35225,0.35225c0,0.19454 -0.15771,0.35225 -0.35225,0.35225c-0.19454,0 -0.35225,-0.15771 -0.35225,-0.35225c0,-0.19454 0.15771,-0.35225 0.35225,-0.35225z" fill="#c30007" stroke="#8a0005"/><path d="M232.91091,154.11096c0.03735,0 0.06763,0.03028 0.06763,0.06763c0,0.03735 -0.03028,0.06764 -0.06763,0.06764c-0.03736,0 -0.06763,-0.03028 -0.06763,-0.06764c0,-0.03735 0.03028,-0.06763 0.06763,-0.06763z" fill="#ff7272" stroke="none"/><path d="M232.67419,154.06023c0.01868,0 0.03381,0.01514 0.03381,0.03382c0,0.01868 -0.01514,0.03381 -0.03381,0.03381c-0.01868,0 -0.03382,-0.01514 -0.03382,-0.03381c0,-0.01868 0.01514,-0.03382 0.03382,-0.03382z" fill="#ff9191" stroke="none"/><path d="M232.87146,153.97006c0.02179,0 0.03945,0.01766 0.03945,0.03945c0,0.02179 -0.01766,0.03945 -0.03945,0.03945c-0.02179,0 -0.03945,-0.01766 -0.03945,-0.03945c0,-0.02179 0.01766,-0.03945 0.03945,-0.03945z" fill="#ffaeae" stroke="none"/><path d="M232.71928,153.86861c0.03735,0 0.06763,0.03028 0.06763,0.06764c0,0.03735 -0.03028,0.06763 -0.06763,0.06763c-0.03736,0 -0.06763,-0.03028 -0.06763,-0.06763c0,-0.03735 0.03028,-0.06764 0.06763,-0.06764z" fill="#ff7272" stroke="none"/><path d="M232.54175,153.94751c0.01401,0 0.02536,0.01135 0.02536,0.02536c0,0.01401 -0.01136,0.02536 -0.02536,0.02536c-0.01401,0 -0.02536,-0.01135 -0.02536,-0.02536c0,-0.01401 0.01135,-0.02536 0.02536,-0.02536z" fill="#ffc4c4" stroke="none"/><path d="M232.75592,154.21523c0.01556,0 0.02818,0.01261 0.02818,0.02818c0,0.01556 -0.01262,0.02818 -0.02818,0.02818c-0.01556,0 -0.02818,-0.01262 -0.02818,-0.02818c0,-0.01556 0.01262,-0.02818 0.02818,-0.02818z" fill="#ffa3a3" stroke="none"/><path d="M232.48821,154.08841c0.02179,0 0.03945,0.01766 0.03945,0.03945c0,0.02179 -0.01766,0.03945 -0.03945,0.03945c-0.02179,0 -0.03945,-0.01766 -0.03945,-0.03945c0,-0.02179 0.01766,-0.03945 0.03945,-0.03945z" fill="#ff9898" stroke="none"/><path d="M232.68265,154.35049c0.01556,0 0.02818,0.01261 0.02818,0.02818c0,0.01556 -0.01261,0.02818 -0.02818,0.02818c-0.01556,0 -0.02818,-0.01262 -0.02818,-0.02818c0,-0.01556 0.01262,-0.02818 0.02818,-0.02818z" fill="#ffc4c4" stroke="none"/><path d="M232.57275,154.21241c0.03736,0 0.06763,0.03028 0.06763,0.06764c0,0.03735 -0.03028,0.06763 -0.06763,0.06763c-0.03736,0 -0.06764,-0.03028 -0.06764,-0.06763c0,-0.03735 0.03028,-0.06764 0.06764,-0.06764z" fill="#ff7272" stroke="none"/></g><g><path d="M233.56845,154.15511c0.19454,0 0.35225,0.15771 0.35225,0.35225c0,0.19454 -0.15771,0.35225 -0.35225,0.35225c-0.19454,0 -0.35225,-0.15771 -0.35225,-0.35225c0,-0.19454 0.15771,-0.35225 0.35225,-0.35225z" fill="#c30007" stroke="#8a0005"/><path d="M233.75632,154.4773c0.03736,0 0.06764,0.03028 0.06764,0.06764c0,0.03735 -0.03028,0.06764 -0.06764,0.06764c-0.03735,0 -0.06763,-0.03028 -0.06763,-0.06764c0,-0.03735 0.03028,-0.06764 0.06763,-0.06764z" fill="#ff7272" stroke="none"/><path d="M233.5196,154.42658c0.01868,0 0.03382,0.01514 0.03382,0.03382c0,0.01868 -0.01514,0.03382 -0.03382,0.03382c-0.01867,0 -0.03381,-0.01514 -0.03381,-0.03382c0,-0.01868 0.01514,-0.03382 0.03381,-0.03382z" fill="#ff9191" stroke="none"/><path d="M233.71687,154.3364c0.02179,0 0.03945,0.01766 0.03945,0.03945c0,0.02179 -0.01766,0.03945 -0.03945,0.03945c-0.02179,0 -0.03945,-0.01766 -0.03945,-0.03945c0,-0.02179 0.01766,-0.03945 0.03945,-0.03945z" fill="#ffaeae" stroke="none"/><path d="M233.5647,154.23495c0.03736,0 0.06763,0.03028 0.06763,0.06763c0,0.03735 -0.03028,0.06764 -0.06763,0.06764c-0.03735,0 -0.06763,-0.03028 -0.06763,-0.06764c0,-0.03735 0.03028,-0.06763 0.06763,-0.06763z" fill="#ff7272" stroke="none"/><path d="M233.38716,154.31386c0.01401,0 0.02536,0.01135 0.02536,0.02536c0,0.01401 -0.01135,0.02536 -0.02536,0.02536c-0.01401,0 -0.02536,-0.01135 -0.02536,-0.02536c0,-0.01401 0.01136,-0.02536 0.02536,-0.02536z" fill="#ffc4c4" stroke="none"/><path d="M233.60133,154.58157c0.01556,0 0.02818,0.01262 0.02818,0.02818c0,0.01556 -0.01262,0.02818 -0.02818,0.02818c-0.01556,0 -0.02818,-0.01261 -0.02818,-0.02818c0,-0.01556 0.01262,-0.02818 0.02818,-0.02818z" fill="#ffa3a3" stroke="none"/><path d="M233.33362,154.45476c0.02179,0 0.03945,0.01766 0.03945,0.03945c0,0.02179 -0.01766,0.03945 -0.03945,0.03945c-0.02179,0 -0.03945,-0.01766 -0.03945,-0.03945c0,-0.02179 0.01766,-0.03945 0.03945,-0.03945z" fill="#ff9898" stroke="none"/><path d="M233.52806,154.71684c0.01556,0 0.02818,0.01262 0.02818,0.02818c0,0.01556 -0.01262,0.02818 -0.02818,0.02818c-0.01556,0 -0.02818,-0.01261 -0.02818,-0.02818c0,-0.01556 0.01262,-0.02818 0.02818,-0.02818z" fill="#ffc4c4" stroke="none"/><path d="M233.41816,154.57875c0.03736,0 0.06764,0.03028 0.06764,0.06763c0,0.03735 -0.03028,0.06764 -0.06764,0.06764c-0.03736,0 -0.06764,-0.03028 -0.06764,-0.06764c0,-0.03735 0.03028,-0.06763 0.06764,-0.06763z" fill="#ff7272" stroke="none"/></g><g><path d="M234.59703,155.32459c0,0.19454 -0.15771,0.35225 -0.35225,0.35225c-0.19454,0 -0.35225,-0.15771 -0.35225,-0.35225c0,-0.19454 0.15771,-0.35225 0.35225,-0.35225c0.19454,0 0.35225,0.15771 0.35225,0.35225z" fill="#c30007" stroke="#8a0005"/><path d="M234.12454,155.36216c0,0.03735 -0.03028,0.06764 -0.06763,0.06764c-0.03735,0 -0.06763,-0.03028 -0.06763,-0.06764c0,-0.03735 0.03028,-0.06764 0.06763,-0.06764c0.03736,0 0.06763,0.03028 0.06763,0.06764z" fill="#ff7272" stroke="none"/><path d="M234.32744,155.27762c0,0.01868 -0.01514,0.03382 -0.03382,0.03382c-0.01867,0 -0.03381,-0.01514 -0.03381,-0.03382c0,-0.01868 0.01514,-0.03382 0.03381,-0.03382c0.01868,0 0.03382,0.01514 0.03382,0.03382z" fill="#ff9191" stroke="none"/><path d="M234.13581,155.19308c0,0.02179 -0.01766,0.03945 -0.03945,0.03945c-0.02179,0 -0.03945,-0.01766 -0.03945,-0.03945c0,-0.02179 0.01767,-0.03945 0.03945,-0.03945c0.02179,0 0.03945,0.01766 0.03945,0.03945z" fill="#ffaeae" stroke="none"/><path d="M234.31617,155.11981c0,0.03735 -0.03028,0.06763 -0.06763,0.06763c-0.03735,0 -0.06763,-0.03028 -0.06763,-0.06763c0,-0.03735 0.03028,-0.06764 0.06763,-0.06764c0.03736,0 0.06763,0.03028 0.06763,0.06764z" fill="#ff7272" stroke="none"/><path d="M234.45143,155.15645c0,0.01401 -0.01135,0.02536 -0.02536,0.02536c-0.01401,0 -0.02536,-0.01135 -0.02536,-0.02536c0,-0.01401 0.01136,-0.02536 0.02536,-0.02536c0.01401,0 0.02536,0.01135 0.02536,0.02536z" fill="#ffc4c4" stroke="none"/><path d="M234.24008,155.42698c0,0.01556 -0.01262,0.02818 -0.02818,0.02818c-0.01556,0 -0.02818,-0.01261 -0.02818,-0.02818c0,-0.01556 0.01261,-0.02818 0.02818,-0.02818c0.01556,0 0.02818,0.01262 0.02818,0.02818z" fill="#ffa3a3" stroke="none"/><path d="M234.51906,155.31144c0,0.02179 -0.01766,0.03945 -0.03945,0.03945c-0.02179,0 -0.03945,-0.01766 -0.03945,-0.03945c0,-0.02179 0.01766,-0.03945 0.03945,-0.03945c0.02179,0 0.03945,0.01766 0.03945,0.03945z" fill="#ff9898" stroke="none"/><path d="M234.31335,155.56225c0,0.01556 -0.01262,0.02818 -0.02818,0.02818c-0.01556,0 -0.02818,-0.01261 -0.02818,-0.02818c0,-0.01556 0.01261,-0.02818 0.02818,-0.02818c0.01556,0 0.02818,0.01262 0.02818,0.02818z" fill="#ffc4c4" stroke="none"/><path d="M234.4627,155.46361c0,0.03735 -0.03028,0.06764 -0.06763,0.06764c-0.03735,0 -0.06763,-0.03028 -0.06763,-0.06764c0,-0.03735 0.03028,-0.06763 0.06763,-0.06763c0.03736,0 0.06763,0.03028 0.06763,0.06763z" fill="#ff7272" stroke="none"/></g><g><path d="M234.27296,156.69133c-0.19454,0 -0.35225,-0.15771 -0.35225,-0.35225c0,-0.19454 0.15771,-0.35225 0.35225,-0.35225c0.19454,0 0.35225,0.15771 0.35225,0.35225c0,0.19454 -0.15771,0.35225 -0.35225,0.35225z" fill="#c30007" stroke="#8a0005"/><path d="M234.08509,156.36914c-0.03736,0 -0.06763,-0.03028 -0.06763,-0.06764c0,-0.03735 0.03028,-0.06763 0.06763,-0.06763c0.03735,0 0.06763,0.03028 0.06763,0.06763c0,0.03735 -0.03028,0.06764 -0.06763,0.06764z" fill="#ff7272" stroke="none"/><path d="M234.3218,156.41986c-0.01867,0 -0.03382,-0.01514 -0.03382,-0.03381c0,-0.01868 0.01514,-0.03382 0.03382,-0.03382c0.01868,0 0.03382,0.01514 0.03382,0.03382c0,0.01868 -0.01514,0.03381 -0.03382,0.03381z" fill="#ff9191" stroke="none"/><path d="M234.12454,156.51004c-0.02179,0 -0.03945,-0.01766 -0.03945,-0.03945c0,-0.02179 0.01766,-0.03945 0.03945,-0.03945c0.02179,0 0.03945,0.01766 0.03945,0.03945c0,0.02179 -0.01766,0.03945 -0.03945,0.03945z" fill="#ffaeae" stroke="none"/><path d="M234.27672,156.61149c-0.03735,0 -0.06763,-0.03028 -0.06763,-0.06764c0,-0.03735 0.03028,-0.06764 0.06763,-0.06764c0.03736,0 0.06763,0.03028 0.06763,0.06764c0,0.03735 -0.03028,0.06764 -0.06763,0.06764z" fill="#ff7272" stroke="none"/><path d="M234.45425,156.53258c-0.01401,0 -0.02536,-0.01135 -0.02536,-0.02536c0,-0.01401 0.01136,-0.02536 0.02536,-0.02536c0.01401,0 0.02536,0.01135 0.02536,0.02536c0,0.01401 -0.01135,0.02536 -0.02536,0.02536z" fill="#ffc4c4" stroke="none"/><path d="M234.24008,156.26487c-0.01556,0 -0.02818,-0.01262 -0.02818,-0.02818c0,-0.01556 0.01262,-0.02818 0.02818,-0.02818c0.01556,0 0.02818,0.01261 0.02818,0.02818c0,0.01556 -0.01262,0.02818 -0.02818,0.02818z" fill="#ffa3a3" stroke="none"/><path d="M234.50779,156.39168c-0.02179,0 -0.03945,-0.01766 -0.03945,-0.03945c0,-0.02179 0.01766,-0.03945 0.03945,-0.03945c0.02179,0 0.03945,0.01766 0.03945,0.03945c0,0.02179 -0.01767,0.03945 -0.03945,0.03945z" fill="#ff9898" stroke="none"/><path d="M234.31335,156.12961c-0.01556,0 -0.02818,-0.01262 -0.02818,-0.02818c0,-0.01556 0.01262,-0.02818 0.02818,-0.02818c0.01556,0 0.02818,0.01261 0.02818,0.02818c0,0.01556 -0.01261,0.02818 -0.02818,0.02818z" fill="#ffc4c4" stroke="none"/><path d="M234.42325,156.26769c-0.03736,0 -0.06763,-0.03028 -0.06763,-0.06763c0,-0.03735 0.03028,-0.06764 0.06763,-0.06764c0.03735,0 0.06763,0.03028 0.06763,0.06764c0,0.03735 -0.03028,0.06763 -0.06763,0.06763z" fill="#ff7272" stroke="none"/></g><g><path d="M233.55436,157.15631c0,-0.19454 0.15771,-0.35225 0.35225,-0.35225c0.19454,0 0.35225,0.15771 0.35225,0.35225c0,0.19454 -0.15771,0.35225 -0.35225,0.35225c-0.19454,0 -0.35225,-0.15771 -0.35225,-0.35225z" fill="#c30007" stroke="#8a0005"/><path d="M234.02685,157.11874c0,-0.03735 0.03028,-0.06764 0.06763,-0.06764c0.03736,0 0.06763,0.03028 0.06763,0.06764c0,0.03735 -0.03028,0.06763 -0.06763,0.06763c-0.03735,0 -0.06763,-0.03028 -0.06763,-0.06763z" fill="#ff7272" stroke="none"/><path d="M233.82395,157.20328c0,-0.01868 0.01514,-0.03382 0.03382,-0.03382c0.01868,0 0.03382,0.01514 0.03382,0.03382c0,0.01868 -0.01514,0.03381 -0.03382,0.03381c-0.01867,0 -0.03382,-0.01514 -0.03382,-0.03381z" fill="#ff9191" stroke="none"/><path d="M234.01558,157.28782c0,-0.02179 0.01766,-0.03945 0.03945,-0.03945c0.02179,0 0.03945,0.01766 0.03945,0.03945c0,0.02179 -0.01766,0.03945 -0.03945,0.03945c-0.02179,0 -0.03945,-0.01766 -0.03945,-0.03945z" fill="#ffaeae" stroke="none"/><path d="M233.83522,157.36108c0,-0.03735 0.03028,-0.06764 0.06763,-0.06764c0.03736,0 0.06763,0.03028 0.06763,0.06764c0,0.03735 -0.03028,0.06764 -0.06763,0.06764c-0.03735,0 -0.06763,-0.03028 -0.06763,-0.06764z" fill="#ff7272" stroke="none"/><path d="M233.69996,157.32445c0,-0.01401 0.01136,-0.02536 0.02536,-0.02536c0.01401,0 0.02536,0.01135 0.02536,0.02536c0,0.01401 -0.01135,0.02536 -0.02536,0.02536c-0.01401,0 -0.02536,-0.01135 -0.02536,-0.02536z" fill="#ffc4c4" stroke="none"/><path d="M233.91131,157.05392c0,-0.01556 0.01261,-0.02818 0.02818,-0.02818c0.01556,0 0.02818,0.01261 0.02818,0.02818c0,0.01556 -0.01262,0.02818 -0.02818,0.02818c-0.01556,0 -0.02818,-0.01262 -0.02818,-0.02818z" fill="#ffa3a3" stroke="none"/><path d="M233.63232,157.16946c0,-0.02179 0.01766,-0.03945 0.03945,-0.03945c0.02179,0 0.03945,0.01766 0.03945,0.03945c0,0.02179 -0.01766,0.03945 -0.03945,0.03945c-0.02179,0 -0.03945,-0.01766 -0.03945,-0.03945z" fill="#ff9898" stroke="none"/><path d="M233.83804,156.91866c0,-0.01556 0.01261,-0.02818 0.02818,-0.02818c0.01556,0 0.02818,0.01261 0.02818,0.02818c0,0.01556 -0.01262,0.02818 -0.02818,0.02818c-0.01556,0 -0.02818,-0.01262 -0.02818,-0.02818z" fill="#ffc4c4" stroke="none"/><path d="M233.68869,157.01728c0,-0.03735 0.03028,-0.06764 0.06763,-0.06764c0.03736,0 0.06764,0.03028 0.06764,0.06764c0,0.03735 -0.03028,0.06763 -0.06764,0.06763c-0.03735,0 -0.06763,-0.03028 -0.06763,-0.06763z" fill="#ff7272" stroke="none"/></g><g><path d="M233.31483,156.12773c0.19454,0 0.35225,0.15771 0.35225,0.35225c0,0.19454 -0.15771,0.35225 -0.35225,0.35225c-0.19454,0 -0.35225,-0.15771 -0.35225,-0.35225c0,-0.19454 0.15771,-0.35225 0.35225,-0.35225z" fill="#c30007" stroke="#8a0005"/><path d="M233.5027,156.44992c0.03735,0 0.06763,0.03028 0.06763,0.06763c0,0.03735 -0.03028,0.06764 -0.06763,0.06764c-0.03735,0 -0.06763,-0.03028 -0.06763,-0.06764c0,-0.03735 0.03028,-0.06763 0.06763,-0.06763z" fill="#ff7272" stroke="none"/><path d="M233.26598,156.3992c0.01867,0 0.03381,0.01514 0.03381,0.03381c0,0.01868 -0.01514,0.03381 -0.03381,0.03381c-0.01867,0 -0.03382,-0.01514 -0.03382,-0.03381c0,-0.01868 0.01514,-0.03381 0.03382,-0.03381z" fill="#ff9191" stroke="none"/><path d="M233.46324,156.30902c0.02179,0 0.03945,0.01766 0.03945,0.03945c0,0.02179 -0.01766,0.03945 -0.03945,0.03945c-0.02179,0 -0.03945,-0.01766 -0.03945,-0.03945c0,-0.02179 0.01766,-0.03945 0.03945,-0.03945z" fill="#ffaeae" stroke="none"/><path d="M233.31107,156.20757c0.03735,0 0.06763,0.03028 0.06763,0.06763c0,0.03735 -0.03028,0.06763 -0.06763,0.06763c-0.03735,0 -0.06763,-0.03028 -0.06763,-0.06763c0,-0.03735 0.03028,-0.06763 0.06763,-0.06763z" fill="#ff7272" stroke="none"/><path d="M233.13353,156.28648c0.01401,0 0.02536,0.01135 0.02536,0.02536c0,0.01401 -0.01135,0.02536 -0.02536,0.02536c-0.01401,0 -0.02536,-0.01135 -0.02536,-0.02536c0,-0.01401 0.01135,-0.02536 0.02536,-0.02536z" fill="#ffc4c4" stroke="none"/><path d="M233.3477,156.55419c0.01556,0 0.02818,0.01261 0.02818,0.02818c0,0.01556 -0.01262,0.02818 -0.02818,0.02818c-0.01556,0 -0.02818,-0.01262 -0.02818,-0.02818c0,-0.01556 0.01261,-0.02818 0.02818,-0.02818z" fill="#ffa3a3" stroke="none"/><path d="M233.07999,156.42738c0.02179,0 0.03945,0.01766 0.03945,0.03945c0,0.02179 -0.01766,0.03945 -0.03945,0.03945c-0.02179,0 -0.03945,-0.01766 -0.03945,-0.03945c0,-0.02179 0.01766,-0.03945 0.03945,-0.03945z" fill="#ff9898" stroke="none"/><path d="M233.27444,156.68946c0.01556,0 0.02818,0.01262 0.02818,0.02818c0,0.01556 -0.01262,0.02818 -0.02818,0.02818c-0.01556,0 -0.02818,-0.01261 -0.02818,-0.02818c0,-0.01556 0.01262,-0.02818 0.02818,-0.02818z" fill="#ffc4c4" stroke="none"/><path d="M233.16453,156.55137c0.03736,0 0.06763,0.03028 0.06763,0.06764c0,0.03735 -0.03028,0.06764 -0.06763,0.06764c-0.03735,0 -0.06763,-0.03028 -0.06763,-0.06764c0,-0.03735 0.03028,-0.06764 0.06763,-0.06764z" fill="#ff7272" stroke="none"/></g><g><path d="M233.01893,155.52185c0,-0.19454 0.15771,-0.35225 0.35225,-0.35225c0.19454,0 0.35225,0.15771 0.35225,0.35225c0,0.19454 -0.15771,0.35225 -0.35225,0.35225c-0.19454,0 -0.35225,-0.15771 -0.35225,-0.35225z" fill="#c30007" stroke="#8a0005"/><path d="M233.49142,155.48428c0,-0.03735 0.03028,-0.06763 0.06764,-0.06763c0.03735,0 0.06763,0.03028 0.06763,0.06763c0,0.03735 -0.03028,0.06764 -0.06763,0.06764c-0.03736,0 -0.06764,-0.03028 -0.06764,-0.06764z" fill="#ff7272" stroke="none"/><path d="M233.28853,155.56882c0,-0.01868 0.01514,-0.03382 0.03382,-0.03382c0.01867,0 0.03381,0.01514 0.03381,0.03382c0,0.01868 -0.01514,0.03382 -0.03381,0.03382c-0.01867,0 -0.03382,-0.01514 -0.03382,-0.03382z" fill="#ff9191" stroke="none"/><path d="M233.48015,155.65336c0,-0.02179 0.01766,-0.03945 0.03945,-0.03945c0.02179,0 0.03945,0.01766 0.03945,0.03945c0,0.02179 -0.01767,0.03945 -0.03945,0.03945c-0.02179,0 -0.03945,-0.01766 -0.03945,-0.03945z" fill="#ffaeae" stroke="none"/><path d="M233.2998,155.72663c0,-0.03735 0.03028,-0.06764 0.06764,-0.06764c0.03735,0 0.06763,0.03028 0.06763,0.06764c0,0.03735 -0.03028,0.06764 -0.06763,0.06764c-0.03736,0 -0.06764,-0.03028 -0.06764,-0.06764z" fill="#ff7272" stroke="none"/><path d="M233.16453,155.69c0,-0.01401 0.01136,-0.02536 0.02536,-0.02536c0.01401,0 0.02536,0.01135 0.02536,0.02536c0,0.01401 -0.01136,0.02536 -0.02536,0.02536c-0.01401,0 -0.02536,-0.01135 -0.02536,-0.02536z" fill="#ffc4c4" stroke="none"/><path d="M233.37588,155.41946c0,-0.01556 0.01262,-0.02818 0.02818,-0.02818c0.01556,0 0.02818,0.01261 0.02818,0.02818c0,0.01556 -0.01262,0.02818 -0.02818,0.02818c-0.01556,0 -0.02818,-0.01262 -0.02818,-0.02818z" fill="#ffa3a3" stroke="none"/><path d="M233.0969,155.535c0,-0.02179 0.01766,-0.03945 0.03945,-0.03945c0.02179,0 0.03945,0.01766 0.03945,0.03945c0,0.02179 -0.01766,0.03945 -0.03945,0.03945c-0.02179,0 -0.03945,-0.01766 -0.03945,-0.03945z" fill="#ff9898" stroke="none"/><path d="M233.30262,155.2842c0,-0.01556 0.01262,-0.02818 0.02818,-0.02818c0.01556,0 0.02818,0.01261 0.02818,0.02818c0,0.01556 -0.01261,0.02818 -0.02818,0.02818c-0.01556,0 -0.02818,-0.01262 -0.02818,-0.02818z" fill="#ffc4c4" stroke="none"/><path d="M233.15326,155.38283c0,-0.03735 0.03028,-0.06763 0.06763,-0.06763c0.03735,0 0.06763,0.03028 0.06763,0.06763c0,0.03735 -0.03028,0.06764 -0.06763,0.06764c-0.03736,0 -0.06763,-0.03028 -0.06763,-0.06764z" fill="#ff7272" stroke="none"/></g><g><path d="M232.79349,155.07097c0,0.19454 -0.15771,0.35225 -0.35225,0.35225c-0.19454,0 -0.35225,-0.15771 -0.35225,-0.35225c0,-0.19454 0.15771,-0.35225 0.35225,-0.35225c0.19454,0 0.35225,0.15771 0.35225,0.35225z" fill="#c30007" stroke="#8a0005"/><path d="M232.321,155.10854c0,0.03735 -0.03028,0.06763 -0.06763,0.06763c-0.03735,0 -0.06763,-0.03028 -0.06763,-0.06763c0,-0.03735 0.03028,-0.06764 0.06763,-0.06764c0.03736,0 0.06763,0.03028 0.06763,0.06764z" fill="#ff7272" stroke="none"/><path d="M232.5239,155.024c0,0.01868 -0.01514,0.03381 -0.03382,0.03381c-0.01868,0 -0.03381,-0.01514 -0.03381,-0.03381c0,-0.01868 0.01514,-0.03381 0.03381,-0.03381c0.01868,0 0.03382,0.01514 0.03382,0.03381z" fill="#ff9191" stroke="none"/><path d="M232.33228,154.93946c0,0.02179 -0.01766,0.03945 -0.03945,0.03945c-0.02179,0 -0.03945,-0.01766 -0.03945,-0.03945c0,-0.02179 0.01766,-0.03945 0.03945,-0.03945c0.02179,0 0.03945,0.01766 0.03945,0.03945z" fill="#ffaeae" stroke="none"/><path d="M232.51263,154.86619c0,0.03735 -0.03028,0.06763 -0.06763,0.06763c-0.03735,0 -0.06763,-0.03028 -0.06763,-0.06763c0,-0.03735 0.03028,-0.06763 0.06763,-0.06763c0.03736,0 0.06763,0.03028 0.06763,0.06763z" fill="#ff7272" stroke="none"/><path d="M232.64789,154.90282c0,0.01401 -0.01135,0.02536 -0.02536,0.02536c-0.01401,0 -0.02536,-0.01135 -0.02536,-0.02536c0,-0.01401 0.01135,-0.02536 0.02536,-0.02536c0.01401,0 0.02536,0.01135 0.02536,0.02536z" fill="#ffc4c4" stroke="none"/><path d="M232.43654,155.17336c0,0.01556 -0.01262,0.02818 -0.02818,0.02818c-0.01556,0 -0.02818,-0.01262 -0.02818,-0.02818c0,-0.01556 0.01261,-0.02818 0.02818,-0.02818c0.01556,0 0.02818,0.01261 0.02818,0.02818z" fill="#ffa3a3" stroke="none"/><path d="M232.71553,155.05782c0,0.02179 -0.01766,0.03945 -0.03945,0.03945c-0.02179,0 -0.03945,-0.01766 -0.03945,-0.03945c0,-0.02179 0.01766,-0.03945 0.03945,-0.03945c0.02179,0 0.03945,0.01766 0.03945,0.03945z" fill="#ff9898" stroke="none"/><path d="M232.50981,155.30862c0,0.01556 -0.01262,0.02818 -0.02818,0.02818c-0.01556,0 -0.02818,-0.01262 -0.02818,-0.02818c0,-0.01556 0.01261,-0.02818 0.02818,-0.02818c0.01556,0 0.02818,0.01262 0.02818,0.02818z" fill="#ffc4c4" stroke="none"/><path d="M232.65917,155.20999c0,0.03735 -0.03028,0.06763 -0.06764,0.06763c-0.03735,0 -0.06763,-0.03028 -0.06763,-0.06763c0,-0.03735 0.03028,-0.06764 0.06763,-0.06764c0.03736,0 0.06764,0.03028 0.06764,0.06764z" fill="#ff7272" stroke="none"/></g><g><path d="M232.22091,155.93469c0,-0.19454 0.15771,-0.35225 0.35225,-0.35225c0.19455,0 0.35225,0.15771 0.35225,0.35225c0,0.19454 -0.15771,0.35225 -0.35225,0.35225c-0.19454,0 -0.35225,-0.15771 -0.35225,-0.35225z" fill="#c30007" stroke="#8a0005"/><path d="M232.6934,155.89712c0,-0.03735 0.03028,-0.06764 0.06763,-0.06764c0.03736,0 0.06764,0.03028 0.06764,0.06764c0,0.03735 -0.03028,0.06764 -0.06764,0.06764c-0.03735,0 -0.06763,-0.03028 -0.06763,-0.06764z" fill="#ff7272" stroke="none"/><path d="M232.4905,155.98166c0,-0.01868 0.01514,-0.03381 0.03382,-0.03381c0.01868,0 0.03382,0.01514 0.03382,0.03381c0,0.01868 -0.01514,0.03382 -0.03382,0.03382c-0.01868,0 -0.03382,-0.01514 -0.03382,-0.03382z" fill="#ff9191" stroke="none"/><path d="M232.68213,156.0662c0,-0.02179 0.01766,-0.03945 0.03945,-0.03945c0.02179,0 0.03945,0.01766 0.03945,0.03945c0,0.02179 -0.01766,0.03945 -0.03945,0.03945c-0.02179,0 -0.03945,-0.01766 -0.03945,-0.03945z" fill="#ffaeae" stroke="none"/><path d="M232.50177,156.13947c0,-0.03735 0.03028,-0.06764 0.06763,-0.06764c0.03735,0 0.06763,0.03028 0.06763,0.06764c0,0.03735 -0.03028,0.06763 -0.06763,0.06763c-0.03736,0 -0.06763,-0.03028 -0.06763,-0.06763z" fill="#ff7272" stroke="none"/><path d="M232.3665,156.10284c0,-0.01401 0.01136,-0.02536 0.02536,-0.02536c0.01401,0 0.02536,0.01135 0.02536,0.02536c0,0.01401 -0.01135,0.02536 -0.02536,0.02536c-0.01401,0 -0.02536,-0.01135 -0.02536,-0.02536z" fill="#ffc4c4" stroke="none"/><path d="M232.57786,155.8323c0,-0.01556 0.01262,-0.02818 0.02818,-0.02818c0.01556,0 0.02818,0.01261 0.02818,0.02818c0,0.01556 -0.01262,0.02818 -0.02818,0.02818c-0.01556,0 -0.02818,-0.01262 -0.02818,-0.02818z" fill="#ffa3a3" stroke="none"/><path d="M232.29887,155.94784c0,-0.02179 0.01766,-0.03945 0.03945,-0.03945c0.02179,0 0.03945,0.01766 0.03945,0.03945c0,0.02179 -0.01766,0.03945 -0.03945,0.03945c-0.02179,0 -0.03945,-0.01766 -0.03945,-0.03945z" fill="#ff9898" stroke="none"/><path d="M232.50459,155.69704c0,-0.01556 0.01262,-0.02818 0.02818,-0.02818c0.01556,0 0.02818,0.01262 0.02818,0.02818c0,0.01556 -0.01262,0.02818 -0.02818,0.02818c-0.01556,0 -0.02818,-0.01262 -0.02818,-0.02818z" fill="#ffc4c4" stroke="none"/><path d="M232.35523,155.79567c0,-0.03735 0.03028,-0.06763 0.06763,-0.06763c0.03735,0 0.06763,0.03028 0.06763,0.06763c0,0.03735 -0.03028,0.06764 -0.06763,0.06764c-0.03735,0 -0.06763,-0.03028 -0.06763,-0.06764z" fill="#ff7272" stroke="none"/></g><g><path d="M231.68037,156.09955c-0.19454,0 -0.35225,-0.15771 -0.35225,-0.35225c0,-0.19454 0.15771,-0.35225 0.35225,-0.35225c0.19454,0 0.35225,0.15771 0.35225,0.35225c0,0.19454 -0.15771,0.35225 -0.35225,0.35225z" fill="#c30007" stroke="#8a0005"/><path d="M231.4925,155.77735c-0.03736,0 -0.06764,-0.03028 -0.06764,-0.06763c0,-0.03735 0.03028,-0.06764 0.06764,-0.06764c0.03735,0 0.06763,0.03028 0.06763,0.06764c0,0.03735 -0.03028,0.06763 -0.06763,0.06763z" fill="#ff7272" stroke="none"/><path d="M231.72922,155.82808c-0.01868,0 -0.03381,-0.01514 -0.03381,-0.03381c0,-0.01868 0.01514,-0.03382 0.03381,-0.03382c0.01868,0 0.03382,0.01514 0.03382,0.03382c0,0.01868 -0.01514,0.03381 -0.03382,0.03381z" fill="#ff9191" stroke="none"/><path d="M231.53196,155.91826c-0.02179,0 -0.03945,-0.01766 -0.03945,-0.03945c0,-0.02179 0.01766,-0.03945 0.03945,-0.03945c0.02179,0 0.03945,0.01766 0.03945,0.03945c0,0.02179 -0.01767,0.03945 -0.03945,0.03945z" fill="#ffaeae" stroke="none"/><path d="M231.68413,156.01971c-0.03735,0 -0.06763,-0.03028 -0.06763,-0.06764c0,-0.03735 0.03028,-0.06764 0.06763,-0.06764c0.03735,0 0.06763,0.03028 0.06763,0.06764c0,0.03735 -0.03028,0.06764 -0.06763,0.06764z" fill="#ff7272" stroke="none"/><path d="M231.86166,155.9408c-0.01401,0 -0.02536,-0.01135 -0.02536,-0.02536c0,-0.01401 0.01135,-0.02536 0.02536,-0.02536c0.01401,0 0.02536,0.01135 0.02536,0.02536c0,0.01401 -0.01135,0.02536 -0.02536,0.02536z" fill="#ffc4c4" stroke="none"/><path d="M231.64749,155.67309c-0.01556,0 -0.02818,-0.01262 -0.02818,-0.02818c0,-0.01556 0.01261,-0.02818 0.02818,-0.02818c0.01556,0 0.02818,0.01261 0.02818,0.02818c0,0.01556 -0.01262,0.02818 -0.02818,0.02818z" fill="#ffa3a3" stroke="none"/><path d="M231.91521,155.7999c-0.02179,0 -0.03945,-0.01766 -0.03945,-0.03945c0,-0.02179 0.01766,-0.03945 0.03945,-0.03945c0.02179,0 0.03945,0.01766 0.03945,0.03945c0,0.02179 -0.01766,0.03945 -0.03945,0.03945z" fill="#ff9898" stroke="none"/><path d="M231.72076,155.53782c-0.01556,0 -0.02818,-0.01261 -0.02818,-0.02818c0,-0.01556 0.01261,-0.02818 0.02818,-0.02818c0.01556,0 0.02818,0.01262 0.02818,0.02818c0,0.01556 -0.01262,0.02818 -0.02818,0.02818z" fill="#ffc4c4" stroke="none"/><path d="M231.83066,155.67591c-0.03736,0 -0.06763,-0.03028 -0.06763,-0.06763c0,-0.03735 0.03028,-0.06764 0.06763,-0.06764c0.03735,0 0.06763,0.03028 0.06763,0.06764c0,0.03735 -0.03028,0.06763 -0.06763,0.06763z" fill="#ff7272" stroke="none"/></g><g><path d="M231.94808,154.53554c0,0.19454 -0.15771,0.35225 -0.35225,0.35225c-0.19454,0 -0.35225,-0.15771 -0.35225,-0.35225c0,-0.19454 0.15771,-0.35225 0.35225,-0.35225c0.19454,0 0.35225,0.15771 0.35225,0.35225z" fill="#c30007" stroke="#8a0005"/><path d="M231.47559,154.57312c0,0.03735 -0.03028,0.06764 -0.06763,0.06764c-0.03735,0 -0.06763,-0.03028 -0.06763,-0.06764c0,-0.03735 0.03028,-0.06763 0.06763,-0.06763c0.03735,0 0.06763,0.03028 0.06763,0.06763z" fill="#ff7272" stroke="none"/><path d="M231.67849,154.48858c0,0.01868 -0.01514,0.03382 -0.03382,0.03382c-0.01868,0 -0.03381,-0.01514 -0.03381,-0.03382c0,-0.01868 0.01514,-0.03381 0.03381,-0.03381c0.01868,0 0.03382,0.01514 0.03382,0.03381z" fill="#ff9191" stroke="none"/><path d="M231.48686,154.40404c0,0.02179 -0.01766,0.03945 -0.03945,0.03945c-0.02179,0 -0.03945,-0.01766 -0.03945,-0.03945c0,-0.02179 0.01766,-0.03945 0.03945,-0.03945c0.02179,0 0.03945,0.01766 0.03945,0.03945z" fill="#ffaeae" stroke="none"/><path d="M231.66722,154.33077c0,0.03735 -0.03028,0.06764 -0.06764,0.06764c-0.03736,0 -0.06764,-0.03028 -0.06764,-0.06764c0,-0.03735 0.03028,-0.06764 0.06764,-0.06764c0.03736,0 0.06764,0.03028 0.06764,0.06764z" fill="#ff7272" stroke="none"/><path d="M231.80249,154.3674c0,0.01401 -0.01136,0.02536 -0.02536,0.02536c-0.01401,0 -0.02536,-0.01135 -0.02536,-0.02536c0,-0.01401 0.01135,-0.02536 0.02536,-0.02536c0.01401,0 0.02536,0.01135 0.02536,0.02536z" fill="#ffc4c4" stroke="none"/><path d="M231.59113,154.63793c0,0.01556 -0.01262,0.02818 -0.02818,0.02818c-0.01556,0 -0.02818,-0.01262 -0.02818,-0.02818c0,-0.01556 0.01262,-0.02818 0.02818,-0.02818c0.01556,0 0.02818,0.01261 0.02818,0.02818z" fill="#ffa3a3" stroke="none"/><path d="M231.87012,154.52239c0,0.02179 -0.01766,0.03945 -0.03945,0.03945c-0.02179,0 -0.03945,-0.01766 -0.03945,-0.03945c0,-0.02179 0.01766,-0.03945 0.03945,-0.03945c0.02179,0 0.03945,0.01766 0.03945,0.03945z" fill="#ff9898" stroke="none"/><path d="M231.6644,154.7732c0,0.01556 -0.01262,0.02818 -0.02818,0.02818c-0.01556,0 -0.02818,-0.01262 -0.02818,-0.02818c0,-0.01556 0.01262,-0.02818 0.02818,-0.02818c0.01556,0 0.02818,0.01261 0.02818,0.02818z" fill="#ffc4c4" stroke="none"/><path d="M231.81376,154.67457c0,0.03735 -0.03028,0.06764 -0.06763,0.06764c-0.03736,0 -0.06764,-0.03028 -0.06764,-0.06764c0,-0.03735 0.03028,-0.06763 0.06764,-0.06763c0.03736,0 0.06763,0.03028 0.06763,0.06763z" fill="#ff7272" stroke="none"/></g><g><path d="M230.94768,154.83144c0.19454,0 0.35225,0.15771 0.35225,0.35225c0,0.19454 -0.15771,0.35225 -0.35225,0.35225c-0.19454,0 -0.35225,-0.15771 -0.35225,-0.35225c0,-0.19454 0.15771,-0.35225 0.35225,-0.35225z" fill="#c30007" stroke="#8a0005"/><path d="M231.13555,155.15363c0.03735,0 0.06764,0.03028 0.06764,0.06763c0,0.03735 -0.03028,0.06763 -0.06764,0.06763c-0.03735,0 -0.06763,-0.03028 -0.06763,-0.06763c0,-0.03735 0.03028,-0.06763 0.06763,-0.06763z" fill="#ff7272" stroke="none"/><path d="M230.89884,155.1029c0.01868,0 0.03382,0.01514 0.03382,0.03382c0,0.01868 -0.01514,0.03381 -0.03382,0.03381c-0.01868,0 -0.03381,-0.01514 -0.03381,-0.03381c0,-0.01868 0.01514,-0.03382 0.03381,-0.03382z" fill="#ff9191" stroke="none"/><path d="M231.0961,155.01273c0.02179,0 0.03945,0.01766 0.03945,0.03945c0,0.02179 -0.01766,0.03945 -0.03945,0.03945c-0.02179,0 -0.03945,-0.01766 -0.03945,-0.03945c0,-0.02179 0.01766,-0.03945 0.03945,-0.03945z" fill="#ffaeae" stroke="none"/><path d="M230.94393,154.91128c0.03735,0 0.06764,0.03028 0.06764,0.06763c0,0.03735 -0.03028,0.06764 -0.06764,0.06764c-0.03735,0 -0.06763,-0.03028 -0.06763,-0.06764c0,-0.03735 0.03028,-0.06763 0.06763,-0.06763z" fill="#ff7272" stroke="none"/><path d="M230.76639,154.99018c0.01401,0 0.02536,0.01135 0.02536,0.02536c0,0.01401 -0.01135,0.02536 -0.02536,0.02536c-0.01401,0 -0.02536,-0.01135 -0.02536,-0.02536c0,-0.01401 0.01135,-0.02536 0.02536,-0.02536z" fill="#ffc4c4" stroke="none"/><path d="M230.98056,155.2579c0.01556,0 0.02818,0.01261 0.02818,0.02818c0,0.01556 -0.01261,0.02818 -0.02818,0.02818c-0.01556,0 -0.02818,-0.01262 -0.02818,-0.02818c0,-0.01556 0.01262,-0.02818 0.02818,-0.02818z" fill="#ffa3a3" stroke="none"/><path d="M230.71285,155.13109c0.02179,0 0.03945,0.01766 0.03945,0.03945c0,0.02179 -0.01766,0.03945 -0.03945,0.03945c-0.02179,0 -0.03945,-0.01766 -0.03945,-0.03945c0,-0.02179 0.01766,-0.03945 0.03945,-0.03945z" fill="#ff9898" stroke="none"/><path d="M230.90729,155.39316c0.01556,0 0.02818,0.01261 0.02818,0.02818c0,0.01556 -0.01262,0.02818 -0.02818,0.02818c-0.01556,0 -0.02818,-0.01262 -0.02818,-0.02818c0,-0.01556 0.01261,-0.02818 0.02818,-0.02818z" fill="#ffc4c4" stroke="none"/><path d="M230.79739,155.25508c0.03735,0 0.06764,0.03028 0.06764,0.06764c0,0.03735 -0.03028,0.06764 -0.06764,0.06764c-0.03735,0 -0.06764,-0.03028 -0.06764,-0.06764c0,-0.03735 0.03028,-0.06764 0.06764,-0.06764z" fill="#ff7272" stroke="none"/></g><g><path d="M230.42635,156.17c0,-0.19454 0.15771,-0.35225 0.35225,-0.35225c0.19454,0 0.35225,0.15771 0.35225,0.35225c0,0.19454 -0.15771,0.35225 -0.35225,0.35225c-0.19454,0 -0.35225,-0.15771 -0.35225,-0.35225z" fill="#c30007" stroke="#8a0005"/><path d="M230.89884,156.13243c0,-0.03735 0.03028,-0.06764 0.06764,-0.06764c0.03735,0 0.06764,0.03028 0.06764,0.06764c0,0.03735 -0.03028,0.06764 -0.06764,0.06764c-0.03735,0 -0.06764,-0.03028 -0.06764,-0.06764z" fill="#ff7272" stroke="none"/><path d="M230.69594,156.21696c0,-0.01868 0.01514,-0.03382 0.03381,-0.03382c0.01868,0 0.03382,0.01514 0.03382,0.03382c0,0.01868 -0.01514,0.03381 -0.03382,0.03381c-0.01868,0 -0.03381,-0.01514 -0.03381,-0.03381z" fill="#ff9191" stroke="none"/><path d="M230.88757,156.30151c0,-0.02179 0.01766,-0.03945 0.03945,-0.03945c0.02179,0 0.03945,0.01766 0.03945,0.03945c0,0.02179 -0.01766,0.03945 -0.03945,0.03945c-0.02179,0 -0.03945,-0.01766 -0.03945,-0.03945z" fill="#ffaeae" stroke="none"/><path d="M230.70721,156.37478c0,-0.03735 0.03028,-0.06763 0.06764,-0.06763c0.03735,0 0.06764,0.03028 0.06764,0.06763c0,0.03735 -0.03028,0.06764 -0.06764,0.06764c-0.03735,0 -0.06764,-0.03028 -0.06764,-0.06764z" fill="#ff7272" stroke="none"/><path d="M230.57195,156.33814c0,-0.01401 0.01135,-0.02536 0.02536,-0.02536c0.01401,0 0.02536,0.01135 0.02536,0.02536c0,0.01401 -0.01135,0.02536 -0.02536,0.02536c-0.01401,0 -0.02536,-0.01135 -0.02536,-0.02536z" fill="#ffc4c4" stroke="none"/><path d="M230.7833,156.06761c0,-0.01556 0.01262,-0.02818 0.02818,-0.02818c0.01556,0 0.02818,0.01261 0.02818,0.02818c0,0.01556 -0.01261,0.02818 -0.02818,0.02818c-0.01556,0 -0.02818,-0.01262 -0.02818,-0.02818z" fill="#ffa3a3" stroke="none"/><path d="M230.50431,156.18315c0,-0.02179 0.01766,-0.03945 0.03945,-0.03945c0.02179,0 0.03945,0.01766 0.03945,0.03945c0,0.02179 -0.01766,0.03945 -0.03945,0.03945c-0.02179,0 -0.03945,-0.01766 -0.03945,-0.03945z" fill="#ff9898" stroke="none"/><path d="M230.71003,155.93234c0,-0.01556 0.01262,-0.02818 0.02818,-0.02818c0.01556,0 0.02818,0.01261 0.02818,0.02818c0,0.01556 -0.01261,0.02818 -0.02818,0.02818c-0.01556,0 -0.02818,-0.01262 -0.02818,-0.02818z" fill="#ffc4c4" stroke="none"/><path d="M230.56067,156.03098c0,-0.03735 0.03028,-0.06764 0.06764,-0.06764c0.03735,0 0.06763,0.03028 0.06763,0.06764c0,0.03735 -0.03028,0.06763 -0.06763,0.06763c-0.03735,0 -0.06764,-0.03028 -0.06764,-0.06763z" fill="#ff7272" stroke="none"/></g><g><path d="M231.39857,156.6068c0.19454,0 0.35225,0.15771 0.35225,0.35225c0,0.19454 -0.15771,0.35225 -0.35225,0.35225c-0.19455,0 -0.35225,-0.15771 -0.35225,-0.35225c0,-0.19454 0.15771,-0.35225 0.35225,-0.35225z" fill="#c30007" stroke="#8a0005"/><path d="M231.58643,156.92899c0.03735,0 0.06763,0.03028 0.06763,0.06763c0,0.03735 -0.03028,0.06764 -0.06763,0.06764c-0.03736,0 -0.06763,-0.03028 -0.06763,-0.06764c0,-0.03735 0.03028,-0.06763 0.06763,-0.06763z" fill="#ff7272" stroke="none"/><path d="M231.34972,156.87826c0.01868,0 0.03382,0.01514 0.03382,0.03382c0,0.01868 -0.01514,0.03381 -0.03382,0.03381c-0.01868,0 -0.03381,-0.01514 -0.03381,-0.03381c0,-0.01868 0.01514,-0.03382 0.03381,-0.03382z" fill="#ff9191" stroke="none"/><path d="M231.54699,156.78809c0.02179,0 0.03945,0.01766 0.03945,0.03945c0,0.02179 -0.01766,0.03945 -0.03945,0.03945c-0.02179,0 -0.03945,-0.01766 -0.03945,-0.03945c0,-0.02179 0.01766,-0.03945 0.03945,-0.03945z" fill="#ffaeae" stroke="none"/><path d="M231.39481,156.68664c0.03736,0 0.06764,0.03028 0.06764,0.06763c0,0.03735 -0.03028,0.06764 -0.06764,0.06764c-0.03735,0 -0.06763,-0.03028 -0.06763,-0.06764c0,-0.03735 0.03028,-0.06763 0.06763,-0.06763z" fill="#ff7272" stroke="none"/><path d="M231.21728,156.76554c0.01401,0 0.02536,0.01135 0.02536,0.02536c0,0.01401 -0.01135,0.02536 -0.02536,0.02536c-0.01401,0 -0.02536,-0.01135 -0.02536,-0.02536c0,-0.01401 0.01135,-0.02536 0.02536,-0.02536z" fill="#ffc4c4" stroke="none"/><path d="M231.43145,157.03325c0.01556,0 0.02818,0.01262 0.02818,0.02818c0,0.01556 -0.01262,0.02818 -0.02818,0.02818c-0.01556,0 -0.02818,-0.01262 -0.02818,-0.02818c0,-0.01556 0.01261,-0.02818 0.02818,-0.02818z" fill="#ffa3a3" stroke="none"/><path d="M231.16373,156.90644c0.02179,0 0.03945,0.01766 0.03945,0.03945c0,0.02179 -0.01766,0.03945 -0.03945,0.03945c-0.02179,0 -0.03945,-0.01766 -0.03945,-0.03945c0,-0.02179 0.01766,-0.03945 0.03945,-0.03945z" fill="#ff9898" stroke="none"/><path d="M231.35818,157.16852c0.01556,0 0.02818,0.01262 0.02818,0.02818c0,0.01556 -0.01262,0.02818 -0.02818,0.02818c-0.01556,0 -0.02818,-0.01261 -0.02818,-0.02818c0,-0.01556 0.01261,-0.02818 0.02818,-0.02818z" fill="#ffc4c4" stroke="none"/><path d="M231.24827,157.03044c0.03735,0 0.06763,0.03028 0.06763,0.06764c0,0.03735 -0.03028,0.06763 -0.06763,0.06763c-0.03735,0 -0.06764,-0.03028 -0.06764,-0.06763c0,-0.03735 0.03028,-0.06764 0.06764,-0.06764z" fill="#ff7272" stroke="none"/></g><g><path d="M231.72264,157.69173c0,-0.19454 0.15771,-0.35225 0.35225,-0.35225c0.19454,0 0.35225,0.15771 0.35225,0.35225c0,0.19454 -0.15771,0.35225 -0.35225,0.35225c-0.19454,0 -0.35225,-0.15771 -0.35225,-0.35225z" fill="#c30007" stroke="#8a0005"/><path d="M232.19513,157.65416c0,-0.03735 0.03028,-0.06764 0.06764,-0.06764c0.03736,0 0.06764,0.03028 0.06764,0.06764c0,0.03735 -0.03028,0.06764 -0.06764,0.06764c-0.03736,0 -0.06764,-0.03028 -0.06764,-0.06764z" fill="#ff7272" stroke="none"/><path d="M231.99223,157.7387c0,-0.01868 0.01514,-0.03382 0.03382,-0.03382c0.01868,0 0.03382,0.01514 0.03382,0.03382c0,0.01868 -0.01514,0.03381 -0.03382,0.03381c-0.01868,0 -0.03382,-0.01514 -0.03382,-0.03381z" fill="#ff9191" stroke="none"/><path d="M232.18386,157.82324c0,-0.02179 0.01766,-0.03945 0.03945,-0.03945c0.02179,0 0.03945,0.01766 0.03945,0.03945c0,0.02179 -0.01766,0.03945 -0.03945,0.03945c-0.02179,0 -0.03945,-0.01766 -0.03945,-0.03945z" fill="#ffaeae" stroke="none"/><path d="M232.00351,157.89651c0,-0.03735 0.03028,-0.06763 0.06764,-0.06763c0.03736,0 0.06764,0.03028 0.06764,0.06763c0,0.03735 -0.03028,0.06764 -0.06764,0.06764c-0.03736,0 -0.06764,-0.03028 -0.06764,-0.06764z" fill="#ff7272" stroke="none"/><path d="M231.86824,157.85988c0,-0.01401 0.01135,-0.02536 0.02536,-0.02536c0.01401,0 0.02536,0.01135 0.02536,0.02536c0,0.01401 -0.01136,0.02536 -0.02536,0.02536c-0.01401,0 -0.02536,-0.01135 -0.02536,-0.02536z" fill="#ffc4c4" stroke="none"/><path d="M232.07959,157.58934c0,-0.01556 0.01262,-0.02818 0.02818,-0.02818c0.01556,0 0.02818,0.01261 0.02818,0.02818c0,0.01556 -0.01262,0.02818 -0.02818,0.02818c-0.01556,0 -0.02818,-0.01262 -0.02818,-0.02818z" fill="#ffa3a3" stroke="none"/><path d="M231.80061,157.70488c0,-0.02179 0.01766,-0.03945 0.03945,-0.03945c0.02179,0 0.03945,0.01766 0.03945,0.03945c0,0.02179 -0.01766,0.03945 -0.03945,0.03945c-0.02179,0 -0.03945,-0.01766 -0.03945,-0.03945z" fill="#ff9898" stroke="none"/><path d="M232.00632,157.45408c0,-0.01556 0.01262,-0.02818 0.02818,-0.02818c0.01556,0 0.02818,0.01261 0.02818,0.02818c0,0.01556 -0.01262,0.02818 -0.02818,0.02818c-0.01556,0 -0.02818,-0.01262 -0.02818,-0.02818z" fill="#ffc4c4" stroke="none"/><path d="M231.85697,157.55271c0,-0.03735 0.03028,-0.06764 0.06764,-0.06764c0.03735,0 0.06763,0.03028 0.06763,0.06764c0,0.03735 -0.03028,0.06763 -0.06763,0.06763c-0.03736,0 -0.06764,-0.03028 -0.06764,-0.06763z" fill="#ff7272" stroke="none"/></g><g><path d="M233.08939,158.04399c-0.19454,0 -0.35225,-0.15771 -0.35225,-0.35225c0,-0.19454 0.15771,-0.35225 0.35225,-0.35225c0.19454,0 0.35225,0.15771 0.35225,0.35225c0,0.19454 -0.15771,0.35225 -0.35225,0.35225z" fill="#c30007" stroke="#8a0005"/><path d="M232.90152,157.72179c-0.03736,0 -0.06764,-0.03028 -0.06764,-0.06764c0,-0.03735 0.03028,-0.06764 0.06764,-0.06764c0.03736,0 0.06764,0.03028 0.06764,0.06764c0,0.03735 -0.03028,0.06764 -0.06764,0.06764z" fill="#ff7272" stroke="none"/><path d="M233.13823,157.77252c-0.01867,0 -0.03381,-0.01514 -0.03381,-0.03381c0,-0.01868 0.01514,-0.03382 0.03381,-0.03382c0.01867,0 0.03381,0.01514 0.03381,0.03382c0,0.01868 -0.01514,0.03381 -0.03381,0.03381z" fill="#ff9191" stroke="none"/><path d="M232.94097,157.8627c-0.02179,0 -0.03945,-0.01766 -0.03945,-0.03945c0,-0.02179 0.01766,-0.03945 0.03945,-0.03945c0.02179,0 0.03945,0.01766 0.03945,0.03945c0,0.02179 -0.01766,0.03945 -0.03945,0.03945z" fill="#ffaeae" stroke="none"/><path d="M233.09314,157.96414c-0.03736,0 -0.06764,-0.03028 -0.06764,-0.06764c0,-0.03735 0.03028,-0.06763 0.06764,-0.06763c0.03736,0 0.06764,0.03028 0.06764,0.06763c0,0.03735 -0.03028,0.06764 -0.06764,0.06764z" fill="#ff7272" stroke="none"/><path d="M233.27068,157.88524c-0.01401,0 -0.02536,-0.01135 -0.02536,-0.02536c0,-0.01401 0.01136,-0.02536 0.02536,-0.02536c0.01401,0 0.02536,0.01135 0.02536,0.02536c0,0.01401 -0.01135,0.02536 -0.02536,0.02536z" fill="#ffc4c4" stroke="none"/><path d="M233.05651,157.61752c-0.01556,0 -0.02818,-0.01262 -0.02818,-0.02818c0,-0.01556 0.01262,-0.02818 0.02818,-0.02818c0.01556,0 0.02818,0.01261 0.02818,0.02818c0,0.01556 -0.01262,0.02818 -0.02818,0.02818z" fill="#ffa3a3" stroke="none"/><path d="M233.32422,157.74434c-0.02179,0 -0.03945,-0.01766 -0.03945,-0.03945c0,-0.02179 0.01766,-0.03945 0.03945,-0.03945c0.02179,0 0.03945,0.01766 0.03945,0.03945c0,0.02179 -0.01766,0.03945 -0.03945,0.03945z" fill="#ff9898" stroke="none"/><path d="M233.12978,157.48226c-0.01556,0 -0.02818,-0.01262 -0.02818,-0.02818c0,-0.01556 0.01262,-0.02818 0.02818,-0.02818c0.01556,0 0.02818,0.01261 0.02818,0.02818c0,0.01556 -0.01262,0.02818 -0.02818,0.02818z" fill="#ffc4c4" stroke="none"/><path d="M233.23968,157.62034c-0.03735,0 -0.06763,-0.03028 -0.06763,-0.06764c0,-0.03735 0.03028,-0.06764 0.06763,-0.06764c0.03736,0 0.06764,0.03028 0.06764,0.06764c0,0.03735 -0.03028,0.06764 -0.06764,0.06764z" fill="#ff7272" stroke="none"/></g><g><path d="M232.11717,156.84633c0,-0.19454 0.15771,-0.35225 0.35225,-0.35225c0.19454,0 0.35225,0.15771 0.35225,0.35225c0,0.19454 -0.15771,0.35225 -0.35225,0.35225c-0.19454,0 -0.35225,-0.15771 -0.35225,-0.35225z" fill="#c30007" stroke="#8a0005"/><path d="M232.58966,156.80875c0,-0.03735 0.03028,-0.06763 0.06763,-0.06763c0.03736,0 0.06763,0.03028 0.06763,0.06763c0,0.03735 -0.03028,0.06764 -0.06763,0.06764c-0.03736,0 -0.06763,-0.03028 -0.06763,-0.06764z" fill="#ff7272" stroke="none"/><path d="M232.38676,156.89329c0,-0.01868 0.01514,-0.03381 0.03382,-0.03381c0.01868,0 0.03382,0.01514 0.03382,0.03381c0,0.01868 -0.01514,0.03382 -0.03382,0.03382c-0.01868,0 -0.03382,-0.01514 -0.03382,-0.03382z" fill="#ff9191" stroke="none"/><path d="M232.57838,156.97784c0,-0.02179 0.01766,-0.03945 0.03945,-0.03945c0.02179,0 0.03945,0.01766 0.03945,0.03945c0,0.02179 -0.01766,0.03945 -0.03945,0.03945c-0.02179,0 -0.03945,-0.01766 -0.03945,-0.03945z" fill="#ffaeae" stroke="none"/><path d="M232.39803,157.0511c0,-0.03735 0.03028,-0.06764 0.06763,-0.06764c0.03735,0 0.06763,0.03028 0.06763,0.06764c0,0.03735 -0.03028,0.06764 -0.06763,0.06764c-0.03735,0 -0.06763,-0.03028 -0.06763,-0.06764z" fill="#ff7272" stroke="none"/><path d="M232.26276,157.01447c0,-0.01401 0.01135,-0.02536 0.02536,-0.02536c0.01401,0 0.02536,0.01135 0.02536,0.02536c0,0.01401 -0.01135,0.02536 -0.02536,0.02536c-0.01401,0 -0.02536,-0.01135 -0.02536,-0.02536z" fill="#ffc4c4" stroke="none"/><path d="M232.47412,156.74394c0,-0.01556 0.01262,-0.02818 0.02818,-0.02818c0.01556,0 0.02818,0.01262 0.02818,0.02818c0,0.01556 -0.01261,0.02818 -0.02818,0.02818c-0.01556,0 -0.02818,-0.01261 -0.02818,-0.02818z" fill="#ffa3a3" stroke="none"/><path d="M232.19513,156.85948c0,-0.02179 0.01766,-0.03945 0.03945,-0.03945c0.02179,0 0.03945,0.01766 0.03945,0.03945c0,0.02179 -0.01766,0.03945 -0.03945,0.03945c-0.02179,0 -0.03945,-0.01766 -0.03945,-0.03945z" fill="#ff9898" stroke="none"/><path d="M232.40085,156.60867c0,-0.01556 0.01261,-0.02818 0.02818,-0.02818c0.01556,0 0.02818,0.01262 0.02818,0.02818c0,0.01556 -0.01262,0.02818 -0.02818,0.02818c-0.01556,0 -0.02818,-0.01261 -0.02818,-0.02818z" fill="#ffc4c4" stroke="none"/><path d="M232.25149,156.7073c0,-0.03735 0.03028,-0.06763 0.06763,-0.06763c0.03735,0 0.06763,0.03028 0.06763,0.06763c0,0.03735 -0.03028,0.06764 -0.06763,0.06764c-0.03735,0 -0.06763,-0.03028 -0.06763,-0.06764z" fill="#ff7272" stroke="none"/></g></g><g fill="#81ff35" stroke="#68cc2b" stroke-width="0.15"><path d="M232.37151,156.15615c-0.05339,0.0123 -0.14065,0.02634 -0.20859,0.0157c-0.02667,-0.02953 -0.05951,-0.05339 -0.09648,-0.06954c-0.04494,-0.19494 0.24718,-0.11655 0.28744,-0.18267c0.00028,-0.00046 0.00057,-0.00092 0.00085,-0.00139c0.01641,0.02212 0.03587,0.04626 0.05802,0.07544c0.00599,0.0079 -0.0209,0.04722 -0.02288,0.05553c-0.00532,0.02245 -0.01363,0.0629 -0.01837,0.10693z" data-paper-data="{&quot;index&quot;:null}"/><path d="M234.098,156.04888c0.00124,-0.15851 0.14883,-0.15477 0.30234,-0.1614c0.00753,0.02443 0.01317,0.04845 0.01423,0.07177c0.00239,0.0526 -0.01394,0.10768 -0.01691,0.15959c-0.00144,0.02517 -0.01043,0.0422 -0.02324,0.05495c-0.05031,-0.07694 -0.13723,-0.12778 -0.23602,-0.12778c-0.01372,0 -0.02721,0.00098 -0.04041,0.00287z" data-paper-data="{&quot;index&quot;:null}"/><path d="M232.29685,157.72594c-0.00197,-0.00831 -0.02887,-0.04764 -0.02288,-0.05553c0.02216,-0.02917 0.04162,-0.05331 0.05803,-0.07544c0.00028,0.00046 0.00056,0.00092 0.00084,0.00139c0.04026,0.06612 0.33238,-0.01227 0.28744,0.18267c-0.03697,0.01616 -0.06981,0.04001 -0.09648,0.06954c-0.06794,0.01064 -0.1552,-0.0034 -0.20859,-0.0157c-0.00474,-0.04403 -0.01305,-0.08449 -0.01836,-0.10693z" data-paper-data="{&quot;index&quot;:null}"/><path d="M230.91363,157.16777c0.01319,0.00189 0.02669,0.00287 0.04041,0.00287c0.09879,0 0.18571,-0.05084 0.23602,-0.12777c0.0128,0.01274 0.0218,0.02977 0.02324,0.05494c0.00296,0.0519 0.0193,0.10699 0.01691,0.15959c-0.00106,0.02332 -0.0067,0.04734 -0.01423,0.07177c-0.15351,-0.00664 -0.30111,-0.00289 -0.30235,-0.1614z" data-paper-data="{&quot;index&quot;:null}"/><path d="M231.85834,154.63599c0,-0.01157 -0.00062,-0.02277 -0.00182,-0.03362c0.02832,-0.00924 0.05846,-0.02427 0.08851,-0.0429c0.01399,0.00214 0.02832,0.00325 0.04292,0.00325c0.00786,0.00197 0.01541,0.00385 0.02257,0.00564h0.05448c0.02776,0.02082 0.05388,0.03554 0.07935,0.04514c-0.03011,0.08882 -0.10557,0.15671 -0.19882,0.1761c-0.01694,-0.0511 -0.04811,-0.09571 -0.08882,-0.12914c0.00106,-0.00808 0.00162,-0.01624 0.00162,-0.02447z" data-paper-data="{&quot;index&quot;:null}"/></g></g></g></g></svg>