<svg version="1.1" xmlns="http://www.w3.org/2000/svg" xmlns:xlink="http://www.w3.org/1999/xlink" width="67.60315" height="95.48246" viewBox="0,0,67.60315,95.48246"><defs><linearGradient x1="214.61768" y1="153.2711" x2="214.61768" y2="159.26648" gradientUnits="userSpaceOnUse" id="color-1"><stop offset="0" stop-color="#ffbd00"/><stop offset="1" stop-color="#ffb700"/></linearGradient><linearGradient x1="263.63307" y1="154.56455" x2="263.63307" y2="160.55996" gradientUnits="userSpaceOnUse" id="color-2"><stop offset="0" stop-color="#ffbd00"/><stop offset="1" stop-color="#ffb700"/></linearGradient><linearGradient x1="240.11599" y1="118.90578" x2="240.11599" y2="166.72717" gradientUnits="userSpaceOnUse" id="color-3"><stop offset="0" stop-color="#ffee00"/><stop offset="1" stop-color="#ffad00"/></linearGradient><linearGradient x1="240.61473" y1="119.40453" x2="240.61473" y2="167.22592" gradientUnits="userSpaceOnUse" id="color-4"><stop offset="0" stop-color="#00ff7b"/><stop offset="1" stop-color="#6bda94"/></linearGradient></defs><g transform="translate(-205.98754,-85.45524)"><g data-paper-data="{&quot;isPaintingLayer&quot;:true}" fill-rule="nonzero" stroke-linecap="butt" stroke-linejoin="miter" stroke-miterlimit="10" stroke-dasharray="" stroke-dashoffset="0" style="mix-blend-mode: normal"><g stroke="#00b155" stroke-width="7.5"><g><path d="M209.73755,153.28285c3.22481,-0.03879 6.45183,0.01938 9.67379,0.16029c0.0983,0.00163 0.19518,0.0089 0.29033,0.02152c0.45366,0.04931 0.75394,0.16544 0.97788,0.34815c0.72658,0.44769 1.20518,1.25618 1.19002,2.17139c-0.02234,1.34824 -1.10796,2.4295 -2.44465,2.45802c-0.03201,0.00068 -0.06415,0.00076 -0.09643,0.00022v0c-3.643,0.0385 -8.38535,2.125 -10.91844,-0.49346c-1.64646,-1.70194 -1.44892,-4.63275 1.32749,-4.66615z" data-paper-data="{&quot;index&quot;:null}" fill="url(#color-1)"/><path d="M268.51321,154.57629c2.77641,0.0334 2.97395,2.9642 1.32749,4.66615c-2.5331,2.61846 -7.27544,0.53196 -10.91844,0.49346v0c-0.03228,0.00054 -0.06442,0.00046 -0.09643,-0.00022c-1.33668,-0.02852 -2.42231,-1.10977 -2.44465,-2.45801c-0.01516,-0.91521 0.46344,-1.72371 1.19002,-2.1714c0.22394,-0.1827 0.52422,-0.29883 0.97788,-0.34815c0.09515,-0.01262 0.19204,-0.01989 0.29034,-0.02152c3.22196,-0.14091 6.44898,-0.19908 9.67379,-0.16029z" data-paper-data="{&quot;index&quot;:null}" fill="url(#color-2)"/></g><g fill="#ffae00"><path d="M233.39612,174.68768c-0.07939,2.77547 -3.01307,2.92443 -4.6875,1.25c-2.57613,-2.57613 -0.41135,-7.28326 -0.3125,-10.92512v0c0,-0.03228 0.00061,-0.06442 0.00182,-0.09641c0.05066,-1.33603 1.14975,-2.40359 2.49818,-2.40359c0.91534,0 1.71579,0.49193 2.15138,1.22583c0.17897,0.22693 0.29011,0.5291 0.3319,0.98351c0.01104,0.09535 0.01671,0.19234 0.01671,0.29065c0.08751,3.22385 0.09221,6.4514 0,9.67512z"/><path d="M249.69016,161.4521c0.05615,0.09981 0.10847,0.22775 0.15718,0.38059c0.05752,0.15506 0.10009,0.31737 0.12598,0.4852c0.5971,2.77524 0.50826,9.9402 0.31815,12.36981c-0.10301,1.31651 -0.74751,2.5 -2.5,2.5c-3.57051,0 -2.86492,-12.61434 -2.78881,-14.48559c0,-0.04646 0.00127,-0.09263 0.00377,-0.13847c0.07186,-1.31631 1.16198,-2.36153 2.49623,-2.36153c0.81357,0 1.53638,0.38862 1.99291,0.99036c0.07451,0.07697 0.14011,0.16278 0.19459,0.25964z"/></g><path d="M224.27732,120.95855c19.16263,-6.62973 48.20491,3.1882 45.08545,23.8382c-3.11946,20.65 -32.92709,28.88484 -50.98242,15.19826c-13.25925,-10.05098 -7.70704,-28.20198 3.30092,-37.2486z" fill="url(#color-3)"/></g><g fill="#00ff7b" stroke="none" stroke-width="0.5"><path d="M209.73755,153.28285c3.22481,-0.03879 6.45183,0.01938 9.67379,0.16029c0.0983,0.00163 0.19518,0.0089 0.29033,0.02152c0.45366,0.04931 0.75394,0.16544 0.97788,0.34815c0.72658,0.44769 1.20518,1.25618 1.19002,2.17139c-0.02234,1.34824 -1.10796,2.4295 -2.44465,2.45802c-0.03201,0.00068 -0.06415,0.00076 -0.09643,0.00022v0c-3.643,0.0385 -8.38535,2.125 -10.91844,-0.49346c-1.64646,-1.70194 -1.44892,-4.63275 1.32749,-4.66615z" data-paper-data="{&quot;index&quot;:null}"/><path d="M268.51321,154.57629c2.77641,0.0334 2.97395,2.9642 1.32749,4.66615c-2.5331,2.61846 -7.27544,0.53196 -10.91844,0.49346v0c-0.03228,0.00054 -0.06442,0.00046 -0.09643,-0.00022c-1.33668,-0.02852 -2.42231,-1.10977 -2.44465,-2.45801c-0.01516,-0.91521 0.46344,-1.72371 1.19002,-2.1714c0.22394,-0.1827 0.52422,-0.29883 0.97788,-0.34815c0.09515,-0.01262 0.19204,-0.01989 0.29034,-0.02152c3.22196,-0.14091 6.44898,-0.19908 9.67379,-0.16029z" data-paper-data="{&quot;index&quot;:null}"/></g><g fill="#00ff7b" stroke="none" stroke-width="0.5"><path d="M233.39612,174.68768c-0.07939,2.77547 -3.01307,2.92443 -4.6875,1.25c-2.57613,-2.57613 -0.41135,-7.28326 -0.3125,-10.92512v0c0,-0.03228 0.00061,-0.06442 0.00182,-0.09641c0.05066,-1.33603 1.14975,-2.40359 2.49818,-2.40359c0.91534,0 1.71579,0.49193 2.15138,1.22583c0.17897,0.22693 0.29011,0.5291 0.3319,0.98351c0.01104,0.09535 0.01671,0.19234 0.01671,0.29065c0.08751,3.22385 0.09221,6.4514 0,9.67512z"/><path d="M249.69016,161.4521c0.05615,0.09981 0.10847,0.22775 0.15718,0.38059c0.05752,0.15506 0.10009,0.31737 0.12598,0.4852c0.5971,2.77524 0.50826,9.9402 0.31815,12.36981c-0.10301,1.31651 -0.74751,2.5 -2.5,2.5c-3.57051,0 -2.86492,-12.61434 -2.78881,-14.48559c0,-0.04646 0.00127,-0.09263 0.00377,-0.13847c0.07186,-1.31631 1.16198,-2.36153 2.49623,-2.36153c0.81357,0 1.53638,0.38862 1.99291,0.99036c0.07451,0.07697 0.14011,0.16278 0.19459,0.25964z"/></g><path d="M222.18001,123.24517c0.51446,-0.74501 1.23696,-1.11753 1.23696,-1.11753l0.75333,-0.37157c0.10026,-0.05989 0.27911,-0.15839 0.51304,-0.25305l0.09272,-0.04573c19.16263,-6.62973 48.20491,3.1882 45.08545,23.8382c-3.11946,20.65 -32.92709,28.88484 -50.98242,15.19826c-13.25925,-10.05098 -7.70704,-28.20198 3.30092,-37.2486z" fill="url(#color-4)" stroke="none" stroke-width="0.5"/><path d="M237.13193,136.66226c0,-0.9665 0.7835,-1.75 1.75,-1.75c0.9665,0 1.75,0.7835 1.75,1.75c0,0.9665 -0.7835,1.75 -1.75,1.75c-0.9665,0 -1.75,-0.7835 -1.75,-1.75z" fill="#000000" stroke="none" stroke-width="0.5"/><path d="M241.40095,132.59654c0,-0.9665 0.7835,-1.75 1.75,-1.75c0.9665,0 1.75,0.7835 1.75,1.75c0,0.9665 -0.7835,1.75 -1.75,1.75c-0.9665,0 -1.75,-0.7835 -1.75,-1.75z" fill="#000000" stroke="none" stroke-width="0.5"/><path d="M252.57517,127.79874c1.74848,0.07302 1.67546,1.8215 1.67546,1.8215l-0.06547,1.49736c-0.29247,2.79758 -0.851,7.36705 -2.8075,9.64985c-4.26721,4.97888 -14.84547,3.03229 -19.72511,0.02152c0,0 -1.484,-0.9275 -0.5565,-2.4115c0.9275,-1.484 2.4115,-0.5565 2.4115,-0.5565c3.08556,1.95935 6.49817,2.08771 10.099,2.15413c1.92261,0.03547 3.70746,0.37516 5.05837,-1.41923c1.4349,-1.90594 1.82807,-5.57585 2.03761,-7.78655l0.05115,-1.29514c0,0 0.07302,-1.74848 1.8215,-1.67546z" fill="#000000" stroke="none" stroke-width="0.5"/><path d="M226.43035,123.61018v-37.90494h29.42621v37.90494z" fill="#000000" stroke="#051717" stroke-width="0.5"/><path d="M270.32028,117.12644c0,6.61084 -13.73281,11.96998 -30.67308,11.96998c-16.94027,0 -30.67308,-5.35914 -30.67308,-11.96998c0,-6.61084 13.73281,-11.96998 30.67308,-11.96998c16.94027,0 30.67308,5.35914 30.67308,11.96998z" fill="#000000" stroke="none" stroke-width="0"/></g></g></svg>