<svg version="1.1" xmlns="http://www.w3.org/2000/svg" xmlns:xlink="http://www.w3.org/1999/xlink" width="49.00674" height="40.10868" viewBox="0,0,49.00674,40.10868"><defs><linearGradient x1="241.39865" y1="172.36434" x2="241.39865" y2="205.88815" gradientUnits="userSpaceOnUse" id="color-1"><stop offset="0" stop-color="#ffee00"/><stop offset="1" stop-color="#ffad00"/></linearGradient></defs><g transform="translate(-216.89527,-168.77947)"><g data-paper-data="{&quot;isPaintingLayer&quot;:true}" fill-rule="nonzero" stroke-linejoin="miter" stroke-miterlimit="10" stroke-dasharray="" stroke-dashoffset="0" style="mix-blend-mode: normal"><path d="M219.89528,197.5072c0,-6.46696 0,-14.87428 0,-18.33333c0,-3.01664 1.08798,-6.80952 2.35193,-6.80952c4.10942,0 26.65323,0 36.28693,0c2.68557,0 4.36787,4.13621 4.36787,7.33333c0,3.65285 -0.168,11.41416 -0.168,17.80952c0,4.18291 -1.44586,8.38095 -4.03188,8.38095c-9.30562,0 -31.19958,0 -35.78295,0c-1.65838,0 -3.02391,-3.67722 -3.02391,-8.38095z" fill="url(#color-1)" stroke="#bf8600" stroke-width="6" stroke-linecap="butt"/><text transform="translate(228.43035,179.12399) scale(0.23781,0.23781)" font-size="40" xml:space="preserve" fill="#bf8600" fill-rule="nonzero" stroke="none" stroke-width="1" stroke-linecap="butt" stroke-linejoin="miter" stroke-miterlimit="10" stroke-dasharray="" stroke-dashoffset="0" font-family="Sans Serif" font-weight="normal" text-anchor="start" style="mix-blend-mode: normal"><tspan x="0" dy="0"> </tspan></text><g fill="#bf8600" stroke="none" stroke-width="0" stroke-linecap="butt"><path d="M227.06123,194.72506v-6.60459h4.88165v6.60459z"/><path d="M230.7464,194.77292l-0.19143,-6.60459l7.60963,-3.35015v12.01269z"/></g><path d="M243.57393,186.15109l8.54105,9.67986" fill="none" stroke="#bf8600" stroke-width="3.5" stroke-linecap="round"/><path d="M253.06399,185.39188l-10.05946,9.86966" fill="none" stroke="#bf8600" stroke-width="3.5" stroke-linecap="round"/></g></g></svg>