<svg version="1.1" xmlns="http://www.w3.org/2000/svg" xmlns:xlink="http://www.w3.org/1999/xlink" width="62.93347" height="76.2868" viewBox="0,0,62.93347,76.2868"><defs><linearGradient x1="218.33199" y1="158.58884" x2="218.33199" y2="163.64735" gradientUnits="userSpaceOnUse" id="color-1"><stop offset="0" stop-color="#ffbd00"/><stop offset="1" stop-color="#ffb700"/></linearGradient><linearGradient x1="259.68802" y1="159.68016" x2="259.68802" y2="164.73871" gradientUnits="userSpaceOnUse" id="color-2"><stop offset="0" stop-color="#ffbd00"/><stop offset="1" stop-color="#ffb700"/></linearGradient><linearGradient x1="239.84582" y1="129.59359" x2="239.84582" y2="169.9422" gradientUnits="userSpaceOnUse" id="color-3"><stop offset="0" stop-color="#ffee00"/><stop offset="1" stop-color="#ffad00"/></linearGradient><linearGradient x1="218.33199" y1="158.58884" x2="218.33199" y2="163.64735" gradientUnits="userSpaceOnUse" id="color-4"><stop offset="0" stop-color="#ffbd00"/><stop offset="1" stop-color="#ffb700"/></linearGradient><linearGradient x1="259.68802" y1="159.68016" x2="259.68802" y2="164.73871" gradientUnits="userSpaceOnUse" id="color-5"><stop offset="0" stop-color="#ffbd00"/><stop offset="1" stop-color="#ffb700"/></linearGradient><linearGradient x1="239.84582" y1="129.59359" x2="239.84582" y2="169.9422" gradientUnits="userSpaceOnUse" id="color-6"><stop offset="0" stop-color="#ffee00"/><stop offset="1" stop-color="#ffad00"/></linearGradient></defs><g transform="translate(-210.0359,-106.23133)"><g data-paper-data="{&quot;isPaintingLayer&quot;:true}" fill-rule="nonzero" stroke-linecap="butt" stroke-linejoin="miter" stroke-miterlimit="10" stroke-dasharray="" stroke-dashoffset="0" style="mix-blend-mode: normal"><g><g stroke="#bf8600" stroke-width="7.5"><g><path d="M214.21444,158.59874c2.72089,-0.03273 5.44364,0.01635 8.16212,0.13524c0.08294,0.00138 0.16469,0.0075 0.24496,0.01816c0.38276,0.04161 0.63613,0.13959 0.82507,0.29374c0.61304,0.37774 1.01685,1.05988 1.00407,1.83209c-0.01886,1.13756 -0.93482,2.04985 -2.06264,2.07392c-0.027,0.00058 -0.05413,0.00064 -0.08136,0.00019v0c-3.07373,0.03248 -7.07502,1.79294 -9.21228,-0.41635c-1.38918,-1.43599 -1.22251,-3.90882 1.12006,-3.93699z" data-paper-data="{&quot;index&quot;:null}" fill="url(#color-1)"/><path d="M263.80557,159.69007c2.34256,0.02818 2.50923,2.501 1.12006,3.93699c-2.13727,2.20929 -6.13855,0.44883 -9.21228,0.41635v0c-0.02723,0.00046 -0.05436,0.00039 -0.08136,-0.00019c-1.1278,-0.02407 -2.04378,-0.93635 -2.06264,-2.07391c-0.01278,-0.7722 0.39102,-1.45436 1.00407,-1.83209c0.18894,-0.15415 0.44231,-0.25213 0.82507,-0.29374c0.08029,-0.01065 0.16203,-0.01678 0.24497,-0.01816c2.71848,-0.1189 5.44123,-0.16797 8.16212,-0.13524z" data-paper-data="{&quot;index&quot;:null}" fill="url(#color-2)"/></g><g fill="#ffae00"><path d="M234.17601,176.65877c-0.06698,2.34176 -2.54224,2.46745 -3.95502,1.05467c-2.17357,-2.17357 -0.34708,-6.14514 -0.26367,-9.21792v0c0,-0.02723 0.00051,-0.05436 0.00154,-0.08135c0.04275,-1.12725 0.97008,-2.028 2.1078,-2.028c0.77231,0 1.44767,0.41506 1.8152,1.03427c0.151,0.19146 0.24477,0.44642 0.28003,0.82983c0.00931,0.08045 0.0141,0.16229 0.0141,0.24523c0.07384,2.72007 0.07781,5.44328 0,8.16325z"/><path d="M247.92388,165.49144c0.04737,0.08421 0.09152,0.19216 0.13262,0.32112c0.04853,0.13084 0.08445,0.26778 0.1063,0.40938c0.50379,2.34157 0.42884,8.3869 0.26844,10.43685c-0.08692,1.11078 -0.6307,2.10934 -2.10934,2.10934c-3.01257,0 -2.41723,-10.64317 -2.35302,-12.222c0,-0.0392 0.00107,-0.07816 0.00318,-0.11683c0.06063,-1.11062 0.9804,-1.99251 2.10615,-1.99251c0.68643,0 1.29629,0.32789 1.68148,0.8356c0.06286,0.06494 0.11821,0.13735 0.16418,0.21907z"/></g><path d="M226.48217,131.32559c16.16819,-5.59374 40.6722,2.69 38.0402,20.11314c-2.632,17.42314 -27.78176,24.37117 -43.01567,12.82331c-11.1873,-8.48037 -6.50271,-23.79501 2.78511,-31.42796z" fill="url(#color-3)"/></g><g stroke="none" stroke-width="0.5"><path d="M214.21444,158.59874c2.72089,-0.03273 5.44364,0.01635 8.16212,0.13524c0.08294,0.00138 0.16469,0.0075 0.24496,0.01816c0.38276,0.04161 0.63613,0.13959 0.82507,0.29374c0.61304,0.37774 1.01685,1.05988 1.00407,1.83209c-0.01886,1.13756 -0.93482,2.04985 -2.06264,2.07392c-0.027,0.00058 -0.05413,0.00064 -0.08136,0.00019v0c-3.07373,0.03248 -7.07502,1.79294 -9.21228,-0.41635c-1.38918,-1.43599 -1.22251,-3.90882 1.12006,-3.93699z" data-paper-data="{&quot;index&quot;:null}" fill="url(#color-4)"/><path d="M263.80557,159.69007c2.34256,0.02818 2.50923,2.501 1.12006,3.93699c-2.13727,2.20929 -6.13855,0.44883 -9.21228,0.41635v0c-0.02723,0.00046 -0.05436,0.00039 -0.08136,-0.00019c-1.1278,-0.02407 -2.04378,-0.93635 -2.06264,-2.07391c-0.01278,-0.7722 0.39102,-1.45436 1.00407,-1.83209c0.18894,-0.15415 0.44231,-0.25213 0.82507,-0.29374c0.08029,-0.01065 0.16203,-0.01678 0.24497,-0.01816c2.71848,-0.1189 5.44123,-0.16797 8.16212,-0.13524z" data-paper-data="{&quot;index&quot;:null}" fill="url(#color-5)"/></g><g fill="#ffae00" stroke="none" stroke-width="0.5"><path d="M234.17601,176.65877c-0.06698,2.34176 -2.54224,2.46745 -3.95502,1.05467c-2.17357,-2.17357 -0.34708,-6.14514 -0.26367,-9.21792v0c0,-0.02723 0.00051,-0.05436 0.00154,-0.08135c0.04275,-1.12725 0.97008,-2.028 2.1078,-2.028c0.77231,0 1.44767,0.41506 1.8152,1.03427c0.151,0.19146 0.24477,0.44642 0.28003,0.82983c0.00931,0.08045 0.0141,0.16229 0.0141,0.24523c0.07384,2.72007 0.07781,5.44328 0,8.16325z"/><path d="M247.92388,165.49144c0.04737,0.08421 0.09152,0.19216 0.13262,0.32112c0.04853,0.13084 0.08445,0.26778 0.1063,0.40938c0.50379,2.34157 0.42884,8.3869 0.26844,10.43685c-0.08692,1.11078 -0.6307,2.10934 -2.10934,2.10934c-3.01257,0 -2.41723,-10.64317 -2.35302,-12.222c0,-0.0392 0.00107,-0.07816 0.00318,-0.11683c0.06063,-1.11062 0.9804,-1.99251 2.10615,-1.99251c0.68643,0 1.29629,0.32789 1.68148,0.8356c0.06286,0.06494 0.11821,0.13735 0.16418,0.21907z"/></g><path d="M224.29179,132.83408c0.43406,-0.62859 1.04367,-0.94291 1.04367,-0.94291l0.63562,-0.31351c0.08459,-0.05054 0.2355,-0.13364 0.43287,-0.21351l0.07824,-0.03858c16.16819,-5.59374 40.6722,2.69 38.0402,20.11314c-2.632,17.42314 -27.78176,24.37117 -43.01567,12.82331c-11.1873,-8.48037 -6.50271,-23.79501 2.78511,-31.42796z" fill="url(#color-6)" stroke="none" stroke-width="0.5"/><path d="M237.32806,144.57537c0,-0.81547 0.66107,-1.47654 1.47654,-1.47654c0.81547,0 1.47654,0.66107 1.47654,1.47654c0,0.81547 -0.66107,1.47654 -1.47654,1.47654c-0.81547,0 -1.47654,-0.66107 -1.47654,-1.47654z" fill="#000000" stroke="none" stroke-width="0.5"/><path d="M240.92998,141.14497c0,-0.81547 0.66107,-1.47654 1.47654,-1.47654c0.81547,0 1.47654,0.66107 1.47654,1.47654c0,0.81547 -0.66107,1.47654 -1.47654,1.47654c-0.81547,0 -1.47654,-0.66107 -1.47654,-1.47654z" fill="#000000" stroke="none" stroke-width="0.5"/><path d="M250.35807,137.0969c1.47525,0.06161 1.41365,1.53686 1.41365,1.53686l-0.05524,1.26338c-0.24677,2.36041 -0.71802,6.21584 -2.36879,8.14193c-3.60039,4.20086 -12.52565,2.55845 -16.64278,0.01816c0,0 -1.25211,-0.78256 -0.46954,-2.03467c0.78256,-1.25211 2.03467,-0.46954 2.03467,-0.46954c2.6034,1.65317 5.48273,1.76147 8.52088,1.81752c1.62217,0.02992 3.12811,0.31654 4.26793,-1.19746c1.21067,-1.60811 1.54241,-4.70454 1.71921,-6.56978l0.04315,-1.09276c0,0 0.06161,-1.47525 1.53686,-1.41365z" fill="#000000" stroke="none" stroke-width="0.5"/></g><path d="M269.78609,124.27588c-3.47911,4.20259 -5.41641,9.10807 -7.08732,9.94583c-4.84669,2.43005 -15.15801,2.02936 -23.92636,2.02936c-8.42051,0 -18.46106,1.18183 -23.33586,-1.0856c-3.63135,-1.68905 -3.26842,-6.4648 -3.26842,-8.79421c0,-1.15072 -2.97357,-1.82737 -1.89758,-3.54804c0.58296,-0.93225 3.96645,-2.88731 5.97863,-3.75606c5.032,-2.17256 17.31526,-3.893 19.98947,-3.893c14.69313,0 36.88729,5.06734 33.54742,9.10173z" fill="#ff0000" stroke="none" stroke-width="0"/><path d="M244.20916,111.93514c0,3.15013 -2.66718,5.70381 -5.95731,5.70381c-3.29013,0 -5.95731,-2.55368 -5.95731,-5.70381c0,-3.15013 2.66718,-5.70381 5.95731,-5.70381c3.29013,0 5.95731,2.55368 5.95731,5.70381z" fill="#ff0000" stroke="none" stroke-width="0"/><path d="M229.7595,124.48353c0.14,0 0.2535,0.28374 0.2535,0.63375c0,0.35001 -0.11349,0.63375 -0.2535,0.63375c-0.14,0 -0.2535,-0.28374 -0.2535,-0.63375c0,-0.35001 0.11349,-0.63375 0.2535,-0.63375z" fill="#ff0000" stroke="none" stroke-width="0"/></g></g></svg>