<svg version="1.1" xmlns="http://www.w3.org/2000/svg" xmlns:xlink="http://www.w3.org/1999/xlink" width="49.00674" height="56.55686" viewBox="0,0,49.00674,56.55686"><defs><linearGradient x1="241.39865" y1="172.05625" x2="241.39865" y2="205.58006" gradientUnits="userSpaceOnUse" id="color-1"><stop offset="0" stop-color="#ffee00"/><stop offset="1" stop-color="#ffad00"/></linearGradient><linearGradient x1="233.87806" y1="190.31108" x2="233.87806" y2="191.14425" gradientUnits="userSpaceOnUse" id="color-2"><stop offset="0" stop-color="#ffbd00"/><stop offset="1" stop-color="#ffb700"/></linearGradient><linearGradient x1="246.07968" y1="191.13441" x2="246.07968" y2="191.96758" gradientUnits="userSpaceOnUse" id="color-3"><stop offset="0" stop-color="#ffbd00"/><stop offset="1" stop-color="#ffb700"/></linearGradient><linearGradient x1="233.83783" y1="190.31108" x2="233.83783" y2="191.14425" gradientUnits="userSpaceOnUse" id="color-4"><stop offset="0" stop-color="#ffbd00"/><stop offset="1" stop-color="#ffb700"/></linearGradient><linearGradient x1="246.07968" y1="191.13441" x2="246.07968" y2="191.96758" gradientUnits="userSpaceOnUse" id="color-5"><stop offset="0" stop-color="#ffbd00"/><stop offset="1" stop-color="#ffb700"/></linearGradient><linearGradient x1="240.04178" y1="185.62325" x2="240.04178" y2="194.15202" gradientUnits="userSpaceOnUse" id="color-6"><stop offset="0" stop-color="#ffee00"/><stop offset="1" stop-color="#ffad00"/></linearGradient><linearGradient x1="239.99016" y1="185.57163" x2="239.99016" y2="194.1004" gradientUnits="userSpaceOnUse" id="color-7"><stop offset="0" stop-color="#ffee00"/><stop offset="1" stop-color="#ffad00"/></linearGradient></defs><g transform="translate(-216.89527,-152.0232)"><g data-paper-data="{&quot;isPaintingLayer&quot;:true}" fill-rule="nonzero" stroke-linecap="butt" stroke-linejoin="miter" stroke-miterlimit="10" stroke-dasharray="" stroke-dashoffset="0" style="mix-blend-mode: normal"><path d="M219.89528,197.19911c0,-6.46696 0,-14.87428 0,-18.33333c0,-3.01664 1.08798,-6.80952 2.35193,-6.80952c4.10942,0 26.65323,0 36.28693,0c2.68557,0 4.36787,4.13621 4.36787,7.33333c0,3.65285 -0.168,11.41416 -0.168,17.80952c0,4.18291 -1.44586,8.38095 -4.03188,8.38095c-9.30562,0 -31.19958,0 -35.78295,0c-1.65838,0 -3.02391,-3.67722 -3.02391,-8.38095z" fill="url(#color-1)" stroke="#bf8600" stroke-width="6"/><text transform="translate(219.04737,173.7732) scale(0.5,0.5)" font-size="40" xml:space="preserve" fill="#bf8600" fill-rule="nonzero" stroke="none" stroke-width="1" stroke-linecap="butt" stroke-linejoin="miter" stroke-miterlimit="10" stroke-dasharray="" stroke-dashoffset="0" font-family="Sans Serif" font-weight="normal" text-anchor="start" style="mix-blend-mode: normal"><tspan x="0" dy="0"> </tspan></text><path d="M233.19987,190.31271c0.44815,-0.00539 0.8966,0.00269 1.34436,0.02228c0.01366,0.00023 0.02712,0.00124 0.04035,0.00299c0.06304,0.00685 0.10477,0.02299 0.1359,0.04838c0.10097,0.06221 0.16748,0.17457 0.16538,0.30176c-0.0031,0.18736 -0.15397,0.33762 -0.33973,0.34159c-0.00445,0.00009 -0.00891,0.00011 -0.0134,0.00003v0c-0.50626,0.00535 -1.1653,0.29531 -1.51732,-0.06858c-0.22881,-0.23652 -0.20136,-0.64381 0.18448,-0.64845z" data-paper-data="{&quot;index&quot;:null}" fill="url(#color-2)" stroke="#bf8600" stroke-width="2.5"/><path d="M246.75786,191.13604c0.38583,0.00464 0.41329,0.41193 0.18448,0.64845c-0.35202,0.36389 -1.01106,0.07393 -1.51732,0.06858v0c-0.00449,0.00008 -0.00895,0.00006 -0.0134,-0.00003c-0.18576,-0.00396 -0.33663,-0.15422 -0.33973,-0.34159c-0.0021,-0.12719 0.0644,-0.23954 0.16537,-0.30176c0.03112,-0.02539 0.07285,-0.04153 0.1359,-0.04838c0.01322,-0.00175 0.02669,-0.00276 0.04035,-0.00299c0.44775,-0.01958 0.89621,-0.02766 1.34436,-0.02227z" data-paper-data="{&quot;index&quot;:null}" fill="url(#color-3)" stroke="#bf8600" stroke-width="2.5"/><path d="M238.78044,195.21806c-0.01103,0.3857 -0.41872,0.40641 -0.65142,0.17371c-0.358,-0.358 -0.05717,-1.01215 -0.04343,-1.51825v0c0,-0.00449 0.00008,-0.00895 0.00025,-0.0134c0.00704,-0.18567 0.15978,-0.33403 0.34717,-0.33403c0.1272,0 0.23844,0.06836 0.29897,0.17035c0.02487,0.03154 0.04032,0.07353 0.04612,0.13668c0.00153,0.01325 0.00232,0.02673 0.00232,0.04039c0.01216,0.44802 0.01281,0.89654 0,1.34454z" fill="#ffae00" stroke="#bf8600" stroke-width="2.5"/><path d="M241.04481,193.37873c0.0078,0.01387 0.01508,0.03165 0.02184,0.05289c0.00799,0.02155 0.01391,0.04411 0.01751,0.06743c0.08298,0.38567 0.07063,1.38138 0.04421,1.71902c-0.01432,0.18295 -0.10388,0.34742 -0.34742,0.34742c-0.49619,0 -0.39814,-1.753 -0.38756,-2.01305c0,-0.00646 0.00017,-0.01287 0.00052,-0.01924c0.00999,-0.18293 0.16148,-0.32818 0.3469,-0.32818c0.11306,0 0.21351,0.05401 0.27695,0.13763c0.01036,0.0107 0.01947,0.02262 0.02704,0.03608z" fill="#ffae00" stroke="#bf8600" stroke-width="2.5"/><path d="M233.15965,190.31271c0.44815,-0.00539 0.8966,0.00269 1.34436,0.02228c0.01366,0.00023 0.02712,0.00124 0.04035,0.00299c0.06304,0.00685 0.10477,0.02299 0.1359,0.04838c0.10097,0.06221 0.16748,0.17457 0.16538,0.30176c-0.0031,0.18736 -0.15397,0.33762 -0.33973,0.34159c-0.00445,0.00009 -0.00891,0.00011 -0.0134,0.00003v0c-0.50626,0.00535 -1.1653,0.29531 -1.51732,-0.06858c-0.22881,-0.23652 -0.20136,-0.64381 0.18448,-0.64845z" data-paper-data="{&quot;index&quot;:null}" fill="url(#color-4)" stroke="none" stroke-width="0.5"/><path d="M246.75786,191.13604c0.38583,0.00464 0.41329,0.41193 0.18448,0.64845c-0.35202,0.36389 -1.01106,0.07393 -1.51732,0.06858v0c-0.00449,0.00008 -0.00895,0.00006 -0.0134,-0.00003c-0.18576,-0.00396 -0.33663,-0.15422 -0.33973,-0.34159c-0.0021,-0.12719 0.0644,-0.23954 0.16537,-0.30176c0.03112,-0.02539 0.07285,-0.04153 0.1359,-0.04838c0.01322,-0.00175 0.02669,-0.00276 0.04035,-0.00299c0.44775,-0.01958 0.89621,-0.02766 1.34436,-0.02227z" data-paper-data="{&quot;index&quot;:null}" fill="url(#color-5)" stroke="none" stroke-width="0.5"/><path d="M238.78044,195.21806c-0.01103,0.3857 -0.41872,0.40641 -0.65142,0.17371c-0.358,-0.358 -0.05717,-1.01215 -0.04343,-1.51825v0c0,-0.00449 0.00008,-0.00895 0.00025,-0.0134c0.00704,-0.18567 0.15978,-0.33403 0.34717,-0.33403c0.1272,0 0.23844,0.06836 0.29897,0.17035c0.02487,0.03154 0.04032,0.07353 0.04612,0.13668c0.00153,0.01325 0.00232,0.02673 0.00232,0.04039c0.01216,0.44802 0.01281,0.89654 0,1.34454z" fill="#ffae00" stroke="none" stroke-width="0.5"/><path d="M241.04481,193.37873c0.0078,0.01387 0.01508,0.03165 0.02184,0.05289c0.00799,0.02155 0.01391,0.04411 0.01751,0.06743c0.08298,0.38567 0.07063,1.38138 0.04421,1.71902c-0.01432,0.18295 -0.10388,0.34742 -0.34742,0.34742c-0.49619,0 -0.39814,-1.753 -0.38756,-2.01305c0,-0.00646 0.00017,-0.01287 0.00052,-0.01924c0.00999,-0.18293 0.16148,-0.32818 0.3469,-0.32818c0.11306,0 0.21351,0.05401 0.27695,0.13763c0.01036,0.0107 0.01947,0.02262 0.02704,0.03608z" fill="#ffae00" stroke="none" stroke-width="0.5"/><path d="M237.21702,185.98935c3.41758,-1.18239 8.59716,0.5686 8.04082,4.25145c-0.55634,3.68285 -5.87242,5.15151 -9.09253,2.71055c-2.36474,-1.79256 -1.37452,-5.02972 0.58871,-6.64315zM242.45794,190.76731c0,-1.30452 -1.05752,-2.36204 -2.36204,-2.36204c-0.1648,0 -0.32565,0.01688 -0.48093,0.049c-1.22107,0.13885 -2.16971,1.1755 -2.16971,2.43372c0,1.35283 1.09669,2.44952 2.44952,2.44952c0.83734,0 1.57655,-0.42014 2.01832,-1.06112c0.34024,-0.40925 0.54484,-0.93527 0.54484,-1.50908z" fill="url(#color-6)" stroke="#bf8600" stroke-width="2.5"/><path d="M236.7024,186.2566c0.09175,-0.13287 0.22061,-0.19931 0.22061,-0.19931l0.13435,-0.06627c0.01788,-0.01068 0.04978,-0.02825 0.0915,-0.04513l0.01654,-0.00816c3.41758,-1.18239 8.59716,0.5686 8.04082,4.25145c-0.55634,3.68285 -5.87242,5.1515 -9.09253,2.71055c-2.36474,-1.79256 -1.37452,-5.02972 0.58871,-6.64315zM242.45794,190.76731c0,-1.30452 -1.05752,-2.36204 -2.36204,-2.36204c-0.1648,0 -0.32565,0.01688 -0.48093,0.049c-1.22107,0.13885 -2.16971,1.1755 -2.16971,2.43372c0,1.35283 1.09669,2.44952 2.44952,2.44952c0.83734,0 1.57655,-0.42014 2.01832,-1.06112c0.34024,-0.40925 0.54484,-0.93527 0.54484,-1.50908z" fill="url(#color-7)" stroke="none" stroke-width="0.5"/><path d="M238.89736,187.27893c0,-0.13431 0.10888,-0.2432 0.2432,-0.2432c0.13431,0 0.2432,0.10888 0.2432,0.2432c0,0.13431 -0.10888,0.2432 -0.2432,0.2432c-0.13431,0 -0.2432,-0.10888 -0.2432,-0.2432z" fill="#000000" stroke="none" stroke-width="0.5"/><path d="M239.49062,186.71392c0,-0.13431 0.10888,-0.2432 0.2432,-0.2432c0.13431,0 0.2432,0.10888 0.2432,0.2432c0,0.13431 -0.10888,0.2432 -0.2432,0.2432c-0.13431,0 -0.2432,-0.10888 -0.2432,-0.2432z" fill="#000000" stroke="none" stroke-width="0.5"/><path d="M241.04349,186.04718c0.24299,0.01015 0.23284,0.25313 0.23284,0.25313l-0.0091,0.20809c-0.04064,0.38878 -0.11826,1.02379 -0.39015,1.34103c-0.59301,0.69191 -2.06306,0.42139 -2.74118,0.00299c0,0 -0.20623,-0.12889 -0.07734,-0.33512c0.1289,-0.20623 0.33512,-0.07734 0.33512,-0.07734c0.4288,0.27229 0.90304,0.29013 1.40345,0.29936c0.26718,0.00493 0.51522,0.05214 0.70296,-0.19723c0.19941,-0.26487 0.25405,-0.77487 0.28317,-1.08209l0.00711,-0.17998c0,0 0.01015,-0.24299 0.25313,-0.23284z" fill="#000000" stroke="none" stroke-width="0.5"/></g></g></svg>