<svg version="1.1" xmlns="http://www.w3.org/2000/svg" xmlns:xlink="http://www.w3.org/1999/xlink" width="69.27164" height="57.48245" viewBox="0,0,69.27164,57.48245"><defs><linearGradient x1="237.00002" y1="157.74434" x2="237.00002" y2="205.50566" gradientUnits="userSpaceOnUse" id="color-1"><stop offset="0" stop-color="#ffee00"/><stop offset="1" stop-color="#ffad00"/></linearGradient><linearGradient x1="223.31332" y1="187.94582" x2="223.31332" y2="190.41139" gradientUnits="userSpaceOnUse" id="color-2"><stop offset="0" stop-color="#ffbd00"/><stop offset="1" stop-color="#ffb700"/></linearGradient><linearGradient x1="244.024" y1="188.47773" x2="244.024" y2="190.9433" gradientUnits="userSpaceOnUse" id="color-3"><stop offset="0" stop-color="#ffbd00"/><stop offset="1" stop-color="#ffb700"/></linearGradient><linearGradient x1="233.79935" y1="174.35566" x2="233.79935" y2="193.10231" gradientUnits="userSpaceOnUse" id="color-4"><stop offset="0" stop-color="#ffee00"/><stop offset="1" stop-color="#ffad00"/></linearGradient><radialGradient cx="237.16806" cy="182.17577" r="29.81136" gradientUnits="userSpaceOnUse" id="color-5"><stop offset="0" stop-color="#bf8600" stop-opacity="0"/><stop offset="1" stop-color="#bf8600"/></radialGradient></defs><g transform="translate(-202.36418,-152.0232)"><g data-paper-data="{&quot;isPaintingLayer&quot;:true}" fill-rule="nonzero" stroke-linecap="butt" stroke-linejoin="miter" stroke-miterlimit="10" stroke-dasharray="" stroke-dashoffset="0" style="mix-blend-mode: normal"><g><path d="M206.3642,193.56533c0,-9.21347 0,-21.19136 0,-26.11947c0,-4.2978 1.55004,-9.70151 3.35079,-9.70151c5.85468,0 37.97282,0 51.69793,0c3.82613,0 6.2229,5.89285 6.2229,10.44778c0,5.20421 -0.23935,16.26174 -0.23935,25.3732c0,5.95939 -2.05991,11.94033 -5.74421,11.94033c-13.2577,0 -44.44999,0 -50.97992,0c-2.36269,0 -4.30816,-5.23893 -4.30816,-11.94033z" fill="url(#color-1)" stroke="#bf8600" stroke-width="8"/><text transform="translate(219.04737,173.7732) scale(0.5,0.5)" font-size="40" xml:space="preserve" fill="#bf8600" fill-rule="nonzero" stroke="none" stroke-width="1" stroke-linecap="butt" stroke-linejoin="miter" stroke-miterlimit="10" stroke-dasharray="" stroke-dashoffset="0" font-family="Sans Serif" font-weight="normal" text-anchor="start" style="mix-blend-mode: normal"><tspan x="0" dy="0"> </tspan></text><path d="M237.99158,177.47072c-1.85972,0 -3.36732,-1.64338 -3.36732,-3.67059c0,-2.02721 1.5076,-3.67059 3.36732,-3.67059c1.85972,0 3.36732,1.64338 3.36732,3.67059c0,2.02721 -1.5076,3.67059 -3.36732,3.67059z" data-paper-data="{&quot;index&quot;:null}" fill="#73412e" stroke="none" stroke-width="0"/><path d="M229.16682,177.05535c-1.85972,0 -3.36732,-1.64338 -3.36732,-3.67059c0,-2.02721 1.5076,-3.67059 3.36732,-3.67059c1.85972,0 3.36732,1.64338 3.36732,3.67059c0,2.02721 -1.5076,3.67059 -3.36732,3.67059z" data-paper-data="{&quot;index&quot;:null}" fill="#73412e" stroke="none" stroke-width="0"/><path d="M221.30641,187.95066c1.32619,-0.01596 2.65327,0.00797 3.97829,0.06592c0.04042,0.00066 0.08027,0.00366 0.1194,0.00886c0.18657,0.02027 0.31007,0.06804 0.40215,0.14317c0.2988,0.18411 0.49563,0.5166 0.48939,0.89299c-0.00919,0.55445 -0.45563,0.99911 -1.00535,1.01084c-0.01315,0.00029 -0.02639,0.00031 -0.03967,0.00009v0c-1.49817,0.01583 -3.44843,0.8739 -4.49015,-0.20293c-0.67709,-0.69991 -0.59585,-1.90519 0.54593,-1.91891z" data-paper-data="{&quot;index&quot;:null}" fill="url(#color-2)" stroke="#73412e" stroke-width="3.5"/><path d="M246.03093,188.48256c1.14177,0.01372 1.22301,1.21901 0.54593,1.91891c-1.04172,1.07683 -2.99198,0.21878 -4.49015,0.20293v0c-0.01328,0.00022 -0.0265,0.0002 -0.03967,-0.00009c-0.54971,-0.01173 -0.99616,-0.45639 -1.00535,-1.01084c-0.00624,-0.37636 0.1906,-0.70887 0.48939,-0.89296c0.09208,-0.07513 0.21559,-0.12291 0.40215,-0.14318c0.03913,-0.0052 0.07898,-0.00819 0.1194,-0.00886c1.32502,-0.05795 2.6521,-0.08188 3.97829,-0.06592z" data-paper-data="{&quot;index&quot;:null}" fill="url(#color-3)" stroke="#73412e" stroke-width="3.5"/><path d="M231.03584,195.03843c-0.03265,1.14139 -1.23911,1.20264 -1.92771,0.51405c-1.05943,-1.05943 -0.16916,-2.99518 -0.12852,-4.49289v0c0,-0.01328 0.00025,-0.0265 0.00075,-0.03965c0.02083,-0.54943 0.47283,-0.98846 1.02737,-0.98846c0.37643,0 0.70562,0.20231 0.88475,0.50412c0.0736,0.09332 0.11931,0.21758 0.13649,0.40446c0.00454,0.03921 0.00687,0.07909 0.00687,0.11951c0.036,1.32579 0.03792,2.65309 0,3.97884z" fill="#ffae00" stroke="#73412e" stroke-width="3.5"/><path d="M237.73666,189.59538c0.02309,0.04104 0.0446,0.09366 0.06464,0.15653c0.02364,0.06377 0.04117,0.13052 0.0518,0.19953c0.24556,1.14131 0.20901,4.08784 0.13083,5.08701c-0.04237,0.54141 -0.30741,1.02811 -1.02811,1.02811c-1.46835,0 -1.17818,-5.18758 -1.14688,-5.95711c0,-0.0191 0.00053,-0.03809 0.00155,-0.05693c0.02955,-0.54133 0.47785,-0.97117 1.02655,-0.97117c0.33457,0 0.63182,0.15982 0.81958,0.40729c0.03063,0.03166 0.05762,0.06694 0.08002,0.10679z" fill="#ffae00" stroke="#73412e" stroke-width="3.5"/><path d="M227.28578,175.16039c7.88051,-2.59894 19.82396,1.24982 18.54109,9.3449c-1.28285,8.09508 -13.54106,11.32326 -20.9662,5.95793c-5.45279,-3.94012 -3.16947,-11.05556 1.3575,-14.60197z" fill="url(#color-4)" stroke="#73412e" stroke-width="3.5"/><path d="M221.30641,187.95066c1.32619,-0.01596 2.65327,0.00797 3.97829,0.06592c0.04042,0.00066 0.08027,0.00366 0.1194,0.00886c0.18657,0.02027 0.31007,0.06804 0.40215,0.14317c0.2988,0.18411 0.49563,0.5166 0.48939,0.89299c-0.00919,0.55445 -0.45563,0.99911 -1.00535,1.01084c-0.01315,0.00029 -0.02639,0.00031 -0.03967,0.00009v0c-1.49817,0.01583 -3.44843,0.8739 -4.49015,-0.20293c-0.67709,-0.69991 -0.59585,-1.90519 0.54593,-1.91891z" data-paper-data="{&quot;index&quot;:null}" fill="#9e5a3f" stroke="none" stroke-width="0.5"/><path d="M245.47752,188.48258c1.14177,0.01372 1.22301,1.21901 0.54592,1.91891c-1.04172,1.07683 -2.99197,0.21877 -4.49014,0.20292v0c-0.01328,0.00022 -0.0265,0.00021 -0.03967,-0.00008c-0.54971,-0.01173 -0.99616,-0.45639 -1.00535,-1.01084c-0.00624,-0.37636 0.19059,-0.70888 0.48939,-0.89296c0.09208,-0.07513 0.21559,-0.1229 0.40216,-0.14317c0.03913,-0.0052 0.07898,-0.00819 0.1194,-0.00886c1.32502,-0.05795 2.6521,-0.08188 3.97829,-0.06592z" data-paper-data="{&quot;index&quot;:null}" fill="#9e5a3f" stroke="none" stroke-width="0.5"/><path d="M231.03584,195.03843c-0.03265,1.14139 -1.23911,1.20264 -1.92771,0.51405c-1.05943,-1.05943 -0.16916,-2.99518 -0.12852,-4.49289v0c0,-0.01328 0.00025,-0.0265 0.00075,-0.03965c0.02083,-0.54943 0.47283,-0.98846 1.02737,-0.98846c0.37643,0 0.70562,0.20231 0.88475,0.50412c0.0736,0.09332 0.11931,0.21758 0.13649,0.40446c0.00454,0.03921 0.00687,0.07909 0.00687,0.11951c0.036,1.32579 0.03792,2.65309 0,3.97884z" fill="#9e5a3f" stroke="none" stroke-width="0.5"/><path d="M237.73666,189.59538c0.02309,0.04104 0.0446,0.09366 0.06464,0.15653c0.02364,0.06377 0.04117,0.13052 0.0518,0.19953c0.24556,1.14131 0.20901,4.08784 0.13083,5.08701c-0.04237,0.54141 -0.30741,1.02811 -1.02811,1.02811c-1.46835,0 -1.17818,-5.18758 -1.14688,-5.95711c0,-0.0191 0.00053,-0.03809 0.00155,-0.05693c0.02955,-0.54133 0.47785,-0.97117 1.02655,-0.97117c0.33457,0 0.63182,0.15982 0.81958,0.40729c0.03063,0.03166 0.05762,0.06694 0.08002,0.10679z" fill="#9e5a3f" stroke="none" stroke-width="0.5"/><path d="M226.21819,176.27148c0.21156,-0.29205 0.50869,-0.43807 0.50869,-0.43807l0.3098,-0.14566c0.04122,-0.02348 0.11478,-0.06209 0.21098,-0.09919l0.03814,-0.01793c7.88051,-2.59894 19.82396,1.24982 18.54109,9.3449c-1.28285,8.09508 -13.54105,11.32325 -20.96619,5.95792c-5.45279,-3.94012 -3.16947,-11.05556 1.35749,-14.60196z" fill="#9e5a3f" stroke="none" stroke-width="0.5"/><path d="M232.07056,180.57112c0,-0.39746 0.32222,-0.71967 0.71968,-0.71967c0.39746,0 0.71967,0.32221 0.71967,0.71967c0,0.39746 -0.32221,0.71968 -0.71967,0.71968c-0.39746,0 -0.71968,-0.32222 -0.71968,-0.71968z" fill="#000000" stroke="none" stroke-width="0.5"/><path d="M234.49499,179.23351c0,-0.39746 0.32221,-0.71968 0.71967,-0.71968c0.39746,0 0.71967,0.32222 0.71967,0.71968c0,0.39746 -0.32221,0.71967 -0.71967,0.71967c-0.39746,0 -0.71967,-0.32221 -0.71967,-0.71967z" fill="#000000" stroke="none" stroke-width="0.5"/><path d="M231.50345,174.07615c0,1.52925 -1.05604,2.76895 -2.35874,2.76895c-1.30271,0 -2.35874,-1.2397 -2.35874,-2.76895c0,-1.52925 1.05604,-2.76896 2.35874,-2.76896c1.30271,0 2.35874,1.23971 2.35874,2.76896z" fill="#cb927c" stroke="none" stroke-width="0"/><path d="M240.53333,174.0813c0,1.52925 -1.10195,2.76896 -2.46128,2.76896c-1.35933,0 -2.46128,-1.23971 -2.46128,-2.76896c0,-1.52925 1.10195,-2.76895 2.46128,-2.76895c1.35933,0 2.46128,1.2397 2.46128,2.76895z" fill="#cb927c" stroke="none" stroke-width="0"/><path d="M238.09523,177.50899c0.6335,0.00653 0.62697,0.64003 0.62697,0.64003l-0.00666,0.54256c-0.074,1.01559 -0.2241,2.67538 -0.90608,3.52364c-1.48741,1.85011 -5.33722,1.26612 -7.13713,0.23219c0,0 -0.54752,-0.31872 -0.2288,-0.86624c0.31872,-0.54752 0.86624,-0.2288 0.86624,-0.2288c1.13879,0.67388 2.37506,0.68149 3.67876,0.66456c0.69608,-0.00903 1.34579,0.09357 1.81419,-0.5711c0.49751,-0.70597 0.59804,-2.03836 0.64871,-2.84067l0.00376,-0.46923c0,0 0.00653,-0.63349 0.64003,-0.62696z" fill="#000000" stroke="none" stroke-width="0.5"/></g><text transform="translate(219.04737,173.7732) scale(0.5,0.5)" font-size="40" xml:space="preserve" fill="#bf8600" fill-rule="nonzero" stroke="none" stroke-width="1" stroke-linecap="butt" stroke-linejoin="miter" stroke-miterlimit="10" stroke-dasharray="" stroke-dashoffset="0" font-family="Sans Serif" font-weight="normal" text-anchor="start" style="mix-blend-mode: normal"><tspan x="0" dy="0"> </tspan></text><path d="M207.35671,193.79476c0,-8.96552 0,-20.62107 0,-25.41655c0,-4.18214 1.50832,-9.44042 3.26061,-9.44042c5.69713,0 36.9509,0 50.30666,0c3.72317,0 6.05543,5.73426 6.05543,10.16661c0,5.06415 -0.23291,15.82411 -0.23291,24.69036c0,5.79901 -2.00448,11.61899 -5.58963,11.61899c-12.90092,0 -43.25377,0 -49.60796,0c-2.2991,0 -4.19223,-5.09794 -4.19223,-11.61899z" fill="url(#color-5)" stroke="none" stroke-width="0"/></g></g></svg>