<svg version="1.1" xmlns="http://www.w3.org/2000/svg" xmlns:xlink="http://www.w3.org/1999/xlink" width="137.14037" height="150.85441" viewBox="0,0,137.14037,150.85441"><defs><linearGradient x1="-1346.90722" y1="-5740.42207" x2="-1372.16575" y2="1152.78943" gradientUnits="userSpaceOnUse" id="color-1"><stop offset="0" stop-color="#87bdff"/><stop offset="1" stop-color="#87bdff" stop-opacity="0"/></linearGradient><linearGradient x1="-1346.90722" y1="-5740.42207" x2="-1372.16575" y2="1152.78943" gradientUnits="userSpaceOnUse" id="color-2"><stop offset="0" stop-color="#87bdff" stop-opacity="0.20968"/><stop offset="1" stop-color="#87bdff" stop-opacity="0"/></linearGradient></defs><g transform="translate(-171.42981,-104.57279)"><g data-paper-data="{&quot;isPaintingLayer&quot;:true}" fill-rule="nonzero" stroke-linecap="butt" stroke-miterlimit="10" stroke-dasharray="" stroke-dashoffset="0" style="mix-blend-mode: normal"><path d="M205.2539,203.61757c-0.77888,-4.83967 -0.88532,-14.13272 0.68909,-30.26049c0.70656,-7.23791 -1.07792,-16.31696 -1.06674,-19.37237c0.0145,-3.95528 0.97284,-7.52697 0.97284,-7.52697c0,0 14.04649,-0.89378 24.10329,-0.85695c5.80109,0.02125 12.79662,0.74583 21.81004,1.00999c9.40824,0.27574 20.71868,0.09111 20.71868,0.09111c0,0 0.61586,6.73687 0.32009,15.565c-0.22516,6.72039 -1.37607,14.65117 -1.40208,21.75297c-0.04242,11.58011 0.8746,19.28349 0.8604,23.1621c-0.0104,2.84506 -2.98031,5.1584 -7.53084,4.70644c-4.66523,-0.46335 -11.00227,-0.97784 -17.53559,-1.16129c-9.17186,-0.25756 -18.9671,0.83819 -24.00471,0.49576c-4.80561,-0.32666 -16.63303,0.48132 -17.93447,-7.60529z" data-paper-data="{&quot;zoomLevel&quot;:1.5}" fill-opacity="0.83871" fill="#a6ceff" stroke="#a6ceff" stroke-width="12.5" stroke-linejoin="round"/><path d="M270.10557,155.63808c0.72328,4.49421 0.82213,13.12391 -0.63988,28.10048c-0.65612,6.72125 1.00097,15.15226 0.99058,17.98954c-0.01345,3.67293 -0.9034,6.98968 -0.9034,6.98968c0,0 -13.04384,0.82998 -22.38277,0.79577c-5.38702,-0.01973 -11.88318,-0.69258 -20.25321,-0.93788c-6.8589,-0.20101 -14.80653,-0.13857 -17.90603,-0.10243c-0.84855,0.00989 -1.46369,-1.40372 -1.56997,-3.77951c-0.11665,-2.60821 -0.20475,-6.36654 -0.06103,-10.65664c0.20908,-6.24068 1.27785,-13.60536 1.30202,-20.20023c0.03941,-10.7535 -0.81219,-17.90701 -0.79897,-21.50876c0.00969,-2.64198 2.76756,-4.79018 6.99329,-4.37047c4.33223,0.43029 10.21689,0.90804 16.28387,1.0784c8.51718,0.23918 17.6132,-0.77837 22.29122,-0.46037c4.46257,0.30335 15.44573,-0.44699 16.65428,7.06243z" data-paper-data="{&quot;zoomLevel&quot;:1.5,&quot;index&quot;:null}" fill-opacity="0.21774" fill="#b4d6ff" stroke="#bad9ff" stroke-width="0" stroke-linejoin="round"/><path d="M202.66765,211.53704c0,0 70.62327,-70.49921 71.02218,-70.2561c1.77985,1.08492 2.91833,0.10937 4.05847,3.0613c0.93353,2.41698 1.16129,13.40525 0.57088,21.79798c-0.49203,6.99424 -1.83647,10.93349 -1.16114,18.29913c1.2636,13.78129 1.26089,23.59351 -0.28552,27.54284c-1.44959,3.70204 -6.37293,5.60675 -9.37103,5.80463c-4.40871,0.29099 -12.14501,-1.67035 -22.35903,-0.9885c-11.55599,0.77143 -23.80464,0.58751 -32.04055,-0.40505c-6.93394,-0.83564 -9.91537,-5.36121 -10.43425,-4.85625z" fill="url(#color-1)" stroke="none" stroke-width="0" stroke-linejoin="miter"/><path d="M202.66767,211.53708c0,0 70.62329,-70.49922 71.02215,-70.25609c1.77985,1.0849 2.91833,0.10937 4.05848,3.0613c0.93353,2.41698 1.16129,13.40525 0.57088,21.79798c-0.49203,6.99424 -1.83647,10.93346 -1.16114,18.29912c1.2636,13.7813 1.26089,23.59352 -0.28552,27.54283c-1.44959,3.70203 -6.37291,5.60675 -9.37104,5.80464c-4.40871,0.29099 -12.14502,-1.67035 -22.35904,-0.9885c-11.55599,0.77143 -23.80464,0.58751 -32.04055,-0.40505c-6.93394,-0.83565 -9.91535,-5.36123 -10.43425,-4.85627z" fill="url(#color-2)" stroke="none" stroke-width="0" stroke-linejoin="miter"/><path d="M175.55413,241.43586v-114.82522h128.15315v114.82522z" fill="none" stroke="none" stroke-width="NaN" stroke-linejoin="miter"/><path d="M171.42981,255.42721v-150.85441h137.14037v150.85441z" fill="none" stroke="none" stroke-width="10" stroke-linejoin="miter"/></g></g></svg>