<svg version="1.1" xmlns="http://www.w3.org/2000/svg" xmlns:xlink="http://www.w3.org/1999/xlink" width="290.05474" height="46.15843" viewBox="0,0,290.05474,46.15843"><g transform="translate(-103.41381,-104.56363)"><g data-paper-data="{&quot;isPaintingLayer&quot;:true}" fill-rule="nonzero" stroke-linecap="butt" stroke-linejoin="miter" stroke-miterlimit="10" stroke-dasharray="" stroke-dashoffset="0" style="mix-blend-mode: normal"><path d="M105.35466,106.33648l56.02263,-0.08622l-0.12352,12.26802c0,0 -36.80853,0.00196 -36.93377,0.00586c-6.16888,0.19199 -11.07416,5.07841 -11.07416,11.29709c0,3.67708 1.7275,6.95069 4.4152,9.0535c-1.42729,2.37926 -3.03141,5.00393 -3.03141,5.00393l-10.19113,-0.00147z" data-paper-data="{&quot;index&quot;:null}" fill="#66ff85" stroke="#3c964e" stroke-width="2"/><path d="M117.82137,129.84112c0,-3.72022 3.01583,-6.73605 6.73605,-6.73605c0.09367,0 16.60945,0.0057 16.60945,0.0057c0,0 -0.0232,1.3661 0.00937,1.83694c-11.73232,6.33474 -13.64087,7.99237 -16.61882,11.62947c-3.72022,0 -6.73605,-3.01583 -6.73605,-6.73605z" data-paper-data="{&quot;index&quot;:null}" fill="#66ff85" stroke="#3c964e" stroke-width="2"/><path d="M218.41269,106.14753v12.46532c0,0 -8.83135,0 -17.50773,0c-4.106,0 -11.26148,7.53567 -11.26148,7.53567c0,0 -7.07688,-7.53567 -11.14943,-7.53567c-8.76807,0 -17.75985,0 -17.75985,0v-12.46532z" data-paper-data="{&quot;index&quot;:null}" fill="#66ff85" stroke="#3f9e52" stroke-width="2"/><path d="M273.88244,106.49525v11.68231c0,0 -2.31481,0 -5.94016,0c-5.16989,0 -13.10388,-3.26709 -20.69155,-3.26709c-8.90786,0 -17.37585,3.26709 -20.88956,3.26709c-3.21843,0 -6.53417,0 -6.53417,0v-11.68231z" data-paper-data="{&quot;index&quot;:null}" fill="#66ff85" stroke="#48b55e" stroke-width="2"/><path d="M257.35048,129.6637l4.16623,3.64738h-2.63765l-1.85528,-1.50523h-20.19806l-1.82028,1.50523h-2.45851l4.03214,-3.6342z" data-paper-data="{&quot;index&quot;:null}" fill="#66ff85" stroke="#43a757" stroke-width="2"/><path d="M329.19909,106.49527v11.82833h-54.73109v-11.82833z" data-paper-data="{&quot;index&quot;:null}" fill="#66ff85" stroke="#43a958" stroke-width="2"/><path d="M367.80055,137.97732v5.55121h-4.66093v-5.55121z" data-paper-data="{&quot;index&quot;:null}" fill="none" stroke="none" stroke-width="0"/><path d="M329.92424,127.48855v3.08747h-0.84821v-3.08747z" data-paper-data="{&quot;index&quot;:null}" fill="#66ff85" stroke="none" stroke-width="0"/><path d="M392.44734,148.06453c0,0 -18.25275,2.76991 -27.04768,1.14833c-8.88945,-1.639 -35.50038,-19.7654 -35.50038,-19.7654c0,0 7.86281,-0.39341 14.26171,2.68075c6.72216,3.22946 13.84298,9.1241 20.62466,11.4649c4.31437,1.48916 9.27382,0.67073 11.38306,-0.38404c5.17565,-2.58818 6.33079,-9.45805 6.33079,-11.02065c0,-7.02397 -5.54048,-12.54313 -12.50819,-12.75998c-0.14145,-0.0044 -41.71643,-0.00662 -41.71643,-0.00662l-0.13952,-13.85664l63.27718,0.09738z" data-paper-data="{&quot;index&quot;:null}" fill="#66ff85" stroke="#3c964e" stroke-width="2"/><path d="M360.04217,131.50955c0,-4.37525 3.54684,-7.92209 7.92209,-7.92209c4.37524,0 7.92209,3.54684 7.92209,7.92209c0,4.37524 -3.54684,7.92209 -7.92209,7.92209c-4.37524,0 -7.92209,-3.54685 -7.92209,-7.92209z" data-paper-data="{&quot;index&quot;:null}" fill="#66ff85" stroke="#3c964e" stroke-width="2"/></g></g></svg>