<svg version="1.1" xmlns="http://www.w3.org/2000/svg" xmlns:xlink="http://www.w3.org/1999/xlink" width="55.35399" height="56.4872" viewBox="0,0,55.35399,56.4872"><defs><linearGradient x1="223.11282" y1="163.99975" x2="223.11282" y2="168.13092" gradientUnits="userSpaceOnUse" id="color-1"><stop offset="0" stop-color="#ffbd00"/><stop offset="1" stop-color="#ffb700"/></linearGradient><linearGradient x1="256.88717" y1="164.89101" x2="256.88717" y2="169.02218" gradientUnits="userSpaceOnUse" id="color-2"><stop offset="0" stop-color="#ffbd00"/><stop offset="1" stop-color="#ffb700"/></linearGradient><linearGradient x1="240.68259" y1="141.22888" x2="240.68259" y2="172.63968" gradientUnits="userSpaceOnUse" id="color-3"><stop offset="0" stop-color="#ffee00"/><stop offset="1" stop-color="#ffad00"/></linearGradient></defs><g transform="translate(-209.56059,-124.86917)"><g data-paper-data="{&quot;isPaintingLayer&quot;:true}" fill-rule="nonzero" stroke-linecap="butt" stroke-linejoin="miter" stroke-miterlimit="10" stroke-dasharray="" stroke-dashoffset="0" style="mix-blend-mode: normal"><g stroke="#880000" stroke-width="7.5"><g><path d="M219.75014,164.00786c2.22208,-0.02673 4.44567,0.01335 6.66578,0.11045c0.06773,0.00112 0.13449,0.00613 0.20005,0.01483c0.31259,0.03398 0.51951,0.114 0.67381,0.23989c0.50066,0.30848 0.83044,0.86558 0.81999,1.49622c-0.01539,0.92901 -0.76345,1.67406 -1.6845,1.69371c-0.02205,0.00047 -0.0442,0.00052 -0.06645,0.00015v0c-2.51023,0.02653 -5.77798,1.46424 -7.52342,-0.34002c-1.1345,-1.17273 -0.99838,-3.19222 0.91472,-3.21523z" data-paper-data="{&quot;index&quot;:null}" fill="url(#color-1)"/><path d="M260.24986,164.8991c1.9131,0.02301 2.04922,2.0425 0.91472,3.21524c-1.74545,1.80427 -5.01319,0.36655 -7.52342,0.34002v0c-0.02224,0.00037 -0.04439,0.00032 -0.06645,-0.00015c-0.92105,-0.01965 -1.66911,-0.76469 -1.6845,-1.69371c-0.01045,-0.63063 0.31934,-1.18773 0.81999,-1.49621c0.1543,-0.12589 0.36122,-0.20591 0.67381,-0.23989c0.06556,-0.0087 0.13233,-0.01371 0.20005,-0.01483c2.22011,-0.09709 4.44371,-0.13718 6.66578,-0.11045z" data-paper-data="{&quot;index&quot;:null}" fill="url(#color-2)"/></g><path d="M236.05222,175.88372c-0.0547,1.91245 -2.07617,2.0151 -3.22995,0.86132c-1.7751,-1.7751 -0.28344,-5.01857 -0.21533,-7.52802v0c0,-0.02224 0.00042,-0.04439 0.00125,-0.06643c0.03491,-0.9206 0.79224,-1.65621 1.72139,-1.65621c0.63072,0 1.18228,0.33897 1.48242,0.84467c0.12332,0.15637 0.1999,0.36458 0.2287,0.67769c0.00761,0.0657 0.01151,0.13253 0.01151,0.20027c0.0603,2.22141 0.06354,4.44538 0,6.6667z" fill="#ffae00"/><path d="M247.27973,166.76366c0.03869,0.06877 0.07474,0.15693 0.10831,0.26225c0.03963,0.10685 0.06897,0.21869 0.08681,0.33433c0.41144,1.9123 0.35022,6.84936 0.21922,8.52349c-0.07098,0.90715 -0.51508,1.72264 -1.72264,1.72264c-2.46028,0 -1.97409,-8.69199 -1.92165,-9.98138c0,-0.03201 0.00088,-0.06383 0.0026,-0.09541c0.04952,-0.90701 0.80067,-1.62723 1.72004,-1.62723c0.5606,0 1.05865,0.26778 1.37323,0.68241c0.05134,0.05304 0.09654,0.11216 0.13408,0.17891z" fill="#ffae00"/><path d="M229.76886,142.57721c13.20413,-4.35464 33.21589,2.09412 31.0664,15.65777c-2.14948,13.56365 -22.68861,18.97259 -35.12975,9.98276c-9.13637,-6.60184 -5.31058,-18.52406 2.27452,-24.46621z" fill="url(#color-3)"/></g><g fill="#ff0000" stroke="none" stroke-width="0.5"><path d="M219.75015,164.00787c2.22208,-0.02673 4.44567,0.01335 6.66578,0.11045c0.06773,0.00112 0.13449,0.00613 0.20005,0.01483c0.31259,0.03398 0.51951,0.114 0.67381,0.23989c0.50066,0.30848 0.83044,0.86558 0.81999,1.49622c-0.01539,0.92901 -0.76345,1.67406 -1.6845,1.69371c-0.02205,0.00047 -0.0442,0.00052 -0.06645,0.00015v0c-2.51023,0.02653 -5.77798,1.46424 -7.52342,-0.34002c-1.1345,-1.17273 -0.99838,-3.19222 0.91472,-3.21523z" data-paper-data="{&quot;index&quot;:null}"/><path d="M260.24987,164.89912c1.9131,0.02301 2.04922,2.0425 0.91472,3.21524c-1.74545,1.80427 -5.01319,0.36655 -7.52342,0.34002v0c-0.02224,0.00037 -0.04439,0.00032 -0.06645,-0.00015c-0.92105,-0.01965 -1.66911,-0.76469 -1.6845,-1.69371c-0.01045,-0.63063 0.31934,-1.18773 0.81999,-1.49621c0.1543,-0.12589 0.36122,-0.20591 0.67381,-0.23989c0.06556,-0.0087 0.13233,-0.01371 0.20005,-0.01483c2.22011,-0.09709 4.44371,-0.13718 6.66578,-0.11045z" data-paper-data="{&quot;index&quot;:null}"/></g><path d="M236.05222,175.88373c-0.0547,1.91245 -2.07617,2.0151 -3.22995,0.86132c-1.7751,-1.7751 -0.28344,-5.01857 -0.21533,-7.52802v0c0,-0.02224 0.00042,-0.04439 0.00125,-0.06643c0.03491,-0.9206 0.79224,-1.65621 1.72139,-1.65621c0.63072,0 1.18228,0.33897 1.48242,0.84467c0.12332,0.15637 0.1999,0.36458 0.2287,0.67769c0.00761,0.0657 0.01151,0.13253 0.01151,0.20027c0.0603,2.22141 0.06354,4.44538 0,6.6667z" fill="#ff0000" stroke="none" stroke-width="0.5"/><path d="M247.27973,167.02506c0.03869,0.06877 0.07474,0.15693 0.10831,0.26225c0.03963,0.10685 0.06897,0.21869 0.08681,0.33433c0.41144,1.9123 0.35022,6.84936 0.21922,8.52349c-0.07098,0.90715 -0.51508,1.72264 -1.72264,1.72264c-2.46028,0 -1.97409,-8.69199 -1.92165,-9.98138c0,-0.03201 0.00088,-0.06383 0.0026,-0.09541c0.04952,-0.90701 0.80067,-1.62723 1.72004,-1.62723c0.5606,0 1.05865,0.26778 1.37323,0.68241c0.05134,0.05304 0.09654,0.11216 0.13408,0.17891z" fill="#ff0000" stroke="none" stroke-width="0.5"/><path d="M227.98004,144.43889c0.35449,-0.48935 0.85233,-0.73403 0.85233,-0.73403l0.51909,-0.24406c0.06908,-0.03934 0.19232,-0.10403 0.35351,-0.16621l0.06389,-0.03004c13.20413,-4.35464 33.21589,2.09412 31.0664,15.65777c-2.14948,13.56365 -22.68861,18.97259 -35.12975,9.98276c-9.13637,-6.60184 -5.31058,-18.52406 2.27452,-24.46621z" fill="#ff0000" stroke="none" stroke-width="0.5"/><path d="M237.78595,151.64313c0,-0.66597 0.53988,-1.20585 1.20585,-1.20585c0.66597,0 1.20585,0.53988 1.20585,1.20585c0,0.66597 -0.53988,1.20585 -1.20585,1.20585c-0.66597,0 -1.20585,-0.53988 -1.20585,-1.20585z" fill="#000000" stroke="none" stroke-width="0.5"/><path d="M241.84816,149.40191c0,-0.66597 0.53988,-1.20585 1.20585,-1.20585c0.66597,0 1.20585,0.53988 1.20585,1.20585c0,0.66597 -0.53988,1.20585 -1.20585,1.20585c-0.66597,0 -1.20585,-0.53988 -1.20585,-1.20585z" fill="#000000" stroke="none" stroke-width="0.5"/><path d="M247.88055,146.5124c1.06146,0.01095 1.05052,1.07241 1.05052,1.07241l-0.01115,0.90907c-0.12399,1.70169 -0.37551,4.48273 -1.51818,5.90404c-2.49222,3.09996 -8.94272,2.12141 -11.95855,0.38906c0,0 -0.9174,-0.53404 -0.38336,-1.45144c0.53404,-0.9174 1.45144,-0.38336 1.45144,-0.38336c1.90808,1.1291 3.97952,1.14186 6.16391,1.11349c1.16632,-0.01515 2.25492,0.15677 3.03974,-0.95689c0.83362,-1.18289 1.00203,-3.41538 1.08693,-4.75968l0.00631,-0.78619c0,0 0.01095,-1.06146 1.07241,-1.05052z" fill="#000000" stroke="none" stroke-width="0.5"/><path d="M218.9541,150.79284c0,0 0.36226,8.50014 -1.08271,5.08012c-0.30937,-0.73226 -6.34447,-8.25095 -6.34447,-8.25095l8.17439,-0.6267c0,0 -6.04542,-9.72922 -5.9908,-10.48885c0.09314,-1.29534 7.62474,-0.78712 7.62474,-0.78712l-0.79017,-7.05276l8.51161,2.948l3.37292,-4.4658l7.03858,4.40037l3.77632,-3.96685l5.75735,3.28899l5.58965,-3.97351l-0.89596,14.44523c0,0 -10.16837,-3.98687 -15.42447,-3.73346c-2.23778,0.10788 -9.03843,0.22854 -12.95697,3.1862c-4.68301,3.53465 -6.36,9.99711 -6.36,9.99711z" fill="#006303" stroke="#006316" stroke-width="2"/></g></g></svg>