<svg version="1.1" xmlns="http://www.w3.org/2000/svg" xmlns:xlink="http://www.w3.org/1999/xlink" width="100.22982" height="142.73202" viewBox="0,0,100.22982,142.73202"><defs><linearGradient x1="201.06993" y1="202.65155" x2="201.06993" y2="211.74349" gradientUnits="userSpaceOnUse" id="color-1"><stop offset="0" stop-color="#ffbd00"/><stop offset="1" stop-color="#ffb700"/></linearGradient><linearGradient x1="275.40117" y1="204.61305" x2="275.40117" y2="213.70503" gradientUnits="userSpaceOnUse" id="color-2"><stop offset="0" stop-color="#ffbd00"/><stop offset="1" stop-color="#ffb700"/></linearGradient><linearGradient x1="239.73779" y1="150.53696" x2="239.73779" y2="223.05753" gradientUnits="userSpaceOnUse" id="color-3"><stop offset="0" stop-color="#ffee00"/><stop offset="1" stop-color="#ffad00"/></linearGradient><linearGradient x1="240.49412" y1="151.29332" x2="240.49412" y2="223.81387" gradientUnits="userSpaceOnUse" id="color-4"><stop offset="0" stop-color="#00ff7b"/><stop offset="1" stop-color="#6bda94"/></linearGradient></defs><g transform="translate(-189.91927,-99.93876)"><g data-paper-data="{&quot;isPaintingLayer&quot;:true}" fill-rule="nonzero" stroke-linecap="butt" stroke-linejoin="miter" stroke-miterlimit="10" stroke-dasharray="" stroke-dashoffset="0" style="mix-blend-mode: normal"><g stroke="#00b155" stroke-width="7.5"><g><path d="M193.66927,202.66938c4.89037,-0.05882 9.78413,0.02939 14.67019,0.24307c0.14907,0.00248 0.29598,0.01349 0.44027,0.03264c0.68797,0.07479 1.14333,0.25089 1.48294,0.52798c1.10186,0.67892 1.82766,1.90498 1.80466,3.29289c-0.03388,2.0446 -1.6802,3.68433 -3.70729,3.72756c-0.04854,0.00104 -0.0973,0.00114 -0.14623,0.00033v0c-5.52456,0.0584 -12.71627,3.22253 -16.55768,-0.74833c-2.49685,-2.58097 -2.19725,-7.02551 2.01313,-7.07615z" data-paper-data="{&quot;index&quot;:null}" fill="url(#color-1)"/><path d="M282.80183,204.63088c4.21038,0.05064 4.50996,4.49515 2.01313,7.07615c-3.84142,3.97086 -11.0331,0.80672 -16.55768,0.74833v0c-0.04895,0.00081 -0.09769,0.0007 -0.14623,-0.00033c-2.02706,-0.04325 -3.67341,-1.68294 -3.70729,-3.72754c-0.023,-1.3879 0.7028,-2.61399 1.80466,-3.2929c0.3396,-0.27705 0.79498,-0.45316 1.48294,-0.52798c0.14429,-0.01912 0.29124,-0.03015 0.44029,-0.03264c4.88606,-0.21369 9.7798,-0.30189 14.67019,-0.24307z" data-paper-data="{&quot;index&quot;:null}" fill="url(#color-2)"/></g><g fill="#ffae00"><path d="M229.5472,235.12955c-0.1204,4.20896 -4.56929,4.43485 -7.10855,1.89562c-3.90668,-3.90668 -0.62381,-11.04498 -0.4739,-16.56781v0c0,-0.04895 0.00091,-0.09769 0.00275,-0.1462c0.07682,-2.02606 1.74357,-3.64502 3.78846,-3.64502c1.3881,0 2.60198,0.74601 3.26256,1.85895c0.27142,0.34415 0.43995,0.80238 0.50331,1.49149c0.01675,0.14459 0.02533,0.29168 0.02533,0.44076c0.13271,4.88894 0.13985,9.78346 0,14.67219z"/><path d="M254.25691,215.05796c0.08515,0.15136 0.16448,0.34539 0.23835,0.57716c0.08723,0.23516 0.15179,0.48128 0.19104,0.7358c0.9055,4.20862 0.77077,15.07418 0.48248,18.75866c-0.15622,1.99648 -1.13361,3.79122 -3.79122,3.79122c-5.41462,0 -4.34461,-19.1295 -4.22918,-21.96723c0,-0.07047 0.00194,-0.14046 0.00572,-0.20999c0.10896,-1.99616 1.76212,-3.58123 3.78552,-3.58123c1.23377,0 2.3299,0.58932 3.02224,1.50187c0.11298,0.11671 0.21246,0.24685 0.29509,0.39375z"/></g><path d="M215.71865,153.64999c29.0599,-10.0539 73.10216,4.83486 68.37153,36.15034c-4.7306,31.31548 -49.93353,43.8035 -77.31422,23.04798c-20.10748,-15.2422 -11.68763,-42.76794 5.0058,-56.48705z" fill="url(#color-3)"/></g><g fill="#00ff7b" stroke="none" stroke-width="0.5"><path d="M193.66927,202.66938c4.89037,-0.05882 9.78413,0.02939 14.67019,0.24307c0.14907,0.00248 0.29598,0.01349 0.44027,0.03264c0.68797,0.07479 1.14333,0.25089 1.48294,0.52798c1.10186,0.67892 1.82766,1.90498 1.80466,3.29289c-0.03388,2.0446 -1.6802,3.68433 -3.70729,3.72756c-0.04854,0.00104 -0.0973,0.00114 -0.14623,0.00033v0c-5.52456,0.0584 -12.71627,3.22253 -16.55768,-0.74833c-2.49685,-2.58097 -2.19725,-7.02551 2.01313,-7.07615z" data-paper-data="{&quot;index&quot;:null}"/><path d="M282.80183,204.63088c4.21038,0.05064 4.50996,4.49515 2.01313,7.07615c-3.84142,3.97086 -11.0331,0.80672 -16.55768,0.74833v0c-0.04895,0.00081 -0.09769,0.0007 -0.14623,-0.00033c-2.02706,-0.04325 -3.67341,-1.68294 -3.70729,-3.72754c-0.023,-1.3879 0.7028,-2.61399 1.80466,-3.2929c0.3396,-0.27705 0.79498,-0.45316 1.48294,-0.52798c0.14429,-0.01912 0.29124,-0.03015 0.44029,-0.03264c4.88606,-0.21369 9.7798,-0.30189 14.67019,-0.24307z" data-paper-data="{&quot;index&quot;:null}"/></g><g fill="#00ff7b" stroke="none" stroke-width="0.5"><path d="M229.5472,235.12955c-0.1204,4.20896 -4.56929,4.43485 -7.10855,1.89562c-3.90668,-3.90668 -0.62381,-11.04498 -0.4739,-16.56781v0c0,-0.04895 0.00091,-0.09769 0.00275,-0.1462c0.07682,-2.02606 1.74357,-3.64502 3.78846,-3.64502c1.3881,0 2.60198,0.74601 3.26256,1.85895c0.27142,0.34415 0.43995,0.80238 0.50331,1.49149c0.01675,0.14459 0.02533,0.29168 0.02533,0.44076c0.13271,4.88894 0.13985,9.78346 0,14.67219z"/><path d="M254.25691,215.05796c0.08515,0.15136 0.16448,0.34539 0.23835,0.57716c0.08723,0.23516 0.15179,0.48128 0.19104,0.7358c0.9055,4.20862 0.77077,15.07418 0.48248,18.75866c-0.15622,1.99648 -1.13361,3.79122 -3.79122,3.79122c-5.41462,0 -4.34461,-19.1295 -4.22918,-21.96723c0,-0.07047 0.00194,-0.14046 0.00572,-0.20999c0.10896,-1.99616 1.76212,-3.58123 3.78552,-3.58123c1.23377,0 2.3299,0.58932 3.02224,1.50187c0.11298,0.11671 0.21246,0.24685 0.29509,0.39375z"/></g><path d="M212.53811,157.1176c0.78017,-1.1298 1.87584,-1.69472 1.87584,-1.69472l1.14242,-0.56347c0.15205,-0.09081 0.42325,-0.24019 0.77801,-0.38373l0.14061,-0.06934c29.0599,-10.0539 73.10216,4.83486 68.37153,36.15034c-4.7306,31.31548 -49.93353,43.8035 -77.31422,23.04798c-20.10748,-15.2422 -11.68763,-42.76794 5.0058,-56.48705z" fill="url(#color-4)" stroke="none" stroke-width="0.5"/><path d="M235.2125,177.46447c0,-1.46567 1.18818,-2.65385 2.65385,-2.65385c1.46567,0 2.65385,1.18818 2.65385,2.65385c0,1.46567 -1.18818,2.65385 -2.65385,2.65385c-1.46567,0 -2.65385,-1.18818 -2.65385,-2.65385z" fill="#000000" stroke="none" stroke-width="0.5"/><path d="M241.68642,171.29884c0,-1.46567 1.18818,-2.65385 2.65385,-2.65385c1.46567,0 2.65385,1.18818 2.65385,2.65385c0,1.46567 -1.18818,2.65385 -2.65385,2.65385c-1.46567,0 -2.65385,-1.18818 -2.65385,-2.65385z" fill="#000000" stroke="none" stroke-width="0.5"/><path d="M258.63199,164.02304c2.65153,0.11074 2.5408,2.76229 2.5408,2.76229l-0.09928,2.27073c-0.44353,4.2425 -1.29054,11.17204 -4.25752,14.63389c-6.47118,7.55041 -22.51296,4.59845 -29.91287,0.03264c0,0 -2.25047,-1.40654 -0.84393,-3.65702c1.40654,-2.25047 3.65702,-0.84393 3.65702,-0.84393c4.67923,2.97135 9.85441,3.16597 15.31499,3.26669c2.91562,0.0538 5.62231,0.56893 7.67095,-2.15224c2.17603,-2.89034 2.77226,-8.45572 3.09002,-11.80821l0.07757,-1.96407c0,0 0.11074,-2.65153 2.76229,-2.5408z" fill="#000000" stroke="none" stroke-width="0.5"/><path d="M218.9837,157.67114v-57.48237h44.62448v57.48237z" fill="#000000" stroke="#051717" stroke-width="0.5"/><path d="M285.54224,147.83862c0,10.02527 -20.82562,18.15234 -46.51536,18.15234c-25.6897,0 -46.51536,-8.12708 -46.51536,-18.15234c0,-10.02527 20.82562,-18.15234 46.51536,-18.15234c25.6897,0 46.51536,8.12708 46.51536,18.15234z" fill="#000000" stroke="none" stroke-width="0"/></g></g></svg>