<svg version="1.1" xmlns="http://www.w3.org/2000/svg" xmlns:xlink="http://www.w3.org/1999/xlink" width="486.68252" height="365.23261" viewBox="0,0,486.68252,365.23261"><g transform="translate(-15.35207,23.26106)"><g data-paper-data="{&quot;isPaintingLayer&quot;:true}" fill-rule="nonzero" stroke-linecap="butt" stroke-linejoin="miter" stroke-miterlimit="10" stroke-dasharray="" stroke-dashoffset="0" style="mix-blend-mode: normal"><path d="M453.46158,240.10839c0,42.62799 1.31982,78.15568 -12.62141,78.15568c-13.94123,0 -18.44668,-35.20406 -18.44668,-77.83205c0,-42.62799 4.50545,-76.53754 18.44668,-76.53754c13.94123,0 12.62141,33.58593 12.62141,76.21392z" fill="#fff6db" stroke="none" stroke-width="0"/><path d="M501.03459,180.72303c0,26.63132 -27.1673,48.22027 -60.67987,48.22027c-33.51257,0 -60.67987,-21.58895 -60.67987,-48.22027c0,-26.63132 26.52005,-44.33676 60.03262,-44.33676c33.51257,0 61.32712,17.70544 61.32712,44.33676z" fill="#ff4949" stroke="#b73535" stroke-width="2"/><path d="M428.17389,207.70795c0,8.00111 -6.69954,14.48728 -14.96384,14.48728c-8.2643,0 -14.96384,-6.48618 -14.96384,-14.48728c0,-8.00111 6.69954,-14.48728 14.96384,-14.48728c8.2643,0 14.96384,6.48618 14.96384,14.48728z" fill="#fff7e6" stroke="#f5eddc" stroke-width="2"/><path d="M497.11445,173.79084c0,14.40965 -12.66218,26.09093 -28.2818,26.09093c-15.61962,0 -28.28178,-11.68131 -28.28178,-26.09093c0,-14.40965 12.66218,-26.09093 28.28178,-26.09093c15.61962,0 28.2818,11.68131 28.2818,26.09093z" fill="#fff7e6" stroke="#f5eddc" stroke-width="2"/><path d="M437.27707,169.02145c0,11.97046 -10.5188,21.6744 -23.49441,21.6744c-12.97561,0 -23.49439,-9.70396 -23.49439,-21.6744c0,-11.97046 10.5188,-21.6744 23.49439,-21.6744c12.97561,0 23.49441,9.70396 23.49441,21.6744z" fill="#fff7e6" stroke="#f5eddc" stroke-width="2"/><path d="M462.98549,212.70795c0,8.00111 -6.69954,14.48728 -14.96384,14.48728c-8.2643,0 -14.96384,-6.48618 -14.96384,-14.48728c0,-8.00111 6.69954,-14.48728 14.96384,-14.48728c8.2643,0 14.96384,6.48618 14.96384,14.48728z" fill="#fff7e6" stroke="#f5eddc" stroke-width="2"/><path d="M230.94724,263.81587c0,42.62799 1.31982,78.15568 -12.62141,78.15568c-13.94123,0 -18.44668,-35.20406 -18.44668,-77.83205c0,-42.62799 4.50545,-76.53754 18.44668,-76.53754c13.94123,0 12.62141,33.58593 12.62141,76.21392z" fill="#fff6db" stroke="none" stroke-width="0"/><path d="M278.52025,204.43051c0,26.63132 -27.1673,48.22027 -60.67987,48.22027c-33.51257,0 -60.67987,-21.58895 -60.67987,-48.22027c0,-26.63132 26.52005,-44.33676 60.03262,-44.33676c33.51257,0 61.32712,17.70544 61.32712,44.33676z" fill="#ff4949" stroke="#b73535" stroke-width="2"/><path d="M205.65955,231.41543c0,8.00111 -6.69954,14.48728 -14.96384,14.48728c-8.2643,0 -14.96384,-6.48618 -14.96384,-14.48728c0,-8.00111 6.69954,-14.48728 14.96384,-14.48728c8.2643,0 14.96384,6.48618 14.96384,14.48728z" fill="#fff7e6" stroke="#f5eddc" stroke-width="2"/><path d="M274.60011,197.49832c0,14.40965 -12.66218,26.09093 -28.2818,26.09093c-15.61962,0 -28.28178,-11.68131 -28.28178,-26.09093c0,-14.40965 12.66218,-26.09093 28.28178,-26.09093c15.61962,0 28.2818,11.68131 28.2818,26.09093z" fill="#fff7e6" stroke="#f5eddc" stroke-width="2"/><path d="M214.76273,192.72893c0,11.97046 -10.5188,21.6744 -23.49441,21.6744c-12.97561,0 -23.49439,-9.70396 -23.49439,-21.6744c0,-11.97046 10.5188,-21.6744 23.49439,-21.6744c12.97561,0 23.49441,9.70396 23.49441,21.6744z" fill="#fff7e6" stroke="#f5eddc" stroke-width="2"/><path d="M240.47115,236.41543c0,8.00111 -6.69954,14.48728 -14.96384,14.48728c-8.2643,0 -14.96384,-6.48618 -14.96384,-14.48728c0,-8.00111 6.69954,-14.48728 14.96384,-14.48728c8.2643,0 14.96384,6.48618 14.96384,14.48728z" fill="#fff7e6" stroke="#f5eddc" stroke-width="2"/><path d="M90.1388,227.90013c0,42.62799 1.31982,78.15568 -12.62141,78.15568c-13.94123,0 -18.44668,-35.20406 -18.44668,-77.83205c0,-42.62799 4.50545,-76.53754 18.44668,-76.53754c13.94123,0 12.62141,33.58593 12.62141,76.21392z" fill="#fff6db" stroke="none" stroke-width="0"/><path d="M137.71181,168.51477c0,26.63132 -27.1673,48.22027 -60.67987,48.22027c-33.51257,0 -60.67987,-21.58895 -60.67987,-48.22027c0,-26.63132 26.52005,-44.33676 60.03262,-44.33676c33.51257,0 61.32712,17.70544 61.32712,44.33676z" fill="#ff4949" stroke="#b73535" stroke-width="2"/><path d="M64.85111,195.49969c0,8.00111 -6.69954,14.48728 -14.96384,14.48728c-8.2643,0 -14.96384,-6.48618 -14.96384,-14.48728c0,-8.00111 6.69954,-14.48728 14.96384,-14.48728c8.2643,0 14.96384,6.48618 14.96384,14.48728z" fill="#fff7e6" stroke="#f5eddc" stroke-width="2"/><path d="M133.79167,161.58258c0,14.40965 -12.66218,26.09093 -28.2818,26.09093c-15.61962,0 -28.28178,-11.68131 -28.28178,-26.09093c0,-14.40965 12.66218,-26.09093 28.28178,-26.09093c15.61962,0 28.2818,11.68131 28.2818,26.09093z" fill="#fff7e6" stroke="#f5eddc" stroke-width="2"/><path d="M73.95429,156.81319c0,11.97046 -10.5188,21.6744 -23.49441,21.6744c-12.97561,0 -23.49439,-9.70396 -23.49439,-21.6744c0,-11.97046 10.5188,-21.6744 23.49439,-21.6744c12.97561,0 23.49441,9.70396 23.49441,21.6744z" fill="#fff7e6" stroke="#f5eddc" stroke-width="2"/><path d="M99.66271,200.49969c0,8.00111 -6.69954,14.48728 -14.96384,14.48728c-8.2643,0 -14.96384,-6.48618 -14.96384,-14.48728c0,-8.00111 6.69954,-14.48728 14.96384,-14.48728c8.2643,0 14.96384,6.48618 14.96384,14.48728z" fill="#fff7e6" stroke="#f5eddc" stroke-width="2"/><g><path d="M348.33223,166.99815c0,77.78224 2.40823,142.60873 -23.02998,142.60873c-25.43822,0 -33.6592,-64.23599 -33.6592,-142.01822c0,-77.78224 8.22099,-139.65617 33.6592,-139.65617c25.43822,0 23.02998,61.28342 23.02998,139.06566z" fill="#fff6db" stroke="none" stroke-width="0"/><path d="M435.13755,58.63913c0,48.59351 -49.57151,87.98634 -110.72107,87.98634c-61.14956,0 -110.72107,-39.39283 -110.72107,-87.98634c0,-48.59351 48.39049,-80.90019 109.54004,-80.90019c61.14956,0 111.90209,32.30668 111.90209,80.90019z" fill="#ff4949" stroke="#b73535" stroke-width="2"/><path d="M424.50833,46.23837c0,24.78595 -20.75394,44.87894 -46.35522,44.87894c-25.60128,0 -46.35522,-20.09299 -46.35522,-44.87894c0,-24.78595 20.75394,-44.87894 46.35522,-44.87894c25.60128,0 46.35522,20.09299 46.35522,44.87894z" fill="#fff7e6" stroke="#f5eddc" stroke-width="2"/><path d="M320.57815,21.1416c0,18.4264 -15.33412,33.36395 -34.24972,33.36395c-18.9156,0 -34.24972,-14.93755 -34.24972,-33.36395c0,-18.4264 15.33412,-33.36395 34.24972,-33.36395c18.9156,0 34.24972,14.93755 34.24972,33.36395z" fill="#fff7e6" stroke="#f5eddc" stroke-width="2"/><path d="M344.78916,103.22281c0,21.36158 -18.77108,38.67856 -41.92638,38.67856c-23.1553,0 -41.92638,-17.31698 -41.92638,-38.67856c0,-21.36158 18.77108,-38.67856 41.92638,-38.67856c23.1553,0 41.92638,17.31698 41.92638,38.67856z" fill="#fff7e6" stroke="#f5eddc" stroke-width="2"/><path d="M263.88897,62.47746c0,10.92539 -9.90561,19.78216 -22.12479,19.78216c-12.21918,0 -22.12479,-8.85678 -22.12479,-19.78216c0,-10.92539 9.90561,-19.78216 22.12479,-19.78216c12.21918,0 22.12479,8.85678 22.12479,19.78216z" fill="#fff7e6" stroke="#f5eddc" stroke-width="2"/></g></g></g></svg>