<svg version="1.1" xmlns="http://www.w3.org/2000/svg" xmlns:xlink="http://www.w3.org/1999/xlink" width="312.44754" height="46.88786" viewBox="0,0,312.44754,46.88786"><g transform="translate(-90.45509,-107.26633)"><g data-paper-data="{&quot;isPaintingLayer&quot;:true}" fill-rule="nonzero" stroke-width="2" stroke-linecap="butt" stroke-linejoin="miter" stroke-miterlimit="10" stroke-dasharray="" stroke-dashoffset="0" style="mix-blend-mode: normal"><path d="M91.47629,109.92386c0,0 18.25274,-2.76991 27.04767,-1.14833c8.88945,1.639 35.50038,19.76541 35.50038,19.76541c0,0 -7.86282,0.39341 -14.26171,-2.68075c-6.72215,-3.22945 -13.84298,-9.12411 -20.62465,-11.4649c-4.31437,-1.48916 -9.27382,-0.67073 -11.38306,0.38404c-5.17566,2.58818 -6.33079,9.45804 -6.33079,11.02064c0,7.02396 5.54048,12.54313 12.50818,12.75998c0.14145,0.0044 41.71643,0.00662 41.71643,0.00662l0.13952,13.85664l-63.27717,-0.09738z" data-paper-data="{&quot;index&quot;:null}" fill="#66ff85" stroke="#3c964e"/><path d="M123.88146,126.47884c0,4.37525 -3.54684,7.92209 -7.92209,7.92209c-4.37525,0 -7.92209,-3.54684 -7.92209,-7.92209c0,-4.37525 3.54684,-7.92209 7.92209,-7.92209c4.37525,0 7.92209,3.54684 7.92209,7.92209z" fill="#66ff85" stroke="#3c964e"/><path d="M155.65492,151.94001v-13.0754c0,0 9.43186,0 18.62906,0c4.27187,0 11.69511,-7.90449 11.69511,-7.90449c0,0 7.5057,7.90449 11.81265,7.90449c9.10103,0 18.36461,0 18.36461,0v13.0754z" fill="#66ff85" stroke="#3f9e52"/><path d="M217.3634,152.29211v-12.79077c0,0 3.63036,0 7.15416,0c3.8471,0 13.11857,3.57708 22.87163,3.57708c8.30762,0 16.99441,-3.57708 22.65483,-3.57708c3.96933,0 6.50378,0 6.50378,0v12.79077z" fill="#66ff85" stroke="#48b55e"/><path d="M236.40912,126.91092l-4.41472,-3.97902h2.69177l1.99299,1.64805h22.11452l2.03131,-1.64805h2.88791l-4.56154,3.99346z" fill="#66ff85" stroke="#43a757"/><path d="M276.72789,152.24942v-13.0754c0,0 9.43186,0 18.62906,0c4.27187,0 11.69511,-7.90449 11.69511,-7.90449c0,0 7.5057,7.90449 11.81265,7.90449c9.10103,0 18.36461,0 18.36461,0v13.0754z" fill="#66ff85" stroke="#3f9e52"/><path d="M400.84663,153.05526l-63.27718,0.09738l0.13952,-13.85664c0,0 41.57498,-0.00222 41.71643,-0.00662c6.96771,-0.21685 12.50819,-5.73601 12.50819,-12.75998c0,-1.5626 -1.15514,-8.43247 -6.33079,-11.02065c-2.10924,-1.05477 -7.06869,-1.8732 -11.38306,-0.38404c-6.78168,2.3408 -13.9025,8.23544 -20.62466,11.4649c-6.3989,3.07416 -14.26171,2.68075 -14.26171,2.68075c0,0 26.61093,-18.1264 35.50038,-19.7654c8.79493,-1.62158 27.04768,1.14833 27.04768,1.14833z" data-paper-data="{&quot;index&quot;:null}" fill="#66ff85" stroke="#3c964e"/><path d="M377.39835,119.28618c4.37525,0 7.92209,3.54685 7.92209,7.92209c0,4.37525 -3.54685,7.92209 -7.92209,7.92209c-4.37525,0 -7.92209,-3.54684 -7.92209,-7.92209c0,-4.37524 3.54685,-7.92209 7.92209,-7.92209z" data-paper-data="{&quot;index&quot;:null}" fill="#66ff85" stroke="#3c964e"/></g></g></svg>