<svg version="1.1" xmlns="http://www.w3.org/2000/svg" xmlns:xlink="http://www.w3.org/1999/xlink" width="77.22952" height="56.06674"><defs><radialGradient cx="252.63065" cy="168.27293" r="8.93264" gradientUnits="userSpaceOnUse" id="color-1"><stop offset="0" stop-color="#0f624e"/><stop offset="1" stop-color="#068961"/></radialGradient><radialGradient cx="234.35143" cy="166.47098" r="9.26626" gradientUnits="userSpaceOnUse" id="color-2"><stop offset="0" stop-color="#0f624e"/><stop offset="1" stop-color="#068961"/></radialGradient><radialGradient cx="267.42915" cy="190.73494" r="9.26626" gradientUnits="userSpaceOnUse" id="color-3"><stop offset="0" stop-color="#0f624e"/><stop offset="1" stop-color="#068961"/></radialGradient><radialGradient cx="211.79583" cy="184.54523" r="7.98971" gradientUnits="userSpaceOnUse" id="color-4"><stop offset="0" stop-color="#0f624e"/><stop offset="1" stop-color="#068961"/></radialGradient></defs><g transform="translate(-193.41535,-157.71096)"><g data-paper-data="{&quot;isPaintingLayer&quot;:true}" fill="none" fill-rule="nonzero" stroke="none" stroke-width="0" stroke-linecap="butt" stroke-linejoin="miter" stroke-miterlimit="10" stroke-dasharray="" stroke-dashoffset="0" font-family="none" font-weight="none" font-size="none" text-anchor="none" style="mix-blend-mode: normal"><g data-paper-data="{&quot;origPos&quot;:null,&quot;origRot&quot;:0}"><path d="M231.70097,183.59851l-3.12323,-10.72696l7.97342,-9.01425l11.57021,3.00736l2.77412,11.51318l-7.93507,8.02914z" data-paper-data="{&quot;origPos&quot;:null}" fill="#005941"/><path d="M228.66647,173.05046l-7.21699,-2.17675l13.09675,-13.05641l2.04027,6.0785z" data-paper-data="{&quot;origPos&quot;:null}" fill="#0d674d"/><path d="M226.98892,188.92741l-5.44406,-18.10366l7.11979,2.13041l3.08789,10.5862z" data-paper-data="{&quot;origPos&quot;:null}" fill="#33ba91"/><path d="M227.08341,188.82932l4.66913,-5.28896l11.37197,2.86959l1.57412,6.90598z" data-paper-data="{&quot;origPos&quot;:null}" fill="#3dfde4"/><path d="M244.74861,193.41133l-1.72036,-6.99958l7.8908,-8.1427l7.30248,1.59719z" data-paper-data="{&quot;origPos&quot;:null}" fill="#35be90"/><path d="M236.53498,163.85929l-2.02553,-6.14833l18.55406,4.61085l-5.00852,4.59696z" data-paper-data="{&quot;origPos&quot;:null}" fill="#99ffe0"/><path d="M250.87179,178.3181l-2.91062,-11.40828l5.11416,-4.67118l5.14888,17.77204z" data-paper-data="{&quot;origPos&quot;:null}" fill="url(#color-1)"/><path d="M238.26917,164.28356c0,0 6.94099,-0.88596 8.31493,-1.71808c1.34812,-0.81648 -1.40883,-2.20727 -1.40883,-2.20727l5.11285,1.21549c0,0 -1.45517,0.83577 -2.06635,2.0317c-0.47954,0.93834 -0.58384,3.21108 -0.58384,3.21108z" data-paper-data="{&quot;origPos&quot;:null}" fill="#f3ffff"/><path d="M221.84754,170.8949c0,0 5.02505,0.05835 6.82802,-0.75127c3.72469,-1.67259 7.3359,-5.60907 7.3359,-5.60907l-7.48257,8.50966z" data-paper-data="{&quot;origPos&quot;:null}" fill="#1dd8a1"/><path d="M231.64184,169.52957l4.90933,-5.67226l11.57021,3.00736l1.31127,6.26405c0,0 -2.85245,5.08646 -9.19666,3.7393c-7.44796,-1.81605 -8.59415,-7.33845 -8.59415,-7.33845z" data-paper-data="{&quot;origPos&quot;:null}" fill="#00674c"/></g><g data-paper-data="{&quot;origPos&quot;:null,&quot;origRot&quot;:0}"><path d="M216.88859,186.9448l-5.71725,-10.08132l5.89343,-11.00546l12.39822,0.2695l5.55281,10.95842l-6.09023,10.0019z" data-paper-data="{&quot;origPos&quot;:null}" fill="#005941"/><path d="M211.30369,177.02284l-7.8054,-0.47183l10.09863,-16.31059l3.51273,5.64798z" data-paper-data="{&quot;origPos&quot;:null}" fill="#0d674d"/><path d="M213.40618,193.45045l-9.82356,-16.97266l7.69621,0.44829l5.64792,9.94768z" data-paper-data="{&quot;origPos&quot;:null}" fill="#33ba91"/><path d="M213.47811,193.32885l3.44864,-6.45509l12.16517,0.17783l3.24003,6.59471z" data-paper-data="{&quot;origPos&quot;:null}" fill="#3dfde4"/><path d="M232.4052,193.73065l-3.41002,-6.65422l6.0184,-10.10594l7.75313,-0.13363z" data-paper-data="{&quot;origPos&quot;:null}" fill="#35be90"/><path d="M217.04891,165.86389l-3.51455,-5.722l19.83123,0.21841l-3.95668,5.8377z" data-paper-data="{&quot;origPos&quot;:null}" fill="#99ffe0"/><path d="M234.9776,177.03129l-5.66553,-10.81989l4.04557,-5.93788l9.44631,16.70849z" data-paper-data="{&quot;origPos&quot;:null}" fill="url(#color-2)"/><path d="M218.90087,165.87754c0,0 6.79458,-2.55375 7.98251,-3.7222c1.16562,-1.14648 -1.94981,-1.89124 -1.94981,-1.89124l5.45162,0.00457c0,0 -1.26906,1.19154 -1.60009,2.54486c-0.25972,1.06183 0.17836,3.38091 0.17836,3.38091z" data-paper-data="{&quot;origPos&quot;:null}" fill="#f3ffff"/><path d="M203.90516,176.47725c0,0 5.08635,-1.14249 6.71274,-2.39079c3.3599,-2.57884 6.06401,-7.41577 6.06401,-7.41577l-5.51859,10.37876z" data-paper-data="{&quot;origPos&quot;:null}" fill="#1dd8a1"/><path d="M213.46532,172.75744l3.59946,-6.89942l12.39822,0.2695l2.82123,6.00957c0,0 -1.66325,5.81634 -8.38932,5.97326c-7.95231,-0.0525 -10.42959,-5.35291 -10.42959,-5.35291z" data-paper-data="{&quot;origPos&quot;:null}" fill="#00674c"/></g><g data-paper-data="{&quot;origPos&quot;:null,&quot;origRot&quot;:0}"><path d="M240.89703,195.22659l2.08644,-11.40029l11.58307,-4.65672l9.33442,8.16438l-2.7755,11.96734l-11.08986,3.76084z" data-paper-data="{&quot;origPos&quot;:null}" fill="#005941"/><path d="M242.98267,184.03345l-5.68262,-5.37166l18.21284,-6.0258l-0.93143,6.5857z" data-paper-data="{&quot;origPos&quot;:null}" fill="#0d674d"/><path d="M234.05098,197.98019l3.36074,-19.32043l5.614,5.28352l-2.05382,11.25332z" data-paper-data="{&quot;origPos&quot;:null}" fill="#33ba91"/><path d="M234.18419,197.93311l6.7877,-2.7365l9.21454,7.9445l-1.7482,7.13665z" data-paper-data="{&quot;origPos&quot;:null}" fill="#3dfde4"/><path d="M248.44027,210.38946l1.65604,-7.2914l11.10155,-3.88673l6.03115,4.87382z" data-paper-data="{&quot;origPos&quot;:null}" fill="#35be90"/><path d="M254.55062,179.1639l0.97754,-6.64362l15.06711,12.89603l-6.78101,1.93699z" data-paper-data="{&quot;origPos&quot;:null}" fill="#99ffe0"/><path d="M261.13125,199.23487l2.60015,-11.93346l6.91347,-1.95676l-3.48047,18.87572z" data-paper-data="{&quot;origPos&quot;:null}" fill="url(#color-3)"/><path d="M255.962,180.36304c0,0 6.84943,2.40275 8.51035,2.26922c1.62971,-0.13102 -0.28131,-2.70174 -0.28131,-2.70174l4.17756,3.50259c0,0 -1.73795,0.09917 -2.8604,0.92448c-0.88069,0.64755 -2.03325,2.70708 -2.03325,2.70708z" data-paper-data="{&quot;origPos&quot;:null}" fill="#f3ffff"/><path d="M237.6594,178.86637c0,0 4.63369,2.38854 6.68208,2.47518c4.2317,0.17899 9.40986,-1.79453 9.40986,-1.79453l-10.89339,4.41673z" data-paper-data="{&quot;origPos&quot;:null}" fill="#1dd8a1"/><path d="M247.37801,182.15001l7.18854,-2.98043l9.33442,8.16438l-1.69379,6.41913c0,0 -5.00862,3.39263 -10.26713,-0.80412c-6.06442,-5.1444 -4.56205,-10.79897 -4.56205,-10.79897z" data-paper-data="{&quot;origPos&quot;:null}" fill="#00674c"/></g><g data-paper-data="{&quot;origPos&quot;:null,&quot;origRot&quot;:0}"><path d="M207.92312,207.42222l-8.68992,-4.93415l-0.50421,-10.75243l9.29647,-5.28298l8.95605,5.6561l-0.08524,10.09661z" data-paper-data="{&quot;origPos&quot;:null}" fill="#005941"/><path d="M199.40164,202.54751l-5.98629,3.10228l0.26261,-16.53888l5.09769,2.62737z" data-paper-data="{&quot;origPos&quot;:null}" fill="#0d674d"/><path d="M208.22219,213.7777l-14.77679,-8.2194l5.89505,-3.07142l8.5795,4.86589z" data-paper-data="{&quot;origPos&quot;:null}" fill="#33ba91"/><path d="M208.22165,213.65587l-0.3017,-6.30311l9.08344,-5.24778l5.31448,3.44874z" data-paper-data="{&quot;origPos&quot;:null}" fill="#3dfde4"/><path d="M222.40938,205.58377l-5.46663,-3.41763l-0.01395,-10.14186l5.67987,-3.52734z" data-paper-data="{&quot;origPos&quot;:null}" fill="#35be90"/><path d="M198.71985,191.74699l-5.13177,-2.68136l14.77588,-8.60766l-0.34736,6.07077z" data-paper-data="{&quot;origPos&quot;:null}" fill="#99ffe0"/><path d="M216.92908,192.0852l-8.97822,-5.50373l0.36886,-6.18422l14.38074,8.19067z" data-paper-data="{&quot;origPos&quot;:null}" fill="url(#color-4)"/><path d="M200.09673,190.93817c0,0 3.90016,-4.89486 4.2628,-6.28507c0.35583,-1.36408 -2.27958,-0.53771 -2.27958,-0.53771l4.03737,-2.40731c0,0 -0.41248,1.44317 -0.05907,2.59129c0.27729,0.90083 1.62706,2.42372 1.62706,2.42372z" data-paper-data="{&quot;origPos&quot;:null}" fill="#f3ffff"/><path d="M193.6839,205.41527c0,0 3.25977,-3.09485 3.91164,-4.73805c1.34668,-3.39463 1.2094,-8.17073 1.2094,-8.17073l0.50454,10.12279z" data-paper-data="{&quot;origPos&quot;:null}" fill="#1dd8a1"/><path d="M199.11554,198.43434l-0.38655,-6.69871l9.29647,-5.28298l4.74573,3.20081c0,0 1.34081,5.04081 -3.56851,8.13122c-5.90961,3.47763 -10.08715,0.64966 -10.08715,0.64966z" data-paper-data="{&quot;origPos&quot;:null}" fill="#00674c"/></g></g></g></svg>