<svg version="1.1" xmlns="http://www.w3.org/2000/svg" xmlns:xlink="http://www.w3.org/1999/xlink" width="84.00926" height="59.93148" viewBox="0,0,84.00926,59.93148"><g transform="translate(-197.82166,-158.35518)"><g data-paper-data="{&quot;isPaintingLayer&quot;:true}" fill-rule="nonzero" stroke-linecap="butt" stroke-linejoin="miter" stroke-miterlimit="10" stroke-dasharray="" stroke-dashoffset="0" style="mix-blend-mode: normal"><path d="M211.47707,206.96238c0,0 -7.01152,-12.50336 -7.01152,-19.44781c0,-6.3598 -3.66268,-8.93465 1.32081,-19.05796c4.98349,-10.1233 5.77497,-4.02385 9.69083,-3.31074c4.59544,0.83687 7.64731,-5.28 10.92183,-5.28c2.84612,0 8.16651,4.74015 13.09274,5.5003c4.85736,0.74953 12.4198,-6.57839 17.07743,-6.36646c7.94363,0.36146 11.89893,7.89549 11.89893,7.89549c0,0 8.62956,12.67466 8.62956,18.74488c0,7.11796 -8.62956,21.32231 -8.62956,21.32231c0,0 -14.36768,-3.01587 -27.27609,-1.97854c-5.82324,0.46795 -12.06517,5.49173 -15.31073,5.49173c-6.07167,0 -14.40423,-3.51318 -14.40423,-3.51318z" fill="#ffffff" stroke="#898989" stroke-width="1.28"/><path d="M234.261,182.52638c0,-0.84325 0.68358,-1.52683 1.52683,-1.52683c0.84325,0 1.52683,0.68358 1.52683,1.52683c0,0.84325 -0.68358,1.52683 -1.52683,1.52683c-0.84325,0 -1.52683,-0.68358 -1.52683,-1.52683z" fill="#000000" stroke="none" stroke-width="0.5"/><path d="M237.98561,178.97915c0,-0.84325 0.68358,-1.52683 1.52683,-1.52683c0.84325,0 1.52683,0.68358 1.52683,1.52683c0,0.84325 -0.68358,1.52683 -1.52683,1.52683c-0.84325,0 -1.52683,-0.68358 -1.52683,-1.52683z" fill="#000000" stroke="none" stroke-width="0.5"/><path d="M247.73481,174.7932c1.5255,0.06371 1.46179,1.58922 1.46179,1.58922l-0.05712,1.30641c-0.25517,2.44082 -0.74247,6.42755 -2.44946,8.41923c-3.72303,4.34394 -12.95227,2.64559 -17.20963,0.01877c0,0 -1.29475,-0.80922 -0.48553,-2.10396c0.80922,-1.29475 2.10396,-0.48553 2.10396,-0.48553c2.69207,1.70947 5.66947,1.82147 8.8111,1.87943c1.67742,0.03094 3.23466,0.32732 4.41329,-1.23824c1.25192,-1.66287 1.59494,-4.86478 1.77776,-6.79355l0.04462,-1.12998c0,0 0.06371,-1.5255 1.58922,-1.46179z" fill="#000000" stroke="none" stroke-width="0.5"/><path d="M237.22199,215.79755c-0.04694,1.64109 -1.78158,1.72917 -2.77165,0.73911c-1.52323,-1.52323 -0.24323,-4.30648 -0.18478,-6.45986v0c0,-0.01909 0.00036,-0.03809 0.00108,-0.05701c0.02995,-0.78997 0.67983,-1.42121 1.47714,-1.42121c0.54123,0 1.01452,0.29087 1.27208,0.72482c0.10582,0.13418 0.17154,0.31285 0.19625,0.58154c0.00653,0.05638 0.00988,0.11373 0.00988,0.17186c0.05174,1.90622 0.05452,3.81462 0,5.72076z" fill="#ffffff" stroke="#898989" stroke-width="3.5"/><path d="M237.22199,215.49804c-0.04694,1.64109 -1.78158,1.72917 -2.77165,0.73911c-1.52323,-1.52323 -0.24323,-4.30648 -0.18478,-6.45986v0c0,-0.01909 0.00036,-0.03809 0.00108,-0.05701c0.02995,-0.78997 0.67983,-1.42121 1.47714,-1.42121c0.54123,0 1.01452,0.29087 1.27208,0.72482c0.10582,0.13418 0.17154,0.31285 0.19625,0.58154c0.00653,0.05638 0.00988,0.11373 0.00988,0.17186c0.05174,1.90622 0.05452,3.81462 0,5.72076z" fill="#ffffff" stroke="none" stroke-width="0.5"/><path d="M250.25101,207.12616c0.02767,0.04918 0.05345,0.11223 0.07745,0.18753c0.02834,0.0764 0.04932,0.15638 0.06207,0.23908c0.29422,1.36747 0.25044,4.89791 0.15677,6.09507c-0.05076,0.64869 -0.36833,1.23184 -1.23184,1.23184c-1.75932,0 -1.41166,-6.21556 -1.37415,-7.1376c0,-0.02289 0.00063,-0.04564 0.00186,-0.06823c0.03541,-0.64859 0.57255,-1.16362 1.22998,-1.16362c0.40087,0 0.75703,0.19149 0.98198,0.48799c0.03672,0.03792 0.06903,0.08021 0.09588,0.12793z" fill="#ffffff" stroke="#898989" stroke-width="3.5"/><path d="M250.25101,207.72518c0.02767,0.04918 0.05345,0.11223 0.07745,0.18753c0.02834,0.0764 0.04932,0.15638 0.06207,0.23908c0.29422,1.36747 0.25044,4.89791 0.15677,6.09507c-0.05076,0.64869 -0.36833,1.23184 -1.23184,1.23184c-1.75932,0 -1.41166,-6.21556 -1.37415,-7.1376c0,-0.02289 0.00063,-0.04564 0.00186,-0.06823c0.03541,-0.64859 0.57255,-1.16362 1.22998,-1.16362c0.40087,0 0.75703,0.19149 0.98198,0.48799c0.03672,0.03792 0.06903,0.08021 0.09588,0.12793z" fill="#ffffff" stroke="none" stroke-width="0.5"/><path d="M199.57167,184.57152c1.90678,-0.02294 3.81487,0.01146 5.71997,0.09478c0.05812,0.00096 0.11541,0.00526 0.17167,0.01272c0.26824,0.02916 0.44579,0.09782 0.57821,0.20586c0.42962,0.26471 0.71261,0.74276 0.70364,1.28391c-0.01321,0.79719 -0.65512,1.43653 -1.44549,1.45339c-0.01893,0.0004 -0.03793,0.00045 -0.05702,0.00013v0c-2.15405,0.02276 -4.95813,1.25648 -6.45591,-0.29178c-0.97353,-1.00633 -0.85673,-2.73928 0.78493,-2.75903z" data-paper-data="{&quot;index&quot;:null}" fill="#ffffff" stroke="#898989" stroke-width="3.5"/><path d="M200.17069,184.57152c1.90678,-0.02294 3.81487,0.01146 5.71997,0.09478c0.05812,0.00096 0.11541,0.00526 0.17167,0.01272c0.26824,0.02916 0.44579,0.09782 0.57821,0.20586c0.42962,0.26471 0.71261,0.74276 0.70364,1.28391c-0.01321,0.79719 -0.65512,1.43653 -1.44549,1.45339c-0.01893,0.0004 -0.03793,0.00045 -0.05702,0.00013v0c-2.15405,0.02276 -4.95813,1.25648 -6.45591,-0.29178c-0.97353,-1.00633 -0.85673,-2.73928 0.78493,-2.75903z" data-paper-data="{&quot;index&quot;:null}" fill="#ffffff" stroke="none" stroke-width="0.5"/><path d="M274.05821,184.18032c1.90678,-0.02294 3.81487,0.01146 5.71997,0.09478c0.05812,0.00096 0.11541,0.00526 0.17167,0.01272c0.26824,0.02916 0.44579,0.09782 0.57821,0.20586c0.42962,0.26471 0.71261,0.74276 0.70364,1.28391c-0.01321,0.79719 -0.65512,1.43653 -1.44549,1.45339c-0.01893,0.0004 -0.03793,0.00045 -0.05702,0.00013v0c-2.15405,0.02276 -4.95813,1.25648 -6.45591,-0.29178c-0.97353,-1.00633 -0.85673,-2.73928 0.78493,-2.75903z" data-paper-data="{&quot;index&quot;:null}" fill="#ffffff" stroke="#898989" stroke-width="3.5"/><path d="M274.65723,184.18032c1.90678,-0.02294 3.81487,0.01146 5.71997,0.09478c0.05812,0.00096 0.11541,0.00526 0.17167,0.01272c0.26824,0.02916 0.44579,0.09782 0.57821,0.20586c0.42962,0.26471 0.71261,0.74276 0.70364,1.28391c-0.01321,0.79719 -0.65512,1.43653 -1.44549,1.45339c-0.01893,0.0004 -0.03793,0.00045 -0.05702,0.00013v0c-2.15405,0.02276 -4.95813,1.25648 -6.45591,-0.29178c-0.97353,-1.00633 -0.85673,-2.73928 0.78493,-2.75903z" data-paper-data="{&quot;index&quot;:null}" fill="#ffffff" stroke="none" stroke-width="0.5"/></g></g></svg>