<svg version="1.1" xmlns="http://www.w3.org/2000/svg" xmlns:xlink="http://www.w3.org/1999/xlink" width="49.00674" height="56.55686" viewBox="0,0,49.00674,56.55686"><defs><linearGradient x1="241.39865" y1="172.05625" x2="241.39865" y2="205.58006" gradientUnits="userSpaceOnUse" id="color-1"><stop offset="0" stop-color="#ffee00"/><stop offset="1" stop-color="#ffad00"/></linearGradient><linearGradient x1="236.00754" y1="192.1235" x2="236.00754" y2="193.23959" gradientUnits="userSpaceOnUse" id="color-2"><stop offset="0" stop-color="#ffbd00"/><stop offset="1" stop-color="#ffb700"/></linearGradient><linearGradient x1="245.13218" y1="192.36428" x2="245.13218" y2="193.48038" gradientUnits="userSpaceOnUse" id="color-3"><stop offset="0" stop-color="#ffbd00"/><stop offset="1" stop-color="#ffb700"/></linearGradient><linearGradient x1="240.75427" y1="185.72609" x2="240.75427" y2="194.62846" gradientUnits="userSpaceOnUse" id="color-4"><stop offset="0" stop-color="#ffee00"/><stop offset="1" stop-color="#ffad00"/></linearGradient><linearGradient x1="236.00754" y1="192.1235" x2="236.00754" y2="193.23959" gradientUnits="userSpaceOnUse" id="color-5"><stop offset="0" stop-color="#ffbd00"/><stop offset="1" stop-color="#ffb700"/></linearGradient><linearGradient x1="245.13218" y1="192.36428" x2="245.13218" y2="193.48038" gradientUnits="userSpaceOnUse" id="color-6"><stop offset="0" stop-color="#ffbd00"/><stop offset="1" stop-color="#ffb700"/></linearGradient><linearGradient x1="241.10469" y1="185.65601" x2="241.10469" y2="194.55838" gradientUnits="userSpaceOnUse" id="color-7"><stop offset="0" stop-color="#ffee00"/><stop offset="1" stop-color="#ffad00"/></linearGradient></defs><g transform="translate(-216.89527,-152.0232)"><g data-paper-data="{&quot;isPaintingLayer&quot;:true}" fill-rule="nonzero" stroke-linejoin="miter" stroke-miterlimit="10" stroke-dasharray="" stroke-dashoffset="0" style="mix-blend-mode: normal"><path d="M219.89528,197.19911c0,-6.46696 0,-14.87428 0,-18.33333c0,-3.01664 1.08798,-6.80952 2.35193,-6.80952c4.10942,0 26.65323,0 36.28693,0c2.68557,0 4.36787,4.13621 4.36787,7.33333c0,3.65285 -0.168,11.41416 -0.168,17.80952c0,4.18291 -1.44586,8.38095 -4.03188,8.38095c-9.30562,0 -31.19958,0 -35.78295,0c-1.65838,0 -3.02391,-3.67722 -3.02391,-8.38095z" fill="url(#color-1)" stroke="#bf8600" stroke-width="6" stroke-linecap="butt"/><text transform="translate(219.04737,173.7732) scale(0.5,0.5)" font-size="40" xml:space="preserve" fill="#bf8600" fill-rule="nonzero" stroke="none" stroke-width="1" stroke-linecap="butt" stroke-linejoin="miter" stroke-miterlimit="10" stroke-dasharray="" stroke-dashoffset="0" font-family="Sans Serif" font-weight="normal" text-anchor="start" style="mix-blend-mode: normal"><tspan x="0" dy="0"> </tspan></text><path d="M236.80109,190.56645c0,-2.30177 1.86595,-4.16772 4.16772,-4.16772c2.30177,0 4.16772,1.86595 4.16772,4.16772c0,2.30177 -1.86595,4.16772 -4.16772,4.16772c-2.30177,0 -4.16772,-1.86595 -4.16772,-4.16772z" fill="#9966ff" stroke="#000000" stroke-width="2" stroke-linecap="butt"/><path d="M241.73622,190.56645h3.14837" fill="none" stroke="#000000" stroke-width="2" stroke-linecap="round"/><path d="M234.0109,190.56644c0,-3.84274 3.11516,-6.9579 6.9579,-6.9579c3.84274,0 6.9579,3.11516 6.9579,6.9579c0,3.84274 -3.11516,6.9579 -6.9579,6.9579c-3.84274,0 -6.9579,-3.11516 -6.9579,-6.9579z" fill="none" stroke="none" stroke-width="0" stroke-linecap="butt"/><g stroke="#bf8600" stroke-width="2" stroke-linecap="butt"><g><path d="M235.09906,192.12568c0.60033,-0.00722 1.20106,0.00361 1.80086,0.02984c0.0183,0.0003 0.03634,0.00166 0.05405,0.004c0.08445,0.00918 0.14035,0.0308 0.18204,0.06481c0.13526,0.08334 0.22436,0.23385 0.22153,0.40422c-0.00416,0.25099 -0.20626,0.45227 -0.45509,0.45758c-0.00596,0.00013 -0.01194,0.00014 -0.01795,0.00004v0c-0.67818,0.00717 -1.561,0.39559 -2.03256,-0.09186c-0.3065,-0.31683 -0.26973,-0.86243 0.24713,-0.86865z" data-paper-data="{&quot;index&quot;:null}" fill="url(#color-2)"/><path d="M246.04065,192.36647c0.51685,0.00622 0.55363,0.55181 0.24713,0.86865c-0.47156,0.48745 -1.35439,0.09903 -2.03256,0.09186v0c-0.00601,0.0001 -0.01199,0.00009 -0.01795,-0.00004c-0.24883,-0.00531 -0.45094,-0.20659 -0.45509,-0.45758c-0.00282,-0.17037 0.08627,-0.32088 0.22153,-0.40423c0.04169,-0.03401 0.09759,-0.05563 0.18204,-0.06481c0.01771,-0.00235 0.03575,-0.0037 0.05405,-0.004c0.5998,-0.02623 1.20053,-0.03706 1.80086,-0.02984z" data-paper-data="{&quot;index&quot;:null}" fill="url(#color-3)"/></g><g fill="#ffae00"><path d="M239.50331,196.11038c-0.01478,0.51668 -0.56091,0.54441 -0.87262,0.2327c-0.47957,-0.47957 -0.07658,-1.35584 -0.05818,-2.0338v0c0,-0.00601 0.00011,-0.01199 0.00034,-0.01795c0.00943,-0.24871 0.21404,-0.44745 0.46506,-0.44745c0.1704,0 0.31941,0.09158 0.4005,0.2282c0.03332,0.04224 0.05401,0.0985 0.06179,0.18309c0.00206,0.01775 0.00311,0.03581 0.00311,0.05411c0.01629,0.60015 0.01716,1.20098 0,1.80111z"/><path d="M242.53658,193.64646c0.01045,0.01858 0.02019,0.0424 0.02926,0.07085c0.01071,0.02886 0.01863,0.05908 0.02345,0.09032c0.11116,0.51664 0.09462,1.85045 0.05923,2.30275c-0.01918,0.24508 -0.13915,0.4654 -0.4654,0.4654c-0.66468,0 -0.53333,-2.34827 -0.51916,-2.69662c0,-0.00865 0.00024,-0.01724 0.0007,-0.02578c0.01338,-0.24504 0.21631,-0.43962 0.46469,-0.43962c0.15145,0 0.28601,0.07235 0.371,0.18437c0.01387,0.01433 0.02608,0.0303 0.03623,0.04833z"/></g><path d="M237.80576,186.10823c3.56729,-1.23418 8.97376,0.59351 8.39304,4.43769c-0.58071,3.84417 -6.12966,5.37716 -9.49082,2.82929c-2.46832,-1.87108 -1.43473,-5.25004 0.6145,-6.93415z" fill="url(#color-4)"/></g><g stroke="none" stroke-width="0.5" stroke-linecap="butt"><path d="M235.09906,192.12568c0.60033,-0.00722 1.20106,0.00361 1.80086,0.02984c0.0183,0.0003 0.03634,0.00166 0.05405,0.004c0.08445,0.00918 0.14035,0.0308 0.18204,0.06481c0.13526,0.08334 0.22436,0.23385 0.22153,0.40422c-0.00416,0.25099 -0.20626,0.45227 -0.45509,0.45758c-0.00596,0.00013 -0.01194,0.00014 -0.01795,0.00004v0c-0.67818,0.00717 -1.561,0.39559 -2.03256,-0.09186c-0.3065,-0.31683 -0.26973,-0.86243 0.24713,-0.86865z" data-paper-data="{&quot;index&quot;:null}" fill="url(#color-5)"/><path d="M246.04065,192.36647c0.51685,0.00622 0.55363,0.55181 0.24713,0.86865c-0.47156,0.48745 -1.35439,0.09903 -2.03256,0.09186v0c-0.00601,0.0001 -0.01199,0.00009 -0.01795,-0.00004c-0.24883,-0.00531 -0.45094,-0.20659 -0.45509,-0.45758c-0.00282,-0.17037 0.08627,-0.32088 0.22153,-0.40423c0.04169,-0.03401 0.09759,-0.05563 0.18204,-0.06481c0.01771,-0.00235 0.03575,-0.0037 0.05405,-0.004c0.5998,-0.02623 1.20053,-0.03706 1.80086,-0.02984z" data-paper-data="{&quot;index&quot;:null}" fill="url(#color-6)"/></g><g fill="#ffae00" stroke="none" stroke-width="0.5" stroke-linecap="butt"><path d="M239.50331,196.11038c-0.01478,0.51668 -0.56091,0.54441 -0.87262,0.2327c-0.47957,-0.47957 -0.07658,-1.35584 -0.05818,-2.0338v0c0,-0.00601 0.00011,-0.01199 0.00034,-0.01795c0.00943,-0.24871 0.21404,-0.44745 0.46506,-0.44745c0.1704,0 0.31941,0.09158 0.4005,0.2282c0.03332,0.04224 0.05401,0.0985 0.06179,0.18309c0.00206,0.01775 0.00311,0.03581 0.00311,0.05411c0.01629,0.60015 0.01716,1.20098 0,1.80111z"/><path d="M242.53658,193.64646c0.01045,0.01858 0.02019,0.0424 0.02926,0.07085c0.01071,0.02886 0.01863,0.05908 0.02345,0.09032c0.11116,0.51664 0.09462,1.85045 0.05923,2.30275c-0.01918,0.24508 -0.13915,0.4654 -0.4654,0.4654c-0.66468,0 -0.53333,-2.34827 -0.51916,-2.69662c0,-0.00865 0.00024,-0.01724 0.0007,-0.02578c0.01338,-0.24504 0.21631,-0.43962 0.46469,-0.43962c0.15145,0 0.28601,0.07235 0.371,0.18437c0.01387,0.01433 0.02608,0.0303 0.03623,0.04833z"/></g><path d="M237.67291,186.37098c0.09577,-0.13869 0.23027,-0.20804 0.23027,-0.20804l0.14024,-0.06917c0.01866,-0.01115 0.05196,-0.02948 0.09551,-0.04711l0.01726,-0.00851c3.56729,-1.23418 8.97376,0.59351 8.39304,4.43769c-0.58071,3.84417 -6.12966,5.37716 -9.49082,2.82929c-2.46832,-1.87108 -1.43473,-5.25004 0.6145,-6.93415z" fill="url(#color-7)" stroke="none" stroke-width="0.5" stroke-linecap="butt"/><path d="M240.19876,189.03162c0,-0.17992 0.14585,-0.32578 0.32578,-0.32578c0.17992,0 0.32578,0.14585 0.32578,0.32578c0,0.17992 -0.14585,0.32578 -0.32578,0.32578c-0.17992,0 -0.32578,-0.14585 -0.32578,-0.32578z" fill="#000000" stroke="none" stroke-width="0.5" stroke-linecap="butt"/><path d="M240.99347,188.27475c0,-0.17992 0.14585,-0.32578 0.32578,-0.32578c0.17992,0 0.32578,0.14585 0.32578,0.32578c0,0.17992 -0.14585,0.32578 -0.32578,0.32578c-0.17992,0 -0.32578,-0.14585 -0.32578,-0.32578z" fill="#000000" stroke="none" stroke-width="0.5" stroke-linecap="butt"/><path d="M243.07365,187.8021c0.32549,0.01359 0.3119,0.33909 0.3119,0.33909l-0.01219,0.27875c-0.05444,0.52079 -0.15842,1.37144 -0.52264,1.7964c-0.79438,0.92686 -2.76361,0.56449 -3.672,0.004c0,0 -0.27626,-0.17266 -0.1036,-0.44892c0.17266,-0.27626 0.44892,-0.1036 0.44892,-0.1036c0.5744,0.36475 1.20969,0.38864 1.88002,0.40101c0.35791,0.0066 0.69018,0.06984 0.94166,-0.2642c0.26712,-0.35481 0.34031,-1.03799 0.37932,-1.44953l0.00952,-0.2411c0,0 0.01359,-0.32549 0.33909,-0.3119z" fill="#000000" stroke="none" stroke-width="0.5" stroke-linecap="butt"/><g stroke="none" stroke-width="0" stroke-linecap="butt"><g><path d="M250.10253,185.4763c0,2.67836 -1.58071,5.03479 -3.97302,6.39861c-0.46933,0.26756 0.44626,-0.84009 0.36561,-2.26969c-0.02038,-0.3613 -0.22645,-0.91661 -0.47027,-1.31779c-0.27343,-0.44989 -0.59432,-0.74203 -0.75404,-1.06108c-0.35778,-0.71472 -0.83313,-1.37817 -1.55347,-1.58346c-0.86336,-0.24605 -1.98687,0.04366 -2.44541,0.04366c-0.09092,0 -1.23771,-0.69013 -1.33697,-0.66952c-0.62379,0.12952 -1.4436,0.60171 -2.20129,1.26115c-0.14869,0.12941 -0.46294,-0.20818 -0.50704,-0.01181c-0.1283,0.57133 -0.69002,0.95145 -1.0202,1.43948c-0.24673,0.36469 -0.27133,0.85153 -0.39227,1.18804c-0.4608,1.28214 0.55649,2.90889 -0.03768,2.48219c-1.03336,-0.74209 -1.83639,-1.75668 -2.53657,-2.83404c-0.2839,-0.43683 -0.78513,-0.82541 -0.91416,-1.30129c-0.15357,-0.56638 0.25575,-1.15713 0.25575,-1.76444c0,-0.6374 -0.2609,-1.67707 -0.09222,-2.26897c0.15863,-0.55661 0.73768,-0.6686 1.02769,-1.16946c0.57854,-0.99918 1.19112,-2.43313 2.40003,-2.56015c1.80156,-0.1893 3.37636,-1.64058 5.42501,-1.64058c4.8383,0 8.76051,3.42017 8.76051,7.63917z" fill="#ff6666"/><path d="M250.13487,185.64881c0,0.44134 0.37758,0.87393 0.29519,1.29478c-0.12445,0.63562 -0.75945,1.24446 -1.05214,1.81617c-0.68962,1.34702 -1.81332,2.48798 -3.21607,3.28766c-0.46933,0.26756 0.44626,-0.84009 0.36561,-2.26969c-0.02038,-0.3613 -0.22645,-0.91661 -0.47027,-1.31778c-0.27343,-0.44989 -0.59432,-0.74203 -0.75404,-1.06109c-0.35778,-0.71472 4.83171,-5.96905 4.83171,-1.75005z" fill="#85ff66"/><path d="M245.37324,187.32877c-0.35778,-0.71472 -0.83313,-1.37817 -1.55347,-1.58346c-0.86336,-0.24605 -1.98687,0.04366 -2.44541,0.04366c-0.09092,0 -3.94184,-7.84942 0.07008,-7.84942c0.70068,0 1.78263,-0.33524 2.89465,-0.04008c0.64195,0.17039 1.29392,0.83124 1.88834,1.1655c0.72837,0.40958 2.65275,1.14523 3.28848,1.8139c0.9313,0.97956 0.46253,1.97603 0.65649,2.91545c0.43506,2.10718 -4.63945,3.8535 -4.79916,3.53445z" fill="#fff366"/></g><path d="M241.19868,184.92966c-0.02807,0.83488 -0.79841,0.08198 -1.46387,0.37981c-0.63721,0.28518 -1.30095,1.00784 -1.75683,1.00784c-0.96766,0 -3.5042,-3.14841 -3.5042,-4.87085c0,-0.90694 1.38333,-1.85947 2.83448,-2.55814c0.54633,-0.26303 1.10228,-0.91059 1.59764,-1.08568c0.68775,-0.24309 1.25871,0.03449 1.52504,0.03449c0.96766,0 0.76986,7.02993 0.76775,7.09253z" fill="#ffb066"/></g><path d="M242.67362,189.57622c0,0.44512 -0.39222,0.80597 -0.87605,0.80597c-0.48383,0 -0.87605,-0.36084 -0.87605,-0.80597c0,-0.44512 0.39222,-0.80597 0.87605,-0.80597c0.48383,0 0.87605,0.36084 0.87605,0.80597z" fill="#ff0000" stroke="none" stroke-width="0" stroke-linecap="butt"/></g></g></svg>