<svg version="1.1" xmlns="http://www.w3.org/2000/svg" xmlns:xlink="http://www.w3.org/1999/xlink" width="49.00674" height="56.55686" viewBox="0,0,49.00674,56.55686"><defs><linearGradient x1="241.39865" y1="172.05625" x2="241.39865" y2="205.58006" gradientUnits="userSpaceOnUse" id="color-1"><stop offset="0" stop-color="#ffee00"/><stop offset="1" stop-color="#ffad00"/></linearGradient><radialGradient cx="241.96634" cy="189.48827" r="20.10964" gradientUnits="userSpaceOnUse" id="color-2"><stop offset="0" stop-color="#bf8600" stop-opacity="0"/><stop offset="1" stop-color="#bf8600"/></radialGradient></defs><g transform="translate(-216.89527,-152.0232)"><g data-paper-data="{&quot;isPaintingLayer&quot;:true}" fill-rule="nonzero" stroke-linecap="butt" stroke-linejoin="miter" stroke-miterlimit="10" stroke-dasharray="" stroke-dashoffset="0" style="mix-blend-mode: normal"><path d="M219.89528,197.19911c0,-6.46696 0,-14.87428 0,-18.33333c0,-3.01664 1.08798,-6.80952 2.35193,-6.80952c4.10942,0 26.65323,0 36.28693,0c2.68557,0 4.36787,4.13621 4.36787,7.33333c0,3.65285 -0.168,11.41416 -0.168,17.80952c0,4.18291 -1.44586,8.38095 -4.03188,8.38095c-9.30562,0 -31.19958,0 -35.78295,0c-1.65838,0 -3.02391,-3.67722 -3.02391,-8.38095z" fill="url(#color-1)" stroke="#bf8600" stroke-width="6"/><text transform="translate(219.04737,173.7732) scale(0.5,0.5)" font-size="40" xml:space="preserve" fill="#bf8600" fill-rule="nonzero" stroke="none" stroke-width="1" stroke-linecap="butt" stroke-linejoin="miter" stroke-miterlimit="10" stroke-dasharray="" stroke-dashoffset="0" font-family="Sans Serif" font-weight="normal" text-anchor="start" style="mix-blend-mode: normal"><tspan x="0" dy="0"> </tspan></text><path d="M235.26415,196.11208v-16.10066h12.4992v16.10066z" fill="#000000" stroke="#051717" stroke-width="0.5"/><path d="M253.90703,193.35802c0,2.80805 -5.83321,5.08442 -13.02883,5.08442c-7.19562,0 -13.02883,-2.27637 -13.02883,-5.08442c0,-2.80805 5.83321,-5.08442 13.02883,-5.08442c7.19562,0 13.02883,2.27637 13.02883,5.08442z" fill="#000000" stroke="none" stroke-width="0"/><path d="M221.85671,197.32601c0,-6.04781 0,-13.91021 0,-17.14506c0,-2.82112 1.01746,-6.36816 2.19949,-6.36816c3.84307,0 24.92571,0 33.93501,0c2.51151,0 4.08477,3.86812 4.08477,6.85802c0,3.41609 -0.15711,10.67436 -0.15711,16.6552c0,3.9118 -1.35215,7.83774 -3.77056,7.83774c-8.70248,0 -29.17739,0 -33.46369,0c-1.55089,0 -2.82792,-3.43888 -2.82792,-7.83774z" fill="url(#color-2)" stroke="none" stroke-width="0"/></g></g></svg>