<svg version="1.1" xmlns="http://www.w3.org/2000/svg" xmlns:xlink="http://www.w3.org/1999/xlink" width="307.51695" height="47.80849" viewBox="0,0,307.51695,47.80849"><g transform="translate(-83.06061,-114.48712)"><g data-paper-data="{&quot;isPaintingLayer&quot;:true}" fill-rule="nonzero" stroke-linejoin="miter" stroke-miterlimit="10" stroke-dasharray="" stroke-dashoffset="0" style="mix-blend-mode: normal"><path d="M118.73294,147.7485l-0.51038,-7.23756" fill="none" stroke="#985100" stroke-width="2.5" stroke-linecap="round"/><path d="M101.63528,139.73549v8.2715" fill="none" stroke="#985100" stroke-width="2.5" stroke-linecap="round"/><path d="M119.49851,139.60624c0,2.06998 -3.99882,3.74802 -8.93161,3.74802c-4.9328,0 -8.93162,-1.67805 -8.93162,-3.74802c0,-2.06998 3.99883,-3.74802 8.93162,-3.74802c4.9328,0 8.93161,1.67805 8.93161,3.74802z" fill="#fff000" stroke="#000000" stroke-width="0" stroke-linecap="butt"/><path d="M107.24943,143.35428l-0.25519,5.16968" fill="none" stroke="#985100" stroke-width="2.5" stroke-linecap="round"/><path d="M112.09803,143.61276l0.25519,4.91121" fill="none" stroke="#985100" stroke-width="2.5" stroke-linecap="round"/><path d="M369.80396,147.78273l-0.35938,-5.09615" fill="none" stroke="#985100" stroke-width="2.5" stroke-linecap="round"/><path d="M357.76506,142.14056v5.82417" fill="none" stroke="#985100" stroke-width="2.5" stroke-linecap="round"/><path d="M370.343,142.04955c0,1.45752 -2.81566,2.63908 -6.28897,2.63908c-3.47331,0 -6.28897,-1.18156 -6.28897,-2.63908c0,-1.45752 2.81567,-2.63908 6.28898,-2.63908c3.47331,0 6.28897,1.18156 6.28897,2.63908z" fill="#fff000" stroke="#000000" stroke-width="0" stroke-linecap="butt"/><path d="M361.71813,144.68864l-0.17969,3.6401" fill="none" stroke="#985100" stroke-width="2.5" stroke-linecap="round"/><path d="M365.13214,144.87063l0.17969,3.4581" fill="none" stroke="#985100" stroke-width="2.5" stroke-linecap="round"/><path d="M84.08322,117.54269c0,0 11.61662,-1.93226 20.98471,-2.03965c-0.06999,0.21499 0.01073,3.74522 0.01073,4.09597c0,0.59009 0,1.20873 0,1.82742c-1.53936,0.21936 -2.84297,0.59085 -3.7018,0.99724c-5.49838,2.60179 -6.72554,9.50775 -6.72554,11.07856c0,7.06087 5.88594,12.60905 13.28811,12.82704c0.15027,0.00442 44.31759,0.00666 44.31759,0.00666l0.14822,13.92947l-67.22271,-0.09789z" data-paper-data="{&quot;index&quot;:null}" fill="#66ff85" stroke="#3c964e" stroke-width="2" stroke-linecap="butt"/><path d="M150.53135,136.25761c0,0 -8.35308,0.39548 -15.15098,-2.69483c-6.67132,-3.03277 -13.71225,-8.4037 -20.48377,-11.01593c0.00151,-0.09393 0.0068,-0.18829 0.01676,-0.28319c0.03166,-0.30121 0.75915,-4.59087 0.70522,-5.11256c11.26368,3.8634 34.91277,19.10651 34.91277,19.10651z" data-paper-data="{&quot;index&quot;:null}" fill="#66ff85" stroke="#3c964e" stroke-width="2" stroke-linecap="butt"/><path d="M105.09164,127.77898c0.00031,1.21577 0.0105,2.43159 0.01297,3.64736c-0.88359,-0.01188 -1.76699,-0.01717 -2.64933,0.02182c-0.09262,0 -0.18402,0.00489 -0.27396,0.0144c0.57014,-1.48338 1.59292,-2.76109 2.91032,-3.68359z" data-paper-data="{&quot;index&quot;:null}" fill="#66ff85" stroke="#3c964e" stroke-width="2" stroke-linecap="butt"/><path d="M104.96025,137.91469c-0.01667,0.61102 -0.20104,1.50349 -0.25505,2.38825c-1.10084,-0.86893 -1.96355,-1.9989 -2.48192,-3.2894c0.11522,0.01846 0.23284,0.03811 0.35248,0.06024c0.27219,0.05035 0.53426,0.14079 0.81741,0.14079c0.52651,0 1.05297,-0.01411 1.57945,-0.01465c-0.00201,0.23828 -0.00586,0.47654 -0.01237,0.71476z" data-paper-data="{&quot;index&quot;:null}" fill="#66ff85" stroke="#3c964e" stroke-width="2" stroke-linecap="butt"/><g data-paper-data="{&quot;index&quot;:null}" fill="#66ff85" stroke="#3c964e" stroke-width="2" stroke-linecap="butt"><path d="M114.03997,127.92186c1.86172,1.02108 3.27172,2.69794 3.87705,4.69659c-1.32703,-0.29315 -2.72382,-0.05016 -4.08971,-0.03338c0.11756,-2.26842 0.2168,-4.24821 0.21266,-4.6632z" data-paper-data="{&quot;index&quot;:null}"/><path d="M113.31325,142.06668c0.04178,-0.28119 0.06131,-0.57512 0.06645,-0.87718c0.05399,-0.28636 0.07928,-0.57842 0.07928,-0.863c0,-0.32805 0.03731,-1.21131 0.09303,-2.3659c0.44435,-0.00335 0.88871,-0.00533 1.3331,-0.00188c0.39806,0.00309 0.82713,0.14441 1.21709,0.21678c0.38836,0.07208 0.9236,0.04865 1.33728,0.0391c-0.8491,1.70061 -2.31578,3.07102 -4.12622,3.85208z" data-paper-data="{&quot;index&quot;:null}"/></g><path d="M84.08322,117.54269c0,0 12.36688,-1.77585 22.10694,-1.66089c-0.06713,0.68634 0.15526,5.32539 0.15509,5.48305c-2.42273,0.09877 -3.7456,0.48022 -4.96838,1.05882c-5.49838,2.60179 -6.72554,9.50775 -6.72554,11.07856c0,7.06087 5.88594,12.60905 13.28811,12.82704c0.15027,0.00442 44.31759,0.00666 44.31759,0.00666l0.14822,13.92947l-67.22271,-0.09789z" data-paper-data="{&quot;index&quot;:null}" fill="#66ff85" stroke="#3c964e" stroke-width="2" stroke-linecap="butt"/><path d="M112.96838,121.88376c-0.0024,-0.39006 -0.18947,-5.13767 -0.12266,-5.49046c9.48598,1.67784 44.83149,19.30599 44.83149,19.30599c0,0 -1.68916,2.30844 -6.71109,2.1144c-4.57285,-0.1767 -12.34589,-2.77808 -15.58575,-4.25092c-7.14131,-3.24643 -22.2441,-11.63071 -22.41199,-11.67902z" data-paper-data="{&quot;index&quot;:null}" fill="#66ff85" stroke="#3c964e" stroke-width="2" stroke-linecap="butt"/><path d="M113.36758,141.90231c0.06535,-1.13973 -0.66482,-13.6754 -0.6768,-14.10109c-0.01123,-0.39918 -0.01429,-0.79846 -0.01362,-1.1978c3.38375,1.032 5.83179,4.0361 5.83179,7.58125c0,3.29913 -2.12008,6.50896 -5.14138,7.71764z" data-paper-data="{&quot;index&quot;:null}" fill="#66ff85" stroke="#3c964e" stroke-width="2" stroke-linecap="butt"/><path d="M107.02861,126.76529c-0.1363,0.76817 -0.19968,14.27409 -0.10873,14.79769c-3.07529,-1.18538 -5.24303,-4.0423 -5.24303,-7.37831c0,-3.37519 2.21896,-6.25997 5.35176,-7.41938z" data-paper-data="{&quot;index&quot;:null}" fill="#66ff85" stroke="#3c964e" stroke-width="2" stroke-linecap="butt"/><path d="M152.72506,159.75023v-13.26537c0,0 8.6975,0 17.17862,0c3.93927,0 10.78454,-8.01933 10.78454,-8.01933c0,0 6.92131,8.01933 10.89293,8.01933c8.39243,0 16.93476,0 16.93476,0v13.26537z" fill="#66ff85" stroke="#3f9e52" stroke-width="2" stroke-linecap="butt"/><path d="M209.62897,160.10744v-12.9766c0,0 3.3477,0 6.59714,0c3.54757,0 12.09717,3.62905 21.09087,3.62905c7.6608,0 15.67124,-3.62905 20.89094,-3.62905c3.66028,0 5.9974,0 5.9974,0v12.9766z" fill="#66ff85" stroke="#48b55e" stroke-width="2" stroke-linecap="butt"/><path d="M227.19181,134.35749l-4.07099,-4.03683h2.48219l1.83782,1.67199h20.3927l1.87315,-1.67199h2.66306l-4.20638,4.05148z" fill="#66ff85" stroke="#43a757" stroke-width="2" stroke-linecap="butt"/><path d="M264.37139,160.06414v-13.26537c0,0 8.6975,0 17.17862,0c3.93927,0 10.78454,-8.01933 10.78454,-8.01933c0,0 6.92131,8.01933 10.89293,8.01933c8.39243,0 16.93476,0 16.93476,0v13.26537z" fill="#66ff85" stroke="#3f9e52" stroke-width="2" stroke-linecap="butt"/><path d="M388.45565,161.19625l-67.22271,0.09789l0.14822,-13.92947c0,0 44.16732,-0.00223 44.31759,-0.00666c7.40217,-0.218 13.28811,-5.76617 13.28811,-12.82704c0,-1.57081 -1.22716,-8.47677 -6.72554,-11.07856c-0.85883,-0.40639 -2.16244,-0.77788 -3.7018,-0.99724c0,-0.61869 0,-1.23733 0,-1.82742c0,-0.35075 0.08072,-3.88098 0.01073,-4.09597c9.36808,0.1074 20.98471,2.03965 20.98471,2.03965z" data-paper-data="{&quot;index&quot;:null}" fill="#66ff85" stroke="#3c964e" stroke-width="2" stroke-linecap="butt"/><path d="M358.0196,118.17985c-0.05394,0.52169 0.67356,4.81135 0.70522,5.11256c0.00997,0.0949 0.01525,0.18925 0.01676,0.28319c-6.77152,2.61223 -13.81245,7.98316 -20.48377,11.01593c-6.79789,3.09031 -15.15098,2.69483 -15.15098,2.69483c0,0 23.64909,-15.24311 34.91277,-19.10651z" data-paper-data="{&quot;index&quot;:null}" fill="#66ff85" stroke="#3c964e" stroke-width="2" stroke-linecap="butt"/><path d="M368.54654,128.80773c1.3174,0.9225 2.34018,2.20021 2.91032,3.68359c-0.08994,-0.00951 -0.18134,-0.0144 -0.27396,-0.0144c-0.88234,-0.039 -1.76574,-0.0337 -2.64933,-0.02182c0.00246,-1.21577 0.01265,-2.43159 0.01297,-3.64736z" data-paper-data="{&quot;index&quot;:null}" fill="#66ff85" stroke="#3c964e" stroke-width="2" stroke-linecap="butt"/><path d="M368.67791,138.94345c-0.0065,-0.23822 -0.01036,-0.47648 -0.01237,-0.71476c0.52649,0.00054 1.05295,0.01465 1.57945,0.01465c0.28315,0 0.54523,-0.09044 0.81741,-0.14079c0.11964,-0.02213 0.23726,-0.04178 0.35248,-0.06024c-0.51837,1.2905 -1.38108,2.42046 -2.48192,3.2894c-0.05401,-0.88476 -0.23837,-1.77723 -0.25505,-2.38825z" data-paper-data="{&quot;index&quot;:null}" fill="#66ff85" stroke="#3c964e" stroke-width="2" stroke-linecap="butt"/><g data-paper-data="{&quot;index&quot;:null}" fill="#66ff85" stroke="#3c964e" stroke-width="2" stroke-linecap="butt"><path d="M359.81087,133.61382c-1.36589,-0.01677 -2.76269,-0.25977 -4.08971,0.03338c0.60533,-1.99865 2.01533,-3.6755 3.87705,-4.69659c-0.00413,0.41499 0.0951,2.39478 0.21266,4.6632z" data-paper-data="{&quot;index&quot;:null}"/><path d="M360.32492,143.09543c-1.81044,-0.78105 -3.27712,-2.15147 -4.12622,-3.85208c0.41368,0.00955 0.94892,0.03298 1.33728,-0.0391c0.38995,-0.07237 0.81903,-0.21369 1.21709,-0.21678c0.44439,-0.00345 0.88875,-0.00147 1.3331,0.00188c0.05572,1.15459 0.09303,2.03785 0.09303,2.3659c0,0.28457 0.02529,0.57664 0.07928,0.863c0.00514,0.30206 0.02467,0.59599 0.06645,0.87718z" data-paper-data="{&quot;index&quot;:null}"/></g><path d="M388.45565,161.19625l-67.22271,0.09789l0.14822,-13.92947c0,0 44.16732,-0.00223 44.31759,-0.00666c7.40217,-0.218 13.28811,-5.76617 13.28811,-12.82704c0,-1.57081 -1.22716,-8.47677 -6.72554,-11.07856c-1.22278,-0.57861 -2.54564,-0.96005 -4.96838,-1.05882c-0.00018,-0.15766 0.22222,-4.79671 0.15509,-5.48305c9.74006,-0.11495 22.10694,1.66089 22.10694,1.66089z" data-paper-data="{&quot;index&quot;:null}" fill="#66ff85" stroke="#3c964e" stroke-width="2" stroke-linecap="butt"/><path d="M338.2578,134.59153c-3.23986,1.47283 -11.0129,4.07422 -15.58575,4.25092c-5.02193,0.19404 -6.71109,-2.1144 -6.71109,-2.1144c0,0 35.34551,-17.62815 44.83149,-19.30599c0.06681,0.35279 -0.12027,5.1004 -0.12266,5.49046c-0.16788,0.04831 -15.27068,8.43259 -22.41199,11.67902z" data-paper-data="{&quot;index&quot;:null}" fill="#66ff85" stroke="#3c964e" stroke-width="2" stroke-linecap="butt"/><path d="M355.12922,135.21343c0,-3.54515 2.44804,-6.54925 5.83179,-7.58125c0.00067,0.39934 -0.00239,0.79862 -0.01362,1.1978c-0.01198,0.42569 -0.74215,12.96136 -0.6768,14.10109c-3.0213,-1.20868 -5.14138,-4.4185 -5.14138,-7.71764z" data-paper-data="{&quot;index&quot;:null}" fill="#66ff85" stroke="#3c964e" stroke-width="2" stroke-linecap="butt"/><path d="M371.96133,135.21343c0,3.33601 -2.16774,6.19293 -5.24303,7.37831c0.09095,-0.5236 0.02757,-14.02953 -0.10873,-14.79769c3.13281,1.15941 5.35176,4.04419 5.35176,7.41938z" data-paper-data="{&quot;index&quot;:null}" fill="#66ff85" stroke="#3c964e" stroke-width="2" stroke-linecap="butt"/><path d="M204.81077,139.09175l0.51038,7.23756" fill="none" stroke="#985100" stroke-width="2.5" stroke-linecap="round"/><path d="M188.22349,138.31631v8.2715" fill="none" stroke="#985100" stroke-width="2.5" stroke-linecap="round"/><path d="M206.08671,138.18705c0,2.06998 -3.99882,3.74802 -8.93161,3.74802c-4.9328,0 -8.93162,-1.67805 -8.93162,-3.74802c0,-2.06998 3.99883,-3.74802 8.93162,-3.74802c4.9328,0 8.93161,1.67805 8.93161,3.74802z" fill="#fff000" stroke="#000000" stroke-width="0" stroke-linecap="butt"/><path d="M193.83764,141.93509l-0.25519,5.16968" fill="none" stroke="#985100" stroke-width="2.5" stroke-linecap="round"/><path d="M198.94143,147.10478l-0.25519,-4.91121" fill="none" stroke="#985100" stroke-width="2.5" stroke-linecap="round"/><path d="M280.77276,139.28698l0.51038,7.23756" fill="none" stroke="#985100" stroke-width="2.5" stroke-linecap="round"/><path d="M264.18547,146.78302v-8.2715" fill="none" stroke="#985100" stroke-width="2.5" stroke-linecap="round"/><path d="M282.0487,138.38228c0,2.06998 -3.99882,3.74802 -8.93161,3.74802c-4.9328,0 -8.93162,-1.67805 -8.93162,-3.74802c0,-2.06998 3.99883,-3.74802 8.93162,-3.74802c4.9328,0 8.93161,1.67805 8.93161,3.74802z" fill="#fff000" stroke="#000000" stroke-width="0" stroke-linecap="butt"/><path d="M269.54444,147.29999l0.25518,-5.16969" fill="none" stroke="#985100" stroke-width="2.5" stroke-linecap="round"/><path d="M274.64822,142.38879l0.25518,4.91121" fill="none" stroke="#985100" stroke-width="2.5" stroke-linecap="round"/></g></g></svg>