<svg version="1.1" xmlns="http://www.w3.org/2000/svg" xmlns:xlink="http://www.w3.org/1999/xlink" width="516.0469" height="426.86163" viewBox="0,0,516.0469,426.86163"><g transform="translate(3.45344,12.71697)"><g data-paper-data="{&quot;isPaintingLayer&quot;:true}" fill-rule="nonzero" stroke-linecap="butt" stroke-linejoin="miter" stroke-miterlimit="10" stroke-dasharray="" stroke-dashoffset="0" style="mix-blend-mode: normal"><path d="M66.62524,71.25946v-53h44.5v53z" data-paper-data="{&quot;index&quot;:null}" fill="none" stroke="none" stroke-width="0"/><path d="M99.75455,395.81124c0,0 -95.74257,-3.93375 -95.74257,-28.80786c0,-15.55116 -17.7621,-63.54403 4.02054,-91.457c10.12547,-12.9751 61.48155,-6.15125 68.05774,-17.65783c20.72338,-36.26034 24.01468,-14.41294 40.29842,-11.85864c19.10971,2.9976 31.80063,-18.91231 45.41742,-18.91231c11.83533,0 33.95967,16.9786 54.44495,19.70136c6.1446,0.81671 33.40879,-22.04101 68.7654,-48.07258c5.8052,-4.27412 13.54902,-2.89895 19.62189,-7.6234c5.63712,-4.38545 10.80392,-12.44923 16.63591,-17.07258c75.40813,-59.78039 181.76255,-193.92981 189.06125,-185.77129c12.17496,13.60923 -48.35666,393.93637 -48.35666,415.67911c0,25.49561 -125.23229,-8.14702 -125.23229,-8.14702c0,0 -59.74666,-10.80245 -113.42509,-7.08687c-24.21541,1.67614 -50.17189,19.67066 -63.66825,19.67066c-25.24848,0 -59.89866,-12.58375 -59.89866,-12.58375z" fill="#ffffff" stroke="#898989" stroke-width="1.28"/></g></g></svg>