<svg version="1.1" xmlns="http://www.w3.org/2000/svg" xmlns:xlink="http://www.w3.org/1999/xlink" width="50.57138" height="49.26621" viewBox="0,0,50.57138,49.26621"><defs><linearGradient x1="222.4372" y1="183.74391" x2="222.4372" y2="188.04035" gradientUnits="userSpaceOnUse" id="color-1"><stop offset="0" stop-color="#ffbd00"/><stop offset="1" stop-color="#ffb700"/></linearGradient><linearGradient x1="257.56282" y1="184.67083" x2="257.56282" y2="188.96728" gradientUnits="userSpaceOnUse" id="color-2"><stop offset="0" stop-color="#ffbd00"/><stop offset="1" stop-color="#ffb700"/></linearGradient><linearGradient x1="240.7099" y1="159.11689" x2="240.7099" y2="193.38686" gradientUnits="userSpaceOnUse" id="color-3"><stop offset="0" stop-color="#ffee00"/><stop offset="1" stop-color="#ffad00"/></linearGradient><linearGradient x1="222.4372" y1="183.74391" x2="222.4372" y2="188.04035" gradientUnits="userSpaceOnUse" id="color-4"><stop offset="0" stop-color="#ffbd00"/><stop offset="1" stop-color="#ffb700"/></linearGradient><linearGradient x1="257.56282" y1="184.67083" x2="257.56282" y2="188.96728" gradientUnits="userSpaceOnUse" id="color-5"><stop offset="0" stop-color="#ffbd00"/><stop offset="1" stop-color="#ffb700"/></linearGradient><linearGradient x1="240.7099" y1="159.11689" x2="240.7099" y2="193.38686" gradientUnits="userSpaceOnUse" id="color-6"><stop offset="0" stop-color="#ffee00"/><stop offset="1" stop-color="#ffad00"/></linearGradient></defs><g transform="translate(-215.18997,-155.3669)"><g data-paper-data="{&quot;isPaintingLayer&quot;:true}" stroke-linecap="butt" stroke-linejoin="miter" stroke-miterlimit="10" stroke-dasharray="" stroke-dashoffset="0" style="mix-blend-mode: normal"><g fill-rule="nonzero"><g stroke="#bf8600" stroke-width="7.5"><g><path d="M218.93997,183.75233c2.31098,-0.0278 4.62354,0.01389 6.93247,0.11487c0.07044,0.00117 0.13987,0.00638 0.20806,0.01542c0.3251,0.03534 0.54029,0.11856 0.70077,0.24949c0.52068,0.32083 0.86366,0.90021 0.8528,1.55607c-0.01601,0.96618 -0.79399,1.74104 -1.7519,1.76148c-0.02294,0.00049 -0.04597,0.00054 -0.0691,0.00016v0c-2.61066,0.02759 -6.00914,1.52283 -7.82442,-0.35363c-1.17989,-1.21965 -1.03833,-3.31994 0.95131,-3.34388z" data-paper-data="{&quot;index&quot;:null}" fill="url(#color-1)"/><path d="M261.06004,184.67924c1.98964,0.02394 2.1312,2.12422 0.95131,3.34388c-1.81528,1.87645 -5.21376,0.38122 -7.82442,0.35363v0c-0.02313,0.00039 -0.04616,0.00033 -0.0691,-0.00016c-0.9579,-0.02044 -1.73589,-0.79529 -1.7519,-1.76147c-0.01086,-0.65586 0.33211,-1.23525 0.8528,-1.55608c0.16048,-0.13093 0.37567,-0.21415 0.70077,-0.24949c0.06819,-0.00904 0.13762,-0.01425 0.20806,-0.01542c2.30893,-0.10098 4.62149,-0.14267 6.93247,-0.11487z" data-paper-data="{&quot;index&quot;:null}" fill="url(#color-2)"/></g><g fill="#ffae00"><path d="M235.89427,199.09155c-0.05689,1.98897 -2.15924,2.09572 -3.35918,0.89578c-1.84612,-1.84612 -0.29478,-5.21936 -0.22395,-7.8292v0c0,-0.02313 0.00044,-0.04616 0.0013,-0.06909c0.0363,-0.95743 0.82394,-1.72247 1.79026,-1.72247c0.65595,0 1.22958,0.35253 1.54173,0.87846c0.12825,0.16262 0.2079,0.37917 0.23785,0.70481c0.00791,0.06833 0.01197,0.13784 0.01197,0.20829c0.06271,2.31029 0.06608,4.62323 0,6.93342z"/><path d="M247.57098,189.60661c0.04024,0.07153 0.07773,0.16321 0.11264,0.27274c0.04122,0.11112 0.07173,0.22744 0.09028,0.34771c0.4279,1.9888 0.36423,7.12339 0.22799,8.8645c-0.07382,0.94344 -0.53568,1.79156 -1.79156,1.79156c-2.55871,0 -2.05307,-9.03974 -1.99853,-10.38072c0,-0.03329 0.00091,-0.06638 0.0027,-0.09923c0.0515,-0.9433 0.8327,-1.69233 1.78886,-1.69233c0.58302,0 1.10101,0.27849 1.42817,0.70972c0.0534,0.05516 0.10041,0.11665 0.13945,0.18606z"/></g><path d="M229.35953,160.58796c13.7324,-4.75102 34.5448,2.28474 32.30932,17.08303c-2.23548,14.79829 -23.59635,20.69957 -36.53523,10.89144c-9.5019,-7.20278 -5.52305,-20.21022 2.36552,-26.69325z" fill="url(#color-3)"/></g><g stroke="none" stroke-width="0.5"><path d="M218.93997,183.75233c2.31098,-0.0278 4.62354,0.01389 6.93247,0.11487c0.07044,0.00117 0.13987,0.00638 0.20806,0.01542c0.3251,0.03534 0.54029,0.11856 0.70077,0.24949c0.52068,0.32083 0.86366,0.90021 0.8528,1.55607c-0.01601,0.96618 -0.79399,1.74104 -1.7519,1.76148c-0.02294,0.00049 -0.04597,0.00054 -0.0691,0.00016v0c-2.61066,0.02759 -6.00914,1.52283 -7.82442,-0.35363c-1.17989,-1.21965 -1.03833,-3.31994 0.95131,-3.34388z" data-paper-data="{&quot;index&quot;:null}" fill="url(#color-4)"/><path d="M261.06004,184.67924c1.98964,0.02394 2.1312,2.12422 0.95131,3.34388c-1.81528,1.87645 -5.21376,0.38122 -7.82442,0.35363v0c-0.02313,0.00039 -0.04616,0.00033 -0.0691,-0.00016c-0.9579,-0.02044 -1.73589,-0.79529 -1.7519,-1.76147c-0.01086,-0.65586 0.33211,-1.23525 0.8528,-1.55608c0.16048,-0.13093 0.37567,-0.21415 0.70077,-0.24949c0.06819,-0.00904 0.13762,-0.01425 0.20806,-0.01542c2.30893,-0.10098 4.62149,-0.14267 6.93247,-0.11487z" data-paper-data="{&quot;index&quot;:null}" fill="url(#color-5)"/></g><g fill="#ffae00" stroke="none" stroke-width="0.5"><path d="M235.89427,199.09155c-0.05689,1.98897 -2.15924,2.09572 -3.35918,0.89578c-1.84612,-1.84612 -0.29478,-5.21936 -0.22395,-7.8292v0c0,-0.02313 0.00044,-0.04616 0.0013,-0.06909c0.0363,-0.95743 0.82394,-1.72247 1.79026,-1.72247c0.65595,0 1.22958,0.35253 1.54173,0.87846c0.12825,0.16262 0.2079,0.37917 0.23785,0.70481c0.00791,0.06833 0.01197,0.13784 0.01197,0.20829c0.06271,2.31029 0.06608,4.62323 0,6.93342z"/><path d="M247.57098,189.60661c0.04024,0.07153 0.07773,0.16321 0.11264,0.27274c0.04122,0.11112 0.07173,0.22744 0.09028,0.34771c0.4279,1.9888 0.36423,7.12339 0.22799,8.8645c-0.07382,0.94344 -0.53568,1.79156 -1.79156,1.79156c-2.55871,0 -2.05307,-9.03974 -1.99853,-10.38072c0,-0.03329 0.00091,-0.06638 0.0027,-0.09923c0.0515,-0.9433 0.8327,-1.69233 1.78886,-1.69233c0.58302,0 1.10101,0.27849 1.42817,0.70972c0.0534,0.05516 0.10041,0.11665 0.13945,0.18606z"/></g><path d="M227.49914,161.86918c0.36867,-0.53389 0.88644,-0.80085 0.88644,-0.80085l0.53985,-0.26628c0.07185,-0.04292 0.20002,-0.11351 0.36766,-0.18134l0.06645,-0.03277c13.7324,-4.75102 34.5448,2.28474 32.30932,17.08303c-2.23548,14.79829 -23.59635,20.69957 -36.53523,10.89144c-9.5019,-7.20278 -5.52305,-20.21022 2.36552,-26.69325z" fill="url(#color-6)" stroke="none" stroke-width="0.5"/><path d="M238.57145,171.84162c0,-0.69262 0.56148,-1.25409 1.25409,-1.25409c0.69262,0 1.25409,0.56148 1.25409,1.25409c0,0.69262 -0.56148,1.25409 -1.25409,1.25409c-0.69262,0 -1.25409,-0.56148 -1.25409,-1.25409z" fill="#000000" stroke="none" stroke-width="0.5"/><path d="M241.63073,168.92802c0,-0.69262 0.56148,-1.25409 1.25409,-1.25409c0.69262,0 1.25409,0.56148 1.25409,1.25409c0,0.69262 -0.56148,1.25409 -1.25409,1.25409c-0.69262,0 -1.25409,-0.56148 -1.25409,-1.25409z" fill="#000000" stroke="none" stroke-width="0.5"/><path d="M249.63845,165.48979c1.253,0.05233 1.20068,1.30533 1.20068,1.30533l-0.04692,1.07304c-0.20959,2.00481 -0.60985,5.27941 -2.01192,6.91532c-3.05799,3.56799 -10.63862,2.17301 -14.13549,0.01542c0,0 -1.06347,-0.66467 -0.3988,-1.72814c0.66467,-1.06347 1.72814,-0.3988 1.72814,-0.3988c2.21119,1.40412 4.65675,1.4961 7.23719,1.5437c1.37779,0.02542 2.65686,0.26885 3.62495,-1.01705c1.02828,-1.36584 1.31004,-3.99579 1.4602,-5.58003l0.03666,-0.92813c0,0 0.05233,-1.253 1.30533,-1.20068z" fill="#000000" stroke="none" stroke-width="0.5"/></g><path d="M243.3566,169.80391l-2.35164,0.35542" fill="none" fill-rule="evenodd" stroke="#dd3627" stroke-width="2.128"/><path d="M227.4542,173.17868c-0.56686,-3.7506 1.96731,-7.24352 5.6602,-7.80166c3.6929,-0.55814 7.14612,2.02987 7.71298,5.78047c0.56686,3.7506 -1.96731,7.24352 -5.6602,7.80166c-3.6929,0.55814 -7.14612,-2.02987 -7.71298,-5.78047z" fill="none" fill-rule="evenodd" stroke="#dd3627" stroke-width="2.128"/><path d="M243.48123,170.75639c-0.56686,-3.7506 1.96731,-7.24352 5.6602,-7.80166c3.6929,-0.55814 7.14612,2.02987 7.71298,5.78047c0.56686,3.7506 -1.96731,7.24352 -5.6602,7.80166c-3.6929,0.55814 -7.14612,-2.02987 -7.71298,-5.78047z" fill="none" fill-rule="evenodd" stroke="#dd3627" stroke-width="2.128"/><path d="M227.15956,172.25189l-4.73572,-2.18831" fill="none" fill-rule="evenodd" stroke="#dd3627" stroke-width="2.56"/><path d="M259.77539,164.60479l-2.93229,3.1608" fill="none" fill-rule="evenodd" stroke="#dd3627" stroke-width="2.56"/></g></g></svg>