<svg version="1.1" xmlns="http://www.w3.org/2000/svg" xmlns:xlink="http://www.w3.org/1999/xlink" width="69.27164" height="80.30242" viewBox="0,0,69.27164,80.30242"><defs><linearGradient x1="238.76621" y1="159.19374" x2="238.76621" y2="206.95506" gradientUnits="userSpaceOnUse" id="color-1"><stop offset="0" stop-color="#ffee00"/><stop offset="1" stop-color="#ffad00"/></linearGradient><radialGradient cx="238.77884" cy="183.64648" r="29.04714" gradientUnits="userSpaceOnUse" id="color-2"><stop offset="0" stop-color="#bf8600" stop-opacity="0"/><stop offset="1" stop-color="#bf8600"/></radialGradient></defs><g transform="translate(-204.13037,-130.65264)"><g data-paper-data="{&quot;isPaintingLayer&quot;:true}" fill-rule="nonzero" stroke-linecap="butt" stroke-linejoin="miter" stroke-miterlimit="10" stroke-dasharray="" stroke-dashoffset="0" style="mix-blend-mode: normal"><text transform="translate(219.04737,173.7732) scale(0.5,0.5)" font-size="40" xml:space="preserve" fill="#bf8600" fill-rule="nonzero" stroke="none" stroke-width="1" stroke-linecap="butt" stroke-linejoin="miter" stroke-miterlimit="10" stroke-dasharray="" stroke-dashoffset="0" font-family="Sans Serif" font-weight="normal" text-anchor="start" style="mix-blend-mode: normal"><tspan x="0" dy="0"> </tspan></text><path d="M208.13039,195.01473c0,-9.21347 0,-21.19136 0,-26.11946c0,-4.2978 1.55004,-9.70151 3.35079,-9.70151c5.85468,0 37.97281,0 51.69793,0c3.82613,0 6.2229,5.89285 6.2229,10.44779c0,5.20421 -0.23935,16.26173 -0.23935,25.37319c0,5.95938 -2.05991,11.94033 -5.74421,11.94033c-13.2577,0 -44.45,0 -50.97992,0c-2.36269,0 -4.30816,-5.23894 -4.30816,-11.94033z" fill="url(#color-1)" stroke="#bf8600" stroke-width="8"/><text transform="translate(206.92237,161.63987) scale(0.71235,0.71235)" font-size="40" xml:space="preserve" fill="#bf8600" fill-rule="nonzero" stroke="none" stroke-width="1" stroke-linecap="butt" stroke-linejoin="miter" stroke-miterlimit="10" stroke-dasharray="" stroke-dashoffset="0" font-family="Sans Serif" font-weight="normal" text-anchor="start" style="mix-blend-mode: normal"><tspan x="0" dy="0"> </tspan></text><g stroke="none" stroke-width="0"><path d="M240.4569,199.74871c-7.25405,0 -13.13461,-6.41018 -13.13461,-14.31755c0,-7.90738 5.88057,-14.31755 13.13461,-14.31755c7.25405,0 13.13461,6.4102 13.13461,14.31755c0,7.90738 -5.88055,14.31755 -13.13461,14.31755z" data-paper-data="{&quot;index&quot;:null}" fill="#b45ebd"/><path d="M240.42886,185.4722c0,4.03052 -2.70404,7.29789 -6.03963,7.29789c-3.33562,0 -6.03962,-3.26738 -6.03962,-7.29789c0,-4.03052 2.70403,-7.29789 6.03962,-7.29789c3.33562,0 6.03963,3.26737 6.03963,7.29789z" fill="#a054a9"/><path d="M253.52734,184.98152c0,4.03052 -2.70404,7.29789 -6.03963,7.29789c-3.33562,0 -6.03963,-3.26738 -6.03963,-7.29789c0,-4.03052 2.70404,-7.29789 6.03963,-7.29789c3.33559,0 6.03963,3.26737 6.03963,7.29789z" fill="#a054a9"/></g><path d="M209.73172,194.96762c0,-8.73569 0,-20.09244 0,-24.76498c0,-4.07494 1.46966,-9.19842 3.17703,-9.19842c5.55108,0 36.00365,0 49.01703,0c3.62772,0 5.9002,5.58726 5.9002,9.90599c0,4.93433 -0.22694,15.41846 -0.22694,24.05741c0,5.65035 -1.9531,11.32113 -5.44635,11.32113c-12.5702,0 -42.14495,0 -48.33624,0c-2.24016,0 -4.08476,-4.96725 -4.08476,-11.32113z" fill="url(#color-2)" stroke="none" stroke-width="0"/></g></g></svg>