<svg version="1.1" xmlns="http://www.w3.org/2000/svg" xmlns:xlink="http://www.w3.org/1999/xlink" width="81.1163" height="65.96254" viewBox="0,0,81.1163,65.96254"><defs><linearGradient x1="224.59683" y1="164.62991" x2="224.59683" y2="168.3042" gradientUnits="userSpaceOnUse" id="color-1"><stop offset="0" stop-color="#ffbd00"/><stop offset="1" stop-color="#ffb700"/></linearGradient><linearGradient x1="254.63614" y1="165.4226" x2="254.63614" y2="169.09692" gradientUnits="userSpaceOnUse" id="color-2"><stop offset="0" stop-color="#ffbd00"/><stop offset="1" stop-color="#ffb700"/></linearGradient><linearGradient x1="240.22359" y1="143.56896" x2="240.22359" y2="172.87652" gradientUnits="userSpaceOnUse" id="color-3"><stop offset="0" stop-color="#ffee00"/><stop offset="1" stop-color="#ffad00"/></linearGradient></defs><g transform="translate(-201.01157,-117.99678)"><g data-paper-data="{&quot;isPaintingLayer&quot;:true}" fill-rule="nonzero" stroke-linejoin="miter" stroke-miterlimit="10" stroke-dasharray="" stroke-dashoffset="0" style="mix-blend-mode: normal"><g stroke-linecap="butt"><g stroke="#bfbfbf" stroke-width="7.5"><g><path d="M221.60601,164.63711c1.97634,-0.02378 3.95403,0.01188 5.92863,0.09823c0.06025,0.001 0.11962,0.00546 0.17793,0.01319c0.27803,0.03022 0.46205,0.10139 0.5993,0.21337c0.44529,0.27437 0.7386,0.76986 0.72931,1.33075c-0.01369,0.82628 -0.67902,1.48893 -1.49822,1.50641c-0.01961,0.00042 -0.03931,0.00046 -0.0591,0.00014v0c-2.23263,0.0236 -5.139,1.30231 -6.69141,-0.30242c-1.00904,-1.04304 -0.88798,-2.8392 0.81356,-2.85967z" data-paper-data="{&quot;index&quot;:null}" fill="url(#color-1)"/><path d="M257.62696,165.4298c1.70153,0.02047 1.8226,1.81663 0.81356,2.85968c-1.55242,1.60474 -4.45879,0.32601 -6.69142,0.30242v0c-0.01979,0.00033 -0.03949,0.00028 -0.0591,-0.00014c-0.81919,-0.01748 -1.48453,-0.68013 -1.49822,-1.5064c-0.00929,-0.56089 0.28402,-1.05638 0.72931,-1.33075c0.13725,-0.11197 0.32127,-0.18314 0.5993,-0.21336c0.05831,-0.00773 0.11769,-0.01219 0.17794,-0.01319c1.97459,-0.08635 3.95229,-0.12201 5.92863,-0.09823z" data-paper-data="{&quot;index&quot;:null}" fill="url(#color-2)"/></g><g fill="#ffae00"><path d="M236.10528,177.75516c-0.04865,1.70096 -1.84658,1.79225 -2.87276,0.76607c-1.5788,-1.5788 -0.2521,-4.46358 -0.19152,-6.69551v0c0,-0.01979 0.00037,-0.03948 0.00111,-0.05909c0.03105,-0.81879 0.70463,-1.47305 1.53102,-1.47305c0.56097,0 1.05153,0.30148 1.31848,0.75126c0.10969,0.13907 0.1778,0.32426 0.20341,0.60275c0.00677,0.05844 0.01024,0.11788 0.01024,0.17813c0.05363,1.97575 0.05651,3.95377 0,5.92944z"/><path d="M246.09116,169.64367c0.03441,0.06117 0.06647,0.13958 0.09633,0.23325c0.03525,0.09503 0.06135,0.1945 0.07721,0.29736c0.36594,1.70082 0.31149,6.09189 0.19498,7.58089c-0.06313,0.80683 -0.45812,1.53214 -1.53214,1.53214c-2.18821,0 -1.75578,-7.73076 -1.70913,-8.87756c0,-0.02847 0.00078,-0.05677 0.00231,-0.08487c0.04404,-0.8067 0.71212,-1.44727 1.52982,-1.44727c0.4986,0 0.94158,0.23817 1.22136,0.60695c0.04567,0.04717 0.08587,0.09976 0.11926,0.15912z"/></g><path d="M230.51678,144.82701c11.74391,-4.06306 29.5426,1.9539 27.63083,14.60935c-1.91177,12.65545 -20.17952,17.70221 -31.24481,9.31433c-8.12599,-6.15979 -4.7233,-17.28371 2.02299,-22.82798z" fill="url(#color-3)"/></g><g fill="#ffffff" stroke="none" stroke-width="0.5"><path d="M221.60601,164.63711c1.97634,-0.02378 3.95403,0.01188 5.92863,0.09823c0.06025,0.001 0.11962,0.00546 0.17793,0.01319c0.27803,0.03022 0.46205,0.10139 0.5993,0.21337c0.44529,0.27437 0.7386,0.76986 0.72931,1.33075c-0.01369,0.82628 -0.67902,1.48893 -1.49822,1.50641c-0.01961,0.00042 -0.03931,0.00046 -0.0591,0.00014v0c-2.23263,0.0236 -5.139,1.30231 -6.69141,-0.30242c-1.00904,-1.04304 -0.88798,-2.8392 0.81356,-2.85967z" data-paper-data="{&quot;index&quot;:null}"/><path d="M257.62696,165.4298c1.70153,0.02047 1.8226,1.81663 0.81356,2.85968c-1.55242,1.60474 -4.45879,0.32601 -6.69142,0.30242v0c-0.01979,0.00033 -0.03949,0.00028 -0.0591,-0.00014c-0.81919,-0.01748 -1.48453,-0.68013 -1.49822,-1.5064c-0.00929,-0.56089 0.28402,-1.05638 0.72931,-1.33075c0.13725,-0.11197 0.32127,-0.18314 0.5993,-0.21336c0.05831,-0.00773 0.11769,-0.01219 0.17794,-0.01319c1.97459,-0.08635 3.95229,-0.12201 5.92863,-0.09823z" data-paper-data="{&quot;index&quot;:null}"/></g><g fill="#ffffff" stroke="none" stroke-width="0.5"><path d="M236.10528,177.75516c-0.04865,1.70096 -1.84658,1.79225 -2.87276,0.76607c-1.5788,-1.5788 -0.2521,-4.46358 -0.19152,-6.69551v0c0,-0.01979 0.00037,-0.03948 0.00111,-0.05909c0.03105,-0.81879 0.70463,-1.47305 1.53102,-1.47305c0.56097,0 1.05153,0.30148 1.31848,0.75126c0.10969,0.13907 0.1778,0.32426 0.20341,0.60275c0.00677,0.05844 0.01024,0.11788 0.01024,0.17813c0.05363,1.97575 0.05651,3.95377 0,5.92944z"/><path d="M246.09116,169.64367c0.03441,0.06117 0.06647,0.13958 0.09633,0.23325c0.03525,0.09503 0.06135,0.1945 0.07721,0.29736c0.36594,1.70082 0.31149,6.09189 0.19498,7.58089c-0.06313,0.80683 -0.45812,1.53214 -1.53214,1.53214c-2.18821,0 -1.75578,-7.73076 -1.70913,-8.87756c0,-0.02847 0.00078,-0.05677 0.00231,-0.08487c0.04404,-0.8067 0.71212,-1.44727 1.52982,-1.44727c0.4986,0 0.94158,0.23817 1.22136,0.60695c0.04567,0.04717 0.08587,0.09976 0.11926,0.15912z"/></g><path d="M228.92578,145.92271c0.31529,-0.45658 0.75807,-0.68488 0.75807,-0.68488l0.46169,-0.22772c0.06144,-0.03671 0.17105,-0.09706 0.31442,-0.15508l0.05682,-0.02803c11.74391,-4.06306 29.5426,1.9539 27.63083,14.60935c-1.91177,12.65545 -20.17952,17.70221 -31.24481,9.31432c-8.12599,-6.15979 -4.7233,-17.28371 2.02299,-22.82798z" fill="#ffffff" stroke="none" stroke-width="0.5"/><path d="M238.39479,154.4511c0,-0.59232 0.48017,-1.0725 1.0725,-1.0725c0.59232,0 1.0725,0.48017 1.0725,1.0725c0,0.59232 -0.48017,1.0725 -1.0725,1.0725c-0.59232,0 -1.0725,-0.48017 -1.0725,-1.0725z" fill="#000000" stroke="none" stroke-width="0.5"/><path d="M241.01107,151.95941c0,-0.59232 0.48018,-1.0725 1.0725,-1.0725c0.59232,0 1.0725,0.48017 1.0725,1.0725c0,0.59232 -0.48017,1.07249 -1.0725,1.07249c-0.59232,0 -1.0725,-0.48017 -1.0725,-1.07249z" fill="#000000" stroke="none" stroke-width="0.5"/><path d="M247.85925,149.01905c1.07156,0.04475 1.02681,1.11631 1.02681,1.11631l-0.04012,0.91766c-0.17924,1.71451 -0.52154,4.51493 -1.72059,5.91396c-2.61518,3.05133 -9.09811,1.85836 -12.08862,0.01319c0,0 -0.90948,-0.56843 -0.34106,-1.4779c0.56842,-0.90947 1.4779,-0.34106 1.4779,-0.34106c1.891,1.20079 3.98244,1.27947 6.18922,1.32017c1.17828,0.02174 2.27213,0.22992 3.10004,-0.86978c0.87939,-1.16807 1.12034,-3.41718 1.24876,-4.77202l0.03134,-0.79373c0,0 0.04475,-1.07156 1.11632,-1.02681z" fill="#000000" stroke="none" stroke-width="0.5"/></g><path d="M230.68879,144.4384c0,0 -2.35604,-4.90893 -7.31664,-8.22614c-2.52682,-1.68971 -13.65035,-1.43405 -18.90133,-3.77696c-2.0347,-0.90785 -2.49823,-3.12295 -2.45676,-5.09934c0.02061,-0.98227 0.66333,-3.3122 1.98928,-4.69c0.55996,-0.58186 9.42209,-5.50685 17.16523,-2.88633c2.06196,0.69783 8.22781,4.75661 12.10125,9.99912c4.79557,6.49057 7.19328,14.33058 7.19328,14.33058" fill="#ffffff" stroke="#bfbfbf" stroke-width="2" stroke-linecap="round"/><path d="M240.76958,144.27495c0,0 3.43816,-7.4427 9.06917,-13.22343c4.54823,-4.66916 11.20729,-7.85482 13.34479,-8.26675c8.02686,-1.54689 16.13973,4.53376 16.61566,5.18614c1.12698,1.5448 1.44799,3.94034 1.33528,4.91634c-0.22678,1.96377 -0.98626,4.09561 -3.12522,4.71932c-5.52006,1.60962 -16.50631,-0.15128 -19.23883,1.18038c-5.36442,2.61428 -8.36403,7.1586 -8.36403,7.1586" data-paper-data="{&quot;index&quot;:null}" fill="#ffffff" stroke="#bfbfbf" stroke-width="2" stroke-linecap="round"/><path d="M224.92893,130.56235c0,3.03649 -5.28275,1.83269 -9.86159,1.83269c-4.57884,0 -7.06893,-1.58886 -7.06893,-4.62535c0,-3.03649 3.71188,-5.49806 8.29072,-5.49806c4.57884,0 8.6398,5.25423 8.6398,8.29072z" fill="#ffb7f9" stroke="#ffb7f9" stroke-width="2" stroke-linecap="butt"/><path d="M267.19352,126.04984c4.57883,0 8.29072,2.46157 8.29072,5.49805c0,3.03649 -2.49009,4.62535 -7.06893,4.62535c-4.57883,0 -9.86159,1.2038 -9.86159,-1.83268c0,-3.03649 4.06096,-8.29072 8.6398,-8.29072z" data-paper-data="{&quot;index&quot;:null}" fill="#ffb7f9" stroke="#ffb7f9" stroke-width="2" stroke-linecap="butt"/><g><path d="M223.74342,177.80843v-19.32729h27.93398v19.32729z" fill="#ffb300" stroke="none" stroke-width="0" stroke-linecap="butt"/><path d="M224.6196,157.90694c0,0 8.92838,-13.63441 13.29045,-13.65838c4.76297,-0.02617 14.19054,13.50738 14.19054,13.50738" fill="none" stroke="#a77500" stroke-width="2" stroke-linecap="round"/><text transform="translate(234.18415,171.35341) scale(0.16955,0.16955)" font-size="40" xml:space="preserve" fill="#a77500" fill-rule="nonzero" stroke="none" stroke-width="1" stroke-linecap="butt" stroke-linejoin="miter" stroke-miterlimit="10" stroke-dasharray="" stroke-dashoffset="0" font-family="Sans Serif" font-weight="normal" text-anchor="start" style="mix-blend-mode: normal"><tspan x="0" dy="0">24</tspan></text><g stroke-linecap="butt"><path d="M228.23035,168.58279c0,-1.56503 1.2687,-2.83373 2.83373,-2.83373c1.56503,0 2.83373,1.2687 2.83373,2.83373c0,1.56503 -1.2687,2.83373 -2.83373,2.83373c-1.56503,0 -2.83373,-1.2687 -2.83373,-2.83373z" fill="#ffbe4f" stroke="#ffbe4f" stroke-width="2"/><path d="M233.04925,168.6642c0,1.15209 -0.90622,2.08605 -2.02409,2.08605c-1.11788,0 -2.02409,-0.93396 -2.02409,-2.08605c0,-1.15209 0.90622,-2.08605 2.02409,-2.08605c1.11788,0 2.02409,0.93396 2.02409,2.08605z" fill="#ff4f4f" stroke="#ff4f4f" stroke-width="2"/><g stroke-width="0.25"><path d="M228.56985,168.58279c0,-1.37753 1.1167,-2.49423 2.49423,-2.49423c1.37752,0 2.49423,1.1167 2.49423,2.49423c0,1.37753 -1.1167,2.49423 -2.49423,2.49423c-1.37753,0 -2.49423,-1.1167 -2.49423,-2.49423z" fill="#fcc561" stroke="#8a4f51"/><path d="M228.78252,168.58279c0,-1.27041 1.02987,-2.30029 2.30029,-2.30029c1.27041,0 2.30029,1.02988 2.30029,2.30029c0,1.27041 -1.02988,2.30029 -2.30029,2.30029c-1.27041,0 -2.30029,-1.02987 -2.30029,-2.30029z" fill="#fbc21b" stroke="#ed803b"/></g><g fill="#d3692d" stroke="#aa5524" stroke-width="0.15"><path d="M229.88271,170.10456c0.04256,0.02832 0.08174,-0.00717 0.08571,-0.01095c0.03181,-0.0124 0.06682,-0.01806 0.10081,-0.01726c0,0 0.03906,0 0.05901,-0.02908c0.03028,0.01063 0.05773,0.02729 0.0809,0.04854c-0.02907,0.04433 -0.04597,0.09735 -0.04597,0.15432c0,0.01622 0.00137,0.03211 0.004,0.04758c-0.00198,0.00376 -0.00387,0.00757 -0.00568,0.01143c-0.03913,0.01685 -0.07382,0.04399 -0.09982,0.08264c-0.00681,-0.00049 -0.01368,-0.00074 -0.02062,-0.00074c-0.05704,0 -0.11012,0.01695 -0.15449,0.04608c-0.03246,-0.03163 -0.05579,-0.07258 -0.06569,-0.11852c0.03569,-0.03968 0.06882,-0.08168 0.07315,-0.11072c0.00477,-0.032 -0.00826,-0.06328 -0.0194,-0.09465c0.00262,-0.00296 0.00532,-0.00586 0.0081,-0.00868z"/><path d="M230.39815,168.85312c0.04989,0.07708 0.08932,0.15942 0.13069,0.24177c-0.03913,0.02954 -0.06954,0.05297 -0.10495,0.0963c-0.0125,0.01531 -0.01397,0.04101 -0.03143,0.05027c-0.01442,0.00764 -0.032,-0.00863 -0.04831,-0.00802c-0.02862,0.00106 -0.05805,0.00312 -0.08495,0.01298c-0.01038,0.00381 -0.013,0.03362 -0.02082,0.02581c-0.02056,-0.02056 -0.00693,-0.06924 -0.03377,-0.08041c-0.01616,-0.00673 -0.02932,0.01155 -0.04397,0.02567c-0.00146,-0.00211 -0.00289,-0.00423 -0.00427,-0.00637c0.00159,-0.00227 0.00269,-0.00447 0.00292,-0.00641c0.00179,-0.01534 -0.01446,-0.02997 -0.01097,-0.04502c0.0203,-0.08759 0.13132,-0.16163 0.17863,-0.23274c0.01767,-0.02657 0.02938,-0.05191 0.03868,-0.0778c0.01092,0.00056 0.02178,0.00188 0.03252,0.00395z"/><path d="M231.17765,170.17266c-0.009,0.09138 -0.02946,0.18034 -0.0484,0.27054c-0.04901,-0.00127 -0.0874,-0.0019 -0.14209,0.00994c-0.01932,0.00418 -0.03648,0.02338 -0.05591,0.01974c-0.01604,-0.00301 -0.01965,-0.02668 -0.03279,-0.03637c-0.02305,-0.017 -0.04735,-0.03373 -0.07453,-0.04277c-0.01049,-0.00349 -0.03112,0.0182 -0.03237,0.00722c-0.00327,-0.02889 0.03772,-0.05848 0.02368,-0.08393c-0.00846,-0.01533 -0.03013,-0.00924 -0.05038,-0.00731c0.00017,-0.00256 0.00038,-0.00511 0.00063,-0.00764c0.00266,-0.00079 0.00489,-0.00182 0.00628,-0.0032c0.01096,-0.01089 0.00736,-0.03245 0.01947,-0.04205c0.07045,-0.05587 0.20342,-0.0446 0.28473,-0.07076c0.03038,-0.00977 0.05532,-0.0223 0.07872,-0.03676c0.00819,0.00724 0.01587,0.01504 0.02298,0.02335z"/><path d="M232.06114,168.54312c0.009,-0.09138 0.02946,-0.18034 0.0484,-0.27054c0.04901,0.00127 0.0874,0.0019 0.14209,-0.00994c0.01931,-0.00418 0.03648,-0.02339 0.0559,-0.01974c0.01604,0.00301 0.01965,0.02669 0.03279,0.03637c0.02305,0.017 0.04735,0.03373 0.07453,0.04277c0.01049,0.00349 0.03112,-0.0182 0.03237,-0.00722c0.00327,0.02889 -0.03771,0.05847 -0.02367,0.08393c0.00846,0.01533 0.03012,0.00924 0.05038,0.00731c-0.00017,0.00256 -0.00037,0.00511 -0.00063,0.00764c-0.00266,0.00079 -0.00489,0.00182 -0.00628,0.0032c-0.01096,0.01089 -0.00736,0.03245 -0.01947,0.04205c-0.07045,0.05587 -0.20342,0.0446 -0.28473,0.07076c-0.03038,0.00977 -0.05532,0.0223 -0.07872,0.03676c-0.00819,-0.00724 -0.01587,-0.01504 -0.02298,-0.02335z" data-paper-data="{&quot;index&quot;:null}"/><path d="M229.85479,168.1876c-0.01115,0.03136 -0.02417,0.06265 -0.0194,0.09465c0.00433,0.02903 0.03746,0.07104 0.07315,0.11072c-0.0099,0.04594 -0.03323,0.08689 -0.06569,0.11852c-0.04436,-0.02913 -0.09745,-0.04608 -0.15449,-0.04608c-0.00693,0 -0.01381,0.00025 -0.02061,0.00074c-0.026,-0.03864 -0.06069,-0.06578 -0.09982,-0.08264c-0.00181,-0.00386 -0.0037,-0.00767 -0.00568,-0.01143c0.00263,-0.01547 0.004,-0.03136 0.004,-0.04758c0,-0.05697 -0.01691,-0.10999 -0.04597,-0.15432c0.02317,-0.02125 0.05061,-0.03791 0.0809,-0.04854c0.01995,0.02908 0.05901,0.02908 0.05901,0.02908c0.03399,-0.0008 0.069,0.00486 0.10081,0.01726c0.00396,0.00377 0.04315,0.03926 0.0857,0.01094c0.00277,0.00282 0.00547,0.00572 0.0081,0.00868z" data-paper-data="{&quot;index&quot;:null}"/><path d="M231.99779,167.38335c-0.04256,-0.02832 -0.08174,0.00717 -0.0857,0.01094c-0.03181,0.0124 -0.06682,0.01806 -0.10081,0.01726c0,0 -0.03906,0 -0.05901,0.02908c-0.03028,-0.01063 -0.05773,-0.02729 -0.0809,-0.04854c0.02907,-0.04433 0.04597,-0.09735 0.04597,-0.15432c0,-0.01622 -0.00137,-0.03211 -0.004,-0.04758c0.00198,-0.00376 0.00387,-0.00757 0.00568,-0.01143c0.03913,-0.01685 0.07382,-0.04399 0.09982,-0.08264c0.00681,0.00049 0.01368,0.00074 0.02061,0.00074c0.05704,0 0.11013,-0.01695 0.15449,-0.04608c0.03246,0.03163 0.05579,0.07258 0.06569,0.11852c-0.03569,0.03968 -0.06882,0.08168 -0.07315,0.11072c-0.00477,0.032 0.00825,0.06328 0.0194,0.09465c-0.00262,0.00296 -0.00532,0.00586 -0.0081,0.00868z" data-paper-data="{&quot;index&quot;:null}"/><path d="M230.75964,168.62757c0.0234,0.01446 0.04834,0.02699 0.07872,0.03676c0.08132,0.02615 0.21428,0.01489 0.28473,0.07076c0.0121,0.0096 0.00851,0.03116 0.01947,0.04205c0.00139,0.00138 0.00361,0.00241 0.00628,0.0032c0.00025,0.00254 0.00046,0.00509 0.00063,0.00764c-0.02026,-0.00193 -0.04193,-0.00803 -0.05038,0.00731c-0.01404,0.02546 0.02695,0.05505 0.02368,0.08393c-0.00124,0.01098 -0.02188,-0.01071 -0.03237,-0.00722c-0.02718,0.00904 -0.05148,0.02577 -0.07453,0.04277c-0.01314,0.00968 -0.01674,0.03336 -0.03279,0.03637c-0.01943,0.00364 -0.03659,-0.01556 -0.0559,-0.01974c-0.05469,-0.01184 -0.09308,-0.01122 -0.14209,-0.00994c-0.01894,-0.09019 -0.0394,-0.17916 -0.0484,-0.27054c0.00711,-0.00831 0.01479,-0.01611 0.02298,-0.02335z" data-paper-data="{&quot;index&quot;:null}"/><path d="M230.67575,168.05577c-0.01218,0 -0.02414,-0.00092 -0.03581,-0.00271c-0.02265,-0.04007 -0.04189,-0.08221 -0.05791,-0.12535l-0.05507,-0.05267c0,0 -0.0123,-0.0082 -0.0294,-0.01146c-0.00421,-0.00568 -0.00925,-0.0107 -0.01494,-0.01489c0.00037,-0.00294 0.00057,-0.00593 0.00057,-0.00897c0,-0.00028 0,-0.00056 0,-0.00084c0.03996,-0.04626 0.09441,-0.07879 0.13532,-0.12434l0.07754,-0.05103c0,0 0.04173,-0.02782 0.0313,-0.07172c0.10298,0.02309 0.18039,0.1138 0.18317,0.22307c-0.07608,0.02998 -0.15373,0.05553 -0.18828,0.14178c-0.00291,0.00727 -0.00389,0.05237 -0.00418,0.09533c-0.01372,0.00249 -0.02785,0.0038 -0.04229,0.0038z" data-paper-data="{&quot;index&quot;:null}"/><path d="M229.17629,169.25793c0.0212,0.03737 0.04404,0.07627 0.05012,0.0812c0.07221,0.05847 0.15246,0.04294 0.23351,0.03203c0.05084,0.09676 0.02746,0.21371 -0.0512,0.28406c-0.01229,-0.04342 -0.06229,-0.04737 -0.06229,-0.04737l-0.09258,-0.00676c-0.05793,-0.01984 -0.12134,-0.0217 -0.17877,-0.04261c-0.00013,-0.00025 -0.00027,-0.00049 -0.0004,-0.00074c-0.00148,-0.00265 -0.00311,-0.00517 -0.00487,-0.00755c0.00293,-0.00643 0.00488,-0.01327 0.00579,-0.02028c0.01334,-0.01117 0.02009,-0.02434 0.02009,-0.02434l0.02241,-0.07283c-0.00703,-0.04548 -0.01078,-0.09165 -0.01053,-0.13768c0.00933,-0.00725 0.01931,-0.01389 0.02995,-0.01982c0.01261,-0.00704 0.02559,-0.01279 0.03878,-0.0173z" data-paper-data="{&quot;index&quot;:null}"/><path d="M230.99015,166.40065c0.0015,0.0511 0.05312,0.06255 0.05848,0.0636c0.02851,0.01879 0.05337,0.04408 0.07237,0.07227c0,0 0.02258,0.03186 0.05785,0.03133c0.00884,0.03085 0.01112,0.06288 0.00717,0.09407c-0.05298,0.00192 -0.10601,0.01878 -0.15249,0.05172c-0.01323,0.00938 -0.02541,0.01969 -0.03651,0.03078c-0.00421,0.00056 -0.00841,0.00122 -0.01261,0.00197c-0.03637,-0.02218 -0.07857,-0.03479 -0.12514,-0.03367c-0.00354,-0.00584 -0.00731,-0.01159 -0.01131,-0.01725c-0.03298,-0.04654 -0.0775,-0.08005 -0.12693,-0.0994c0.00704,-0.04477 0.02695,-0.08749 0.05871,-0.12212c0.05301,0.00618 0.10644,0.00892 0.13263,-0.00433c0.02886,-0.01461 0.04686,-0.04333 0.066,-0.07055c0.00394,0.00043 0.00786,0.00096 0.01177,0.00158z" data-paper-data="{&quot;index&quot;:null}"/><path d="M229.83607,167.44639c-0.08885,-0.02315 -0.17354,-0.05724 -0.25967,-0.09003c0.0089,-0.04821 0.01551,-0.08603 0.01235,-0.1419c-0.00112,-0.01973 -0.0174,-0.03968 -0.01077,-0.0583c0.00548,-0.01538 0.02942,-0.01525 0.04104,-0.02671c0.02039,-0.02012 0.04071,-0.04151 0.05388,-0.06694c0.00509,-0.00982 -0.01312,-0.03358 -0.00208,-0.0331c0.02904,0.00127 0.05188,0.04638 0.07921,0.03648c0.01646,-0.00596 0.01383,-0.02832 0.01508,-0.04863c0.0025,0.00057 0.00499,0.00117 0.00745,0.00181c0.00036,0.00275 0.00103,0.00511 0.00218,0.0067c0.00905,0.01252 0.03091,0.01234 0.0385,0.02579c0.04419,0.0783 0.01232,0.20789 0.02546,0.29229c0.00491,0.03153 0.01339,0.05813 0.02402,0.08349c-0.00843,0.00696 -0.01734,0.01332 -0.02665,0.01905z" data-paper-data="{&quot;index&quot;:null}"/><path d="M232.48664,167.5097c0.01655,-0.02196 0.03133,-0.04565 0.04385,-0.075c0.03354,-0.07856 0.03458,-0.212 0.0967,-0.277c0.01067,-0.01117 0.03182,-0.0056 0.04366,-0.01551c0.0015,-0.00125 0.00273,-0.00338 0.00376,-0.00596c0.00255,-0.00002 0.00511,0.00002 0.00767,0.00008c-0.00379,0.02 -0.01185,0.04101 0.00263,0.05084c0.02405,0.01633 0.0573,-0.02176 0.08576,-0.01584c0.01082,0.00225 -0.01268,0.0208 -0.01017,0.03157c0.0065,0.0279 0.02092,0.05363 0.03572,0.07815c0.00843,0.01398 0.03168,0.01975 0.03319,0.03601c0.00184,0.01968 -0.01886,0.035 -0.02481,0.05385c-0.01683,0.05337 -0.01975,0.09165 -0.023,0.14057c-0.09156,0.01055 -0.18203,0.02272 -0.27385,0.02326c-0.00761,-0.00784 -0.01468,-0.01621 -0.02113,-0.02503z" data-paper-data="{&quot;index&quot;:null}"/><path d="M233.04761,168.49737c0.00029,0.04297 0.00127,0.08806 0.00418,0.09533c0.03455,0.08625 0.1122,0.11181 0.18828,0.14178c-0.00277,0.10927 -0.08019,0.19999 -0.18317,0.22307c0.01043,-0.0439 -0.0313,-0.07172 -0.0313,-0.07172l-0.07754,-0.05103c-0.04091,-0.04556 -0.09537,-0.07809 -0.13532,-0.12434c0,-0.00028 0,-0.00056 0,-0.00084c0,-0.00304 -0.00019,-0.00603 -0.00056,-0.00897c0.00569,-0.00419 0.01073,-0.00921 0.01494,-0.01489c0.01709,-0.00325 0.0294,-0.01146 0.0294,-0.01146l0.05506,-0.05266c0.01603,-0.04314 0.03526,-0.08528 0.05791,-0.12535c0.01167,-0.00179 0.02364,-0.00271 0.03581,-0.00271c0.01444,0 0.02857,0.0013 0.0423,0.0038z" data-paper-data="{&quot;index&quot;:null}"/><path d="M232.01366,169.33898c0.01218,0 0.02413,0.00093 0.03581,0.00272c0.02265,0.04007 0.04189,0.08221 0.05792,0.12535l0.05507,0.05267c0,0 0.0123,0.0082 0.0294,0.01146c0.00421,0.00568 0.00925,0.0107 0.01494,0.01489c-0.00037,0.00294 -0.00057,0.00593 -0.00057,0.00897c0,0.00028 0,0.00056 0,0.00084c-0.03996,0.04626 -0.09441,0.07879 -0.13532,0.12434l-0.07754,0.05103c0,0 -0.04173,0.02782 -0.0313,0.07172c-0.10298,-0.02309 -0.18039,-0.1138 -0.18317,-0.22307c0.07608,-0.02998 0.15373,-0.05553 0.18828,-0.14178c0.00291,-0.00727 0.00389,-0.05237 0.00419,-0.09533c0.01372,-0.00249 0.02785,-0.0038 0.04229,-0.0038z"/></g><g fill="#fae7ac" stroke="#d3c291" stroke-width="0.15"><path d="M232.57686,168.32045c0.00327,-0.00103 0.00649,-0.00237 0.00963,-0.00406c0.00797,-0.00427 0.0144,-0.0101 0.01978,-0.01699c0.14201,0.00335 0.29611,-0.0975 0.40921,-0.15056c0.02085,-0.00978 0.04989,-0.02342 0.07858,-0.03931c0.01053,0.00466 0.02337,0.01027 0.03694,0.01616c-0.02015,0.06882 -0.06022,0.12914 -0.11354,0.17429c-0.01235,-0.0037 -0.02223,-0.00369 -0.02223,-0.00369c-0.03537,0.00239 -0.07528,-0.01036 -0.1061,0.00716c-0.03137,0.01784 -0.05057,0.05049 -0.0719,0.08056c-0.01098,0.00101 -0.02211,0.00152 -0.03335,0.00152c-0.077,0 -0.14837,-0.02406 -0.20702,-0.06508z" data-paper-data="{&quot;index&quot;:null}"/><g><path d="M232.91459,169.38166c0,0.08795 -0.0713,0.15926 -0.15926,0.15926c-0.00915,0 -0.01812,-0.00077 -0.02685,-0.00225c-0.04082,-0.04317 0.04155,-0.08125 0.04706,-0.12058c0.00527,-0.03764 -0.02343,-0.06858 -0.05156,-0.08563c-0.00556,-0.00337 -0.01481,0.00169 -0.01927,-0.00304c-0.00301,-0.00319 0.00363,-0.00802 0.00489,-0.01222c0.00176,-0.00586 0.00874,-0.03894 0.01406,-0.04639c0.03392,-0.04747 0.08109,0.03662 0.10432,0.04632c0.01696,0.00708 0.05144,0.00693 0.07574,0.00658c0.00702,0.01796 0.01087,0.03751 0.01087,0.05796z"/><path d="M229.28873,169.15712c0,-0.07267 0.03677,-0.13676 0.09273,-0.17466c-0.02876,0.04741 -0.04135,0.10923 -0.01749,0.15073c0.00975,0.01697 0.03455,0.01846 0.05116,0.02884c0.01186,0.00741 0.03603,0.01626 0.0303,0.02902c-0.01129,0.02514 -0.04499,0.03525 -0.05665,0.06022c-0.01216,0.02605 -0.01849,0.04956 -0.01921,0.07184c-0.04921,-0.03859 -0.08082,-0.09859 -0.08082,-0.16598z"/><path d="M231.35246,169.26393c-0.03262,-0.00436 -0.06446,-0.01175 -0.09784,-0.00967c-0.02445,0.00152 -0.04732,0.01297 -0.07142,0.01738c-0.01716,0.00314 -0.03478,0.00101 -0.05231,-0.00003c-0.00471,-0.00408 -0.00917,-0.00841 -0.01339,-0.013c-0.00543,-0.02463 -0.0075,-0.05013 -0.01122,-0.08062c0.00887,-0.01551 0.01927,-0.03358 0.01991,-0.03424c0.00531,-0.00544 0.04834,-0.02252 0.05141,-0.0241c0.03161,-0.01625 0.04906,-0.02617 0.06821,-0.05884c0.01532,-0.02614 0.01629,-0.04916 0.01501,-0.07376c0.06527,0.00934 0.11805,0.05735 0.13442,0.12007c-0.0205,0.01222 -0.03671,0.02887 -0.04261,0.05322c-0.00586,0.02416 0.00863,0.05575 0.01616,0.08466c-0.00496,0.00672 -0.01042,0.01305 -0.01633,0.01893z"/><path d="M230.36467,169.49099c-0.05627,0.08976 -0.16879,0.08336 -0.24077,0.15313c0.03869,-0.11791 0.13636,-0.20908 0.25813,-0.23862c0.00118,0.03088 -0.00187,0.06079 -0.01736,0.08549z"/><path d="M232.1772,170.37221c-0.01125,0 -0.02237,-0.00051 -0.03335,-0.00152c-0.02132,-0.03007 -0.04053,-0.06272 -0.07189,-0.08056c-0.03081,-0.01752 -0.07073,-0.00477 -0.1061,-0.00716c0,0 -0.00987,0 -0.02223,0.00369c-0.05332,-0.04515 -0.09339,-0.10546 -0.11354,-0.17429c0.01357,-0.00589 0.02641,-0.01149 0.03694,-0.01616c0.02868,0.01589 0.05773,0.02953 0.07858,0.03931c0.11311,0.05306 0.26719,0.15391 0.40921,0.15056c0.00538,0.00689 0.01181,0.01271 0.01978,0.01699c0.00315,0.00169 0.00636,0.00302 0.00963,0.00406c-0.05865,0.04101 -0.13002,0.06508 -0.20702,0.06508z"/><path d="M232.3228,168.68142c0,0.01828 0.00696,0.03493 0.01838,0.04745c-0.00504,0.01429 -0.00996,0.02863 -0.01476,0.04299l-0.00468,0.0297c-0.02176,0.00773 -0.04448,0.01343 -0.06793,0.01688c-0.00528,-0.00507 -0.00935,-0.00778 -0.00935,-0.00778l-0.05852,-0.03008c-0.01463,-0.00077 -0.06705,0.00763 -0.07516,-0.02281c-0.00471,-0.01771 -0.00299,-0.09997 0.02465,-0.10406c0.04451,-0.00658 0.09027,0.00923 0.13492,0.00368c0.02066,-0.00257 0.0411,-0.00624 0.06143,-0.01043c-0.00572,0.01019 -0.00898,0.02193 -0.00898,0.03445z"/><path d="M229.73181,167.75542c0,-0.01828 -0.00696,-0.03493 -0.01838,-0.04745c0.00504,-0.01429 0.00996,-0.02863 0.01476,-0.04299l0.00468,-0.0297c0.02176,-0.00773 0.04448,-0.01343 0.06793,-0.01688c0.00528,0.00507 0.00935,0.00778 0.00935,0.00778l0.05852,0.03007c0.01463,0.00077 0.06705,-0.00763 0.07516,0.02281c0.00471,0.01771 0.00299,0.09997 -0.02465,0.10406c-0.04451,0.00658 -0.09027,-0.00922 -0.13492,-0.00368c-0.02066,0.00257 -0.0411,0.00624 -0.06143,0.01043c0.00572,-0.01019 0.00898,-0.02193 0.00898,-0.03445z" data-paper-data="{&quot;index&quot;:null}"/><path d="M231.18656,167.34329c-0.00328,0.00103 -0.00649,0.00237 -0.00963,0.00406c-0.00797,0.00427 -0.0144,0.0101 -0.01978,0.01699c-0.14202,-0.00335 -0.29611,0.0975 -0.40921,0.15056c-0.02085,0.00978 -0.04989,0.02342 -0.07858,0.03931c-0.01053,-0.00466 -0.02337,-0.01027 -0.03694,-0.01616c0.02015,-0.06882 0.06022,-0.12914 0.11354,-0.17429c0.01235,0.0037 0.02223,0.0037 0.02223,0.0037c0.03537,-0.00239 0.07528,0.01036 0.1061,-0.00716c0.03137,-0.01784 0.05057,-0.05049 0.0719,-0.08056c0.01098,-0.00101 0.02211,-0.00152 0.03336,-0.00152c0.077,0 0.14837,0.02406 0.20702,0.06508z" data-paper-data="{&quot;index&quot;:null}"/><path d="M231.63025,167.66895c0,0.07267 -0.03677,0.13676 -0.09273,0.17467c0.02876,-0.04741 0.04135,-0.10923 0.01749,-0.15073c-0.00975,-0.01697 -0.03455,-0.01846 -0.05116,-0.02884c-0.01186,-0.00741 -0.03603,-0.01626 -0.0303,-0.02902c0.01129,-0.02514 0.045,-0.03524 0.05665,-0.06022c0.01216,-0.02605 0.01849,-0.04956 0.01921,-0.07184c0.04921,0.03859 0.08082,0.0986 0.08082,0.16598z" data-paper-data="{&quot;index&quot;:null}"/><path d="M230.50676,166.73698c0,-0.01252 -0.00326,-0.02426 -0.00898,-0.03445c0.02033,0.0042 0.04077,0.00787 0.06143,0.01043c0.04465,0.00554 0.09041,-0.01026 0.13492,-0.00368c0.02764,0.00409 0.02936,0.08635 0.02465,0.10406c-0.00811,0.03043 -0.06053,0.02204 -0.07516,0.02281l-0.05852,0.03007c0,0 -0.00407,0.00271 -0.00935,0.00778c-0.02345,-0.00345 -0.04617,-0.00915 -0.06793,-0.01688l-0.00468,-0.0297c-0.0048,-0.01437 -0.00971,-0.0287 -0.01476,-0.04299c0.01142,-0.01252 0.01838,-0.02917 0.01838,-0.04745z" data-paper-data="{&quot;index&quot;:null}"/><path d="M230.43541,169.92288c0,-0.08795 0.0713,-0.15926 0.15926,-0.15926c0.00915,0 0.01812,0.00077 0.02685,0.00225c0.04082,0.04317 -0.04155,0.08125 -0.04706,0.12058c-0.00527,0.03764 0.02343,0.06858 0.05157,0.08563c0.00556,0.00337 0.01481,-0.00169 0.01927,0.00304c0.00301,0.00319 -0.00363,0.00802 -0.00489,0.01222c-0.00176,0.00586 -0.00874,0.03894 -0.01406,0.04639c-0.03392,0.04747 -0.08109,-0.03662 -0.10432,-0.04632c-0.01696,-0.00708 -0.05144,-0.00693 -0.07574,-0.00657c-0.00702,-0.01796 -0.01087,-0.03751 -0.01087,-0.05795z" data-paper-data="{&quot;index&quot;:null}"/><path d="M231.03846,166.77589c0,0.06739 -0.03161,0.12738 -0.08082,0.16598c-0.00072,-0.02228 -0.00706,-0.04579 -0.01921,-0.07184c-0.01166,-0.02497 -0.04536,-0.03508 -0.05665,-0.06022c-0.00573,-0.01275 0.01844,-0.02161 0.0303,-0.02902c0.0166,-0.01037 0.0414,-0.01186 0.05116,-0.02884c0.02385,-0.0415 0.01126,-0.10331 -0.01749,-0.15073c0.05595,0.03791 0.09273,0.10199 0.09273,0.17466z" data-paper-data="{&quot;index&quot;:null}"/><path d="M230.0277,169.10806c0,-0.01828 -0.00696,-0.03493 -0.01838,-0.04745c0.00504,-0.01429 0.00996,-0.02863 0.01476,-0.04299l0.00468,-0.0297c0.02176,-0.00773 0.04448,-0.01343 0.06793,-0.01688c0.00528,0.00507 0.00935,0.00778 0.00935,0.00778l0.05852,0.03007c0.01463,0.00077 0.06705,-0.00763 0.07516,0.02281c0.00471,0.01771 0.00299,0.09997 -0.02465,0.10406c-0.04451,0.00658 -0.09027,-0.00922 -0.13492,-0.00368c-0.02066,0.00257 -0.0411,0.00623 -0.06143,0.01043c0.00572,-0.01019 0.00898,-0.02193 0.00898,-0.03445z" data-paper-data="{&quot;index&quot;:null}"/></g></g><g fill="#81ff35" stroke="#68cc2b" stroke-width="0.15"><path d="M231.48397,169.7889c0,0.01157 0.00062,0.02277 0.00182,0.03362c-0.02832,0.00924 -0.05846,0.02427 -0.08851,0.0429c-0.01399,-0.00214 -0.02832,-0.00325 -0.04292,-0.00325c-0.00786,-0.00197 -0.01541,-0.00385 -0.02257,-0.00564h-0.05448c-0.02776,-0.02082 -0.05388,-0.03554 -0.07935,-0.04514c0.03011,-0.08882 0.10558,-0.15671 0.19882,-0.1761c0.01694,0.0511 0.04811,0.09571 0.08881,0.12914c-0.00106,0.00808 -0.00162,0.01624 -0.00162,0.02447z"/><path d="M229.21922,168.34893c-0.01319,-0.00189 -0.02669,-0.00287 -0.04041,-0.00287c-0.09879,0 -0.18571,0.05084 -0.23602,0.12778c-0.0128,-0.01274 -0.0218,-0.02977 -0.02324,-0.05495c-0.00296,-0.0519 -0.0193,-0.10699 -0.01691,-0.15959c0.00106,-0.02332 0.0067,-0.04734 0.01423,-0.07177c0.15351,0.00664 0.30111,0.00289 0.30235,0.1614z"/><path d="M232.33562,167.71065c0.00197,0.00831 0.02887,0.04764 0.02288,0.05553c-0.02216,0.02917 -0.04161,0.05331 -0.05802,0.07544c-0.00028,-0.00046 -0.00056,-0.00092 -0.00085,-0.00139c-0.04026,-0.06612 -0.33238,0.01227 -0.28744,-0.18267c0.03697,-0.01616 0.06981,-0.04001 0.09648,-0.06954c0.06794,-0.01064 0.15519,0.0034 0.20859,0.0157c0.00474,0.04403 0.01305,0.08449 0.01837,0.10693z"/><path d="M229.41033,167.37949c0,-0.00823 -0.00056,-0.01639 -0.00162,-0.02447c0.04071,-0.03343 0.07188,-0.07804 0.08882,-0.12914c0.09324,0.01939 0.1687,0.08728 0.19882,0.1761c-0.02547,0.0096 -0.05159,0.02432 -0.07935,0.04514h-0.05448c-0.00716,0.00179 -0.01471,0.00366 -0.02257,0.00564c-0.01459,0 -0.02893,0.00111 -0.04292,0.00325c-0.03005,-0.01863 -0.06019,-0.03366 -0.08851,-0.04289c0.0012,-0.01086 0.00182,-0.02207 0.00182,-0.03362z" data-paper-data="{&quot;index&quot;:null}"/><path d="M231.2123,168.16854c0,-0.00823 -0.00056,-0.01639 -0.00163,-0.02447c0.04071,-0.03343 0.07188,-0.07804 0.08882,-0.12914c0.09324,0.01939 0.1687,0.08728 0.19881,0.1761c-0.02547,0.0096 -0.05159,0.02432 -0.07935,0.04514h-0.05448c-0.00716,0.00179 -0.01471,0.00366 -0.02257,0.00564c-0.01459,0 -0.02893,0.00111 -0.04292,0.00325c-0.03005,-0.01863 -0.06019,-0.03366 -0.08851,-0.0429c0.0012,-0.01086 0.00182,-0.02206 0.00182,-0.03362z" data-paper-data="{&quot;index&quot;:null}"/><path d="M231.58301,167.24133c-0.05339,0.0123 -0.14065,0.02634 -0.20859,0.0157c-0.02667,-0.02953 -0.05951,-0.05339 -0.09648,-0.06954c-0.04494,-0.19494 0.24718,-0.11655 0.28744,-0.18267c0.00028,-0.00046 0.00056,-0.00092 0.00085,-0.00139c0.01641,0.02212 0.03586,0.04626 0.05802,0.07543c0.00599,0.0079 -0.0209,0.04722 -0.02288,0.05553c-0.00532,0.02245 -0.01363,0.06291 -0.01836,0.10693z" data-paper-data="{&quot;index&quot;:null}"/></g><g stroke-width="0.25"><g><path d="M231.26134,166.45518c0.19454,0 0.35225,0.15771 0.35225,0.35225c0,0.19454 -0.15771,0.35225 -0.35225,0.35225c-0.19454,0 -0.35225,-0.15771 -0.35225,-0.35225c0,-0.19454 0.15771,-0.35225 0.35225,-0.35225z" fill="#c30007" stroke="#8a0005"/><path d="M231.44921,166.77737c0.03735,0 0.06763,0.03028 0.06763,0.06763c0,0.03735 -0.03028,0.06764 -0.06763,0.06764c-0.03736,0 -0.06763,-0.03028 -0.06763,-0.06764c0,-0.03735 0.03028,-0.06763 0.06763,-0.06763z" fill="#ff7272" stroke="none"/><path d="M231.21249,166.72664c0.01868,0 0.03381,0.01514 0.03381,0.03382c0,0.01868 -0.01514,0.03381 -0.03381,0.03381c-0.01868,0 -0.03382,-0.01514 -0.03382,-0.03381c0,-0.01868 0.01514,-0.03382 0.03382,-0.03382z" fill="#ff9191" stroke="none"/><path d="M231.40976,166.63647c0.02179,0 0.03945,0.01766 0.03945,0.03945c0,0.02179 -0.01766,0.03945 -0.03945,0.03945c-0.02179,0 -0.03945,-0.01766 -0.03945,-0.03945c0,-0.02179 0.01766,-0.03945 0.03945,-0.03945z" fill="#ffaeae" stroke="none"/><path d="M231.25758,166.53502c0.03735,0 0.06763,0.03028 0.06763,0.06764c0,0.03735 -0.03028,0.06763 -0.06763,0.06763c-0.03736,0 -0.06763,-0.03028 -0.06763,-0.06763c0,-0.03735 0.03028,-0.06764 0.06763,-0.06764z" fill="#ff7272" stroke="none"/><path d="M231.08005,166.61392c0.01401,0 0.02536,0.01135 0.02536,0.02536c0,0.01401 -0.01136,0.02536 -0.02536,0.02536c-0.01401,0 -0.02536,-0.01135 -0.02536,-0.02536c0,-0.01401 0.01135,-0.02536 0.02536,-0.02536z" fill="#ffc4c4" stroke="none"/><path d="M231.29422,166.88164c0.01556,0 0.02818,0.01261 0.02818,0.02818c0,0.01556 -0.01262,0.02818 -0.02818,0.02818c-0.01556,0 -0.02818,-0.01262 -0.02818,-0.02818c0,-0.01556 0.01262,-0.02818 0.02818,-0.02818z" fill="#ffa3a3" stroke="none"/><path d="M231.02651,166.75481c0.02179,0 0.03945,0.01766 0.03945,0.03945c0,0.02179 -0.01766,0.03945 -0.03945,0.03945c-0.02179,0 -0.03945,-0.01766 -0.03945,-0.03945c0,-0.02179 0.01766,-0.03945 0.03945,-0.03945z" fill="#ff9898" stroke="none"/><path d="M231.22095,167.0169c0.01556,0 0.02818,0.01261 0.02818,0.02818c0,0.01556 -0.01261,0.02818 -0.02818,0.02818c-0.01556,0 -0.02818,-0.01262 -0.02818,-0.02818c0,-0.01556 0.01262,-0.02818 0.02818,-0.02818z" fill="#ffc4c4" stroke="none"/><path d="M231.11105,166.87882c0.03736,0 0.06763,0.03028 0.06763,0.06764c0,0.03735 -0.03028,0.06763 -0.06763,0.06763c-0.03736,0 -0.06764,-0.03028 -0.06764,-0.06763c0,-0.03735 0.03028,-0.06764 0.06764,-0.06764z" fill="#ff7272" stroke="none"/></g><g><path d="M232.10675,166.82152c0.19454,0 0.35225,0.15771 0.35225,0.35225c0,0.19454 -0.15771,0.35225 -0.35225,0.35225c-0.19454,0 -0.35225,-0.15771 -0.35225,-0.35225c0,-0.19454 0.15771,-0.35225 0.35225,-0.35225z" fill="#c30007" stroke="#8a0005"/><path d="M232.29462,167.1437c0.03736,0 0.06764,0.03028 0.06764,0.06764c0,0.03735 -0.03028,0.06764 -0.06764,0.06764c-0.03735,0 -0.06763,-0.03028 -0.06763,-0.06764c0,-0.03735 0.03028,-0.06764 0.06763,-0.06764z" fill="#ff7272" stroke="none"/><path d="M232.0579,167.09299c0.01868,0 0.03382,0.01514 0.03382,0.03382c0,0.01868 -0.01514,0.03382 -0.03382,0.03382c-0.01867,0 -0.03381,-0.01514 -0.03381,-0.03382c0,-0.01868 0.01514,-0.03382 0.03381,-0.03382z" fill="#ff9191" stroke="none"/><path d="M232.25517,167.00281c0.02179,0 0.03945,0.01766 0.03945,0.03945c0,0.02179 -0.01766,0.03945 -0.03945,0.03945c-0.02179,0 -0.03945,-0.01766 -0.03945,-0.03945c0,-0.02179 0.01766,-0.03945 0.03945,-0.03945z" fill="#ffaeae" stroke="none"/><path d="M232.103,166.90136c0.03736,0 0.06763,0.03028 0.06763,0.06763c0,0.03735 -0.03028,0.06764 -0.06763,0.06764c-0.03735,0 -0.06763,-0.03028 -0.06763,-0.06764c0,-0.03735 0.03028,-0.06763 0.06763,-0.06763z" fill="#ff7272" stroke="none"/><path d="M231.92546,166.98027c0.01401,0 0.02536,0.01135 0.02536,0.02536c0,0.01401 -0.01135,0.02536 -0.02536,0.02536c-0.01401,0 -0.02536,-0.01135 -0.02536,-0.02536c0,-0.01401 0.01136,-0.02536 0.02536,-0.02536z" fill="#ffc4c4" stroke="none"/><path d="M232.13963,167.24798c0.01556,0 0.02818,0.01262 0.02818,0.02818c0,0.01556 -0.01262,0.02818 -0.02818,0.02818c-0.01556,0 -0.02818,-0.01261 -0.02818,-0.02818c0,-0.01556 0.01262,-0.02818 0.02818,-0.02818z" fill="#ffa3a3" stroke="none"/><path d="M231.87192,167.12117c0.02179,0 0.03945,0.01766 0.03945,0.03945c0,0.02179 -0.01766,0.03945 -0.03945,0.03945c-0.02179,0 -0.03945,-0.01766 -0.03945,-0.03945c0,-0.02179 0.01766,-0.03945 0.03945,-0.03945z" fill="#ff9898" stroke="none"/><path d="M232.06636,167.38325c0.01556,0 0.02818,0.01262 0.02818,0.02818c0,0.01556 -0.01262,0.02818 -0.02818,0.02818c-0.01556,0 -0.02818,-0.01261 -0.02818,-0.02818c0,-0.01556 0.01262,-0.02818 0.02818,-0.02818z" fill="#ffc4c4" stroke="none"/><path d="M231.95646,167.24515c0.03736,0 0.06764,0.03028 0.06764,0.06763c0,0.03735 -0.03028,0.06764 -0.06764,0.06764c-0.03736,0 -0.06764,-0.03028 -0.06764,-0.06764c0,-0.03735 0.03028,-0.06763 0.06764,-0.06763z" fill="#ff7272" stroke="none"/></g><g><path d="M233.13533,167.991c0,0.19454 -0.15771,0.35225 -0.35225,0.35225c-0.19454,0 -0.35225,-0.15771 -0.35225,-0.35225c0,-0.19454 0.15771,-0.35225 0.35225,-0.35225c0.19454,0 0.35225,0.15771 0.35225,0.35225z" fill="#c30007" stroke="#8a0005"/><path d="M232.66284,168.02855c0,0.03735 -0.03028,0.06764 -0.06763,0.06764c-0.03735,0 -0.06763,-0.03028 -0.06763,-0.06764c0,-0.03735 0.03028,-0.06764 0.06763,-0.06764c0.03736,0 0.06763,0.03028 0.06763,0.06764z" fill="#ff7272" stroke="none"/><path d="M232.86574,167.94402c0,0.01868 -0.01514,0.03382 -0.03382,0.03382c-0.01867,0 -0.03381,-0.01514 -0.03381,-0.03382c0,-0.01868 0.01514,-0.03382 0.03381,-0.03382c0.01868,0 0.03382,0.01514 0.03382,0.03382z" fill="#ff9191" stroke="none"/><path d="M232.67411,167.85949c0,0.02179 -0.01766,0.03945 -0.03945,0.03945c-0.02179,0 -0.03945,-0.01766 -0.03945,-0.03945c0,-0.02179 0.01767,-0.03945 0.03945,-0.03945c0.02179,0 0.03945,0.01766 0.03945,0.03945z" fill="#ffaeae" stroke="none"/><path d="M232.85447,167.78622c0,0.03735 -0.03028,0.06763 -0.06763,0.06763c-0.03735,0 -0.06763,-0.03028 -0.06763,-0.06763c0,-0.03735 0.03028,-0.06764 0.06763,-0.06764c0.03736,0 0.06763,0.03028 0.06763,0.06764z" fill="#ff7272" stroke="none"/><path d="M232.98973,167.82286c0,0.01401 -0.01135,0.02536 -0.02536,0.02536c-0.01401,0 -0.02536,-0.01135 -0.02536,-0.02536c0,-0.01401 0.01136,-0.02536 0.02536,-0.02536c0.01401,0 0.02536,0.01135 0.02536,0.02536z" fill="#ffc4c4" stroke="none"/><path d="M232.77838,168.09338c0,0.01556 -0.01262,0.02818 -0.02818,0.02818c-0.01556,0 -0.02818,-0.01261 -0.02818,-0.02818c0,-0.01556 0.01261,-0.02818 0.02818,-0.02818c0.01556,0 0.02818,0.01262 0.02818,0.02818z" fill="#ffa3a3" stroke="none"/><path d="M233.05736,167.97785c0,0.02179 -0.01766,0.03945 -0.03945,0.03945c-0.02179,0 -0.03945,-0.01766 -0.03945,-0.03945c0,-0.02179 0.01766,-0.03945 0.03945,-0.03945c0.02179,0 0.03945,0.01766 0.03945,0.03945z" fill="#ff9898" stroke="none"/><path d="M232.85165,168.22866c0,0.01556 -0.01262,0.02818 -0.02818,0.02818c-0.01556,0 -0.02818,-0.01261 -0.02818,-0.02818c0,-0.01556 0.01261,-0.02818 0.02818,-0.02818c0.01556,0 0.02818,0.01262 0.02818,0.02818z" fill="#ffc4c4" stroke="none"/><path d="M233.001,168.13c0,0.03735 -0.03028,0.06764 -0.06763,0.06764c-0.03735,0 -0.06763,-0.03028 -0.06763,-0.06764c0,-0.03735 0.03028,-0.06763 0.06763,-0.06763c0.03736,0 0.06763,0.03028 0.06763,0.06763z" fill="#ff7272" stroke="none"/></g><g><path d="M232.81126,169.35774c-0.19454,0 -0.35225,-0.15771 -0.35225,-0.35225c0,-0.19454 0.15771,-0.35225 0.35225,-0.35225c0.19454,0 0.35225,0.15771 0.35225,0.35225c0,0.19454 -0.15771,0.35225 -0.35225,0.35225z" fill="#c30007" stroke="#8a0005"/><path d="M232.62339,169.03553c-0.03736,0 -0.06763,-0.03028 -0.06763,-0.06764c0,-0.03735 0.03028,-0.06763 0.06763,-0.06763c0.03735,0 0.06763,0.03028 0.06763,0.06763c0,0.03735 -0.03028,0.06764 -0.06763,0.06764z" fill="#ff7272" stroke="none"/><path d="M232.8601,169.08627c-0.01867,0 -0.03382,-0.01514 -0.03382,-0.03381c0,-0.01868 0.01514,-0.03382 0.03382,-0.03382c0.01868,0 0.03382,0.01514 0.03382,0.03382c0,0.01868 -0.01514,0.03381 -0.03382,0.03381z" fill="#ff9191" stroke="none"/><path d="M232.66284,169.17645c-0.02179,0 -0.03945,-0.01766 -0.03945,-0.03945c0,-0.02179 0.01766,-0.03945 0.03945,-0.03945c0.02179,0 0.03945,0.01766 0.03945,0.03945c0,0.02179 -0.01766,0.03945 -0.03945,0.03945z" fill="#ffaeae" stroke="none"/><path d="M232.81502,169.2779c-0.03735,0 -0.06763,-0.03028 -0.06763,-0.06764c0,-0.03735 0.03028,-0.06764 0.06763,-0.06764c0.03736,0 0.06763,0.03028 0.06763,0.06764c0,0.03735 -0.03028,0.06764 -0.06763,0.06764z" fill="#ff7272" stroke="none"/><path d="M232.99255,169.19899c-0.01401,0 -0.02536,-0.01135 -0.02536,-0.02536c0,-0.01401 0.01136,-0.02536 0.02536,-0.02536c0.01401,0 0.02536,0.01135 0.02536,0.02536c0,0.01401 -0.01135,0.02536 -0.02536,0.02536z" fill="#ffc4c4" stroke="none"/><path d="M232.77838,168.93128c-0.01556,0 -0.02818,-0.01262 -0.02818,-0.02818c0,-0.01556 0.01262,-0.02818 0.02818,-0.02818c0.01556,0 0.02818,0.01261 0.02818,0.02818c0,0.01556 -0.01262,0.02818 -0.02818,0.02818z" fill="#ffa3a3" stroke="none"/><path d="M233.04609,169.05809c-0.02179,0 -0.03945,-0.01766 -0.03945,-0.03945c0,-0.02179 0.01766,-0.03945 0.03945,-0.03945c0.02179,0 0.03945,0.01766 0.03945,0.03945c0,0.02179 -0.01767,0.03945 -0.03945,0.03945z" fill="#ff9898" stroke="none"/><path d="M232.85165,168.79601c-0.01556,0 -0.02818,-0.01262 -0.02818,-0.02818c0,-0.01556 0.01262,-0.02818 0.02818,-0.02818c0.01556,0 0.02818,0.01261 0.02818,0.02818c0,0.01556 -0.01261,0.02818 -0.02818,0.02818z" fill="#ffc4c4" stroke="none"/><path d="M232.96155,168.93408c-0.03736,0 -0.06763,-0.03028 -0.06763,-0.06763c0,-0.03735 0.03028,-0.06764 0.06763,-0.06764c0.03735,0 0.06763,0.03028 0.06763,0.06764c0,0.03735 -0.03028,0.06763 -0.06763,0.06763z" fill="#ff7272" stroke="none"/></g><g><path d="M232.09266,169.82272c0,-0.19454 0.15771,-0.35225 0.35225,-0.35225c0.19454,0 0.35225,0.15771 0.35225,0.35225c0,0.19454 -0.15771,0.35225 -0.35225,0.35225c-0.19454,0 -0.35225,-0.15771 -0.35225,-0.35225z" fill="#c30007" stroke="#8a0005"/><path d="M232.56515,169.78515c0,-0.03735 0.03028,-0.06764 0.06763,-0.06764c0.03736,0 0.06763,0.03028 0.06763,0.06764c0,0.03735 -0.03028,0.06763 -0.06763,0.06763c-0.03735,0 -0.06763,-0.03028 -0.06763,-0.06763z" fill="#ff7272" stroke="none"/><path d="M232.36225,169.86969c0,-0.01868 0.01514,-0.03382 0.03382,-0.03382c0.01868,0 0.03382,0.01514 0.03382,0.03382c0,0.01868 -0.01514,0.03381 -0.03382,0.03381c-0.01867,0 -0.03382,-0.01514 -0.03382,-0.03381z" fill="#ff9191" stroke="none"/><path d="M232.55388,169.95422c0,-0.02179 0.01766,-0.03945 0.03945,-0.03945c0.02179,0 0.03945,0.01766 0.03945,0.03945c0,0.02179 -0.01766,0.03945 -0.03945,0.03945c-0.02179,0 -0.03945,-0.01766 -0.03945,-0.03945z" fill="#ffaeae" stroke="none"/><path d="M232.37352,170.02748c0,-0.03735 0.03028,-0.06764 0.06763,-0.06764c0.03736,0 0.06763,0.03028 0.06763,0.06764c0,0.03735 -0.03028,0.06764 -0.06763,0.06764c-0.03735,0 -0.06763,-0.03028 -0.06763,-0.06764z" fill="#ff7272" stroke="none"/><path d="M232.23826,169.99085c0,-0.01401 0.01136,-0.02536 0.02536,-0.02536c0.01401,0 0.02536,0.01135 0.02536,0.02536c0,0.01401 -0.01135,0.02536 -0.02536,0.02536c-0.01401,0 -0.02536,-0.01135 -0.02536,-0.02536z" fill="#ffc4c4" stroke="none"/><path d="M232.44961,169.72033c0,-0.01556 0.01261,-0.02818 0.02818,-0.02818c0.01556,0 0.02818,0.01261 0.02818,0.02818c0,0.01556 -0.01262,0.02818 -0.02818,0.02818c-0.01556,0 -0.02818,-0.01262 -0.02818,-0.02818z" fill="#ffa3a3" stroke="none"/><path d="M232.17062,169.83586c0,-0.02179 0.01766,-0.03945 0.03945,-0.03945c0.02179,0 0.03945,0.01766 0.03945,0.03945c0,0.02179 -0.01766,0.03945 -0.03945,0.03945c-0.02179,0 -0.03945,-0.01766 -0.03945,-0.03945z" fill="#ff9898" stroke="none"/><path d="M232.37634,169.58505c0,-0.01556 0.01261,-0.02818 0.02818,-0.02818c0.01556,0 0.02818,0.01261 0.02818,0.02818c0,0.01556 -0.01262,0.02818 -0.02818,0.02818c-0.01556,0 -0.02818,-0.01262 -0.02818,-0.02818z" fill="#ffc4c4" stroke="none"/><path d="M232.22699,169.68369c0,-0.03735 0.03028,-0.06764 0.06763,-0.06764c0.03736,0 0.06764,0.03028 0.06764,0.06764c0,0.03735 -0.03028,0.06763 -0.06764,0.06763c-0.03735,0 -0.06763,-0.03028 -0.06763,-0.06763z" fill="#ff7272" stroke="none"/></g><g><path d="M231.85313,168.79413c0.19454,0 0.35225,0.15771 0.35225,0.35225c0,0.19454 -0.15771,0.35225 -0.35225,0.35225c-0.19454,0 -0.35225,-0.15771 -0.35225,-0.35225c0,-0.19454 0.15771,-0.35225 0.35225,-0.35225z" fill="#c30007" stroke="#8a0005"/><path d="M232.041,169.11633c0.03735,0 0.06763,0.03028 0.06763,0.06763c0,0.03735 -0.03028,0.06764 -0.06763,0.06764c-0.03735,0 -0.06763,-0.03028 -0.06763,-0.06764c0,-0.03735 0.03028,-0.06763 0.06763,-0.06763z" fill="#ff7272" stroke="none"/><path d="M231.80428,169.06561c0.01867,0 0.03381,0.01514 0.03381,0.03381c0,0.01868 -0.01514,0.03381 -0.03381,0.03381c-0.01867,0 -0.03382,-0.01514 -0.03382,-0.03381c0,-0.01868 0.01514,-0.03381 0.03382,-0.03381z" fill="#ff9191" stroke="none"/><path d="M232.00154,168.97543c0.02179,0 0.03945,0.01766 0.03945,0.03945c0,0.02179 -0.01766,0.03945 -0.03945,0.03945c-0.02179,0 -0.03945,-0.01766 -0.03945,-0.03945c0,-0.02179 0.01766,-0.03945 0.03945,-0.03945z" fill="#ffaeae" stroke="none"/><path d="M231.84937,168.87398c0.03735,0 0.06763,0.03028 0.06763,0.06763c0,0.03735 -0.03028,0.06763 -0.06763,0.06763c-0.03735,0 -0.06763,-0.03028 -0.06763,-0.06763c0,-0.03735 0.03028,-0.06763 0.06763,-0.06763z" fill="#ff7272" stroke="none"/><path d="M231.67183,168.95288c0.01401,0 0.02536,0.01135 0.02536,0.02536c0,0.01401 -0.01135,0.02536 -0.02536,0.02536c-0.01401,0 -0.02536,-0.01135 -0.02536,-0.02536c0,-0.01401 0.01135,-0.02536 0.02536,-0.02536z" fill="#ffc4c4" stroke="none"/><path d="M231.886,169.2206c0.01556,0 0.02818,0.01261 0.02818,0.02818c0,0.01556 -0.01262,0.02818 -0.02818,0.02818c-0.01556,0 -0.02818,-0.01262 -0.02818,-0.02818c0,-0.01556 0.01261,-0.02818 0.02818,-0.02818z" fill="#ffa3a3" stroke="none"/><path d="M231.61829,169.09379c0.02179,0 0.03945,0.01766 0.03945,0.03945c0,0.02179 -0.01766,0.03945 -0.03945,0.03945c-0.02179,0 -0.03945,-0.01766 -0.03945,-0.03945c0,-0.02179 0.01766,-0.03945 0.03945,-0.03945z" fill="#ff9898" stroke="none"/><path d="M231.81274,169.35587c0.01556,0 0.02818,0.01262 0.02818,0.02818c0,0.01556 -0.01262,0.02818 -0.02818,0.02818c-0.01556,0 -0.02818,-0.01261 -0.02818,-0.02818c0,-0.01556 0.01262,-0.02818 0.02818,-0.02818z" fill="#ffc4c4" stroke="none"/><path d="M231.70283,169.21778c0.03736,0 0.06763,0.03028 0.06763,0.06764c0,0.03735 -0.03028,0.06764 -0.06763,0.06764c-0.03735,0 -0.06763,-0.03028 -0.06763,-0.06764c0,-0.03735 0.03028,-0.06764 0.06763,-0.06764z" fill="#ff7272" stroke="none"/></g><g><path d="M231.55723,168.18826c0,-0.19454 0.15771,-0.35225 0.35225,-0.35225c0.19454,0 0.35225,0.15771 0.35225,0.35225c0,0.19454 -0.15771,0.35225 -0.35225,0.35225c-0.19454,0 -0.35225,-0.15771 -0.35225,-0.35225z" fill="#c30007" stroke="#8a0005"/><path d="M232.02972,168.15068c0,-0.03735 0.03028,-0.06763 0.06764,-0.06763c0.03735,0 0.06763,0.03028 0.06763,0.06763c0,0.03735 -0.03028,0.06764 -0.06763,0.06764c-0.03736,0 -0.06764,-0.03028 -0.06764,-0.06764z" fill="#ff7272" stroke="none"/><path d="M231.82683,168.23521c0,-0.01868 0.01514,-0.03382 0.03382,-0.03382c0.01867,0 0.03381,0.01514 0.03381,0.03382c0,0.01868 -0.01514,0.03382 -0.03381,0.03382c-0.01867,0 -0.03382,-0.01514 -0.03382,-0.03382z" fill="#ff9191" stroke="none"/><path d="M232.01845,168.31977c0,-0.02179 0.01766,-0.03945 0.03945,-0.03945c0.02179,0 0.03945,0.01766 0.03945,0.03945c0,0.02179 -0.01767,0.03945 -0.03945,0.03945c-0.02179,0 -0.03945,-0.01766 -0.03945,-0.03945z" fill="#ffaeae" stroke="none"/><path d="M231.8381,168.39304c0,-0.03735 0.03028,-0.06764 0.06764,-0.06764c0.03735,0 0.06763,0.03028 0.06763,0.06764c0,0.03735 -0.03028,0.06764 -0.06763,0.06764c-0.03736,0 -0.06764,-0.03028 -0.06764,-0.06764z" fill="#ff7272" stroke="none"/><path d="M231.70283,168.35641c0,-0.01401 0.01136,-0.02536 0.02536,-0.02536c0.01401,0 0.02536,0.01135 0.02536,0.02536c0,0.01401 -0.01136,0.02536 -0.02536,0.02536c-0.01401,0 -0.02536,-0.01135 -0.02536,-0.02536z" fill="#ffc4c4" stroke="none"/><path d="M231.91418,168.08586c0,-0.01556 0.01262,-0.02818 0.02818,-0.02818c0.01556,0 0.02818,0.01261 0.02818,0.02818c0,0.01556 -0.01262,0.02818 -0.02818,0.02818c-0.01556,0 -0.02818,-0.01262 -0.02818,-0.02818z" fill="#ffa3a3" stroke="none"/><path d="M231.6352,168.20141c0,-0.02179 0.01766,-0.03945 0.03945,-0.03945c0.02179,0 0.03945,0.01766 0.03945,0.03945c0,0.02179 -0.01766,0.03945 -0.03945,0.03945c-0.02179,0 -0.03945,-0.01766 -0.03945,-0.03945z" fill="#ff9898" stroke="none"/><path d="M231.84092,167.95061c0,-0.01556 0.01262,-0.02818 0.02818,-0.02818c0.01556,0 0.02818,0.01261 0.02818,0.02818c0,0.01556 -0.01261,0.02818 -0.02818,0.02818c-0.01556,0 -0.02818,-0.01262 -0.02818,-0.02818z" fill="#ffc4c4" stroke="none"/><path d="M231.69156,168.04923c0,-0.03735 0.03028,-0.06763 0.06763,-0.06763c0.03735,0 0.06763,0.03028 0.06763,0.06763c0,0.03735 -0.03028,0.06764 -0.06763,0.06764c-0.03736,0 -0.06763,-0.03028 -0.06763,-0.06764z" fill="#ff7272" stroke="none"/></g><g><path d="M231.33179,167.73736c0,0.19454 -0.15771,0.35225 -0.35225,0.35225c-0.19454,0 -0.35225,-0.15771 -0.35225,-0.35225c0,-0.19454 0.15771,-0.35225 0.35225,-0.35225c0.19454,0 0.35225,0.15771 0.35225,0.35225z" fill="#c30007" stroke="#8a0005"/><path d="M230.8593,167.77495c0,0.03735 -0.03028,0.06763 -0.06763,0.06763c-0.03735,0 -0.06763,-0.03028 -0.06763,-0.06763c0,-0.03735 0.03028,-0.06764 0.06763,-0.06764c0.03736,0 0.06763,0.03028 0.06763,0.06764z" fill="#ff7272" stroke="none"/><path d="M231.0622,167.69041c0,0.01868 -0.01514,0.03381 -0.03382,0.03381c-0.01868,0 -0.03381,-0.01514 -0.03381,-0.03381c0,-0.01868 0.01514,-0.03381 0.03381,-0.03381c0.01868,0 0.03382,0.01514 0.03382,0.03381z" fill="#ff9191" stroke="none"/><path d="M230.87058,167.60587c0,0.02179 -0.01766,0.03945 -0.03945,0.03945c-0.02179,0 -0.03945,-0.01766 -0.03945,-0.03945c0,-0.02179 0.01766,-0.03945 0.03945,-0.03945c0.02179,0 0.03945,0.01766 0.03945,0.03945z" fill="#ffaeae" stroke="none"/><path d="M231.05093,167.5326c0,0.03735 -0.03028,0.06763 -0.06763,0.06763c-0.03735,0 -0.06763,-0.03028 -0.06763,-0.06763c0,-0.03735 0.03028,-0.06763 0.06763,-0.06763c0.03736,0 0.06763,0.03028 0.06763,0.06763z" fill="#ff7272" stroke="none"/><path d="M231.18619,167.56923c0,0.01401 -0.01135,0.02536 -0.02536,0.02536c-0.01401,0 -0.02536,-0.01135 -0.02536,-0.02536c0,-0.01401 0.01135,-0.02536 0.02536,-0.02536c0.01401,0 0.02536,0.01135 0.02536,0.02536z" fill="#ffc4c4" stroke="none"/><path d="M230.97484,167.83977c0,0.01556 -0.01262,0.02818 -0.02818,0.02818c-0.01556,0 -0.02818,-0.01262 -0.02818,-0.02818c0,-0.01556 0.01261,-0.02818 0.02818,-0.02818c0.01556,0 0.02818,0.01261 0.02818,0.02818z" fill="#ffa3a3" stroke="none"/><path d="M231.25383,167.72423c0,0.02179 -0.01766,0.03945 -0.03945,0.03945c-0.02179,0 -0.03945,-0.01766 -0.03945,-0.03945c0,-0.02179 0.01766,-0.03945 0.03945,-0.03945c0.02179,0 0.03945,0.01766 0.03945,0.03945z" fill="#ff9898" stroke="none"/><path d="M231.04811,167.97503c0,0.01556 -0.01262,0.02818 -0.02818,0.02818c-0.01556,0 -0.02818,-0.01262 -0.02818,-0.02818c0,-0.01556 0.01261,-0.02818 0.02818,-0.02818c0.01556,0 0.02818,0.01262 0.02818,0.02818z" fill="#ffc4c4" stroke="none"/><path d="M231.19747,167.8764c0,0.03735 -0.03028,0.06763 -0.06764,0.06763c-0.03735,0 -0.06763,-0.03028 -0.06763,-0.06763c0,-0.03735 0.03028,-0.06764 0.06763,-0.06764c0.03736,0 0.06764,0.03028 0.06764,0.06764z" fill="#ff7272" stroke="none"/></g><g><path d="M230.75921,168.6011c0,-0.19454 0.15771,-0.35225 0.35225,-0.35225c0.19455,0 0.35225,0.15771 0.35225,0.35225c0,0.19454 -0.15771,0.35225 -0.35225,0.35225c-0.19454,0 -0.35225,-0.15771 -0.35225,-0.35225z" fill="#c30007" stroke="#8a0005"/><path d="M231.2317,168.56353c0,-0.03735 0.03028,-0.06764 0.06763,-0.06764c0.03736,0 0.06764,0.03028 0.06764,0.06764c0,0.03735 -0.03028,0.06764 -0.06764,0.06764c-0.03735,0 -0.06763,-0.03028 -0.06763,-0.06764z" fill="#ff7272" stroke="none"/><path d="M231.0288,168.64807c0,-0.01868 0.01514,-0.03381 0.03382,-0.03381c0.01868,0 0.03382,0.01514 0.03382,0.03381c0,0.01868 -0.01514,0.03382 -0.03382,0.03382c-0.01868,0 -0.03382,-0.01514 -0.03382,-0.03382z" fill="#ff9191" stroke="none"/><path d="M231.22043,168.73261c0,-0.02179 0.01766,-0.03945 0.03945,-0.03945c0.02179,0 0.03945,0.01766 0.03945,0.03945c0,0.02179 -0.01766,0.03945 -0.03945,0.03945c-0.02179,0 -0.03945,-0.01766 -0.03945,-0.03945z" fill="#ffaeae" stroke="none"/><path d="M231.04007,168.80586c0,-0.03735 0.03028,-0.06764 0.06763,-0.06764c0.03735,0 0.06763,0.03028 0.06763,0.06764c0,0.03735 -0.03028,0.06763 -0.06763,0.06763c-0.03736,0 -0.06763,-0.03028 -0.06763,-0.06763z" fill="#ff7272" stroke="none"/><path d="M230.9048,168.76924c0,-0.01401 0.01136,-0.02536 0.02536,-0.02536c0.01401,0 0.02536,0.01135 0.02536,0.02536c0,0.01401 -0.01135,0.02536 -0.02536,0.02536c-0.01401,0 -0.02536,-0.01135 -0.02536,-0.02536z" fill="#ffc4c4" stroke="none"/><path d="M231.11616,168.49871c0,-0.01556 0.01262,-0.02818 0.02818,-0.02818c0.01556,0 0.02818,0.01261 0.02818,0.02818c0,0.01556 -0.01262,0.02818 -0.02818,0.02818c-0.01556,0 -0.02818,-0.01262 -0.02818,-0.02818z" fill="#ffa3a3" stroke="none"/><path d="M230.83717,168.61424c0,-0.02179 0.01766,-0.03945 0.03945,-0.03945c0.02179,0 0.03945,0.01766 0.03945,0.03945c0,0.02179 -0.01766,0.03945 -0.03945,0.03945c-0.02179,0 -0.03945,-0.01766 -0.03945,-0.03945z" fill="#ff9898" stroke="none"/><path d="M231.04289,168.36344c0,-0.01556 0.01262,-0.02818 0.02818,-0.02818c0.01556,0 0.02818,0.01262 0.02818,0.02818c0,0.01556 -0.01262,0.02818 -0.02818,0.02818c-0.01556,0 -0.02818,-0.01262 -0.02818,-0.02818z" fill="#ffc4c4" stroke="none"/><path d="M230.89353,168.46208c0,-0.03735 0.03028,-0.06763 0.06763,-0.06763c0.03735,0 0.06763,0.03028 0.06763,0.06763c0,0.03735 -0.03028,0.06764 -0.06763,0.06764c-0.03735,0 -0.06763,-0.03028 -0.06763,-0.06764z" fill="#ff7272" stroke="none"/></g><g><path d="M230.21867,168.76596c-0.19454,0 -0.35225,-0.15771 -0.35225,-0.35225c0,-0.19454 0.15771,-0.35225 0.35225,-0.35225c0.19454,0 0.35225,0.15771 0.35225,0.35225c0,0.19454 -0.15771,0.35225 -0.35225,0.35225z" fill="#c30007" stroke="#8a0005"/><path d="M230.0308,168.44375c-0.03736,0 -0.06764,-0.03028 -0.06764,-0.06763c0,-0.03735 0.03028,-0.06764 0.06764,-0.06764c0.03735,0 0.06763,0.03028 0.06763,0.06764c0,0.03735 -0.03028,0.06763 -0.06763,0.06763z" fill="#ff7272" stroke="none"/><path d="M230.26752,168.49449c-0.01868,0 -0.03381,-0.01514 -0.03381,-0.03381c0,-0.01868 0.01514,-0.03382 0.03381,-0.03382c0.01868,0 0.03382,0.01514 0.03382,0.03382c0,0.01868 -0.01514,0.03381 -0.03382,0.03381z" fill="#ff9191" stroke="none"/><path d="M230.07026,168.58467c-0.02179,0 -0.03945,-0.01766 -0.03945,-0.03945c0,-0.02179 0.01766,-0.03945 0.03945,-0.03945c0.02179,0 0.03945,0.01766 0.03945,0.03945c0,0.02179 -0.01767,0.03945 -0.03945,0.03945z" fill="#ffaeae" stroke="none"/><path d="M230.22243,168.68612c-0.03735,0 -0.06763,-0.03028 -0.06763,-0.06764c0,-0.03735 0.03028,-0.06764 0.06763,-0.06764c0.03735,0 0.06763,0.03028 0.06763,0.06764c0,0.03735 -0.03028,0.06764 -0.06763,0.06764z" fill="#ff7272" stroke="none"/><path d="M230.39996,168.60721c-0.01401,0 -0.02536,-0.01135 -0.02536,-0.02536c0,-0.01401 0.01135,-0.02536 0.02536,-0.02536c0.01401,0 0.02536,0.01135 0.02536,0.02536c0,0.01401 -0.01135,0.02536 -0.02536,0.02536z" fill="#ffc4c4" stroke="none"/><path d="M230.18579,168.3395c-0.01556,0 -0.02818,-0.01262 -0.02818,-0.02818c0,-0.01556 0.01261,-0.02818 0.02818,-0.02818c0.01556,0 0.02818,0.01261 0.02818,0.02818c0,0.01556 -0.01262,0.02818 -0.02818,0.02818z" fill="#ffa3a3" stroke="none"/><path d="M230.45351,168.46631c-0.02179,0 -0.03945,-0.01766 -0.03945,-0.03945c0,-0.02179 0.01766,-0.03945 0.03945,-0.03945c0.02179,0 0.03945,0.01766 0.03945,0.03945c0,0.02179 -0.01766,0.03945 -0.03945,0.03945z" fill="#ff9898" stroke="none"/><path d="M230.25906,168.20422c-0.01556,0 -0.02818,-0.01261 -0.02818,-0.02818c0,-0.01556 0.01261,-0.02818 0.02818,-0.02818c0.01556,0 0.02818,0.01262 0.02818,0.02818c0,0.01556 -0.01262,0.02818 -0.02818,0.02818z" fill="#ffc4c4" stroke="none"/><path d="M230.36896,168.3423c-0.03736,0 -0.06763,-0.03028 -0.06763,-0.06763c0,-0.03735 0.03028,-0.06764 0.06763,-0.06764c0.03735,0 0.06763,0.03028 0.06763,0.06764c0,0.03735 -0.03028,0.06763 -0.06763,0.06763z" fill="#ff7272" stroke="none"/></g><g><path d="M230.48638,167.20195c0,0.19454 -0.15771,0.35225 -0.35225,0.35225c-0.19454,0 -0.35225,-0.15771 -0.35225,-0.35225c0,-0.19454 0.15771,-0.35225 0.35225,-0.35225c0.19454,0 0.35225,0.15771 0.35225,0.35225z" fill="#c30007" stroke="#8a0005"/><path d="M230.01389,167.23951c0,0.03735 -0.03028,0.06764 -0.06763,0.06764c-0.03735,0 -0.06763,-0.03028 -0.06763,-0.06764c0,-0.03735 0.03028,-0.06763 0.06763,-0.06763c0.03735,0 0.06763,0.03028 0.06763,0.06763z" fill="#ff7272" stroke="none"/><path d="M230.21679,167.15498c0,0.01868 -0.01514,0.03382 -0.03382,0.03382c-0.01868,0 -0.03381,-0.01514 -0.03381,-0.03382c0,-0.01868 0.01514,-0.03381 0.03381,-0.03381c0.01868,0 0.03382,0.01514 0.03382,0.03381z" fill="#ff9191" stroke="none"/><path d="M230.02516,167.07045c0,0.02179 -0.01766,0.03945 -0.03945,0.03945c-0.02179,0 -0.03945,-0.01766 -0.03945,-0.03945c0,-0.02179 0.01766,-0.03945 0.03945,-0.03945c0.02179,0 0.03945,0.01766 0.03945,0.03945z" fill="#ffaeae" stroke="none"/><path d="M230.20552,166.99718c0,0.03735 -0.03028,0.06764 -0.06764,0.06764c-0.03736,0 -0.06764,-0.03028 -0.06764,-0.06764c0,-0.03735 0.03028,-0.06764 0.06764,-0.06764c0.03736,0 0.06764,0.03028 0.06764,0.06764z" fill="#ff7272" stroke="none"/><path d="M230.34079,167.03381c0,0.01401 -0.01136,0.02536 -0.02536,0.02536c-0.01401,0 -0.02536,-0.01135 -0.02536,-0.02536c0,-0.01401 0.01135,-0.02536 0.02536,-0.02536c0.01401,0 0.02536,0.01135 0.02536,0.02536z" fill="#ffc4c4" stroke="none"/><path d="M230.12943,167.30433c0,0.01556 -0.01262,0.02818 -0.02818,0.02818c-0.01556,0 -0.02818,-0.01262 -0.02818,-0.02818c0,-0.01556 0.01262,-0.02818 0.02818,-0.02818c0.01556,0 0.02818,0.01261 0.02818,0.02818z" fill="#ffa3a3" stroke="none"/><path d="M230.40842,167.1888c0,0.02179 -0.01766,0.03945 -0.03945,0.03945c-0.02179,0 -0.03945,-0.01766 -0.03945,-0.03945c0,-0.02179 0.01766,-0.03945 0.03945,-0.03945c0.02179,0 0.03945,0.01766 0.03945,0.03945z" fill="#ff9898" stroke="none"/><path d="M230.2027,167.43961c0,0.01556 -0.01262,0.02818 -0.02818,0.02818c-0.01556,0 -0.02818,-0.01262 -0.02818,-0.02818c0,-0.01556 0.01262,-0.02818 0.02818,-0.02818c0.01556,0 0.02818,0.01261 0.02818,0.02818z" fill="#ffc4c4" stroke="none"/><path d="M230.35206,167.34096c0,0.03735 -0.03028,0.06764 -0.06763,0.06764c-0.03736,0 -0.06764,-0.03028 -0.06764,-0.06764c0,-0.03735 0.03028,-0.06763 0.06764,-0.06763c0.03736,0 0.06763,0.03028 0.06763,0.06763z" fill="#ff7272" stroke="none"/></g><g><path d="M229.48598,167.49784c0.19454,0 0.35225,0.15771 0.35225,0.35225c0,0.19454 -0.15771,0.35225 -0.35225,0.35225c-0.19454,0 -0.35225,-0.15771 -0.35225,-0.35225c0,-0.19454 0.15771,-0.35225 0.35225,-0.35225z" fill="#c30007" stroke="#8a0005"/><path d="M229.67385,167.82004c0.03735,0 0.06764,0.03028 0.06764,0.06763c0,0.03735 -0.03028,0.06763 -0.06764,0.06763c-0.03735,0 -0.06763,-0.03028 -0.06763,-0.06763c0,-0.03735 0.03028,-0.06763 0.06763,-0.06763z" fill="#ff7272" stroke="none"/><path d="M229.43714,167.76931c0.01868,0 0.03382,0.01514 0.03382,0.03382c0,0.01868 -0.01514,0.03381 -0.03382,0.03381c-0.01868,0 -0.03381,-0.01514 -0.03381,-0.03381c0,-0.01868 0.01514,-0.03382 0.03381,-0.03382z" fill="#ff9191" stroke="none"/><path d="M229.6344,167.67914c0.02179,0 0.03945,0.01766 0.03945,0.03945c0,0.02179 -0.01766,0.03945 -0.03945,0.03945c-0.02179,0 -0.03945,-0.01766 -0.03945,-0.03945c0,-0.02179 0.01766,-0.03945 0.03945,-0.03945z" fill="#ffaeae" stroke="none"/><path d="M229.48223,167.57769c0.03735,0 0.06764,0.03028 0.06764,0.06763c0,0.03735 -0.03028,0.06764 -0.06764,0.06764c-0.03735,0 -0.06763,-0.03028 -0.06763,-0.06764c0,-0.03735 0.03028,-0.06763 0.06763,-0.06763z" fill="#ff7272" stroke="none"/><path d="M229.30469,167.65658c0.01401,0 0.02536,0.01135 0.02536,0.02536c0,0.01401 -0.01135,0.02536 -0.02536,0.02536c-0.01401,0 -0.02536,-0.01135 -0.02536,-0.02536c0,-0.01401 0.01135,-0.02536 0.02536,-0.02536z" fill="#ffc4c4" stroke="none"/><path d="M229.51886,167.92431c0.01556,0 0.02818,0.01261 0.02818,0.02818c0,0.01556 -0.01261,0.02818 -0.02818,0.02818c-0.01556,0 -0.02818,-0.01262 -0.02818,-0.02818c0,-0.01556 0.01262,-0.02818 0.02818,-0.02818z" fill="#ffa3a3" stroke="none"/><path d="M229.25115,167.7975c0.02179,0 0.03945,0.01766 0.03945,0.03945c0,0.02179 -0.01766,0.03945 -0.03945,0.03945c-0.02179,0 -0.03945,-0.01766 -0.03945,-0.03945c0,-0.02179 0.01766,-0.03945 0.03945,-0.03945z" fill="#ff9898" stroke="none"/><path d="M229.44559,168.05957c0.01556,0 0.02818,0.01261 0.02818,0.02818c0,0.01556 -0.01262,0.02818 -0.02818,0.02818c-0.01556,0 -0.02818,-0.01262 -0.02818,-0.02818c0,-0.01556 0.01261,-0.02818 0.02818,-0.02818z" fill="#ffc4c4" stroke="none"/><path d="M229.33569,167.92149c0.03735,0 0.06764,0.03028 0.06764,0.06764c0,0.03735 -0.03028,0.06764 -0.06764,0.06764c-0.03735,0 -0.06764,-0.03028 -0.06764,-0.06764c0,-0.03735 0.03028,-0.06764 0.06764,-0.06764z" fill="#ff7272" stroke="none"/></g><g><path d="M228.96465,168.83639c0,-0.19454 0.15771,-0.35225 0.35225,-0.35225c0.19454,0 0.35225,0.15771 0.35225,0.35225c0,0.19454 -0.15771,0.35225 -0.35225,0.35225c-0.19454,0 -0.35225,-0.15771 -0.35225,-0.35225z" fill="#c30007" stroke="#8a0005"/><path d="M229.43714,168.79884c0,-0.03735 0.03028,-0.06764 0.06764,-0.06764c0.03735,0 0.06764,0.03028 0.06764,0.06764c0,0.03735 -0.03028,0.06764 -0.06764,0.06764c-0.03735,0 -0.06764,-0.03028 -0.06764,-0.06764z" fill="#ff7272" stroke="none"/><path d="M229.23424,168.88337c0,-0.01868 0.01514,-0.03382 0.03381,-0.03382c0.01868,0 0.03382,0.01514 0.03382,0.03382c0,0.01868 -0.01514,0.03381 -0.03382,0.03381c-0.01868,0 -0.03381,-0.01514 -0.03381,-0.03381z" fill="#ff9191" stroke="none"/><path d="M229.42587,168.96792c0,-0.02179 0.01766,-0.03945 0.03945,-0.03945c0.02179,0 0.03945,0.01766 0.03945,0.03945c0,0.02179 -0.01766,0.03945 -0.03945,0.03945c-0.02179,0 -0.03945,-0.01766 -0.03945,-0.03945z" fill="#ffaeae" stroke="none"/><path d="M229.24551,169.04118c0,-0.03735 0.03028,-0.06763 0.06764,-0.06763c0.03735,0 0.06764,0.03028 0.06764,0.06763c0,0.03735 -0.03028,0.06764 -0.06764,0.06764c-0.03735,0 -0.06764,-0.03028 -0.06764,-0.06764z" fill="#ff7272" stroke="none"/><path d="M229.11025,169.00454c0,-0.01401 0.01135,-0.02536 0.02536,-0.02536c0.01401,0 0.02536,0.01135 0.02536,0.02536c0,0.01401 -0.01135,0.02536 -0.02536,0.02536c-0.01401,0 -0.02536,-0.01135 -0.02536,-0.02536z" fill="#ffc4c4" stroke="none"/><path d="M229.3216,168.73402c0,-0.01556 0.01262,-0.02818 0.02818,-0.02818c0.01556,0 0.02818,0.01261 0.02818,0.02818c0,0.01556 -0.01261,0.02818 -0.02818,0.02818c-0.01556,0 -0.02818,-0.01262 -0.02818,-0.02818z" fill="#ffa3a3" stroke="none"/><path d="M229.04261,168.84955c0,-0.02179 0.01766,-0.03945 0.03945,-0.03945c0.02179,0 0.03945,0.01766 0.03945,0.03945c0,0.02179 -0.01766,0.03945 -0.03945,0.03945c-0.02179,0 -0.03945,-0.01766 -0.03945,-0.03945z" fill="#ff9898" stroke="none"/><path d="M229.24833,168.59874c0,-0.01556 0.01262,-0.02818 0.02818,-0.02818c0.01556,0 0.02818,0.01261 0.02818,0.02818c0,0.01556 -0.01261,0.02818 -0.02818,0.02818c-0.01556,0 -0.02818,-0.01262 -0.02818,-0.02818z" fill="#ffc4c4" stroke="none"/><path d="M229.09897,168.69739c0,-0.03735 0.03028,-0.06764 0.06764,-0.06764c0.03735,0 0.06763,0.03028 0.06763,0.06764c0,0.03735 -0.03028,0.06763 -0.06763,0.06763c-0.03735,0 -0.06764,-0.03028 -0.06764,-0.06763z" fill="#ff7272" stroke="none"/></g><g><path d="M229.93687,169.27321c0.19454,0 0.35225,0.15771 0.35225,0.35225c0,0.19454 -0.15771,0.35225 -0.35225,0.35225c-0.19455,0 -0.35225,-0.15771 -0.35225,-0.35225c0,-0.19454 0.15771,-0.35225 0.35225,-0.35225z" fill="#c30007" stroke="#8a0005"/><path d="M230.12473,169.5954c0.03735,0 0.06763,0.03028 0.06763,0.06763c0,0.03735 -0.03028,0.06764 -0.06763,0.06764c-0.03736,0 -0.06763,-0.03028 -0.06763,-0.06764c0,-0.03735 0.03028,-0.06763 0.06763,-0.06763z" fill="#ff7272" stroke="none"/><path d="M229.88802,169.54466c0.01868,0 0.03382,0.01514 0.03382,0.03382c0,0.01868 -0.01514,0.03381 -0.03382,0.03381c-0.01868,0 -0.03381,-0.01514 -0.03381,-0.03381c0,-0.01868 0.01514,-0.03382 0.03381,-0.03382z" fill="#ff9191" stroke="none"/><path d="M230.08529,169.45449c0.02179,0 0.03945,0.01766 0.03945,0.03945c0,0.02179 -0.01766,0.03945 -0.03945,0.03945c-0.02179,0 -0.03945,-0.01766 -0.03945,-0.03945c0,-0.02179 0.01766,-0.03945 0.03945,-0.03945z" fill="#ffaeae" stroke="none"/><path d="M229.93311,169.35304c0.03736,0 0.06764,0.03028 0.06764,0.06763c0,0.03735 -0.03028,0.06764 -0.06764,0.06764c-0.03735,0 -0.06763,-0.03028 -0.06763,-0.06764c0,-0.03735 0.03028,-0.06763 0.06763,-0.06763z" fill="#ff7272" stroke="none"/><path d="M229.75558,169.43193c0.01401,0 0.02536,0.01135 0.02536,0.02536c0,0.01401 -0.01135,0.02536 -0.02536,0.02536c-0.01401,0 -0.02536,-0.01135 -0.02536,-0.02536c0,-0.01401 0.01135,-0.02536 0.02536,-0.02536z" fill="#ffc4c4" stroke="none"/><path d="M229.96975,169.69965c0.01556,0 0.02818,0.01262 0.02818,0.02818c0,0.01556 -0.01262,0.02818 -0.02818,0.02818c-0.01556,0 -0.02818,-0.01262 -0.02818,-0.02818c0,-0.01556 0.01261,-0.02818 0.02818,-0.02818z" fill="#ffa3a3" stroke="none"/><path d="M229.70203,169.57285c0.02179,0 0.03945,0.01766 0.03945,0.03945c0,0.02179 -0.01766,0.03945 -0.03945,0.03945c-0.02179,0 -0.03945,-0.01766 -0.03945,-0.03945c0,-0.02179 0.01766,-0.03945 0.03945,-0.03945z" fill="#ff9898" stroke="none"/><path d="M229.89648,169.83493c0.01556,0 0.02818,0.01262 0.02818,0.02818c0,0.01556 -0.01262,0.02818 -0.02818,0.02818c-0.01556,0 -0.02818,-0.01261 -0.02818,-0.02818c0,-0.01556 0.01261,-0.02818 0.02818,-0.02818z" fill="#ffc4c4" stroke="none"/><path d="M229.78657,169.69685c0.03735,0 0.06763,0.03028 0.06763,0.06764c0,0.03735 -0.03028,0.06763 -0.06763,0.06763c-0.03735,0 -0.06764,-0.03028 -0.06764,-0.06763c0,-0.03735 0.03028,-0.06764 0.06764,-0.06764z" fill="#ff7272" stroke="none"/></g><g><path d="M230.26094,170.35814c0,-0.19454 0.15771,-0.35225 0.35225,-0.35225c0.19454,0 0.35225,0.15771 0.35225,0.35225c0,0.19454 -0.15771,0.35225 -0.35225,0.35225c-0.19454,0 -0.35225,-0.15771 -0.35225,-0.35225z" fill="#c30007" stroke="#8a0005"/><path d="M230.73343,170.32057c0,-0.03735 0.03028,-0.06764 0.06764,-0.06764c0.03736,0 0.06764,0.03028 0.06764,0.06764c0,0.03735 -0.03028,0.06764 -0.06764,0.06764c-0.03736,0 -0.06764,-0.03028 -0.06764,-0.06764z" fill="#ff7272" stroke="none"/><path d="M230.53053,170.40511c0,-0.01868 0.01514,-0.03382 0.03382,-0.03382c0.01868,0 0.03382,0.01514 0.03382,0.03382c0,0.01868 -0.01514,0.03381 -0.03382,0.03381c-0.01868,0 -0.03382,-0.01514 -0.03382,-0.03381z" fill="#ff9191" stroke="none"/><path d="M230.72216,170.48965c0,-0.02179 0.01766,-0.03945 0.03945,-0.03945c0.02179,0 0.03945,0.01766 0.03945,0.03945c0,0.02179 -0.01766,0.03945 -0.03945,0.03945c-0.02179,0 -0.03945,-0.01766 -0.03945,-0.03945z" fill="#ffaeae" stroke="none"/><path d="M230.54181,170.56292c0,-0.03735 0.03028,-0.06763 0.06764,-0.06763c0.03736,0 0.06764,0.03028 0.06764,0.06763c0,0.03735 -0.03028,0.06764 -0.06764,0.06764c-0.03736,0 -0.06764,-0.03028 -0.06764,-0.06764z" fill="#ff7272" stroke="none"/><path d="M230.40654,170.52629c0,-0.01401 0.01135,-0.02536 0.02536,-0.02536c0.01401,0 0.02536,0.01135 0.02536,0.02536c0,0.01401 -0.01136,0.02536 -0.02536,0.02536c-0.01401,0 -0.02536,-0.01135 -0.02536,-0.02536z" fill="#ffc4c4" stroke="none"/><path d="M230.61789,170.25575c0,-0.01556 0.01262,-0.02818 0.02818,-0.02818c0.01556,0 0.02818,0.01261 0.02818,0.02818c0,0.01556 -0.01262,0.02818 -0.02818,0.02818c-0.01556,0 -0.02818,-0.01262 -0.02818,-0.02818z" fill="#ffa3a3" stroke="none"/><path d="M230.33891,170.37129c0,-0.02179 0.01766,-0.03945 0.03945,-0.03945c0.02179,0 0.03945,0.01766 0.03945,0.03945c0,0.02179 -0.01766,0.03945 -0.03945,0.03945c-0.02179,0 -0.03945,-0.01766 -0.03945,-0.03945z" fill="#ff9898" stroke="none"/><path d="M230.54462,170.12049c0,-0.01556 0.01262,-0.02818 0.02818,-0.02818c0.01556,0 0.02818,0.01261 0.02818,0.02818c0,0.01556 -0.01262,0.02818 -0.02818,0.02818c-0.01556,0 -0.02818,-0.01262 -0.02818,-0.02818z" fill="#ffc4c4" stroke="none"/><path d="M230.39527,170.21912c0,-0.03735 0.03028,-0.06764 0.06764,-0.06764c0.03735,0 0.06763,0.03028 0.06763,0.06764c0,0.03735 -0.03028,0.06763 -0.06763,0.06763c-0.03736,0 -0.06764,-0.03028 -0.06764,-0.06763z" fill="#ff7272" stroke="none"/></g><g><path d="M231.62769,170.7104c-0.19454,0 -0.35225,-0.15771 -0.35225,-0.35225c0,-0.19454 0.15771,-0.35225 0.35225,-0.35225c0.19454,0 0.35225,0.15771 0.35225,0.35225c0,0.19454 -0.15771,0.35225 -0.35225,0.35225z" fill="#c30007" stroke="#8a0005"/><path d="M231.43982,170.3882c-0.03736,0 -0.06764,-0.03028 -0.06764,-0.06764c0,-0.03735 0.03028,-0.06764 0.06764,-0.06764c0.03736,0 0.06764,0.03028 0.06764,0.06764c0,0.03735 -0.03028,0.06764 -0.06764,0.06764z" fill="#ff7272" stroke="none"/><path d="M231.67653,170.43892c-0.01867,0 -0.03381,-0.01514 -0.03381,-0.03381c0,-0.01868 0.01514,-0.03382 0.03381,-0.03382c0.01867,0 0.03381,0.01514 0.03381,0.03382c0,0.01868 -0.01514,0.03381 -0.03381,0.03381z" fill="#ff9191" stroke="none"/><path d="M231.47927,170.52911c-0.02179,0 -0.03945,-0.01766 -0.03945,-0.03945c0,-0.02179 0.01766,-0.03945 0.03945,-0.03945c0.02179,0 0.03945,0.01766 0.03945,0.03945c0,0.02179 -0.01766,0.03945 -0.03945,0.03945z" fill="#ffaeae" stroke="none"/><path d="M231.63144,170.63054c-0.03736,0 -0.06764,-0.03028 -0.06764,-0.06764c0,-0.03735 0.03028,-0.06763 0.06764,-0.06763c0.03736,0 0.06764,0.03028 0.06764,0.06763c0,0.03735 -0.03028,0.06764 -0.06764,0.06764z" fill="#ff7272" stroke="none"/><path d="M231.80898,170.55164c-0.01401,0 -0.02536,-0.01135 -0.02536,-0.02536c0,-0.01401 0.01136,-0.02536 0.02536,-0.02536c0.01401,0 0.02536,0.01135 0.02536,0.02536c0,0.01401 -0.01135,0.02536 -0.02536,0.02536z" fill="#ffc4c4" stroke="none"/><path d="M231.59481,170.28392c-0.01556,0 -0.02818,-0.01262 -0.02818,-0.02818c0,-0.01556 0.01262,-0.02818 0.02818,-0.02818c0.01556,0 0.02818,0.01261 0.02818,0.02818c0,0.01556 -0.01262,0.02818 -0.02818,0.02818z" fill="#ffa3a3" stroke="none"/><path d="M231.86252,170.41075c-0.02179,0 -0.03945,-0.01766 -0.03945,-0.03945c0,-0.02179 0.01766,-0.03945 0.03945,-0.03945c0.02179,0 0.03945,0.01766 0.03945,0.03945c0,0.02179 -0.01766,0.03945 -0.03945,0.03945z" fill="#ff9898" stroke="none"/><path d="M231.66808,170.14867c-0.01556,0 -0.02818,-0.01262 -0.02818,-0.02818c0,-0.01556 0.01262,-0.02818 0.02818,-0.02818c0.01556,0 0.02818,0.01261 0.02818,0.02818c0,0.01556 -0.01262,0.02818 -0.02818,0.02818z" fill="#ffc4c4" stroke="none"/><path d="M231.77798,170.28675c-0.03735,0 -0.06763,-0.03028 -0.06763,-0.06764c0,-0.03735 0.03028,-0.06764 0.06763,-0.06764c0.03736,0 0.06764,0.03028 0.06764,0.06764c0,0.03735 -0.03028,0.06764 -0.06764,0.06764z" fill="#ff7272" stroke="none"/></g><g><path d="M230.65547,169.51274c0,-0.19454 0.15771,-0.35225 0.35225,-0.35225c0.19454,0 0.35225,0.15771 0.35225,0.35225c0,0.19454 -0.15771,0.35225 -0.35225,0.35225c-0.19454,0 -0.35225,-0.15771 -0.35225,-0.35225z" fill="#c30007" stroke="#8a0005"/><path d="M231.12796,169.47516c0,-0.03735 0.03028,-0.06763 0.06763,-0.06763c0.03736,0 0.06763,0.03028 0.06763,0.06763c0,0.03735 -0.03028,0.06764 -0.06763,0.06764c-0.03736,0 -0.06763,-0.03028 -0.06763,-0.06764z" fill="#ff7272" stroke="none"/><path d="M230.92506,169.5597c0,-0.01868 0.01514,-0.03381 0.03382,-0.03381c0.01868,0 0.03382,0.01514 0.03382,0.03381c0,0.01868 -0.01514,0.03382 -0.03382,0.03382c-0.01868,0 -0.03382,-0.01514 -0.03382,-0.03382z" fill="#ff9191" stroke="none"/><path d="M231.11668,169.64424c0,-0.02179 0.01766,-0.03945 0.03945,-0.03945c0.02179,0 0.03945,0.01766 0.03945,0.03945c0,0.02179 -0.01766,0.03945 -0.03945,0.03945c-0.02179,0 -0.03945,-0.01766 -0.03945,-0.03945z" fill="#ffaeae" stroke="none"/><path d="M230.93633,169.71751c0,-0.03735 0.03028,-0.06764 0.06763,-0.06764c0.03735,0 0.06763,0.03028 0.06763,0.06764c0,0.03735 -0.03028,0.06764 -0.06763,0.06764c-0.03735,0 -0.06763,-0.03028 -0.06763,-0.06764z" fill="#ff7272" stroke="none"/><path d="M230.80106,169.68086c0,-0.01401 0.01135,-0.02536 0.02536,-0.02536c0.01401,0 0.02536,0.01135 0.02536,0.02536c0,0.01401 -0.01135,0.02536 -0.02536,0.02536c-0.01401,0 -0.02536,-0.01135 -0.02536,-0.02536z" fill="#ffc4c4" stroke="none"/><path d="M231.01242,169.41035c0,-0.01556 0.01262,-0.02818 0.02818,-0.02818c0.01556,0 0.02818,0.01262 0.02818,0.02818c0,0.01556 -0.01261,0.02818 -0.02818,0.02818c-0.01556,0 -0.02818,-0.01261 -0.02818,-0.02818z" fill="#ffa3a3" stroke="none"/><path d="M230.73343,169.52589c0,-0.02179 0.01766,-0.03945 0.03945,-0.03945c0.02179,0 0.03945,0.01766 0.03945,0.03945c0,0.02179 -0.01766,0.03945 -0.03945,0.03945c-0.02179,0 -0.03945,-0.01766 -0.03945,-0.03945z" fill="#ff9898" stroke="none"/><path d="M230.93915,169.27508c0,-0.01556 0.01261,-0.02818 0.02818,-0.02818c0.01556,0 0.02818,0.01262 0.02818,0.02818c0,0.01556 -0.01262,0.02818 -0.02818,0.02818c-0.01556,0 -0.02818,-0.01261 -0.02818,-0.02818z" fill="#ffc4c4" stroke="none"/><path d="M230.78979,169.37371c0,-0.03735 0.03028,-0.06763 0.06763,-0.06763c0.03735,0 0.06763,0.03028 0.06763,0.06763c0,0.03735 -0.03028,0.06764 -0.06763,0.06764c-0.03735,0 -0.06763,-0.03028 -0.06763,-0.06764z" fill="#ff7272" stroke="none"/></g></g><g fill="#81ff35" stroke="#68cc2b" stroke-width="0.15"><path d="M230.90981,168.82256c-0.05339,0.0123 -0.14065,0.02634 -0.20859,0.0157c-0.02667,-0.02953 -0.05951,-0.05339 -0.09648,-0.06954c-0.04494,-0.19494 0.24718,-0.11655 0.28744,-0.18267c0.00028,-0.00046 0.00057,-0.00092 0.00085,-0.00139c0.01641,0.02212 0.03587,0.04626 0.05802,0.07544c0.00599,0.0079 -0.0209,0.04722 -0.02288,0.05553c-0.00532,0.02245 -0.01363,0.0629 -0.01837,0.10693z" data-paper-data="{&quot;index&quot;:null}"/><path d="M232.6363,168.71529c0.00124,-0.15851 0.14883,-0.15477 0.30234,-0.1614c0.00753,0.02443 0.01317,0.04845 0.01423,0.07177c0.00239,0.0526 -0.01394,0.10768 -0.01691,0.15959c-0.00144,0.02517 -0.01043,0.0422 -0.02324,0.05495c-0.05031,-0.07694 -0.13723,-0.12778 -0.23602,-0.12778c-0.01372,0 -0.02721,0.00098 -0.04041,0.00287z" data-paper-data="{&quot;index&quot;:null}"/><path d="M230.83515,170.39235c-0.00197,-0.00831 -0.02887,-0.04764 -0.02288,-0.05553c0.02216,-0.02917 0.04162,-0.05331 0.05803,-0.07544c0.00028,0.00046 0.00056,0.00092 0.00084,0.00139c0.04026,0.06612 0.33238,-0.01227 0.28744,0.18267c-0.03697,0.01616 -0.06981,0.04001 -0.09648,0.06954c-0.06794,0.01064 -0.1552,-0.0034 -0.20859,-0.0157c-0.00474,-0.04403 -0.01305,-0.08449 -0.01836,-0.10693z" data-paper-data="{&quot;index&quot;:null}"/><path d="M229.45193,169.83418c0.01319,0.00189 0.02669,0.00287 0.04041,0.00287c0.09879,0 0.18571,-0.05084 0.23602,-0.12777c0.0128,0.01274 0.0218,0.02977 0.02324,0.05494c0.00296,0.0519 0.0193,0.10699 0.01691,0.15959c-0.00106,0.02332 -0.0067,0.04734 -0.01423,0.07177c-0.15351,-0.00664 -0.30111,-0.00289 -0.30235,-0.1614z" data-paper-data="{&quot;index&quot;:null}"/><path d="M230.39664,167.3024c0,-0.01157 -0.00062,-0.02277 -0.00182,-0.03362c0.02832,-0.00924 0.05846,-0.02427 0.08851,-0.0429c0.01399,0.00214 0.02832,0.00325 0.04292,0.00325c0.00786,0.00197 0.01541,0.00385 0.02257,0.00564h0.05448c0.02776,0.02082 0.05388,0.03554 0.07935,0.04514c-0.03011,0.08882 -0.10557,0.15671 -0.19882,0.1761c-0.01694,-0.0511 -0.04811,-0.09571 -0.08882,-0.12914c0.00106,-0.00808 0.00162,-0.01624 0.00162,-0.02447z" data-paper-data="{&quot;index&quot;:null}"/></g></g></g></g></g></svg>