<svg version="1.1" xmlns="http://www.w3.org/2000/svg" xmlns:xlink="http://www.w3.org/1999/xlink" width="43.03811" height="41.96123" viewBox="0,0,43.03811,41.96123"><defs><linearGradient x1="225.63501" y1="163.29985" x2="225.63501" y2="166.84483" gradientUnits="userSpaceOnUse" id="color-1"><stop offset="0" stop-color="#ffbd00"/><stop offset="1" stop-color="#ffb700"/></linearGradient><linearGradient x1="254.61709" y1="164.06465" x2="254.61709" y2="167.60965" gradientUnits="userSpaceOnUse" id="color-2"><stop offset="0" stop-color="#ffbd00"/><stop offset="1" stop-color="#ffb700"/></linearGradient><linearGradient x1="240.71178" y1="142.98014" x2="240.71178" y2="171.25623" gradientUnits="userSpaceOnUse" id="color-3"><stop offset="0" stop-color="#ffee00"/><stop offset="1" stop-color="#ffad00"/></linearGradient><linearGradient x1="240.71178" y1="142.98014" x2="240.71178" y2="171.25623" gradientUnits="userSpaceOnUse" id="color-4"><stop offset="0" stop-color="#ffee00"/><stop offset="1" stop-color="#ffad00"/></linearGradient><linearGradient x1="221.47669" y1="156.9286" x2="259.53283" y2="156.9286" gradientUnits="userSpaceOnUse" id="color-5"><stop offset="0" stop-color="#3ef9ff"/><stop offset="1" stop-color="#5b74fa"/></linearGradient></defs><g transform="translate(-218.99946,-139.23014)"><g data-paper-data="{&quot;isPaintingLayer&quot;:true}" fill-rule="nonzero" stroke-linejoin="miter" stroke-miterlimit="10" stroke-dasharray="" stroke-dashoffset="0" style="mix-blend-mode: normal"><path d="M222.74946,163.3068c1.90678,-0.02294 3.81487,0.01146 5.71997,0.09478c0.05812,0.00096 0.11541,0.00526 0.17167,0.01272c0.26824,0.02916 0.44579,0.09782 0.57821,0.20586c0.42962,0.26471 0.71261,0.74276 0.70364,1.28391c-0.01321,0.79719 -0.65512,1.43653 -1.44549,1.45339c-0.01893,0.0004 -0.03793,0.00045 -0.05702,0.00013v0c-2.15405,0.02276 -4.95813,1.25648 -6.45591,-0.29178c-0.97353,-1.00633 -0.85673,-2.73928 0.78493,-2.75903z" data-paper-data="{&quot;index&quot;:null}" fill="url(#color-1)" stroke="#4fa9fc" stroke-width="7.5" stroke-linecap="butt"/><path d="M257.50264,164.07159c1.64165,0.01975 1.75845,1.75269 0.78493,2.75903c-1.49778,1.54826 -4.30186,0.31454 -6.45591,0.29178v0c-0.01909,0.00032 -0.03809,0.00027 -0.05702,-0.00013c-0.79036,-0.01686 -1.43228,-0.65619 -1.44549,-1.45339c-0.00896,-0.54115 0.27403,-1.0192 0.70364,-1.28392c0.13241,-0.10803 0.30996,-0.17669 0.57821,-0.20586c0.05626,-0.00746 0.11355,-0.01176 0.17167,-0.01272c1.9051,-0.08332 3.81319,-0.11771 5.71997,-0.09478z" data-paper-data="{&quot;index&quot;:null}" fill="url(#color-2)" stroke="#4fa9fc" stroke-width="7.5" stroke-linecap="butt"/><path d="M236.73842,175.96316c-0.04694,1.64109 -1.78158,1.72917 -2.77165,0.73911c-1.52323,-1.52323 -0.24323,-4.30648 -0.18478,-6.45986v0c0,-0.01909 0.00036,-0.03809 0.00108,-0.05701c0.02995,-0.78997 0.67983,-1.42121 1.47714,-1.42121c0.54123,0 1.01452,0.29087 1.27208,0.72482c0.10582,0.13418 0.17154,0.31285 0.19625,0.58154c0.00653,0.05638 0.00988,0.11373 0.00988,0.17186c0.05174,1.90622 0.05452,3.81462 0,5.72076z" fill="#ffae00" stroke="#4fa9fc" stroke-width="7.5" stroke-linecap="butt"/><path d="M246.37285,168.13715c0.0332,0.05902 0.06414,0.13467 0.09294,0.22504c0.03401,0.09168 0.05918,0.18766 0.07449,0.28689c0.35306,1.64096 0.30053,5.87749 0.18812,7.31409c-0.06091,0.77843 -0.44199,1.47821 -1.47821,1.47821c-2.11119,0 -1.69399,-7.45867 -1.64898,-8.56512c0,-0.02747 0.00075,-0.05477 0.00223,-0.08188c0.04249,-0.77831 0.68706,-1.39634 1.47598,-1.39634c0.48105,0 0.90844,0.22979 1.17838,0.58559c0.04406,0.04551 0.08284,0.09625 0.11506,0.15352z" fill="#ffae00" stroke="#4fa9fc" stroke-width="7.5" stroke-linecap="butt"/><path d="M231.34661,144.19391c11.33058,-3.92006 28.50285,1.88514 26.65836,14.09518c-1.84449,12.21004 -19.4693,17.07918 -30.14516,8.98651c-7.84,-5.943 -4.55706,-16.67542 1.95179,-22.02455z" fill="url(#color-3)" stroke="#4fa9fc" stroke-width="7.5" stroke-linecap="butt"/><path d="M222.74946,163.3068c1.90678,-0.02294 3.81487,0.01146 5.71997,0.09478c0.05812,0.00096 0.11541,0.00526 0.17167,0.01272c0.26824,0.02916 0.44579,0.09782 0.57821,0.20586c0.42962,0.26471 0.71261,0.74276 0.70364,1.28391c-0.01321,0.79719 -0.65512,1.43653 -1.44549,1.45339c-0.01893,0.0004 -0.03793,0.00045 -0.05702,0.00013v0c-2.15405,0.02276 -4.95813,1.25648 -6.45591,-0.29178c-0.97353,-1.00633 -0.85673,-2.73928 0.78493,-2.75903z" data-paper-data="{&quot;index&quot;:null}" fill="#3ff4ff" stroke="none" stroke-width="0.5" stroke-linecap="butt"/><path d="M257.50264,164.07159c1.64165,0.01975 1.75845,1.75269 0.78493,2.75903c-1.49778,1.54826 -4.30186,0.31454 -6.45591,0.29178v0c-0.01909,0.00032 -0.03809,0.00027 -0.05702,-0.00013c-0.79036,-0.01686 -1.43228,-0.65619 -1.44549,-1.45339c-0.00896,-0.54115 0.27403,-1.0192 0.70364,-1.28392c0.13241,-0.10803 0.30996,-0.17669 0.57821,-0.20586c0.05626,-0.00746 0.11355,-0.01176 0.17167,-0.01272c1.9051,-0.08332 3.81319,-0.11771 5.71997,-0.09478z" data-paper-data="{&quot;index&quot;:null}" fill="#5882fb" stroke="none" stroke-width="0.5" stroke-linecap="butt"/><path d="M236.73842,175.96316c-0.04694,1.64109 -1.78158,1.72917 -2.77165,0.73911c-1.52323,-1.52323 -0.24323,-4.30648 -0.18478,-6.45986v0c0,-0.01909 0.00036,-0.03809 0.00108,-0.05701c0.02995,-0.78997 0.67983,-1.42121 1.47714,-1.42121c0.54123,0 1.01452,0.29087 1.27208,0.72482c0.10582,0.13418 0.17154,0.31285 0.19625,0.58154c0.00653,0.05638 0.00988,0.11373 0.00988,0.17186c0.05174,1.90622 0.05452,3.81462 0,5.72076z" fill="#48cafd" stroke="none" stroke-width="0.5" stroke-linecap="butt"/><path d="M246.37285,168.13715c0.0332,0.05902 0.06414,0.13467 0.09294,0.22504c0.03401,0.09168 0.05918,0.18766 0.07449,0.28689c0.35306,1.64096 0.30053,5.87749 0.18812,7.31409c-0.06091,0.77843 -0.44199,1.47821 -1.47821,1.47821c-2.11119,0 -1.69399,-7.45867 -1.64898,-8.56512c0,-0.02747 0.00075,-0.05477 0.00223,-0.08188c0.04249,-0.77831 0.68706,-1.39634 1.47598,-1.39634c0.48105,0 0.90844,0.22979 1.17838,0.58559c0.04406,0.04551 0.08284,0.09625 0.11506,0.15352z" fill="#50a8fc" stroke="none" stroke-width="0.5" stroke-linecap="butt"/><path d="M229.81161,145.25106c0.30419,-0.44051 0.7314,-0.66078 0.7314,-0.66078l0.44543,-0.2197c0.05928,-0.03541 0.16503,-0.09365 0.30335,-0.14962l0.05482,-0.02704c11.33058,-3.92006 28.50285,1.88514 26.65836,14.09518c-1.84449,12.21004 -19.4693,17.07918 -30.14516,8.98651c-7.84,-5.943 -4.55706,-16.67542 1.95179,-22.02455z" fill="url(#color-4)" stroke="none" stroke-width="0.5" stroke-linecap="butt"/><g><path d="M221.47669,156.9286c0,-8.90538 8.51916,-16.12462 19.02807,-16.12462c10.50891,0 19.02807,7.21924 19.02807,16.12462c0,8.90538 -8.51916,16.12462 -19.02807,16.12462c-10.50891,0 -19.02807,-7.21924 -19.02807,-16.12462z" fill="url(#color-5)" stroke="none" stroke-width="0" stroke-linecap="butt"/><path d="M246.35911,163.18589l3.85289,-10.30664l8.76754,0.45101" fill="none" stroke="#000000" stroke-width="2.5" stroke-linecap="round"/><path d="M225.80193,163.04282c0,0 6.78836,2.09304 8.15447,-0.17625c0.0703,-3.24184 0.5129,-5.59442 1.16505,-6.00936c3.27424,-2.08326 11.06786,6.24417 11.06786,6.24417" fill="none" stroke="#000000" stroke-width="2.5" stroke-linecap="round"/><path d="M225.1293,164.18241v-6.87982h2.1678v6.87982z" fill="#a7131e" stroke="none" stroke-width="0" stroke-linecap="butt"/><path d="M228.41664,154.42017c0,0 0.49164,4.50222 -2.40158,4.52051c-2.93611,0.01856 -2.27406,-3.25981 -2.27406,-3.25981c0,0 0.86839,0.09005 2.35907,0.09005c1.40567,-0.57632 2.31657,-1.35075 2.31657,-1.35075z" fill="#00fd4b" stroke="none" stroke-width="0" stroke-linecap="butt"/></g><g fill="#000000" stroke="none" stroke-width="0.5" stroke-linecap="butt"><path d="M238.94735,151.20703c0,-0.57148 0.46327,-1.03475 1.03475,-1.03475c0.57148,0 1.03475,0.46327 1.03475,1.03475c0,0.57148 -0.46327,1.03475 -1.03475,1.03475c-0.57148,0 -1.03475,-0.46327 -1.03475,-1.03475z"/><path d="M241.47156,148.80303c0,-0.57148 0.46327,-1.03475 1.03475,-1.03475c0.57148,0 1.03475,0.46327 1.03475,1.03475c0,0.57148 -0.46327,1.03475 -1.03475,1.03475c-0.57148,0 -1.03475,-0.46327 -1.03475,-1.03475z"/><path d="M248.07871,145.96616c1.03385,0.04318 0.99067,1.07703 0.99067,1.07703l-0.03871,0.88537c-0.17293,1.65417 -0.50318,4.35603 -1.66003,5.70581c-2.52314,2.94394 -8.77791,1.79295 -11.66317,0.01272c0,0 -0.87747,-0.54842 -0.32905,-1.42588c0.54842,-0.87747 1.42588,-0.32905 1.42588,-0.32905c1.82445,1.15853 3.84227,1.23443 5.97139,1.27371c1.13681,0.02097 2.19217,0.22183 2.99094,-0.83917c0.84844,-1.12695 1.08091,-3.29692 1.20481,-4.60407l0.03024,-0.7658c0,0 0.04318,-1.03385 1.07703,-0.99067z"/></g><g><path d="M226.60168,174.28529v-19.32729h27.93398v19.32729z" fill="#ffb300" stroke="none" stroke-width="0" stroke-linecap="butt"/><path d="M227.47786,154.3838c0,0 8.92838,-13.63441 13.29045,-13.65838c4.76297,-0.02617 14.19054,13.50738 14.19054,13.50738" fill="none" stroke="#a77500" stroke-width="2" stroke-linecap="round"/><text transform="translate(237.04241,167.83027) scale(0.16955,0.16955)" font-size="40" xml:space="preserve" fill="#a77500" fill-rule="nonzero" stroke="none" stroke-width="1" stroke-linecap="butt" stroke-linejoin="miter" stroke-miterlimit="10" stroke-dasharray="" stroke-dashoffset="0" font-family="Sans Serif" font-weight="normal" text-anchor="start" style="mix-blend-mode: normal"><tspan x="0" dy="0">34</tspan></text><g stroke-linecap="butt"><path d="M231.08861,165.05965c0,-1.56503 1.2687,-2.83373 2.83373,-2.83373c1.56503,0 2.83373,1.2687 2.83373,2.83373c0,1.56503 -1.2687,2.83373 -2.83373,2.83373c-1.56503,0 -2.83373,-1.2687 -2.83373,-2.83373z" fill="#ffbe4f" stroke="#ffbe4f" stroke-width="2"/><path d="M235.90751,165.14106c0,1.15209 -0.90622,2.08605 -2.02409,2.08605c-1.11788,0 -2.02409,-0.93396 -2.02409,-2.08605c0,-1.15209 0.90622,-2.08605 2.02409,-2.08605c1.11788,0 2.02409,0.93396 2.02409,2.08605z" fill="#ff4f4f" stroke="#ff4f4f" stroke-width="2"/><g stroke-width="0.25"><path d="M231.42811,165.05965c0,-1.37753 1.1167,-2.49423 2.49423,-2.49423c1.37752,0 2.49423,1.1167 2.49423,2.49423c0,1.37753 -1.1167,2.49423 -2.49423,2.49423c-1.37753,0 -2.49423,-1.1167 -2.49423,-2.49423z" fill="#fcc561" stroke="#8a4f51"/><path d="M231.64078,165.05965c0,-1.27041 1.02987,-2.30029 2.30029,-2.30029c1.27041,0 2.30029,1.02988 2.30029,2.30029c0,1.27041 -1.02988,2.30029 -2.30029,2.30029c-1.27041,0 -2.30029,-1.02987 -2.30029,-2.30029z" fill="#fbc21b" stroke="#ed803b"/></g><g fill="#d3692d" stroke="#aa5524" stroke-width="0.15"><path d="M232.74097,166.58142c0.04256,0.02832 0.08174,-0.00717 0.08571,-0.01095c0.03181,-0.0124 0.06682,-0.01806 0.10081,-0.01726c0,0 0.03906,0 0.05901,-0.02908c0.03028,0.01063 0.05773,0.02729 0.0809,0.04854c-0.02907,0.04433 -0.04597,0.09735 -0.04597,0.15432c0,0.01622 0.00137,0.03211 0.004,0.04758c-0.00198,0.00376 -0.00387,0.00757 -0.00568,0.01143c-0.03913,0.01685 -0.07382,0.04399 -0.09982,0.08264c-0.00681,-0.00049 -0.01368,-0.00074 -0.02062,-0.00074c-0.05704,0 -0.11012,0.01695 -0.15449,0.04608c-0.03246,-0.03163 -0.05579,-0.07258 -0.06569,-0.11852c0.03569,-0.03968 0.06882,-0.08168 0.07315,-0.11072c0.00477,-0.032 -0.00826,-0.06328 -0.0194,-0.09465c0.00262,-0.00296 0.00532,-0.00586 0.0081,-0.00868z"/><path d="M233.25641,165.32998c0.04989,0.07708 0.08932,0.15942 0.13069,0.24177c-0.03913,0.02954 -0.06954,0.05297 -0.10495,0.0963c-0.0125,0.01531 -0.01397,0.04101 -0.03143,0.05027c-0.01442,0.00764 -0.032,-0.00863 -0.04831,-0.00802c-0.02862,0.00106 -0.05805,0.00312 -0.08495,0.01298c-0.01038,0.00381 -0.013,0.03362 -0.02082,0.02581c-0.02056,-0.02056 -0.00693,-0.06924 -0.03377,-0.08041c-0.01616,-0.00673 -0.02932,0.01155 -0.04397,0.02567c-0.00146,-0.00211 -0.00289,-0.00423 -0.00427,-0.00637c0.00159,-0.00227 0.00269,-0.00447 0.00292,-0.00641c0.00179,-0.01534 -0.01446,-0.02997 -0.01097,-0.04502c0.0203,-0.08759 0.13132,-0.16163 0.17863,-0.23274c0.01767,-0.02657 0.02938,-0.05191 0.03868,-0.0778c0.01092,0.00056 0.02178,0.00188 0.03252,0.00395z"/><path d="M234.03591,166.64952c-0.009,0.09138 -0.02946,0.18034 -0.0484,0.27054c-0.04901,-0.00127 -0.0874,-0.0019 -0.14209,0.00994c-0.01932,0.00418 -0.03648,0.02338 -0.05591,0.01974c-0.01604,-0.00301 -0.01965,-0.02668 -0.03279,-0.03637c-0.02305,-0.017 -0.04735,-0.03373 -0.07453,-0.04277c-0.01049,-0.00349 -0.03112,0.0182 -0.03237,0.00722c-0.00327,-0.02889 0.03772,-0.05848 0.02368,-0.08393c-0.00846,-0.01533 -0.03013,-0.00924 -0.05038,-0.00731c0.00017,-0.00256 0.00038,-0.00511 0.00063,-0.00764c0.00266,-0.00079 0.00489,-0.00182 0.00628,-0.0032c0.01096,-0.01089 0.00736,-0.03245 0.01947,-0.04205c0.07045,-0.05587 0.20342,-0.0446 0.28473,-0.07076c0.03038,-0.00977 0.05532,-0.0223 0.07872,-0.03676c0.00819,0.00724 0.01587,0.01504 0.02298,0.02335z"/><path d="M234.9194,165.01998c0.009,-0.09138 0.02946,-0.18034 0.0484,-0.27054c0.04901,0.00127 0.0874,0.0019 0.14209,-0.00994c0.01931,-0.00418 0.03648,-0.02339 0.0559,-0.01974c0.01604,0.00301 0.01965,0.02669 0.03279,0.03637c0.02305,0.017 0.04735,0.03373 0.07453,0.04277c0.01049,0.00349 0.03112,-0.0182 0.03237,-0.00722c0.00327,0.02889 -0.03771,0.05847 -0.02367,0.08393c0.00846,0.01533 0.03012,0.00924 0.05038,0.00731c-0.00017,0.00256 -0.00037,0.00511 -0.00063,0.00764c-0.00266,0.00079 -0.00489,0.00182 -0.00628,0.0032c-0.01096,0.01089 -0.00736,0.03245 -0.01947,0.04205c-0.07045,0.05587 -0.20342,0.0446 -0.28473,0.07076c-0.03038,0.00977 -0.05532,0.0223 -0.07872,0.03676c-0.00819,-0.00724 -0.01587,-0.01504 -0.02298,-0.02335z" data-paper-data="{&quot;index&quot;:null}"/><path d="M232.71305,164.66446c-0.01115,0.03136 -0.02417,0.06265 -0.0194,0.09465c0.00433,0.02903 0.03746,0.07104 0.07315,0.11072c-0.0099,0.04594 -0.03323,0.08689 -0.06569,0.11852c-0.04436,-0.02913 -0.09745,-0.04608 -0.15449,-0.04608c-0.00693,0 -0.01381,0.00025 -0.02061,0.00074c-0.026,-0.03864 -0.06069,-0.06578 -0.09982,-0.08264c-0.00181,-0.00386 -0.0037,-0.00767 -0.00568,-0.01143c0.00263,-0.01547 0.004,-0.03136 0.004,-0.04758c0,-0.05697 -0.01691,-0.10999 -0.04597,-0.15432c0.02317,-0.02125 0.05061,-0.03791 0.0809,-0.04854c0.01995,0.02908 0.05901,0.02908 0.05901,0.02908c0.03399,-0.0008 0.069,0.00486 0.10081,0.01726c0.00396,0.00377 0.04315,0.03926 0.0857,0.01094c0.00277,0.00282 0.00547,0.00572 0.0081,0.00868z" data-paper-data="{&quot;index&quot;:null}"/><path d="M234.85605,163.86021c-0.04256,-0.02832 -0.08174,0.00717 -0.0857,0.01094c-0.03181,0.0124 -0.06682,0.01806 -0.10081,0.01726c0,0 -0.03906,0 -0.05901,0.02908c-0.03028,-0.01063 -0.05773,-0.02729 -0.0809,-0.04854c0.02907,-0.04433 0.04597,-0.09735 0.04597,-0.15432c0,-0.01622 -0.00137,-0.03211 -0.004,-0.04758c0.00198,-0.00376 0.00387,-0.00757 0.00568,-0.01143c0.03913,-0.01685 0.07382,-0.04399 0.09982,-0.08264c0.00681,0.00049 0.01368,0.00074 0.02061,0.00074c0.05704,0 0.11013,-0.01695 0.15449,-0.04608c0.03246,0.03163 0.05579,0.07258 0.06569,0.11852c-0.03569,0.03968 -0.06882,0.08168 -0.07315,0.11072c-0.00477,0.032 0.00825,0.06328 0.0194,0.09465c-0.00262,0.00296 -0.00532,0.00586 -0.0081,0.00868z" data-paper-data="{&quot;index&quot;:null}"/><path d="M233.6179,165.10443c0.0234,0.01446 0.04834,0.02699 0.07872,0.03676c0.08132,0.02615 0.21428,0.01489 0.28473,0.07076c0.0121,0.0096 0.00851,0.03116 0.01947,0.04205c0.00139,0.00138 0.00361,0.00241 0.00628,0.0032c0.00025,0.00254 0.00046,0.00509 0.00063,0.00764c-0.02026,-0.00193 -0.04193,-0.00803 -0.05038,0.00731c-0.01404,0.02546 0.02695,0.05505 0.02368,0.08393c-0.00124,0.01098 -0.02188,-0.01071 -0.03237,-0.00722c-0.02718,0.00904 -0.05148,0.02577 -0.07453,0.04277c-0.01314,0.00968 -0.01674,0.03336 -0.03279,0.03637c-0.01943,0.00364 -0.03659,-0.01556 -0.0559,-0.01974c-0.05469,-0.01184 -0.09308,-0.01122 -0.14209,-0.00994c-0.01894,-0.09019 -0.0394,-0.17916 -0.0484,-0.27054c0.00711,-0.00831 0.01479,-0.01611 0.02298,-0.02335z" data-paper-data="{&quot;index&quot;:null}"/><path d="M233.53401,164.53263c-0.01218,0 -0.02414,-0.00092 -0.03581,-0.00271c-0.02265,-0.04007 -0.04189,-0.08221 -0.05791,-0.12535l-0.05507,-0.05267c0,0 -0.0123,-0.0082 -0.0294,-0.01146c-0.00421,-0.00568 -0.00925,-0.0107 -0.01494,-0.01489c0.00037,-0.00294 0.00057,-0.00593 0.00057,-0.00897c0,-0.00028 0,-0.00056 0,-0.00084c0.03996,-0.04626 0.09441,-0.07879 0.13532,-0.12434l0.07754,-0.05103c0,0 0.04173,-0.02782 0.0313,-0.07172c0.10298,0.02309 0.18039,0.1138 0.18317,0.22307c-0.07608,0.02998 -0.15373,0.05553 -0.18828,0.14178c-0.00291,0.00727 -0.00389,0.05237 -0.00418,0.09533c-0.01372,0.00249 -0.02785,0.0038 -0.04229,0.0038z" data-paper-data="{&quot;index&quot;:null}"/><path d="M232.03455,165.73479c0.0212,0.03737 0.04404,0.07627 0.05012,0.0812c0.07221,0.05847 0.15246,0.04294 0.23351,0.03203c0.05084,0.09676 0.02746,0.21371 -0.0512,0.28406c-0.01229,-0.04342 -0.06229,-0.04737 -0.06229,-0.04737l-0.09258,-0.00676c-0.05793,-0.01984 -0.12134,-0.0217 -0.17877,-0.04261c-0.00013,-0.00025 -0.00027,-0.00049 -0.0004,-0.00074c-0.00148,-0.00265 -0.00311,-0.00517 -0.00487,-0.00755c0.00293,-0.00643 0.00488,-0.01327 0.00579,-0.02028c0.01334,-0.01117 0.02009,-0.02434 0.02009,-0.02434l0.02241,-0.07283c-0.00703,-0.04548 -0.01078,-0.09165 -0.01053,-0.13768c0.00933,-0.00725 0.01931,-0.01389 0.02995,-0.01982c0.01261,-0.00704 0.02559,-0.01279 0.03878,-0.0173z" data-paper-data="{&quot;index&quot;:null}"/><path d="M233.84841,162.87751c0.0015,0.0511 0.05312,0.06255 0.05848,0.0636c0.02851,0.01879 0.05337,0.04408 0.07237,0.07227c0,0 0.02258,0.03186 0.05785,0.03133c0.00884,0.03085 0.01112,0.06288 0.00717,0.09407c-0.05298,0.00192 -0.10601,0.01878 -0.15249,0.05172c-0.01323,0.00938 -0.02541,0.01969 -0.03651,0.03078c-0.00421,0.00056 -0.00841,0.00122 -0.01261,0.00197c-0.03637,-0.02218 -0.07857,-0.03479 -0.12514,-0.03367c-0.00354,-0.00584 -0.00731,-0.01159 -0.01131,-0.01725c-0.03298,-0.04654 -0.0775,-0.08005 -0.12693,-0.0994c0.00704,-0.04477 0.02695,-0.08749 0.05871,-0.12212c0.05301,0.00618 0.10644,0.00892 0.13263,-0.00433c0.02886,-0.01461 0.04686,-0.04333 0.066,-0.07055c0.00394,0.00043 0.00786,0.00096 0.01177,0.00158z" data-paper-data="{&quot;index&quot;:null}"/><path d="M232.69433,163.92325c-0.08885,-0.02315 -0.17354,-0.05724 -0.25967,-0.09003c0.0089,-0.04821 0.01551,-0.08603 0.01235,-0.1419c-0.00112,-0.01973 -0.0174,-0.03968 -0.01077,-0.0583c0.00548,-0.01538 0.02942,-0.01525 0.04104,-0.02671c0.02039,-0.02012 0.04071,-0.04151 0.05388,-0.06694c0.00509,-0.00982 -0.01312,-0.03358 -0.00208,-0.0331c0.02904,0.00127 0.05188,0.04638 0.07921,0.03648c0.01646,-0.00596 0.01383,-0.02832 0.01508,-0.04863c0.0025,0.00057 0.00499,0.00117 0.00745,0.00181c0.00036,0.00275 0.00103,0.00511 0.00218,0.0067c0.00905,0.01252 0.03091,0.01234 0.0385,0.02579c0.04419,0.0783 0.01232,0.20789 0.02546,0.29229c0.00491,0.03153 0.01339,0.05813 0.02402,0.08349c-0.00843,0.00696 -0.01734,0.01332 -0.02665,0.01905z" data-paper-data="{&quot;index&quot;:null}"/><path d="M235.3449,163.98656c0.01655,-0.02196 0.03133,-0.04565 0.04385,-0.075c0.03354,-0.07856 0.03458,-0.212 0.0967,-0.277c0.01067,-0.01117 0.03182,-0.0056 0.04366,-0.01551c0.0015,-0.00125 0.00273,-0.00338 0.00376,-0.00596c0.00255,-0.00002 0.00511,0.00002 0.00767,0.00008c-0.00379,0.02 -0.01185,0.04101 0.00263,0.05084c0.02405,0.01633 0.0573,-0.02176 0.08576,-0.01584c0.01082,0.00225 -0.01268,0.0208 -0.01017,0.03157c0.0065,0.0279 0.02092,0.05363 0.03572,0.07815c0.00843,0.01398 0.03168,0.01975 0.03319,0.03601c0.00184,0.01968 -0.01886,0.035 -0.02481,0.05385c-0.01683,0.05337 -0.01975,0.09165 -0.023,0.14057c-0.09156,0.01055 -0.18203,0.02272 -0.27385,0.02326c-0.00761,-0.00784 -0.01468,-0.01621 -0.02113,-0.02503z" data-paper-data="{&quot;index&quot;:null}"/><path d="M235.90587,164.97423c0.00029,0.04297 0.00127,0.08806 0.00418,0.09533c0.03455,0.08625 0.1122,0.11181 0.18828,0.14178c-0.00277,0.10927 -0.08019,0.19999 -0.18317,0.22307c0.01043,-0.0439 -0.0313,-0.07172 -0.0313,-0.07172l-0.07754,-0.05103c-0.04091,-0.04556 -0.09537,-0.07809 -0.13532,-0.12434c0,-0.00028 0,-0.00056 0,-0.00084c0,-0.00304 -0.00019,-0.00603 -0.00056,-0.00897c0.00569,-0.00419 0.01073,-0.00921 0.01494,-0.01489c0.01709,-0.00325 0.0294,-0.01146 0.0294,-0.01146l0.05506,-0.05266c0.01603,-0.04314 0.03526,-0.08528 0.05791,-0.12535c0.01167,-0.00179 0.02364,-0.00271 0.03581,-0.00271c0.01444,0 0.02857,0.0013 0.0423,0.0038z" data-paper-data="{&quot;index&quot;:null}"/><path d="M234.87192,165.81584c0.01218,0 0.02413,0.00093 0.03581,0.00272c0.02265,0.04007 0.04189,0.08221 0.05792,0.12535l0.05507,0.05267c0,0 0.0123,0.0082 0.0294,0.01146c0.00421,0.00568 0.00925,0.0107 0.01494,0.01489c-0.00037,0.00294 -0.00057,0.00593 -0.00057,0.00897c0,0.00028 0,0.00056 0,0.00084c-0.03996,0.04626 -0.09441,0.07879 -0.13532,0.12434l-0.07754,0.05103c0,0 -0.04173,0.02782 -0.0313,0.07172c-0.10298,-0.02309 -0.18039,-0.1138 -0.18317,-0.22307c0.07608,-0.02998 0.15373,-0.05553 0.18828,-0.14178c0.00291,-0.00727 0.00389,-0.05237 0.00419,-0.09533c0.01372,-0.00249 0.02785,-0.0038 0.04229,-0.0038z"/></g><g fill="#fae7ac" stroke="#d3c291" stroke-width="0.15"><path d="M235.43512,164.79731c0.00327,-0.00103 0.00649,-0.00237 0.00963,-0.00406c0.00797,-0.00427 0.0144,-0.0101 0.01978,-0.01699c0.14201,0.00335 0.29611,-0.0975 0.40921,-0.15056c0.02085,-0.00978 0.04989,-0.02342 0.07858,-0.03931c0.01053,0.00466 0.02337,0.01027 0.03694,0.01616c-0.02015,0.06882 -0.06022,0.12914 -0.11354,0.17429c-0.01235,-0.0037 -0.02223,-0.00369 -0.02223,-0.00369c-0.03537,0.00239 -0.07528,-0.01036 -0.1061,0.00716c-0.03137,0.01784 -0.05057,0.05049 -0.0719,0.08056c-0.01098,0.00101 -0.02211,0.00152 -0.03335,0.00152c-0.077,0 -0.14837,-0.02406 -0.20702,-0.06508z" data-paper-data="{&quot;index&quot;:null}"/><g><path d="M235.77285,165.85852c0,0.08795 -0.0713,0.15926 -0.15926,0.15926c-0.00915,0 -0.01812,-0.00077 -0.02685,-0.00225c-0.04082,-0.04317 0.04155,-0.08125 0.04706,-0.12058c0.00527,-0.03764 -0.02343,-0.06858 -0.05156,-0.08563c-0.00556,-0.00337 -0.01481,0.00169 -0.01927,-0.00304c-0.00301,-0.00319 0.00363,-0.00802 0.00489,-0.01222c0.00176,-0.00586 0.00874,-0.03894 0.01406,-0.04639c0.03392,-0.04747 0.08109,0.03662 0.10432,0.04632c0.01696,0.00708 0.05144,0.00693 0.07574,0.00658c0.00702,0.01796 0.01087,0.03751 0.01087,0.05796z"/><path d="M232.14699,165.63398c0,-0.07267 0.03677,-0.13676 0.09273,-0.17466c-0.02876,0.04741 -0.04135,0.10923 -0.01749,0.15073c0.00975,0.01697 0.03455,0.01846 0.05116,0.02884c0.01186,0.00741 0.03603,0.01626 0.0303,0.02902c-0.01129,0.02514 -0.04499,0.03525 -0.05665,0.06022c-0.01216,0.02605 -0.01849,0.04956 -0.01921,0.07184c-0.04921,-0.03859 -0.08082,-0.09859 -0.08082,-0.16598z"/><path d="M234.21072,165.74079c-0.03262,-0.00436 -0.06446,-0.01175 -0.09784,-0.00967c-0.02445,0.00152 -0.04732,0.01297 -0.07142,0.01738c-0.01716,0.00314 -0.03478,0.00101 -0.05231,-0.00003c-0.00471,-0.00408 -0.00917,-0.00841 -0.01339,-0.013c-0.00543,-0.02463 -0.0075,-0.05013 -0.01122,-0.08062c0.00887,-0.01551 0.01927,-0.03358 0.01991,-0.03424c0.00531,-0.00544 0.04834,-0.02252 0.05141,-0.0241c0.03161,-0.01625 0.04906,-0.02617 0.06821,-0.05884c0.01532,-0.02614 0.01629,-0.04916 0.01501,-0.07376c0.06527,0.00934 0.11805,0.05735 0.13442,0.12007c-0.0205,0.01222 -0.03671,0.02887 -0.04261,0.05322c-0.00586,0.02416 0.00863,0.05575 0.01616,0.08466c-0.00496,0.00672 -0.01042,0.01305 -0.01633,0.01893z"/><path d="M233.22293,165.96785c-0.05627,0.08976 -0.16879,0.08336 -0.24077,0.15313c0.03869,-0.11791 0.13636,-0.20908 0.25813,-0.23862c0.00118,0.03088 -0.00187,0.06079 -0.01736,0.08549z"/><path d="M235.03546,166.84907c-0.01125,0 -0.02237,-0.00051 -0.03335,-0.00152c-0.02132,-0.03007 -0.04053,-0.06272 -0.07189,-0.08056c-0.03081,-0.01752 -0.07073,-0.00477 -0.1061,-0.00716c0,0 -0.00987,0 -0.02223,0.00369c-0.05332,-0.04515 -0.09339,-0.10546 -0.11354,-0.17429c0.01357,-0.00589 0.02641,-0.01149 0.03694,-0.01616c0.02868,0.01589 0.05773,0.02953 0.07858,0.03931c0.11311,0.05306 0.26719,0.15391 0.40921,0.15056c0.00538,0.00689 0.01181,0.01271 0.01978,0.01699c0.00315,0.00169 0.00636,0.00302 0.00963,0.00406c-0.05865,0.04101 -0.13002,0.06508 -0.20702,0.06508z"/><path d="M235.18106,165.15828c0,0.01828 0.00696,0.03493 0.01838,0.04745c-0.00504,0.01429 -0.00996,0.02863 -0.01476,0.04299l-0.00468,0.0297c-0.02176,0.00773 -0.04448,0.01343 -0.06793,0.01688c-0.00528,-0.00507 -0.00935,-0.00778 -0.00935,-0.00778l-0.05852,-0.03008c-0.01463,-0.00077 -0.06705,0.00763 -0.07516,-0.02281c-0.00471,-0.01771 -0.00299,-0.09997 0.02465,-0.10406c0.04451,-0.00658 0.09027,0.00923 0.13492,0.00368c0.02066,-0.00257 0.0411,-0.00624 0.06143,-0.01043c-0.00572,0.01019 -0.00898,0.02193 -0.00898,0.03445z"/><path d="M232.59007,164.23228c0,-0.01828 -0.00696,-0.03493 -0.01838,-0.04745c0.00504,-0.01429 0.00996,-0.02863 0.01476,-0.04299l0.00468,-0.0297c0.02176,-0.00773 0.04448,-0.01343 0.06793,-0.01688c0.00528,0.00507 0.00935,0.00778 0.00935,0.00778l0.05852,0.03007c0.01463,0.00077 0.06705,-0.00763 0.07516,0.02281c0.00471,0.01771 0.00299,0.09997 -0.02465,0.10406c-0.04451,0.00658 -0.09027,-0.00922 -0.13492,-0.00368c-0.02066,0.00257 -0.0411,0.00624 -0.06143,0.01043c0.00572,-0.01019 0.00898,-0.02193 0.00898,-0.03445z" data-paper-data="{&quot;index&quot;:null}"/><path d="M234.04482,163.82015c-0.00328,0.00103 -0.00649,0.00237 -0.00963,0.00406c-0.00797,0.00427 -0.0144,0.0101 -0.01978,0.01699c-0.14202,-0.00335 -0.29611,0.0975 -0.40921,0.15056c-0.02085,0.00978 -0.04989,0.02342 -0.07858,0.03931c-0.01053,-0.00466 -0.02337,-0.01027 -0.03694,-0.01616c0.02015,-0.06882 0.06022,-0.12914 0.11354,-0.17429c0.01235,0.0037 0.02223,0.0037 0.02223,0.0037c0.03537,-0.00239 0.07528,0.01036 0.1061,-0.00716c0.03137,-0.01784 0.05057,-0.05049 0.0719,-0.08056c0.01098,-0.00101 0.02211,-0.00152 0.03336,-0.00152c0.077,0 0.14837,0.02406 0.20702,0.06508z" data-paper-data="{&quot;index&quot;:null}"/><path d="M234.48851,164.14581c0,0.07267 -0.03677,0.13676 -0.09273,0.17467c0.02876,-0.04741 0.04135,-0.10923 0.01749,-0.15073c-0.00975,-0.01697 -0.03455,-0.01846 -0.05116,-0.02884c-0.01186,-0.00741 -0.03603,-0.01626 -0.0303,-0.02902c0.01129,-0.02514 0.045,-0.03524 0.05665,-0.06022c0.01216,-0.02605 0.01849,-0.04956 0.01921,-0.07184c0.04921,0.03859 0.08082,0.0986 0.08082,0.16598z" data-paper-data="{&quot;index&quot;:null}"/><path d="M233.36502,163.21384c0,-0.01252 -0.00326,-0.02426 -0.00898,-0.03445c0.02033,0.0042 0.04077,0.00787 0.06143,0.01043c0.04465,0.00554 0.09041,-0.01026 0.13492,-0.00368c0.02764,0.00409 0.02936,0.08635 0.02465,0.10406c-0.00811,0.03043 -0.06053,0.02204 -0.07516,0.02281l-0.05852,0.03007c0,0 -0.00407,0.00271 -0.00935,0.00778c-0.02345,-0.00345 -0.04617,-0.00915 -0.06793,-0.01688l-0.00468,-0.0297c-0.0048,-0.01437 -0.00971,-0.0287 -0.01476,-0.04299c0.01142,-0.01252 0.01838,-0.02917 0.01838,-0.04745z" data-paper-data="{&quot;index&quot;:null}"/><path d="M233.29367,166.39974c0,-0.08795 0.0713,-0.15926 0.15926,-0.15926c0.00915,0 0.01812,0.00077 0.02685,0.00225c0.04082,0.04317 -0.04155,0.08125 -0.04706,0.12058c-0.00527,0.03764 0.02343,0.06858 0.05157,0.08563c0.00556,0.00337 0.01481,-0.00169 0.01927,0.00304c0.00301,0.00319 -0.00363,0.00802 -0.00489,0.01222c-0.00176,0.00586 -0.00874,0.03894 -0.01406,0.04639c-0.03392,0.04747 -0.08109,-0.03662 -0.10432,-0.04632c-0.01696,-0.00708 -0.05144,-0.00693 -0.07574,-0.00657c-0.00702,-0.01796 -0.01087,-0.03751 -0.01087,-0.05795z" data-paper-data="{&quot;index&quot;:null}"/><path d="M233.89672,163.25275c0,0.06739 -0.03161,0.12738 -0.08082,0.16598c-0.00072,-0.02228 -0.00706,-0.04579 -0.01921,-0.07184c-0.01166,-0.02497 -0.04536,-0.03508 -0.05665,-0.06022c-0.00573,-0.01275 0.01844,-0.02161 0.0303,-0.02902c0.0166,-0.01037 0.0414,-0.01186 0.05116,-0.02884c0.02385,-0.0415 0.01126,-0.10331 -0.01749,-0.15073c0.05595,0.03791 0.09273,0.10199 0.09273,0.17466z" data-paper-data="{&quot;index&quot;:null}"/><path d="M232.88596,165.58492c0,-0.01828 -0.00696,-0.03493 -0.01838,-0.04745c0.00504,-0.01429 0.00996,-0.02863 0.01476,-0.04299l0.00468,-0.0297c0.02176,-0.00773 0.04448,-0.01343 0.06793,-0.01688c0.00528,0.00507 0.00935,0.00778 0.00935,0.00778l0.05852,0.03007c0.01463,0.00077 0.06705,-0.00763 0.07516,0.02281c0.00471,0.01771 0.00299,0.09997 -0.02465,0.10406c-0.04451,0.00658 -0.09027,-0.00922 -0.13492,-0.00368c-0.02066,0.00257 -0.0411,0.00623 -0.06143,0.01043c0.00572,-0.01019 0.00898,-0.02193 0.00898,-0.03445z" data-paper-data="{&quot;index&quot;:null}"/></g></g><g fill="#81ff35" stroke="#68cc2b" stroke-width="0.15"><path d="M234.34223,166.26576c0,0.01157 0.00062,0.02277 0.00182,0.03362c-0.02832,0.00924 -0.05846,0.02427 -0.08851,0.0429c-0.01399,-0.00214 -0.02832,-0.00325 -0.04292,-0.00325c-0.00786,-0.00197 -0.01541,-0.00385 -0.02257,-0.00564h-0.05448c-0.02776,-0.02082 -0.05388,-0.03554 -0.07935,-0.04514c0.03011,-0.08882 0.10558,-0.15671 0.19882,-0.1761c0.01694,0.0511 0.04811,0.09571 0.08881,0.12914c-0.00106,0.00808 -0.00162,0.01624 -0.00162,0.02447z"/><path d="M232.07748,164.82579c-0.01319,-0.00189 -0.02669,-0.00287 -0.04041,-0.00287c-0.09879,0 -0.18571,0.05084 -0.23602,0.12778c-0.0128,-0.01274 -0.0218,-0.02977 -0.02324,-0.05495c-0.00296,-0.0519 -0.0193,-0.10699 -0.01691,-0.15959c0.00106,-0.02332 0.0067,-0.04734 0.01423,-0.07177c0.15351,0.00664 0.30111,0.00289 0.30235,0.1614z"/><path d="M235.19388,164.18751c0.00197,0.00831 0.02887,0.04764 0.02288,0.05553c-0.02216,0.02917 -0.04161,0.05331 -0.05802,0.07544c-0.00028,-0.00046 -0.00056,-0.00092 -0.00085,-0.00139c-0.04026,-0.06612 -0.33238,0.01227 -0.28744,-0.18267c0.03697,-0.01616 0.06981,-0.04001 0.09648,-0.06954c0.06794,-0.01064 0.15519,0.0034 0.20859,0.0157c0.00474,0.04403 0.01305,0.08449 0.01837,0.10693z"/><path d="M232.26859,163.85635c0,-0.00823 -0.00056,-0.01639 -0.00162,-0.02447c0.04071,-0.03343 0.07188,-0.07804 0.08882,-0.12914c0.09324,0.01939 0.1687,0.08728 0.19882,0.1761c-0.02547,0.0096 -0.05159,0.02432 -0.07935,0.04514h-0.05448c-0.00716,0.00179 -0.01471,0.00366 -0.02257,0.00564c-0.01459,0 -0.02893,0.00111 -0.04292,0.00325c-0.03005,-0.01863 -0.06019,-0.03366 -0.08851,-0.04289c0.0012,-0.01086 0.00182,-0.02207 0.00182,-0.03362z" data-paper-data="{&quot;index&quot;:null}"/><path d="M234.07056,164.6454c0,-0.00823 -0.00056,-0.01639 -0.00163,-0.02447c0.04071,-0.03343 0.07188,-0.07804 0.08882,-0.12914c0.09324,0.01939 0.1687,0.08728 0.19881,0.1761c-0.02547,0.0096 -0.05159,0.02432 -0.07935,0.04514h-0.05448c-0.00716,0.00179 -0.01471,0.00366 -0.02257,0.00564c-0.01459,0 -0.02893,0.00111 -0.04292,0.00325c-0.03005,-0.01863 -0.06019,-0.03366 -0.08851,-0.0429c0.0012,-0.01086 0.00182,-0.02206 0.00182,-0.03362z" data-paper-data="{&quot;index&quot;:null}"/><path d="M234.44127,163.71819c-0.05339,0.0123 -0.14065,0.02634 -0.20859,0.0157c-0.02667,-0.02953 -0.05951,-0.05339 -0.09648,-0.06954c-0.04494,-0.19494 0.24718,-0.11655 0.28744,-0.18267c0.00028,-0.00046 0.00056,-0.00092 0.00085,-0.00139c0.01641,0.02212 0.03586,0.04626 0.05802,0.07543c0.00599,0.0079 -0.0209,0.04722 -0.02288,0.05553c-0.00532,0.02245 -0.01363,0.06291 -0.01836,0.10693z" data-paper-data="{&quot;index&quot;:null}"/></g><g stroke-width="0.25"><g><path d="M234.1196,162.93204c0.19454,0 0.35225,0.15771 0.35225,0.35225c0,0.19454 -0.15771,0.35225 -0.35225,0.35225c-0.19454,0 -0.35225,-0.15771 -0.35225,-0.35225c0,-0.19454 0.15771,-0.35225 0.35225,-0.35225z" fill="#c30007" stroke="#8a0005"/><path d="M234.30747,163.25423c0.03735,0 0.06763,0.03028 0.06763,0.06763c0,0.03735 -0.03028,0.06764 -0.06763,0.06764c-0.03736,0 -0.06763,-0.03028 -0.06763,-0.06764c0,-0.03735 0.03028,-0.06763 0.06763,-0.06763z" fill="#ff7272" stroke="none"/><path d="M234.07075,163.2035c0.01868,0 0.03381,0.01514 0.03381,0.03382c0,0.01868 -0.01514,0.03381 -0.03381,0.03381c-0.01868,0 -0.03382,-0.01514 -0.03382,-0.03381c0,-0.01868 0.01514,-0.03382 0.03382,-0.03382z" fill="#ff9191" stroke="none"/><path d="M234.26802,163.11333c0.02179,0 0.03945,0.01766 0.03945,0.03945c0,0.02179 -0.01766,0.03945 -0.03945,0.03945c-0.02179,0 -0.03945,-0.01766 -0.03945,-0.03945c0,-0.02179 0.01766,-0.03945 0.03945,-0.03945z" fill="#ffaeae" stroke="none"/><path d="M234.11584,163.01188c0.03735,0 0.06763,0.03028 0.06763,0.06764c0,0.03735 -0.03028,0.06763 -0.06763,0.06763c-0.03736,0 -0.06763,-0.03028 -0.06763,-0.06763c0,-0.03735 0.03028,-0.06764 0.06763,-0.06764z" fill="#ff7272" stroke="none"/><path d="M233.93831,163.09078c0.01401,0 0.02536,0.01135 0.02536,0.02536c0,0.01401 -0.01136,0.02536 -0.02536,0.02536c-0.01401,0 -0.02536,-0.01135 -0.02536,-0.02536c0,-0.01401 0.01135,-0.02536 0.02536,-0.02536z" fill="#ffc4c4" stroke="none"/><path d="M234.15248,163.3585c0.01556,0 0.02818,0.01261 0.02818,0.02818c0,0.01556 -0.01262,0.02818 -0.02818,0.02818c-0.01556,0 -0.02818,-0.01262 -0.02818,-0.02818c0,-0.01556 0.01262,-0.02818 0.02818,-0.02818z" fill="#ffa3a3" stroke="none"/><path d="M233.88477,163.23167c0.02179,0 0.03945,0.01766 0.03945,0.03945c0,0.02179 -0.01766,0.03945 -0.03945,0.03945c-0.02179,0 -0.03945,-0.01766 -0.03945,-0.03945c0,-0.02179 0.01766,-0.03945 0.03945,-0.03945z" fill="#ff9898" stroke="none"/><path d="M234.07921,163.49376c0.01556,0 0.02818,0.01261 0.02818,0.02818c0,0.01556 -0.01261,0.02818 -0.02818,0.02818c-0.01556,0 -0.02818,-0.01262 -0.02818,-0.02818c0,-0.01556 0.01262,-0.02818 0.02818,-0.02818z" fill="#ffc4c4" stroke="none"/><path d="M233.96931,163.35568c0.03736,0 0.06763,0.03028 0.06763,0.06764c0,0.03735 -0.03028,0.06763 -0.06763,0.06763c-0.03736,0 -0.06764,-0.03028 -0.06764,-0.06763c0,-0.03735 0.03028,-0.06764 0.06764,-0.06764z" fill="#ff7272" stroke="none"/></g><g><path d="M234.96501,163.29838c0.19454,0 0.35225,0.15771 0.35225,0.35225c0,0.19454 -0.15771,0.35225 -0.35225,0.35225c-0.19454,0 -0.35225,-0.15771 -0.35225,-0.35225c0,-0.19454 0.15771,-0.35225 0.35225,-0.35225z" fill="#c30007" stroke="#8a0005"/><path d="M235.15288,163.62056c0.03736,0 0.06764,0.03028 0.06764,0.06764c0,0.03735 -0.03028,0.06764 -0.06764,0.06764c-0.03735,0 -0.06763,-0.03028 -0.06763,-0.06764c0,-0.03735 0.03028,-0.06764 0.06763,-0.06764z" fill="#ff7272" stroke="none"/><path d="M234.91616,163.56985c0.01868,0 0.03382,0.01514 0.03382,0.03382c0,0.01868 -0.01514,0.03382 -0.03382,0.03382c-0.01867,0 -0.03381,-0.01514 -0.03381,-0.03382c0,-0.01868 0.01514,-0.03382 0.03381,-0.03382z" fill="#ff9191" stroke="none"/><path d="M235.11343,163.47967c0.02179,0 0.03945,0.01766 0.03945,0.03945c0,0.02179 -0.01766,0.03945 -0.03945,0.03945c-0.02179,0 -0.03945,-0.01766 -0.03945,-0.03945c0,-0.02179 0.01766,-0.03945 0.03945,-0.03945z" fill="#ffaeae" stroke="none"/><path d="M234.96126,163.37822c0.03736,0 0.06763,0.03028 0.06763,0.06763c0,0.03735 -0.03028,0.06764 -0.06763,0.06764c-0.03735,0 -0.06763,-0.03028 -0.06763,-0.06764c0,-0.03735 0.03028,-0.06763 0.06763,-0.06763z" fill="#ff7272" stroke="none"/><path d="M234.78372,163.45713c0.01401,0 0.02536,0.01135 0.02536,0.02536c0,0.01401 -0.01135,0.02536 -0.02536,0.02536c-0.01401,0 -0.02536,-0.01135 -0.02536,-0.02536c0,-0.01401 0.01136,-0.02536 0.02536,-0.02536z" fill="#ffc4c4" stroke="none"/><path d="M234.99789,163.72484c0.01556,0 0.02818,0.01262 0.02818,0.02818c0,0.01556 -0.01262,0.02818 -0.02818,0.02818c-0.01556,0 -0.02818,-0.01261 -0.02818,-0.02818c0,-0.01556 0.01262,-0.02818 0.02818,-0.02818z" fill="#ffa3a3" stroke="none"/><path d="M234.73018,163.59803c0.02179,0 0.03945,0.01766 0.03945,0.03945c0,0.02179 -0.01766,0.03945 -0.03945,0.03945c-0.02179,0 -0.03945,-0.01766 -0.03945,-0.03945c0,-0.02179 0.01766,-0.03945 0.03945,-0.03945z" fill="#ff9898" stroke="none"/><path d="M234.92462,163.86011c0.01556,0 0.02818,0.01262 0.02818,0.02818c0,0.01556 -0.01262,0.02818 -0.02818,0.02818c-0.01556,0 -0.02818,-0.01261 -0.02818,-0.02818c0,-0.01556 0.01262,-0.02818 0.02818,-0.02818z" fill="#ffc4c4" stroke="none"/><path d="M234.81472,163.72201c0.03736,0 0.06764,0.03028 0.06764,0.06763c0,0.03735 -0.03028,0.06764 -0.06764,0.06764c-0.03736,0 -0.06764,-0.03028 -0.06764,-0.06764c0,-0.03735 0.03028,-0.06763 0.06764,-0.06763z" fill="#ff7272" stroke="none"/></g><g><path d="M235.99359,164.46786c0,0.19454 -0.15771,0.35225 -0.35225,0.35225c-0.19454,0 -0.35225,-0.15771 -0.35225,-0.35225c0,-0.19454 0.15771,-0.35225 0.35225,-0.35225c0.19454,0 0.35225,0.15771 0.35225,0.35225z" fill="#c30007" stroke="#8a0005"/><path d="M235.5211,164.50541c0,0.03735 -0.03028,0.06764 -0.06763,0.06764c-0.03735,0 -0.06763,-0.03028 -0.06763,-0.06764c0,-0.03735 0.03028,-0.06764 0.06763,-0.06764c0.03736,0 0.06763,0.03028 0.06763,0.06764z" fill="#ff7272" stroke="none"/><path d="M235.724,164.42088c0,0.01868 -0.01514,0.03382 -0.03382,0.03382c-0.01867,0 -0.03381,-0.01514 -0.03381,-0.03382c0,-0.01868 0.01514,-0.03382 0.03381,-0.03382c0.01868,0 0.03382,0.01514 0.03382,0.03382z" fill="#ff9191" stroke="none"/><path d="M235.53237,164.33635c0,0.02179 -0.01766,0.03945 -0.03945,0.03945c-0.02179,0 -0.03945,-0.01766 -0.03945,-0.03945c0,-0.02179 0.01767,-0.03945 0.03945,-0.03945c0.02179,0 0.03945,0.01766 0.03945,0.03945z" fill="#ffaeae" stroke="none"/><path d="M235.71273,164.26308c0,0.03735 -0.03028,0.06763 -0.06763,0.06763c-0.03735,0 -0.06763,-0.03028 -0.06763,-0.06763c0,-0.03735 0.03028,-0.06764 0.06763,-0.06764c0.03736,0 0.06763,0.03028 0.06763,0.06764z" fill="#ff7272" stroke="none"/><path d="M235.84799,164.29972c0,0.01401 -0.01135,0.02536 -0.02536,0.02536c-0.01401,0 -0.02536,-0.01135 -0.02536,-0.02536c0,-0.01401 0.01136,-0.02536 0.02536,-0.02536c0.01401,0 0.02536,0.01135 0.02536,0.02536z" fill="#ffc4c4" stroke="none"/><path d="M235.63664,164.57024c0,0.01556 -0.01262,0.02818 -0.02818,0.02818c-0.01556,0 -0.02818,-0.01261 -0.02818,-0.02818c0,-0.01556 0.01261,-0.02818 0.02818,-0.02818c0.01556,0 0.02818,0.01262 0.02818,0.02818z" fill="#ffa3a3" stroke="none"/><path d="M235.91562,164.45471c0,0.02179 -0.01766,0.03945 -0.03945,0.03945c-0.02179,0 -0.03945,-0.01766 -0.03945,-0.03945c0,-0.02179 0.01766,-0.03945 0.03945,-0.03945c0.02179,0 0.03945,0.01766 0.03945,0.03945z" fill="#ff9898" stroke="none"/><path d="M235.70991,164.70552c0,0.01556 -0.01262,0.02818 -0.02818,0.02818c-0.01556,0 -0.02818,-0.01261 -0.02818,-0.02818c0,-0.01556 0.01261,-0.02818 0.02818,-0.02818c0.01556,0 0.02818,0.01262 0.02818,0.02818z" fill="#ffc4c4" stroke="none"/><path d="M235.85926,164.60686c0,0.03735 -0.03028,0.06764 -0.06763,0.06764c-0.03735,0 -0.06763,-0.03028 -0.06763,-0.06764c0,-0.03735 0.03028,-0.06763 0.06763,-0.06763c0.03736,0 0.06763,0.03028 0.06763,0.06763z" fill="#ff7272" stroke="none"/></g><g><path d="M235.66952,165.8346c-0.19454,0 -0.35225,-0.15771 -0.35225,-0.35225c0,-0.19454 0.15771,-0.35225 0.35225,-0.35225c0.19454,0 0.35225,0.15771 0.35225,0.35225c0,0.19454 -0.15771,0.35225 -0.35225,0.35225z" fill="#c30007" stroke="#8a0005"/><path d="M235.48165,165.51239c-0.03736,0 -0.06763,-0.03028 -0.06763,-0.06764c0,-0.03735 0.03028,-0.06763 0.06763,-0.06763c0.03735,0 0.06763,0.03028 0.06763,0.06763c0,0.03735 -0.03028,0.06764 -0.06763,0.06764z" fill="#ff7272" stroke="none"/><path d="M235.71836,165.56313c-0.01867,0 -0.03382,-0.01514 -0.03382,-0.03381c0,-0.01868 0.01514,-0.03382 0.03382,-0.03382c0.01868,0 0.03382,0.01514 0.03382,0.03382c0,0.01868 -0.01514,0.03381 -0.03382,0.03381z" fill="#ff9191" stroke="none"/><path d="M235.5211,165.65331c-0.02179,0 -0.03945,-0.01766 -0.03945,-0.03945c0,-0.02179 0.01766,-0.03945 0.03945,-0.03945c0.02179,0 0.03945,0.01766 0.03945,0.03945c0,0.02179 -0.01766,0.03945 -0.03945,0.03945z" fill="#ffaeae" stroke="none"/><path d="M235.67328,165.75476c-0.03735,0 -0.06763,-0.03028 -0.06763,-0.06764c0,-0.03735 0.03028,-0.06764 0.06763,-0.06764c0.03736,0 0.06763,0.03028 0.06763,0.06764c0,0.03735 -0.03028,0.06764 -0.06763,0.06764z" fill="#ff7272" stroke="none"/><path d="M235.85081,165.67585c-0.01401,0 -0.02536,-0.01135 -0.02536,-0.02536c0,-0.01401 0.01136,-0.02536 0.02536,-0.02536c0.01401,0 0.02536,0.01135 0.02536,0.02536c0,0.01401 -0.01135,0.02536 -0.02536,0.02536z" fill="#ffc4c4" stroke="none"/><path d="M235.63664,165.40814c-0.01556,0 -0.02818,-0.01262 -0.02818,-0.02818c0,-0.01556 0.01262,-0.02818 0.02818,-0.02818c0.01556,0 0.02818,0.01261 0.02818,0.02818c0,0.01556 -0.01262,0.02818 -0.02818,0.02818z" fill="#ffa3a3" stroke="none"/><path d="M235.90435,165.53495c-0.02179,0 -0.03945,-0.01766 -0.03945,-0.03945c0,-0.02179 0.01766,-0.03945 0.03945,-0.03945c0.02179,0 0.03945,0.01766 0.03945,0.03945c0,0.02179 -0.01767,0.03945 -0.03945,0.03945z" fill="#ff9898" stroke="none"/><path d="M235.70991,165.27287c-0.01556,0 -0.02818,-0.01262 -0.02818,-0.02818c0,-0.01556 0.01262,-0.02818 0.02818,-0.02818c0.01556,0 0.02818,0.01261 0.02818,0.02818c0,0.01556 -0.01261,0.02818 -0.02818,0.02818z" fill="#ffc4c4" stroke="none"/><path d="M235.81981,165.41094c-0.03736,0 -0.06763,-0.03028 -0.06763,-0.06763c0,-0.03735 0.03028,-0.06764 0.06763,-0.06764c0.03735,0 0.06763,0.03028 0.06763,0.06764c0,0.03735 -0.03028,0.06763 -0.06763,0.06763z" fill="#ff7272" stroke="none"/></g><g><path d="M234.95092,166.29958c0,-0.19454 0.15771,-0.35225 0.35225,-0.35225c0.19454,0 0.35225,0.15771 0.35225,0.35225c0,0.19454 -0.15771,0.35225 -0.35225,0.35225c-0.19454,0 -0.35225,-0.15771 -0.35225,-0.35225z" fill="#c30007" stroke="#8a0005"/><path d="M235.42341,166.26201c0,-0.03735 0.03028,-0.06764 0.06763,-0.06764c0.03736,0 0.06763,0.03028 0.06763,0.06764c0,0.03735 -0.03028,0.06763 -0.06763,0.06763c-0.03735,0 -0.06763,-0.03028 -0.06763,-0.06763z" fill="#ff7272" stroke="none"/><path d="M235.22051,166.34655c0,-0.01868 0.01514,-0.03382 0.03382,-0.03382c0.01868,0 0.03382,0.01514 0.03382,0.03382c0,0.01868 -0.01514,0.03381 -0.03382,0.03381c-0.01867,0 -0.03382,-0.01514 -0.03382,-0.03381z" fill="#ff9191" stroke="none"/><path d="M235.41214,166.43108c0,-0.02179 0.01766,-0.03945 0.03945,-0.03945c0.02179,0 0.03945,0.01766 0.03945,0.03945c0,0.02179 -0.01766,0.03945 -0.03945,0.03945c-0.02179,0 -0.03945,-0.01766 -0.03945,-0.03945z" fill="#ffaeae" stroke="none"/><path d="M235.23178,166.50434c0,-0.03735 0.03028,-0.06764 0.06763,-0.06764c0.03736,0 0.06763,0.03028 0.06763,0.06764c0,0.03735 -0.03028,0.06764 -0.06763,0.06764c-0.03735,0 -0.06763,-0.03028 -0.06763,-0.06764z" fill="#ff7272" stroke="none"/><path d="M235.09652,166.46771c0,-0.01401 0.01136,-0.02536 0.02536,-0.02536c0.01401,0 0.02536,0.01135 0.02536,0.02536c0,0.01401 -0.01135,0.02536 -0.02536,0.02536c-0.01401,0 -0.02536,-0.01135 -0.02536,-0.02536z" fill="#ffc4c4" stroke="none"/><path d="M235.30787,166.19719c0,-0.01556 0.01261,-0.02818 0.02818,-0.02818c0.01556,0 0.02818,0.01261 0.02818,0.02818c0,0.01556 -0.01262,0.02818 -0.02818,0.02818c-0.01556,0 -0.02818,-0.01262 -0.02818,-0.02818z" fill="#ffa3a3" stroke="none"/><path d="M235.02888,166.31272c0,-0.02179 0.01766,-0.03945 0.03945,-0.03945c0.02179,0 0.03945,0.01766 0.03945,0.03945c0,0.02179 -0.01766,0.03945 -0.03945,0.03945c-0.02179,0 -0.03945,-0.01766 -0.03945,-0.03945z" fill="#ff9898" stroke="none"/><path d="M235.2346,166.06191c0,-0.01556 0.01261,-0.02818 0.02818,-0.02818c0.01556,0 0.02818,0.01261 0.02818,0.02818c0,0.01556 -0.01262,0.02818 -0.02818,0.02818c-0.01556,0 -0.02818,-0.01262 -0.02818,-0.02818z" fill="#ffc4c4" stroke="none"/><path d="M235.08525,166.16055c0,-0.03735 0.03028,-0.06764 0.06763,-0.06764c0.03736,0 0.06764,0.03028 0.06764,0.06764c0,0.03735 -0.03028,0.06763 -0.06764,0.06763c-0.03735,0 -0.06763,-0.03028 -0.06763,-0.06763z" fill="#ff7272" stroke="none"/></g><g><path d="M234.71139,165.27099c0.19454,0 0.35225,0.15771 0.35225,0.35225c0,0.19454 -0.15771,0.35225 -0.35225,0.35225c-0.19454,0 -0.35225,-0.15771 -0.35225,-0.35225c0,-0.19454 0.15771,-0.35225 0.35225,-0.35225z" fill="#c30007" stroke="#8a0005"/><path d="M234.89926,165.59319c0.03735,0 0.06763,0.03028 0.06763,0.06763c0,0.03735 -0.03028,0.06764 -0.06763,0.06764c-0.03735,0 -0.06763,-0.03028 -0.06763,-0.06764c0,-0.03735 0.03028,-0.06763 0.06763,-0.06763z" fill="#ff7272" stroke="none"/><path d="M234.66254,165.54247c0.01867,0 0.03381,0.01514 0.03381,0.03381c0,0.01868 -0.01514,0.03381 -0.03381,0.03381c-0.01867,0 -0.03382,-0.01514 -0.03382,-0.03381c0,-0.01868 0.01514,-0.03381 0.03382,-0.03381z" fill="#ff9191" stroke="none"/><path d="M234.8598,165.45229c0.02179,0 0.03945,0.01766 0.03945,0.03945c0,0.02179 -0.01766,0.03945 -0.03945,0.03945c-0.02179,0 -0.03945,-0.01766 -0.03945,-0.03945c0,-0.02179 0.01766,-0.03945 0.03945,-0.03945z" fill="#ffaeae" stroke="none"/><path d="M234.70763,165.35084c0.03735,0 0.06763,0.03028 0.06763,0.06763c0,0.03735 -0.03028,0.06763 -0.06763,0.06763c-0.03735,0 -0.06763,-0.03028 -0.06763,-0.06763c0,-0.03735 0.03028,-0.06763 0.06763,-0.06763z" fill="#ff7272" stroke="none"/><path d="M234.53009,165.42974c0.01401,0 0.02536,0.01135 0.02536,0.02536c0,0.01401 -0.01135,0.02536 -0.02536,0.02536c-0.01401,0 -0.02536,-0.01135 -0.02536,-0.02536c0,-0.01401 0.01135,-0.02536 0.02536,-0.02536z" fill="#ffc4c4" stroke="none"/><path d="M234.74426,165.69746c0.01556,0 0.02818,0.01261 0.02818,0.02818c0,0.01556 -0.01262,0.02818 -0.02818,0.02818c-0.01556,0 -0.02818,-0.01262 -0.02818,-0.02818c0,-0.01556 0.01261,-0.02818 0.02818,-0.02818z" fill="#ffa3a3" stroke="none"/><path d="M234.47655,165.57065c0.02179,0 0.03945,0.01766 0.03945,0.03945c0,0.02179 -0.01766,0.03945 -0.03945,0.03945c-0.02179,0 -0.03945,-0.01766 -0.03945,-0.03945c0,-0.02179 0.01766,-0.03945 0.03945,-0.03945z" fill="#ff9898" stroke="none"/><path d="M234.671,165.83273c0.01556,0 0.02818,0.01262 0.02818,0.02818c0,0.01556 -0.01262,0.02818 -0.02818,0.02818c-0.01556,0 -0.02818,-0.01261 -0.02818,-0.02818c0,-0.01556 0.01262,-0.02818 0.02818,-0.02818z" fill="#ffc4c4" stroke="none"/><path d="M234.56109,165.69464c0.03736,0 0.06763,0.03028 0.06763,0.06764c0,0.03735 -0.03028,0.06764 -0.06763,0.06764c-0.03735,0 -0.06763,-0.03028 -0.06763,-0.06764c0,-0.03735 0.03028,-0.06764 0.06763,-0.06764z" fill="#ff7272" stroke="none"/></g><g><path d="M234.41549,164.66512c0,-0.19454 0.15771,-0.35225 0.35225,-0.35225c0.19454,0 0.35225,0.15771 0.35225,0.35225c0,0.19454 -0.15771,0.35225 -0.35225,0.35225c-0.19454,0 -0.35225,-0.15771 -0.35225,-0.35225z" fill="#c30007" stroke="#8a0005"/><path d="M234.88798,164.62754c0,-0.03735 0.03028,-0.06763 0.06764,-0.06763c0.03735,0 0.06763,0.03028 0.06763,0.06763c0,0.03735 -0.03028,0.06764 -0.06763,0.06764c-0.03736,0 -0.06764,-0.03028 -0.06764,-0.06764z" fill="#ff7272" stroke="none"/><path d="M234.68509,164.71207c0,-0.01868 0.01514,-0.03382 0.03382,-0.03382c0.01867,0 0.03381,0.01514 0.03381,0.03382c0,0.01868 -0.01514,0.03382 -0.03381,0.03382c-0.01867,0 -0.03382,-0.01514 -0.03382,-0.03382z" fill="#ff9191" stroke="none"/><path d="M234.87671,164.79663c0,-0.02179 0.01766,-0.03945 0.03945,-0.03945c0.02179,0 0.03945,0.01766 0.03945,0.03945c0,0.02179 -0.01767,0.03945 -0.03945,0.03945c-0.02179,0 -0.03945,-0.01766 -0.03945,-0.03945z" fill="#ffaeae" stroke="none"/><path d="M234.69636,164.8699c0,-0.03735 0.03028,-0.06764 0.06764,-0.06764c0.03735,0 0.06763,0.03028 0.06763,0.06764c0,0.03735 -0.03028,0.06764 -0.06763,0.06764c-0.03736,0 -0.06764,-0.03028 -0.06764,-0.06764z" fill="#ff7272" stroke="none"/><path d="M234.56109,164.83327c0,-0.01401 0.01136,-0.02536 0.02536,-0.02536c0.01401,0 0.02536,0.01135 0.02536,0.02536c0,0.01401 -0.01136,0.02536 -0.02536,0.02536c-0.01401,0 -0.02536,-0.01135 -0.02536,-0.02536z" fill="#ffc4c4" stroke="none"/><path d="M234.77244,164.56272c0,-0.01556 0.01262,-0.02818 0.02818,-0.02818c0.01556,0 0.02818,0.01261 0.02818,0.02818c0,0.01556 -0.01262,0.02818 -0.02818,0.02818c-0.01556,0 -0.02818,-0.01262 -0.02818,-0.02818z" fill="#ffa3a3" stroke="none"/><path d="M234.49346,164.67827c0,-0.02179 0.01766,-0.03945 0.03945,-0.03945c0.02179,0 0.03945,0.01766 0.03945,0.03945c0,0.02179 -0.01766,0.03945 -0.03945,0.03945c-0.02179,0 -0.03945,-0.01766 -0.03945,-0.03945z" fill="#ff9898" stroke="none"/><path d="M234.69918,164.42747c0,-0.01556 0.01262,-0.02818 0.02818,-0.02818c0.01556,0 0.02818,0.01261 0.02818,0.02818c0,0.01556 -0.01261,0.02818 -0.02818,0.02818c-0.01556,0 -0.02818,-0.01262 -0.02818,-0.02818z" fill="#ffc4c4" stroke="none"/><path d="M234.54982,164.52609c0,-0.03735 0.03028,-0.06763 0.06763,-0.06763c0.03735,0 0.06763,0.03028 0.06763,0.06763c0,0.03735 -0.03028,0.06764 -0.06763,0.06764c-0.03736,0 -0.06763,-0.03028 -0.06763,-0.06764z" fill="#ff7272" stroke="none"/></g><g><path d="M234.19005,164.21422c0,0.19454 -0.15771,0.35225 -0.35225,0.35225c-0.19454,0 -0.35225,-0.15771 -0.35225,-0.35225c0,-0.19454 0.15771,-0.35225 0.35225,-0.35225c0.19454,0 0.35225,0.15771 0.35225,0.35225z" fill="#c30007" stroke="#8a0005"/><path d="M233.71756,164.25181c0,0.03735 -0.03028,0.06763 -0.06763,0.06763c-0.03735,0 -0.06763,-0.03028 -0.06763,-0.06763c0,-0.03735 0.03028,-0.06764 0.06763,-0.06764c0.03736,0 0.06763,0.03028 0.06763,0.06764z" fill="#ff7272" stroke="none"/><path d="M233.92046,164.16727c0,0.01868 -0.01514,0.03381 -0.03382,0.03381c-0.01868,0 -0.03381,-0.01514 -0.03381,-0.03381c0,-0.01868 0.01514,-0.03381 0.03381,-0.03381c0.01868,0 0.03382,0.01514 0.03382,0.03381z" fill="#ff9191" stroke="none"/><path d="M233.72884,164.08273c0,0.02179 -0.01766,0.03945 -0.03945,0.03945c-0.02179,0 -0.03945,-0.01766 -0.03945,-0.03945c0,-0.02179 0.01766,-0.03945 0.03945,-0.03945c0.02179,0 0.03945,0.01766 0.03945,0.03945z" fill="#ffaeae" stroke="none"/><path d="M233.90919,164.00946c0,0.03735 -0.03028,0.06763 -0.06763,0.06763c-0.03735,0 -0.06763,-0.03028 -0.06763,-0.06763c0,-0.03735 0.03028,-0.06763 0.06763,-0.06763c0.03736,0 0.06763,0.03028 0.06763,0.06763z" fill="#ff7272" stroke="none"/><path d="M234.04445,164.04609c0,0.01401 -0.01135,0.02536 -0.02536,0.02536c-0.01401,0 -0.02536,-0.01135 -0.02536,-0.02536c0,-0.01401 0.01135,-0.02536 0.02536,-0.02536c0.01401,0 0.02536,0.01135 0.02536,0.02536z" fill="#ffc4c4" stroke="none"/><path d="M233.8331,164.31663c0,0.01556 -0.01262,0.02818 -0.02818,0.02818c-0.01556,0 -0.02818,-0.01262 -0.02818,-0.02818c0,-0.01556 0.01261,-0.02818 0.02818,-0.02818c0.01556,0 0.02818,0.01261 0.02818,0.02818z" fill="#ffa3a3" stroke="none"/><path d="M234.11209,164.20109c0,0.02179 -0.01766,0.03945 -0.03945,0.03945c-0.02179,0 -0.03945,-0.01766 -0.03945,-0.03945c0,-0.02179 0.01766,-0.03945 0.03945,-0.03945c0.02179,0 0.03945,0.01766 0.03945,0.03945z" fill="#ff9898" stroke="none"/><path d="M233.90637,164.45189c0,0.01556 -0.01262,0.02818 -0.02818,0.02818c-0.01556,0 -0.02818,-0.01262 -0.02818,-0.02818c0,-0.01556 0.01261,-0.02818 0.02818,-0.02818c0.01556,0 0.02818,0.01262 0.02818,0.02818z" fill="#ffc4c4" stroke="none"/><path d="M234.05573,164.35326c0,0.03735 -0.03028,0.06763 -0.06764,0.06763c-0.03735,0 -0.06763,-0.03028 -0.06763,-0.06763c0,-0.03735 0.03028,-0.06764 0.06763,-0.06764c0.03736,0 0.06764,0.03028 0.06764,0.06764z" fill="#ff7272" stroke="none"/></g><g><path d="M233.61747,165.07796c0,-0.19454 0.15771,-0.35225 0.35225,-0.35225c0.19455,0 0.35225,0.15771 0.35225,0.35225c0,0.19454 -0.15771,0.35225 -0.35225,0.35225c-0.19454,0 -0.35225,-0.15771 -0.35225,-0.35225z" fill="#c30007" stroke="#8a0005"/><path d="M234.08996,165.04039c0,-0.03735 0.03028,-0.06764 0.06763,-0.06764c0.03736,0 0.06764,0.03028 0.06764,0.06764c0,0.03735 -0.03028,0.06764 -0.06764,0.06764c-0.03735,0 -0.06763,-0.03028 -0.06763,-0.06764z" fill="#ff7272" stroke="none"/><path d="M233.88706,165.12493c0,-0.01868 0.01514,-0.03381 0.03382,-0.03381c0.01868,0 0.03382,0.01514 0.03382,0.03381c0,0.01868 -0.01514,0.03382 -0.03382,0.03382c-0.01868,0 -0.03382,-0.01514 -0.03382,-0.03382z" fill="#ff9191" stroke="none"/><path d="M234.07869,165.20947c0,-0.02179 0.01766,-0.03945 0.03945,-0.03945c0.02179,0 0.03945,0.01766 0.03945,0.03945c0,0.02179 -0.01766,0.03945 -0.03945,0.03945c-0.02179,0 -0.03945,-0.01766 -0.03945,-0.03945z" fill="#ffaeae" stroke="none"/><path d="M233.89833,165.28272c0,-0.03735 0.03028,-0.06764 0.06763,-0.06764c0.03735,0 0.06763,0.03028 0.06763,0.06764c0,0.03735 -0.03028,0.06763 -0.06763,0.06763c-0.03736,0 -0.06763,-0.03028 -0.06763,-0.06763z" fill="#ff7272" stroke="none"/><path d="M233.76306,165.2461c0,-0.01401 0.01136,-0.02536 0.02536,-0.02536c0.01401,0 0.02536,0.01135 0.02536,0.02536c0,0.01401 -0.01135,0.02536 -0.02536,0.02536c-0.01401,0 -0.02536,-0.01135 -0.02536,-0.02536z" fill="#ffc4c4" stroke="none"/><path d="M233.97442,164.97557c0,-0.01556 0.01262,-0.02818 0.02818,-0.02818c0.01556,0 0.02818,0.01261 0.02818,0.02818c0,0.01556 -0.01262,0.02818 -0.02818,0.02818c-0.01556,0 -0.02818,-0.01262 -0.02818,-0.02818z" fill="#ffa3a3" stroke="none"/><path d="M233.69543,165.0911c0,-0.02179 0.01766,-0.03945 0.03945,-0.03945c0.02179,0 0.03945,0.01766 0.03945,0.03945c0,0.02179 -0.01766,0.03945 -0.03945,0.03945c-0.02179,0 -0.03945,-0.01766 -0.03945,-0.03945z" fill="#ff9898" stroke="none"/><path d="M233.90115,164.8403c0,-0.01556 0.01262,-0.02818 0.02818,-0.02818c0.01556,0 0.02818,0.01262 0.02818,0.02818c0,0.01556 -0.01262,0.02818 -0.02818,0.02818c-0.01556,0 -0.02818,-0.01262 -0.02818,-0.02818z" fill="#ffc4c4" stroke="none"/><path d="M233.75179,164.93894c0,-0.03735 0.03028,-0.06763 0.06763,-0.06763c0.03735,0 0.06763,0.03028 0.06763,0.06763c0,0.03735 -0.03028,0.06764 -0.06763,0.06764c-0.03735,0 -0.06763,-0.03028 -0.06763,-0.06764z" fill="#ff7272" stroke="none"/></g><g><path d="M233.07693,165.24282c-0.19454,0 -0.35225,-0.15771 -0.35225,-0.35225c0,-0.19454 0.15771,-0.35225 0.35225,-0.35225c0.19454,0 0.35225,0.15771 0.35225,0.35225c0,0.19454 -0.15771,0.35225 -0.35225,0.35225z" fill="#c30007" stroke="#8a0005"/><path d="M232.88906,164.92061c-0.03736,0 -0.06764,-0.03028 -0.06764,-0.06763c0,-0.03735 0.03028,-0.06764 0.06764,-0.06764c0.03735,0 0.06763,0.03028 0.06763,0.06764c0,0.03735 -0.03028,0.06763 -0.06763,0.06763z" fill="#ff7272" stroke="none"/><path d="M233.12578,164.97135c-0.01868,0 -0.03381,-0.01514 -0.03381,-0.03381c0,-0.01868 0.01514,-0.03382 0.03381,-0.03382c0.01868,0 0.03382,0.01514 0.03382,0.03382c0,0.01868 -0.01514,0.03381 -0.03382,0.03381z" fill="#ff9191" stroke="none"/><path d="M232.92852,165.06153c-0.02179,0 -0.03945,-0.01766 -0.03945,-0.03945c0,-0.02179 0.01766,-0.03945 0.03945,-0.03945c0.02179,0 0.03945,0.01766 0.03945,0.03945c0,0.02179 -0.01767,0.03945 -0.03945,0.03945z" fill="#ffaeae" stroke="none"/><path d="M233.08069,165.16298c-0.03735,0 -0.06763,-0.03028 -0.06763,-0.06764c0,-0.03735 0.03028,-0.06764 0.06763,-0.06764c0.03735,0 0.06763,0.03028 0.06763,0.06764c0,0.03735 -0.03028,0.06764 -0.06763,0.06764z" fill="#ff7272" stroke="none"/><path d="M233.25822,165.08407c-0.01401,0 -0.02536,-0.01135 -0.02536,-0.02536c0,-0.01401 0.01135,-0.02536 0.02536,-0.02536c0.01401,0 0.02536,0.01135 0.02536,0.02536c0,0.01401 -0.01135,0.02536 -0.02536,0.02536z" fill="#ffc4c4" stroke="none"/><path d="M233.04405,164.81636c-0.01556,0 -0.02818,-0.01262 -0.02818,-0.02818c0,-0.01556 0.01261,-0.02818 0.02818,-0.02818c0.01556,0 0.02818,0.01261 0.02818,0.02818c0,0.01556 -0.01262,0.02818 -0.02818,0.02818z" fill="#ffa3a3" stroke="none"/><path d="M233.31177,164.94317c-0.02179,0 -0.03945,-0.01766 -0.03945,-0.03945c0,-0.02179 0.01766,-0.03945 0.03945,-0.03945c0.02179,0 0.03945,0.01766 0.03945,0.03945c0,0.02179 -0.01766,0.03945 -0.03945,0.03945z" fill="#ff9898" stroke="none"/><path d="M233.11732,164.68108c-0.01556,0 -0.02818,-0.01261 -0.02818,-0.02818c0,-0.01556 0.01261,-0.02818 0.02818,-0.02818c0.01556,0 0.02818,0.01262 0.02818,0.02818c0,0.01556 -0.01262,0.02818 -0.02818,0.02818z" fill="#ffc4c4" stroke="none"/><path d="M233.22722,164.81916c-0.03736,0 -0.06763,-0.03028 -0.06763,-0.06763c0,-0.03735 0.03028,-0.06764 0.06763,-0.06764c0.03735,0 0.06763,0.03028 0.06763,0.06764c0,0.03735 -0.03028,0.06763 -0.06763,0.06763z" fill="#ff7272" stroke="none"/></g><g><path d="M233.34464,163.67881c0,0.19454 -0.15771,0.35225 -0.35225,0.35225c-0.19454,0 -0.35225,-0.15771 -0.35225,-0.35225c0,-0.19454 0.15771,-0.35225 0.35225,-0.35225c0.19454,0 0.35225,0.15771 0.35225,0.35225z" fill="#c30007" stroke="#8a0005"/><path d="M232.87215,163.71637c0,0.03735 -0.03028,0.06764 -0.06763,0.06764c-0.03735,0 -0.06763,-0.03028 -0.06763,-0.06764c0,-0.03735 0.03028,-0.06763 0.06763,-0.06763c0.03735,0 0.06763,0.03028 0.06763,0.06763z" fill="#ff7272" stroke="none"/><path d="M233.07505,163.63184c0,0.01868 -0.01514,0.03382 -0.03382,0.03382c-0.01868,0 -0.03381,-0.01514 -0.03381,-0.03382c0,-0.01868 0.01514,-0.03381 0.03381,-0.03381c0.01868,0 0.03382,0.01514 0.03382,0.03381z" fill="#ff9191" stroke="none"/><path d="M232.88342,163.54731c0,0.02179 -0.01766,0.03945 -0.03945,0.03945c-0.02179,0 -0.03945,-0.01766 -0.03945,-0.03945c0,-0.02179 0.01766,-0.03945 0.03945,-0.03945c0.02179,0 0.03945,0.01766 0.03945,0.03945z" fill="#ffaeae" stroke="none"/><path d="M233.06378,163.47404c0,0.03735 -0.03028,0.06764 -0.06764,0.06764c-0.03736,0 -0.06764,-0.03028 -0.06764,-0.06764c0,-0.03735 0.03028,-0.06764 0.06764,-0.06764c0.03736,0 0.06764,0.03028 0.06764,0.06764z" fill="#ff7272" stroke="none"/><path d="M233.19905,163.51067c0,0.01401 -0.01136,0.02536 -0.02536,0.02536c-0.01401,0 -0.02536,-0.01135 -0.02536,-0.02536c0,-0.01401 0.01135,-0.02536 0.02536,-0.02536c0.01401,0 0.02536,0.01135 0.02536,0.02536z" fill="#ffc4c4" stroke="none"/><path d="M232.98769,163.78119c0,0.01556 -0.01262,0.02818 -0.02818,0.02818c-0.01556,0 -0.02818,-0.01262 -0.02818,-0.02818c0,-0.01556 0.01262,-0.02818 0.02818,-0.02818c0.01556,0 0.02818,0.01261 0.02818,0.02818z" fill="#ffa3a3" stroke="none"/><path d="M233.26668,163.66566c0,0.02179 -0.01766,0.03945 -0.03945,0.03945c-0.02179,0 -0.03945,-0.01766 -0.03945,-0.03945c0,-0.02179 0.01766,-0.03945 0.03945,-0.03945c0.02179,0 0.03945,0.01766 0.03945,0.03945z" fill="#ff9898" stroke="none"/><path d="M233.06096,163.91647c0,0.01556 -0.01262,0.02818 -0.02818,0.02818c-0.01556,0 -0.02818,-0.01262 -0.02818,-0.02818c0,-0.01556 0.01262,-0.02818 0.02818,-0.02818c0.01556,0 0.02818,0.01261 0.02818,0.02818z" fill="#ffc4c4" stroke="none"/><path d="M233.21032,163.81782c0,0.03735 -0.03028,0.06764 -0.06763,0.06764c-0.03736,0 -0.06764,-0.03028 -0.06764,-0.06764c0,-0.03735 0.03028,-0.06763 0.06764,-0.06763c0.03736,0 0.06763,0.03028 0.06763,0.06763z" fill="#ff7272" stroke="none"/></g><g><path d="M232.34424,163.9747c0.19454,0 0.35225,0.15771 0.35225,0.35225c0,0.19454 -0.15771,0.35225 -0.35225,0.35225c-0.19454,0 -0.35225,-0.15771 -0.35225,-0.35225c0,-0.19454 0.15771,-0.35225 0.35225,-0.35225z" fill="#c30007" stroke="#8a0005"/><path d="M232.53211,164.2969c0.03735,0 0.06764,0.03028 0.06764,0.06763c0,0.03735 -0.03028,0.06763 -0.06764,0.06763c-0.03735,0 -0.06763,-0.03028 -0.06763,-0.06763c0,-0.03735 0.03028,-0.06763 0.06763,-0.06763z" fill="#ff7272" stroke="none"/><path d="M232.2954,164.24617c0.01868,0 0.03382,0.01514 0.03382,0.03382c0,0.01868 -0.01514,0.03381 -0.03382,0.03381c-0.01868,0 -0.03381,-0.01514 -0.03381,-0.03381c0,-0.01868 0.01514,-0.03382 0.03381,-0.03382z" fill="#ff9191" stroke="none"/><path d="M232.49266,164.156c0.02179,0 0.03945,0.01766 0.03945,0.03945c0,0.02179 -0.01766,0.03945 -0.03945,0.03945c-0.02179,0 -0.03945,-0.01766 -0.03945,-0.03945c0,-0.02179 0.01766,-0.03945 0.03945,-0.03945z" fill="#ffaeae" stroke="none"/><path d="M232.34049,164.05455c0.03735,0 0.06764,0.03028 0.06764,0.06763c0,0.03735 -0.03028,0.06764 -0.06764,0.06764c-0.03735,0 -0.06763,-0.03028 -0.06763,-0.06764c0,-0.03735 0.03028,-0.06763 0.06763,-0.06763z" fill="#ff7272" stroke="none"/><path d="M232.16295,164.13344c0.01401,0 0.02536,0.01135 0.02536,0.02536c0,0.01401 -0.01135,0.02536 -0.02536,0.02536c-0.01401,0 -0.02536,-0.01135 -0.02536,-0.02536c0,-0.01401 0.01135,-0.02536 0.02536,-0.02536z" fill="#ffc4c4" stroke="none"/><path d="M232.37712,164.40117c0.01556,0 0.02818,0.01261 0.02818,0.02818c0,0.01556 -0.01261,0.02818 -0.02818,0.02818c-0.01556,0 -0.02818,-0.01262 -0.02818,-0.02818c0,-0.01556 0.01262,-0.02818 0.02818,-0.02818z" fill="#ffa3a3" stroke="none"/><path d="M232.10941,164.27436c0.02179,0 0.03945,0.01766 0.03945,0.03945c0,0.02179 -0.01766,0.03945 -0.03945,0.03945c-0.02179,0 -0.03945,-0.01766 -0.03945,-0.03945c0,-0.02179 0.01766,-0.03945 0.03945,-0.03945z" fill="#ff9898" stroke="none"/><path d="M232.30385,164.53643c0.01556,0 0.02818,0.01261 0.02818,0.02818c0,0.01556 -0.01262,0.02818 -0.02818,0.02818c-0.01556,0 -0.02818,-0.01262 -0.02818,-0.02818c0,-0.01556 0.01261,-0.02818 0.02818,-0.02818z" fill="#ffc4c4" stroke="none"/><path d="M232.19395,164.39835c0.03735,0 0.06764,0.03028 0.06764,0.06764c0,0.03735 -0.03028,0.06764 -0.06764,0.06764c-0.03735,0 -0.06764,-0.03028 -0.06764,-0.06764c0,-0.03735 0.03028,-0.06764 0.06764,-0.06764z" fill="#ff7272" stroke="none"/></g><g><path d="M231.82291,165.31325c0,-0.19454 0.15771,-0.35225 0.35225,-0.35225c0.19454,0 0.35225,0.15771 0.35225,0.35225c0,0.19454 -0.15771,0.35225 -0.35225,0.35225c-0.19454,0 -0.35225,-0.15771 -0.35225,-0.35225z" fill="#c30007" stroke="#8a0005"/><path d="M232.2954,165.2757c0,-0.03735 0.03028,-0.06764 0.06764,-0.06764c0.03735,0 0.06764,0.03028 0.06764,0.06764c0,0.03735 -0.03028,0.06764 -0.06764,0.06764c-0.03735,0 -0.06764,-0.03028 -0.06764,-0.06764z" fill="#ff7272" stroke="none"/><path d="M232.0925,165.36023c0,-0.01868 0.01514,-0.03382 0.03381,-0.03382c0.01868,0 0.03382,0.01514 0.03382,0.03382c0,0.01868 -0.01514,0.03381 -0.03382,0.03381c-0.01868,0 -0.03381,-0.01514 -0.03381,-0.03381z" fill="#ff9191" stroke="none"/><path d="M232.28413,165.44478c0,-0.02179 0.01766,-0.03945 0.03945,-0.03945c0.02179,0 0.03945,0.01766 0.03945,0.03945c0,0.02179 -0.01766,0.03945 -0.03945,0.03945c-0.02179,0 -0.03945,-0.01766 -0.03945,-0.03945z" fill="#ffaeae" stroke="none"/><path d="M232.10377,165.51804c0,-0.03735 0.03028,-0.06763 0.06764,-0.06763c0.03735,0 0.06764,0.03028 0.06764,0.06763c0,0.03735 -0.03028,0.06764 -0.06764,0.06764c-0.03735,0 -0.06764,-0.03028 -0.06764,-0.06764z" fill="#ff7272" stroke="none"/><path d="M231.96851,165.4814c0,-0.01401 0.01135,-0.02536 0.02536,-0.02536c0.01401,0 0.02536,0.01135 0.02536,0.02536c0,0.01401 -0.01135,0.02536 -0.02536,0.02536c-0.01401,0 -0.02536,-0.01135 -0.02536,-0.02536z" fill="#ffc4c4" stroke="none"/><path d="M232.17986,165.21088c0,-0.01556 0.01262,-0.02818 0.02818,-0.02818c0.01556,0 0.02818,0.01261 0.02818,0.02818c0,0.01556 -0.01261,0.02818 -0.02818,0.02818c-0.01556,0 -0.02818,-0.01262 -0.02818,-0.02818z" fill="#ffa3a3" stroke="none"/><path d="M231.90087,165.32641c0,-0.02179 0.01766,-0.03945 0.03945,-0.03945c0.02179,0 0.03945,0.01766 0.03945,0.03945c0,0.02179 -0.01766,0.03945 -0.03945,0.03945c-0.02179,0 -0.03945,-0.01766 -0.03945,-0.03945z" fill="#ff9898" stroke="none"/><path d="M232.10659,165.0756c0,-0.01556 0.01262,-0.02818 0.02818,-0.02818c0.01556,0 0.02818,0.01261 0.02818,0.02818c0,0.01556 -0.01261,0.02818 -0.02818,0.02818c-0.01556,0 -0.02818,-0.01262 -0.02818,-0.02818z" fill="#ffc4c4" stroke="none"/><path d="M231.95723,165.17425c0,-0.03735 0.03028,-0.06764 0.06764,-0.06764c0.03735,0 0.06763,0.03028 0.06763,0.06764c0,0.03735 -0.03028,0.06763 -0.06763,0.06763c-0.03735,0 -0.06764,-0.03028 -0.06764,-0.06763z" fill="#ff7272" stroke="none"/></g><g><path d="M232.79513,165.75007c0.19454,0 0.35225,0.15771 0.35225,0.35225c0,0.19454 -0.15771,0.35225 -0.35225,0.35225c-0.19455,0 -0.35225,-0.15771 -0.35225,-0.35225c0,-0.19454 0.15771,-0.35225 0.35225,-0.35225z" fill="#c30007" stroke="#8a0005"/><path d="M232.98299,166.07226c0.03735,0 0.06763,0.03028 0.06763,0.06763c0,0.03735 -0.03028,0.06764 -0.06763,0.06764c-0.03736,0 -0.06763,-0.03028 -0.06763,-0.06764c0,-0.03735 0.03028,-0.06763 0.06763,-0.06763z" fill="#ff7272" stroke="none"/><path d="M232.74628,166.02152c0.01868,0 0.03382,0.01514 0.03382,0.03382c0,0.01868 -0.01514,0.03381 -0.03382,0.03381c-0.01868,0 -0.03381,-0.01514 -0.03381,-0.03381c0,-0.01868 0.01514,-0.03382 0.03381,-0.03382z" fill="#ff9191" stroke="none"/><path d="M232.94355,165.93135c0.02179,0 0.03945,0.01766 0.03945,0.03945c0,0.02179 -0.01766,0.03945 -0.03945,0.03945c-0.02179,0 -0.03945,-0.01766 -0.03945,-0.03945c0,-0.02179 0.01766,-0.03945 0.03945,-0.03945z" fill="#ffaeae" stroke="none"/><path d="M232.79137,165.8299c0.03736,0 0.06764,0.03028 0.06764,0.06763c0,0.03735 -0.03028,0.06764 -0.06764,0.06764c-0.03735,0 -0.06763,-0.03028 -0.06763,-0.06764c0,-0.03735 0.03028,-0.06763 0.06763,-0.06763z" fill="#ff7272" stroke="none"/><path d="M232.61384,165.90879c0.01401,0 0.02536,0.01135 0.02536,0.02536c0,0.01401 -0.01135,0.02536 -0.02536,0.02536c-0.01401,0 -0.02536,-0.01135 -0.02536,-0.02536c0,-0.01401 0.01135,-0.02536 0.02536,-0.02536z" fill="#ffc4c4" stroke="none"/><path d="M232.82801,166.17651c0.01556,0 0.02818,0.01262 0.02818,0.02818c0,0.01556 -0.01262,0.02818 -0.02818,0.02818c-0.01556,0 -0.02818,-0.01262 -0.02818,-0.02818c0,-0.01556 0.01261,-0.02818 0.02818,-0.02818z" fill="#ffa3a3" stroke="none"/><path d="M232.56029,166.04971c0.02179,0 0.03945,0.01766 0.03945,0.03945c0,0.02179 -0.01766,0.03945 -0.03945,0.03945c-0.02179,0 -0.03945,-0.01766 -0.03945,-0.03945c0,-0.02179 0.01766,-0.03945 0.03945,-0.03945z" fill="#ff9898" stroke="none"/><path d="M232.75474,166.31179c0.01556,0 0.02818,0.01262 0.02818,0.02818c0,0.01556 -0.01262,0.02818 -0.02818,0.02818c-0.01556,0 -0.02818,-0.01261 -0.02818,-0.02818c0,-0.01556 0.01261,-0.02818 0.02818,-0.02818z" fill="#ffc4c4" stroke="none"/><path d="M232.64483,166.17371c0.03735,0 0.06763,0.03028 0.06763,0.06764c0,0.03735 -0.03028,0.06763 -0.06763,0.06763c-0.03735,0 -0.06764,-0.03028 -0.06764,-0.06763c0,-0.03735 0.03028,-0.06764 0.06764,-0.06764z" fill="#ff7272" stroke="none"/></g><g><path d="M233.1192,166.835c0,-0.19454 0.15771,-0.35225 0.35225,-0.35225c0.19454,0 0.35225,0.15771 0.35225,0.35225c0,0.19454 -0.15771,0.35225 -0.35225,0.35225c-0.19454,0 -0.35225,-0.15771 -0.35225,-0.35225z" fill="#c30007" stroke="#8a0005"/><path d="M233.59169,166.79743c0,-0.03735 0.03028,-0.06764 0.06764,-0.06764c0.03736,0 0.06764,0.03028 0.06764,0.06764c0,0.03735 -0.03028,0.06764 -0.06764,0.06764c-0.03736,0 -0.06764,-0.03028 -0.06764,-0.06764z" fill="#ff7272" stroke="none"/><path d="M233.38879,166.88197c0,-0.01868 0.01514,-0.03382 0.03382,-0.03382c0.01868,0 0.03382,0.01514 0.03382,0.03382c0,0.01868 -0.01514,0.03381 -0.03382,0.03381c-0.01868,0 -0.03382,-0.01514 -0.03382,-0.03381z" fill="#ff9191" stroke="none"/><path d="M233.58042,166.96651c0,-0.02179 0.01766,-0.03945 0.03945,-0.03945c0.02179,0 0.03945,0.01766 0.03945,0.03945c0,0.02179 -0.01766,0.03945 -0.03945,0.03945c-0.02179,0 -0.03945,-0.01766 -0.03945,-0.03945z" fill="#ffaeae" stroke="none"/><path d="M233.40007,167.03978c0,-0.03735 0.03028,-0.06763 0.06764,-0.06763c0.03736,0 0.06764,0.03028 0.06764,0.06763c0,0.03735 -0.03028,0.06764 -0.06764,0.06764c-0.03736,0 -0.06764,-0.03028 -0.06764,-0.06764z" fill="#ff7272" stroke="none"/><path d="M233.2648,167.00315c0,-0.01401 0.01135,-0.02536 0.02536,-0.02536c0.01401,0 0.02536,0.01135 0.02536,0.02536c0,0.01401 -0.01136,0.02536 -0.02536,0.02536c-0.01401,0 -0.02536,-0.01135 -0.02536,-0.02536z" fill="#ffc4c4" stroke="none"/><path d="M233.47615,166.73261c0,-0.01556 0.01262,-0.02818 0.02818,-0.02818c0.01556,0 0.02818,0.01261 0.02818,0.02818c0,0.01556 -0.01262,0.02818 -0.02818,0.02818c-0.01556,0 -0.02818,-0.01262 -0.02818,-0.02818z" fill="#ffa3a3" stroke="none"/><path d="M233.19717,166.84815c0,-0.02179 0.01766,-0.03945 0.03945,-0.03945c0.02179,0 0.03945,0.01766 0.03945,0.03945c0,0.02179 -0.01766,0.03945 -0.03945,0.03945c-0.02179,0 -0.03945,-0.01766 -0.03945,-0.03945z" fill="#ff9898" stroke="none"/><path d="M233.40288,166.59735c0,-0.01556 0.01262,-0.02818 0.02818,-0.02818c0.01556,0 0.02818,0.01261 0.02818,0.02818c0,0.01556 -0.01262,0.02818 -0.02818,0.02818c-0.01556,0 -0.02818,-0.01262 -0.02818,-0.02818z" fill="#ffc4c4" stroke="none"/><path d="M233.25353,166.69598c0,-0.03735 0.03028,-0.06764 0.06764,-0.06764c0.03735,0 0.06763,0.03028 0.06763,0.06764c0,0.03735 -0.03028,0.06763 -0.06763,0.06763c-0.03736,0 -0.06764,-0.03028 -0.06764,-0.06763z" fill="#ff7272" stroke="none"/></g><g><path d="M234.48595,167.18726c-0.19454,0 -0.35225,-0.15771 -0.35225,-0.35225c0,-0.19454 0.15771,-0.35225 0.35225,-0.35225c0.19454,0 0.35225,0.15771 0.35225,0.35225c0,0.19454 -0.15771,0.35225 -0.35225,0.35225z" fill="#c30007" stroke="#8a0005"/><path d="M234.29808,166.86506c-0.03736,0 -0.06764,-0.03028 -0.06764,-0.06764c0,-0.03735 0.03028,-0.06764 0.06764,-0.06764c0.03736,0 0.06764,0.03028 0.06764,0.06764c0,0.03735 -0.03028,0.06764 -0.06764,0.06764z" fill="#ff7272" stroke="none"/><path d="M234.53479,166.91578c-0.01867,0 -0.03381,-0.01514 -0.03381,-0.03381c0,-0.01868 0.01514,-0.03382 0.03381,-0.03382c0.01867,0 0.03381,0.01514 0.03381,0.03382c0,0.01868 -0.01514,0.03381 -0.03381,0.03381z" fill="#ff9191" stroke="none"/><path d="M234.33753,167.00597c-0.02179,0 -0.03945,-0.01766 -0.03945,-0.03945c0,-0.02179 0.01766,-0.03945 0.03945,-0.03945c0.02179,0 0.03945,0.01766 0.03945,0.03945c0,0.02179 -0.01766,0.03945 -0.03945,0.03945z" fill="#ffaeae" stroke="none"/><path d="M234.4897,167.1074c-0.03736,0 -0.06764,-0.03028 -0.06764,-0.06764c0,-0.03735 0.03028,-0.06763 0.06764,-0.06763c0.03736,0 0.06764,0.03028 0.06764,0.06763c0,0.03735 -0.03028,0.06764 -0.06764,0.06764z" fill="#ff7272" stroke="none"/><path d="M234.66724,167.0285c-0.01401,0 -0.02536,-0.01135 -0.02536,-0.02536c0,-0.01401 0.01136,-0.02536 0.02536,-0.02536c0.01401,0 0.02536,0.01135 0.02536,0.02536c0,0.01401 -0.01135,0.02536 -0.02536,0.02536z" fill="#ffc4c4" stroke="none"/><path d="M234.45307,166.76078c-0.01556,0 -0.02818,-0.01262 -0.02818,-0.02818c0,-0.01556 0.01262,-0.02818 0.02818,-0.02818c0.01556,0 0.02818,0.01261 0.02818,0.02818c0,0.01556 -0.01262,0.02818 -0.02818,0.02818z" fill="#ffa3a3" stroke="none"/><path d="M234.72078,166.88761c-0.02179,0 -0.03945,-0.01766 -0.03945,-0.03945c0,-0.02179 0.01766,-0.03945 0.03945,-0.03945c0.02179,0 0.03945,0.01766 0.03945,0.03945c0,0.02179 -0.01766,0.03945 -0.03945,0.03945z" fill="#ff9898" stroke="none"/><path d="M234.52634,166.62553c-0.01556,0 -0.02818,-0.01262 -0.02818,-0.02818c0,-0.01556 0.01262,-0.02818 0.02818,-0.02818c0.01556,0 0.02818,0.01261 0.02818,0.02818c0,0.01556 -0.01262,0.02818 -0.02818,0.02818z" fill="#ffc4c4" stroke="none"/><path d="M234.63624,166.76361c-0.03735,0 -0.06763,-0.03028 -0.06763,-0.06764c0,-0.03735 0.03028,-0.06764 0.06763,-0.06764c0.03736,0 0.06764,0.03028 0.06764,0.06764c0,0.03735 -0.03028,0.06764 -0.06764,0.06764z" fill="#ff7272" stroke="none"/></g><g><path d="M233.51373,165.9896c0,-0.19454 0.15771,-0.35225 0.35225,-0.35225c0.19454,0 0.35225,0.15771 0.35225,0.35225c0,0.19454 -0.15771,0.35225 -0.35225,0.35225c-0.19454,0 -0.35225,-0.15771 -0.35225,-0.35225z" fill="#c30007" stroke="#8a0005"/><path d="M233.98622,165.95202c0,-0.03735 0.03028,-0.06763 0.06763,-0.06763c0.03736,0 0.06763,0.03028 0.06763,0.06763c0,0.03735 -0.03028,0.06764 -0.06763,0.06764c-0.03736,0 -0.06763,-0.03028 -0.06763,-0.06764z" fill="#ff7272" stroke="none"/><path d="M233.78332,166.03656c0,-0.01868 0.01514,-0.03381 0.03382,-0.03381c0.01868,0 0.03382,0.01514 0.03382,0.03381c0,0.01868 -0.01514,0.03382 -0.03382,0.03382c-0.01868,0 -0.03382,-0.01514 -0.03382,-0.03382z" fill="#ff9191" stroke="none"/><path d="M233.97494,166.1211c0,-0.02179 0.01766,-0.03945 0.03945,-0.03945c0.02179,0 0.03945,0.01766 0.03945,0.03945c0,0.02179 -0.01766,0.03945 -0.03945,0.03945c-0.02179,0 -0.03945,-0.01766 -0.03945,-0.03945z" fill="#ffaeae" stroke="none"/><path d="M233.79459,166.19437c0,-0.03735 0.03028,-0.06764 0.06763,-0.06764c0.03735,0 0.06763,0.03028 0.06763,0.06764c0,0.03735 -0.03028,0.06764 -0.06763,0.06764c-0.03735,0 -0.06763,-0.03028 -0.06763,-0.06764z" fill="#ff7272" stroke="none"/><path d="M233.65932,166.15772c0,-0.01401 0.01135,-0.02536 0.02536,-0.02536c0.01401,0 0.02536,0.01135 0.02536,0.02536c0,0.01401 -0.01135,0.02536 -0.02536,0.02536c-0.01401,0 -0.02536,-0.01135 -0.02536,-0.02536z" fill="#ffc4c4" stroke="none"/><path d="M233.87068,165.88721c0,-0.01556 0.01262,-0.02818 0.02818,-0.02818c0.01556,0 0.02818,0.01262 0.02818,0.02818c0,0.01556 -0.01261,0.02818 -0.02818,0.02818c-0.01556,0 -0.02818,-0.01261 -0.02818,-0.02818z" fill="#ffa3a3" stroke="none"/><path d="M233.59169,166.00275c0,-0.02179 0.01766,-0.03945 0.03945,-0.03945c0.02179,0 0.03945,0.01766 0.03945,0.03945c0,0.02179 -0.01766,0.03945 -0.03945,0.03945c-0.02179,0 -0.03945,-0.01766 -0.03945,-0.03945z" fill="#ff9898" stroke="none"/><path d="M233.79741,165.75194c0,-0.01556 0.01261,-0.02818 0.02818,-0.02818c0.01556,0 0.02818,0.01262 0.02818,0.02818c0,0.01556 -0.01262,0.02818 -0.02818,0.02818c-0.01556,0 -0.02818,-0.01261 -0.02818,-0.02818z" fill="#ffc4c4" stroke="none"/><path d="M233.64805,165.85057c0,-0.03735 0.03028,-0.06763 0.06763,-0.06763c0.03735,0 0.06763,0.03028 0.06763,0.06763c0,0.03735 -0.03028,0.06764 -0.06763,0.06764c-0.03735,0 -0.06763,-0.03028 -0.06763,-0.06764z" fill="#ff7272" stroke="none"/></g></g><g fill="#81ff35" stroke="#68cc2b" stroke-width="0.15"><path d="M233.76807,165.29942c-0.05339,0.0123 -0.14065,0.02634 -0.20859,0.0157c-0.02667,-0.02953 -0.05951,-0.05339 -0.09648,-0.06954c-0.04494,-0.19494 0.24718,-0.11655 0.28744,-0.18267c0.00028,-0.00046 0.00057,-0.00092 0.00085,-0.00139c0.01641,0.02212 0.03587,0.04626 0.05802,0.07544c0.00599,0.0079 -0.0209,0.04722 -0.02288,0.05553c-0.00532,0.02245 -0.01363,0.0629 -0.01837,0.10693z" data-paper-data="{&quot;index&quot;:null}"/><path d="M235.49456,165.19215c0.00124,-0.15851 0.14883,-0.15477 0.30234,-0.1614c0.00753,0.02443 0.01317,0.04845 0.01423,0.07177c0.00239,0.0526 -0.01394,0.10768 -0.01691,0.15959c-0.00144,0.02517 -0.01043,0.0422 -0.02324,0.05495c-0.05031,-0.07694 -0.13723,-0.12778 -0.23602,-0.12778c-0.01372,0 -0.02721,0.00098 -0.04041,0.00287z" data-paper-data="{&quot;index&quot;:null}"/><path d="M233.69341,166.86921c-0.00197,-0.00831 -0.02887,-0.04764 -0.02288,-0.05553c0.02216,-0.02917 0.04162,-0.05331 0.05803,-0.07544c0.00028,0.00046 0.00056,0.00092 0.00084,0.00139c0.04026,0.06612 0.33238,-0.01227 0.28744,0.18267c-0.03697,0.01616 -0.06981,0.04001 -0.09648,0.06954c-0.06794,0.01064 -0.1552,-0.0034 -0.20859,-0.0157c-0.00474,-0.04403 -0.01305,-0.08449 -0.01836,-0.10693z" data-paper-data="{&quot;index&quot;:null}"/><path d="M232.31019,166.31104c0.01319,0.00189 0.02669,0.00287 0.04041,0.00287c0.09879,0 0.18571,-0.05084 0.23602,-0.12777c0.0128,0.01274 0.0218,0.02977 0.02324,0.05494c0.00296,0.0519 0.0193,0.10699 0.01691,0.15959c-0.00106,0.02332 -0.0067,0.04734 -0.01423,0.07177c-0.15351,-0.00664 -0.30111,-0.00289 -0.30235,-0.1614z" data-paper-data="{&quot;index&quot;:null}"/><path d="M233.2549,163.77926c0,-0.01157 -0.00062,-0.02277 -0.00182,-0.03362c0.02832,-0.00924 0.05846,-0.02427 0.08851,-0.0429c0.01399,0.00214 0.02832,0.00325 0.04292,0.00325c0.00786,0.00197 0.01541,0.00385 0.02257,0.00564h0.05448c0.02776,0.02082 0.05388,0.03554 0.07935,0.04514c-0.03011,0.08882 -0.10557,0.15671 -0.19882,0.1761c-0.01694,-0.0511 -0.04811,-0.09571 -0.08882,-0.12914c0.00106,-0.00808 0.00162,-0.01624 0.00162,-0.02447z" data-paper-data="{&quot;index&quot;:null}"/></g></g></g></g></g></svg>