<svg version="1.1" xmlns="http://www.w3.org/2000/svg" xmlns:xlink="http://www.w3.org/1999/xlink" width="467.26537" height="253.57426" viewBox="0,0,467.26537,253.57426"><defs><linearGradient x1="63.28491" y1="69.2296" x2="63.28491" y2="180.14048" gradientUnits="userSpaceOnUse" id="color-1"><stop offset="0" stop-color="#33d52b"/><stop offset="1" stop-color="#2ac727"/></linearGradient><linearGradient x1="136.85155" y1="26.71886" x2="136.85155" y2="137.62974" gradientUnits="userSpaceOnUse" id="color-2"><stop offset="0" stop-color="#33d52b"/><stop offset="1" stop-color="#2ac727"/></linearGradient><linearGradient x1="254.14969" y1="76.53013" x2="254.14969" y2="187.44101" gradientUnits="userSpaceOnUse" id="color-3"><stop offset="0" stop-color="#33d52b"/><stop offset="1" stop-color="#2ac727"/></linearGradient><linearGradient x1="414.6394" y1="59.93434" x2="414.6394" y2="170.84522" gradientUnits="userSpaceOnUse" id="color-4"><stop offset="0" stop-color="#33d52b"/><stop offset="1" stop-color="#2ac727"/></linearGradient></defs><g transform="translate(-5.32947,-24.21888)"><g data-paper-data="{&quot;isPaintingLayer&quot;:true}" fill-rule="nonzero" stroke-width="5" stroke-linecap="butt" stroke-linejoin="miter" stroke-miterlimit="10" stroke-dasharray="" stroke-dashoffset="0" style="mix-blend-mode: normal"><g><path d="M45.58538,267.99262v-134.81229h34.36391v134.81229z" fill="#ad701a" stroke="#996317"/><path d="M7.82947,124.68505c0,-30.62718 24.82825,-55.45543 55.45543,-55.45543c30.62718,0 55.45543,24.82825 55.45543,55.45543c0,30.62718 -24.82825,55.45543 -55.45543,55.45543c-30.62718,0 -55.45543,-24.82824 -55.45543,-55.45543z" fill="url(#color-1)" stroke="#25ab22"/></g><g><path d="M119.15203,225.48187v-134.81229h34.36391v134.81229z" fill="#ad701a" stroke="#996317"/><path d="M81.39612,82.17431c0,-30.62718 24.82825,-55.45543 55.45543,-55.45543c30.62718,0 55.45543,24.82826 55.45543,55.45543c0,30.62718 -24.82826,55.45543 -55.45543,55.45543c-30.62718,0 -55.45543,-24.82823 -55.45543,-55.45543z" fill="url(#color-2)" stroke="#25ab22"/></g><g><path d="M236.45016,275.29314v-134.81229h34.36391v134.81229z" fill="#ad701a" stroke="#996317"/><path d="M198.69426,131.98558c0,-30.62718 24.82825,-55.45543 55.45543,-55.45543c30.62718,0 55.45544,24.82826 55.45544,55.45543c0,30.62718 -24.82826,55.45543 -55.45544,55.45543c-30.62718,0 -55.45543,-24.82823 -55.45543,-55.45543z" fill="url(#color-3)" stroke="#25ab22"/></g><g><path d="M396.93987,258.69735v-134.81229h34.36391v134.81229z" fill="#ad701a" stroke="#996317"/><path d="M359.18397,115.38979c0,-30.62718 24.82825,-55.45543 55.45543,-55.45543c30.62718,0 55.45544,24.82826 55.45544,55.45543c0,30.62718 -24.82826,55.45543 -55.45544,55.45543c-30.62718,0 -55.45543,-24.82823 -55.45543,-55.45543z" fill="url(#color-4)" stroke="#25ab22"/></g></g></g></svg>