<svg version="1.1" xmlns="http://www.w3.org/2000/svg" xmlns:xlink="http://www.w3.org/1999/xlink" width="44.97414" height="57.77812" viewBox="0,0,44.97414,57.77812"><defs><linearGradient x1="225.80822" y1="183.52759" x2="225.80822" y2="187.20188" gradientUnits="userSpaceOnUse" id="color-1"><stop offset="0" stop-color="#ffbd00"/><stop offset="1" stop-color="#ffb700"/></linearGradient><linearGradient x1="255.84753" y1="184.32028" x2="255.84753" y2="187.9946" gradientUnits="userSpaceOnUse" id="color-2"><stop offset="0" stop-color="#ffbd00"/><stop offset="1" stop-color="#ffb700"/></linearGradient><linearGradient x1="241.43498" y1="162.46664" x2="241.43498" y2="191.7742" gradientUnits="userSpaceOnUse" id="color-3"><stop offset="0" stop-color="#ffee00"/><stop offset="1" stop-color="#ffad00"/></linearGradient></defs><g transform="translate(-218.42776,-145.07889)"><g data-paper-data="{&quot;isPaintingLayer&quot;:true}" fill-rule="nonzero" stroke-linecap="butt" stroke-linejoin="miter" stroke-miterlimit="10" stroke-dasharray="" stroke-dashoffset="0" style="mix-blend-mode: normal"><g stroke="#bfbfbf" stroke-width="7.5"><g><path d="M222.8174,183.53479c1.97634,-0.02378 3.95403,0.01188 5.92863,0.09823c0.06025,0.001 0.11962,0.00546 0.17793,0.01319c0.27803,0.03022 0.46205,0.10139 0.5993,0.21337c0.44529,0.27437 0.7386,0.76986 0.72931,1.33075c-0.01369,0.82628 -0.67902,1.48893 -1.49822,1.50641c-0.01961,0.00042 -0.03931,0.00046 -0.0591,0.00014v0c-2.23263,0.0236 -5.139,1.30231 -6.69141,-0.30242c-1.00904,-1.04304 -0.88798,-2.8392 0.81356,-2.85967z" data-paper-data="{&quot;index&quot;:null}" fill="url(#color-1)"/><path d="M258.83835,184.32748c1.70153,0.02047 1.8226,1.81663 0.81356,2.85968c-1.55242,1.60474 -4.45879,0.32601 -6.69142,0.30242v0c-0.01979,0.00033 -0.03949,0.00028 -0.0591,-0.00014c-0.81919,-0.01748 -1.48453,-0.68013 -1.49822,-1.5064c-0.00929,-0.56089 0.28402,-1.05638 0.72931,-1.33075c0.13725,-0.11197 0.32127,-0.18314 0.5993,-0.21336c0.05831,-0.00773 0.11769,-0.01219 0.17794,-0.01319c1.97459,-0.08635 3.95229,-0.12201 5.92863,-0.09823z" data-paper-data="{&quot;index&quot;:null}" fill="url(#color-2)"/></g><g fill="#ffae00"><path d="M237.31667,196.65284c-0.04865,1.70096 -1.84658,1.79225 -2.87276,0.76607c-1.5788,-1.5788 -0.2521,-4.46358 -0.19152,-6.69551v0c0,-0.01979 0.00037,-0.03948 0.00111,-0.05909c0.03105,-0.81879 0.70463,-1.47305 1.53102,-1.47305c0.56097,0 1.05153,0.30148 1.31848,0.75126c0.10969,0.13907 0.1778,0.32426 0.20341,0.60275c0.00677,0.05844 0.01024,0.11788 0.01024,0.17813c0.05363,1.97575 0.05651,3.95377 0,5.92944z"/><path d="M247.30255,188.54135c0.03441,0.06117 0.06647,0.13958 0.09633,0.23325c0.03525,0.09503 0.06135,0.1945 0.07721,0.29736c0.36594,1.70082 0.31149,6.09189 0.19498,7.58089c-0.06313,0.80683 -0.45812,1.53214 -1.53214,1.53214c-2.18821,0 -1.75578,-7.73076 -1.70913,-8.87756c0,-0.02847 0.00078,-0.05677 0.00231,-0.08487c0.04404,-0.8067 0.71212,-1.44727 1.52982,-1.44727c0.4986,0 0.94158,0.23817 1.22136,0.60695c0.04567,0.04717 0.08587,0.09976 0.11926,0.15912z"/></g><path d="M231.72817,163.72469c11.74391,-4.06306 29.5426,1.9539 27.63083,14.60935c-1.91177,12.65545 -20.17952,17.70221 -31.24481,9.31433c-8.12599,-6.15979 -4.7233,-17.28371 2.02299,-22.82798z" fill="url(#color-3)"/></g><g fill="#ffffff" stroke="none" stroke-width="0.5"><path d="M222.8174,183.53479c1.97634,-0.02378 3.95403,0.01188 5.92863,0.09823c0.06025,0.001 0.11962,0.00546 0.17793,0.01319c0.27803,0.03022 0.46205,0.10139 0.5993,0.21337c0.44529,0.27437 0.7386,0.76986 0.72931,1.33075c-0.01369,0.82628 -0.67902,1.48893 -1.49822,1.50641c-0.01961,0.00042 -0.03931,0.00046 -0.0591,0.00014v0c-2.23263,0.0236 -5.139,1.30231 -6.69141,-0.30242c-1.00904,-1.04304 -0.88798,-2.8392 0.81356,-2.85967z" data-paper-data="{&quot;index&quot;:null}"/><path d="M258.83835,184.32748c1.70153,0.02047 1.8226,1.81663 0.81356,2.85968c-1.55242,1.60474 -4.45879,0.32601 -6.69142,0.30242v0c-0.01979,0.00033 -0.03949,0.00028 -0.0591,-0.00014c-0.81919,-0.01748 -1.48453,-0.68013 -1.49822,-1.5064c-0.00929,-0.56089 0.28402,-1.05638 0.72931,-1.33075c0.13725,-0.11197 0.32127,-0.18314 0.5993,-0.21336c0.05831,-0.00773 0.11769,-0.01219 0.17794,-0.01319c1.97459,-0.08635 3.95229,-0.12201 5.92863,-0.09823z" data-paper-data="{&quot;index&quot;:null}"/></g><g fill="#ffffff" stroke="none" stroke-width="0.5"><path d="M237.31667,196.65284c-0.04865,1.70096 -1.84658,1.79225 -2.87276,0.76607c-1.5788,-1.5788 -0.2521,-4.46358 -0.19152,-6.69551v0c0,-0.01979 0.00037,-0.03948 0.00111,-0.05909c0.03105,-0.81879 0.70463,-1.47305 1.53102,-1.47305c0.56097,0 1.05153,0.30148 1.31848,0.75126c0.10969,0.13907 0.1778,0.32426 0.20341,0.60275c0.00677,0.05844 0.01024,0.11788 0.01024,0.17813c0.05363,1.97575 0.05651,3.95377 0,5.92944z"/><path d="M247.30255,188.54135c0.03441,0.06117 0.06647,0.13958 0.09633,0.23325c0.03525,0.09503 0.06135,0.1945 0.07721,0.29736c0.36594,1.70082 0.31149,6.09189 0.19498,7.58089c-0.06313,0.80683 -0.45812,1.53214 -1.53214,1.53214c-2.18821,0 -1.75578,-7.73076 -1.70913,-8.87756c0,-0.02847 0.00078,-0.05677 0.00231,-0.08487c0.04404,-0.8067 0.71212,-1.44727 1.52982,-1.44727c0.4986,0 0.94158,0.23817 1.22136,0.60695c0.04567,0.04717 0.08587,0.09976 0.11926,0.15912z"/></g><path d="M230.13717,164.82039c0.31529,-0.45658 0.75807,-0.68488 0.75807,-0.68488l0.46169,-0.22772c0.06144,-0.03671 0.17105,-0.09706 0.31442,-0.15508l0.05682,-0.02803c11.74391,-4.06306 29.5426,1.9539 27.63083,14.60935c-1.91177,12.65545 -20.17952,17.70221 -31.24481,9.31432c-8.12599,-6.15979 -4.7233,-17.28371 2.02299,-22.82798z" fill="#ffffff" stroke="none" stroke-width="0.5"/><path d="M239.60618,173.34878c0,-0.59232 0.48017,-1.0725 1.0725,-1.0725c0.59232,0 1.0725,0.48017 1.0725,1.0725c0,0.59232 -0.48017,1.0725 -1.0725,1.0725c-0.59232,0 -1.0725,-0.48017 -1.0725,-1.0725z" fill="#000000" stroke="none" stroke-width="0.5"/><path d="M242.22246,170.85709c0,-0.59232 0.48018,-1.0725 1.0725,-1.0725c0.59232,0 1.0725,0.48017 1.0725,1.0725c0,0.59232 -0.48017,1.07249 -1.0725,1.07249c-0.59232,0 -1.0725,-0.48017 -1.0725,-1.07249z" fill="#000000" stroke="none" stroke-width="0.5"/><path d="M249.07064,167.91673c1.07156,0.04475 1.02681,1.11631 1.02681,1.11631l-0.04012,0.91766c-0.17924,1.71451 -0.52154,4.51493 -1.72059,5.91396c-2.61518,3.05133 -9.09811,1.85836 -12.08862,0.01319c0,0 -0.90948,-0.56843 -0.34106,-1.4779c0.56842,-0.90947 1.4779,-0.34106 1.4779,-0.34106c1.891,1.20079 3.98244,1.27947 6.18922,1.32017c1.17828,0.02174 2.27213,0.22992 3.10004,-0.86978c0.87939,-1.16807 1.12034,-3.41718 1.24876,-4.77202l0.03134,-0.79373c0,0 0.04475,-1.07156 1.11632,-1.02681z" fill="#000000" stroke="none" stroke-width="0.5"/><path d="M225.1433,165.64906l-5.125,-16.125l9.5,3.75l3.76459,-5.6807l7.85592,5.59746l4.21483,-5.04602l6.42593,4.18375l6.23874,-5.05449l-1,18.375c0,0 -11.34915,-5.07148 -17.21561,-4.74914c-5.48253,0.30124 -14.65939,4.74914 -14.65939,4.74914z" fill="#ffffff" stroke="#bfbfbf" stroke-width="2"/></g></g></svg>