<svg version="1.1" xmlns="http://www.w3.org/2000/svg" xmlns:xlink="http://www.w3.org/1999/xlink" width="322.40104" height="248.82559" viewBox="0,0,322.40104,248.82559"><defs><linearGradient x1="183.39021" y1="203.99631" x2="183.39021" y2="218.87103" gradientUnits="userSpaceOnUse" id="color-1"><stop offset="0" stop-color="#ffbd00"/><stop offset="1" stop-color="#ffb700"/></linearGradient><linearGradient x1="304.99907" y1="207.20538" x2="304.99907" y2="222.08022" gradientUnits="userSpaceOnUse" id="color-2"><stop offset="0" stop-color="#ffbd00"/><stop offset="1" stop-color="#ffb700"/></linearGradient><linearGradient x1="246.6524" y1="118.73476" x2="246.6524" y2="237.38127" gradientUnits="userSpaceOnUse" id="color-3"><stop offset="0" stop-color="#ffee00"/><stop offset="1" stop-color="#ffad00"/></linearGradient></defs><g transform="translate(-90.95778,-18.25863)"><g data-paper-data="{&quot;isPaintingLayer&quot;:true}" fill-rule="nonzero" stroke-linejoin="miter" stroke-miterlimit="10" stroke-dasharray="" stroke-dashoffset="0" style="mix-blend-mode: normal"><g stroke-linecap="butt"><g stroke="#bfbfbf" stroke-width="7.5"><g><path d="M171.2824,204.02546c8.00087,-0.09627 16.0072,0.04809 24.00102,0.39767c0.24391,0.00405 0.48426,0.0221 0.72032,0.0534c1.12556,0.12234 1.87053,0.41046 2.42616,0.86379c1.80268,1.11074 2.99009,3.11664 2.95248,5.38731c-0.05542,3.34505 -2.74889,6.02767 -6.06528,6.09844c-0.07939,0.0017 -0.15914,0.00186 -0.23926,0.00057v0c-9.03841,0.09554 -20.80434,5.27217 -27.089,-1.22429c-4.08492,-4.22256 -3.59483,-11.494 3.29355,-11.57687z" data-paper-data="{&quot;index&quot;:null}" fill="url(#color-1)"/><path d="M317.10688,207.23453c6.88835,0.08287 7.37848,7.35431 3.29355,11.57691c-6.2847,6.49651 -18.05063,1.31979 -27.08904,1.22429v0c-0.08012,0.00134 -0.15987,0.00113 -0.23926,-0.00057c-3.31635,-0.07076 -6.00986,-2.75339 -6.06528,-6.0984c-0.03761,-2.27066 1.14981,-4.27657 2.95248,-5.38731c0.55563,-0.45329 1.30061,-0.74141 2.42616,-0.86375c0.23606,-0.03129 0.47645,-0.04935 0.72036,-0.0534c7.99378,-0.34957 16.00015,-0.49394 24.00102,-0.39767z" data-paper-data="{&quot;index&quot;:null}" fill="url(#color-2)"/></g><g fill="#ffae00"><path d="M229.98015,257.13158c-0.19695,6.88604 -7.47555,7.25561 -11.62986,3.1013c-6.39149,-6.39149 -1.02058,-18.07002 -0.77534,-27.1056v0c0,-0.08012 0.0015,-0.15983 0.00449,-0.23922c0.1257,-3.31473 2.85257,-5.96338 6.19807,-5.96338c2.27099,0 4.25693,1.22049 5.33763,3.04134c0.44406,0.563 0.71979,1.31271 0.82347,2.44013c0.02741,0.23658 0.04145,0.47722 0.04145,0.72113c0.21711,7.99848 0.22877,16.00614 0,24.0043z"/><path d="M270.40622,224.29364c0.1393,0.24764 0.26909,0.56507 0.38998,0.94427c0.1427,0.38471 0.24836,0.7874 0.31257,1.20381c1.48144,6.88547 1.26101,24.66195 0.78934,30.6899c-0.25557,3.26631 -1.85462,6.2026 -6.2026,6.2026c-8.85858,0 -7.10797,-31.29662 -6.91911,-35.93924c0,-0.11526 0.00316,-0.22982 0.00935,-0.34358c0.17829,-3.26578 2.88289,-5.85902 6.19321,-5.85902c2.01849,0 3.81182,0.96419 4.94446,2.45713c0.18489,0.19096 0.34763,0.40386 0.4828,0.64417z"/></g><path d="M207.35609,123.82776c47.54315,-16.44858 119.59802,7.91002 111.85856,59.14338c-7.73946,51.23336 -81.69324,71.66428 -126.48912,37.70743c-32.89664,-24.93683 -19.12145,-69.97006 8.18972,-92.41506z" fill="url(#color-3)"/></g><g fill="#ffffff" stroke="none" stroke-width="0.5"><path d="M171.2824,204.02546c8.00087,-0.09627 16.0072,0.04809 24.00102,0.39767c0.24391,0.00405 0.48426,0.0221 0.72032,0.0534c1.12556,0.12234 1.87053,0.41046 2.42616,0.86379c1.80268,1.11074 2.99009,3.11664 2.95248,5.38731c-0.05542,3.34505 -2.74889,6.02767 -6.06528,6.09844c-0.07939,0.0017 -0.15914,0.00186 -0.23926,0.00057v0c-9.03841,0.09554 -20.80434,5.27217 -27.089,-1.22429c-4.08492,-4.22256 -3.59483,-11.494 3.29355,-11.57687z" data-paper-data="{&quot;index&quot;:null}"/><path d="M317.10688,207.23453c6.88835,0.08287 7.37848,7.35431 3.29355,11.57691c-6.2847,6.49651 -18.05063,1.31979 -27.08904,1.22429v0c-0.08012,0.00134 -0.15987,0.00113 -0.23926,-0.00057c-3.31635,-0.07076 -6.00986,-2.75339 -6.06528,-6.0984c-0.03761,-2.27066 1.14981,-4.27657 2.95248,-5.38731c0.55563,-0.45329 1.30061,-0.74141 2.42616,-0.86375c0.23606,-0.03129 0.47645,-0.04935 0.72036,-0.0534c7.99378,-0.34957 16.00015,-0.49394 24.00102,-0.39767z" data-paper-data="{&quot;index&quot;:null}"/></g><g fill="#ffffff" stroke="none" stroke-width="0.5"><path d="M229.98015,257.13158c-0.19695,6.88604 -7.47555,7.25561 -11.62986,3.1013c-6.39149,-6.39149 -1.02058,-18.07002 -0.77534,-27.1056v0c0,-0.08012 0.0015,-0.15983 0.00449,-0.23922c0.1257,-3.31473 2.85257,-5.96338 6.19807,-5.96338c2.27099,0 4.25693,1.22049 5.33763,3.04134c0.44406,0.563 0.71979,1.31271 0.82347,2.44013c0.02741,0.23658 0.04145,0.47722 0.04145,0.72113c0.21711,7.99848 0.22877,16.00614 0,24.0043z"/><path d="M270.40622,224.29364c0.1393,0.24764 0.26909,0.56507 0.38998,0.94427c0.1427,0.38471 0.24836,0.7874 0.31257,1.20381c1.48144,6.88547 1.26101,24.66195 0.78934,30.6899c-0.25557,3.26631 -1.85462,6.2026 -6.2026,6.2026c-8.85858,0 -7.10797,-31.29662 -6.91911,-35.93924c0,-0.11526 0.00316,-0.22982 0.00935,-0.34358c0.17829,-3.26578 2.88289,-5.85902 6.19321,-5.85902c2.01849,0 3.81182,0.96419 4.94446,2.45713c0.18489,0.19096 0.34763,0.40386 0.4828,0.64417z"/></g><path d="M200.9152,128.2635c1.2764,-1.84838 3.06891,-2.77262 3.06891,-2.77262l1.86907,-0.92188c0.24873,-0.14861 0.69247,-0.39293 1.27287,-0.62781l0.23003,-0.11347c47.54315,-16.44858 119.59802,7.91002 111.85856,59.14338c-7.73946,51.23336 -81.69324,71.66428 -126.48912,37.70739c-32.89664,-24.93683 -19.12145,-69.97006 8.18972,-92.41506z" fill="#ffffff" stroke="none" stroke-width="0.5"/><path d="M239.24882,162.78919c0,-2.3979 1.94388,-4.34183 4.34183,-4.34183c2.3979,0 4.34183,1.94388 4.34183,4.34183c0,2.3979 -1.94388,4.34183 -4.34183,4.34183c-2.3979,0 -4.34183,-1.94388 -4.34183,-4.34183z" fill="#000000" stroke="none" stroke-width="0.5"/><path d="M249.84037,152.70202c0,-2.3979 1.94392,-4.34183 4.34183,-4.34183c2.3979,0 4.34183,1.94388 4.34183,4.34183c0,2.3979 -1.94388,4.34179 -4.34183,4.34179c-2.3979,0 -4.34183,-1.94388 -4.34183,-4.34179z" fill="#000000" stroke="none" stroke-width="0.5"/><path d="M277.56403,140.79849c4.33802,0.18116 4.15686,4.51918 4.15686,4.51918l-0.16242,3.71499c-0.72562,6.94089 -2.11136,18.2779 -6.96551,23.94163c-10.5871,12.35277 -36.8321,7.52324 -48.93865,0.0534c0,0 -3.68187,-2.30119 -1.38072,-5.98302c2.30115,-3.68183 5.98302,-1.38072 5.98302,-1.38072c7.65538,4.86119 16.12221,5.17971 25.05597,5.34448c4.77006,0.08801 9.19832,0.93079 12.54997,-3.52115c3.56006,-4.72873 4.5355,-13.83385 5.05539,-19.31868l0.12687,-3.21328c0,0 0.18116,-4.33802 4.51923,-4.15686z" fill="#000000" stroke="none" stroke-width="0.5"/></g><path d="M208.05244,122.25454c0,0 -9.53801,-19.87294 -29.62013,-33.30208c-10.22939,-6.84049 -55.26104,-5.8055 -76.51871,-15.29036c-8.23713,-3.67527 -10.11364,-12.64271 -9.94576,-20.64378c0.08344,-3.97655 2.68537,-13.40886 8.05325,-18.98664c2.2669,-2.35556 38.14367,-22.29351 69.49042,-11.6848c8.34748,2.82504 33.30884,19.2563 48.98978,40.47968c19.41402,26.27593 29.12073,58.01483 29.12073,58.01483" fill="#ffffff" stroke="#bfbfbf" stroke-width="2" stroke-linecap="round"/><path d="M248.86274,121.59284c0,0 13.91879,-30.13046 36.71494,-53.53273c18.41271,-18.90227 45.37074,-31.79886 54.02404,-33.46648c32.49533,-6.26231 65.33886,18.35413 67.26558,20.99518c4.56238,6.25385 5.86193,15.95177 5.40565,19.90294c-0.91808,7.94998 -3.9927,16.58036 -12.6519,19.10534c-22.34699,6.51626 -66.82289,-0.61243 -77.88502,4.77856c-21.71691,10.58345 -33.8603,28.98033 -33.8603,28.98033" data-paper-data="{&quot;index&quot;:null}" fill="#ffffff" stroke="#bfbfbf" stroke-width="2" stroke-linecap="round"/><path d="M184.73466,66.07979c0,12.2927 -21.38628,7.41932 -39.92291,7.41932c-18.53663,0 -28.61732,-6.43222 -28.61732,-18.72492c0,-12.2927 15.02689,-22.25793 33.56352,-22.25793c18.53663,0 34.97671,21.27083 34.97671,33.56352z" fill="#ffb7f9" stroke="#ffb7f9" stroke-width="2" stroke-linecap="butt"/><path d="M355.83542,47.81168c18.53659,0 33.56352,9.96523 33.56352,22.25789c0,12.2927 -10.08069,18.72492 -28.61732,18.72492c-18.53659,0 -39.92291,4.87337 -39.92291,-7.41928c0,-12.2927 16.44008,-33.56352 34.97671,-33.56352z" data-paper-data="{&quot;index&quot;:null}" fill="#ffb7f9" stroke="#ffb7f9" stroke-width="2" stroke-linecap="butt"/></g></g></svg>