<svg version="1.1" xmlns="http://www.w3.org/2000/svg" xmlns:xlink="http://www.w3.org/1999/xlink" width="115.01221" height="115.01221" viewBox="0,0,115.01221,115.01221"><defs><linearGradient x1="224.99179" y1="164.1956" x2="224.99179" y2="167.74057" gradientUnits="userSpaceOnUse" id="color-1"><stop offset="0" stop-color="#ffbd00"/><stop offset="1" stop-color="#ffb700"/></linearGradient><linearGradient x1="253.97387" y1="164.96039" x2="253.97387" y2="168.5054" gradientUnits="userSpaceOnUse" id="color-2"><stop offset="0" stop-color="#ffbd00"/><stop offset="1" stop-color="#ffb700"/></linearGradient><linearGradient x1="240.06856" y1="143.87588" x2="240.06856" y2="172.15198" gradientUnits="userSpaceOnUse" id="color-3"><stop offset="0" stop-color="#ffee00"/><stop offset="1" stop-color="#ffad00"/></linearGradient><linearGradient x1="224.99179" y1="164.1956" x2="224.99179" y2="167.74057" gradientUnits="userSpaceOnUse" id="color-4"><stop offset="0" stop-color="#ffbd00"/><stop offset="1" stop-color="#ffb700"/></linearGradient><linearGradient x1="253.97387" y1="164.96039" x2="253.97387" y2="168.5054" gradientUnits="userSpaceOnUse" id="color-5"><stop offset="0" stop-color="#ffbd00"/><stop offset="1" stop-color="#ffb700"/></linearGradient><linearGradient x1="240.06856" y1="143.87588" x2="240.06856" y2="172.15198" gradientUnits="userSpaceOnUse" id="color-6"><stop offset="0" stop-color="#ffee00"/><stop offset="1" stop-color="#ffad00"/></linearGradient></defs><g transform="translate(-182.49389,-122.49391)"><g data-paper-data="{&quot;isPaintingLayer&quot;:true}" stroke-miterlimit="10" stroke-dasharray="" stroke-dashoffset="0" style="mix-blend-mode: normal"><path d="M227.5123,159.25004c0,-7.31098 5.92672,-13.23771 13.23771,-13.23771c7.31098,0 13.23771,5.92672 13.23771,13.23771c0,7.31098 -5.92672,13.23771 -13.23771,13.23771c-7.31098,0 -13.23771,-5.92672 -13.23771,-13.23771z" fill="#9966ff" fill-rule="nonzero" stroke="#000000" stroke-width="2" stroke-linecap="butt" stroke-linejoin="miter"/><path d="M243.18751,159.25003h10" fill="none" fill-rule="nonzero" stroke="#000000" stroke-width="2" stroke-linecap="round" stroke-linejoin="miter"/><path d="M218.64999,159.25002c0,-12.20549 9.89451,-22.1 22.1,-22.1c12.20549,0 22.1,9.89451 22.1,22.1c0,12.20549 -9.89451,22.1 -22.1,22.1c-12.20549,0 -22.1,-9.89451 -22.1,-22.1z" fill="none" fill-rule="nonzero" stroke="none" stroke-width="0" stroke-linecap="butt" stroke-linejoin="miter"/><path d="M182.49389,237.50612v-115.01221h115.01221v115.01221z" fill="none" fill-rule="nonzero" stroke="#000000" stroke-width="0" stroke-linecap="butt" stroke-linejoin="miter"/><g fill-rule="nonzero" stroke-linecap="butt" stroke-linejoin="miter"><g stroke="#bf8600" stroke-width="7.5"><g><path d="M222.10624,164.20254c1.90678,-0.02294 3.81487,0.01146 5.71997,0.09478c0.05812,0.00096 0.11541,0.00526 0.17167,0.01272c0.26824,0.02916 0.44579,0.09782 0.57821,0.20586c0.42962,0.26471 0.71261,0.74276 0.70364,1.28391c-0.01321,0.79719 -0.65512,1.43653 -1.44549,1.45339c-0.01893,0.0004 -0.03793,0.00045 -0.05702,0.00013v0c-2.15405,0.02276 -4.95813,1.25648 -6.45591,-0.29178c-0.97353,-1.00633 -0.85673,-2.73928 0.78493,-2.75903z" data-paper-data="{&quot;index&quot;:null}" fill="url(#color-1)"/><path d="M256.85943,164.96733c1.64165,0.01975 1.75845,1.75269 0.78493,2.75903c-1.49778,1.54826 -4.30186,0.31454 -6.45591,0.29178v0c-0.01909,0.00032 -0.03809,0.00027 -0.05702,-0.00013c-0.79036,-0.01686 -1.43228,-0.65619 -1.44549,-1.45339c-0.00896,-0.54115 0.27403,-1.0192 0.70364,-1.28392c0.13241,-0.10803 0.30996,-0.17669 0.57821,-0.20586c0.05626,-0.00746 0.11355,-0.01176 0.17167,-0.01272c1.9051,-0.08332 3.81319,-0.11771 5.71997,-0.09478z" data-paper-data="{&quot;index&quot;:null}" fill="url(#color-2)"/></g><g fill="#ffae00"><path d="M236.0952,176.85891c-0.04694,1.64109 -1.78158,1.72917 -2.77165,0.73911c-1.52323,-1.52323 -0.24323,-4.30648 -0.18478,-6.45986v0c0,-0.01909 0.00036,-0.03809 0.00108,-0.05701c0.02995,-0.78997 0.67983,-1.42121 1.47714,-1.42121c0.54123,0 1.01452,0.29087 1.27208,0.72482c0.10582,0.13418 0.17154,0.31285 0.19625,0.58154c0.00653,0.05638 0.00988,0.11373 0.00988,0.17186c0.05174,1.90622 0.05452,3.81462 0,5.72076z"/><path d="M245.72963,169.0329c0.0332,0.05902 0.06414,0.13467 0.09294,0.22504c0.03401,0.09168 0.05918,0.18766 0.07449,0.28689c0.35306,1.64096 0.30053,5.87749 0.18812,7.31409c-0.06091,0.77843 -0.44199,1.47821 -1.47821,1.47821c-2.11119,0 -1.69399,-7.45867 -1.64898,-8.56512c0,-0.02747 0.00075,-0.05477 0.00223,-0.08188c0.04249,-0.77831 0.68706,-1.39634 1.47598,-1.39634c0.48105,0 0.90844,0.22979 1.17838,0.58559c0.04406,0.04551 0.08284,0.09625 0.11506,0.15352z"/></g><path d="M230.70339,145.08965c11.33058,-3.92006 28.50285,1.88514 26.65836,14.09518c-1.84449,12.21004 -19.4693,17.07918 -30.14516,8.98651c-7.84,-5.943 -4.55706,-16.67542 1.95179,-22.02455z" fill="url(#color-3)"/></g><g stroke="none" stroke-width="0.5"><path d="M222.10624,164.20254c1.90678,-0.02294 3.81487,0.01146 5.71997,0.09478c0.05812,0.00096 0.11541,0.00526 0.17167,0.01272c0.26824,0.02916 0.44579,0.09782 0.57821,0.20586c0.42962,0.26471 0.71261,0.74276 0.70364,1.28391c-0.01321,0.79719 -0.65512,1.43653 -1.44549,1.45339c-0.01893,0.0004 -0.03793,0.00045 -0.05702,0.00013v0c-2.15405,0.02276 -4.95813,1.25648 -6.45591,-0.29178c-0.97353,-1.00633 -0.85673,-2.73928 0.78493,-2.75903z" data-paper-data="{&quot;index&quot;:null}" fill="url(#color-4)"/><path d="M256.85943,164.96733c1.64165,0.01975 1.75845,1.75269 0.78493,2.75903c-1.49778,1.54826 -4.30186,0.31454 -6.45591,0.29178v0c-0.01909,0.00032 -0.03809,0.00027 -0.05702,-0.00013c-0.79036,-0.01686 -1.43228,-0.65619 -1.44549,-1.45339c-0.00896,-0.54115 0.27403,-1.0192 0.70364,-1.28392c0.13241,-0.10803 0.30996,-0.17669 0.57821,-0.20586c0.05626,-0.00746 0.11355,-0.01176 0.17167,-0.01272c1.9051,-0.08332 3.81319,-0.11771 5.71997,-0.09478z" data-paper-data="{&quot;index&quot;:null}" fill="url(#color-5)"/></g><g fill="#ffae00" stroke="none" stroke-width="0.5"><path d="M236.0952,176.85891c-0.04694,1.64109 -1.78158,1.72917 -2.77165,0.73911c-1.52323,-1.52323 -0.24323,-4.30648 -0.18478,-6.45986v0c0,-0.01909 0.00036,-0.03809 0.00108,-0.05701c0.02995,-0.78997 0.67983,-1.42121 1.47714,-1.42121c0.54123,0 1.01452,0.29087 1.27208,0.72482c0.10582,0.13418 0.17154,0.31285 0.19625,0.58154c0.00653,0.05638 0.00988,0.11373 0.00988,0.17186c0.05174,1.90622 0.05452,3.81462 0,5.72076z"/><path d="M245.72963,169.0329c0.0332,0.05902 0.06414,0.13467 0.09294,0.22504c0.03401,0.09168 0.05918,0.18766 0.07449,0.28689c0.35306,1.64096 0.30053,5.87749 0.18812,7.31409c-0.06091,0.77843 -0.44199,1.47821 -1.47821,1.47821c-2.11119,0 -1.69399,-7.45867 -1.64898,-8.56512c0,-0.02747 0.00075,-0.05477 0.00223,-0.08188c0.04249,-0.77831 0.68706,-1.39634 1.47598,-1.39634c0.48105,0 0.90844,0.22979 1.17838,0.58559c0.04406,0.04551 0.08284,0.09625 0.11506,0.15352z"/></g><path d="M229.16839,146.14681c0.30419,-0.44051 0.7314,-0.66078 0.7314,-0.66078l0.44543,-0.2197c0.05928,-0.03541 0.16503,-0.09365 0.30335,-0.14962l0.05482,-0.02704c11.33058,-3.92006 28.50285,1.88514 26.65836,14.09518c-1.84449,12.21004 -19.4693,17.07918 -30.14516,8.98651c-7.84,-5.943 -4.55706,-16.67542 1.95179,-22.02455z" fill="url(#color-6)" stroke="none" stroke-width="0.5"/><path d="M238.30413,154.37504c0,-0.57148 0.46327,-1.03475 1.03475,-1.03475c0.57148,0 1.03475,0.46327 1.03475,1.03475c0,0.57148 -0.46327,1.03475 -1.03475,1.03475c-0.57148,0 -1.03475,-0.46327 -1.03475,-1.03475z" fill="#000000" stroke="none" stroke-width="0.5"/><path d="M240.82834,151.97104c0,-0.57148 0.46327,-1.03475 1.03475,-1.03475c0.57148,0 1.03475,0.46327 1.03475,1.03475c0,0.57148 -0.46327,1.03475 -1.03475,1.03475c-0.57148,0 -1.03475,-0.46327 -1.03475,-1.03475z" fill="#000000" stroke="none" stroke-width="0.5"/><path d="M247.43549,149.13417c1.03385,0.04318 0.99067,1.07703 0.99067,1.07703l-0.03871,0.88537c-0.17293,1.65417 -0.50318,4.35603 -1.66003,5.70581c-2.52314,2.94394 -8.77791,1.79295 -11.66317,0.01272c0,0 -0.87747,-0.54842 -0.32905,-1.42588c0.54842,-0.87747 1.42588,-0.32905 1.42588,-0.32905c1.82445,1.15853 3.84227,1.23443 5.97139,1.27371c1.13681,0.02097 2.19217,0.22183 2.99094,-0.83917c0.84844,-1.12695 1.08091,-3.29692 1.20481,-4.60407l0.03024,-0.7658c0,0 0.04318,-1.03385 1.07703,-0.99067z" fill="#000000" stroke="none" stroke-width="0.5"/></g><path d="M240.79541,151.34129l0.75772,-0.27858" fill="none" fill-rule="evenodd" stroke="#f93dbf" stroke-width="1.28" stroke-linecap="round" stroke-linejoin="round"/><path d="M230.32359,155.46281l-4.88545,0.17476" fill="none" fill-rule="evenodd" stroke="#f93dbf" stroke-width="2.128" stroke-linecap="round" stroke-linejoin="round"/><path d="M254.75245,145.23556l-2.60146,2.28226" fill="none" fill-rule="evenodd" stroke="#f93dbf" stroke-width="2.128" stroke-linecap="round" stroke-linejoin="round"/><path d="M233.61477,149.22901l3.06976,2.96871l4.1109,-0.85645l-1.7852,3.84313l2.12021,3.72514l-4.17356,-0.59011l-2.79741,3.153l-0.79765,-4.21138l-3.84944,-1.77155l3.68667,-2.01033z" fill="none" fill-rule="evenodd" stroke="#f93dbf" stroke-width="1.28" stroke-linecap="round" stroke-linejoin="round"/><path d="M245.65555,144.80222l3.06975,2.96871l4.1109,-0.85645l-1.7852,3.84312l2.12021,3.72514l-4.17356,-0.59011l-2.79741,3.153l-0.79766,-4.21138l-3.84944,-1.77155l3.68668,-2.01033z" fill="none" fill-rule="evenodd" stroke="#f93dbf" stroke-width="1.28" stroke-linecap="round" stroke-linejoin="round"/><path d="M225.96009,176.46661v-19.32729h27.93398v19.32729z" fill="#ffb300" fill-rule="nonzero" stroke="none" stroke-width="0" stroke-linecap="butt" stroke-linejoin="miter"/><path d="M225.96009,157.44131c0,0 8.92838,-13.63441 13.29045,-13.65838c4.76297,-0.02617 14.19054,13.50738 14.19054,13.50738" fill="none" fill-rule="nonzero" stroke="#a77500" stroke-width="2" stroke-linecap="round" stroke-linejoin="miter"/><text transform="translate(236.40082,170.0116) scale(0.16955,0.16955)" font-size="40" xml:space="preserve" fill="#a77500" fill-rule="nonzero" stroke="none" stroke-width="1" stroke-linecap="butt" stroke-linejoin="miter" stroke-miterlimit="10" stroke-dasharray="" stroke-dashoffset="0" font-family="Sans Serif" font-weight="normal" text-anchor="start" style="mix-blend-mode: normal"><tspan x="0" dy="0">180</tspan></text><g fill-rule="nonzero" stroke-linecap="butt" stroke-linejoin="miter"><path d="M230.44702,167.24097c0,-1.56503 1.2687,-2.83373 2.83373,-2.83373c1.56503,0 2.83373,1.2687 2.83373,2.83373c0,1.56503 -1.2687,2.83373 -2.83373,2.83373c-1.56503,0 -2.83373,-1.2687 -2.83373,-2.83373z" fill="#ffbe4f" stroke="#ffbe4f" stroke-width="2"/><path d="M235.26592,167.32239c0,1.15209 -0.90622,2.08605 -2.02409,2.08605c-1.11788,0 -2.02409,-0.93396 -2.02409,-2.08605c0,-1.15209 0.90622,-2.08605 2.02409,-2.08605c1.11788,0 2.02409,0.93396 2.02409,2.08605z" fill="#ff4f4f" stroke="#ff4f4f" stroke-width="2"/><g stroke-width="0.25"><path d="M230.78652,167.24097c0,-1.37753 1.1167,-2.49423 2.49423,-2.49423c1.37752,0 2.49423,1.1167 2.49423,2.49423c0,1.37753 -1.1167,2.49423 -2.49423,2.49423c-1.37753,0 -2.49423,-1.1167 -2.49423,-2.49423z" fill="#fcc561" stroke="#8a4f51"/><path d="M230.99919,167.24097c0,-1.27041 1.02987,-2.30029 2.30029,-2.30029c1.27041,0 2.30029,1.02988 2.30029,2.30029c0,1.27041 -1.02988,2.30029 -2.30029,2.30029c-1.27041,0 -2.30029,-1.02987 -2.30029,-2.30029z" fill="#fbc21b" stroke="#ed803b"/></g><g fill="#d3692d" stroke="#aa5524" stroke-width="0.15"><path d="M232.09938,168.76275c0.04256,0.02832 0.08174,-0.00717 0.08571,-0.01095c0.03181,-0.0124 0.06682,-0.01806 0.10081,-0.01726c0,0 0.03906,0 0.05901,-0.02908c0.03028,0.01063 0.05773,0.02729 0.0809,0.04854c-0.02907,0.04433 -0.04597,0.09735 -0.04597,0.15432c0,0.01622 0.00137,0.03211 0.004,0.04758c-0.00198,0.00376 -0.00387,0.00757 -0.00568,0.01143c-0.03913,0.01685 -0.07382,0.04399 -0.09982,0.08264c-0.00681,-0.00049 -0.01368,-0.00074 -0.02062,-0.00074c-0.05704,0 -0.11012,0.01695 -0.15449,0.04608c-0.03246,-0.03163 -0.05579,-0.07258 -0.06569,-0.11852c0.03569,-0.03968 0.06882,-0.08168 0.07315,-0.11072c0.00477,-0.032 -0.00826,-0.06328 -0.0194,-0.09465c0.00262,-0.00296 0.00532,-0.00586 0.0081,-0.00868z"/><path d="M232.61482,167.5113c0.04989,0.07708 0.08932,0.15942 0.13069,0.24177c-0.03913,0.02954 -0.06954,0.05297 -0.10495,0.0963c-0.0125,0.01531 -0.01397,0.04101 -0.03143,0.05027c-0.01442,0.00764 -0.032,-0.00863 -0.04831,-0.00802c-0.02862,0.00106 -0.05805,0.00312 -0.08495,0.01298c-0.01038,0.00381 -0.013,0.03362 -0.02082,0.02581c-0.02056,-0.02056 -0.00693,-0.06924 -0.03377,-0.08041c-0.01616,-0.00673 -0.02932,0.01155 -0.04397,0.02567c-0.00146,-0.00211 -0.00289,-0.00423 -0.00427,-0.00637c0.00159,-0.00227 0.00269,-0.00447 0.00292,-0.00641c0.00179,-0.01534 -0.01446,-0.02997 -0.01097,-0.04502c0.0203,-0.08759 0.13132,-0.16163 0.17863,-0.23274c0.01767,-0.02657 0.02938,-0.05191 0.03868,-0.0778c0.01092,0.00056 0.02178,0.00188 0.03252,0.00395z"/><path d="M233.39432,168.83084c-0.009,0.09138 -0.02946,0.18034 -0.0484,0.27054c-0.04901,-0.00127 -0.0874,-0.0019 -0.14209,0.00994c-0.01932,0.00418 -0.03648,0.02338 -0.05591,0.01974c-0.01604,-0.00301 -0.01965,-0.02668 -0.03279,-0.03637c-0.02305,-0.017 -0.04735,-0.03373 -0.07453,-0.04277c-0.01049,-0.00349 -0.03112,0.0182 -0.03237,0.00722c-0.00327,-0.02889 0.03772,-0.05848 0.02368,-0.08393c-0.00846,-0.01533 -0.03013,-0.00924 -0.05038,-0.00731c0.00017,-0.00256 0.00038,-0.00511 0.00063,-0.00764c0.00266,-0.00079 0.00489,-0.00182 0.00628,-0.0032c0.01096,-0.01089 0.00736,-0.03245 0.01947,-0.04205c0.07045,-0.05587 0.20342,-0.0446 0.28473,-0.07076c0.03038,-0.00977 0.05532,-0.0223 0.07872,-0.03676c0.00819,0.00724 0.01587,0.01504 0.02298,0.02335z"/><path d="M234.27781,167.2013c0.009,-0.09138 0.02946,-0.18034 0.0484,-0.27054c0.04901,0.00127 0.0874,0.0019 0.14209,-0.00994c0.01931,-0.00418 0.03648,-0.02339 0.0559,-0.01974c0.01604,0.00301 0.01965,0.02669 0.03279,0.03637c0.02305,0.017 0.04735,0.03373 0.07453,0.04277c0.01049,0.00349 0.03112,-0.0182 0.03237,-0.00722c0.00327,0.02889 -0.03771,0.05847 -0.02367,0.08393c0.00846,0.01533 0.03012,0.00924 0.05038,0.00731c-0.00017,0.00256 -0.00037,0.00511 -0.00063,0.00764c-0.00266,0.00079 -0.00489,0.00182 -0.00628,0.0032c-0.01096,0.01089 -0.00736,0.03245 -0.01947,0.04205c-0.07045,0.05587 -0.20342,0.0446 -0.28473,0.07076c-0.03038,0.00977 -0.05532,0.0223 -0.07872,0.03676c-0.00819,-0.00724 -0.01587,-0.01504 -0.02298,-0.02335z" data-paper-data="{&quot;index&quot;:null}"/><path d="M232.07146,166.84578c-0.01115,0.03136 -0.02417,0.06265 -0.0194,0.09465c0.00433,0.02903 0.03746,0.07104 0.07315,0.11072c-0.0099,0.04594 -0.03323,0.08689 -0.06569,0.11852c-0.04436,-0.02913 -0.09745,-0.04608 -0.15449,-0.04608c-0.00693,0 -0.01381,0.00025 -0.02061,0.00074c-0.026,-0.03864 -0.06069,-0.06578 -0.09982,-0.08264c-0.00181,-0.00386 -0.0037,-0.00767 -0.00568,-0.01143c0.00263,-0.01547 0.004,-0.03136 0.004,-0.04758c0,-0.05697 -0.01691,-0.10999 -0.04597,-0.15432c0.02317,-0.02125 0.05061,-0.03791 0.0809,-0.04854c0.01995,0.02908 0.05901,0.02908 0.05901,0.02908c0.03399,-0.0008 0.069,0.00486 0.10081,0.01726c0.00396,0.00377 0.04315,0.03926 0.0857,0.01094c0.00277,0.00282 0.00547,0.00572 0.0081,0.00868z" data-paper-data="{&quot;index&quot;:null}"/><path d="M234.21446,166.04153c-0.04256,-0.02832 -0.08174,0.00717 -0.0857,0.01094c-0.03181,0.0124 -0.06682,0.01806 -0.10081,0.01726c0,0 -0.03906,0 -0.05901,0.02908c-0.03028,-0.01063 -0.05773,-0.02729 -0.0809,-0.04854c0.02907,-0.04433 0.04597,-0.09735 0.04597,-0.15432c0,-0.01622 -0.00137,-0.03211 -0.004,-0.04758c0.00198,-0.00376 0.00387,-0.00757 0.00568,-0.01143c0.03913,-0.01685 0.07382,-0.04399 0.09982,-0.08264c0.00681,0.00049 0.01368,0.00074 0.02061,0.00074c0.05704,0 0.11013,-0.01695 0.15449,-0.04608c0.03246,0.03163 0.05579,0.07258 0.06569,0.11852c-0.03569,0.03968 -0.06882,0.08168 -0.07315,0.11072c-0.00477,0.032 0.00825,0.06328 0.0194,0.09465c-0.00262,0.00296 -0.00532,0.00586 -0.0081,0.00868z" data-paper-data="{&quot;index&quot;:null}"/><path d="M232.97631,167.28576c0.0234,0.01446 0.04834,0.02699 0.07872,0.03676c0.08132,0.02615 0.21428,0.01489 0.28473,0.07076c0.0121,0.0096 0.00851,0.03116 0.01947,0.04205c0.00139,0.00138 0.00361,0.00241 0.00628,0.0032c0.00025,0.00254 0.00046,0.00509 0.00063,0.00764c-0.02026,-0.00193 -0.04193,-0.00803 -0.05038,0.00731c-0.01404,0.02546 0.02695,0.05505 0.02368,0.08393c-0.00124,0.01098 -0.02188,-0.01071 -0.03237,-0.00722c-0.02718,0.00904 -0.05148,0.02577 -0.07453,0.04277c-0.01314,0.00968 -0.01674,0.03336 -0.03279,0.03637c-0.01943,0.00364 -0.03659,-0.01556 -0.0559,-0.01974c-0.05469,-0.01184 -0.09308,-0.01122 -0.14209,-0.00994c-0.01894,-0.09019 -0.0394,-0.17916 -0.0484,-0.27054c0.00711,-0.00831 0.01479,-0.01611 0.02298,-0.02335z" data-paper-data="{&quot;index&quot;:null}"/><path d="M232.89242,166.71397c-0.01218,0 -0.02414,-0.00092 -0.03581,-0.00271c-0.02265,-0.04007 -0.04189,-0.08221 -0.05791,-0.12535l-0.05507,-0.05267c0,0 -0.0123,-0.0082 -0.0294,-0.01146c-0.00421,-0.00568 -0.00925,-0.0107 -0.01494,-0.01489c0.00037,-0.00294 0.00057,-0.00593 0.00057,-0.00897c0,-0.00028 0,-0.00056 0,-0.00084c0.03996,-0.04626 0.09441,-0.07879 0.13532,-0.12434l0.07754,-0.05103c0,0 0.04173,-0.02782 0.0313,-0.07172c0.10298,0.02309 0.18039,0.1138 0.18317,0.22307c-0.07608,0.02998 -0.15373,0.05553 -0.18828,0.14178c-0.00291,0.00727 -0.00389,0.05237 -0.00418,0.09533c-0.01372,0.00249 -0.02785,0.0038 -0.04229,0.0038z" data-paper-data="{&quot;index&quot;:null}"/><path d="M231.39296,167.91611c0.0212,0.03737 0.04404,0.07627 0.05012,0.0812c0.07221,0.05847 0.15246,0.04294 0.23351,0.03203c0.05084,0.09676 0.02746,0.21371 -0.0512,0.28406c-0.01229,-0.04342 -0.06229,-0.04737 -0.06229,-0.04737l-0.09258,-0.00676c-0.05793,-0.01984 -0.12134,-0.0217 -0.17877,-0.04261c-0.00013,-0.00025 -0.00027,-0.00049 -0.0004,-0.00074c-0.00148,-0.00265 -0.00311,-0.00517 -0.00487,-0.00755c0.00293,-0.00643 0.00488,-0.01327 0.00579,-0.02028c0.01334,-0.01117 0.02009,-0.02434 0.02009,-0.02434l0.02241,-0.07283c-0.00703,-0.04548 -0.01078,-0.09165 -0.01053,-0.13768c0.00933,-0.00725 0.01931,-0.01389 0.02995,-0.01982c0.01261,-0.00704 0.02559,-0.01279 0.03878,-0.0173z" data-paper-data="{&quot;index&quot;:null}"/><path d="M233.20682,165.05883c0.0015,0.0511 0.05312,0.06255 0.05848,0.0636c0.02851,0.01879 0.05337,0.04408 0.07237,0.07227c0,0 0.02258,0.03186 0.05785,0.03133c0.00884,0.03085 0.01112,0.06288 0.00717,0.09407c-0.05298,0.00192 -0.10601,0.01878 -0.15249,0.05172c-0.01323,0.00938 -0.02541,0.01969 -0.03651,0.03078c-0.00421,0.00056 -0.00841,0.00122 -0.01261,0.00197c-0.03637,-0.02218 -0.07857,-0.03479 -0.12514,-0.03367c-0.00354,-0.00584 -0.00731,-0.01159 -0.01131,-0.01725c-0.03298,-0.04654 -0.0775,-0.08005 -0.12693,-0.0994c0.00704,-0.04477 0.02695,-0.08749 0.05871,-0.12212c0.05301,0.00618 0.10644,0.00892 0.13263,-0.00433c0.02886,-0.01461 0.04686,-0.04333 0.066,-0.07055c0.00394,0.00043 0.00786,0.00096 0.01177,0.00158z" data-paper-data="{&quot;index&quot;:null}"/><path d="M232.05274,166.10457c-0.08885,-0.02315 -0.17354,-0.05724 -0.25967,-0.09003c0.0089,-0.04821 0.01551,-0.08603 0.01235,-0.1419c-0.00112,-0.01973 -0.0174,-0.03968 -0.01077,-0.0583c0.00548,-0.01538 0.02942,-0.01525 0.04104,-0.02671c0.02039,-0.02012 0.04071,-0.04151 0.05388,-0.06694c0.00509,-0.00982 -0.01312,-0.03358 -0.00208,-0.0331c0.02904,0.00127 0.05188,0.04638 0.07921,0.03648c0.01646,-0.00596 0.01383,-0.02832 0.01508,-0.04863c0.0025,0.00057 0.00499,0.00117 0.00745,0.00181c0.00036,0.00275 0.00103,0.00511 0.00218,0.0067c0.00905,0.01252 0.03091,0.01234 0.0385,0.02579c0.04419,0.0783 0.01232,0.20789 0.02546,0.29229c0.00491,0.03153 0.01339,0.05813 0.02402,0.08349c-0.00843,0.00696 -0.01734,0.01332 -0.02665,0.01905z" data-paper-data="{&quot;index&quot;:null}"/><path d="M234.70331,166.16788c0.01655,-0.02196 0.03133,-0.04565 0.04385,-0.075c0.03354,-0.07856 0.03458,-0.212 0.0967,-0.277c0.01067,-0.01117 0.03182,-0.0056 0.04366,-0.01551c0.0015,-0.00125 0.00273,-0.00338 0.00376,-0.00596c0.00255,-0.00002 0.00511,0.00002 0.00767,0.00008c-0.00379,0.02 -0.01185,0.04101 0.00263,0.05084c0.02405,0.01633 0.0573,-0.02176 0.08576,-0.01584c0.01082,0.00225 -0.01268,0.0208 -0.01017,0.03157c0.0065,0.0279 0.02092,0.05363 0.03572,0.07815c0.00843,0.01398 0.03168,0.01975 0.03319,0.03601c0.00184,0.01968 -0.01886,0.035 -0.02481,0.05385c-0.01683,0.05337 -0.01975,0.09165 -0.023,0.14057c-0.09156,0.01055 -0.18203,0.02272 -0.27385,0.02326c-0.00761,-0.00784 -0.01468,-0.01621 -0.02113,-0.02503z" data-paper-data="{&quot;index&quot;:null}"/><path d="M235.26428,167.15555c0.00029,0.04297 0.00127,0.08806 0.00418,0.09533c0.03455,0.08625 0.1122,0.11181 0.18828,0.14178c-0.00277,0.10927 -0.08019,0.19999 -0.18317,0.22307c0.01043,-0.0439 -0.0313,-0.07172 -0.0313,-0.07172l-0.07754,-0.05103c-0.04091,-0.04556 -0.09537,-0.07809 -0.13532,-0.12434c0,-0.00028 0,-0.00056 0,-0.00084c0,-0.00304 -0.00019,-0.00603 -0.00056,-0.00897c0.00569,-0.00419 0.01073,-0.00921 0.01494,-0.01489c0.01709,-0.00325 0.0294,-0.01146 0.0294,-0.01146l0.05506,-0.05266c0.01603,-0.04314 0.03526,-0.08528 0.05791,-0.12535c0.01167,-0.00179 0.02364,-0.00271 0.03581,-0.00271c0.01444,0 0.02857,0.0013 0.0423,0.0038z" data-paper-data="{&quot;index&quot;:null}"/><path d="M234.23033,167.99717c0.01218,0 0.02413,0.00093 0.03581,0.00272c0.02265,0.04007 0.04189,0.08221 0.05792,0.12535l0.05507,0.05267c0,0 0.0123,0.0082 0.0294,0.01146c0.00421,0.00568 0.00925,0.0107 0.01494,0.01489c-0.00037,0.00294 -0.00057,0.00593 -0.00057,0.00897c0,0.00028 0,0.00056 0,0.00084c-0.03996,0.04626 -0.09441,0.07879 -0.13532,0.12434l-0.07754,0.05103c0,0 -0.04173,0.02782 -0.0313,0.07172c-0.10298,-0.02309 -0.18039,-0.1138 -0.18317,-0.22307c0.07608,-0.02998 0.15373,-0.05553 0.18828,-0.14178c0.00291,-0.00727 0.00389,-0.05237 0.00419,-0.09533c0.01372,-0.00249 0.02785,-0.0038 0.04229,-0.0038z"/></g><g fill="#fae7ac" stroke="#d3c291" stroke-width="0.15"><path d="M234.79353,166.97863c0.00327,-0.00103 0.00649,-0.00237 0.00963,-0.00406c0.00797,-0.00427 0.0144,-0.0101 0.01978,-0.01699c0.14201,0.00335 0.29611,-0.0975 0.40921,-0.15056c0.02085,-0.00978 0.04989,-0.02342 0.07858,-0.03931c0.01053,0.00466 0.02337,0.01027 0.03694,0.01616c-0.02015,0.06882 -0.06022,0.12914 -0.11354,0.17429c-0.01235,-0.0037 -0.02223,-0.00369 -0.02223,-0.00369c-0.03537,0.00239 -0.07528,-0.01036 -0.1061,0.00716c-0.03137,0.01784 -0.05057,0.05049 -0.0719,0.08056c-0.01098,0.00101 -0.02211,0.00152 -0.03335,0.00152c-0.077,0 -0.14837,-0.02406 -0.20702,-0.06508z" data-paper-data="{&quot;index&quot;:null}"/><g><path d="M235.13126,168.03984c0,0.08795 -0.0713,0.15926 -0.15926,0.15926c-0.00915,0 -0.01812,-0.00077 -0.02685,-0.00225c-0.04082,-0.04317 0.04155,-0.08125 0.04706,-0.12058c0.00527,-0.03764 -0.02343,-0.06858 -0.05156,-0.08563c-0.00556,-0.00337 -0.01481,0.00169 -0.01927,-0.00304c-0.00301,-0.00319 0.00363,-0.00802 0.00489,-0.01222c0.00176,-0.00586 0.00874,-0.03894 0.01406,-0.04639c0.03392,-0.04747 0.08109,0.03662 0.10432,0.04632c0.01696,0.00708 0.05144,0.00693 0.07574,0.00658c0.00702,0.01796 0.01087,0.03751 0.01087,0.05796z"/><path d="M231.5054,167.8153c0,-0.07267 0.03677,-0.13676 0.09273,-0.17466c-0.02876,0.04741 -0.04135,0.10923 -0.01749,0.15073c0.00975,0.01697 0.03455,0.01846 0.05116,0.02884c0.01186,0.00741 0.03603,0.01626 0.0303,0.02902c-0.01129,0.02514 -0.04499,0.03525 -0.05665,0.06022c-0.01216,0.02605 -0.01849,0.04956 -0.01921,0.07184c-0.04921,-0.03859 -0.08082,-0.09859 -0.08082,-0.16598z"/><path d="M233.56913,167.92211c-0.03262,-0.00436 -0.06446,-0.01175 -0.09784,-0.00967c-0.02445,0.00152 -0.04732,0.01297 -0.07142,0.01738c-0.01716,0.00314 -0.03478,0.00101 -0.05231,-0.00003c-0.00471,-0.00408 -0.00917,-0.00841 -0.01339,-0.013c-0.00543,-0.02463 -0.0075,-0.05013 -0.01122,-0.08062c0.00887,-0.01551 0.01927,-0.03358 0.01991,-0.03424c0.00531,-0.00544 0.04834,-0.02252 0.05141,-0.0241c0.03161,-0.01625 0.04906,-0.02617 0.06821,-0.05884c0.01532,-0.02614 0.01629,-0.04916 0.01501,-0.07376c0.06527,0.00934 0.11805,0.05735 0.13442,0.12007c-0.0205,0.01222 -0.03671,0.02887 -0.04261,0.05322c-0.00586,0.02416 0.00863,0.05575 0.01616,0.08466c-0.00496,0.00672 -0.01042,0.01305 -0.01633,0.01893z"/><path d="M232.58134,168.14917c-0.05627,0.08976 -0.16879,0.08336 -0.24077,0.15313c0.03869,-0.11791 0.13636,-0.20908 0.25813,-0.23862c0.00118,0.03088 -0.00187,0.06079 -0.01736,0.08549z"/><path d="M234.39387,169.03041c-0.01125,0 -0.02237,-0.00051 -0.03335,-0.00152c-0.02132,-0.03007 -0.04053,-0.06272 -0.07189,-0.08056c-0.03081,-0.01752 -0.07073,-0.00477 -0.1061,-0.00716c0,0 -0.00987,0 -0.02223,0.00369c-0.05332,-0.04515 -0.09339,-0.10546 -0.11354,-0.17429c0.01357,-0.00589 0.02641,-0.01149 0.03694,-0.01616c0.02868,0.01589 0.05773,0.02953 0.07858,0.03931c0.11311,0.05306 0.26719,0.15391 0.40921,0.15056c0.00538,0.00689 0.01181,0.01271 0.01978,0.01699c0.00315,0.00169 0.00636,0.00302 0.00963,0.00406c-0.05865,0.04101 -0.13002,0.06508 -0.20702,0.06508z"/><path d="M234.53947,167.3396c0,0.01828 0.00696,0.03493 0.01838,0.04745c-0.00504,0.01429 -0.00996,0.02863 -0.01476,0.04299l-0.00468,0.0297c-0.02176,0.00773 -0.04448,0.01343 -0.06793,0.01688c-0.00528,-0.00507 -0.00935,-0.00778 -0.00935,-0.00778l-0.05852,-0.03008c-0.01463,-0.00077 -0.06705,0.00763 -0.07516,-0.02281c-0.00471,-0.01771 -0.00299,-0.09997 0.02465,-0.10406c0.04451,-0.00658 0.09027,0.00923 0.13492,0.00368c0.02066,-0.00257 0.0411,-0.00624 0.06143,-0.01043c-0.00572,0.01019 -0.00898,0.02193 -0.00898,0.03445z"/><path d="M231.94848,166.4136c0,-0.01828 -0.00696,-0.03493 -0.01838,-0.04745c0.00504,-0.01429 0.00996,-0.02863 0.01476,-0.04299l0.00468,-0.0297c0.02176,-0.00773 0.04448,-0.01343 0.06793,-0.01688c0.00528,0.00507 0.00935,0.00778 0.00935,0.00778l0.05852,0.03007c0.01463,0.00077 0.06705,-0.00763 0.07516,0.02281c0.00471,0.01771 0.00299,0.09997 -0.02465,0.10406c-0.04451,0.00658 -0.09027,-0.00922 -0.13492,-0.00368c-0.02066,0.00257 -0.0411,0.00624 -0.06143,0.01043c0.00572,-0.01019 0.00898,-0.02193 0.00898,-0.03445z" data-paper-data="{&quot;index&quot;:null}"/><path d="M233.40323,166.00148c-0.00328,0.00103 -0.00649,0.00237 -0.00963,0.00406c-0.00797,0.00427 -0.0144,0.0101 -0.01978,0.01699c-0.14202,-0.00335 -0.29611,0.0975 -0.40921,0.15056c-0.02085,0.00978 -0.04989,0.02342 -0.07858,0.03931c-0.01053,-0.00466 -0.02337,-0.01027 -0.03694,-0.01616c0.02015,-0.06882 0.06022,-0.12914 0.11354,-0.17429c0.01235,0.0037 0.02223,0.0037 0.02223,0.0037c0.03537,-0.00239 0.07528,0.01036 0.1061,-0.00716c0.03137,-0.01784 0.05057,-0.05049 0.0719,-0.08056c0.01098,-0.00101 0.02211,-0.00152 0.03336,-0.00152c0.077,0 0.14837,0.02406 0.20702,0.06508z" data-paper-data="{&quot;index&quot;:null}"/><path d="M233.84692,166.32715c0,0.07267 -0.03677,0.13676 -0.09273,0.17467c0.02876,-0.04741 0.04135,-0.10923 0.01749,-0.15073c-0.00975,-0.01697 -0.03455,-0.01846 -0.05116,-0.02884c-0.01186,-0.00741 -0.03603,-0.01626 -0.0303,-0.02902c0.01129,-0.02514 0.045,-0.03524 0.05665,-0.06022c0.01216,-0.02605 0.01849,-0.04956 0.01921,-0.07184c0.04921,0.03859 0.08082,0.0986 0.08082,0.16598z" data-paper-data="{&quot;index&quot;:null}"/><path d="M232.72343,165.39516c0,-0.01252 -0.00326,-0.02426 -0.00898,-0.03445c0.02033,0.0042 0.04077,0.00787 0.06143,0.01043c0.04465,0.00554 0.09041,-0.01026 0.13492,-0.00368c0.02764,0.00409 0.02936,0.08635 0.02465,0.10406c-0.00811,0.03043 -0.06053,0.02204 -0.07516,0.02281l-0.05852,0.03007c0,0 -0.00407,0.00271 -0.00935,0.00778c-0.02345,-0.00345 -0.04617,-0.00915 -0.06793,-0.01688l-0.00468,-0.0297c-0.0048,-0.01437 -0.00971,-0.0287 -0.01476,-0.04299c0.01142,-0.01252 0.01838,-0.02917 0.01838,-0.04745z" data-paper-data="{&quot;index&quot;:null}"/><path d="M232.65208,168.58107c0,-0.08795 0.0713,-0.15926 0.15926,-0.15926c0.00915,0 0.01812,0.00077 0.02685,0.00225c0.04082,0.04317 -0.04155,0.08125 -0.04706,0.12058c-0.00527,0.03764 0.02343,0.06858 0.05157,0.08563c0.00556,0.00337 0.01481,-0.00169 0.01927,0.00304c0.00301,0.00319 -0.00363,0.00802 -0.00489,0.01222c-0.00176,0.00586 -0.00874,0.03894 -0.01406,0.04639c-0.03392,0.04747 -0.08109,-0.03662 -0.10432,-0.04632c-0.01696,-0.00708 -0.05144,-0.00693 -0.07574,-0.00657c-0.00702,-0.01796 -0.01087,-0.03751 -0.01087,-0.05795z" data-paper-data="{&quot;index&quot;:null}"/><path d="M233.25513,165.43407c0,0.06739 -0.03161,0.12738 -0.08082,0.16598c-0.00072,-0.02228 -0.00706,-0.04579 -0.01921,-0.07184c-0.01166,-0.02497 -0.04536,-0.03508 -0.05665,-0.06022c-0.00573,-0.01275 0.01844,-0.02161 0.0303,-0.02902c0.0166,-0.01037 0.0414,-0.01186 0.05116,-0.02884c0.02385,-0.0415 0.01126,-0.10331 -0.01749,-0.15073c0.05595,0.03791 0.09273,0.10199 0.09273,0.17466z" data-paper-data="{&quot;index&quot;:null}"/><path d="M232.24437,167.76625c0,-0.01828 -0.00696,-0.03493 -0.01838,-0.04745c0.00504,-0.01429 0.00996,-0.02863 0.01476,-0.04299l0.00468,-0.0297c0.02176,-0.00773 0.04448,-0.01343 0.06793,-0.01688c0.00528,0.00507 0.00935,0.00778 0.00935,0.00778l0.05852,0.03007c0.01463,0.00077 0.06705,-0.00763 0.07516,0.02281c0.00471,0.01771 0.00299,0.09997 -0.02465,0.10406c-0.04451,0.00658 -0.09027,-0.00922 -0.13492,-0.00368c-0.02066,0.00257 -0.0411,0.00623 -0.06143,0.01043c0.00572,-0.01019 0.00898,-0.02193 0.00898,-0.03445z" data-paper-data="{&quot;index&quot;:null}"/></g></g><g fill="#81ff35" stroke="#68cc2b" stroke-width="0.15"><path d="M233.70064,168.44708c0,0.01157 0.00062,0.02277 0.00182,0.03362c-0.02832,0.00924 -0.05846,0.02427 -0.08851,0.0429c-0.01399,-0.00214 -0.02832,-0.00325 -0.04292,-0.00325c-0.00786,-0.00197 -0.01541,-0.00385 -0.02257,-0.00564h-0.05448c-0.02776,-0.02082 -0.05388,-0.03554 -0.07935,-0.04514c0.03011,-0.08882 0.10558,-0.15671 0.19882,-0.1761c0.01694,0.0511 0.04811,0.09571 0.08881,0.12914c-0.00106,0.00808 -0.00162,0.01624 -0.00162,0.02447z"/><path d="M231.43589,167.00713c-0.01319,-0.00189 -0.02669,-0.00287 -0.04041,-0.00287c-0.09879,0 -0.18571,0.05084 -0.23602,0.12778c-0.0128,-0.01274 -0.0218,-0.02977 -0.02324,-0.05495c-0.00296,-0.0519 -0.0193,-0.10699 -0.01691,-0.15959c0.00106,-0.02332 0.0067,-0.04734 0.01423,-0.07177c0.15351,0.00664 0.30111,0.00289 0.30235,0.1614z"/><path d="M234.55229,166.36883c0.00197,0.00831 0.02887,0.04764 0.02288,0.05553c-0.02216,0.02917 -0.04161,0.05331 -0.05802,0.07544c-0.00028,-0.00046 -0.00056,-0.00092 -0.00085,-0.00139c-0.04026,-0.06612 -0.33238,0.01227 -0.28744,-0.18267c0.03697,-0.01616 0.06981,-0.04001 0.09648,-0.06954c0.06794,-0.01064 0.15519,0.0034 0.20859,0.0157c0.00474,0.04403 0.01305,0.08449 0.01837,0.10693z"/><path d="M231.627,166.03767c0,-0.00823 -0.00056,-0.01639 -0.00162,-0.02447c0.04071,-0.03343 0.07188,-0.07804 0.08882,-0.12914c0.09324,0.01939 0.1687,0.08728 0.19882,0.1761c-0.02547,0.0096 -0.05159,0.02432 -0.07935,0.04514h-0.05448c-0.00716,0.00179 -0.01471,0.00366 -0.02257,0.00564c-0.01459,0 -0.02893,0.00111 -0.04292,0.00325c-0.03005,-0.01863 -0.06019,-0.03366 -0.08851,-0.04289c0.0012,-0.01086 0.00182,-0.02207 0.00182,-0.03362z" data-paper-data="{&quot;index&quot;:null}"/><path d="M233.42897,166.82672c0,-0.00823 -0.00056,-0.01639 -0.00163,-0.02447c0.04071,-0.03343 0.07188,-0.07804 0.08882,-0.12914c0.09324,0.01939 0.1687,0.08728 0.19881,0.1761c-0.02547,0.0096 -0.05159,0.02432 -0.07935,0.04514h-0.05448c-0.00716,0.00179 -0.01471,0.00366 -0.02257,0.00564c-0.01459,0 -0.02893,0.00111 -0.04292,0.00325c-0.03005,-0.01863 -0.06019,-0.03366 -0.08851,-0.0429c0.0012,-0.01086 0.00182,-0.02206 0.00182,-0.03362z" data-paper-data="{&quot;index&quot;:null}"/><path d="M233.79968,165.89951c-0.05339,0.0123 -0.14065,0.02634 -0.20859,0.0157c-0.02667,-0.02953 -0.05951,-0.05339 -0.09648,-0.06954c-0.04494,-0.19494 0.24718,-0.11655 0.28744,-0.18267c0.00028,-0.00046 0.00056,-0.00092 0.00085,-0.00139c0.01641,0.02212 0.03586,0.04626 0.05802,0.07543c0.00599,0.0079 -0.0209,0.04722 -0.02288,0.05553c-0.00532,0.02245 -0.01363,0.06291 -0.01836,0.10693z" data-paper-data="{&quot;index&quot;:null}"/></g><g stroke-width="0.25"><g><path d="M233.47801,165.11336c0.19454,0 0.35225,0.15771 0.35225,0.35225c0,0.19454 -0.15771,0.35225 -0.35225,0.35225c-0.19454,0 -0.35225,-0.15771 -0.35225,-0.35225c0,-0.19454 0.15771,-0.35225 0.35225,-0.35225z" fill="#c30007" stroke="#8a0005"/><path d="M233.66588,165.43555c0.03735,0 0.06763,0.03028 0.06763,0.06763c0,0.03735 -0.03028,0.06764 -0.06763,0.06764c-0.03736,0 -0.06763,-0.03028 -0.06763,-0.06764c0,-0.03735 0.03028,-0.06763 0.06763,-0.06763z" fill="#ff7272" stroke="none"/><path d="M233.42916,165.38482c0.01868,0 0.03381,0.01514 0.03381,0.03382c0,0.01868 -0.01514,0.03381 -0.03381,0.03381c-0.01868,0 -0.03382,-0.01514 -0.03382,-0.03381c0,-0.01868 0.01514,-0.03382 0.03382,-0.03382z" fill="#ff9191" stroke="none"/><path d="M233.62643,165.29465c0.02179,0 0.03945,0.01766 0.03945,0.03945c0,0.02179 -0.01766,0.03945 -0.03945,0.03945c-0.02179,0 -0.03945,-0.01766 -0.03945,-0.03945c0,-0.02179 0.01766,-0.03945 0.03945,-0.03945z" fill="#ffaeae" stroke="none"/><path d="M233.47425,165.1932c0.03735,0 0.06763,0.03028 0.06763,0.06764c0,0.03735 -0.03028,0.06763 -0.06763,0.06763c-0.03736,0 -0.06763,-0.03028 -0.06763,-0.06763c0,-0.03735 0.03028,-0.06764 0.06763,-0.06764z" fill="#ff7272" stroke="none"/><path d="M233.29672,165.2721c0.01401,0 0.02536,0.01135 0.02536,0.02536c0,0.01401 -0.01136,0.02536 -0.02536,0.02536c-0.01401,0 -0.02536,-0.01135 -0.02536,-0.02536c0,-0.01401 0.01135,-0.02536 0.02536,-0.02536z" fill="#ffc4c4" stroke="none"/><path d="M233.51089,165.53982c0.01556,0 0.02818,0.01261 0.02818,0.02818c0,0.01556 -0.01262,0.02818 -0.02818,0.02818c-0.01556,0 -0.02818,-0.01262 -0.02818,-0.02818c0,-0.01556 0.01262,-0.02818 0.02818,-0.02818z" fill="#ffa3a3" stroke="none"/><path d="M233.24318,165.413c0.02179,0 0.03945,0.01766 0.03945,0.03945c0,0.02179 -0.01766,0.03945 -0.03945,0.03945c-0.02179,0 -0.03945,-0.01766 -0.03945,-0.03945c0,-0.02179 0.01766,-0.03945 0.03945,-0.03945z" fill="#ff9898" stroke="none"/><path d="M233.43762,165.67508c0.01556,0 0.02818,0.01261 0.02818,0.02818c0,0.01556 -0.01261,0.02818 -0.02818,0.02818c-0.01556,0 -0.02818,-0.01262 -0.02818,-0.02818c0,-0.01556 0.01262,-0.02818 0.02818,-0.02818z" fill="#ffc4c4" stroke="none"/><path d="M233.32772,165.537c0.03736,0 0.06763,0.03028 0.06763,0.06764c0,0.03735 -0.03028,0.06763 -0.06763,0.06763c-0.03736,0 -0.06764,-0.03028 -0.06764,-0.06763c0,-0.03735 0.03028,-0.06764 0.06764,-0.06764z" fill="#ff7272" stroke="none"/></g><g><path d="M234.32342,165.4797c0.19454,0 0.35225,0.15771 0.35225,0.35225c0,0.19454 -0.15771,0.35225 -0.35225,0.35225c-0.19454,0 -0.35225,-0.15771 -0.35225,-0.35225c0,-0.19454 0.15771,-0.35225 0.35225,-0.35225z" fill="#c30007" stroke="#8a0005"/><path d="M234.51129,165.80189c0.03736,0 0.06764,0.03028 0.06764,0.06764c0,0.03735 -0.03028,0.06764 -0.06764,0.06764c-0.03735,0 -0.06763,-0.03028 -0.06763,-0.06764c0,-0.03735 0.03028,-0.06764 0.06763,-0.06764z" fill="#ff7272" stroke="none"/><path d="M234.27457,165.75117c0.01868,0 0.03382,0.01514 0.03382,0.03382c0,0.01868 -0.01514,0.03382 -0.03382,0.03382c-0.01867,0 -0.03381,-0.01514 -0.03381,-0.03382c0,-0.01868 0.01514,-0.03382 0.03381,-0.03382z" fill="#ff9191" stroke="none"/><path d="M234.47184,165.66099c0.02179,0 0.03945,0.01766 0.03945,0.03945c0,0.02179 -0.01766,0.03945 -0.03945,0.03945c-0.02179,0 -0.03945,-0.01766 -0.03945,-0.03945c0,-0.02179 0.01766,-0.03945 0.03945,-0.03945z" fill="#ffaeae" stroke="none"/><path d="M234.31967,165.55954c0.03736,0 0.06763,0.03028 0.06763,0.06763c0,0.03735 -0.03028,0.06764 -0.06763,0.06764c-0.03735,0 -0.06763,-0.03028 -0.06763,-0.06764c0,-0.03735 0.03028,-0.06763 0.06763,-0.06763z" fill="#ff7272" stroke="none"/><path d="M234.14213,165.63845c0.01401,0 0.02536,0.01135 0.02536,0.02536c0,0.01401 -0.01135,0.02536 -0.02536,0.02536c-0.01401,0 -0.02536,-0.01135 -0.02536,-0.02536c0,-0.01401 0.01136,-0.02536 0.02536,-0.02536z" fill="#ffc4c4" stroke="none"/><path d="M234.3563,165.90616c0.01556,0 0.02818,0.01262 0.02818,0.02818c0,0.01556 -0.01262,0.02818 -0.02818,0.02818c-0.01556,0 -0.02818,-0.01261 -0.02818,-0.02818c0,-0.01556 0.01262,-0.02818 0.02818,-0.02818z" fill="#ffa3a3" stroke="none"/><path d="M234.08859,165.77935c0.02179,0 0.03945,0.01766 0.03945,0.03945c0,0.02179 -0.01766,0.03945 -0.03945,0.03945c-0.02179,0 -0.03945,-0.01766 -0.03945,-0.03945c0,-0.02179 0.01766,-0.03945 0.03945,-0.03945z" fill="#ff9898" stroke="none"/><path d="M234.28303,166.04143c0.01556,0 0.02818,0.01262 0.02818,0.02818c0,0.01556 -0.01262,0.02818 -0.02818,0.02818c-0.01556,0 -0.02818,-0.01261 -0.02818,-0.02818c0,-0.01556 0.01262,-0.02818 0.02818,-0.02818z" fill="#ffc4c4" stroke="none"/><path d="M234.17313,165.90334c0.03736,0 0.06764,0.03028 0.06764,0.06763c0,0.03735 -0.03028,0.06764 -0.06764,0.06764c-0.03736,0 -0.06764,-0.03028 -0.06764,-0.06764c0,-0.03735 0.03028,-0.06763 0.06764,-0.06763z" fill="#ff7272" stroke="none"/></g><g><path d="M235.352,166.64918c0,0.19454 -0.15771,0.35225 -0.35225,0.35225c-0.19454,0 -0.35225,-0.15771 -0.35225,-0.35225c0,-0.19454 0.15771,-0.35225 0.35225,-0.35225c0.19454,0 0.35225,0.15771 0.35225,0.35225z" fill="#c30007" stroke="#8a0005"/><path d="M234.87951,166.68675c0,0.03735 -0.03028,0.06764 -0.06763,0.06764c-0.03735,0 -0.06763,-0.03028 -0.06763,-0.06764c0,-0.03735 0.03028,-0.06764 0.06763,-0.06764c0.03736,0 0.06763,0.03028 0.06763,0.06764z" fill="#ff7272" stroke="none"/><path d="M235.08241,166.60221c0,0.01868 -0.01514,0.03382 -0.03382,0.03382c-0.01867,0 -0.03381,-0.01514 -0.03381,-0.03382c0,-0.01868 0.01514,-0.03382 0.03381,-0.03382c0.01868,0 0.03382,0.01514 0.03382,0.03382z" fill="#ff9191" stroke="none"/><path d="M234.89078,166.51767c0,0.02179 -0.01766,0.03945 -0.03945,0.03945c-0.02179,0 -0.03945,-0.01766 -0.03945,-0.03945c0,-0.02179 0.01767,-0.03945 0.03945,-0.03945c0.02179,0 0.03945,0.01766 0.03945,0.03945z" fill="#ffaeae" stroke="none"/><path d="M235.07114,166.4444c0,0.03735 -0.03028,0.06763 -0.06763,0.06763c-0.03735,0 -0.06763,-0.03028 -0.06763,-0.06763c0,-0.03735 0.03028,-0.06764 0.06763,-0.06764c0.03736,0 0.06763,0.03028 0.06763,0.06764z" fill="#ff7272" stroke="none"/><path d="M235.2064,166.48104c0,0.01401 -0.01135,0.02536 -0.02536,0.02536c-0.01401,0 -0.02536,-0.01135 -0.02536,-0.02536c0,-0.01401 0.01136,-0.02536 0.02536,-0.02536c0.01401,0 0.02536,0.01135 0.02536,0.02536z" fill="#ffc4c4" stroke="none"/><path d="M234.99505,166.75157c0,0.01556 -0.01262,0.02818 -0.02818,0.02818c-0.01556,0 -0.02818,-0.01261 -0.02818,-0.02818c0,-0.01556 0.01261,-0.02818 0.02818,-0.02818c0.01556,0 0.02818,0.01262 0.02818,0.02818z" fill="#ffa3a3" stroke="none"/><path d="M235.27403,166.63603c0,0.02179 -0.01766,0.03945 -0.03945,0.03945c-0.02179,0 -0.03945,-0.01766 -0.03945,-0.03945c0,-0.02179 0.01766,-0.03945 0.03945,-0.03945c0.02179,0 0.03945,0.01766 0.03945,0.03945z" fill="#ff9898" stroke="none"/><path d="M235.06832,166.88684c0,0.01556 -0.01262,0.02818 -0.02818,0.02818c-0.01556,0 -0.02818,-0.01261 -0.02818,-0.02818c0,-0.01556 0.01261,-0.02818 0.02818,-0.02818c0.01556,0 0.02818,0.01262 0.02818,0.02818z" fill="#ffc4c4" stroke="none"/><path d="M235.21767,166.7882c0,0.03735 -0.03028,0.06764 -0.06763,0.06764c-0.03735,0 -0.06763,-0.03028 -0.06763,-0.06764c0,-0.03735 0.03028,-0.06763 0.06763,-0.06763c0.03736,0 0.06763,0.03028 0.06763,0.06763z" fill="#ff7272" stroke="none"/></g><g><path d="M235.02793,168.01592c-0.19454,0 -0.35225,-0.15771 -0.35225,-0.35225c0,-0.19454 0.15771,-0.35225 0.35225,-0.35225c0.19454,0 0.35225,0.15771 0.35225,0.35225c0,0.19454 -0.15771,0.35225 -0.35225,0.35225z" fill="#c30007" stroke="#8a0005"/><path d="M234.84006,167.69373c-0.03736,0 -0.06763,-0.03028 -0.06763,-0.06764c0,-0.03735 0.03028,-0.06763 0.06763,-0.06763c0.03735,0 0.06763,0.03028 0.06763,0.06763c0,0.03735 -0.03028,0.06764 -0.06763,0.06764z" fill="#ff7272" stroke="none"/><path d="M235.07677,167.74445c-0.01867,0 -0.03382,-0.01514 -0.03382,-0.03381c0,-0.01868 0.01514,-0.03382 0.03382,-0.03382c0.01868,0 0.03382,0.01514 0.03382,0.03382c0,0.01868 -0.01514,0.03381 -0.03382,0.03381z" fill="#ff9191" stroke="none"/><path d="M234.87951,167.83463c-0.02179,0 -0.03945,-0.01766 -0.03945,-0.03945c0,-0.02179 0.01766,-0.03945 0.03945,-0.03945c0.02179,0 0.03945,0.01766 0.03945,0.03945c0,0.02179 -0.01766,0.03945 -0.03945,0.03945z" fill="#ffaeae" stroke="none"/><path d="M235.03169,167.93608c-0.03735,0 -0.06763,-0.03028 -0.06763,-0.06764c0,-0.03735 0.03028,-0.06764 0.06763,-0.06764c0.03736,0 0.06763,0.03028 0.06763,0.06764c0,0.03735 -0.03028,0.06764 -0.06763,0.06764z" fill="#ff7272" stroke="none"/><path d="M235.20922,167.85717c-0.01401,0 -0.02536,-0.01135 -0.02536,-0.02536c0,-0.01401 0.01136,-0.02536 0.02536,-0.02536c0.01401,0 0.02536,0.01135 0.02536,0.02536c0,0.01401 -0.01135,0.02536 -0.02536,0.02536z" fill="#ffc4c4" stroke="none"/><path d="M234.99505,167.58946c-0.01556,0 -0.02818,-0.01262 -0.02818,-0.02818c0,-0.01556 0.01262,-0.02818 0.02818,-0.02818c0.01556,0 0.02818,0.01261 0.02818,0.02818c0,0.01556 -0.01262,0.02818 -0.02818,0.02818z" fill="#ffa3a3" stroke="none"/><path d="M235.26276,167.71627c-0.02179,0 -0.03945,-0.01766 -0.03945,-0.03945c0,-0.02179 0.01766,-0.03945 0.03945,-0.03945c0.02179,0 0.03945,0.01766 0.03945,0.03945c0,0.02179 -0.01767,0.03945 -0.03945,0.03945z" fill="#ff9898" stroke="none"/><path d="M235.06832,167.4542c-0.01556,0 -0.02818,-0.01262 -0.02818,-0.02818c0,-0.01556 0.01262,-0.02818 0.02818,-0.02818c0.01556,0 0.02818,0.01261 0.02818,0.02818c0,0.01556 -0.01261,0.02818 -0.02818,0.02818z" fill="#ffc4c4" stroke="none"/><path d="M235.17822,167.59228c-0.03736,0 -0.06763,-0.03028 -0.06763,-0.06763c0,-0.03735 0.03028,-0.06764 0.06763,-0.06764c0.03735,0 0.06763,0.03028 0.06763,0.06764c0,0.03735 -0.03028,0.06763 -0.06763,0.06763z" fill="#ff7272" stroke="none"/></g><g><path d="M234.30933,168.4809c0,-0.19454 0.15771,-0.35225 0.35225,-0.35225c0.19454,0 0.35225,0.15771 0.35225,0.35225c0,0.19454 -0.15771,0.35225 -0.35225,0.35225c-0.19454,0 -0.35225,-0.15771 -0.35225,-0.35225z" fill="#c30007" stroke="#8a0005"/><path d="M234.78182,168.44333c0,-0.03735 0.03028,-0.06764 0.06763,-0.06764c0.03736,0 0.06763,0.03028 0.06763,0.06764c0,0.03735 -0.03028,0.06763 -0.06763,0.06763c-0.03735,0 -0.06763,-0.03028 -0.06763,-0.06763z" fill="#ff7272" stroke="none"/><path d="M234.57892,168.52787c0,-0.01868 0.01514,-0.03382 0.03382,-0.03382c0.01868,0 0.03382,0.01514 0.03382,0.03382c0,0.01868 -0.01514,0.03381 -0.03382,0.03381c-0.01867,0 -0.03382,-0.01514 -0.03382,-0.03381z" fill="#ff9191" stroke="none"/><path d="M234.77055,168.61241c0,-0.02179 0.01766,-0.03945 0.03945,-0.03945c0.02179,0 0.03945,0.01766 0.03945,0.03945c0,0.02179 -0.01766,0.03945 -0.03945,0.03945c-0.02179,0 -0.03945,-0.01766 -0.03945,-0.03945z" fill="#ffaeae" stroke="none"/><path d="M234.59019,168.68567c0,-0.03735 0.03028,-0.06764 0.06763,-0.06764c0.03736,0 0.06763,0.03028 0.06763,0.06764c0,0.03735 -0.03028,0.06764 -0.06763,0.06764c-0.03735,0 -0.06763,-0.03028 -0.06763,-0.06764z" fill="#ff7272" stroke="none"/><path d="M234.45493,168.64904c0,-0.01401 0.01136,-0.02536 0.02536,-0.02536c0.01401,0 0.02536,0.01135 0.02536,0.02536c0,0.01401 -0.01135,0.02536 -0.02536,0.02536c-0.01401,0 -0.02536,-0.01135 -0.02536,-0.02536z" fill="#ffc4c4" stroke="none"/><path d="M234.66628,168.37851c0,-0.01556 0.01261,-0.02818 0.02818,-0.02818c0.01556,0 0.02818,0.01261 0.02818,0.02818c0,0.01556 -0.01262,0.02818 -0.02818,0.02818c-0.01556,0 -0.02818,-0.01262 -0.02818,-0.02818z" fill="#ffa3a3" stroke="none"/><path d="M234.38729,168.49405c0,-0.02179 0.01766,-0.03945 0.03945,-0.03945c0.02179,0 0.03945,0.01766 0.03945,0.03945c0,0.02179 -0.01766,0.03945 -0.03945,0.03945c-0.02179,0 -0.03945,-0.01766 -0.03945,-0.03945z" fill="#ff9898" stroke="none"/><path d="M234.59301,168.24325c0,-0.01556 0.01261,-0.02818 0.02818,-0.02818c0.01556,0 0.02818,0.01261 0.02818,0.02818c0,0.01556 -0.01262,0.02818 -0.02818,0.02818c-0.01556,0 -0.02818,-0.01262 -0.02818,-0.02818z" fill="#ffc4c4" stroke="none"/><path d="M234.44366,168.34187c0,-0.03735 0.03028,-0.06764 0.06763,-0.06764c0.03736,0 0.06764,0.03028 0.06764,0.06764c0,0.03735 -0.03028,0.06763 -0.06764,0.06763c-0.03735,0 -0.06763,-0.03028 -0.06763,-0.06763z" fill="#ff7272" stroke="none"/></g><g><path d="M234.0698,167.45232c0.19454,0 0.35225,0.15771 0.35225,0.35225c0,0.19454 -0.15771,0.35225 -0.35225,0.35225c-0.19454,0 -0.35225,-0.15771 -0.35225,-0.35225c0,-0.19454 0.15771,-0.35225 0.35225,-0.35225z" fill="#c30007" stroke="#8a0005"/><path d="M234.25767,167.77451c0.03735,0 0.06763,0.03028 0.06763,0.06763c0,0.03735 -0.03028,0.06764 -0.06763,0.06764c-0.03735,0 -0.06763,-0.03028 -0.06763,-0.06764c0,-0.03735 0.03028,-0.06763 0.06763,-0.06763z" fill="#ff7272" stroke="none"/><path d="M234.02095,167.72379c0.01867,0 0.03381,0.01514 0.03381,0.03381c0,0.01868 -0.01514,0.03381 -0.03381,0.03381c-0.01867,0 -0.03382,-0.01514 -0.03382,-0.03381c0,-0.01868 0.01514,-0.03381 0.03382,-0.03381z" fill="#ff9191" stroke="none"/><path d="M234.21821,167.63361c0.02179,0 0.03945,0.01766 0.03945,0.03945c0,0.02179 -0.01766,0.03945 -0.03945,0.03945c-0.02179,0 -0.03945,-0.01766 -0.03945,-0.03945c0,-0.02179 0.01766,-0.03945 0.03945,-0.03945z" fill="#ffaeae" stroke="none"/><path d="M234.06604,167.53216c0.03735,0 0.06763,0.03028 0.06763,0.06763c0,0.03735 -0.03028,0.06763 -0.06763,0.06763c-0.03735,0 -0.06763,-0.03028 -0.06763,-0.06763c0,-0.03735 0.03028,-0.06763 0.06763,-0.06763z" fill="#ff7272" stroke="none"/><path d="M233.8885,167.61107c0.01401,0 0.02536,0.01135 0.02536,0.02536c0,0.01401 -0.01135,0.02536 -0.02536,0.02536c-0.01401,0 -0.02536,-0.01135 -0.02536,-0.02536c0,-0.01401 0.01135,-0.02536 0.02536,-0.02536z" fill="#ffc4c4" stroke="none"/><path d="M234.10267,167.87878c0.01556,0 0.02818,0.01261 0.02818,0.02818c0,0.01556 -0.01262,0.02818 -0.02818,0.02818c-0.01556,0 -0.02818,-0.01262 -0.02818,-0.02818c0,-0.01556 0.01261,-0.02818 0.02818,-0.02818z" fill="#ffa3a3" stroke="none"/><path d="M233.83496,167.75197c0.02179,0 0.03945,0.01766 0.03945,0.03945c0,0.02179 -0.01766,0.03945 -0.03945,0.03945c-0.02179,0 -0.03945,-0.01766 -0.03945,-0.03945c0,-0.02179 0.01766,-0.03945 0.03945,-0.03945z" fill="#ff9898" stroke="none"/><path d="M234.02941,168.01405c0.01556,0 0.02818,0.01262 0.02818,0.02818c0,0.01556 -0.01262,0.02818 -0.02818,0.02818c-0.01556,0 -0.02818,-0.01261 -0.02818,-0.02818c0,-0.01556 0.01262,-0.02818 0.02818,-0.02818z" fill="#ffc4c4" stroke="none"/><path d="M233.9195,167.87596c0.03736,0 0.06763,0.03028 0.06763,0.06764c0,0.03735 -0.03028,0.06764 -0.06763,0.06764c-0.03735,0 -0.06763,-0.03028 -0.06763,-0.06764c0,-0.03735 0.03028,-0.06764 0.06763,-0.06764z" fill="#ff7272" stroke="none"/></g><g><path d="M233.7739,166.84644c0,-0.19454 0.15771,-0.35225 0.35225,-0.35225c0.19454,0 0.35225,0.15771 0.35225,0.35225c0,0.19454 -0.15771,0.35225 -0.35225,0.35225c-0.19454,0 -0.35225,-0.15771 -0.35225,-0.35225z" fill="#c30007" stroke="#8a0005"/><path d="M234.24639,166.80887c0,-0.03735 0.03028,-0.06763 0.06764,-0.06763c0.03735,0 0.06763,0.03028 0.06763,0.06763c0,0.03735 -0.03028,0.06764 -0.06763,0.06764c-0.03736,0 -0.06764,-0.03028 -0.06764,-0.06764z" fill="#ff7272" stroke="none"/><path d="M234.0435,166.89341c0,-0.01868 0.01514,-0.03382 0.03382,-0.03382c0.01867,0 0.03381,0.01514 0.03381,0.03382c0,0.01868 -0.01514,0.03382 -0.03381,0.03382c-0.01867,0 -0.03382,-0.01514 -0.03382,-0.03382z" fill="#ff9191" stroke="none"/><path d="M234.23512,166.97795c0,-0.02179 0.01766,-0.03945 0.03945,-0.03945c0.02179,0 0.03945,0.01766 0.03945,0.03945c0,0.02179 -0.01767,0.03945 -0.03945,0.03945c-0.02179,0 -0.03945,-0.01766 -0.03945,-0.03945z" fill="#ffaeae" stroke="none"/><path d="M234.05477,167.05122c0,-0.03735 0.03028,-0.06764 0.06764,-0.06764c0.03735,0 0.06763,0.03028 0.06763,0.06764c0,0.03735 -0.03028,0.06764 -0.06763,0.06764c-0.03736,0 -0.06764,-0.03028 -0.06764,-0.06764z" fill="#ff7272" stroke="none"/><path d="M233.9195,167.01459c0,-0.01401 0.01136,-0.02536 0.02536,-0.02536c0.01401,0 0.02536,0.01135 0.02536,0.02536c0,0.01401 -0.01136,0.02536 -0.02536,0.02536c-0.01401,0 -0.02536,-0.01135 -0.02536,-0.02536z" fill="#ffc4c4" stroke="none"/><path d="M234.13085,166.74405c0,-0.01556 0.01262,-0.02818 0.02818,-0.02818c0.01556,0 0.02818,0.01261 0.02818,0.02818c0,0.01556 -0.01262,0.02818 -0.02818,0.02818c-0.01556,0 -0.02818,-0.01262 -0.02818,-0.02818z" fill="#ffa3a3" stroke="none"/><path d="M233.85187,166.85959c0,-0.02179 0.01766,-0.03945 0.03945,-0.03945c0.02179,0 0.03945,0.01766 0.03945,0.03945c0,0.02179 -0.01766,0.03945 -0.03945,0.03945c-0.02179,0 -0.03945,-0.01766 -0.03945,-0.03945z" fill="#ff9898" stroke="none"/><path d="M234.05759,166.60879c0,-0.01556 0.01262,-0.02818 0.02818,-0.02818c0.01556,0 0.02818,0.01261 0.02818,0.02818c0,0.01556 -0.01261,0.02818 -0.02818,0.02818c-0.01556,0 -0.02818,-0.01262 -0.02818,-0.02818z" fill="#ffc4c4" stroke="none"/><path d="M233.90823,166.70742c0,-0.03735 0.03028,-0.06763 0.06763,-0.06763c0.03735,0 0.06763,0.03028 0.06763,0.06763c0,0.03735 -0.03028,0.06764 -0.06763,0.06764c-0.03736,0 -0.06763,-0.03028 -0.06763,-0.06764z" fill="#ff7272" stroke="none"/></g><g><path d="M233.54846,166.39556c0,0.19454 -0.15771,0.35225 -0.35225,0.35225c-0.19454,0 -0.35225,-0.15771 -0.35225,-0.35225c0,-0.19454 0.15771,-0.35225 0.35225,-0.35225c0.19454,0 0.35225,0.15771 0.35225,0.35225z" fill="#c30007" stroke="#8a0005"/><path d="M233.07597,166.43313c0,0.03735 -0.03028,0.06763 -0.06763,0.06763c-0.03735,0 -0.06763,-0.03028 -0.06763,-0.06763c0,-0.03735 0.03028,-0.06764 0.06763,-0.06764c0.03736,0 0.06763,0.03028 0.06763,0.06764z" fill="#ff7272" stroke="none"/><path d="M233.27887,166.34859c0,0.01868 -0.01514,0.03381 -0.03382,0.03381c-0.01868,0 -0.03381,-0.01514 -0.03381,-0.03381c0,-0.01868 0.01514,-0.03381 0.03381,-0.03381c0.01868,0 0.03382,0.01514 0.03382,0.03381z" fill="#ff9191" stroke="none"/><path d="M233.08725,166.26405c0,0.02179 -0.01766,0.03945 -0.03945,0.03945c-0.02179,0 -0.03945,-0.01766 -0.03945,-0.03945c0,-0.02179 0.01766,-0.03945 0.03945,-0.03945c0.02179,0 0.03945,0.01766 0.03945,0.03945z" fill="#ffaeae" stroke="none"/><path d="M233.2676,166.19078c0,0.03735 -0.03028,0.06763 -0.06763,0.06763c-0.03735,0 -0.06763,-0.03028 -0.06763,-0.06763c0,-0.03735 0.03028,-0.06763 0.06763,-0.06763c0.03736,0 0.06763,0.03028 0.06763,0.06763z" fill="#ff7272" stroke="none"/><path d="M233.40286,166.22741c0,0.01401 -0.01135,0.02536 -0.02536,0.02536c-0.01401,0 -0.02536,-0.01135 -0.02536,-0.02536c0,-0.01401 0.01135,-0.02536 0.02536,-0.02536c0.01401,0 0.02536,0.01135 0.02536,0.02536z" fill="#ffc4c4" stroke="none"/><path d="M233.19151,166.49795c0,0.01556 -0.01262,0.02818 -0.02818,0.02818c-0.01556,0 -0.02818,-0.01262 -0.02818,-0.02818c0,-0.01556 0.01261,-0.02818 0.02818,-0.02818c0.01556,0 0.02818,0.01261 0.02818,0.02818z" fill="#ffa3a3" stroke="none"/><path d="M233.4705,166.38241c0,0.02179 -0.01766,0.03945 -0.03945,0.03945c-0.02179,0 -0.03945,-0.01766 -0.03945,-0.03945c0,-0.02179 0.01766,-0.03945 0.03945,-0.03945c0.02179,0 0.03945,0.01766 0.03945,0.03945z" fill="#ff9898" stroke="none"/><path d="M233.26478,166.63321c0,0.01556 -0.01262,0.02818 -0.02818,0.02818c-0.01556,0 -0.02818,-0.01262 -0.02818,-0.02818c0,-0.01556 0.01261,-0.02818 0.02818,-0.02818c0.01556,0 0.02818,0.01262 0.02818,0.02818z" fill="#ffc4c4" stroke="none"/><path d="M233.41414,166.53458c0,0.03735 -0.03028,0.06763 -0.06764,0.06763c-0.03735,0 -0.06763,-0.03028 -0.06763,-0.06763c0,-0.03735 0.03028,-0.06764 0.06763,-0.06764c0.03736,0 0.06764,0.03028 0.06764,0.06764z" fill="#ff7272" stroke="none"/></g><g><path d="M232.97588,167.25928c0,-0.19454 0.15771,-0.35225 0.35225,-0.35225c0.19455,0 0.35225,0.15771 0.35225,0.35225c0,0.19454 -0.15771,0.35225 -0.35225,0.35225c-0.19454,0 -0.35225,-0.15771 -0.35225,-0.35225z" fill="#c30007" stroke="#8a0005"/><path d="M233.44837,167.22171c0,-0.03735 0.03028,-0.06764 0.06763,-0.06764c0.03736,0 0.06764,0.03028 0.06764,0.06764c0,0.03735 -0.03028,0.06764 -0.06764,0.06764c-0.03735,0 -0.06763,-0.03028 -0.06763,-0.06764z" fill="#ff7272" stroke="none"/><path d="M233.24547,167.30625c0,-0.01868 0.01514,-0.03381 0.03382,-0.03381c0.01868,0 0.03382,0.01514 0.03382,0.03381c0,0.01868 -0.01514,0.03382 -0.03382,0.03382c-0.01868,0 -0.03382,-0.01514 -0.03382,-0.03382z" fill="#ff9191" stroke="none"/><path d="M233.4371,167.39079c0,-0.02179 0.01766,-0.03945 0.03945,-0.03945c0.02179,0 0.03945,0.01766 0.03945,0.03945c0,0.02179 -0.01766,0.03945 -0.03945,0.03945c-0.02179,0 -0.03945,-0.01766 -0.03945,-0.03945z" fill="#ffaeae" stroke="none"/><path d="M233.25674,167.46406c0,-0.03735 0.03028,-0.06764 0.06763,-0.06764c0.03735,0 0.06763,0.03028 0.06763,0.06764c0,0.03735 -0.03028,0.06763 -0.06763,0.06763c-0.03736,0 -0.06763,-0.03028 -0.06763,-0.06763z" fill="#ff7272" stroke="none"/><path d="M233.12147,167.42743c0,-0.01401 0.01136,-0.02536 0.02536,-0.02536c0.01401,0 0.02536,0.01135 0.02536,0.02536c0,0.01401 -0.01135,0.02536 -0.02536,0.02536c-0.01401,0 -0.02536,-0.01135 -0.02536,-0.02536z" fill="#ffc4c4" stroke="none"/><path d="M233.33283,167.15689c0,-0.01556 0.01262,-0.02818 0.02818,-0.02818c0.01556,0 0.02818,0.01261 0.02818,0.02818c0,0.01556 -0.01262,0.02818 -0.02818,0.02818c-0.01556,0 -0.02818,-0.01262 -0.02818,-0.02818z" fill="#ffa3a3" stroke="none"/><path d="M233.05384,167.27243c0,-0.02179 0.01766,-0.03945 0.03945,-0.03945c0.02179,0 0.03945,0.01766 0.03945,0.03945c0,0.02179 -0.01766,0.03945 -0.03945,0.03945c-0.02179,0 -0.03945,-0.01766 -0.03945,-0.03945z" fill="#ff9898" stroke="none"/><path d="M233.25956,167.02163c0,-0.01556 0.01262,-0.02818 0.02818,-0.02818c0.01556,0 0.02818,0.01262 0.02818,0.02818c0,0.01556 -0.01262,0.02818 -0.02818,0.02818c-0.01556,0 -0.02818,-0.01262 -0.02818,-0.02818z" fill="#ffc4c4" stroke="none"/><path d="M233.1102,167.12026c0,-0.03735 0.03028,-0.06763 0.06763,-0.06763c0.03735,0 0.06763,0.03028 0.06763,0.06763c0,0.03735 -0.03028,0.06764 -0.06763,0.06764c-0.03735,0 -0.06763,-0.03028 -0.06763,-0.06764z" fill="#ff7272" stroke="none"/></g><g><path d="M232.43534,167.42414c-0.19454,0 -0.35225,-0.15771 -0.35225,-0.35225c0,-0.19454 0.15771,-0.35225 0.35225,-0.35225c0.19454,0 0.35225,0.15771 0.35225,0.35225c0,0.19454 -0.15771,0.35225 -0.35225,0.35225z" fill="#c30007" stroke="#8a0005"/><path d="M232.24747,167.10194c-0.03736,0 -0.06764,-0.03028 -0.06764,-0.06763c0,-0.03735 0.03028,-0.06764 0.06764,-0.06764c0.03735,0 0.06763,0.03028 0.06763,0.06764c0,0.03735 -0.03028,0.06763 -0.06763,0.06763z" fill="#ff7272" stroke="none"/><path d="M232.48419,167.15267c-0.01868,0 -0.03381,-0.01514 -0.03381,-0.03381c0,-0.01868 0.01514,-0.03382 0.03381,-0.03382c0.01868,0 0.03382,0.01514 0.03382,0.03382c0,0.01868 -0.01514,0.03381 -0.03382,0.03381z" fill="#ff9191" stroke="none"/><path d="M232.28693,167.24285c-0.02179,0 -0.03945,-0.01766 -0.03945,-0.03945c0,-0.02179 0.01766,-0.03945 0.03945,-0.03945c0.02179,0 0.03945,0.01766 0.03945,0.03945c0,0.02179 -0.01767,0.03945 -0.03945,0.03945z" fill="#ffaeae" stroke="none"/><path d="M232.4391,167.3443c-0.03735,0 -0.06763,-0.03028 -0.06763,-0.06764c0,-0.03735 0.03028,-0.06764 0.06763,-0.06764c0.03735,0 0.06763,0.03028 0.06763,0.06764c0,0.03735 -0.03028,0.06764 -0.06763,0.06764z" fill="#ff7272" stroke="none"/><path d="M232.61663,167.26539c-0.01401,0 -0.02536,-0.01135 -0.02536,-0.02536c0,-0.01401 0.01135,-0.02536 0.02536,-0.02536c0.01401,0 0.02536,0.01135 0.02536,0.02536c0,0.01401 -0.01135,0.02536 -0.02536,0.02536z" fill="#ffc4c4" stroke="none"/><path d="M232.40246,166.99768c-0.01556,0 -0.02818,-0.01262 -0.02818,-0.02818c0,-0.01556 0.01261,-0.02818 0.02818,-0.02818c0.01556,0 0.02818,0.01261 0.02818,0.02818c0,0.01556 -0.01262,0.02818 -0.02818,0.02818z" fill="#ffa3a3" stroke="none"/><path d="M232.67018,167.12449c-0.02179,0 -0.03945,-0.01766 -0.03945,-0.03945c0,-0.02179 0.01766,-0.03945 0.03945,-0.03945c0.02179,0 0.03945,0.01766 0.03945,0.03945c0,0.02179 -0.01766,0.03945 -0.03945,0.03945z" fill="#ff9898" stroke="none"/><path d="M232.47573,166.86241c-0.01556,0 -0.02818,-0.01261 -0.02818,-0.02818c0,-0.01556 0.01261,-0.02818 0.02818,-0.02818c0.01556,0 0.02818,0.01262 0.02818,0.02818c0,0.01556 -0.01262,0.02818 -0.02818,0.02818z" fill="#ffc4c4" stroke="none"/><path d="M232.58563,167.0005c-0.03736,0 -0.06763,-0.03028 -0.06763,-0.06763c0,-0.03735 0.03028,-0.06764 0.06763,-0.06764c0.03735,0 0.06763,0.03028 0.06763,0.06764c0,0.03735 -0.03028,0.06763 -0.06763,0.06763z" fill="#ff7272" stroke="none"/></g><g><path d="M232.70305,165.86013c0,0.19454 -0.15771,0.35225 -0.35225,0.35225c-0.19454,0 -0.35225,-0.15771 -0.35225,-0.35225c0,-0.19454 0.15771,-0.35225 0.35225,-0.35225c0.19454,0 0.35225,0.15771 0.35225,0.35225z" fill="#c30007" stroke="#8a0005"/><path d="M232.23056,165.89771c0,0.03735 -0.03028,0.06764 -0.06763,0.06764c-0.03735,0 -0.06763,-0.03028 -0.06763,-0.06764c0,-0.03735 0.03028,-0.06763 0.06763,-0.06763c0.03735,0 0.06763,0.03028 0.06763,0.06763z" fill="#ff7272" stroke="none"/><path d="M232.43346,165.81317c0,0.01868 -0.01514,0.03382 -0.03382,0.03382c-0.01868,0 -0.03381,-0.01514 -0.03381,-0.03382c0,-0.01868 0.01514,-0.03381 0.03381,-0.03381c0.01868,0 0.03382,0.01514 0.03382,0.03381z" fill="#ff9191" stroke="none"/><path d="M232.24183,165.72863c0,0.02179 -0.01766,0.03945 -0.03945,0.03945c-0.02179,0 -0.03945,-0.01766 -0.03945,-0.03945c0,-0.02179 0.01766,-0.03945 0.03945,-0.03945c0.02179,0 0.03945,0.01766 0.03945,0.03945z" fill="#ffaeae" stroke="none"/><path d="M232.42219,165.65536c0,0.03735 -0.03028,0.06764 -0.06764,0.06764c-0.03736,0 -0.06764,-0.03028 -0.06764,-0.06764c0,-0.03735 0.03028,-0.06764 0.06764,-0.06764c0.03736,0 0.06764,0.03028 0.06764,0.06764z" fill="#ff7272" stroke="none"/><path d="M232.55746,165.69199c0,0.01401 -0.01136,0.02536 -0.02536,0.02536c-0.01401,0 -0.02536,-0.01135 -0.02536,-0.02536c0,-0.01401 0.01135,-0.02536 0.02536,-0.02536c0.01401,0 0.02536,0.01135 0.02536,0.02536z" fill="#ffc4c4" stroke="none"/><path d="M232.3461,165.96252c0,0.01556 -0.01262,0.02818 -0.02818,0.02818c-0.01556,0 -0.02818,-0.01262 -0.02818,-0.02818c0,-0.01556 0.01262,-0.02818 0.02818,-0.02818c0.01556,0 0.02818,0.01261 0.02818,0.02818z" fill="#ffa3a3" stroke="none"/><path d="M232.62509,165.84698c0,0.02179 -0.01766,0.03945 -0.03945,0.03945c-0.02179,0 -0.03945,-0.01766 -0.03945,-0.03945c0,-0.02179 0.01766,-0.03945 0.03945,-0.03945c0.02179,0 0.03945,0.01766 0.03945,0.03945z" fill="#ff9898" stroke="none"/><path d="M232.41937,166.09779c0,0.01556 -0.01262,0.02818 -0.02818,0.02818c-0.01556,0 -0.02818,-0.01262 -0.02818,-0.02818c0,-0.01556 0.01262,-0.02818 0.02818,-0.02818c0.01556,0 0.02818,0.01261 0.02818,0.02818z" fill="#ffc4c4" stroke="none"/><path d="M232.56873,165.99916c0,0.03735 -0.03028,0.06764 -0.06763,0.06764c-0.03736,0 -0.06764,-0.03028 -0.06764,-0.06764c0,-0.03735 0.03028,-0.06763 0.06764,-0.06763c0.03736,0 0.06763,0.03028 0.06763,0.06763z" fill="#ff7272" stroke="none"/></g><g><path d="M231.70265,166.15603c0.19454,0 0.35225,0.15771 0.35225,0.35225c0,0.19454 -0.15771,0.35225 -0.35225,0.35225c-0.19454,0 -0.35225,-0.15771 -0.35225,-0.35225c0,-0.19454 0.15771,-0.35225 0.35225,-0.35225z" fill="#c30007" stroke="#8a0005"/><path d="M231.89052,166.47822c0.03735,0 0.06764,0.03028 0.06764,0.06763c0,0.03735 -0.03028,0.06763 -0.06764,0.06763c-0.03735,0 -0.06763,-0.03028 -0.06763,-0.06763c0,-0.03735 0.03028,-0.06763 0.06763,-0.06763z" fill="#ff7272" stroke="none"/><path d="M231.65381,166.42749c0.01868,0 0.03382,0.01514 0.03382,0.03382c0,0.01868 -0.01514,0.03381 -0.03382,0.03381c-0.01868,0 -0.03381,-0.01514 -0.03381,-0.03381c0,-0.01868 0.01514,-0.03382 0.03381,-0.03382z" fill="#ff9191" stroke="none"/><path d="M231.85107,166.33732c0.02179,0 0.03945,0.01766 0.03945,0.03945c0,0.02179 -0.01766,0.03945 -0.03945,0.03945c-0.02179,0 -0.03945,-0.01766 -0.03945,-0.03945c0,-0.02179 0.01766,-0.03945 0.03945,-0.03945z" fill="#ffaeae" stroke="none"/><path d="M231.6989,166.23587c0.03735,0 0.06764,0.03028 0.06764,0.06763c0,0.03735 -0.03028,0.06764 -0.06764,0.06764c-0.03735,0 -0.06763,-0.03028 -0.06763,-0.06764c0,-0.03735 0.03028,-0.06763 0.06763,-0.06763z" fill="#ff7272" stroke="none"/><path d="M231.52136,166.31477c0.01401,0 0.02536,0.01135 0.02536,0.02536c0,0.01401 -0.01135,0.02536 -0.02536,0.02536c-0.01401,0 -0.02536,-0.01135 -0.02536,-0.02536c0,-0.01401 0.01135,-0.02536 0.02536,-0.02536z" fill="#ffc4c4" stroke="none"/><path d="M231.73553,166.58249c0.01556,0 0.02818,0.01261 0.02818,0.02818c0,0.01556 -0.01261,0.02818 -0.02818,0.02818c-0.01556,0 -0.02818,-0.01262 -0.02818,-0.02818c0,-0.01556 0.01262,-0.02818 0.02818,-0.02818z" fill="#ffa3a3" stroke="none"/><path d="M231.46782,166.45568c0.02179,0 0.03945,0.01766 0.03945,0.03945c0,0.02179 -0.01766,0.03945 -0.03945,0.03945c-0.02179,0 -0.03945,-0.01766 -0.03945,-0.03945c0,-0.02179 0.01766,-0.03945 0.03945,-0.03945z" fill="#ff9898" stroke="none"/><path d="M231.66226,166.71775c0.01556,0 0.02818,0.01261 0.02818,0.02818c0,0.01556 -0.01262,0.02818 -0.02818,0.02818c-0.01556,0 -0.02818,-0.01262 -0.02818,-0.02818c0,-0.01556 0.01261,-0.02818 0.02818,-0.02818z" fill="#ffc4c4" stroke="none"/><path d="M231.55236,166.57967c0.03735,0 0.06764,0.03028 0.06764,0.06764c0,0.03735 -0.03028,0.06764 -0.06764,0.06764c-0.03735,0 -0.06764,-0.03028 -0.06764,-0.06764c0,-0.03735 0.03028,-0.06764 0.06764,-0.06764z" fill="#ff7272" stroke="none"/></g><g><path d="M231.18132,167.49459c0,-0.19454 0.15771,-0.35225 0.35225,-0.35225c0.19454,0 0.35225,0.15771 0.35225,0.35225c0,0.19454 -0.15771,0.35225 -0.35225,0.35225c-0.19454,0 -0.35225,-0.15771 -0.35225,-0.35225z" fill="#c30007" stroke="#8a0005"/><path d="M231.65381,167.45702c0,-0.03735 0.03028,-0.06764 0.06764,-0.06764c0.03735,0 0.06764,0.03028 0.06764,0.06764c0,0.03735 -0.03028,0.06764 -0.06764,0.06764c-0.03735,0 -0.06764,-0.03028 -0.06764,-0.06764z" fill="#ff7272" stroke="none"/><path d="M231.45091,167.54155c0,-0.01868 0.01514,-0.03382 0.03381,-0.03382c0.01868,0 0.03382,0.01514 0.03382,0.03382c0,0.01868 -0.01514,0.03381 -0.03382,0.03381c-0.01868,0 -0.03381,-0.01514 -0.03381,-0.03381z" fill="#ff9191" stroke="none"/><path d="M231.64254,167.6261c0,-0.02179 0.01766,-0.03945 0.03945,-0.03945c0.02179,0 0.03945,0.01766 0.03945,0.03945c0,0.02179 -0.01766,0.03945 -0.03945,0.03945c-0.02179,0 -0.03945,-0.01766 -0.03945,-0.03945z" fill="#ffaeae" stroke="none"/><path d="M231.46218,167.69937c0,-0.03735 0.03028,-0.06763 0.06764,-0.06763c0.03735,0 0.06764,0.03028 0.06764,0.06763c0,0.03735 -0.03028,0.06764 -0.06764,0.06764c-0.03735,0 -0.06764,-0.03028 -0.06764,-0.06764z" fill="#ff7272" stroke="none"/><path d="M231.32692,167.66273c0,-0.01401 0.01135,-0.02536 0.02536,-0.02536c0.01401,0 0.02536,0.01135 0.02536,0.02536c0,0.01401 -0.01135,0.02536 -0.02536,0.02536c-0.01401,0 -0.02536,-0.01135 -0.02536,-0.02536z" fill="#ffc4c4" stroke="none"/><path d="M231.53827,167.3922c0,-0.01556 0.01262,-0.02818 0.02818,-0.02818c0.01556,0 0.02818,0.01261 0.02818,0.02818c0,0.01556 -0.01261,0.02818 -0.02818,0.02818c-0.01556,0 -0.02818,-0.01262 -0.02818,-0.02818z" fill="#ffa3a3" stroke="none"/><path d="M231.25928,167.50774c0,-0.02179 0.01766,-0.03945 0.03945,-0.03945c0.02179,0 0.03945,0.01766 0.03945,0.03945c0,0.02179 -0.01766,0.03945 -0.03945,0.03945c-0.02179,0 -0.03945,-0.01766 -0.03945,-0.03945z" fill="#ff9898" stroke="none"/><path d="M231.465,167.25693c0,-0.01556 0.01262,-0.02818 0.02818,-0.02818c0.01556,0 0.02818,0.01261 0.02818,0.02818c0,0.01556 -0.01261,0.02818 -0.02818,0.02818c-0.01556,0 -0.02818,-0.01262 -0.02818,-0.02818z" fill="#ffc4c4" stroke="none"/><path d="M231.31564,167.35557c0,-0.03735 0.03028,-0.06764 0.06764,-0.06764c0.03735,0 0.06763,0.03028 0.06763,0.06764c0,0.03735 -0.03028,0.06763 -0.06763,0.06763c-0.03735,0 -0.06764,-0.03028 -0.06764,-0.06763z" fill="#ff7272" stroke="none"/></g><g><path d="M232.15354,167.93139c0.19454,0 0.35225,0.15771 0.35225,0.35225c0,0.19454 -0.15771,0.35225 -0.35225,0.35225c-0.19455,0 -0.35225,-0.15771 -0.35225,-0.35225c0,-0.19454 0.15771,-0.35225 0.35225,-0.35225z" fill="#c30007" stroke="#8a0005"/><path d="M232.3414,168.25358c0.03735,0 0.06763,0.03028 0.06763,0.06763c0,0.03735 -0.03028,0.06764 -0.06763,0.06764c-0.03736,0 -0.06763,-0.03028 -0.06763,-0.06764c0,-0.03735 0.03028,-0.06763 0.06763,-0.06763z" fill="#ff7272" stroke="none"/><path d="M232.10469,168.20285c0.01868,0 0.03382,0.01514 0.03382,0.03382c0,0.01868 -0.01514,0.03381 -0.03382,0.03381c-0.01868,0 -0.03381,-0.01514 -0.03381,-0.03381c0,-0.01868 0.01514,-0.03382 0.03381,-0.03382z" fill="#ff9191" stroke="none"/><path d="M232.30196,168.11268c0.02179,0 0.03945,0.01766 0.03945,0.03945c0,0.02179 -0.01766,0.03945 -0.03945,0.03945c-0.02179,0 -0.03945,-0.01766 -0.03945,-0.03945c0,-0.02179 0.01766,-0.03945 0.03945,-0.03945z" fill="#ffaeae" stroke="none"/><path d="M232.14978,168.01123c0.03736,0 0.06764,0.03028 0.06764,0.06763c0,0.03735 -0.03028,0.06764 -0.06764,0.06764c-0.03735,0 -0.06763,-0.03028 -0.06763,-0.06764c0,-0.03735 0.03028,-0.06763 0.06763,-0.06763z" fill="#ff7272" stroke="none"/><path d="M231.97225,168.09013c0.01401,0 0.02536,0.01135 0.02536,0.02536c0,0.01401 -0.01135,0.02536 -0.02536,0.02536c-0.01401,0 -0.02536,-0.01135 -0.02536,-0.02536c0,-0.01401 0.01135,-0.02536 0.02536,-0.02536z" fill="#ffc4c4" stroke="none"/><path d="M232.18642,168.35784c0.01556,0 0.02818,0.01262 0.02818,0.02818c0,0.01556 -0.01262,0.02818 -0.02818,0.02818c-0.01556,0 -0.02818,-0.01262 -0.02818,-0.02818c0,-0.01556 0.01261,-0.02818 0.02818,-0.02818z" fill="#ffa3a3" stroke="none"/><path d="M231.9187,168.23103c0.02179,0 0.03945,0.01766 0.03945,0.03945c0,0.02179 -0.01766,0.03945 -0.03945,0.03945c-0.02179,0 -0.03945,-0.01766 -0.03945,-0.03945c0,-0.02179 0.01766,-0.03945 0.03945,-0.03945z" fill="#ff9898" stroke="none"/><path d="M232.11315,168.49311c0.01556,0 0.02818,0.01262 0.02818,0.02818c0,0.01556 -0.01262,0.02818 -0.02818,0.02818c-0.01556,0 -0.02818,-0.01261 -0.02818,-0.02818c0,-0.01556 0.01261,-0.02818 0.02818,-0.02818z" fill="#ffc4c4" stroke="none"/><path d="M232.00324,168.35503c0.03735,0 0.06763,0.03028 0.06763,0.06764c0,0.03735 -0.03028,0.06763 -0.06763,0.06763c-0.03735,0 -0.06764,-0.03028 -0.06764,-0.06763c0,-0.03735 0.03028,-0.06764 0.06764,-0.06764z" fill="#ff7272" stroke="none"/></g><g><path d="M232.47761,169.01632c0,-0.19454 0.15771,-0.35225 0.35225,-0.35225c0.19454,0 0.35225,0.15771 0.35225,0.35225c0,0.19454 -0.15771,0.35225 -0.35225,0.35225c-0.19454,0 -0.35225,-0.15771 -0.35225,-0.35225z" fill="#c30007" stroke="#8a0005"/><path d="M232.9501,168.97875c0,-0.03735 0.03028,-0.06764 0.06764,-0.06764c0.03736,0 0.06764,0.03028 0.06764,0.06764c0,0.03735 -0.03028,0.06764 -0.06764,0.06764c-0.03736,0 -0.06764,-0.03028 -0.06764,-0.06764z" fill="#ff7272" stroke="none"/><path d="M232.7472,169.06329c0,-0.01868 0.01514,-0.03382 0.03382,-0.03382c0.01868,0 0.03382,0.01514 0.03382,0.03382c0,0.01868 -0.01514,0.03381 -0.03382,0.03381c-0.01868,0 -0.03382,-0.01514 -0.03382,-0.03381z" fill="#ff9191" stroke="none"/><path d="M232.93883,169.14783c0,-0.02179 0.01766,-0.03945 0.03945,-0.03945c0.02179,0 0.03945,0.01766 0.03945,0.03945c0,0.02179 -0.01766,0.03945 -0.03945,0.03945c-0.02179,0 -0.03945,-0.01766 -0.03945,-0.03945z" fill="#ffaeae" stroke="none"/><path d="M232.75848,169.2211c0,-0.03735 0.03028,-0.06763 0.06764,-0.06763c0.03736,0 0.06764,0.03028 0.06764,0.06763c0,0.03735 -0.03028,0.06764 -0.06764,0.06764c-0.03736,0 -0.06764,-0.03028 -0.06764,-0.06764z" fill="#ff7272" stroke="none"/><path d="M232.62321,169.18447c0,-0.01401 0.01135,-0.02536 0.02536,-0.02536c0.01401,0 0.02536,0.01135 0.02536,0.02536c0,0.01401 -0.01136,0.02536 -0.02536,0.02536c-0.01401,0 -0.02536,-0.01135 -0.02536,-0.02536z" fill="#ffc4c4" stroke="none"/><path d="M232.83456,168.91393c0,-0.01556 0.01262,-0.02818 0.02818,-0.02818c0.01556,0 0.02818,0.01261 0.02818,0.02818c0,0.01556 -0.01262,0.02818 -0.02818,0.02818c-0.01556,0 -0.02818,-0.01262 -0.02818,-0.02818z" fill="#ffa3a3" stroke="none"/><path d="M232.55558,169.02947c0,-0.02179 0.01766,-0.03945 0.03945,-0.03945c0.02179,0 0.03945,0.01766 0.03945,0.03945c0,0.02179 -0.01766,0.03945 -0.03945,0.03945c-0.02179,0 -0.03945,-0.01766 -0.03945,-0.03945z" fill="#ff9898" stroke="none"/><path d="M232.76129,168.77867c0,-0.01556 0.01262,-0.02818 0.02818,-0.02818c0.01556,0 0.02818,0.01261 0.02818,0.02818c0,0.01556 -0.01262,0.02818 -0.02818,0.02818c-0.01556,0 -0.02818,-0.01262 -0.02818,-0.02818z" fill="#ffc4c4" stroke="none"/><path d="M232.61194,168.8773c0,-0.03735 0.03028,-0.06764 0.06764,-0.06764c0.03735,0 0.06763,0.03028 0.06763,0.06764c0,0.03735 -0.03028,0.06763 -0.06763,0.06763c-0.03736,0 -0.06764,-0.03028 -0.06764,-0.06763z" fill="#ff7272" stroke="none"/></g><g><path d="M233.84436,169.36858c-0.19454,0 -0.35225,-0.15771 -0.35225,-0.35225c0,-0.19454 0.15771,-0.35225 0.35225,-0.35225c0.19454,0 0.35225,0.15771 0.35225,0.35225c0,0.19454 -0.15771,0.35225 -0.35225,0.35225z" fill="#c30007" stroke="#8a0005"/><path d="M233.65649,169.04638c-0.03736,0 -0.06764,-0.03028 -0.06764,-0.06764c0,-0.03735 0.03028,-0.06764 0.06764,-0.06764c0.03736,0 0.06764,0.03028 0.06764,0.06764c0,0.03735 -0.03028,0.06764 -0.06764,0.06764z" fill="#ff7272" stroke="none"/><path d="M233.8932,169.09711c-0.01867,0 -0.03381,-0.01514 -0.03381,-0.03381c0,-0.01868 0.01514,-0.03382 0.03381,-0.03382c0.01867,0 0.03381,0.01514 0.03381,0.03382c0,0.01868 -0.01514,0.03381 -0.03381,0.03381z" fill="#ff9191" stroke="none"/><path d="M233.69594,169.18729c-0.02179,0 -0.03945,-0.01766 -0.03945,-0.03945c0,-0.02179 0.01766,-0.03945 0.03945,-0.03945c0.02179,0 0.03945,0.01766 0.03945,0.03945c0,0.02179 -0.01766,0.03945 -0.03945,0.03945z" fill="#ffaeae" stroke="none"/><path d="M233.84811,169.28873c-0.03736,0 -0.06764,-0.03028 -0.06764,-0.06764c0,-0.03735 0.03028,-0.06763 0.06764,-0.06763c0.03736,0 0.06764,0.03028 0.06764,0.06763c0,0.03735 -0.03028,0.06764 -0.06764,0.06764z" fill="#ff7272" stroke="none"/><path d="M234.02565,169.20983c-0.01401,0 -0.02536,-0.01135 -0.02536,-0.02536c0,-0.01401 0.01136,-0.02536 0.02536,-0.02536c0.01401,0 0.02536,0.01135 0.02536,0.02536c0,0.01401 -0.01135,0.02536 -0.02536,0.02536z" fill="#ffc4c4" stroke="none"/><path d="M233.81148,168.94211c-0.01556,0 -0.02818,-0.01262 -0.02818,-0.02818c0,-0.01556 0.01262,-0.02818 0.02818,-0.02818c0.01556,0 0.02818,0.01261 0.02818,0.02818c0,0.01556 -0.01262,0.02818 -0.02818,0.02818z" fill="#ffa3a3" stroke="none"/><path d="M234.07919,169.06893c-0.02179,0 -0.03945,-0.01766 -0.03945,-0.03945c0,-0.02179 0.01766,-0.03945 0.03945,-0.03945c0.02179,0 0.03945,0.01766 0.03945,0.03945c0,0.02179 -0.01766,0.03945 -0.03945,0.03945z" fill="#ff9898" stroke="none"/><path d="M233.88475,168.80685c-0.01556,0 -0.02818,-0.01262 -0.02818,-0.02818c0,-0.01556 0.01262,-0.02818 0.02818,-0.02818c0.01556,0 0.02818,0.01261 0.02818,0.02818c0,0.01556 -0.01262,0.02818 -0.02818,0.02818z" fill="#ffc4c4" stroke="none"/><path d="M233.99465,168.94493c-0.03735,0 -0.06763,-0.03028 -0.06763,-0.06764c0,-0.03735 0.03028,-0.06764 0.06763,-0.06764c0.03736,0 0.06764,0.03028 0.06764,0.06764c0,0.03735 -0.03028,0.06764 -0.06764,0.06764z" fill="#ff7272" stroke="none"/></g><g><path d="M232.87214,168.17092c0,-0.19454 0.15771,-0.35225 0.35225,-0.35225c0.19454,0 0.35225,0.15771 0.35225,0.35225c0,0.19454 -0.15771,0.35225 -0.35225,0.35225c-0.19454,0 -0.35225,-0.15771 -0.35225,-0.35225z" fill="#c30007" stroke="#8a0005"/><path d="M233.34463,168.13334c0,-0.03735 0.03028,-0.06763 0.06763,-0.06763c0.03736,0 0.06763,0.03028 0.06763,0.06763c0,0.03735 -0.03028,0.06764 -0.06763,0.06764c-0.03736,0 -0.06763,-0.03028 -0.06763,-0.06764z" fill="#ff7272" stroke="none"/><path d="M233.14173,168.21788c0,-0.01868 0.01514,-0.03381 0.03382,-0.03381c0.01868,0 0.03382,0.01514 0.03382,0.03381c0,0.01868 -0.01514,0.03382 -0.03382,0.03382c-0.01868,0 -0.03382,-0.01514 -0.03382,-0.03382z" fill="#ff9191" stroke="none"/><path d="M233.33335,168.30243c0,-0.02179 0.01766,-0.03945 0.03945,-0.03945c0.02179,0 0.03945,0.01766 0.03945,0.03945c0,0.02179 -0.01766,0.03945 -0.03945,0.03945c-0.02179,0 -0.03945,-0.01766 -0.03945,-0.03945z" fill="#ffaeae" stroke="none"/><path d="M233.153,168.37569c0,-0.03735 0.03028,-0.06764 0.06763,-0.06764c0.03735,0 0.06763,0.03028 0.06763,0.06764c0,0.03735 -0.03028,0.06764 -0.06763,0.06764c-0.03735,0 -0.06763,-0.03028 -0.06763,-0.06764z" fill="#ff7272" stroke="none"/><path d="M233.01773,168.33906c0,-0.01401 0.01135,-0.02536 0.02536,-0.02536c0.01401,0 0.02536,0.01135 0.02536,0.02536c0,0.01401 -0.01135,0.02536 -0.02536,0.02536c-0.01401,0 -0.02536,-0.01135 -0.02536,-0.02536z" fill="#ffc4c4" stroke="none"/><path d="M233.22909,168.06853c0,-0.01556 0.01262,-0.02818 0.02818,-0.02818c0.01556,0 0.02818,0.01262 0.02818,0.02818c0,0.01556 -0.01261,0.02818 -0.02818,0.02818c-0.01556,0 -0.02818,-0.01261 -0.02818,-0.02818z" fill="#ffa3a3" stroke="none"/><path d="M232.9501,168.18407c0,-0.02179 0.01766,-0.03945 0.03945,-0.03945c0.02179,0 0.03945,0.01766 0.03945,0.03945c0,0.02179 -0.01766,0.03945 -0.03945,0.03945c-0.02179,0 -0.03945,-0.01766 -0.03945,-0.03945z" fill="#ff9898" stroke="none"/><path d="M233.15582,167.93326c0,-0.01556 0.01261,-0.02818 0.02818,-0.02818c0.01556,0 0.02818,0.01262 0.02818,0.02818c0,0.01556 -0.01262,0.02818 -0.02818,0.02818c-0.01556,0 -0.02818,-0.01261 -0.02818,-0.02818z" fill="#ffc4c4" stroke="none"/><path d="M233.00646,168.03189c0,-0.03735 0.03028,-0.06763 0.06763,-0.06763c0.03735,0 0.06763,0.03028 0.06763,0.06763c0,0.03735 -0.03028,0.06764 -0.06763,0.06764c-0.03735,0 -0.06763,-0.03028 -0.06763,-0.06764z" fill="#ff7272" stroke="none"/></g></g><g fill="#81ff35" stroke="#68cc2b" stroke-width="0.15"><path d="M233.12648,167.48074c-0.05339,0.0123 -0.14065,0.02634 -0.20859,0.0157c-0.02667,-0.02953 -0.05951,-0.05339 -0.09648,-0.06954c-0.04494,-0.19494 0.24718,-0.11655 0.28744,-0.18267c0.00028,-0.00046 0.00057,-0.00092 0.00085,-0.00139c0.01641,0.02212 0.03587,0.04626 0.05802,0.07544c0.00599,0.0079 -0.0209,0.04722 -0.02288,0.05553c-0.00532,0.02245 -0.01363,0.0629 -0.01837,0.10693z" data-paper-data="{&quot;index&quot;:null}"/><path d="M234.85297,167.37347c0.00124,-0.15851 0.14883,-0.15477 0.30234,-0.1614c0.00753,0.02443 0.01317,0.04845 0.01423,0.07177c0.00239,0.0526 -0.01394,0.10768 -0.01691,0.15959c-0.00144,0.02517 -0.01043,0.0422 -0.02324,0.05495c-0.05031,-0.07694 -0.13723,-0.12778 -0.23602,-0.12778c-0.01372,0 -0.02721,0.00098 -0.04041,0.00287z" data-paper-data="{&quot;index&quot;:null}"/><path d="M233.05182,169.05053c-0.00197,-0.00831 -0.02887,-0.04764 -0.02288,-0.05553c0.02216,-0.02917 0.04162,-0.05331 0.05803,-0.07544c0.00028,0.00046 0.00056,0.00092 0.00084,0.00139c0.04026,0.06612 0.33238,-0.01227 0.28744,0.18267c-0.03697,0.01616 -0.06981,0.04001 -0.09648,0.06954c-0.06794,0.01064 -0.1552,-0.0034 -0.20859,-0.0157c-0.00474,-0.04403 -0.01305,-0.08449 -0.01836,-0.10693z" data-paper-data="{&quot;index&quot;:null}"/><path d="M231.6686,168.49236c0.01319,0.00189 0.02669,0.00287 0.04041,0.00287c0.09879,0 0.18571,-0.05084 0.23602,-0.12777c0.0128,0.01274 0.0218,0.02977 0.02324,0.05494c0.00296,0.0519 0.0193,0.10699 0.01691,0.15959c-0.00106,0.02332 -0.0067,0.04734 -0.01423,0.07177c-0.15351,-0.00664 -0.30111,-0.00289 -0.30235,-0.1614z" data-paper-data="{&quot;index&quot;:null}"/><path d="M232.61331,165.96058c0,-0.01157 -0.00062,-0.02277 -0.00182,-0.03362c0.02832,-0.00924 0.05846,-0.02427 0.08851,-0.0429c0.01399,0.00214 0.02832,0.00325 0.04292,0.00325c0.00786,0.00197 0.01541,0.00385 0.02257,0.00564h0.05448c0.02776,0.02082 0.05388,0.03554 0.07935,0.04514c-0.03011,0.08882 -0.10557,0.15671 -0.19882,0.1761c-0.01694,-0.0511 -0.04811,-0.09571 -0.08882,-0.12914c0.00106,-0.00808 0.00162,-0.01624 0.00162,-0.02447z" data-paper-data="{&quot;index&quot;:null}"/></g></g></g></g></svg>